<?xml version="1.0" standalone="no"?>
<!DOCTYPE svg PUBLIC "-//W3C//DTD SVG 1.1//EN" "http://www.w3.org/Graphics/SVG/1.1/DTD/svg11.dtd" >
<svg xmlns="http://www.w3.org/2000/svg">
<metadata></metadata>
<defs>
<font id="abezehlight" horiz-adv-x="1228" >
<font-face units-per-em="2048" ascent="1638" descent="-410" />
<missing-glyph horiz-adv-x="614" />
<glyph unicode="&#xfb01;" horiz-adv-x="1169" d="M53 920v106h168v180q0 151 94 242.5t250 91.5q97 0 173 -25t153 -73l-57 -90q-70 39 -128.5 58.5t-134.5 19.5q-108 0 -167.5 -60t-59.5 -164v-180h647v-1026h-123v920h-524v-920h-123v920h-168z" />
<glyph unicode="&#xfb02;" horiz-adv-x="1353" d="M53 920v106h168v174q0 152 95 246t257 94q187 0 394 -108v-1123q0 -115 52.5 -169t143.5 -54q70 0 152 29l31 -99q-87 -41 -193 -41q-62 0 -116 17.5t-98 53.5t-69.5 98t-25.5 143v1087q-145 56 -262 56q-116 0 -177 -62t-61 -168v-174h326l-17 -106h-309v-920h-123v920 h-168z" />
<glyph unicode="&#xfb03;" horiz-adv-x="1808" d="M53 920v106h168v137q0 163 94.5 258t255.5 95q179 0 357 -95q98 119 276 119q97 0 173 -25t153 -73l-57 -90q-70 39 -128.5 58.5t-134.5 19.5q-108 0 -167.5 -60t-59.5 -164v-180h647v-1026h-123v920h-524v-920h-123v920h-516v-920h-123v920h-168zM344 1026h516v180 q0 62 21 127q-159 76 -301 76q-112 0 -174 -62.5t-62 -170.5v-150z" />
<glyph unicode="&#xfb04;" horiz-adv-x="1992" d="M53 920v106h168v137q0 163 94.5 258t255.5 95q175 0 361 -97q94 121 280 121q187 0 394 -108v-1123q0 -115 52.5 -169t143.5 -54q70 0 152 29l31 -99q-87 -41 -193 -41q-62 0 -116 17.5t-98 53.5t-69.5 98t-25.5 143v1087q-145 56 -262 56q-116 0 -177 -62t-61 -168v-174 h326l-17 -106h-309v-920h-123v920h-516v-920h-123v920h-168zM344 1026h516v174q0 66 23 133q-159 76 -303 76q-112 0 -174 -62.5t-62 -170.5v-150z" />
<glyph horiz-adv-x="2048" />
<glyph horiz-adv-x="2048" />
<glyph unicode="&#xd;" horiz-adv-x="2048" />
<glyph unicode=" "  horiz-adv-x="614" />
<glyph unicode="&#x09;" horiz-adv-x="614" />
<glyph unicode="&#xa0;" horiz-adv-x="614" />
<glyph unicode="!" horiz-adv-x="598" d="M201 78q0 44 27 72t71 28q43 0 71.5 -28t28.5 -72q0 -43 -27.5 -70.5t-72.5 -27.5q-42 0 -70 28t-28 70zM229 885v608h138v-608l-17 -508h-104z" />
<glyph unicode="&#x22;" horiz-adv-x="688" d="M129 1434h119l-10 -435h-99zM440 1434h119l-10 -435h-98z" />
<glyph unicode="#" horiz-adv-x="1353" d="M90 293l16 102h193l94 529h-192l16 102h195l53 293h110l-53 -293h445l53 293h110l-53 -293h187l-17 -102h-186l-94 -529h184l-16 -102h-187l-49 -293h-111l50 293h-445l-49 -293h-111l50 293h-193zM410 395h444l94 529h-444z" />
<glyph unicode="$" horiz-adv-x="1052" d="M59 147l64 91q84 -60 170.5 -90.5t210.5 -30.5q155 0 250.5 67.5t95.5 188.5q0 72 -28 121t-103.5 94t-216.5 92q-222 73 -311 153.5t-89 225.5q0 138 103.5 227.5t283.5 99.5l-10 228h121l-10 -228q189 -11 354 -110l-49 -94q-163 102 -360 102q-142 0 -226 -60 t-84 -161t69.5 -161t262.5 -122q233 -78 325.5 -167t92.5 -234q0 -156 -110.5 -252.5t-295.5 -114.5l11 -211h-121l10 209q-244 8 -410 137z" />
<glyph unicode="%" horiz-adv-x="1988" d="M121 1001q0 215 89.5 331t250.5 116q160 0 249 -117.5t89 -333.5q0 -215 -90.5 -330.5t-251.5 -115.5q-160 0 -248 117t-88 333zM236 1001q0 -175 60.5 -266.5t164.5 -91.5q105 0 165 85.5t60 268.5q0 176 -60.5 267.5t-164.5 91.5q-106 0 -165.5 -86t-59.5 -269z M498 -29l911 1545l84 -54l-911 -1544zM1188 436q0 215 89.5 331t250.5 116q160 0 249 -117.5t89 -333.5q0 -215 -90.5 -330.5t-251.5 -115.5q-160 0 -248 117t-88 333zM1303 436q0 -176 60.5 -267t164.5 -91q105 0 165 85.5t60 268.5q0 176 -60.5 267.5t-164.5 91.5 q-106 0 -165.5 -86t-59.5 -269z" />
<glyph unicode="&#x26;" horiz-adv-x="1525" d="M201 358q0 137 74 240.5t233 189.5q-91 96 -129.5 170.5t-38.5 171.5q0 140 95.5 234t248.5 94q146 0 235 -88.5t89 -214.5q0 -125 -77 -213.5t-259 -175.5l393 -397q19 38 34 92.5t23.5 100.5t25 94t37.5 81t61.5 54.5t96.5 21.5l19 -98q-49 0 -79 -26t-44.5 -72.5 t-24 -96.5t-26.5 -113t-43 -108l246 -233l-78 -82l-228 221q-170 -230 -452 -230q-185 0 -308.5 106.5t-123.5 276.5zM330 369q0 -129 86 -205t223 -76q234 0 371 191l-441 442q-128 -76 -183.5 -156.5t-55.5 -195.5zM457 1133q0 -82 34 -149t117 -150q155 71 219 144 t64 173q0 90 -57.5 148.5t-153.5 58.5q-97 0 -160 -64t-63 -161z" />
<glyph unicode="'" horiz-adv-x="378" d="M129 1434h119l-10 -433h-99z" />
<glyph unicode="(" horiz-adv-x="602" d="M125 655q0 243 68.5 460.5t209.5 445.5l76 -41q-225 -420 -225 -865q0 -435 223 -864l-74 -41q-142 237 -210 452t-68 453z" />
<glyph unicode=")" horiz-adv-x="602" d="M125 -209q223 423 223 864q0 449 -223 865l76 41q140 -229 209 -446.5t69 -459.5q0 -237 -68.5 -451.5t-209.5 -453.5z" />
<glyph unicode="*" horiz-adv-x="903" d="M125 1237l33 104l252 -94l-13 269h113l-14 -267l252 92l32 -104l-254 -72l164 -209l-90 -65l-145 223l-150 -223l-90 65l166 207z" />
<glyph unicode="+" d="M227 649v107h330v352h117v-352h327v-107h-327v-350h-117v350h-330z" />
<glyph unicode="," horiz-adv-x="614" d="M113 -250q138 183 180 402l123 -35q-38 -250 -234 -406z" />
<glyph unicode="-" horiz-adv-x="1024" d="M174 647v113h674v-113h-674z" />
<glyph unicode="." horiz-adv-x="614" d="M209 78q0 44 27 72t71 28q43 0 72 -28t29 -72q0 -43 -28 -70.5t-73 -27.5q-42 0 -70 28t-28 70z" />
<glyph unicode="/" horiz-adv-x="921" d="M119 -104l581 1681l103 -35l-582 -1681z" />
<glyph unicode="0" d="M135 707q0 352 126 539.5t355 187.5t354.5 -189.5t125.5 -542.5q0 -351 -127 -539t-355 -188q-230 0 -354.5 189.5t-124.5 542.5zM266 709q0 -305 93 -463t255 -158q80 0 143 34t109.5 105.5t71.5 191t25 281.5q0 305 -93 463t-256 158q-348 0 -348 -612z" />
<glyph unicode="1" horiz-adv-x="911" d="M74 1145l413 264h97v-1296h256v-113h-693v113h312v1142l-330 -204z" />
<glyph unicode="2" horiz-adv-x="997" d="M74 1276q180 158 407 158q184 0 293 -98t109 -255q0 -83 -35.5 -157.5t-93 -133t-127 -115t-140 -115.5t-130 -122t-99.5 -146.5t-45 -178.5h688v-113h-817q-6 27 -6 59q0 91 23 173t62 145t89.5 120t106.5 104.5t112 92t106.5 88.5t89.5 88.5t62 97t23 109.5 q0 118 -75 182t-202 64q-178 0 -330 -131z" />
<glyph unicode="3" horiz-adv-x="1009" d="M37 94l65 90q71 -47 145 -71.5t173 -24.5q158 2 250 80.5t92 220.5q0 144 -99.5 221.5t-289.5 77.5h-121v103h115q168 0 261 72t93 202q0 119 -79.5 188.5t-211.5 69.5q-98 0 -168 -25.5t-145 -74.5l-56 90q162 121 375 121q188 0 301 -102t113 -259q0 -141 -76.5 -221 t-200.5 -104q63 -8 119 -33.5t101.5 -68.5t72.5 -108.5t27 -146.5q0 -189 -129.5 -302.5t-341.5 -113.5q-225 0 -385 119z" />
<glyph unicode="4" horiz-adv-x="1087" d="M82 324v98l432 999l113 -45l-406 -940h500l14 432h109v-432h182v-112h-182v-324h-123v324h-639z" />
<glyph unicode="5" horiz-adv-x="1032" d="M66 92l55 94q81 -50 160 -74t182 -24q160 0 255 86.5t95 241.5q0 154 -96.5 234.5t-284.5 80.5h-260v678h700v-113h-583v-456h160q238 0 366.5 -112.5t128.5 -307.5q0 -203 -133 -324t-348 -121q-235 0 -397 117z" />
<glyph unicode="6" horiz-adv-x="1153" d="M121 575q0 141 29 266.5t88.5 230t143.5 180.5t199.5 118.5t252.5 42.5q31 0 81 -4v-113q-50 4 -79 4q-254 0 -408 -166.5t-174 -453.5q70 93 163 146t230 53q176 0 291 -116.5t115 -305.5q0 -218 -127.5 -350t-325.5 -132q-100 0 -185.5 36.5t-152 108t-104 188.5 t-37.5 267zM252 549q3 -224 96.5 -342.5t253.5 -118.5q145 0 232.5 98t87.5 263q0 149 -79.5 234t-213.5 85q-219 0 -377 -219z" />
<glyph unicode="7" horiz-adv-x="985" d="M49 1296v113h907v-98q-199 -181 -311.5 -365t-161.5 -407.5t-49 -538.5h-143q0 310 55.5 543t164 409.5t288.5 343.5h-750z" />
<glyph unicode="8" horiz-adv-x="1159" d="M94 369q0 277 355 393q-142 58 -211.5 135.5t-69.5 196.5q0 148 116 244t291 96q182 0 298 -96.5t116 -245.5q0 -244 -282 -330q178 -61 268 -158t90 -237q0 -172 -133.5 -282t-345.5 -110q-221 0 -356.5 111.5t-135.5 282.5zM223 377q0 -129 102.5 -210t262.5 -81 q156 0 252 78.5t96 200.5q0 233 -363 342q-159 -36 -254.5 -122.5t-95.5 -207.5zM293 1094q0 -101 74.5 -170.5t226.5 -114.5q128 35 199 105t71 173q0 106 -81.5 175t-207.5 69q-124 0 -203 -65.5t-79 -171.5z" />
<glyph unicode="9" horiz-adv-x="1138" d="M98 985q0 124 54 226t157 162.5t236 60.5q234 0 345 -161.5t111 -500.5q0 -178 -24 -315t-66 -227.5t-104.5 -148t-135 -82t-161.5 -24.5q-211 0 -354 146l71 86q65 -60 132 -89.5t153 -29.5q361 0 358 633q-151 -162 -356 -162q-81 0 -155 27.5t-132.5 79t-93.5 134 t-35 185.5zM227 989q0 -157 82 -241t217 -84q193 0 342 174q-1 251 -81.5 368t-239.5 117q-147 0 -233.5 -92t-86.5 -242z" />
<glyph unicode=":" horiz-adv-x="614" d="M209 78q0 44 27 72t71 28q43 0 72 -28t29 -72q0 -43 -28 -70.5t-73 -27.5q-42 0 -70 28t-28 70zM209 918q0 44 27 72t71 28q43 0 72 -28t29 -72q0 -43 -28 -71t-73 -28q-41 0 -69.5 28.5t-28.5 70.5z" />
<glyph unicode=";" horiz-adv-x="638" d="M113 -250q138 183 180 402l123 -35q-38 -250 -234 -406zM227 918q0 44 27.5 72t71.5 28q43 0 71.5 -28t28.5 -72q0 -43 -27.5 -71t-72.5 -28q-42 0 -70.5 28.5t-28.5 70.5z" />
<glyph unicode="&#x3c;" d="M260 662v79l647 404l62 -96l-566 -347l566 -346l-64 -96z" />
<glyph unicode="=" d="M236 467v108h759v-108h-759zM236 831v109h759v-109h-759z" />
<glyph unicode="&#x3e;" d="M266 356l565 346l-565 347l62 96l647 -404v-79l-645 -402z" />
<glyph unicode="?" horiz-adv-x="1005" d="M102 1325q165 215 416 215q165 0 269 -95t104 -235q0 -72 -22.5 -132.5t-59 -103.5t-80.5 -82.5t-88 -77.5t-80.5 -79t-59 -98t-22.5 -125v-127h-106q-17 80 -17 150q0 73 22 135.5t57.5 106.5t78.5 83t86 75t78.5 73.5t57.5 87t22 106.5q0 99 -66.5 162t-181.5 63 q-188 0 -317 -174zM334 78q0 44 27 72t71 28q43 0 71.5 -28t28.5 -72q0 -43 -27.5 -70.5t-72.5 -27.5q-42 0 -70 28t-28 70z" />
<glyph unicode="@" horiz-adv-x="2150" d="M158 434q0 202 71.5 386t197.5 322t312.5 220t403.5 82q186 0 345.5 -61t270 -167.5t172.5 -254t62 -316.5q0 -189 -58.5 -343t-160.5 -240.5t-226 -86.5q-98 0 -156.5 52t-66.5 135q-147 -162 -346 -162q-163 0 -275 123.5t-112 320.5q0 231 137 388t334 157 q215 0 328 -174l20 158h111l-88 -690q-7 -44 -7 -66q0 -73 33.5 -112t98.5 -39q127 0 217 163.5t90 413.5q0 202 -91.5 359.5t-255.5 244t-374 86.5q-158 0 -296.5 -49.5t-240.5 -135.5t-175.5 -199.5t-110.5 -244t-37 -266.5q0 -190 59 -341.5t163.5 -248t243 -147.5 t302.5 -51q274 0 526 127l39 -101q-255 -137 -567 -137q-189 0 -351 59.5t-283 170.5t-190 282t-69 383zM709 457q0 -166 77 -261.5t213 -95.5q176 0 318 164l55 445q-111 182 -299 182q-150 0 -257 -124.5t-107 -309.5z" />
<glyph unicode="A" horiz-adv-x="1341" d="M33 33l569 1401h143l564 -1401l-119 -45l-168 428h-700l-175 -428zM362 526h615l-305 789z" />
<glyph unicode="B" horiz-adv-x="1269" d="M197 8v1417q205 25 403 25q245 0 384.5 -104.5t139.5 -274.5q0 -130 -79.5 -211t-200.5 -108q153 -35 239 -122.5t86 -228.5q0 -196 -152 -306.5t-435 -110.5q-210 0 -385 24zM326 106q111 -12 268 -12q210 0 325 77t115 226q0 140 -110 216.5t-316 76.5h-282v-584z M326 793h272q176 0 283.5 69.5t107.5 202.5t-103.5 205.5t-287.5 72.5q-139 0 -272 -14v-536z" />
<glyph unicode="C" horiz-adv-x="1216" d="M115 715q0 216 80 384.5t229 263.5t342 95q190 0 356 -88l-41 -104q-76 38 -148 57.5t-167 19.5q-229 0 -372.5 -169.5t-143.5 -454.5q0 -284 138.5 -456.5t367.5 -172.5q102 0 181 23t169 69l41 -102q-184 -105 -393 -105q-288 0 -463.5 201.5t-175.5 538.5z" />
<glyph unicode="D" horiz-adv-x="1394" d="M197 10v1415q209 25 354 25q146 0 266.5 -38t205.5 -104.5t143.5 -159t86 -200.5t27.5 -229q0 -124 -26 -232.5t-83.5 -201.5t-142.5 -159.5t-208.5 -104t-276.5 -37.5q-186 0 -346 26zM326 111q114 -15 223 -15q124 0 223 30.5t168.5 85t115.5 132.5t67.5 171.5 t21.5 203.5q0 131 -36 242t-106.5 195.5t-184 132.5t-259.5 48q-123 0 -233 -14v-1212z" />
<glyph unicode="E" horiz-adv-x="1132" d="M197 0v1434h837v-113h-708v-514h612v-111h-612v-583h708v-113h-837z" />
<glyph unicode="F" horiz-adv-x="1079" d="M197 0v1434h827v-113h-698v-533h587v-110h-587v-678h-129z" />
<glyph unicode="G" horiz-adv-x="1370" d="M115 692q0 346 176 556t467 210q217 0 411 -112l-47 -103q-93 49 -175 74.5t-187 25.5q-226 0 -368 -171t-142 -478q0 -282 125.5 -443t335.5 -161q223 0 401 178v377h-336v111h467v-756h-123v156q-85 -83 -185.5 -132t-238.5 -49q-260 0 -420.5 195t-160.5 522z" />
<glyph unicode="H" horiz-adv-x="1431" d="M197 0v1434h129v-639h780v639h131v-1434h-131v682h-780v-682h-129z" />
<glyph unicode="I" horiz-adv-x="520" d="M197 0v1434h129v-1434h-129z" />
<glyph unicode="J" horiz-adv-x="858" d="M16 86l62 88q59 -43 111.5 -64.5t119.5 -21.5q109 0 176.5 78.5t67.5 241.5v1026h131v-1039q0 -206 -103.5 -313t-267.5 -107q-173 0 -297 111z" />
<glyph unicode="K" horiz-adv-x="1181" d="M197 0v1434h129v-666l671 674l88 -82l-632 -623l725 -663l-88 -92l-764 706v-688h-129z" />
<glyph unicode="L" horiz-adv-x="1038" d="M197 0v1434h129v-1315h704v-119h-833z" />
<glyph unicode="M" horiz-adv-x="1691" d="M197 0v1434h184l465 -1010l463 1010h188v-1434h-131v1282l-457 -989h-131l-459 989v-1282h-122z" />
<glyph unicode="N" horiz-adv-x="1431" d="M197 0v1434h176l741 -1282v1282h123v-1434h-174l-744 1278v-1278h-122z" />
<glyph unicode="O" horiz-adv-x="1558" d="M115 719q0 213 78 379.5t230 263t355 96.5q122 0 228.5 -37.5t186 -105.5t136.5 -160t86 -203.5t29 -234.5q0 -156 -46 -291.5t-130.5 -235.5t-210.5 -157.5t-279 -57.5q-122 0 -228 38t-185 106t-136 160.5t-85.5 204.5t-28.5 235zM250 719q0 -127 36 -241t102 -201 t167 -138t223 -51q165 0 286 80.5t183 222t62 326.5q0 170 -62 311.5t-184.5 229.5t-284.5 88q-160 0 -280.5 -80t-184 -222t-63.5 -325z" />
<glyph unicode="P" horiz-adv-x="1179" d="M197 0v1430q192 20 366 20q271 0 417 -120t146 -324q0 -226 -157 -346.5t-437 -120.5q-96 0 -206 14v-553h-129zM326 664q103 -15 219 -15q217 0 333.5 90t116.5 258q0 163 -111.5 252.5t-324.5 89.5q-116 0 -233 -12v-663z" />
<glyph unicode="Q" horiz-adv-x="1560" d="M115 719q0 213 78 379.5t228.5 263t352.5 96.5q152 0 278 -58t210 -158.5t130 -235.5t46 -289q0 -309 -168 -514l194 -127l-71 -101l-197 152q-176 -152 -422 -152q-121 0 -226.5 38t-184 106t-135 160.5t-85 204.5t-28.5 235zM248 719q0 -172 61.5 -314t183 -229.5 t281.5 -87.5q196 0 326 105l-193 137l70 92l197 -154q126 163 126 449q0 171 -62 312.5t-183.5 229t-280.5 87.5q-240 0 -383 -174t-143 -453z" />
<glyph unicode="R" horiz-adv-x="1263" d="M197 0v1425q189 25 370 25q260 0 399.5 -108.5t139.5 -288.5q0 -84 -29 -150.5t-81.5 -110t-114 -70.5t-136.5 -42q91 -21 156 -83t129 -198l172 -360l-123 -57l-184 393q-64 137 -147 200.5t-226 63.5h-196v-639h-129zM326 750h223q197 0 310.5 76t113.5 225 q0 135 -103 211.5t-295 76.5q-102 0 -249 -14v-575z" />
<glyph unicode="S" horiz-adv-x="1122" d="M59 123l68 96q92 -64 185 -96.5t225 -32.5q167 0 269.5 72.5t102.5 202.5q0 79 -30 131.5t-111 100.5t-233 99q-120 39 -197 76t-131 84.5t-77.5 107t-23.5 140.5q0 158 125.5 256t337.5 98q240 0 443 -121l-54 -102q-180 111 -389 111q-152 0 -241.5 -64.5t-89.5 -173.5 q0 -108 74 -172.5t282 -132.5q251 -83 350.5 -178.5t99.5 -251.5q0 -185 -140.5 -291.5t-371.5 -106.5q-278 0 -473 148z" />
<glyph unicode="T" horiz-adv-x="1130" d="M25 1319v115h1081v-115h-475v-1319h-129v1319h-477z" />
<glyph unicode="U" horiz-adv-x="1380" d="M176 508v926h129v-922q0 -203 102 -312.5t285 -109.5q181 0 284 109.5t103 312.5v922h127v-926q0 -253 -139.5 -393t-374.5 -140q-237 0 -376.5 139t-139.5 394z" />
<glyph unicode="V" horiz-adv-x="1296" d="M33 1403l127 47l491 -1309l494 1305l121 -43l-543 -1403h-148z" />
<glyph unicode="W" horiz-adv-x="1886" d="M43 1403l127 39l362 -1303l334 1166h164l334 -1166l358 1299l123 -35l-401 -1403h-164l-336 1178l-334 -1178h-164z" />
<glyph unicode="X" horiz-adv-x="1214" d="M33 61l495 666l-475 643l103 72l452 -627l447 627l102 -72l-471 -633l498 -676l-101 -73l-477 655l-473 -655z" />
<glyph unicode="Y" horiz-adv-x="1232" d="M33 1386l110 62l475 -786l476 782l106 -58l-518 -839v-547h-131v547z" />
<glyph unicode="Z" horiz-adv-x="1093" d="M55 0v100l815 1221h-776v113h932v-97l-815 -1220h838v-117h-994z" />
<glyph unicode="[" horiz-adv-x="600" d="M180 -205v1721h320v-103h-209v-1515h209v-103h-320z" />
<glyph unicode="\" horiz-adv-x="921" d="M119 1542l102 35l582 -1681l-103 -35z" />
<glyph unicode="]" horiz-adv-x="600" d="M100 -102h211v1515h-211v103h320v-1721h-320v103z" />
<glyph unicode="^" d="M215 1171l371 345h57l369 -345l-78 -86l-320 316l-321 -316z" />
<glyph unicode="_" d="M0 -133h1229v-84h-1229v84z" />
<glyph unicode="`" horiz-adv-x="561" d="M61 1430l58 114l381 -233l-49 -84z" />
<glyph unicode="a" horiz-adv-x="1241" d="M100 528q0 161 68 290.5t182 200.5t250 71q192 0 326 -134v109h112v-836q0 -79 33 -111q31 -30 87 -30h7l-26 -96h-7q-174 0 -200 153q-145 -170 -354 -170q-96 0 -182.5 39t-152.5 109t-104.5 175t-38.5 230zM225 532q0 -204 102.5 -325t266.5 -121q96 0 177.5 43 t141.5 117v616q-142 119 -307 119q-160 0 -270.5 -124t-110.5 -325z" />
<glyph unicode="b" horiz-adv-x="1208" d="M180 0v1516h123v-580q127 154 336 154q95 0 180.5 -38t150 -107t102.5 -173t38 -229q0 -122 -39.5 -229t-105.5 -180.5t-155.5 -116t-186.5 -42.5t-182 36t-146 100v-111h-115zM303 205q125 -119 295 -119t277.5 125.5t107.5 329.5t-103 322t-262 118q-94 0 -177.5 -45.5 t-137.5 -112.5v-618z" />
<glyph unicode="c" horiz-adv-x="995" d="M100 532q0 115 37.5 217t103.5 177.5t163.5 119.5t211.5 44q168 0 302 -82l-41 -99q-119 70 -254 70q-174 0 -285 -122.5t-111 -321.5q0 -207 106.5 -328t282.5 -121q78 0 136.5 17.5t126.5 54.5l39 -99q-141 -84 -310 -84q-226 0 -367 154t-141 403z" />
<glyph unicode="d" horiz-adv-x="1232" d="M100 528q0 243 139 402.5t336 159.5q116 0 200.5 -44t131.5 -116v586h123v-1287q0 -79 33 -111q31 -30 87 -30h7l-27 -96h-7q-173 0 -199 153q-145 -170 -349 -170q-95 0 -181 39t-151.5 109t-104 175t-38.5 230zM225 532q0 -204 102 -325t263 -121q96 0 177 41.5 t138 114.5v573q-127 166 -319 166q-151 0 -256 -126.5t-105 -322.5z" />
<glyph unicode="e" horiz-adv-x="1101" d="M94 530q0 154 55.5 280.5t164 203t249.5 76.5q107 0 192.5 -39.5t140 -108t83.5 -159t29 -195.5q0 -68 -4 -109h-783q10 -189 108.5 -291t270.5 -102q85 0 153.5 17t147.5 53l37 -101q-164 -80 -338 -80q-236 0 -371 150t-135 405zM219 586h672q-2 184 -87.5 289.5 t-240.5 105.5q-153 0 -243 -109t-101 -286z" />
<glyph unicode="f" horiz-adv-x="706" d="M53 920v106h168v180q0 150 91.5 242t238.5 92q144 0 268 -82l-51 -90q-107 62 -211 62q-98 0 -155.5 -60.5t-57.5 -163.5v-180h336v-106h-336v-920h-123v920h-168z" />
<glyph unicode="g" horiz-adv-x="1191" d="M100 532q0 123 40.5 228.5t107.5 177t155.5 112t184.5 40.5q195 0 323 -134v109h113v-1059q0 -122 -34.5 -215t-98 -150.5t-147.5 -86.5t-187 -29q-187 0 -334 88l47 94q127 -74 287 -74q159 0 252.5 93t93.5 280v148q-121 -154 -334 -154q-93 0 -178 36.5t-149.5 103.5 t-103 168.5t-38.5 223.5zM225 539q0 -197 102 -312.5t255 -115.5q182 0 317 155v594q-144 121 -305 121q-69 0 -134.5 -29.5t-118 -84t-84.5 -140t-32 -188.5z" />
<glyph unicode="h" horiz-adv-x="1210" d="M180 0v1516h123v-664q66 111 159 174.5t232 63.5q170 0 261.5 -107t91.5 -289v-694h-123v682q0 142 -65.5 220.5t-184.5 78.5q-111 0 -204.5 -72t-166.5 -198v-711h-123z" />
<glyph unicode="i" horiz-adv-x="481" d="M145 1374q0 43 27 69.5t70 26.5t69.5 -26.5t26.5 -69.5t-26 -69.5t-70 -26.5q-42 0 -69.5 27t-27.5 69zM180 0v1065h123v-1065h-123z" />
<glyph unicode="j" horiz-adv-x="507" d="M-174 -428l31 94q67 -33 157 -33q193 0 193 238v1194h123v-1208q0 -168 -85 -250t-220 -82q-113 0 -199 47zM172 1374q0 43 26.5 69.5t69.5 26.5t70 -26.5t27 -69.5t-26.5 -69.5t-70.5 -26.5q-42 0 -69 27t-27 69z" />
<glyph unicode="k" horiz-adv-x="995" d="M180 4v1512h123v-906l526 475l78 -77l-481 -426l549 -514l-84 -82l-588 559v-541h-123z" />
<glyph unicode="l" horiz-adv-x="669" d="M160 287v1229h123v-1211q0 -112 52.5 -165.5t143.5 -53.5q70 0 152 29l31 -99q-87 -41 -193 -41q-130 0 -219.5 78.5t-89.5 233.5z" />
<glyph unicode="m" horiz-adv-x="1835" d="M180 0v1065h119v-223q132 248 360 248q122 0 204.5 -69t107.5 -187q64 123 152.5 189.5t219.5 66.5q156 0 241 -106t85 -286v-698h-123v686q0 141 -59 218t-160 77q-104 0 -185.5 -69t-154.5 -203v-709h-123v684q0 144 -60.5 220.5t-160.5 76.5q-102 0 -184 -68.5 t-156 -201.5v-711h-123z" />
<glyph unicode="n" horiz-adv-x="1210" d="M180 0v1065h119v-223q69 118 161.5 183t233.5 65q170 0 261.5 -107t91.5 -289v-694h-123v682q0 142 -65.5 220.5t-184.5 78.5q-111 0 -204.5 -72t-166.5 -198v-711h-123z" />
<glyph unicode="o" d="M94 532q0 248 147.5 403t372.5 155q228 0 374.5 -157.5t146.5 -400.5q0 -248 -147 -402.5t-374 -154.5q-228 0 -374 157t-146 400zM219 535q0 -199 108.5 -324t284.5 -125q180 0 288 123t108 321q0 199 -110 324t-286 125q-177 0 -285 -123t-108 -321z" />
<glyph unicode="p" horiz-adv-x="1230" d="M72 969l26 96q181 -6 207 -158q121 183 359 183q93 0 177 -38t148.5 -106.5t102.5 -173t38 -229.5q0 -123 -37 -230t-99.5 -180.5t-148 -115.5t-179.5 -42q-205 0 -342 154v-580h-123v1270q0 79 -33 113t-96 37zM324 248q138 -162 325 -162q156 0 255.5 127t99.5 328 t-103 320.5t-256 119.5q-99 0 -182.5 -48.5t-138.5 -125.5v-559z" />
<glyph unicode="q" horiz-adv-x="1208" d="M100 528q0 164 68.5 294t180 199t241.5 69q193 0 328 -132v107h112v-1516h-123v582q-124 -156 -332 -156q-95 0 -181 39t-151.5 109t-104 175t-38.5 230zM225 532q0 -205 101 -325.5t266 -120.5q193 0 313 164v612q-142 119 -309 119q-154 0 -262.5 -123.5t-108.5 -325.5 z" />
<glyph unicode="r" horiz-adv-x="800" d="M180 0v1065h117v-256q31 119 119.5 200t232.5 81q72 0 127 -19l-37 -127q-49 21 -118 21q-60 0 -115.5 -27.5t-101.5 -79.5t-73.5 -138t-27.5 -194v-526h-123z" />
<glyph unicode="s" horiz-adv-x="913" d="M53 90l60 92q76 -49 151 -72.5t178 -23.5q132 0 206 50q73 50 73 141q0 85 -62.5 134t-228.5 95q-180 50 -259 117.5t-79 191.5q0 122 104 198.5t271 76.5q194 0 354 -95l-53 -94q-143 82 -297 82q-117 0 -185.5 -47t-68.5 -121q0 -76 59.5 -120.5t219.5 -90.5 q189 -55 270.5 -126.5t81.5 -190.5q0 -147 -109.5 -229.5t-296.5 -82.5q-227 0 -389 115z" />
<glyph unicode="t" horiz-adv-x="765" d="M33 920v106h190l25 336h96v-336h315v-106h-315v-611q0 -114 54.5 -168.5t138.5 -54.5q92 0 188 47l35 -96q-115 -62 -232 -62q-132 0 -219.5 82.5t-87.5 235.5v627h-188z" />
<glyph unicode="u" horiz-adv-x="1204" d="M166 358v707h123v-698q0 -139 66.5 -210t185.5 -71q188 0 338 160v819h122v-819q-1 -90 33 -125q32 -33 88 -33h6l-26 -96h-7q-172 0 -198 155q-162 -172 -377 -172q-70 0 -132 23t-112.5 68t-80 120.5t-29.5 171.5z" />
<glyph unicode="v" horiz-adv-x="1056" d="M29 1034l114 41l385 -946l392 946l108 -41l-438 -1034h-125z" />
<glyph unicode="w" horiz-adv-x="1554" d="M37 1032l113 39l305 -934l262 873h133l258 -873l301 934l111 -39l-349 -1032h-133l-258 883l-262 -883h-133z" />
<glyph unicode="x" horiz-adv-x="1011" d="M37 66l391 473l-373 462l95 74l354 -457l354 457l90 -74l-368 -452l397 -483l-92 -78l-379 479l-379 -479z" />
<glyph unicode="y" horiz-adv-x="1054" d="M25 1034l112 43l422 -917l350 917l111 -43l-434 -1120q-84 -214 -170.5 -301.5t-218.5 -87.5q-99 0 -166 41l32 94q55 -27 130 -27q95 0 153.5 65t122.5 228l63 154h-61z" />
<glyph unicode="z" horiz-adv-x="956" d="M80 0v100l643 856h-631v109h782v-96l-641 -856h654v-113h-807z" />
<glyph unicode="{" horiz-adv-x="749" d="M111 612v86q82 18 121.5 52.5t57 109t17.5 219.5q0 235 90 344t283 131v-79q-136 -30 -194 -115.5t-58 -276.5q0 -120 -10.5 -195t-39 -122t-66 -70t-103.5 -41q66 -18 103.5 -41t66 -70t39 -122t10.5 -195q0 -130 27 -210t80.5 -121t144.5 -60v-82q-193 22 -283 131.5 t-90 345.5q0 145 -17.5 219.5t-57 109t-121.5 52.5z" />
<glyph unicode="|" horiz-adv-x="686" d="M289 -205v1782h108v-1782h-108z" />
<glyph unicode="}" horiz-adv-x="749" d="M70 -164q91 19 145 60t81.5 121t27.5 210q0 120 10.5 194.5t39 121.5t66.5 70.5t103 41.5q-65 18 -103 41.5t-66.5 70.5t-39 121.5t-10.5 194.5q0 130 -27.5 210.5t-81.5 121.5t-145 60v81q193 -22 282.5 -131.5t89.5 -345.5q0 -144 18 -219t58 -109.5t121 -52.5v-86 q-81 -18 -121 -52.5t-58 -109.5t-18 -219q0 -236 -89.5 -345.5t-282.5 -131.5v82z" />
<glyph unicode="~" d="M172 651q132 123 258 123q49 0 100 -18.5t87 -41t82.5 -41t86.5 -18.5q65 0 116 28t106 79l51 -90q-138 -127 -266 -127q-47 0 -98 18.5t-88.5 41t-85 41t-89.5 18.5q-100 0 -211 -99z" />
<glyph unicode="&#xa1;" horiz-adv-x="598" d="M201 918q0 44 27 72t71 28q43 0 71.5 -28t28.5 -72q0 -43 -27.5 -71t-72.5 -28q-41 0 -69.5 28.5t-28.5 70.5zM227 135l17 486h104l17 -486v-586h-138v586z" />
<glyph unicode="&#xa2;" horiz-adv-x="995" d="M100 586q0 219 126.5 375.5t332.5 179.5l-12 223h121l-13 -221q143 -8 263 -82l-41 -98q-117 69 -254 69q-174 0 -285 -122.5t-111 -321.5q0 -207 106.5 -328t282.5 -121q78 0 136.5 17.5t126.5 54.5l39 -98q-125 -74 -263 -82l13 -226h-121l12 226q-207 19 -333 170 t-126 385z" />
<glyph unicode="&#xa3;" horiz-adv-x="1009" d="M111 666v106h165v277q0 180 96.5 282.5t260.5 102.5q95 0 165 -25.5t140 -73.5l-55 -90q-118 84 -242 84q-113 0 -179.5 -75.5t-66.5 -221.5v-260h363v-106h-365q-3 -212 -35.5 -325t-111.5 -226h717v-115h-850v98q65 92 96.5 161t47.5 164t17 243h-163z" />
<glyph unicode="&#xa4;" d="M211 276l125 144q-100 111 -100 272q0 165 100 273l-125 143l86 74l123 -156q79 49 194 49q110 0 197 -49l123 156l86 -74l-127 -145q100 -105 100 -271t-100 -274l127 -142l-86 -73l-123 155q-82 -49 -197 -49q-108 0 -194 47l-123 -153zM350 694q0 -122 73 -203 t191 -81q125 0 195 75t70 205q0 124 -72.5 204.5t-192.5 80.5q-124 0 -194 -75t-70 -206z" />
<glyph unicode="&#xa5;" horiz-adv-x="1185" d="M33 1378l106 56l459 -787l455 787l102 -56l-438 -745h291v-101h-346v-165h346v-101h-346v-266h-132v266h-346v101h346v165h-346v101h299z" />
<glyph unicode="&#xa6;" horiz-adv-x="686" d="M289 -205v748h108v-748h-108zM289 848v729h108v-729h-108z" />
<glyph unicode="&#xa7;" horiz-adv-x="987" d="M139 690q0 187 260 291q-117 55 -169 110t-52 142q0 107 94 178.5t238 71.5q174 0 319 -88l-47 -84q-131 78 -266 78q-98 0 -159.5 -43.5t-61.5 -108.5q0 -68 53 -112.5t211 -110.5q157 -63 224 -137.5t67 -176.5t-68 -169t-188 -111q122 -52 177.5 -113.5t55.5 -152.5 q0 -120 -101 -186t-263 -66q-181 0 -322 88l49 88q131 -76 279 -76q106 0 172 39t66 113q0 65 -53 110.5t-208 110.5q-169 70 -238 139t-69 176zM256 692q0 -75 53 -126t178 -99q115 38 178.5 93.5t63.5 137.5q0 75 -50.5 130.5t-172.5 103.5q-250 -83 -250 -240z" />
<glyph unicode="&#xa8;" horiz-adv-x="669" d="M61 1366q0 40 25.5 65t65.5 25q37 0 62.5 -25.5t25.5 -64.5q0 -38 -25 -63t-63 -25q-39 0 -65 25t-26 63zM430 1366q0 39 25.5 64.5t64.5 25.5q38 0 63 -26t25 -64q0 -39 -24.5 -63.5t-63.5 -24.5q-38 0 -64 25t-26 63z" />
<glyph unicode="&#xa9;" horiz-adv-x="1843" d="M205 719q0 216 86 383t249.5 261.5t381.5 94.5q217 0 380.5 -95.5t249.5 -262.5t86 -381t-86 -382t-249.5 -265t-380.5 -97q-219 0 -382.5 96t-249 264t-85.5 384zM309 719q0 -189 74 -337t214 -232t325 -84q283 0 447.5 179t164.5 474q0 141 -42.5 260.5t-120 205.5 t-193.5 134.5t-256 48.5q-278 0 -445.5 -179t-167.5 -470zM539 719q0 206 111.5 335.5t297.5 129.5q117 0 244 -60l-39 -94q-103 49 -203 49q-130 0 -211.5 -97t-81.5 -259t80 -259t217 -97q64 0 111 13.5t104 43.5l37 -94q-126 -68 -258 -68q-186 0 -297.5 124t-111.5 333z " />
<glyph unicode="&#xaa;" d="M217 1053q0 177 101.5 286t248.5 109q140 0 240 -82v68h102v-572q0 -106 103 -106l-27 -86q-135 0 -164 108q-104 -116 -252 -116q-147 0 -249.5 106t-102.5 285zM285 297v113h667v-113h-667zM330 1055q0 -136 71.5 -215.5t178.5 -79.5q128 0 221 106v410q-96 76 -226 76 q-103 0 -174 -80t-71 -217z" />
<glyph unicode="&#xab;" horiz-adv-x="1093" d="M152 676v59l325 404l84 -70l-301 -364l301 -365l-84 -70zM535 676v59l325 404l84 -70l-301 -364l301 -365l-84 -70z" />
<glyph unicode="&#xac;" d="M160 653v113h909v-477h-123v364h-786z" />
<glyph unicode="&#xad;" d="M276 647v113h674v-113h-674z" />
<glyph unicode="&#xae;" horiz-adv-x="1843" d="M213 719q0 216 86 383t249.5 261.5t381.5 94.5q163 0 298 -55.5t226.5 -153.5t142 -234t50.5 -296q0 -214 -86 -382t-250 -265t-381 -97q-219 0 -382.5 96t-249 264t-85.5 384zM317 719q0 -288 167 -469.5t446 -181.5q283 0 447.5 178t164.5 473q0 141 -42.5 260.5 t-120 205.5t-193.5 134.5t-256 48.5q-278 0 -445.5 -179t-167.5 -470zM666 293v864q126 17 231 17q162 0 251 -67t89 -181q0 -173 -203 -217q60 -19 102 -58t78 -123l86 -202l-104 -47l-94 223q-37 90 -89 129t-136 39h-101v-377h-110zM776 768h131q101 0 159 40t58 114 t-56.5 113.5t-160.5 39.5q-45 0 -131 -8v-299z" />
<glyph unicode="&#xaf;" horiz-adv-x="679" d="M61 1303v108h557v-108h-557z" />
<glyph unicode="&#xb0;" horiz-adv-x="921" d="M121 1227q0 120 81 198t201 78q121 0 202 -77t81 -199q0 -120 -81.5 -198.5t-201.5 -78.5t-201 78t-81 199zM233 1227q0 -80 47 -129t123 -49t124 48.5t48 129.5q0 79 -48.5 128.5t-123.5 49.5q-77 0 -123.5 -48.5t-46.5 -129.5z" />
<glyph unicode="&#xb1;" d="M229 823v107h326v317h119v-317h323v-107h-323v-317h-119v317h-326zM233 188v113h762v-113h-762z" />
<glyph unicode="&#xb2;" horiz-adv-x="921" d="M172 621q0 70 25 131t65 104.5t88.5 82t97.5 71t89 63.5t65 67t25 74q0 67 -43.5 105.5t-122.5 38.5q-118 0 -221 -90l-60 69q127 111 287 111q125 0 198.5 -66t73.5 -168q0 -49 -23.5 -92.5t-61 -77t-83 -65.5t-92 -65.5t-86 -69t-66.5 -83t-32 -102.5h453v-94h-572 q-4 36 -4 56z" />
<glyph unicode="&#xb3;" horiz-adv-x="921" d="M166 625l45 73q93 -55 213 -55q101 0 159 44.5t58 125.5t-61 124.5t-183 43.5h-96v84h90q106 0 163.5 37.5t57.5 111.5q0 67 -50 105.5t-134 38.5q-108 0 -213 -62l-45 74q119 78 264 78q131 0 211 -65t80 -160q0 -76 -42.5 -124.5t-113.5 -68.5q83 -19 134 -72.5 t51 -142.5q0 -113 -86 -188.5t-242 -75.5t-260 74z" />
<glyph unicode="&#xb4;" horiz-adv-x="561" d="M61 1311l379 233l60 -114l-389 -203z" />
<glyph unicode="&#xb6;" horiz-adv-x="1337" d="M53 1200q0 182 126 288.5t341 106.5q108 0 311 -18v-1708h-124v967q-92 -21 -207 -21q-199 0 -323 101t-124 284zM180 1202q0 -135 88.5 -207.5t241.5 -72.5q116 0 197 18v539q-105 10 -181 10q-165 0 -255.5 -76.5t-90.5 -210.5zM1018 -131v1708h123v-1708h-123z" />
<glyph unicode="&#xb7;" horiz-adv-x="614" d="M209 731q0 44 27 72t71 28q43 0 72 -28t29 -72q0 -43 -28 -70.5t-73 -27.5q-42 0 -70 28t-28 70z" />
<glyph unicode="&#xb8;" horiz-adv-x="559" d="M61 -438l35 84q70 -31 150 -31q62 0 100.5 25t38.5 71q0 107 -240 107l70 180h94l-47 -127q115 0 175.5 -44t60.5 -126q0 -75 -66 -126.5t-182 -51.5q-107 0 -189 39z" />
<glyph unicode="&#xb9;" horiz-adv-x="921" d="M188 1264l293 170h80v-779h172v-90h-491v90h211v650l-217 -123z" />
<glyph unicode="&#xba;" d="M229 1057q0 176 107.5 283.5t277.5 107.5q173 0 278 -110.5t105 -284.5q0 -176 -106.5 -283.5t-276.5 -107.5q-173 0 -279 110.5t-106 284.5zM283 297v113h663v-113h-663zM344 1057q0 -132 74.5 -214.5t195.5 -82.5q124 0 198.5 79.5t74.5 213.5q0 132 -76 214.5 t-197 82.5q-122 0 -196 -79.5t-74 -213.5z" />
<glyph unicode="&#xbb;" horiz-adv-x="1093" d="M152 340l301 365l-301 364l84 70l325 -404v-59l-325 -406zM535 340l301 365l-301 364l83 70l326 -404v-59l-326 -406z" />
<glyph unicode="&#xbc;" horiz-adv-x="2183" d="M188 1264l293 170h80v-779h172v-90h-491v90h211v650l-217 -123zM614 -29l912 1545l84 -54l-912 -1544zM1391 190v74l309 617l98 -37l-280 -561h305l14 258h92v-258h123v-93h-123v-190h-106v190h-432z" />
<glyph unicode="&#xbd;" horiz-adv-x="2183" d="M188 1264l293 170h80v-779h172v-90h-491v90h211v650l-217 -123zM614 -29l912 1545l84 -54l-912 -1544zM1434 55q0 70 25 131t65 104.5t88.5 82.5t97 71.5t88.5 63.5t65 67t25 74q0 67 -43.5 105.5t-122.5 38.5q-117 0 -221 -91l-59 70q127 111 287 111q125 0 198.5 -66 t73.5 -168q0 -49 -23.5 -92.5t-61 -77t-83.5 -65.5t-92.5 -65.5t-86 -69t-66.5 -83t-32 -102.5h453v-94h-571q-4 36 -4 55z" />
<glyph unicode="&#xbe;" horiz-adv-x="2183" d="M166 625l45 73q93 -55 213 -55q101 0 159 44.5t58 125.5t-61 124.5t-183 43.5h-96v84h90q106 0 163.5 37.5t57.5 111.5q0 67 -50 105.5t-134 38.5q-108 0 -213 -62l-45 74q119 78 264 78q131 0 211 -65t80 -160q0 -76 -42.5 -124.5t-113.5 -68.5q83 -19 134 -72.5 t51 -142.5q0 -113 -86 -188.5t-242 -75.5t-260 74zM614 -29l912 1545l84 -54l-912 -1544zM1391 190v74l309 617l98 -37l-280 -561h305l14 258h92v-258h123v-93h-123v-190h-106v190h-432z" />
<glyph unicode="&#xbf;" horiz-adv-x="1005" d="M115 -158q0 72 23 131t59 99.5t80.5 76.5t88.5 70.5t80 71.5t59 89t23 114v127h107q14 -66 14 -146q0 -69 -22 -126t-57.5 -96.5t-78.5 -75t-85.5 -68.5t-78 -68t-57.5 -83t-22 -105q0 -94 66.5 -154.5t181.5 -60.5q100 0 176 43t143 131l88 -72q-81 -105 -181 -160 t-235 -55q-164 0 -268 91t-104 226zM475 918q0 44 27 72t71 28q43 0 72 -28t29 -72q0 -43 -28 -71t-73 -28q-41 0 -69.5 28.5t-28.5 70.5z" />
<glyph unicode="&#xc0;" horiz-adv-x="1341" d="M33 33l569 1401h143l564 -1401l-119 -45l-168 428h-700l-175 -428zM362 526h615l-305 789zM473 1767l57 115l381 -233l-49 -84z" />
<glyph unicode="&#xc1;" horiz-adv-x="1341" d="M33 33l569 1401h143l564 -1401l-119 -45l-168 428h-700l-175 -428zM362 526h615l-305 789zM432 1649l379 233l59 -115l-389 -202z" />
<glyph unicode="&#xc2;" horiz-adv-x="1341" d="M33 33l569 1401h143l564 -1401l-119 -45l-168 428h-700l-175 -428zM334 1649l287 180h100l287 -180l-60 -88l-278 182l-277 -182zM362 526h615l-305 789z" />
<glyph unicode="&#xc3;" horiz-adv-x="1341" d="M33 33l569 1401h143l564 -1401l-119 -45l-168 428h-700l-175 -428zM352 1694q47 56 94.5 85t106.5 29q44 0 88 -22t83.5 -44t72.5 -22q26 0 50.5 11.5t40 24.5t38.5 36l65 -68q-47 -54 -91 -83t-95 -29q-49 0 -93.5 22t-82.5 44t-70 22q-41 0 -73 -19t-70 -55zM362 526 h615l-305 789z" />
<glyph unicode="&#xc4;" horiz-adv-x="1341" d="M33 33l569 1401h143l564 -1401l-119 -45l-168 428h-700l-175 -428zM362 526h615l-305 789zM399 1714q0 40 25 65t65 25q37 0 63 -25.5t26 -64.5q0 -38 -25.5 -63t-63.5 -25t-64 25t-26 63zM768 1714q0 39 25.5 64.5t64.5 25.5q38 0 63 -26t25 -64q0 -39 -24.5 -63.5 t-63.5 -24.5q-38 0 -64 25t-26 63z" />
<glyph unicode="&#xc5;" horiz-adv-x="1341" d="M33 33l565 1388q-72 22 -116 80.5t-44 136.5q0 98 68 162t166 64q100 0 167.5 -63.5t67.5 -162.5q0 -77 -43.5 -135t-113.5 -80l559 -1390l-119 -45l-168 428h-700l-175 -428zM362 526h615l-305 789zM545 1638q0 -62 35 -100.5t92 -38.5q56 0 91.5 37.5t35.5 101.5 q0 61 -35.5 100.5t-91.5 39.5q-57 0 -92 -36.5t-35 -103.5z" />
<glyph unicode="&#xc6;" horiz-adv-x="1835" d="M16 53l877 1381h844v-113h-656v-514h559v-111h-559v-583h656v-113h-787v416h-557l-270 -430zM459 526h491v785z" />
<glyph unicode="&#xc7;" horiz-adv-x="1216" d="M115 715q0 216 80 384.5t229 263.5t342 95q190 0 356 -88l-41 -104q-76 38 -148 57.5t-167 19.5q-229 0 -372.5 -169.5t-143.5 -454.5q0 -284 138.5 -456.5t367.5 -172.5q102 0 181 23t169 69l41 -102q-174 -100 -371 -105l-39 -104q115 0 175.5 -44t60.5 -126 q0 -75 -66 -126.5t-182 -51.5q-106 0 -188 39l34 84q70 -31 150 -31q62 0 100.5 25t38.5 71q0 107 -239 107l61 162q-258 25 -412.5 223t-154.5 512z" />
<glyph unicode="&#xc8;" horiz-adv-x="1132" d="M197 0v1434h837v-113h-708v-514h612v-111h-612v-583h708v-113h-837zM430 1767l57 115l381 -233l-49 -84z" />
<glyph unicode="&#xc9;" horiz-adv-x="1132" d="M197 0v1434h837v-113h-708v-514h612v-111h-612v-583h708v-113h-837zM389 1649l379 233l59 -115l-389 -202z" />
<glyph unicode="&#xca;" horiz-adv-x="1132" d="M197 0v1434h837v-113h-708v-514h612v-111h-612v-583h708v-113h-837zM291 1649l287 180h100l287 -180l-60 -88l-278 182l-277 -182z" />
<glyph unicode="&#xcb;" horiz-adv-x="1132" d="M197 0v1434h837v-113h-708v-514h612v-111h-612v-583h708v-113h-837zM356 1714q0 40 25 65t65 25q37 0 63 -25.5t26 -64.5q0 -38 -25.5 -63t-63.5 -25t-64 25t-26 63zM725 1714q0 39 25.5 64.5t64.5 25.5q38 0 63 -26t25 -64q0 -39 -24.5 -63.5t-63.5 -24.5q-38 0 -64 25 t-26 63z" />
<glyph unicode="&#xcc;" horiz-adv-x="520" d="M61 1767l58 115l381 -233l-49 -84zM197 0v1434h129v-1434h-129z" />
<glyph unicode="&#xcd;" horiz-adv-x="520" d="M20 1649l379 233l60 -115l-389 -202zM197 0v1434h129v-1434h-129z" />
<glyph unicode="&#xce;" horiz-adv-x="520" d="M-78 1649l287 180h100l287 -180l-59 -88l-279 182l-276 -182zM197 0v1434h129v-1434h-129z" />
<glyph unicode="&#xcf;" horiz-adv-x="520" d="M-12 1714q0 40 25 65t65 25q37 0 62.5 -25.5t25.5 -64.5q0 -38 -25 -63t-63 -25t-64 25t-26 63zM197 0v1434h129v-1434h-129zM356 1714q0 39 25.5 64.5t64.5 25.5q38 0 63.5 -26t25.5 -64t-24.5 -63t-64.5 -25q-38 0 -64 25t-26 63z" />
<glyph unicode="&#xd0;" horiz-adv-x="1406" d="M47 672v110h162v643q209 25 354 25q146 0 266.5 -38t205.5 -104.5t143.5 -159t86 -200.5t27.5 -229q0 -124 -26 -232.5t-83.5 -201.5t-142.5 -159.5t-208.5 -104t-276.5 -37.5q-186 0 -346 26v662h-162zM338 111q114 -15 223 -15q124 0 223 30.5t168.5 85t115.5 132.5 t67.5 171.5t21.5 203.5q0 131 -36 242t-106.5 195.5t-184 132.5t-259.5 48q-123 0 -233 -14v-541h399v-110h-399v-561z" />
<glyph unicode="&#xd1;" horiz-adv-x="1431" d="M197 0v1434h176l741 -1282v1282h123v-1434h-174l-744 1278v-1278h-122zM412 1694q47 56 94 85t106 29q44 0 88 -22t83.5 -44t72.5 -22q26 0 50.5 11.5t40 24.5t38.5 36l66 -68q-47 -54 -91.5 -83t-95.5 -29q-49 0 -93.5 22t-82.5 44t-70 22q-41 0 -73 -19t-70 -55z" />
<glyph unicode="&#xd2;" horiz-adv-x="1558" d="M115 719q0 213 78 379.5t230 263t355 96.5q122 0 228.5 -37.5t186 -105.5t136.5 -160t86 -203.5t29 -234.5q0 -156 -46 -291.5t-130.5 -235.5t-210.5 -157.5t-279 -57.5q-122 0 -228 38t-185 106t-136 160.5t-85.5 204.5t-28.5 235zM250 719q0 -127 36 -241t102 -201 t167 -138t223 -51q165 0 286 80.5t183 222t62 326.5q0 170 -62 311.5t-184.5 229.5t-284.5 88q-160 0 -280.5 -80t-184 -222t-63.5 -325zM582 1767l57 115l381 -233l-49 -84z" />
<glyph unicode="&#xd3;" horiz-adv-x="1558" d="M115 719q0 213 78 379.5t230 263t355 96.5q122 0 228.5 -37.5t186 -105.5t136.5 -160t86 -203.5t29 -234.5q0 -156 -46 -291.5t-130.5 -235.5t-210.5 -157.5t-279 -57.5q-122 0 -228 38t-185 106t-136 160.5t-85.5 204.5t-28.5 235zM250 719q0 -127 36 -241t102 -201 t167 -138t223 -51q165 0 286 80.5t183 222t62 326.5q0 170 -62 311.5t-184.5 229.5t-284.5 88q-160 0 -280.5 -80t-184 -222t-63.5 -325zM541 1649l379 233l59 -115l-389 -202z" />
<glyph unicode="&#xd4;" horiz-adv-x="1558" d="M115 719q0 213 78 379.5t230 263t355 96.5q122 0 228.5 -37.5t186 -105.5t136.5 -160t86 -203.5t29 -234.5q0 -156 -46 -291.5t-130.5 -235.5t-210.5 -157.5t-279 -57.5q-122 0 -228 38t-185 106t-136 160.5t-85.5 204.5t-28.5 235zM250 719q0 -127 36 -241t102 -201 t167 -138t223 -51q165 0 286 80.5t183 222t62 326.5q0 170 -62 311.5t-184.5 229.5t-284.5 88q-160 0 -280.5 -80t-184 -222t-63.5 -325zM442 1649l287 180h100l287 -180l-59 -88l-279 182l-276 -182z" />
<glyph unicode="&#xd5;" horiz-adv-x="1558" d="M115 719q0 213 78 379.5t230 263t355 96.5q122 0 228.5 -37.5t186 -105.5t136.5 -160t86 -203.5t29 -234.5q0 -156 -46 -291.5t-130.5 -235.5t-210.5 -157.5t-279 -57.5q-122 0 -228 38t-185 106t-136 160.5t-85.5 204.5t-28.5 235zM250 719q0 -127 36 -241t102 -201 t167 -138t223 -51q165 0 286 80.5t183 222t62 326.5q0 170 -62 311.5t-184.5 229.5t-284.5 88q-160 0 -280.5 -80t-184 -222t-63.5 -325zM461 1694q47 56 94.5 85t106.5 29q44 0 88 -22t83 -44t72 -22q26 0 50.5 11.5t40 24.5t38.5 36l66 -68q-47 -54 -91.5 -83t-95.5 -29 q-39 0 -75.5 14t-60 30t-53.5 30t-56 14q-41 0 -73.5 -19t-70.5 -55z" />
<glyph unicode="&#xd6;" horiz-adv-x="1558" d="M115 719q0 213 78 379.5t230 263t355 96.5q122 0 228.5 -37.5t186 -105.5t136.5 -160t86 -203.5t29 -234.5q0 -156 -46 -291.5t-130.5 -235.5t-210.5 -157.5t-279 -57.5q-122 0 -228 38t-185 106t-136 160.5t-85.5 204.5t-28.5 235zM250 719q0 -127 36 -241t102 -201 t167 -138t223 -51q165 0 286 80.5t183 222t62 326.5q0 170 -62 311.5t-184.5 229.5t-284.5 88q-160 0 -280.5 -80t-184 -222t-63.5 -325zM508 1714q0 40 25 65t65 25q37 0 62.5 -25.5t25.5 -64.5q0 -38 -25 -63t-63 -25t-64 25t-26 63zM877 1714q0 39 25.5 64.5t64.5 25.5 q38 0 63 -26t25 -64q0 -39 -24.5 -63.5t-63.5 -24.5q-38 0 -64 25t-26 63z" />
<glyph unicode="&#xd7;" d="M231 1014l78 76l305 -310l306 310l75 -76l-307 -309l307 -308l-75 -75l-306 307l-303 -307l-78 75l306 308z" />
<glyph unicode="&#xd8;" horiz-adv-x="1558" d="M115 719q0 213 78 379.5t230 263t355 96.5q153 0 279 -57l117 260l112 -51l-137 -262q140 -98 217.5 -264.5t77.5 -366.5q0 -156 -46 -291.5t-130.5 -235.5t-210.5 -157.5t-279 -57.5q-135 0 -258 50l-119 -267l-112 54l137 262q-148 96 -229.5 267t-81.5 378zM248 719 q0 -175 61 -316.5t174 -222.5l529 1112q-105 54 -234 54q-161 0 -282 -80t-184.5 -222t-63.5 -325zM565 131q93 -43 213 -43q165 0 286 80.5t183 222t62 326.5q0 166 -56.5 302.5t-160.5 221.5z" />
<glyph unicode="&#xd9;" horiz-adv-x="1380" d="M176 508v926h129v-922q0 -203 102 -312.5t285 -109.5q181 0 284 109.5t103 312.5v922h127v-926q0 -253 -139.5 -393t-374.5 -140q-237 0 -376.5 139t-139.5 394zM494 1767l57 115l381 -233l-49 -84z" />
<glyph unicode="&#xda;" horiz-adv-x="1380" d="M176 508v926h129v-922q0 -203 102 -312.5t285 -109.5q181 0 284 109.5t103 312.5v922h127v-926q0 -253 -139.5 -393t-374.5 -140q-237 0 -376.5 139t-139.5 394zM453 1649l378 233l60 -115l-389 -202z" />
<glyph unicode="&#xdb;" horiz-adv-x="1380" d="M176 508v926h129v-922q0 -203 102 -312.5t285 -109.5q181 0 284 109.5t103 312.5v922h127v-926q0 -253 -139.5 -393t-374.5 -140q-237 0 -376.5 139t-139.5 394zM354 1649l287 180h100l287 -180l-59 -88l-279 182l-276 -182z" />
<glyph unicode="&#xdc;" horiz-adv-x="1380" d="M176 508v926h129v-922q0 -203 102 -312.5t285 -109.5q181 0 284 109.5t103 312.5v922h127v-926q0 -253 -139.5 -393t-374.5 -140q-237 0 -376.5 139t-139.5 394zM420 1714q0 40 25 65t65 25q37 0 62.5 -25.5t25.5 -64.5q0 -38 -25 -63t-63 -25t-64 25t-26 63zM788 1714 q0 38 26 64t65 26q38 0 63 -26t25 -64q0 -39 -24.5 -63.5t-63.5 -24.5t-65 25t-26 63z" />
<glyph unicode="&#xdd;" horiz-adv-x="1232" d="M33 1386l110 62l475 -786l476 782l106 -58l-518 -839v-547h-131v547zM383 1649l379 233l59 -115l-389 -202z" />
<glyph unicode="&#xde;" horiz-adv-x="1175" d="M197 0v1434h129v-250q114 12 235 12q265 0 413 -123t148 -325q0 -228 -158.5 -354t-433.5 -126q-72 0 -204 13v-281h-129zM326 391q92 -10 219 -10q213 0 329.5 93.5t116.5 264.5q0 163 -112.5 254.5t-319.5 91.5q-124 0 -233 -14v-680z" />
<glyph unicode="&#xdf;" horiz-adv-x="1236" d="M33 954l30 111q126 -3 164 -117q-6 291 110.5 441.5t332.5 150.5q171 0 280 -108t109 -269q0 -145 -74 -232.5t-203 -113.5q165 -26 264 -130.5t99 -280.5q0 -193 -123 -312t-315 -119q-139 0 -248 56l33 96q93 -43 204 -43q144 0 233 83.5t89 233.5q0 171 -113 264 t-319 93v100q179 0 263.5 77.5t84.5 219.5q0 127 -71.5 202t-194.5 75q-84 0 -146 -30t-107 -96t-68 -176.5t-23 -267.5v-1313h-123v1203q0 202 -168 202z" />
<glyph unicode="&#xe0;" horiz-adv-x="1241" d="M100 528q0 161 68 290.5t182 200.5t250 71q192 0 326 -134v109h112v-836q0 -80 33 -111.5t94 -29.5l-26 -96q-180 -3 -207 153q-145 -170 -354 -170q-96 0 -182.5 39t-152.5 109t-104.5 175t-38.5 230zM225 532q0 -204 102.5 -325t266.5 -121q96 0 177.5 43t141.5 117 v616q-142 119 -307 119q-160 0 -270.5 -124t-110.5 -325zM403 1430l58 114l381 -233l-49 -84z" />
<glyph unicode="&#xe1;" horiz-adv-x="1241" d="M100 528q0 161 68 290.5t182 200.5t250 71q192 0 326 -134v109h112v-836q0 -80 33 -111.5t94 -29.5l-26 -96q-180 -3 -207 153q-145 -170 -354 -170q-96 0 -182.5 39t-152.5 109t-104.5 175t-38.5 230zM225 532q0 -204 102.5 -325t266.5 -121q96 0 177.5 43t141.5 117 v616q-142 119 -307 119q-160 0 -270.5 -124t-110.5 -325zM397 1311l379 233l60 -114l-390 -203z" />
<glyph unicode="&#xe2;" horiz-adv-x="1241" d="M100 528q0 161 68 290.5t182 200.5t250 71q192 0 326 -134v109h112v-836q0 -80 33 -111.5t94 -29.5l-26 -96q-180 -3 -207 153q-145 -170 -354 -170q-96 0 -182.5 39t-152.5 109t-104.5 175t-38.5 230zM225 532q0 -204 102.5 -325t266.5 -121q96 0 177.5 43t141.5 117 v616q-142 119 -307 119q-160 0 -270.5 -124t-110.5 -325zM285 1300l286 209h101l286 -209l-67 -83l-270 204l-269 -204z" />
<glyph unicode="&#xe3;" horiz-adv-x="1241" d="M100 528q0 161 68 290.5t182 200.5t250 71q192 0 326 -134v109h112v-836q0 -80 33 -111.5t94 -29.5l-26 -96q-180 -3 -207 153q-145 -170 -354 -170q-96 0 -182.5 39t-152.5 109t-104.5 175t-38.5 230zM225 532q0 -204 102.5 -325t266.5 -121q96 0 177.5 43t141.5 117 v616q-142 119 -307 119q-160 0 -270.5 -124t-110.5 -325zM301 1346q47 56 94.5 85t106.5 29q44 0 88 -22t83 -44t72 -22q26 0 50.5 11.5t40 24.5t38.5 36l66 -68q-47 -54 -91 -83t-95 -29q-49 0 -93.5 22t-82.5 44t-70 22q-41 0 -73 -19t-70 -55z" />
<glyph unicode="&#xe4;" horiz-adv-x="1241" d="M100 528q0 161 68 290.5t182 200.5t250 71q192 0 326 -134v109h112v-836q0 -80 33 -111.5t94 -29.5l-26 -96q-180 -3 -207 153q-145 -170 -354 -170q-96 0 -182.5 39t-152.5 109t-104.5 175t-38.5 230zM225 532q0 -204 102.5 -325t266.5 -121q96 0 177.5 43t141.5 117 v616q-142 119 -307 119q-160 0 -270.5 -124t-110.5 -325zM348 1366q0 40 25 65t65 25q37 0 62.5 -25.5t25.5 -64.5q0 -38 -25 -63t-63 -25t-64 25t-26 63zM717 1366q0 39 25.5 64.5t64.5 25.5q38 0 63 -26t25 -64q0 -39 -24.5 -63.5t-63.5 -24.5q-38 0 -64 25t-26 63z" />
<glyph unicode="&#xe5;" horiz-adv-x="1241" d="M100 528q0 161 68 290.5t182 200.5t250 71q192 0 326 -134v109h112v-836q0 -80 33 -111.5t94 -29.5l-26 -96q-180 -3 -207 153q-145 -170 -354 -170q-96 0 -182.5 39t-152.5 109t-104.5 175t-38.5 230zM225 532q0 -204 102.5 -325t266.5 -121q96 0 177.5 43t141.5 117 v616q-142 119 -307 119q-160 0 -270.5 -124t-110.5 -325zM387 1432q0 98 68 161.5t166 63.5q100 0 167.5 -63.5t67.5 -161.5t-68.5 -163t-166.5 -65q-99 0 -166.5 64.5t-67.5 163.5zM494 1432q0 -62 35 -101t92 -39q55 0 91 38t36 102q0 61 -35.5 100t-91.5 39 q-57 0 -92 -36t-35 -103z" />
<glyph unicode="&#xe6;" horiz-adv-x="1837" d="M94 299q0 163 118 253.5t308 90.5q144 0 330 -51q-12 184 -104 286.5t-240 102.5q-132 0 -264 -61l-27 104q153 66 301 66q156 0 256.5 -83.5t142.5 -236.5q110 320 394 320q138 0 238.5 -70t149 -182t48.5 -250q0 -27 -4 -109h-766q12 -186 110 -290.5t261 -104.5 q137 0 290 70l37 -99q-160 -80 -327 -80q-162 0 -277 83.5t-160 238.5q-54 -156 -170 -239t-280 -83q-161 0 -263 90t-102 234zM217 303q0 -102 71.5 -160.5t182.5 -58.5q68 0 132 24t118.5 71t89.5 126.5t41 181.5q-188 52 -330 52q-140 0 -222.5 -61.5t-82.5 -174.5z M973 586h653q0 183 -84 290t-233 107q-143 0 -232.5 -108.5t-103.5 -288.5z" />
<glyph unicode="&#xe7;" horiz-adv-x="995" d="M100 532q0 115 37.5 217t103.5 177.5t163.5 119.5t211.5 44q168 0 302 -82l-41 -99q-119 70 -254 70q-174 0 -285 -122.5t-111 -321.5q0 -207 106.5 -328t282.5 -121q78 0 136.5 17.5t126.5 54.5l39 -99q-133 -79 -285 -84l-39 -104q115 0 175 -44t60 -126 q0 -76 -66 -127t-181 -51q-107 0 -189 39l35 84q70 -31 150 -31q62 0 100.5 25t38.5 71q0 107 -240 107l64 162q-199 23 -320 173.5t-121 378.5z" />
<glyph unicode="&#xe8;" horiz-adv-x="1101" d="M94 530q0 154 55.5 280.5t164 203t249.5 76.5q107 0 192.5 -39.5t140 -108t83.5 -159t29 -195.5q0 -68 -4 -109h-783q10 -189 108.5 -291t270.5 -102q85 0 153.5 17t147.5 53l37 -101q-164 -80 -338 -80q-236 0 -371 150t-135 405zM219 586h672q-2 184 -87.5 289.5 t-240.5 105.5q-153 0 -243 -109t-101 -286zM352 1430l58 114l381 -233l-50 -84z" />
<glyph unicode="&#xe9;" horiz-adv-x="1101" d="M94 530q0 154 55.5 280.5t164 203t249.5 76.5q107 0 192.5 -39.5t140 -108t83.5 -159t29 -195.5q0 -68 -4 -109h-783q10 -189 108.5 -291t270.5 -102q85 0 153.5 17t147.5 53l37 -101q-164 -80 -338 -80q-236 0 -371 150t-135 405zM219 586h672q-2 184 -87.5 289.5 t-240.5 105.5q-153 0 -243 -109t-101 -286zM346 1311l379 233l59 -114l-389 -203z" />
<glyph unicode="&#xea;" horiz-adv-x="1101" d="M94 530q0 154 55.5 280.5t164 203t249.5 76.5q107 0 192.5 -39.5t140 -108t83.5 -159t29 -195.5q0 -68 -4 -109h-783q10 -189 108.5 -291t270.5 -102q85 0 153.5 17t147.5 53l37 -101q-164 -80 -338 -80q-236 0 -371 150t-135 405zM219 586h672q-2 184 -87.5 289.5 t-240.5 105.5q-153 0 -243 -109t-101 -286zM233 1300l287 209h101l286 -209l-67 -83l-271 204l-268 -204z" />
<glyph unicode="&#xeb;" horiz-adv-x="1101" d="M94 530q0 154 55.5 280.5t164 203t249.5 76.5q107 0 192.5 -39.5t140 -108t83.5 -159t29 -195.5q0 -68 -4 -109h-783q10 -189 108.5 -291t270.5 -102q85 0 153.5 17t147.5 53l37 -101q-164 -80 -338 -80q-236 0 -371 150t-135 405zM219 586h672q-2 184 -87.5 289.5 t-240.5 105.5q-153 0 -243 -109t-101 -286zM297 1366q0 40 25 65t65 25q37 0 62.5 -25.5t25.5 -64.5q0 -38 -25 -63t-63 -25t-64 25t-26 63zM666 1366q0 39 25.5 64.5t64.5 25.5q38 0 63 -26t25 -64q0 -39 -24.5 -63.5t-63.5 -24.5q-38 0 -64 25t-26 63z" />
<glyph unicode="&#xec;" horiz-adv-x="481" d="M25 1430l57 114l381 -233l-49 -84zM180 0v1065h123v-1065h-123z" />
<glyph unicode="&#xed;" horiz-adv-x="481" d="M18 1311l379 233l60 -114l-389 -203zM180 0v1065h123v-1065h-123z" />
<glyph unicode="&#xee;" horiz-adv-x="481" d="M-94 1300l287 209h100l287 -209l-68 -83l-270 204l-269 -204zM180 0v1065h123v-1065h-123z" />
<glyph unicode="&#xef;" horiz-adv-x="481" d="M-31 1366q0 40 25 65t65 25q37 0 62.5 -25.5t25.5 -64.5q0 -38 -25 -63t-63 -25t-64 25t-26 63zM180 0v1065h123v-1065h-123zM338 1366q0 39 25.5 64.5t64.5 25.5q38 0 63 -26t25 -64q0 -39 -24.5 -63.5t-63.5 -24.5q-38 0 -64 25t-26 63z" />
<glyph unicode="&#xf0;" horiz-adv-x="1114" d="M94 426q0 102 35.5 189.5t95.5 145t138 90t163 32.5q230 0 369 -221q0 415 -238 595l-143 -180l-80 66l146 164q-112 65 -275 65q-27 0 -67 -4v111q40 4 73 4q191 0 344 -86l133 172l80 -66l-135 -155q139 -100 214 -281t75 -422q0 -316 -130 -493t-366 -177 q-181 0 -306.5 123.5t-125.5 327.5zM217 430q0 -160 89.5 -252t225.5 -92q158 0 251.5 116.5t111.5 348.5q-69 113 -155 169t-199 56q-135 0 -229.5 -92.5t-94.5 -253.5z" />
<glyph unicode="&#xf1;" horiz-adv-x="1210" d="M180 0v1065h119v-223q69 118 161.5 183t233.5 65q170 0 261.5 -107t91.5 -289v-694h-123v682q0 142 -65.5 220.5t-184.5 78.5q-111 0 -204.5 -72t-166.5 -198v-711h-123zM287 1346q47 56 94 85t106 29q44 0 88 -22t83.5 -44t72.5 -22q26 0 50.5 11.5t40 24.5t38.5 36 l66 -68q-47 -54 -91.5 -83t-95.5 -29q-39 0 -75.5 14t-60 30t-53.5 30t-56 14q-41 0 -73.5 -19t-70.5 -55z" />
<glyph unicode="&#xf2;" d="M94 532q0 248 147.5 403t372.5 155q228 0 374.5 -157.5t146.5 -400.5q0 -248 -147 -402.5t-374 -154.5q-228 0 -374 157t-146 400zM219 535q0 -199 108.5 -324t284.5 -125q180 0 288 123t108 321q0 199 -110 324t-286 125q-177 0 -285 -123t-108 -321zM397 1430l58 114 l381 -233l-50 -84z" />
<glyph unicode="&#xf3;" d="M94 532q0 248 147.5 403t372.5 155q228 0 374.5 -157.5t146.5 -400.5q0 -248 -147 -402.5t-374 -154.5q-228 0 -374 157t-146 400zM219 535q0 -199 108.5 -324t284.5 -125q180 0 288 123t108 321q0 199 -110 324t-286 125q-177 0 -285 -123t-108 -321zM391 1311l379 233 l59 -114l-389 -203z" />
<glyph unicode="&#xf4;" d="M94 532q0 248 147.5 403t372.5 155q228 0 374.5 -157.5t146.5 -400.5q0 -248 -147 -402.5t-374 -154.5q-228 0 -374 157t-146 400zM219 535q0 -199 108.5 -324t284.5 -125q180 0 288 123t108 321q0 199 -110 324t-286 125q-177 0 -285 -123t-108 -321zM279 1300l286 209 h101l286 -209l-67 -83l-271 204l-268 -204z" />
<glyph unicode="&#xf5;" d="M94 532q0 248 147.5 403t372.5 155q228 0 374.5 -157.5t146.5 -400.5q0 -248 -147 -402.5t-374 -154.5q-228 0 -374 157t-146 400zM219 535q0 -199 108.5 -324t284.5 -125q180 0 288 123t108 321q0 199 -110 324t-286 125q-177 0 -285 -123t-108 -321zM295 1346 q47 56 94.5 85t106.5 29q44 0 88 -22t83 -44t72 -22q26 0 50.5 11.5t40 24.5t38.5 36l66 -68q-47 -54 -91 -83t-95 -29q-49 0 -93.5 22t-82.5 44t-70 22q-41 0 -73.5 -19t-70.5 -55z" />
<glyph unicode="&#xf6;" d="M94 532q0 248 147.5 403t372.5 155q228 0 374.5 -157.5t146.5 -400.5q0 -248 -147 -402.5t-374 -154.5q-228 0 -374 157t-146 400zM219 535q0 -199 108.5 -324t284.5 -125q180 0 288 123t108 321q0 199 -110 324t-286 125q-177 0 -285 -123t-108 -321zM342 1366 q0 40 25 65t65 25q37 0 62.5 -25.5t25.5 -64.5q0 -38 -25 -63t-63 -25t-64 25t-26 63zM711 1366q0 39 25.5 64.5t64.5 25.5q38 0 63 -26t25 -64q0 -39 -24.5 -63.5t-63.5 -24.5q-38 0 -64 25t-26 63z" />
<glyph unicode="&#xf7;" d="M233 647v113h762v-113h-762zM514 272q0 45 27 73t71 28q43 0 72 -28.5t29 -72.5q0 -43 -28 -70.5t-73 -27.5q-42 0 -70 28t-28 70zM514 1133q0 44 27 72t71 28q43 0 72 -28t29 -72q0 -43 -28 -71t-73 -28q-42 0 -70 28t-28 71z" />
<glyph unicode="&#xf8;" d="M94 532q0 248 147.5 403t372.5 155q107 0 197 -37l111 247l98 -51l-127 -239q113 -72 177.5 -196t64.5 -279q0 -247 -147.5 -403.5t-373.5 -156.5q-103 0 -190 35l-113 -246l-98 50l127 239q-114 72 -180 197.5t-66 281.5zM219 535q0 -128 45.5 -226.5t126.5 -156.5 l375 798q-76 29 -154 29q-179 0 -286 -123t-107 -321zM467 113q67 -27 145 -27q180 0 288 124.5t108 321.5q0 125 -44 222t-124 155z" />
<glyph unicode="&#xf9;" horiz-adv-x="1204" d="M166 358v707h123v-698q0 -139 66.5 -210t185.5 -71q188 0 338 160v819h122v-819q0 -90 33.5 -125t93.5 -33l-26 -96q-178 -3 -205 155q-162 -172 -377 -172q-70 0 -132 23t-112.5 68t-80 120.5t-29.5 171.5zM377 1430l57 114l381 -233l-49 -84z" />
<glyph unicode="&#xfa;" horiz-adv-x="1204" d="M166 358v707h123v-698q0 -139 66.5 -210t185.5 -71q188 0 338 160v819h122v-819q0 -90 33.5 -125t93.5 -33l-26 -96q-178 -3 -205 155q-162 -172 -377 -172q-70 0 -132 23t-112.5 68t-80 120.5t-29.5 171.5zM371 1311l379 233l59 -114l-389 -203z" />
<glyph unicode="&#xfb;" horiz-adv-x="1204" d="M166 358v707h123v-698q0 -139 66.5 -210t185.5 -71q188 0 338 160v819h122v-819q0 -90 33.5 -125t93.5 -33l-26 -96q-178 -3 -205 155q-162 -172 -377 -172q-70 0 -132 23t-112.5 68t-80 120.5t-29.5 171.5zM258 1300l287 209h100l287 -209l-68 -83l-270 204l-268 -204z " />
<glyph unicode="&#xfc;" horiz-adv-x="1204" d="M166 358v707h123v-698q0 -139 66.5 -210t185.5 -71q188 0 338 160v819h122v-819q0 -90 33.5 -125t93.5 -33l-26 -96q-178 -3 -205 155q-162 -172 -377 -172q-70 0 -132 23t-112.5 68t-80 120.5t-29.5 171.5zM322 1366q0 40 25 65t65 25q37 0 62.5 -25.5t25.5 -64.5 q0 -38 -25 -63t-63 -25t-64 25t-26 63zM690 1366q0 39 25.5 64.5t64.5 25.5q38 0 63 -26t25 -64q0 -39 -24.5 -63.5t-63.5 -24.5q-38 0 -64 25t-26 63z" />
<glyph unicode="&#xfd;" horiz-adv-x="1054" d="M25 1034l112 43l422 -917l350 917l111 -43l-434 -1120q-84 -214 -170.5 -301.5t-218.5 -87.5q-99 0 -166 41l32 94q55 -27 130 -27q95 0 153.5 65t122.5 228l63 154h-61zM315 1311l379 233l60 -114l-389 -203z" />
<glyph unicode="&#xfe;" horiz-adv-x="1208" d="M180 -451v1885h123v-519q55 77 140.5 126t197.5 49q93 0 178 -38t149.5 -106.5t103 -173t38.5 -229.5q0 -123 -37 -230t-100.5 -180.5t-149 -115.5t-180.5 -42q-102 0 -189 45.5t-151 118.5v-590h-123zM303 248q138 -162 326 -162q156 0 255 127t99 328t-102.5 320.5 t-255.5 119.5q-99 0 -183.5 -48.5t-138.5 -125.5v-559z" />
<glyph unicode="&#xff;" horiz-adv-x="1054" d="M25 1034l112 43l422 -917l350 917l111 -43l-434 -1120q-84 -214 -170.5 -301.5t-218.5 -87.5q-99 0 -166 41l32 94q55 -27 130 -27q95 0 153.5 65t122.5 228l63 154h-61zM266 1366q0 40 25 65t65 25q37 0 62.5 -25.5t25.5 -64.5q0 -38 -25 -63t-63 -25t-64 25t-26 63z M635 1366q0 39 25.5 64.5t64.5 25.5q38 0 63 -26t25 -64q0 -39 -24.5 -63.5t-63.5 -24.5q-38 0 -64 25t-26 63z" />
<glyph unicode="&#x152;" horiz-adv-x="1849" d="M115 719q0 159 46.5 294.5t131 234t211 154.5t280.5 56q123 0 224 -24h743v-113h-645v-514h553v-111h-553v-583h645v-113h-747q-115 -25 -220 -25q-154 0 -281 58.5t-211.5 159.5t-130.5 236.5t-46 289.5zM248 719q0 -128 37 -242t104 -201t169 -137.5t224 -50.5 q88 0 191 21v1214q-109 23 -191 23q-244 0 -389 -174t-145 -453z" />
<glyph unicode="&#x153;" horiz-adv-x="1966" d="M94 532q0 248 144.5 403t363.5 155q156 0 271 -88.5t167 -237.5q48 148 150 237t248 89q138 0 238 -70t148 -182t48 -250q0 -82 -4 -111h-764q14 -185 110.5 -288t258.5 -103q136 0 292 70l37 -101q-164 -80 -329 -80q-160 0 -274.5 83t-160.5 235 q-50 -147 -164.5 -232.5t-271.5 -85.5q-220 0 -364 157t-144 400zM219 535q0 -194 108 -321.5t273 -127.5q172 0 275.5 121.5t103.5 320.5q0 194 -106 323.5t-273 129.5q-170 0 -275.5 -124.5t-105.5 -321.5zM1104 584h651q0 183 -84 290t-231 107q-144 0 -234.5 -110.5 t-101.5 -286.5z" />
<glyph unicode="&#x178;" horiz-adv-x="1232" d="M33 1386l110 62l475 -786l476 782l106 -58l-518 -839v-547h-131v547zM350 1714q0 40 25 65t65 25q37 0 62.5 -25.5t25.5 -64.5q0 -38 -25 -63t-63 -25t-64 25t-26 63zM719 1714q0 39 25.5 64.5t64.5 25.5q38 0 63 -26t25 -64q0 -39 -24.5 -63.5t-63.5 -24.5q-38 0 -64 25 t-26 63z" />
<glyph unicode="&#x2c6;" horiz-adv-x="796" d="M61 1300l287 209h101l286 -209l-67 -83l-271 204l-268 -204z" />
<glyph unicode="&#x2dc;" horiz-adv-x="761" d="M61 1346q47 56 94.5 85t106.5 29q44 0 88 -22t83.5 -44t72.5 -22q26 0 50.5 11.5t40 24.5t38.5 36l65 -68q-47 -54 -91 -83t-95 -29q-49 0 -93.5 22t-82.5 44t-70 22q-41 0 -73 -19t-70 -55z" />
<glyph unicode="&#x2000;" horiz-adv-x="941" />
<glyph unicode="&#x2001;" horiz-adv-x="1882" />
<glyph unicode="&#x2002;" horiz-adv-x="941" />
<glyph unicode="&#x2003;" horiz-adv-x="1882" />
<glyph unicode="&#x2004;" horiz-adv-x="627" />
<glyph unicode="&#x2005;" horiz-adv-x="470" />
<glyph unicode="&#x2006;" horiz-adv-x="313" />
<glyph unicode="&#x2007;" horiz-adv-x="313" />
<glyph unicode="&#x2008;" horiz-adv-x="235" />
<glyph unicode="&#x2009;" horiz-adv-x="376" />
<glyph unicode="&#x200a;" horiz-adv-x="104" />
<glyph unicode="&#x2010;" horiz-adv-x="1024" d="M174 647v113h674v-113h-674z" />
<glyph unicode="&#x2011;" horiz-adv-x="1024" d="M174 647v113h674v-113h-674z" />
<glyph unicode="&#x2012;" horiz-adv-x="1024" d="M174 647v113h674v-113h-674z" />
<glyph unicode="&#x2013;" horiz-adv-x="1253" d="M174 647v113h905v-113h-905z" />
<glyph unicode="&#x2014;" horiz-adv-x="1513" d="M174 647v113h1163v-113h-1163z" />
<glyph unicode="&#x2018;" horiz-adv-x="403" d="M94 1305q0 77 41 146t115 116l35 -49q-86 -77 -97 -162q56 9 88.5 -15t32.5 -71q0 -42 -27.5 -68t-72.5 -26q-52 0 -83.5 33.5t-31.5 95.5z" />
<glyph unicode="&#x2019;" horiz-adv-x="403" d="M94 1427q0 41 28.5 68t74.5 27q52 0 82 -34t30 -95q0 -78 -40 -147.5t-115 -115.5l-35 48q88 79 96 163q-56 -9 -88.5 14.5t-32.5 71.5z" />
<glyph unicode="&#x201a;" horiz-adv-x="403" d="M94 86q0 41 28.5 67.5t74.5 26.5q52 0 82 -34t30 -95q0 -78 -40 -147t-115 -115l-35 47q88 79 96 164q-56 -9 -88.5 14.5t-32.5 71.5z" />
<glyph unicode="&#x201c;" horiz-adv-x="694" d="M94 1305q0 77 41 146t115 116l35 -49q-86 -77 -97 -162q56 9 88.5 -15t32.5 -71q0 -42 -27.5 -68t-72.5 -26q-52 0 -83.5 33.5t-31.5 95.5zM385 1305q0 77 41 146t115 116l34 -49q-85 -76 -96 -162q56 9 88.5 -15t32.5 -71q0 -42 -27.5 -68t-72.5 -26q-52 0 -83.5 33.5 t-31.5 95.5z" />
<glyph unicode="&#x201d;" horiz-adv-x="690" d="M94 1427q0 41 28.5 68t74.5 27q52 0 82 -34t30 -95q0 -78 -40 -147.5t-115 -115.5l-35 48q88 79 96 163q-56 -9 -88.5 14.5t-32.5 71.5zM381 1427q0 42 28.5 68.5t73.5 26.5q52 0 82.5 -34t30.5 -95q0 -78 -40.5 -147t-115.5 -116l-34 48q88 79 96 163q-56 -9 -88.5 14.5 t-32.5 71.5z" />
<glyph unicode="&#x201e;" horiz-adv-x="690" d="M94 86q0 41 28.5 67.5t74.5 26.5q52 0 82 -34t30 -95q0 -78 -40 -147t-115 -115l-35 47q88 79 96 164q-56 -9 -88.5 14.5t-32.5 71.5zM381 86q0 41 28 67.5t74 26.5q52 0 82.5 -34t30.5 -95q0 -78 -40.5 -146.5t-115.5 -115.5l-34 47q88 79 96 164q-56 -9 -88.5 14.5 t-32.5 71.5z" />
<glyph unicode="&#x2022;" horiz-adv-x="831" d="M197 727q0 93 60.5 155t158.5 62q96 0 158.5 -62t62.5 -155q0 -94 -61.5 -155.5t-159.5 -61.5q-95 0 -157 62t-62 155zM285 727q0 -64 36 -102.5t95 -38.5q61 0 97 38t36 103q0 64 -37 102.5t-96 38.5q-60 0 -95.5 -39t-35.5 -102z" />
<glyph unicode="&#x2026;" horiz-adv-x="1843" d="M209 78q0 44 27 72t71 28q43 0 72 -28t29 -72q0 -43 -28 -70.5t-73 -27.5q-42 0 -70 28t-28 70zM823 78q0 44 27.5 72t71.5 28q43 0 71.5 -28t28.5 -72q0 -43 -27.5 -70.5t-72.5 -27.5q-42 0 -70.5 28t-28.5 70zM1438 78q0 44 27 72t71 28q43 0 71.5 -28t28.5 -72 q0 -43 -27.5 -70.5t-72.5 -27.5q-42 0 -70 28t-28 70z" />
<glyph unicode="&#x202f;" horiz-adv-x="376" />
<glyph unicode="&#x2039;" horiz-adv-x="712" d="M152 676v59l325 404l84 -70l-301 -364l301 -365l-84 -70z" />
<glyph unicode="&#x203a;" horiz-adv-x="712" d="M152 340l301 365l-301 364l84 70l325 -404v-59l-325 -406z" />
<glyph unicode="&#x205f;" horiz-adv-x="470" />
<glyph unicode="&#x20ac;" horiz-adv-x="1280" d="M115 520v101h166v170h-166v100h174q42 255 194.5 404t393.5 149q165 0 321 -80l-37 -100q-142 71 -282 71q-189 0 -309 -118t-156 -326h575v-100h-579v-170h538v-101h-524q33 -215 147.5 -325.5t288.5 -110.5q89 0 158 21.5t147 62.5l43 -98q-173 -95 -350 -95 q-229 0 -375 140.5t-192 404.5h-176z" />
<glyph unicode="&#x2122;" horiz-adv-x="1843" d="M123 1468v88h688v-88h-293v-751h-102v751h-293zM881 717v839h149l264 -534l265 534h145v-839h-102v708l-261 -510h-96l-264 521v-719h-100z" />
<glyph unicode="&#x25fc;" horiz-adv-x="1075" d="M0 0v1075h1075v-1075h-1075z" />
</font>
</defs>
</svg>
