<?xml version="1.0" standalone="no"?>
<!DOCTYPE svg PUBLIC "-//W3C//DTD SVG 1.1//EN" "http://www.w3.org/Graphics/SVG/1.1/DTD/svg11.dtd" >
<svg xmlns="http://www.w3.org/2000/svg">
<metadata></metadata>
<defs>
<font id="abezehmedium" horiz-adv-x="1228" >
<font-face units-per-em="2048" ascent="1638" descent="-410" />
<missing-glyph horiz-adv-x="614" />
<glyph unicode="&#xfb01;" horiz-adv-x="1210" d="M35 838v188h158v139q0 172 108.5 273.5t286.5 101.5q188 0 350 -104l-96 -164q-65 36 -117 53.5t-119 17.5q-91 0 -139.5 -47t-48.5 -133v-137h639v-1026h-226v838h-413v-838h-225v838h-158z" />
<glyph unicode="&#xfb02;" horiz-adv-x="1378" d="M35 838v188h158v143q0 170 107.5 270.5t287.5 100.5q204 0 440 -119v-1065q0 -93 43 -139.5t121 -46.5q66 0 135 27l51 -174q-91 -48 -215 -48q-74 0 -138 20t-114 59.5t-79 106.5t-29 154v994q-100 34 -193 34q-94 0 -143 -46t-49 -130v-141h241l-30 -188h-211v-838 h-225v838h-158z" />
<glyph unicode="&#xfb03;" horiz-adv-x="1853" d="M35 838v188h158v92q0 186 107.5 292t289.5 106q180 0 344 -86q107 110 297 110q188 0 350 -104l-96 -164q-65 36 -117 53.5t-119 17.5q-91 0 -139.5 -47t-48.5 -133v-137h637v-1026h-225v838h-412v-838h-225v838h-158v188h158v139q0 66 14 115q-118 49 -238 49 q-92 0 -143 -49.5t-51 -140.5v-113h258v-188h-258v-838h-225v838h-158z" />
<glyph unicode="&#xfb04;" horiz-adv-x="2023" d="M35 838v188h158v92q0 186 107.5 292t289.5 106q178 0 342 -86q107 110 299 110q204 0 440 -119l-2 -4v-1061q0 -93 43 -139.5t121 -46.5q69 0 135 27l51 -174q-91 -48 -215 -48q-74 0 -138 20t-114 59.5t-79 106.5t-29 154v994q-100 34 -191 34q-94 0 -143 -46t-49 -130 v-141h242l-31 -188h-211v-838h-225v838h-158v188h158v143q0 65 14 111q-118 49 -238 49q-92 0 -143 -49.5t-51 -140.5v-113h258v-188h-258v-838h-225v838h-158z" />
<glyph horiz-adv-x="2048" />
<glyph horiz-adv-x="2048" />
<glyph unicode="&#xd;" horiz-adv-x="2048" />
<glyph unicode=" "  horiz-adv-x="614" />
<glyph unicode="&#x09;" horiz-adv-x="614" />
<glyph unicode="&#xa0;" horiz-adv-x="614" />
<glyph unicode="!" horiz-adv-x="659" d="M172 131q0 69 44 113.5t114 44.5q66 0 111.5 -44.5t45.5 -111.5q0 -69 -44 -113.5t-113 -44.5q-68 0 -113 44.5t-45 111.5zM207 967v526h242v-526l-31 -516h-182z" />
<glyph unicode="&#x22;" horiz-adv-x="802" d="M113 1434h215l-21 -488h-174zM475 1434h215l-20 -488h-174z" />
<glyph unicode="#" horiz-adv-x="1386" d="M76 270l30 181h179l71 417h-180l31 181h182l49 270h205l-49 -270h330l49 270h205l-50 -270h183l-31 -181h-184l-74 -417h186l-30 -181h-187l-45 -270h-205l45 270h-329l-45 -270h-205l45 270h-176zM487 451h332l72 417h-330z" />
<glyph unicode="$" horiz-adv-x="1038" d="M41 174l102 158q83 -56 161.5 -83.5t189.5 -27.5q118 0 189 48.5t71 136.5q0 82 -61.5 133.5t-241.5 109.5q-202 67 -286.5 152.5t-84.5 230.5q0 133 95.5 224.5t264.5 111.5l-20 256h221l-23 -254q178 -16 330 -102l-84 -162q-152 88 -332 88q-109 0 -171 -42t-62 -112 q0 -73 56.5 -119.5t226.5 -103.5q218 -73 306.5 -163t88.5 -234q0 -154 -99.5 -251t-273.5 -122l23 -258h-221l20 252q-224 14 -385 133z" />
<glyph unicode="%" horiz-adv-x="2011" d="M104 1001q0 215 92.5 331t264.5 116t263 -117t91 -334q0 -216 -93 -331t-265 -115t-262.5 116.5t-90.5 333.5zM303 1001q0 -146 41 -221t117 -75t115.5 67t39.5 225q0 146 -40.5 221.5t-116.5 75.5t-116 -67.5t-40 -225.5zM487 2l895 1520l144 -90l-895 -1520zM1194 436 q0 215 92 331t264 116t263.5 -117.5t91.5 -333.5t-93.5 -331t-265.5 -115t-262 116.5t-90 333.5zM1393 436q0 -146 40.5 -221.5t116.5 -75.5t116 67.5t40 225.5q0 146 -41 221.5t-117 75.5t-115.5 -67t-39.5 -226z" />
<glyph unicode="&#x26;" horiz-adv-x="1517" d="M172 375q0 254 272 413q-76 84 -109.5 157t-33.5 163q0 151 103 250.5t270 99.5q161 0 260.5 -94.5t99.5 -233.5q0 -119 -70 -205t-229 -173l297 -289q19 35 35 84.5t25.5 89t28 81.5t42.5 70t69 46t107 18l43 -178q-44 0 -72.5 -21t-43.5 -58t-25.5 -77.5t-28 -92 t-41.5 -87.5l230 -209l-139 -147l-205 194q-85 -98 -188 -149.5t-244 -51.5q-193 0 -323 110.5t-130 289.5zM410 387q0 -96 64 -154.5t171 -58.5q83 0 154 35t121 98l-359 350q-78 -56 -114.5 -119t-36.5 -151zM514 1110q0 -123 109 -238q106 57 152 116t46 138 q0 68 -41 111t-108 43q-70 0 -114 -48t-44 -122z" />
<glyph unicode="'" horiz-adv-x="440" d="M113 1434h215l-21 -488h-174z" />
<glyph unicode="(" horiz-adv-x="632" d="M102 655q0 241 76.5 459.5t224.5 452.5l127 -70q-198 -401 -198 -842q0 -431 198 -841l-127 -70q-148 237 -224.5 458.5t-76.5 452.5z" />
<glyph unicode=")" horiz-adv-x="632" d="M102 -186q199 412 199 841q0 439 -199 842l127 70q149 -232 225 -451t76 -461q0 -232 -76.5 -453.5t-224.5 -457.5z" />
<glyph unicode="*" horiz-adv-x="917" d="M104 1188l58 178l225 -96l-22 246h188l-23 -242l228 94l55 -178l-235 -55l159 -187l-151 -108l-125 211l-127 -211l-150 110l158 183z" />
<glyph unicode="+" d="M203 606v189h305v327h215v-327h303v-189h-303v-325h-215v325h-305z" />
<glyph unicode="," horiz-adv-x="610" d="M35 -272q86 110 137 222.5t80 258.5l209 -62q-24 -170 -99 -288.5t-204 -202.5z" />
<glyph unicode="-" horiz-adv-x="1026" d="M154 602v197h718v-197h-718z" />
<glyph unicode="." horiz-adv-x="612" d="M147 131q0 69 45 113.5t115 44.5q67 0 112.5 -44.5t45.5 -111.5q0 -69 -44.5 -113.5t-113.5 -44.5q-68 0 -114 44.5t-46 111.5z" />
<glyph unicode="/" horiz-adv-x="921" d="M80 -82l575 1663l187 -59l-576 -1665z" />
<glyph unicode="0" horiz-adv-x="1234" d="M113 707q0 354 130 540.5t375 186.5q246 0 375 -188.5t129 -543.5q0 -354 -130.5 -540.5t-375.5 -186.5q-246 0 -374.5 188.5t-128.5 543.5zM356 707q0 -266 67.5 -398.5t194.5 -132.5q63 0 109.5 25.5t81.5 84.5t52.5 163t17.5 253q0 265 -68 399t-193 134 q-85 0 -140.5 -45.5t-88.5 -165t-33 -317.5z" />
<glyph unicode="1" horiz-adv-x="962" d="M51 1151l432 258h179v-1208h237v-201h-756v201h289v948l-282 -166z" />
<glyph unicode="2" horiz-adv-x="1009" d="M55 1270q189 164 426 164q199 0 319 -105.5t120 -271.5q0 -77 -30.5 -147t-80.5 -125.5t-110.5 -107.5t-123.5 -104.5t-117 -106.5t-92.5 -122.5t-48.5 -142.5h607v-201h-858q-7 51 -7 90q0 88 21 168t57 141.5t83 117.5t98.5 102.5t102.5 89t98 83.5t83 81t57 86t21 94 q0 89 -56.5 137.5t-156.5 48.5q-80 0 -147.5 -29t-139.5 -86z" />
<glyph unicode="3" horiz-adv-x="1034" d="M16 106l115 158q69 -45 135 -67.5t156 -22.5q128 0 199 57.5t71 169.5q0 117 -80 179.5t-237 62.5h-123v180h119q137 0 209.5 56t72.5 163q0 92 -61 144.5t-168 52.5q-84 0 -147.5 -22.5t-133.5 -67.5l-94 158q173 127 395 127q201 0 324 -107t123 -268q0 -232 -254 -311 q62 -12 113.5 -38.5t93.5 -68t66 -104t24 -138.5q0 -195 -140.5 -309.5t-369.5 -114.5q-238 0 -408 131z" />
<glyph unicode="4" horiz-adv-x="1118" d="M76 295v170l420 962l202 -81l-370 -852h352l29 387h194v-387h156v-199h-156v-295h-223v295h-604z" />
<glyph unicode="5" horiz-adv-x="1071" d="M57 92l97 170q147 -88 313 -88q128 0 202 66t74 182q0 124 -78.5 188t-232.5 64h-266v735h741v-197h-524v-346h96q237 0 371.5 -117t134.5 -315q0 -207 -142 -333t-374 -126q-246 0 -412 117z" />
<glyph unicode="6" horiz-adv-x="1167" d="M102 571q0 175 49.5 327.5t142 268t236 182t320.5 66.5q48 0 92 -6v-199q-47 7 -86 7q-205 0 -339 -116t-173 -347q133 147 328 147q177 0 293 -122t116 -316q0 -221 -134.5 -354.5t-344.5 -133.5q-103 0 -191.5 36t-158.5 106.5t-110 187t-40 266.5zM338 559 q0 -193 70.5 -289t195.5 -96q110 0 176 72t66 203q0 123 -59.5 192.5t-163.5 69.5q-161 0 -285 -152z" />
<glyph unicode="7" horiz-adv-x="1003" d="M35 1212v197h948v-168q-188 -187 -287 -353t-141.5 -371.5t-42.5 -516.5h-254q0 224 28 400.5t88 320t139 257t196 234.5h-674z" />
<glyph unicode="8" horiz-adv-x="1171" d="M78 373q0 253 305 381q-117 63 -174 138.5t-57 186.5q0 154 122 254.5t306 100.5q192 0 315 -101.5t123 -253.5q0 -112 -61 -187t-175 -130q154 -69 233 -161t79 -222q0 -179 -141.5 -291.5t-356.5 -112.5q-233 0 -375.5 114.5t-142.5 283.5zM313 393q0 -98 81.5 -160.5 t203.5 -62.5q114 0 187 58.5t73 150.5q0 168 -291 276q-108 -30 -181 -99.5t-73 -162.5zM375 1081q0 -76 61 -135.5t170 -97.5q83 32 136 88.5t53 130.5q0 81 -61.5 132.5t-153.5 51.5q-90 0 -147.5 -47t-57.5 -123z" />
<glyph unicode="9" horiz-adv-x="1144" d="M76 971q0 196 134 329.5t339 133.5q247 0 365 -164t118 -508q0 -787 -526 -787q-226 0 -381 152l125 152q117 -105 256 -105q293 0 293 494q-129 -129 -297 -129q-81 0 -156.5 28t-136 80t-97 136t-36.5 188zM311 975q0 -120 62 -186t166 -66q152 0 256 123 q0 209 -62.5 301t-181.5 92q-110 0 -175 -70.5t-65 -193.5z" />
<glyph unicode=":" horiz-adv-x="614" d="M147 874q0 69 45 113.5t115 44.5q67 0 112.5 -45t45.5 -113q0 -69 -44.5 -112t-113.5 -43q-68 0 -114 43.5t-46 111.5zM150 131q0 69 43.5 113.5t113.5 44.5q67 0 112.5 -44.5t45.5 -111.5q0 -69 -44 -113.5t-114 -44.5q-66 0 -111.5 44.5t-45.5 111.5z" />
<glyph unicode=";" horiz-adv-x="641" d="M35 -272q86 110 137 222.5t80 258.5l209 -62q-24 -170 -99 -288.5t-204 -202.5zM176 874q0 69 45 113.5t115 44.5q67 0 112.5 -45t45.5 -113q0 -69 -44.5 -112t-113.5 -43q-68 0 -114 43.5t-46 111.5z" />
<glyph unicode="&#x3c;" d="M227 631v139l666 414l108 -172l-524 -312l524 -309l-110 -172z" />
<glyph unicode="=" d="M219 418v190h791v-190h-791zM219 801v190h791v-190h-791z" />
<glyph unicode="&#x3e;" d="M236 391l522 309l-522 312l106 172l666 -414v-139l-664 -412z" />
<glyph unicode="?" horiz-adv-x="1009" d="M82 1323q88 108 191 162.5t245 54.5q176 0 288 -98t112 -242q0 -70 -22 -129t-57 -100.5t-77 -79.5t-84 -74t-77 -74.5t-57 -91t-22 -114.5v-86h-188q-23 64 -23 141q0 67 20 124.5t52.5 98.5t71.5 77.5t78.5 69t72 64.5t52.5 71.5t20 84.5q0 74 -47.5 116.5t-130.5 42.5 q-80 0 -142 -35.5t-120 -107.5zM281 131q0 69 44 113.5t113 44.5q68 0 114 -45t46 -113t-45 -112t-115 -44q-66 0 -111.5 44.5t-45.5 111.5z" />
<glyph unicode="@" horiz-adv-x="2144" d="M131 436q0 203 72.5 387.5t201 324t319.5 222t415 82.5q191 0 355 -63t276.5 -171.5t176.5 -257t64 -317.5q0 -296 -139.5 -482t-351.5 -186q-102 0 -167.5 49t-84.5 132q-136 -156 -314 -156q-76 0 -146.5 31t-125 87t-87 141t-32.5 185q0 151 63 276t171.5 196 t238.5 71q96 0 170.5 -37.5t120.5 -103.5l16 123h185l-82 -656q-4 -54 -4 -69q0 -111 96 -111q107 0 181.5 137.5t74.5 366.5q0 282 -181.5 454.5t-475.5 172.5q-148 0 -276.5 -46t-221 -125.5t-159.5 -184t-99.5 -223.5t-32.5 -243q0 -232 91 -397t248.5 -245.5 t365.5 -80.5q258 0 506 123l65 -174q-114 -62 -263 -99.5t-312 -37.5q-197 0 -365 61.5t-291 175.5t-192.5 285.5t-69.5 382.5zM780 465q0 -139 58 -213t161 -74q69 0 132 33.5t110 85.5l47 393q-39 56 -100 88.5t-133 32.5q-113 0 -194 -98t-81 -248z" />
<glyph unicode="A" horiz-adv-x="1384" d="M16 61l555 1373h250l547 -1373l-219 -81l-152 393h-620l-152 -393zM449 569h475l-232 641z" />
<glyph unicode="B" horiz-adv-x="1288" d="M174 10v1413q226 27 424 27q259 0 409 -109.5t150 -279.5q0 -209 -242 -301q144 -47 216.5 -131t72.5 -215q0 -198 -160.5 -314t-449.5 -116q-223 0 -420 26zM412 186q95 -10 209 -10q159 0 248 61t89 175q0 115 -88 176t-247 61h-211v-463zM412 829h202 q138 0 219.5 57.5t81.5 160.5q0 104 -80.5 159.5t-226.5 55.5q-50 0 -196 -11v-422z" />
<glyph unicode="C" horiz-adv-x="1208" d="M92 711q0 220 83 389t238 263.5t359 94.5q198 0 369 -88l-72 -184q-74 35 -140.5 52t-152.5 17q-198 0 -317 -141.5t-119 -394.5q0 -250 116 -395.5t314 -145.5q92 0 164.5 21t157.5 63l69 -182q-181 -105 -403 -105q-301 0 -483.5 198.5t-182.5 537.5z" />
<glyph unicode="D" horiz-adv-x="1398" d="M174 12v1411q224 27 393 27q151 0 274 -37.5t208.5 -104t143.5 -159t85 -200.5t27 -230q0 -126 -28 -235.5t-87.5 -202t-147 -158t-212 -102.5t-277.5 -37q-201 0 -379 28zM412 193q106 -9 166 -9q237 0 359 141t122 394q0 116 -28.5 212t-85 168t-148.5 112t-211 40 q-96 0 -174 -10v-1048z" />
<glyph unicode="E" horiz-adv-x="1146" d="M174 0v1434h887v-201h-649v-391h559v-195h-559v-446h649v-201h-887z" />
<glyph unicode="F" horiz-adv-x="1101" d="M174 0v1434h877v-201h-639v-414h532v-194h-532v-625h-238z" />
<glyph unicode="G" horiz-adv-x="1384" d="M92 688q0 226 79 399.5t232.5 272t360.5 98.5q235 0 436 -117l-84 -182q-89 46 -169.5 71t-176.5 25q-197 0 -313.5 -148t-116.5 -415q0 -244 105 -379t278 -135q184 0 313 129v293h-276v193h516v-793h-221v131q-181 -156 -373 -156q-126 0 -234.5 49.5t-187.5 140 t-123.5 225.5t-44.5 298z" />
<glyph unicode="H" horiz-adv-x="1449" d="M174 0v1434h238v-596h626v596h238v-1434h-238v637h-626v-637h-238z" />
<glyph unicode="I" horiz-adv-x="587" d="M174 0v1434h238v-1434h-238z" />
<glyph unicode="J" horiz-adv-x="901" d="M-6 98l106 158q57 -41 103.5 -60.5t107.5 -19.5q92 0 144.5 62.5t52.5 187.5v1008h237v-1014q0 -215 -116.5 -330t-304.5 -115q-197 0 -330 123z" />
<glyph unicode="K" horiz-adv-x="1230" d="M174 0v1434h238v-629l598 643l161 -145l-544 -564l624 -602l-164 -166l-675 670v-641h-238z" />
<glyph unicode="L" horiz-adv-x="1056" d="M174 0v1434h238v-1223h635v-211h-873z" />
<glyph unicode="M" horiz-adv-x="1720" d="M174 0v1434h324l360 -902l361 902h327v-1434h-237v1139l-344 -846h-217l-347 846v-1139h-227z" />
<glyph unicode="N" horiz-adv-x="1449" d="M174 0v1434h307l568 -1133v1133h227v-1434h-307l-568 1128v-1128h-227z" />
<glyph unicode="O" horiz-adv-x="1556" d="M92 719q0 212 80.5 378.5t237.5 263.5t368 97q157 0 287 -58t217 -158t134.5 -235.5t47.5 -289.5q0 -156 -47.5 -291.5t-134 -235.5t-216.5 -157.5t-288 -57.5t-288.5 58t-217 159t-133.5 236.5t-47 290.5zM340 719q0 -109 29.5 -206.5t83.5 -172.5t138.5 -119.5 t186.5 -44.5q141 0 241.5 70.5t149 191t48.5 279.5q0 145 -50.5 266.5t-152 197.5t-236.5 76q-137 0 -237.5 -70t-150.5 -190.5t-50 -277.5z" />
<glyph unicode="P" horiz-adv-x="1204" d="M174 0v1427q228 23 406 23q281 0 435 -126.5t154 -334.5q0 -234 -167 -361.5t-449 -127.5q-77 0 -141 6v-506h-238zM412 702q82 -8 161 -8q173 0 265 74t92 211q0 131 -89 203.5t-255 72.5q-68 0 -174 -8v-545z" />
<glyph unicode="Q" horiz-adv-x="1562" d="M92 719q0 158 47 293.5t133 234.5t214.5 155t285.5 56q155 0 284.5 -58t216 -158t134 -235.5t47.5 -289.5q0 -274 -145 -473l182 -109l-119 -172l-190 148q-180 -136 -410 -136q-207 0 -363.5 100t-236.5 268t-80 376zM340 719q0 -108 29.5 -206t83.5 -173t136.5 -119.5 t182.5 -44.5q145 0 242 60l-178 112l114 158l183 -148q73 134 73 359q0 145 -50 266.5t-150.5 197.5t-233.5 76q-201 0 -316.5 -149.5t-115.5 -388.5z" />
<glyph unicode="R" horiz-adv-x="1280" d="M174 0v1423q214 27 399 27q276 0 423 -114t147 -298q0 -149 -85 -234t-245 -128q87 -29 148.5 -90t121.5 -185l156 -329l-221 -101l-180 383q-61 129 -133 186.5t-177 57.5h-116v-598h-238zM412 795h174q150 0 233.5 61t83.5 174q0 105 -79.5 165t-227.5 60 q-82 0 -184 -10v-450z" />
<glyph unicode="S" horiz-adv-x="1142" d="M41 125l115 176q96 -63 182 -93q84 -30 199 -30h8q131 0 210 53.5t79 149.5q0 92 -68.5 149t-269.5 123q-223 73 -317.5 169t-94.5 257q0 167 134.5 273t367.5 106q253 0 463 -119l-93 -178q-176 99 -368 99q-121 0 -190.5 -47.5t-69.5 -125.5q0 -55 24.5 -92t92 -74 t196.5 -81q243 -81 341.5 -181t98.5 -260q0 -200 -147.5 -312t-394.5 -112q-294 0 -498 150z" />
<glyph unicode="T" horiz-adv-x="1144" d="M16 1229v205h1112v-205h-436v-1229h-237v1229h-439z" />
<glyph unicode="U" horiz-adv-x="1396" d="M154 508v926h237v-922q0 -157 80 -245.5t229 -88.5q151 0 231.5 88.5t80.5 245.5v922h231v-924q0 -250 -147.5 -392.5t-395.5 -142.5q-251 0 -398.5 140.5t-147.5 392.5z" />
<glyph unicode="V" horiz-adv-x="1331" d="M16 1372l232 86l422 -1198l426 1194l219 -82l-520 -1372h-254z" />
<glyph unicode="W" horiz-adv-x="1927" d="M27 1382l239 66l303 -1182l262 1039h279l264 -1039l299 1178l228 -62l-390 -1382h-278l-268 1055l-267 -1055h-276z" />
<glyph unicode="X" horiz-adv-x="1255" d="M16 121l471 608l-450 590l194 135l396 -563l393 561l184 -133l-442 -578l477 -620l-192 -141l-426 598l-422 -596z" />
<glyph unicode="Y" horiz-adv-x="1273" d="M16 1339l207 115l420 -706l420 700l194 -109l-499 -794v-545h-238v545z" />
<glyph unicode="Z" horiz-adv-x="1120" d="M47 0v182l729 1051h-690v201h973v-174l-733 -1051h757v-209h-1036z" />
<glyph unicode="[" horiz-adv-x="622" d="M152 -205v1721h385v-183h-191v-1356h191v-182h-385z" />
<glyph unicode="\" horiz-adv-x="921" d="M80 1522l186 59l576 -1663l-187 -61z" />
<glyph unicode="]" horiz-adv-x="622" d="M86 -23h190v1356h-190v183h387v-1721h-387v182z" />
<glyph unicode="^" d="M178 1163l379 353h115l379 -353l-142 -147l-295 301l-295 -301z" />
<glyph unicode="_" d="M0 -96h1229v-156h-1229v156z" />
<glyph unicode="`" horiz-adv-x="645" d="M61 1417l99 201l424 -275l-82 -143z" />
<glyph unicode="a" horiz-adv-x="1251" d="M82 526q0 157 65.5 286.5t180 203.5t252.5 74q175 0 292 -127v102h195v-780q0 -121 123 -121l-47 -174q-202 0 -256 147q-135 -162 -330 -162q-93 0 -178 38.5t-151.5 107.5t-106 174.5t-39.5 230.5zM313 532q0 -168 76.5 -265t208.5 -97q140 0 244 104v545 q-108 80 -236 80q-135 0 -214 -99.5t-79 -267.5z" />
<glyph unicode="b" horiz-adv-x="1212" d="M154 0v1516h225v-549q50 52 123.5 87.5t163.5 35.5q92 0 175.5 -37t148 -105t102.5 -173t38 -232q0 -123 -40.5 -230.5t-107 -180.5t-153.5 -115t-180 -42q-87 0 -164.5 35t-134.5 96v-106h-196zM379 248q87 -78 219 -78q136 0 219.5 97.5t83.5 269.5q0 171 -78.5 266.5 t-204.5 95.5q-68 0 -132.5 -32t-106.5 -76v-543z" />
<glyph unicode="c" horiz-adv-x="976" d="M80 532q0 115 36.5 216.5t103.5 177.5t168.5 120t223.5 44q172 0 316 -86l-70 -175q-121 64 -229 64q-143 0 -231.5 -94.5t-88.5 -261.5q0 -168 85.5 -266.5t232.5 -98.5q69 0 119.5 16t115.5 50l66 -175q-153 -88 -322 -88q-241 0 -383.5 154.5t-142.5 402.5z" />
<glyph unicode="d" horiz-adv-x="1245" d="M82 526q0 158 65.5 288.5t175 203t238.5 72.5q88 0 158.5 -35t116.5 -86v547h225v-1231q0 -121 123 -121l-49 -174q-203 0 -254 147q-63 -75 -139.5 -118.5t-186.5 -43.5q-92 0 -177 38.5t-151 107.5t-105.5 174.5t-39.5 230.5zM313 532q0 -169 75 -265.5t206 -96.5 q68 0 132 28t110 74v521q-41 46 -104.5 76t-139.5 30q-125 0 -202 -103t-77 -264z" />
<glyph unicode="e" horiz-adv-x="1105" d="M72 532q0 159 60.5 285.5t173 199.5t257.5 73q112 0 202.5 -39.5t148 -108t88 -157.5t30.5 -191q0 -80 -6 -150h-725q19 -131 100 -203.5t220 -72.5q78 0 141.5 15t140.5 48l62 -174q-167 -82 -355 -82q-251 0 -394.5 150.5t-143.5 406.5zM297 618h520q-1 135 -68 210 t-182 75q-113 0 -183 -71.5t-87 -213.5z" />
<glyph unicode="f" horiz-adv-x="751" d="M35 838v188h158v143q0 169 105.5 270t274.5 101q163 0 304 -92l-91 -160q-101 55 -194 55q-80 0 -127 -46.5t-47 -129.5v-141h305v-188h-305v-838h-225v838h-158z" />
<glyph unicode="g" horiz-adv-x="1202" d="M86 532q0 158 67.5 287t179 200t240.5 71q165 0 289 -127v102h193v-1057q0 -124 -35.5 -217.5t-102.5 -151t-157 -86t-203 -28.5q-199 0 -354 92l82 168q124 -70 270 -70q137 0 212 71.5t75 219.5v125q-114 -131 -287 -131q-91 0 -175.5 37t-150 103.5t-104.5 168.5 t-39 223zM315 543q0 -162 76.5 -255t202.5 -93q133 0 235 102v522q-108 80 -229 80q-122 0 -203.5 -95.5t-81.5 -260.5z" />
<glyph unicode="h" horiz-adv-x="1210" d="M154 0v1516h225v-603q123 177 328 177q173 0 266.5 -110t93.5 -296v-684h-225v670q0 110 -48 168.5t-137 58.5q-150 0 -278 -184v-713h-225z" />
<glyph unicode="i" horiz-adv-x="532" d="M113 1384q0 68 42 111t111 43q66 0 110 -43.5t44 -110.5t-43 -110t-111 -43q-66 0 -109.5 43t-43.5 110zM154 0v1065h225v-1065h-225z" />
<glyph unicode="j" horiz-adv-x="550" d="M-190 -426l55 172q65 -29 143 -29q79 0 121.5 48.5t42.5 144.5v1155h225v-1176q0 -92 -29 -163.5t-80 -114.5t-116 -64.5t-141 -21.5q-123 0 -221 49zM131 1384q0 68 42.5 111t111.5 43q66 0 109.5 -43.5t43.5 -110.5q0 -68 -43 -110.5t-110 -42.5q-66 0 -110 43t-44 110 z" />
<glyph unicode="k" horiz-adv-x="1044" d="M154 0v1516h225v-879l448 448l142 -139l-385 -368l452 -451l-157 -150l-500 521v-498h-225z" />
<glyph unicode="l" horiz-adv-x="710" d="M133 315v1201h225v-1160q0 -93 43 -139.5t121 -46.5q69 0 135 27l54 -174q-94 -48 -217 -48q-75 0 -138.5 20t-114 59.5t-79.5 106.5t-29 154z" />
<glyph unicode="m" horiz-adv-x="1818" d="M154 0v1065h200v-176q116 201 326 201q115 0 195 -55t118 -152q126 207 336 207q166 0 256 -109.5t90 -292.5v-688h-225v674q0 106 -44 164.5t-120 58.5q-78 0 -138 -47.5t-122 -136.5v-713h-225v674q0 106 -43 164.5t-119 58.5q-77 0 -138.5 -46.5t-121.5 -133.5v-717 h-225z" />
<glyph unicode="n" horiz-adv-x="1210" d="M154 0v1065h200v-174q64 96 148 147.5t205 51.5q173 0 266.5 -110t93.5 -296v-684h-225v670q0 110 -48 168.5t-137 58.5q-149 0 -278 -182v-715h-225z" />
<glyph unicode="o" horiz-adv-x="1220" d="M72 532q0 126 41 231.5t113.5 177t171 110.5t212.5 39q236 0 387.5 -156t151.5 -402q0 -168 -71.5 -296t-193 -194.5t-274.5 -66.5q-236 0 -387 155.5t-151 401.5zM303 535q0 -158 85 -261.5t222 -103.5q145 0 227.5 96.5t82.5 263.5q0 158 -86.5 261.5t-223.5 103.5 q-144 0 -225.5 -96.5t-81.5 -263.5z" />
<glyph unicode="p" horiz-adv-x="1243" d="M61 891l48 174q197 0 256 -143q53 71 136 119.5t191 48.5q92 0 175.5 -37t149.5 -105t105 -173.5t39 -231.5q0 -124 -38.5 -231.5t-103 -180.5t-150.5 -114.5t-179 -41.5q-159 0 -280 121v-547h-226v1213q0 67 -33.5 98t-89.5 31zM410 276q103 -106 239 -106 q125 0 203 100.5t78 266.5q0 168 -78 265t-201 97q-72 0 -136 -34t-105 -83v-506z" />
<glyph unicode="q" horiz-adv-x="1212" d="M82 526q0 122 40 228.5t107.5 179.5t157.5 114.5t188 41.5q173 0 289 -129v104h195v-1516h-225v555q-108 -129 -283 -129q-89 0 -173 38.5t-150 107.5t-106 174.5t-40 230.5zM313 532q0 -168 76 -265t205 -97q73 0 136 31t104 80v538q-107 80 -232 80q-127 0 -208 -98.5 t-81 -268.5z" />
<glyph unicode="r" horiz-adv-x="835" d="M154 0v1065h208v-223q38 114 121 181t213 67q74 0 123 -15l-65 -221q-50 16 -101 16q-112 0 -193 -100t-81 -285v-485h-225z" />
<glyph unicode="s" horiz-adv-x="921" d="M31 90l102 168q76 -44 147 -66t160 -22q102 0 154.5 32.5t52.5 92.5q0 54 -52 91.5t-198 80.5q-172 49 -248.5 121.5t-76.5 204.5q0 133 110 215t297 82q207 0 377 -95l-90 -166q-137 74 -281 74q-91 0 -137.5 -29.5t-46.5 -78.5q0 -53 47 -87t191 -77 q179 -52 259.5 -127t80.5 -197q0 -156 -116.5 -244t-322.5 -88q-230 0 -409 115z" />
<glyph unicode="t" horiz-adv-x="811" d="M14 838v188h187l43 336h174v-336h289v-188h-289v-486q0 -94 44 -138t116 -44q89 0 174 45l59 -170q-122 -70 -260 -70q-159 0 -258.5 91t-99.5 260v512h-179z" />
<glyph unicode="u" horiz-adv-x="1216" d="M143 373v692h226v-680q0 -215 188 -215q140 0 250 104v791h225v-764q0 -137 123 -137l-47 -174q-201 0 -254 151q-144 -166 -346 -166q-70 0 -133.5 23t-116 68.5t-84 124.5t-31.5 182z" />
<glyph unicode="v" horiz-adv-x="1091" d="M14 1010l207 73l330 -850l328 850l198 -73l-420 -1010h-225z" />
<glyph unicode="w" horiz-adv-x="1591" d="M16 1010l211 69l254 -835l209 766h223l207 -766l250 835l203 -69l-338 -1010h-236l-204 774l-205 -774h-234z" />
<glyph unicode="x" horiz-adv-x="1036" d="M16 121l367 420l-352 403l174 139l309 -397l311 397l164 -139l-346 -395l377 -428l-172 -144l-338 424l-328 -419z" />
<glyph unicode="y" horiz-adv-x="1085" d="M2 1004l205 79l366 -847l297 847l201 -79l-393 -1061q-45 -122 -95.5 -205t-108.5 -129t-119 -65t-138 -19q-125 0 -199 49l54 166q69 -27 139 -27q90 0 151 56t115 200l41 111h-94z" />
<glyph unicode="z" horiz-adv-x="964" d="M66 0v176l559 696h-547v193h819v-166l-559 -698h571v-201h-843z" />
<glyph unicode="{" horiz-adv-x="753" d="M96 573v164q110 13 149.5 85t39.5 253q0 243 98 354t315 132v-148q-113 -24 -157.5 -94.5t-44.5 -237.5q0 -147 -22.5 -231t-72 -128t-141.5 -67q92 -23 141.5 -67t72 -128t22.5 -231q0 -168 44.5 -238.5t157.5 -94.5v-148q-217 21 -315 132.5t-98 355.5 q0 181 -39.5 252.5t-149.5 84.5z" />
<glyph unicode="|" horiz-adv-x="694" d="M246 -205v1782h203v-1782h-203z" />
<glyph unicode="}" horiz-adv-x="753" d="M55 -104q115 24 159 94t44 239q0 147 23 231t72.5 128t140.5 67q-91 23 -140.5 67t-72.5 128t-23 231q0 115 -20 182t-63 101.5t-120 50.5v148q217 -21 316.5 -132.5t99.5 -355.5q0 -181 39 -253t147 -85v-164q-108 -13 -147 -84.5t-39 -252.5q0 -244 -99.5 -355.5 t-316.5 -132.5v148z" />
<glyph unicode="~" d="M145 668q57 57 131 99t148 42q52 0 104 -18t87.5 -39.5t81 -39.5t85.5 -18q60 0 110.5 28t104.5 79l86 -158q-148 -141 -290 -141q-49 0 -101.5 18t-89.5 39t-84 39t-86 18q-97 0 -203 -102z" />
<glyph unicode="&#xa1;" horiz-adv-x="659" d="M172 874q0 69 44 113.5t114 44.5q67 0 112 -45t45 -113q0 -69 -44 -112t-113 -43q-68 0 -113 43.5t-45 111.5zM205 33l31 518h182l31 -518v-484h-244v484z" />
<glyph unicode="&#xa2;" horiz-adv-x="976" d="M80 586q0 210 116 363t316 186l-23 235h222l-23 -231q126 -14 240 -82l-70 -174q-116 61 -229 61q-143 0 -231.5 -93.5t-88.5 -260.5q0 -168 85.5 -266.5t232.5 -98.5q69 0 119.5 16t115.5 50l66 -174q-120 -68 -240 -84l23 -234h-222l23 236q-201 30 -316.5 179.5 t-115.5 371.5z" />
<glyph unicode="&#xa3;" horiz-adv-x="1028" d="M96 625v186h150v225q0 187 108 292.5t291 105.5q104 0 183 -26.5t157 -82.5l-96 -156q-105 78 -227 78q-89 0 -143 -56.5t-54 -176.5v-203h332v-186h-334q-6 -151 -36 -246.5t-91 -177.5h655v-201h-893v172q82 114 112.5 204.5t33.5 248.5h-148z" />
<glyph unicode="&#xa4;" horiz-adv-x="1218" d="M166 293l119 135q-88 109 -88 258q0 151 88 260l-119 135l162 131l114 -155q84 33 168 33q82 0 166 -31l117 153l160 -131l-119 -135q88 -112 88 -260q0 -152 -88 -258l119 -135l-160 -133l-117 157q-78 -32 -166 -32q-92 0 -168 30l-114 -155zM410 688q0 -94 57 -159.5 t143 -65.5q95 0 148 60t53 161q0 94 -57.5 160.5t-143.5 66.5q-96 0 -148 -60t-52 -163z" />
<glyph unicode="&#xa5;" d="M16 1327l201 107l404 -723l399 723l192 -107l-376 -635h211v-172h-310v-125h310v-172h-310v-223h-237v223h-312v172h312v125h-312v172h222z" />
<glyph unicode="&#xa6;" horiz-adv-x="694" d="M246 -205v768h203v-768h-203zM246 827v750h203v-750h-203z" />
<glyph unicode="&#xa7;" horiz-adv-x="997" d="M111 686q0 94 61.5 164t171.5 113q-105 55 -151 112t-46 146q0 113 102 187.5t259 74.5q196 0 360 -94l-84 -146q-133 72 -264 72q-75 0 -117.5 -27t-42.5 -69q0 -49 44.5 -85.5t193.5 -101.5q155 -66 223 -142t68 -183q0 -176 -234 -277q108 -48 158.5 -108.5 t50.5 -147.5q0 -129 -111.5 -200.5t-291.5 -71.5q-199 0 -346 90l82 158q66 -37 126 -54.5t142 -17.5q84 0 133 25t49 73q0 45 -44.5 79t-180.5 95q-171 75 -241 149t-70 187zM322 694q0 -59 41.5 -101t134.5 -81q178 72 178 188q0 120 -170 183q-84 -28 -134 -76t-50 -113z " />
<glyph unicode="&#xa8;" horiz-adv-x="815" d="M61 1372q0 62 40.5 101.5t103.5 39.5q60 0 100.5 -40t40.5 -101q0 -62 -39 -101.5t-102 -39.5q-61 0 -102.5 40t-41.5 101zM469 1372q0 62 39 101.5t102 39.5q61 0 102.5 -40t41.5 -101q0 -62 -40.5 -101.5t-103.5 -39.5q-60 0 -100.5 40t-40.5 101z" />
<glyph unicode="&#xa9;" horiz-adv-x="1843" d="M197 719q0 219 85.5 385.5t250.5 260t389 93.5q218 0 384.5 -97t253.5 -264t87 -378q0 -160 -50 -296.5t-142 -236t-229 -155.5t-304 -56q-220 0 -386.5 98t-252.5 265.5t-86 380.5zM375 719q0 -258 149 -424t398 -166q258 0 402 158.5t144 431.5q0 169 -64 301 t-189 208.5t-293 76.5q-252 0 -399.5 -158.5t-147.5 -427.5zM545 715q0 198 112 323t295 125q119 0 248 -61l-57 -148q-90 43 -182 43q-102 0 -164 -73t-62 -203q0 -129 62.5 -205t169.5 -76q53 0 93 12.5t97 41.5l55 -148q-127 -72 -262 -72q-180 0 -292.5 120t-112.5 321z " />
<glyph unicode="&#xaa;" d="M203 1051q0 173 101 285t253 112q120 0 209 -72v58h168v-521q0 -92 92 -92l-43 -151q-145 0 -199 94q-39 -43 -98 -72.5t-131 -29.5q-147 0 -249.5 106t-102.5 283zM262 270v185h709v-185h-709zM397 1055q0 -107 54.5 -168.5t136.5 -61.5q90 0 157 74v342q-72 45 -161 45 q-82 0 -134.5 -61t-52.5 -170z" />
<glyph unicode="&#xab;" horiz-adv-x="1165" d="M137 653v103l322 399l147 -125l-282 -325l282 -326l-147 -125zM559 653v103l324 399l145 -125l-283 -325l283 -326l-145 -125z" />
<glyph unicode="&#xac;" d="M133 600v199h963v-527h-219v328h-744z" />
<glyph unicode="&#xad;" d="M254 602v197h721v-197h-721z" />
<glyph unicode="&#xae;" horiz-adv-x="1843" d="M197 719q0 219 85.5 385.5t250.5 260t389 93.5q218 0 384.5 -97t253.5 -264t87 -378q0 -160 -50 -296.5t-142 -236t-229 -155.5t-304 -56q-220 0 -386.5 98t-252.5 265.5t-86 380.5zM375 719q0 -258 149 -424t398 -166q258 0 402 158.5t144 431.5q0 169 -64 301 t-189 208.5t-293 76.5q-252 0 -399.5 -158.5t-147.5 -427.5zM643 315v818q128 16 248 16q162 0 253 -69t91 -179q0 -79 -42.5 -127t-123.5 -76q96 -35 152 -153l79 -176l-165 -74l-97 213q-30 70 -71.5 100.5t-102.5 30.5h-43v-324h-178zM821 788h84q68 0 107 27t39 78 t-37.5 77.5t-108.5 26.5q-30 0 -84 -4v-205z" />
<glyph unicode="&#xaf;" horiz-adv-x="747" d="M61 1266v178h625v-178h-625z" />
<glyph unicode="&#xb0;" horiz-adv-x="921" d="M98 1221q0 129 87.5 212t217.5 83q129 0 216.5 -83t87.5 -212q0 -128 -87.5 -210.5t-216.5 -82.5q-130 0 -217.5 82.5t-87.5 210.5zM289 1221q0 -63 29.5 -99.5t84.5 -36.5q53 0 83 36t30 100t-30 100.5t-83 36.5q-55 0 -84.5 -35.5t-29.5 -101.5z" />
<glyph unicode="&#xb1;" d="M217 160v198h795v-198h-795zM217 811v188h291v295h215v-295h289v-188h-289v-295h-215v295h-291z" />
<glyph unicode="&#xb2;" horiz-adv-x="921" d="M152 643q0 66 23 124t59.5 100.5t81 80.5t88.5 69t80.5 59t59.5 59.5t23 62.5q0 45 -30 71.5t-86 26.5q-104 0 -199 -79l-96 116q136 115 307 115q134 0 218.5 -70t84.5 -172q0 -47 -19.5 -89t-51 -73.5t-70 -61t-79 -58t-75.5 -58t-61 -67t-35 -78.5h397v-156h-614 q-6 41 -6 78z" />
<glyph unicode="&#xb3;" horiz-adv-x="921" d="M141 633l78 125q95 -53 201 -53q77 0 120.5 29.5t43.5 86.5q0 61 -47 93t-138 32h-104v139h98q164 0 164 111q0 50 -37 76t-100 26q-93 0 -191 -53l-79 123q133 80 284 80q145 0 231.5 -69t86.5 -167q0 -132 -140 -186q166 -52 166 -205q0 -116 -93 -193t-261 -77 q-172 0 -283 82z" />
<glyph unicode="&#xb4;" horiz-adv-x="645" d="M61 1343l422 275l101 -201l-441 -217z" />
<glyph unicode="&#xb6;" horiz-adv-x="1384" d="M35 1178q0 189 132.5 303t362.5 114q133 0 336 -18v-1708h-211v907q-62 -10 -141 -10q-218 0 -348.5 107t-130.5 305zM252 1182q0 -114 71.5 -174t202.5 -60q61 0 129 10v449q-61 6 -129 6q-135 0 -204.5 -62t-69.5 -169zM997 -131v1708h213v-1708h-213z" />
<glyph unicode="&#xb7;" horiz-adv-x="612" d="M147 729q0 69 45 113.5t115 44.5q67 0 112.5 -45t45.5 -113t-44.5 -112t-113.5 -44q-68 0 -114 44.5t-46 111.5z" />
<glyph unicode="&#xb8;" horiz-adv-x="641" d="M61 -469l58 143q79 -28 145 -28q111 0 111 69q0 83 -221 86l73 199h166l-37 -111q104 -3 164 -51t60 -135q0 -95 -80 -155t-219 -60q-133 0 -220 43z" />
<glyph unicode="&#xb9;" horiz-adv-x="921" d="M156 1262l305 172h143v-717h162v-152h-543v152h193v506l-180 -99z" />
<glyph unicode="&#xba;" d="M217 1055q0 178 112.5 285.5t284.5 107.5q174 0 286 -109t112 -284q0 -176 -113 -284.5t-285 -108.5q-174 0 -285.5 109.5t-111.5 283.5zM260 270v185h709v-185h-709zM414 1055q0 -100 56 -165t144 -65q93 0 147 62.5t54 167.5q0 100 -56.5 164.5t-144.5 64.5 q-93 0 -146.5 -61.5t-53.5 -167.5z" />
<glyph unicode="&#xbb;" horiz-adv-x="1165" d="M137 379l283 326l-283 325l146 125l323 -399v-103l-323 -399zM559 379l283 326l-283 325l148 125l321 -399v-103l-321 -399z" />
<glyph unicode="&#xbc;" horiz-adv-x="2226" d="M156 1262l305 172h143v-717h162v-152h-543v152h193v506l-180 -99zM614 2l895 1520l144 -90l-895 -1520zM1417 170v123l295 590l168 -62l-242 -497h191l24 223h154v-223h107v-154h-107v-170h-178v170h-412z" />
<glyph unicode="&#xbd;" horiz-adv-x="2226" d="M156 1262l305 172h143v-717h162v-152h-543v152h193v506l-180 -99zM614 2l895 1520l144 -90l-895 -1520zM1456 78q0 66 23 124t59.5 100.5t81 80t89 69t81 59.5t59.5 59.5t23 62.5q0 45 -30.5 71.5t-86.5 26.5q-103 0 -199 -80l-96 117q136 115 307 115q134 0 219 -70 t85 -172q0 -47 -19.5 -89t-51 -73.5t-70 -61t-79 -58t-75.5 -58t-61.5 -67t-35.5 -78.5h398v-156h-615q-6 40 -6 78z" />
<glyph unicode="&#xbe;" horiz-adv-x="2226" d="M141 633l78 125q95 -53 201 -53q77 0 120.5 29.5t43.5 86.5q0 61 -47 93t-138 32h-104v139h98q164 0 164 111q0 50 -37 76t-100 26q-93 0 -191 -53l-79 123q133 80 284 80q145 0 231.5 -69t86.5 -167q0 -132 -140 -186q166 -52 166 -205q0 -116 -93 -193t-261 -77 q-172 0 -283 82zM614 2l895 1520l144 -90l-895 -1520zM1417 170v123l295 590l168 -62l-242 -497h191l24 223h154v-223h107v-154h-107v-170h-178v170h-412z" />
<glyph unicode="&#xbf;" horiz-adv-x="1009" d="M92 -143q0 68 22 124.5t56.5 96.5t77 75.5t84.5 68.5t76.5 67.5t56.5 80.5t22 101v86h189q22 -61 22 -139q0 -59 -20 -110.5t-52.5 -89t-71.5 -71t-78 -64t-71.5 -61t-52.5 -68.5t-20 -81q0 -68 48 -108.5t132 -40.5q79 0 140.5 35.5t119.5 107.5l156 -125 q-86 -107 -190.5 -162t-243.5 -55q-176 0 -289 96t-113 236zM418 874q0 69 45 113.5t115 44.5q67 0 112 -44t45 -111q0 -69 -44 -113.5t-113 -44.5q-68 0 -114 44t-46 111z" />
<glyph unicode="&#xc0;" horiz-adv-x="1384" d="M16 61l555 1373h250l547 -1373l-219 -81l-152 393h-620l-152 -393zM449 569h475l-232 641zM455 1755l98 201l424 -275l-82 -143z" />
<glyph unicode="&#xc1;" horiz-adv-x="1384" d="M16 61l555 1373h250l547 -1373l-219 -81l-152 393h-620l-152 -393zM414 1681l422 275l100 -201l-440 -217zM449 569h475l-232 641z" />
<glyph unicode="&#xc2;" horiz-adv-x="1384" d="M16 61l555 1373h250l547 -1373l-219 -81l-152 393h-620l-152 -393zM309 1688l301 184h168l303 -184l-104 -150l-283 182l-282 -182zM449 569h475l-232 641z" />
<glyph unicode="&#xc3;" horiz-adv-x="1384" d="M16 61l555 1373h250l547 -1373l-219 -81l-152 393h-620l-152 -393zM324 1700q60 75 114 112t121 37q51 0 98 -23t87 -46t73 -23q28 0 55.5 14t44 29t41.5 41l109 -121q-59 -76 -112.5 -113.5t-118.5 -37.5q-41 0 -80.5 14.5t-64 31.5t-55.5 31.5t-58 14.5q-29 0 -58 -14 t-45.5 -28t-42.5 -40zM449 569h475l-232 641z" />
<glyph unicode="&#xc4;" horiz-adv-x="1384" d="M16 61l555 1373h250l547 -1373l-219 -81l-152 393h-620l-152 -393zM348 1720q0 62 40.5 102t103.5 40q60 0 100.5 -40.5t40.5 -101.5q0 -62 -39 -101.5t-102 -39.5q-61 0 -102.5 40t-41.5 101zM449 569h475l-232 641zM756 1720q0 62 39 102t102 40q60 0 101.5 -40.5 t41.5 -101.5q0 -62 -40 -101.5t-103 -39.5q-60 0 -100.5 40t-40.5 101z" />
<glyph unicode="&#xc5;" horiz-adv-x="1384" d="M16 61l516 1274q-53 36 -83.5 92.5t-30.5 124.5q0 115 79 190t197 75t198.5 -75.5t80.5 -189.5q0 -67 -30.5 -123t-82.5 -92l508 -1276l-219 -81l-152 393h-620l-152 -393zM449 569h475l-232 641zM602 1552q0 -51 25.5 -84.5t66.5 -33.5q42 0 67 31t25 87q0 52 -25 84.5 t-67 32.5t-67 -30t-25 -87z" />
<glyph unicode="&#xc6;" horiz-adv-x="1839" d="M-4 100l838 1334h921v-201h-592v-391h500v-195h-500v-446h592v-201h-829v373h-494l-242 -396zM549 569h377v627z" />
<glyph unicode="&#xc7;" horiz-adv-x="1208" d="M92 711q0 220 83 389t238 263.5t359 94.5q198 0 369 -88l-72 -184q-74 35 -140.5 52t-152.5 17q-198 0 -317 -141.5t-119 -394.5q0 -250 116 -395.5t314 -145.5q92 0 164.5 21t157.5 63l69 -182q-159 -92 -352 -103l-29 -88q104 -3 164 -51t60 -135q0 -95 -80 -155 t-219 -60q-133 0 -220 43l58 143q79 -28 145 -28q111 0 111 69q0 83 -221 86l67 183q-254 36 -403.5 229t-149.5 498z" />
<glyph unicode="&#xc8;" horiz-adv-x="1146" d="M174 0v1434h887v-201h-649v-391h559v-195h-559v-446h649v-201h-887zM397 1755l99 201l424 -275l-82 -143z" />
<glyph unicode="&#xc9;" horiz-adv-x="1146" d="M174 0v1434h887v-201h-649v-391h559v-195h-559v-446h649v-201h-887zM356 1681l422 275l101 -201l-441 -217z" />
<glyph unicode="&#xca;" horiz-adv-x="1146" d="M174 0v1434h887v-201h-649v-391h559v-195h-559v-446h649v-201h-887zM252 1688l301 184h168l303 -184l-104 -150l-283 182l-283 -182z" />
<glyph unicode="&#xcb;" horiz-adv-x="1146" d="M174 0v1434h887v-201h-649v-391h559v-195h-559v-446h649v-201h-887zM291 1720q0 62 40 102t103 40q60 0 100.5 -40.5t40.5 -101.5q0 -62 -39 -101.5t-102 -39.5q-61 0 -102 40t-41 101zM698 1720q0 62 39.5 102t102.5 40q60 0 101.5 -40.5t41.5 -101.5q0 -62 -40 -101.5 t-103 -39.5q-60 0 -101 40t-41 101z" />
<glyph unicode="&#xcc;" horiz-adv-x="587" d="M53 1755l99 201l423 -275l-81 -143zM174 0v1434h238v-1434h-238z" />
<glyph unicode="&#xcd;" horiz-adv-x="587" d="M12 1681l422 275l101 -201l-441 -217zM174 0v1434h238v-1434h-238z" />
<glyph unicode="&#xce;" horiz-adv-x="587" d="M-92 1688l301 184h168l303 -184l-105 -150l-282 182l-283 -182zM174 0v1434h238v-1434h-238z" />
<glyph unicode="&#xcf;" horiz-adv-x="587" d="M-51 1720q0 62 40 102t103 40q60 0 100.5 -40.5t40.5 -101.5q0 -62 -39 -101.5t-102 -39.5q-61 0 -102 40t-41 101zM174 0v1434h238v-1434h-238zM356 1720q0 62 39.5 102t102.5 40q60 0 101.5 -40.5t41.5 -101.5q0 -62 -40 -101.5t-103 -39.5q-60 0 -101 40t-41 101z" />
<glyph unicode="&#xd0;" horiz-adv-x="1429" d="M47 631v186h158v606q224 27 393 27q151 0 274 -37.5t208.5 -104t144 -159t85.5 -200.5t27 -230q0 -158 -45.5 -290t-135.5 -232.5t-236 -156.5t-336 -56q-201 0 -379 28v619h-158zM444 193q101 -9 164 -9q237 0 359.5 141t122.5 394q0 116 -28.5 212t-85.5 168t-149 112 t-211 40q-97 0 -172 -10v-424h340v-186h-340v-438z" />
<glyph unicode="&#xd1;" horiz-adv-x="1449" d="M174 0v1434h307l568 -1133v1133h227v-1434h-307l-568 1128v-1128h-227zM369 1700q60 75 114 112t121 37q51 0 98 -23t87 -46t73 -23q40 0 72 22t70 62l108 -121q-59 -76 -112.5 -113.5t-118.5 -37.5q-41 0 -80.5 14.5t-64 31.5t-55.5 31.5t-58 14.5q-29 0 -58 -14 t-45.5 -28t-42.5 -40z" />
<glyph unicode="&#xd2;" horiz-adv-x="1556" d="M92 719q0 212 80.5 378.5t237.5 263.5t368 97q157 0 287 -58t217 -158t134.5 -235.5t47.5 -289.5q0 -156 -47.5 -291.5t-134 -235.5t-216.5 -157.5t-288 -57.5t-288.5 58t-217 159t-133.5 236.5t-47 290.5zM340 719q0 -109 29.5 -206.5t83.5 -172.5t138.5 -119.5 t186.5 -44.5q141 0 241.5 70.5t149 191t48.5 279.5q0 145 -50.5 266.5t-152 197.5t-236.5 76q-137 0 -237.5 -70t-150.5 -190.5t-50 -277.5zM539 1755l98 201l424 -275l-82 -143z" />
<glyph unicode="&#xd3;" horiz-adv-x="1556" d="M92 719q0 212 80.5 378.5t237.5 263.5t368 97q157 0 287 -58t217 -158t134.5 -235.5t47.5 -289.5q0 -156 -47.5 -291.5t-134 -235.5t-216.5 -157.5t-288 -57.5t-288.5 58t-217 159t-133.5 236.5t-47 290.5zM340 719q0 -109 29.5 -206.5t83.5 -172.5t138.5 -119.5 t186.5 -44.5q141 0 241.5 70.5t149 191t48.5 279.5q0 145 -50.5 266.5t-152 197.5t-236.5 76q-137 0 -237.5 -70t-150.5 -190.5t-50 -277.5zM498 1681l422 275l100 -201l-440 -217z" />
<glyph unicode="&#xd4;" horiz-adv-x="1556" d="M92 719q0 212 80.5 378.5t237.5 263.5t368 97q157 0 287 -58t217 -158t134.5 -235.5t47.5 -289.5q0 -156 -47.5 -291.5t-134 -235.5t-216.5 -157.5t-288 -57.5t-288.5 58t-217 159t-133.5 236.5t-47 290.5zM340 719q0 -109 29.5 -206.5t83.5 -172.5t138.5 -119.5 t186.5 -44.5q141 0 241.5 70.5t149 191t48.5 279.5q0 145 -50.5 266.5t-152 197.5t-236.5 76q-137 0 -237.5 -70t-150.5 -190.5t-50 -277.5zM393 1688l301 184h168l303 -184l-104 -150l-283 182l-282 -182z" />
<glyph unicode="&#xd5;" horiz-adv-x="1556" d="M92 719q0 212 80.5 378.5t237.5 263.5t368 97q157 0 287 -58t217 -158t134.5 -235.5t47.5 -289.5q0 -156 -47.5 -291.5t-134 -235.5t-216.5 -157.5t-288 -57.5t-288.5 58t-217 159t-133.5 236.5t-47 290.5zM340 719q0 -109 29.5 -206.5t83.5 -172.5t138.5 -119.5 t186.5 -44.5q141 0 241.5 70.5t149 191t48.5 279.5q0 145 -50.5 266.5t-152 197.5t-236.5 76q-137 0 -237.5 -70t-150.5 -190.5t-50 -277.5zM406 1700q60 75 114 112t121 37q51 0 98 -23t87 -46t73 -23q28 0 55.5 14t44 29t41.5 41l109 -121q-59 -76 -112.5 -113.5 t-118.5 -37.5q-52 0 -99.5 23t-87 46t-72.5 23q-29 0 -58 -14t-45 -28t-42 -40z" />
<glyph unicode="&#xd6;" horiz-adv-x="1556" d="M92 719q0 212 80.5 378.5t237.5 263.5t368 97q157 0 287 -58t217 -158t134.5 -235.5t47.5 -289.5q0 -156 -47.5 -291.5t-134 -235.5t-216.5 -157.5t-288 -57.5t-288.5 58t-217 159t-133.5 236.5t-47 290.5zM340 719q0 -109 29.5 -206.5t83.5 -172.5t138.5 -119.5 t186.5 -44.5q141 0 241.5 70.5t149 191t48.5 279.5q0 145 -50.5 266.5t-152 197.5t-236.5 76q-137 0 -237.5 -70t-150.5 -190.5t-50 -277.5zM432 1720q0 62 40 102t103 40q60 0 101 -40.5t41 -101.5q0 -62 -39.5 -101.5t-102.5 -39.5q-61 0 -102 40t-41 101zM840 1720 q0 62 39 102t102 40q60 0 101.5 -40.5t41.5 -101.5q0 -62 -40 -101.5t-103 -39.5q-60 0 -100.5 40t-40.5 101z" />
<glyph unicode="&#xd7;" d="M201 428l282 277l-282 278l139 137l274 -282l275 282l139 -137l-280 -278l280 -277l-139 -135l-275 278l-274 -278z" />
<glyph unicode="&#xd8;" horiz-adv-x="1554" d="M92 719q0 158 47 293.5t133.5 234.5t216 155t287.5 56q132 0 244 -41l102 244l195 -92l-133 -240q133 -99 205.5 -260t72.5 -352q0 -156 -47.5 -291.5t-134 -235.5t-216.5 -157.5t-288 -57.5q-120 0 -223 35l-107 -252l-194 92l135 242q-141 100 -218 264.5t-77 362.5z M338 719q0 -288 154 -436l448 946q-73 28 -164 28q-137 0 -237.5 -70t-150.5 -190.5t-50 -277.5zM631 199q71 -23 145 -23q213 0 327 149t114 392q0 277 -140 420z" />
<glyph unicode="&#xd9;" horiz-adv-x="1396" d="M154 508v926h237v-922q0 -157 80 -245.5t229 -88.5q151 0 231.5 88.5t80.5 245.5v922h231v-924q0 -250 -147.5 -392.5t-395.5 -142.5q-251 0 -398.5 140.5t-147.5 392.5zM457 1755l98 201l424 -275l-82 -143z" />
<glyph unicode="&#xda;" horiz-adv-x="1396" d="M154 508v926h237v-922q0 -157 80 -245.5t229 -88.5q151 0 231.5 88.5t80.5 245.5v922h231v-924q0 -250 -147.5 -392.5t-395.5 -142.5q-251 0 -398.5 140.5t-147.5 392.5zM416 1681l422 275l100 -201l-440 -217z" />
<glyph unicode="&#xdb;" horiz-adv-x="1396" d="M154 508v926h237v-922q0 -157 80 -245.5t229 -88.5q151 0 231.5 88.5t80.5 245.5v922h231v-924q0 -250 -147.5 -392.5t-395.5 -142.5q-251 0 -398.5 140.5t-147.5 392.5zM311 1688l301 184h168l303 -184l-104 -150l-283 182l-282 -182z" />
<glyph unicode="&#xdc;" horiz-adv-x="1396" d="M154 508v926h237v-922q0 -157 80 -245.5t229 -88.5q151 0 231.5 88.5t80.5 245.5v922h231v-924q0 -250 -147.5 -392.5t-395.5 -142.5q-251 0 -398.5 140.5t-147.5 392.5zM352 1720q0 62 40.5 102t103.5 40q60 0 100.5 -40.5t40.5 -101.5q0 -62 -39 -101.5t-102 -39.5 q-61 0 -102.5 40t-41.5 101zM760 1720q0 62 39 102t102 40q60 0 101.5 -40.5t41.5 -101.5q0 -62 -40 -101.5t-103 -39.5q-60 0 -100.5 40t-40.5 101z" />
<glyph unicode="&#xdd;" horiz-adv-x="1273" d="M16 1339l207 115l420 -706l420 700l194 -109l-499 -794v-545h-238v545zM356 1681l422 275l101 -201l-441 -217z" />
<glyph unicode="&#xde;" horiz-adv-x="1204" d="M174 0v1434h238v-232q110 8 182 8q261 0 418 -128.5t157 -336.5q0 -158 -79 -270.5t-215 -167.5t-314 -55q-79 0 -149 6v-258h-238zM412 455q92 -9 163 -9q169 0 262 75.5t93 213.5q0 132 -91 206.5t-253 74.5q-101 0 -174 -8v-553z" />
<glyph unicode="&#xdf;" horiz-adv-x="1273" d="M14 868l54 197q109 0 159 -84q-9 273 112.5 416t344.5 143q190 0 310 -114.5t120 -278.5q0 -241 -235 -326q155 -40 239 -141.5t84 -257.5q0 -201 -129.5 -324t-345.5 -123q-136 0 -223 43l51 177q79 -29 158 -29q120 0 189 65.5t69 188.5q0 139 -95 218t-268 79v174 q147 0 214 61.5t67 182.5q0 102 -55.5 160.5t-153.5 58.5q-136 0 -203 -102t-67 -339v-1364h-226v1133q0 186 -170 186z" />
<glyph unicode="&#xe0;" horiz-adv-x="1251" d="M82 526q0 157 65.5 286.5t180 203.5t252.5 74q175 0 292 -127v102h195v-780q0 -121 123 -121l-47 -174q-202 0 -256 147q-135 -162 -330 -162q-93 0 -178 38.5t-151.5 107.5t-106 174.5t-39.5 230.5zM313 532q0 -168 76.5 -265t208.5 -97q140 0 244 104v545 q-108 80 -236 80q-135 0 -214 -99.5t-79 -267.5zM367 1417l98 201l424 -275l-82 -143z" />
<glyph unicode="&#xe1;" horiz-adv-x="1251" d="M82 526q0 157 65.5 286.5t180 203.5t252.5 74q175 0 292 -127v102h195v-780q0 -121 123 -121l-47 -174q-202 0 -256 147q-135 -162 -330 -162q-93 0 -178 38.5t-151.5 107.5t-106 174.5t-39.5 230.5zM313 532q0 -168 76.5 -265t208.5 -97q140 0 244 104v545 q-108 80 -236 80q-135 0 -214 -99.5t-79 -267.5zM358 1343l422 275l101 -201l-441 -217z" />
<glyph unicode="&#xe2;" horiz-adv-x="1251" d="M82 526q0 157 65.5 286.5t180 203.5t252.5 74q175 0 292 -127v102h195v-780q0 -121 123 -121l-47 -174q-202 0 -256 147q-135 -162 -330 -162q-93 0 -178 38.5t-151.5 107.5t-106 174.5t-39.5 230.5zM238 1329l301 209h168l303 -209l-115 -145l-272 205l-269 -205z M313 532q0 -168 76.5 -265t208.5 -97q140 0 244 104v545q-108 80 -236 80q-135 0 -214 -99.5t-79 -267.5z" />
<glyph unicode="&#xe3;" horiz-adv-x="1251" d="M82 526q0 157 65.5 286.5t180 203.5t252.5 74q175 0 292 -127v102h195v-780q0 -121 123 -121l-47 -174q-202 0 -256 147q-135 -162 -330 -162q-93 0 -178 38.5t-151.5 107.5t-106 174.5t-39.5 230.5zM250 1352q60 75 114 112t121 37q51 0 98 -23t87 -46t73 -23 q40 0 72 22t70 62l108 -121q-59 -76 -112.5 -113.5t-118.5 -37.5q-41 0 -80.5 14.5t-64 31.5t-55.5 31.5t-58 14.5q-29 0 -58 -14t-45.5 -28t-42.5 -40zM313 532q0 -168 76.5 -265t208.5 -97q140 0 244 104v545q-108 80 -236 80q-135 0 -214 -99.5t-79 -267.5z" />
<glyph unicode="&#xe4;" horiz-adv-x="1251" d="M82 526q0 157 65.5 286.5t180 203.5t252.5 74q175 0 292 -127v102h195v-780q0 -121 123 -121l-47 -174q-202 0 -256 147q-135 -162 -330 -162q-93 0 -178 38.5t-151.5 107.5t-106 174.5t-39.5 230.5zM279 1372q0 62 40 101.5t103 39.5q60 0 100.5 -40t40.5 -101 q0 -62 -39 -101.5t-102 -39.5q-61 0 -102 40t-41 101zM313 532q0 -168 76.5 -265t208.5 -97q140 0 244 104v545q-108 80 -236 80q-135 0 -214 -99.5t-79 -267.5zM686 1372q0 62 39 101.5t102 39.5q61 0 102.5 -40t41.5 -101q0 -62 -40.5 -101.5t-103.5 -39.5 q-60 0 -100.5 40t-40.5 101z" />
<glyph unicode="&#xe5;" horiz-adv-x="1251" d="M82 526q0 157 65.5 286.5t180 203.5t252.5 74q175 0 292 -127v102h195v-780q0 -121 123 -121l-47 -174q-202 0 -256 147q-135 -162 -330 -162q-93 0 -178 38.5t-151.5 107.5t-106 174.5t-39.5 230.5zM313 532q0 -168 76.5 -265t208.5 -97q140 0 244 104v545 q-108 80 -236 80q-135 0 -214 -99.5t-79 -267.5zM346 1454q0 115 79.5 189.5t197.5 74.5t198 -75t80 -189t-80 -189t-198 -75t-197.5 74.5t-79.5 189.5zM530 1454q0 -51 26 -85t67 -34q42 0 67 31.5t25 87.5q0 52 -25 84.5t-67 32.5q-43 0 -68 -30t-25 -87z" />
<glyph unicode="&#xe6;" horiz-adv-x="1787" d="M72 315q0 162 121 256.5t311 94.5q123 0 270 -35q-20 134 -97.5 203t-203.5 69q-118 0 -244 -57l-45 178q155 66 310 66q285 0 397 -230q127 230 375 230q141 0 245 -69t154.5 -180t50.5 -247q0 -87 -8 -150h-704q21 -132 100 -205t209 -73q124 0 274 61l60 -170 q-167 -82 -344 -82q-293 0 -426 234q-76 -115 -176 -174.5t-244 -59.5q-170 0 -277.5 94.5t-107.5 245.5zM297 324q0 -75 52 -116.5t132 -41.5q110 0 194 77t103 218q-139 33 -254 33q-105 0 -166 -44.5t-61 -125.5zM997 616h504q-1 138 -65 212.5t-176 74.5 q-106 0 -174 -70.5t-89 -216.5z" />
<glyph unicode="&#xe7;" horiz-adv-x="976" d="M80 532q0 115 36.5 216.5t103.5 177.5t168.5 120t223.5 44q172 0 316 -86l-70 -175q-121 64 -229 64q-143 0 -231.5 -94.5t-88.5 -261.5q0 -168 85.5 -266.5t232.5 -98.5q69 0 119.5 16t115.5 50l66 -175q-126 -73 -260 -86l-29 -88q104 -3 163.5 -51t59.5 -135 q0 -95 -80 -155t-219 -60q-132 0 -219 43l57 143q79 -28 146 -28q110 0 110 69q0 83 -221 86l68 183q-197 32 -310.5 180t-113.5 368z" />
<glyph unicode="&#xe8;" horiz-adv-x="1105" d="M72 532q0 159 60.5 285.5t173 199.5t257.5 73q112 0 202.5 -39.5t148 -108t88 -157.5t30.5 -191q0 -80 -6 -150h-725q19 -131 100 -203.5t220 -72.5q78 0 141.5 15t140.5 48l62 -174q-167 -82 -355 -82q-251 0 -394.5 150.5t-143.5 406.5zM297 618h520q-1 135 -68 210 t-182 75q-113 0 -183 -71.5t-87 -213.5zM315 1417l99 201l424 -275l-82 -143z" />
<glyph unicode="&#xe9;" horiz-adv-x="1105" d="M72 532q0 159 60.5 285.5t173 199.5t257.5 73q112 0 202.5 -39.5t148 -108t88 -157.5t30.5 -191q0 -80 -6 -150h-725q19 -131 100 -203.5t220 -72.5q78 0 141.5 15t140.5 48l62 -174q-167 -82 -355 -82q-251 0 -394.5 150.5t-143.5 406.5zM297 618h520q-1 135 -68 210 t-182 75q-113 0 -183 -71.5t-87 -213.5zM307 1343l422 275l100 -201l-440 -217z" />
<glyph unicode="&#xea;" horiz-adv-x="1105" d="M72 532q0 159 60.5 285.5t173 199.5t257.5 73q112 0 202.5 -39.5t148 -108t88 -157.5t30.5 -191q0 -80 -6 -150h-725q19 -131 100 -203.5t220 -72.5q78 0 141.5 15t140.5 48l62 -174q-167 -82 -355 -82q-251 0 -394.5 150.5t-143.5 406.5zM188 1329l301 209h168l304 -209 l-115 -145l-273 205l-268 -205zM297 618h520q-1 135 -68 210t-182 75q-113 0 -183 -71.5t-87 -213.5z" />
<glyph unicode="&#xeb;" horiz-adv-x="1105" d="M72 532q0 159 60.5 285.5t173 199.5t257.5 73q112 0 202.5 -39.5t148 -108t88 -157.5t30.5 -191q0 -80 -6 -150h-725q19 -131 100 -203.5t220 -72.5q78 0 141.5 15t140.5 48l62 -174q-167 -82 -355 -82q-251 0 -394.5 150.5t-143.5 406.5zM227 1372q0 62 40.5 101.5 t103.5 39.5q60 0 100.5 -40t40.5 -101q0 -62 -39 -101.5t-102 -39.5q-61 0 -102.5 40t-41.5 101zM297 618h520q-1 135 -68 210t-182 75q-113 0 -183 -71.5t-87 -213.5zM635 1372q0 62 39 101.5t102 39.5q61 0 102.5 -40t41.5 -101q0 -62 -40.5 -101.5t-103.5 -39.5 q-60 0 -100.5 40t-40.5 101z" />
<glyph unicode="&#xec;" horiz-adv-x="532" d="M8 1417l98 201l424 -275l-81 -143zM154 0v1065h225v-1065h-225z" />
<glyph unicode="&#xed;" horiz-adv-x="532" d="M0 1343l422 275l100 -201l-440 -217zM154 0v1065h225v-1065h-225z" />
<glyph unicode="&#xee;" horiz-adv-x="532" d="M-119 1329l301 209h168l303 -209l-114 -145l-273 205l-268 -205zM154 0v1065h225v-1065h-225z" />
<glyph unicode="&#xef;" horiz-adv-x="532" d="M-80 1372q0 62 40 101.5t103 39.5q60 0 101 -40t41 -101q0 -62 -39.5 -101.5t-102.5 -39.5q-61 0 -102 40t-41 101zM154 0v1065h225v-1065h-225zM328 1372q0 62 39 101.5t102 39.5q61 0 102 -40t41 -101q0 -62 -40 -101.5t-103 -39.5q-60 0 -100.5 40t-40.5 101z" />
<glyph unicode="&#xf0;" horiz-adv-x="1118" d="M72 432q0 103 36 191t96.5 146.5t139.5 91t164 32.5q190 0 313 -150q-4 143 -53.5 255.5t-134.5 179.5l-123 -164l-141 112l123 129q-71 35 -201 35q-43 0 -80 -6v195q37 6 96 6q166 0 318 -68l129 174l139 -114l-129 -142q134 -102 208.5 -266.5t74.5 -386.5 q0 -335 -137 -521t-384 -186q-121 0 -223 52.5t-166.5 158.5t-64.5 246zM297 440q0 -126 67 -198t171 -72q124 0 194.5 92.5t87.5 298.5q-114 146 -272 146q-108 0 -178 -71t-70 -196z" />
<glyph unicode="&#xf1;" horiz-adv-x="1210" d="M154 0v1065h200v-174q64 96 148 147.5t205 51.5q173 0 266.5 -110t93.5 -296v-684h-225v670q0 110 -48 168.5t-137 58.5q-149 0 -278 -182v-715h-225zM233 1352q60 74 114.5 111.5t121.5 37.5q51 0 98 -23t87 -46t73 -23q28 0 55.5 14t44 29t41.5 41l109 -121 q-59 -75 -113 -113t-119 -38q-41 0 -80.5 14.5t-64 31.5t-55.5 31.5t-58 14.5q-29 0 -58 -14t-45 -28t-42 -40z" />
<glyph unicode="&#xf2;" horiz-adv-x="1220" d="M72 532q0 126 41 231.5t113.5 177t171 110.5t212.5 39q236 0 387.5 -156t151.5 -402q0 -168 -71.5 -296t-193 -194.5t-274.5 -66.5q-236 0 -387 155.5t-151 401.5zM303 535q0 -158 85 -261.5t222 -103.5q145 0 227.5 96.5t82.5 263.5q0 158 -86.5 261.5t-223.5 103.5 q-144 0 -225.5 -96.5t-81.5 -263.5zM352 1417l99 201l423 -275l-81 -143z" />
<glyph unicode="&#xf3;" horiz-adv-x="1220" d="M72 532q0 126 41 231.5t113.5 177t171 110.5t212.5 39q236 0 387.5 -156t151.5 -402q0 -168 -71.5 -296t-193 -194.5t-274.5 -66.5q-236 0 -387 155.5t-151 401.5zM303 535q0 -158 85 -261.5t222 -103.5q145 0 227.5 96.5t82.5 263.5q0 158 -86.5 261.5t-223.5 103.5 q-144 0 -225.5 -96.5t-81.5 -263.5zM344 1343l422 275l100 -201l-440 -217z" />
<glyph unicode="&#xf4;" horiz-adv-x="1220" d="M72 532q0 126 41 231.5t113.5 177t171 110.5t212.5 39q236 0 387.5 -156t151.5 -402q0 -168 -71.5 -296t-193 -194.5t-274.5 -66.5q-236 0 -387 155.5t-151 401.5zM223 1329l301 209h168l303 -209l-114 -145l-273 205l-268 -205zM303 535q0 -158 85 -261.5t222 -103.5 q145 0 227.5 96.5t82.5 263.5q0 158 -86.5 261.5t-223.5 103.5q-144 0 -225.5 -96.5t-81.5 -263.5z" />
<glyph unicode="&#xf5;" horiz-adv-x="1220" d="M72 532q0 126 41 231.5t113.5 177t171 110.5t212.5 39q236 0 387.5 -156t151.5 -402q0 -168 -71.5 -296t-193 -194.5t-274.5 -66.5q-236 0 -387 155.5t-151 401.5zM236 1352q60 75 114 112t121 37q51 0 98 -23t87 -46t73 -23q28 0 55.5 14t44 29t41.5 41l109 -121 q-59 -76 -112.5 -113.5t-118.5 -37.5q-52 0 -99.5 23t-87 46t-72.5 23q-29 0 -58 -14t-45 -28t-42 -40zM303 535q0 -158 85 -261.5t222 -103.5q145 0 227.5 96.5t82.5 263.5q0 158 -86.5 261.5t-223.5 103.5q-144 0 -225.5 -96.5t-81.5 -263.5z" />
<glyph unicode="&#xf6;" horiz-adv-x="1220" d="M72 532q0 126 41 231.5t113.5 177t171 110.5t212.5 39q236 0 387.5 -156t151.5 -402q0 -168 -71.5 -296t-193 -194.5t-274.5 -66.5q-236 0 -387 155.5t-151 401.5zM264 1372q0 62 40.5 101.5t103.5 39.5q60 0 100.5 -40t40.5 -101q0 -62 -39 -101.5t-102 -39.5 q-61 0 -102.5 40t-41.5 101zM303 535q0 -158 85 -261.5t222 -103.5q145 0 227.5 96.5t82.5 263.5q0 158 -86.5 261.5t-223.5 103.5q-144 0 -225.5 -96.5t-81.5 -263.5zM672 1372q0 62 39 101.5t102 39.5q61 0 102 -40t41 -101q0 -62 -40 -101.5t-103 -39.5q-60 0 -100.5 40 t-40.5 101z" />
<glyph unicode="&#xf7;" d="M217 602v197h795v-197h-795zM457 270q0 69 44.5 113.5t114.5 44.5q67 0 112.5 -44.5t45.5 -111.5q0 -69 -44.5 -113t-113.5 -44q-68 0 -113.5 44t-45.5 111zM457 1135q0 69 44.5 113t114.5 44q67 0 112.5 -44t45.5 -111q0 -69 -44.5 -113.5t-113.5 -44.5 q-68 0 -113.5 44.5t-45.5 111.5z" />
<glyph unicode="&#xf8;" horiz-adv-x="1220" d="M72 532q0 126 41 231.5t113.5 177t171 110.5t212.5 39q83 0 166 -25l105 238l174 -89l-129 -225q104 -74 163.5 -192t59.5 -262q0 -251 -152.5 -405.5t-386.5 -154.5q-82 0 -159 25l-103 -231l-174 88l125 217q-105 74 -166 193.5t-61 264.5zM301 535q0 -191 96 -287 l303 639q-48 10 -90 10q-145 0 -227 -97t-82 -265zM526 178q45 -10 84 -10q146 0 228 99t82 268q0 185 -93 278z" />
<glyph unicode="&#xf9;" horiz-adv-x="1216" d="M143 373v692h226v-680q0 -215 188 -215q140 0 250 104v791h225v-764q0 -137 123 -137l-47 -174q-201 0 -254 151q-144 -166 -346 -166q-70 0 -133.5 23t-116 68.5t-84 124.5t-31.5 182zM336 1417l98 201l424 -275l-82 -143z" />
<glyph unicode="&#xfa;" horiz-adv-x="1216" d="M143 373v692h226v-680q0 -215 188 -215q140 0 250 104v791h225v-764q0 -137 123 -137l-47 -174q-201 0 -254 151q-144 -166 -346 -166q-70 0 -133.5 23t-116 68.5t-84 124.5t-31.5 182zM328 1343l422 275l100 -201l-440 -217z" />
<glyph unicode="&#xfb;" horiz-adv-x="1216" d="M143 373v692h226v-680q0 -215 188 -215q140 0 250 104v791h225v-764q0 -137 123 -137l-47 -174q-201 0 -254 151q-144 -166 -346 -166q-70 0 -133.5 23t-116 68.5t-84 124.5t-31.5 182zM207 1329l301 209h168l303 -209l-115 -145l-272 205l-268 -205z" />
<glyph unicode="&#xfc;" horiz-adv-x="1216" d="M143 373v692h226v-680q0 -215 188 -215q140 0 250 104v791h225v-764q0 -137 123 -137l-47 -174q-201 0 -254 151q-144 -166 -346 -166q-70 0 -133.5 23t-116 68.5t-84 124.5t-31.5 182zM248 1372q0 62 40 101.5t103 39.5q60 0 100.5 -40t40.5 -101q0 -62 -39 -101.5 t-102 -39.5q-61 0 -102 40t-41 101zM655 1372q0 62 39.5 101.5t102.5 39.5q61 0 102 -40t41 -101q0 -62 -40 -101.5t-103 -39.5q-60 0 -101 40t-41 101z" />
<glyph unicode="&#xfd;" horiz-adv-x="1085" d="M2 1004l205 79l366 -847l297 847l201 -79l-393 -1061q-45 -122 -95.5 -205t-108.5 -129t-119 -65t-138 -19q-125 0 -199 49l54 166q69 -27 139 -27q90 0 151 56t115 200l41 111h-94zM285 1343l422 275l100 -201l-440 -217z" />
<glyph unicode="&#xfe;" horiz-adv-x="1212" d="M154 -451v1885h225v-473q108 129 285 129q91 0 175 -37.5t149 -105.5t103.5 -173t38.5 -231q0 -124 -38.5 -231.5t-102.5 -180.5t-149 -114.5t-178 -41.5q-159 0 -283 121v-547h-225zM379 276q103 -106 239 -106q126 0 204.5 100.5t78.5 266.5q0 168 -78 265t-200 97 q-72 0 -138 -34t-106 -83v-506z" />
<glyph unicode="&#xff;" horiz-adv-x="1085" d="M2 1004l205 79l366 -847l297 847l201 -79l-393 -1061q-45 -122 -95.5 -205t-108.5 -129t-119 -65t-138 -19q-125 0 -199 49l54 166q69 -27 139 -27q90 0 151 56t115 200l41 111h-94zM203 1372q0 62 40 101.5t103 39.5q60 0 100.5 -40t40.5 -101q0 -62 -39 -101.5 t-102 -39.5q-61 0 -102 40t-41 101zM610 1372q0 62 39.5 101.5t102.5 39.5q61 0 102 -40t41 -101q0 -62 -40 -101.5t-103 -39.5q-60 0 -101 40t-41 101z" />
<glyph unicode="&#x152;" horiz-adv-x="1830" d="M92 719q0 212 80.5 378.5t237.5 263.5t368 97q111 0 228 -24h739v-201h-584v-391h496v-195h-496v-446h584v-201h-746q-131 -25 -221 -25q-158 0 -288.5 58t-217 159t-133.5 236.5t-47 290.5zM340 719q0 -109 29.5 -206.5t83.5 -172.5t138.5 -119.5t186.5 -44.5 q77 0 146 14v1051q-78 16 -146 16q-137 0 -237.5 -70t-150.5 -190.5t-50 -277.5z" />
<glyph unicode="&#x153;" horiz-adv-x="1914" d="M72 532q0 126 41.5 232t112.5 176.5t167 110t205 39.5q136 0 244 -61.5t172 -176.5q128 238 379 238q141 0 245 -69t154.5 -180t50.5 -247q0 -87 -8 -150h-702q19 -132 97.5 -204t209.5 -72t274 61l60 -172q-167 -82 -342 -82q-289 0 -422 232q-137 -232 -412 -232 q-226 0 -376 156t-150 401zM303 535q0 -158 84 -261.5t215 -103.5q139 0 219 96t80 264q0 159 -84 263t-215 104q-138 0 -218.5 -97.5t-80.5 -264.5zM1128 616h500q-1 136 -64.5 210.5t-172.5 74.5q-108 0 -177 -71.5t-86 -213.5z" />
<glyph unicode="&#x178;" horiz-adv-x="1273" d="M16 1339l207 115l420 -706l420 700l194 -109l-499 -794v-545h-238v545zM293 1720q0 62 40 102t103 40q60 0 101 -40.5t41 -101.5q0 -62 -39.5 -101.5t-102.5 -39.5q-61 0 -102 40t-41 101zM700 1720q0 62 39.5 102t102.5 40q60 0 101.5 -40.5t41.5 -101.5 q0 -62 -40 -101.5t-103 -39.5q-60 0 -101 40t-41 101z" />
<glyph unicode="&#x2c6;" horiz-adv-x="894" d="M61 1329l301 209h168l304 -209l-115 -145l-273 205l-268 -205z" />
<glyph unicode="&#x2dc;" horiz-adv-x="866" d="M61 1352q60 74 114.5 111.5t121.5 37.5q51 0 98 -23t87 -46t73 -23q28 0 55.5 14t44 29t41.5 41l109 -121q-59 -75 -113 -113t-119 -38q-41 0 -80.5 14.5t-64 31.5t-55.5 31.5t-58 14.5q-29 0 -58 -14t-45 -28t-42 -40z" />
<glyph unicode="&#x2000;" horiz-adv-x="978" />
<glyph unicode="&#x2001;" horiz-adv-x="1956" />
<glyph unicode="&#x2002;" horiz-adv-x="978" />
<glyph unicode="&#x2003;" horiz-adv-x="1956" />
<glyph unicode="&#x2004;" horiz-adv-x="652" />
<glyph unicode="&#x2005;" horiz-adv-x="489" />
<glyph unicode="&#x2006;" horiz-adv-x="326" />
<glyph unicode="&#x2007;" horiz-adv-x="326" />
<glyph unicode="&#x2008;" horiz-adv-x="244" />
<glyph unicode="&#x2009;" horiz-adv-x="391" />
<glyph unicode="&#x200a;" horiz-adv-x="108" />
<glyph unicode="&#x2010;" horiz-adv-x="1026" d="M154 602v197h718v-197h-718z" />
<glyph unicode="&#x2011;" horiz-adv-x="1026" d="M154 602v197h718v-197h-718z" />
<glyph unicode="&#x2012;" horiz-adv-x="1026" d="M154 602v197h718v-197h-718z" />
<glyph unicode="&#x2013;" horiz-adv-x="1263" d="M154 602v197h958v-197h-958z" />
<glyph unicode="&#x2014;" horiz-adv-x="1544" d="M154 602v197h1237v-197h-1237z" />
<glyph unicode="&#x2018;" horiz-adv-x="487" d="M82 1231q0 105 56.5 198.5t166.5 161.5l57 -84q-106 -93 -120 -192q79 4 121.5 -31t42.5 -102q0 -60 -42.5 -97.5t-111.5 -37.5q-75 0 -122.5 48t-47.5 136z" />
<glyph unicode="&#x2019;" horiz-adv-x="487" d="M82 1405q0 60 42 97.5t109 37.5q76 0 124.5 -48t48.5 -136q0 -105 -57 -199t-167 -162l-57 84q107 94 121 193q-79 -4 -121.5 31t-42.5 102z" />
<glyph unicode="&#x201a;" horiz-adv-x="487" d="M82 135q0 60 42 97.5t109 37.5q76 0 124.5 -48t48.5 -136q0 -105 -57 -198.5t-167 -159.5l-57 82q56 52 85 96t36 96q-79 -3 -121.5 32t-42.5 101z" />
<glyph unicode="&#x201c;" horiz-adv-x="892" d="M82 1231q0 105 56.5 198.5t166.5 161.5l57 -84q-106 -93 -120 -192q79 4 121.5 -31t42.5 -102q0 -60 -42.5 -97.5t-111.5 -37.5q-75 0 -122.5 48t-47.5 136zM487 1231q0 106 56.5 199.5t167.5 160.5l57 -84q-55 -48 -84.5 -93.5t-36.5 -98.5q79 4 121.5 -31t42.5 -102 q0 -60 -42.5 -97.5t-111.5 -37.5q-76 0 -123 48t-47 136z" />
<glyph unicode="&#x201d;" horiz-adv-x="888" d="M82 1405q0 60 42 97.5t109 37.5q76 0 124.5 -48t48.5 -136q0 -105 -57 -199t-167 -162l-57 84q107 94 121 193q-79 -4 -121.5 31t-42.5 102zM483 1405q0 60 42.5 97.5t111.5 37.5q76 0 123 -48t47 -136q0 -105 -56.5 -199.5t-166.5 -161.5l-58 84q107 94 121 193 q-79 -4 -121.5 31t-42.5 102z" />
<glyph unicode="&#x201e;" horiz-adv-x="888" d="M82 135q0 60 42 97.5t109 37.5q76 0 124.5 -48t48.5 -136q0 -105 -57 -198.5t-167 -161.5l-57 84q55 48 84.5 93.5t36.5 98.5q-79 -4 -121.5 31t-42.5 102zM483 135q0 60 42 97.5t110 37.5q76 0 124 -48t48 -136q0 -105 -56.5 -198.5t-166.5 -161.5l-58 84 q55 48 84.5 93.5t36.5 98.5q-79 -4 -121.5 31t-42.5 102z" />
<glyph unicode="&#x2022;" horiz-adv-x="927" d="M174 727q0 125 80.5 206t210.5 81q127 0 208 -81.5t81 -205.5q0 -125 -80 -206t-209 -81t-210 81.5t-81 205.5z" />
<glyph unicode="&#x2026;" horiz-adv-x="1841" d="M147 131q0 69 45 113.5t115 44.5q67 0 112.5 -44.5t45.5 -111.5q0 -69 -44.5 -113.5t-113.5 -44.5q-68 0 -114 44.5t-46 111.5zM762 131q0 69 45 113.5t115 44.5q66 0 111.5 -44.5t45.5 -111.5q0 -69 -44 -113.5t-113 -44.5q-68 0 -114 44.5t-46 111.5zM1376 131 q0 69 45 113.5t115 44.5q67 0 112.5 -44.5t45.5 -111.5q0 -69 -44.5 -113.5t-113.5 -44.5q-68 0 -114 44.5t-46 111.5z" />
<glyph unicode="&#x202f;" horiz-adv-x="391" />
<glyph unicode="&#x2039;" horiz-adv-x="743" d="M137 653v103l322 399l147 -125l-282 -325l282 -326l-147 -125z" />
<glyph unicode="&#x203a;" horiz-adv-x="743" d="M137 379l283 326l-283 325l146 125l323 -399v-103l-323 -399z" />
<glyph unicode="&#x205f;" horiz-adv-x="489" />
<glyph unicode="&#x20ac;" horiz-adv-x="1294" d="M96 465v172h172v123h-172v172h187q52 234 209.5 368t396.5 134q173 0 338 -86l-64 -172q-141 67 -270 67q-148 0 -246.5 -79.5t-134.5 -231.5h498v-172h-510v-123h469v-172h-447q37 -149 128.5 -224t223.5 -75q86 0 152.5 20.5t140.5 59.5l74 -166q-177 -105 -373 -105 q-228 0 -378 125.5t-205 364.5h-189z" />
<glyph unicode="&#x2122;" horiz-adv-x="1843" d="M96 1399v157h701v-157h-254v-682h-193v682h-254zM846 717v839h254l194 -473l189 473h254v-839h-191v579l-182 -417h-145l-189 421v-583h-184z" />
<glyph unicode="&#x25fc;" horiz-adv-x="1085" d="M0 0v1085h1085v-1085h-1085z" />
</font>
</defs>
</svg>
