<?xml version="1.0" standalone="no"?>
<!DOCTYPE svg PUBLIC "-//W3C//DTD SVG 1.1//EN" "http://www.w3.org/Graphics/SVG/1.1/DTD/svg11.dtd" >
<svg xmlns="http://www.w3.org/2000/svg">
<metadata></metadata>
<defs>
<font id="abezehbolditalic" horiz-adv-x="1409" >
<font-face units-per-em="2048" ascent="1638" descent="-410" />
<missing-glyph horiz-adv-x="614" />
<glyph unicode="&#xfb01;" horiz-adv-x="1230" d="M-291 -403l94 186q64 -37 129 -37q59 0 94 36.5t48 113.5l162 913h-162l37 217h163l29 164q64 350 430 350q203 0 387 -110l-102 -193q-73 38 -134 58t-132 20q-162 0 -187 -150l-24 -139h633l-183 -1026h-266l143 809h-366l-162 -924q-32 -185 -138 -272.5t-251 -87.5 q-143 0 -242 72z" />
<glyph unicode="&#xfb02;" horiz-adv-x="1366" d="M-291 -403l94 186q64 -37 129 -37q59 0 94 36.5t48 113.5l164 913h-164l39 217h163l29 164q33 181 141.5 265.5t290.5 84.5q229 0 473 -125l-180 -1028q-8 -36 -8 -70q0 -53 32.5 -84.5t88.5 -31.5q62 0 141 28l27 -206q-105 -48 -230 -48q-135 0 -231 79t-96 218 q0 47 10 119l158 903q-100 21 -168 21q-161 0 -189 -150l-22 -139h233l-92 -217h-180l-164 -924q-33 -185 -138.5 -272.5t-250.5 -87.5q-143 0 -242 72z" />
<glyph unicode="&#xfb03;" horiz-adv-x="1882" d="M-291 -403l94 186q64 -37 129 -37q59 0 94 36.5t48 113.5l162 913h-162l37 217h163l27 139q68 351 430 351q172 0 340 -84q111 108 315 108t388 -110l-103 -193q-73 38 -134 58t-132 20q-161 0 -186 -150l-25 -139h633l-2 -2l-180 -1024h-267l144 809h-367l-162 -924 q-32 -185 -138 -272.5t-251 -87.5q-143 0 -242 72l95 186q64 -37 129 -37q59 0 93.5 36t47.5 114l162 913h-162l37 217h164l28 164q5 32 19 72q-106 41 -217 41q-90 0 -136 -39t-61 -121l-20 -117h223l-39 -217h-223l-162 -924q-32 -185 -138 -272.5t-251 -87.5 q-143 0 -242 72z" />
<glyph unicode="&#xfb04;" horiz-adv-x="2017" d="M-291 -403l94 186q64 -37 129 -37q59 0 94 36.5t48 113.5l162 913h-162l37 217h163l27 139q68 351 430 351q168 0 340 -84q111 108 318 108q229 0 473 -125l-181 -1028q-8 -36 -8 -70q0 -53 32.5 -84.5t88.5 -31.5q62 0 141 28l27 -206q-105 -48 -229 -48 q-86 0 -159.5 32.5t-121 101.5t-47.5 163q0 47 10 119l158 903q-100 21 -168 21q-160 0 -188 -150l-23 -139h233l-92 -217h-180l-164 -924q-33 -185 -138.5 -272.5t-250.5 -87.5q-143 0 -242 72l95 186q64 -37 129 -37q59 0 93.5 36t47.5 114l164 913h-387l-162 -924 q-32 -185 -138 -272.5t-251 -87.5q-143 0 -242 72zM541 1026h387l28 164q3 18 17 72q-103 41 -215 41q-90 0 -136 -39t-61 -121z" />
<glyph horiz-adv-x="2048" />
<glyph horiz-adv-x="2048" />
<glyph unicode="&#xd;" horiz-adv-x="2048" />
<glyph unicode=" "  horiz-adv-x="614" />
<glyph unicode="&#x09;" horiz-adv-x="614" />
<glyph unicode="&#xa0;" horiz-adv-x="614" />
<glyph unicode="!" horiz-adv-x="675" d="M92 133q0 80 54.5 137.5t146.5 57.5q73 0 117.5 -44t44.5 -114q0 -80 -54.5 -137.5t-146.5 -57.5q-73 0 -117.5 44t-44.5 114zM219 475l53 477l97 541h278l-96 -541l-117 -477h-215z" />
<glyph unicode="&#x22;" horiz-adv-x="800" d="M168 913l70 521h249l-116 -521h-203zM563 913l68 521h252l-117 -521h-203z" />
<glyph unicode="#" horiz-adv-x="1388" d="M92 262l35 211h168l65 373h-176l37 211h176l47 262h244l-47 -262h281l47 262h245l-49 -262h178l-36 -211h-179l-63 -373h184l-37 -211h-184l-45 -262h-244l43 262h-280l-43 -262h-244l43 262h-166zM539 473h280l66 373h-281z" />
<glyph unicode="$" horiz-adv-x="1015" d="M-14 205l129 170q80 -60 164 -92.5t194 -32.5t173 45t63 131q0 68 -54 115t-198 98q-166 60 -242 141.5t-76 214.5q0 69 23.5 130t71 112.5t126 86.5t181.5 46l16 260h264l-73 -262q161 -21 309 -113l-111 -182q-142 92 -313 92q-115 0 -173.5 -40.5t-58.5 -110.5 q0 -42 17 -71t68 -60t147 -64q174 -63 257 -152.5t83 -226.5q0 -176 -122 -283.5t-345 -117.5l-19 -256h-262l74 272q-184 35 -313 150z" />
<glyph unicode="%" horiz-adv-x="2037" d="M141 893q0 113 29 212.5t83.5 176t139 121.5t189.5 45q146 0 228.5 -91t82.5 -251q0 -151 -49.5 -275.5t-151 -202t-239.5 -77.5q-147 0 -229.5 91t-82.5 251zM369 885q0 -162 100 -162q88 0 142.5 117t54.5 274q0 80 -26.5 121t-74.5 41q-88 0 -142 -116.5t-54 -274.5z M432 16l1139 1483l151 -106l-1136 -1485zM1178 328q0 113 29 212.5t83 176t138.5 121.5t189.5 45q146 0 228.5 -91t82.5 -251q0 -151 -49.5 -275.5t-151 -202t-239.5 -77.5q-147 0 -229 91t-82 251zM1405 319q0 -161 100 -161q59 0 104.5 57t68 145t22.5 189q0 162 -101 162 q-58 0 -103.5 -57t-68 -145.5t-22.5 -189.5z" />
<glyph unicode="&#x26;" horiz-adv-x="1527" d="M123 365q0 149 90.5 250t265.5 151q-227 82 -227 285q0 183 139.5 295t353.5 112q221 0 408 -127l-115 -192q-79 48 -143.5 71t-140.5 23q-99 0 -159 -52t-60 -139q0 -86 71.5 -138t206.5 -52h387q170 0 262 82l78 -197q-43 -56 -108 -81.5t-172 -26.5 q-44 -325 -211 -489.5t-451 -164.5q-206 0 -340.5 110t-134.5 280zM412 389q0 -87 56.5 -135.5t156.5 -48.5q150 0 246.5 107.5t123.5 316.5h-274q-139 0 -224 -64.5t-85 -175.5z" />
<glyph unicode="'" horiz-adv-x="405" d="M168 913l70 521h249l-116 -521h-203z" />
<glyph unicode="(" horiz-adv-x="641" d="M121 393q0 610 475 1168l145 -88q-183 -291 -271.5 -552t-88.5 -546q0 -176 17.5 -302t56.5 -270l-168 -67q-78 159 -122 317t-44 340z" />
<glyph unicode=")" horiz-adv-x="641" d="M-57 -174q182 291 271 552.5t89 543.5q0 173 -17.5 297.5t-56.5 275.5l168 66q77 -159 121.5 -317.5t44.5 -338.5q0 -611 -475 -1169z" />
<glyph unicode="*" horiz-adv-x="921" d="M213 1231l100 186l197 -135l16 242l211 -37l-69 -230l235 58l27 -209l-238 -8l129 -205l-192 -92l-80 225l-156 -182l-145 151l186 148z" />
<glyph unicode="+" horiz-adv-x="1228" d="M199 590l39 219h299l55 317h254l-55 -317h299l-39 -219h-299l-56 -318h-254l56 318h-299z" />
<glyph unicode="," horiz-adv-x="612" d="M-119 -258q116 107 185.5 216.5t119.5 268.5l240 -75q-52 -187 -152.5 -307.5t-281.5 -204.5z" />
<glyph unicode="-" horiz-adv-x="1019" d="M147 586l41 227h744l-41 -227h-744z" />
<glyph unicode="." horiz-adv-x="616" d="M61 133q0 80 54.5 137.5t144.5 57.5q74 0 119 -44t45 -114q0 -80 -54.5 -137.5t-146.5 -57.5q-73 0 -117.5 44t-44.5 114z" />
<glyph unicode="/" horiz-adv-x="921" d="M-31 -47l848 1628l203 -96l-848 -1628z" />
<glyph unicode="0" horiz-adv-x="1241" d="M111 520q0 143 23.5 275t74 249t123 203.5t178 136.5t231.5 50q209 0 331 -148.5t122 -396.5q0 -143 -23.5 -275t-73.5 -249t-123 -203.5t-178.5 -136.5t-232.5 -50q-209 0 -330.5 148.5t-121.5 396.5zM397 522q0 -313 185 -313q147 0 236 185.5t89 492.5q0 313 -184 313 q-149 0 -237.5 -185.5t-88.5 -492.5z" />
<glyph unicode="1" horiz-adv-x="974" d="M33 0l43 233h284l156 883l-295 -160l-84 197l492 256h215l-207 -1176h229l-43 -233h-790z" />
<glyph unicode="2" horiz-adv-x="1026" d="M2 106q0 95 26 179t70.5 147t102 118t121 99t127 84t121 78.5t102 76.5t70.5 83.5t26 95.5q0 65 -43.5 103t-122.5 38q-83 0 -149 -28t-136 -82l-122 180q189 156 436 156q187 0 303.5 -102t116.5 -255q0 -87 -38.5 -163t-101 -132.5t-138.5 -108t-154 -100t-145 -97.5 t-114.5 -111.5t-58.5 -131.5h606l-41 -233h-856q-8 44 -8 106z" />
<glyph unicode="3" horiz-adv-x="1052" d="M-31 121l137 178q71 -49 137.5 -72t155.5 -22q124 0 195.5 60t71.5 167q0 96 -62.5 145.5t-185.5 49.5h-146l35 211h111q147 0 231 52t84 154q0 78 -50.5 122t-139.5 44q-134 0 -277 -86l-90 189q176 121 404 121q196 0 317 -104.5t121 -264.5q0 -134 -85.5 -214.5 t-225.5 -105.5q112 -26 175.5 -103t63.5 -204q0 -210 -154.5 -336.5t-396.5 -126.5q-260 0 -426 146z" />
<glyph unicode="4" horiz-adv-x="1136" d="M57 289l33 188l565 948l222 -100l-474 -813h289l101 369h225l-64 -369h142l-39 -223h-144l-49 -289h-260l49 289h-596z" />
<glyph unicode="5" horiz-adv-x="1085" d="M2 115l135 188q140 -98 299 -98q125 0 200 66t75 182q0 94 -56.5 145t-167.5 51h-297l136 760h759l-36 -225h-504l-58 -312h74q208 0 325.5 -110t117.5 -291q1 -225 -160 -360.5t-416 -135.5q-133 0 -234.5 34.5t-191.5 105.5z" />
<glyph unicode="6" horiz-adv-x="1122" d="M86 483q0 191 59.5 360t168.5 296.5t273 201.5t361 74q88 0 152 -12l-35 -229q-47 12 -127 12q-426 0 -561 -436q122 155 325 155q169 0 276 -113.5t107 -299.5q0 -228 -144 -372.5t-380 -144.5q-210 0 -342.5 134t-132.5 374zM358 459q0 -122 54 -188t157 -66 q109 0 174.5 73.5t65.5 198.5q0 100 -47.5 156.5t-136.5 56.5q-76 0 -144 -41.5t-119 -113.5q-4 -35 -4 -76z" />
<glyph unicode="7" horiz-adv-x="1001" d="M131 1186l39 223h967l-33 -188q-119 -97 -204.5 -179t-155 -171t-115.5 -174t-84 -195t-62.5 -226.5t-48.5 -275.5h-295q49 303 126.5 511.5t197 365.5t311.5 309h-643z" />
<glyph unicode="8" horiz-adv-x="1177" d="M57 358q0 151 90.5 247.5t278.5 164.5q-95 64 -136.5 127.5t-41.5 165.5q0 161 135 266t332 105q188 0 306 -103.5t118 -247.5q0 -125 -70.5 -205t-214.5 -135q123 -60 184.5 -141.5t61.5 -195.5q0 -132 -75.5 -231.5t-200.5 -149.5t-279 -50q-209 0 -348.5 108 t-139.5 275zM332 381q0 -78 64.5 -129t166.5 -51q111 0 186.5 54.5t75.5 147.5q0 150 -215 234q-132 -32 -205 -96t-73 -160zM508 1057q0 -60 37.5 -104t120.5 -93q106 35 159.5 84.5t53.5 122.5q0 66 -47 110t-127 44q-85 0 -141 -43.5t-56 -120.5z" />
<glyph unicode="9" horiz-adv-x="1146" d="M49 137l162 166q54 -49 107.5 -73.5t125.5 -24.5q140 0 234 107t125 333q-120 -110 -291 -110q-100 0 -185 44.5t-138.5 133.5t-53.5 207q0 224 146.5 369t377.5 145q213 0 329 -128.5t116 -373.5q0 -291 -76.5 -506t-226.5 -333t-359 -118q-244 0 -393 162zM410 936 q0 -93 47 -140.5t129 -47.5q133 0 235 102q4 39 6 63.5t2 66.5t-5 69.5t-17 60.5t-32 53t-53 33.5t-77 13.5q-107 0 -171 -74.5t-64 -199.5z" />
<glyph unicode=":" horiz-adv-x="610" d="M61 133q0 80 54.5 137.5t146.5 57.5q73 0 117.5 -44t44.5 -114q0 -80 -54.5 -137.5t-146.5 -57.5q-73 0 -117.5 44t-44.5 114zM186 840q0 80 54.5 137t146.5 57q73 0 117.5 -43.5t44.5 -111.5q0 -82 -54.5 -139.5t-146.5 -57.5q-72 0 -117 45t-45 113z" />
<glyph unicode=";" horiz-adv-x="618" d="M-119 -258q116 107 185.5 216.5t119.5 268.5l240 -75q-52 -187 -152.5 -307.5t-281.5 -204.5zM184 840q0 80 54.5 137t146.5 57q74 0 119 -43.5t45 -111.5q0 -82 -54.5 -139.5t-146.5 -57.5q-73 0 -118.5 45t-45.5 113z" />
<glyph unicode="&#x3c;" horiz-adv-x="1228" d="M227 618l29 160l741 418l97 -221l-568 -293l463 -295l-151 -184z" />
<glyph unicode="=" horiz-adv-x="1228" d="M190 397l39 221h799l-37 -221h-801zM260 793l39 219h799l-37 -219h-801z" />
<glyph unicode="&#x3e;" horiz-adv-x="1228" d="M193 422l567 295l-463 295l154 184l608 -416l-27 -162l-743 -415z" />
<glyph unicode="?" horiz-adv-x="1015" d="M197 1339q178 201 450 201q176 0 285.5 -94t109.5 -240q0 -66 -20 -122t-53.5 -94.5t-76.5 -74.5t-88.5 -63.5t-90.5 -60.5t-81.5 -65.5t-62 -78.5t-32.5 -100l-11 -72h-213q-14 58 -14 115q0 69 25.5 128.5t66 102.5t89.5 80.5t97.5 70.5t89 65t66 71t25.5 82 q0 55 -38 89t-104 34q-72 0 -134 -31.5t-128 -95.5zM211 133q0 80 54.5 137.5t146.5 57.5q73 0 117 -44t44 -114q0 -80 -54 -137.5t-144 -57.5q-74 0 -119 44t-45 114z" />
<glyph unicode="@" horiz-adv-x="2150" d="M90 328q0 237 88 446.5t239.5 358.5t363 235t450.5 86q190 0 346.5 -59.5t259.5 -162.5t159 -240.5t56 -295.5q0 -173 -47.5 -313t-127 -227.5t-179 -134t-209.5 -46.5q-217 0 -254 187q-2 8 -2 28q-56 -94 -132.5 -142t-185.5 -48q-139 0 -241.5 104.5t-102.5 288.5 q0 174 80.5 312t223 214t319.5 76q158 0 350 -61l-117 -651q-4 -24 -4 -45q0 -80 93 -80q56 0 107 32.5t93 95.5t67 166.5t25 233.5q0 257 -157.5 408t-433.5 151q-184 0 -347.5 -70t-280 -190.5t-184 -288.5t-67.5 -356q0 -146 43 -261.5t120 -189.5t181.5 -112.5 t230.5 -38.5q150 0 273 30t246 85l45 -203q-259 -121 -572 -121q-173 0 -322 55t-258.5 156t-172 252.5t-62.5 335.5zM829 414q0 -103 39 -155t107 -52q87 0 151 67.5t91 202.5l55 305q-61 9 -101 9q-155 0 -248.5 -102t-93.5 -275z" />
<glyph unicode="A" d="M-57 111l772 1323h282l310 -1399l-265 -62l-77 383h-584l-211 -379zM502 584h420l-109 575z" />
<glyph unicode="B" horiz-adv-x="1275" d="M78 41l241 1374q198 43 412 43q125 0 226.5 -32.5t166 -86.5t99 -122.5t34.5 -143.5q0 -262 -319 -328q268 -74 268 -307q0 -90 -33.5 -165t-93 -129.5t-142.5 -93t-182 -57t-210 -18.5q-271 0 -467 66zM389 227q76 -18 182 -18q340 0 340 233q0 92 -64 143.5t-196 51.5 h-188zM502 850h180q142 0 216.5 53.5t74.5 149.5q0 178 -242 178q-99 0 -164 -12z" />
<glyph unicode="C" horiz-adv-x="1181" d="M96 582q0 186 55.5 346.5t157.5 278t253.5 184.5t334.5 67q215 0 377 -104l-111 -203q-137 72 -282 72q-222 0 -357 -172.5t-135 -446.5q0 -192 90.5 -291.5t255.5 -99.5q151 0 309 72l43 -222q-176 -88 -391 -88q-267 0 -433.5 165t-166.5 442z" />
<glyph unicode="D" horiz-adv-x="1398" d="M80 45l239 1368q212 45 408 45q156 0 279.5 -51t200.5 -139.5t117 -201.5t40 -243q0 -254 -100.5 -445.5t-293.5 -297t-454 -105.5q-223 0 -436 70zM393 225q75 -16 162 -16q238 0 376 160t138 438q0 210 -94 315t-262 105q-59 0 -148 -13z" />
<glyph unicode="E" horiz-adv-x="1138" d="M70 0l254 1434h913l-43 -234h-631l-59 -346h540l-38 -225h-541l-70 -396h631l-43 -233h-913z" />
<glyph unicode="F" horiz-adv-x="1095" d="M70 0l254 1434h903l-43 -234h-621l-63 -369h518l-39 -225h-520l-107 -606h-282z" />
<glyph unicode="G" horiz-adv-x="1398" d="M92 569q0 182 56.5 343.5t158.5 282.5t254 192t332 71q126 0 224.5 -32.5t193.5 -96.5l-125 -201q-72 47 -144.5 71t-164.5 24q-146 0 -257.5 -82t-172 -230.5t-60.5 -341.5q0 -169 69.5 -263.5t200.5 -94.5q120 0 205.5 74t110.5 223l14 80h-258l41 221h537l-80 -459 q-4 -28 -4 -47q0 -49 32.5 -74.5t90.5 -25.5l-97 -221q-114 0 -182 46.5t-68 149.5q0 13 2 25q-66 -115 -163 -171.5t-242 -56.5q-105 0 -197 41t-160.5 115.5t-107.5 187.5t-39 250z" />
<glyph unicode="H" horiz-adv-x="1454" d="M70 0l252 1434h282l-102 -578h565l102 578h281l-252 -1434h-280l108 623h-565l-109 -623h-282z" />
<glyph unicode="I" horiz-adv-x="608" d="M70 0l252 1434h282l-252 -1434h-282z" />
<glyph unicode="J" horiz-adv-x="915" d="M-96 113l133 178q59 -43 107.5 -62.5t115.5 -19.5q171 0 209 215l180 1010h283l-182 -1026q-21 -118 -67 -204t-111.5 -135t-140.5 -71.5t-165 -22.5q-211 0 -362 138z" />
<glyph unicode="K" horiz-adv-x="1253" d="M70 0l252 1434h282l-106 -603l649 611l168 -178l-600 -541l280 -373q57 -77 106.5 -107t129.5 -30l-98 -229q-121 0 -198.5 47t-156.5 159l-315 435l-111 -625h-282z" />
<glyph unicode="L" horiz-adv-x="1060" d="M70 0l252 1434h282l-209 -1188h613l-43 -246h-895z" />
<glyph unicode="M" horiz-adv-x="1732" d="M70 0l252 1434h352l186 -859l475 859h394l-252 -1434h-283l184 1061l-438 -768h-242l-174 770l-184 -1063h-270z" />
<glyph unicode="N" horiz-adv-x="1456" d="M70 0l254 1434l340 -2l329 -1067l191 1069h268l-254 -1434h-344l-328 1055l-186 -1055h-270z" />
<glyph unicode="O" horiz-adv-x="1548" d="M100 625q0 164 54.5 313.5t153 265.5t249 185t330.5 69q146 0 265 -49t197.5 -136t121 -205.5t42.5 -256.5q0 -131 -34 -254t-101 -228.5t-160.5 -184.5t-220 -124t-270.5 -45q-194 0 -337.5 85.5t-216.5 231.5t-73 333zM393 625q0 -190 90 -302t262 -112 q144 0 253.5 81.5t165 217t55.5 301.5q0 189 -90.5 301.5t-262.5 112.5q-144 0 -253 -82t-164.5 -217t-55.5 -301z" />
<glyph unicode="P" horiz-adv-x="1226" d="M70 0l247 1411q209 39 414 39q129 0 233.5 -36t171.5 -97.5t102.5 -141.5t35.5 -171q-1 -168 -86.5 -287.5t-224.5 -176.5t-316 -57q-109 0 -205 21l-90 -504h-282zM479 725q82 -14 172 -14q156 0 245.5 73t90.5 211v6q1 99 -67 159q-70 62 -199 63q-86 0 -156 -13z" />
<glyph unicode="Q" horiz-adv-x="1568" d="M100 625q0 164 54.5 313.5t153 265.5t249 185t330.5 69q146 0 265 -49t197.5 -136t121 -205.5t42.5 -256.5q0 -149 -50 -291t-142 -258q86 -56 192 -59l-96 -228q-68 0 -124 28t-138 103q-190 -131 -428 -131q-194 0 -337.5 85.5t-216.5 231.5t-73 333zM393 625 q0 -190 89.5 -302t258.5 -112q138 0 232 55l-142 125l166 174l133 -143q89 151 89 389q0 189 -90.5 301.5t-262.5 112.5q-144 0 -253 -82t-164.5 -217t-55.5 -301z" />
<glyph unicode="R" horiz-adv-x="1286" d="M72 0l247 1417q209 41 414 41q246 0 382 -115t136 -284q-3 -318 -372 -389q65 -24 109 -69.5t63 -95t37 -103t33.5 -95.5t50 -69t88.5 -27l-99 -229q-84 0 -143.5 33t-92.5 86t-57 117t-45 128t-47.5 117t-73.5 86t-114 33h-133l-103 -582h-280zM498 811h157 q309 0 312 231q0 191 -234 191q-76 0 -166 -12z" />
<glyph unicode="S" horiz-adv-x="1122" d="M-20 160l143 188q87 -65 181 -101t216 -36q123 0 191.5 49.5t68.5 145.5q0 76 -59 128t-219 109q-186 65 -270.5 155t-84.5 240q0 85 32.5 158.5t97 133t173 94t248.5 34.5q268 0 469 -131l-123 -203q-163 103 -348 103q-128 0 -192 -45t-64 -123q0 -46 18.5 -78.5 t75.5 -67t162 -71.5q195 -69 287 -168.5t92 -253.5q0 -203 -148 -324t-417 -121q-321 0 -530 185z" />
<glyph unicode="T" horiz-adv-x="1142" d="M119 1196l41 238h1126l-43 -238h-420l-213 -1196h-280l211 1196h-422z" />
<glyph unicode="U" d="M117 373q0 67 24 219l148 842h282l-155 -861q-19 -108 -19 -176q0 -91 49 -138.5t138 -47.5q59 0 116.5 25.5t111 76t94.5 138.5t61 202l137 781h282l-192 -1084q-4 -28 -4 -47q0 -49 32.5 -74.5t90.5 -25.5l-96 -221q-115 0 -183.5 46.5t-68.5 149.5q0 32 10 80 q-84 -137 -197 -210t-270 -73q-168 0 -279.5 110t-111.5 288z" />
<glyph unicode="V" horiz-adv-x="1353" d="M139 1403l287 55l195 -1151l604 1149l235 -121l-741 -1335h-289z" />
<glyph unicode="W" horiz-adv-x="1949" d="M176 1419l287 33l86 -1128l412 981h311l67 -981l476 1126l249 -90l-616 -1360h-313l-72 997l-422 -997h-311z" />
<glyph unicode="X" horiz-adv-x="1269" d="M-53 162l561 579l-361 574l240 141l299 -543l469 541l197 -182l-531 -545l383 -608l-239 -142l-322 568l-502 -568z" />
<glyph unicode="Y" horiz-adv-x="1214" d="M-12 96l129 176q81 -63 182 -63q71 0 124.5 40t98.5 126l41 78l-284 639q-29 64 -66 90t-100 26l71 226q146 0 216.5 -59t140.5 -232l182 -449l410 760l227 -121l-574 -1001q-115 -200 -227.5 -277.5t-265.5 -77.5q-180 0 -305 119z" />
<glyph unicode="Z" horiz-adv-x="1116" d="M-61 0l36 209l854 989h-643l43 236h994l-35 -199l-864 -991h714l-43 -244h-1056z" />
<glyph unicode="[" horiz-adv-x="632" d="M12 -205l305 1721h414l-37 -209h-186l-229 -1303h186l-37 -209h-416z" />
<glyph unicode="\" horiz-adv-x="921" d="M246 1542l229 41l289 -1689l-227 -39z" />
<glyph unicode="]" horiz-adv-x="632" d="M-55 -205l37 209h186l229 1303h-186l37 209h416l-306 -1721h-413z" />
<glyph unicode="^" horiz-adv-x="1228" d="M272 1155l445 361h143l316 -369l-181 -160l-231 303l-346 -303z" />
<glyph unicode="_" horiz-adv-x="1212" d="M-141 -266l32 184h1213l-33 -184h-1212z" />
<glyph unicode="`" horiz-adv-x="694" d="M217 1417l115 228l446 -289l-92 -162z" />
<glyph unicode="a" horiz-adv-x="1206" d="M49 424q0 194 87.5 346.5t240.5 236t344 83.5q209 0 405 -76l-114 -647q-8 -33 -8 -72q0 -100 124 -100l-92 -205q-245 0 -260 198v5q-61 -109 -142 -163.5t-200 -54.5q-161 0 -273 125t-112 324zM319 432q0 -112 49 -172.5t132 -60.5q103 0 175.5 89.5t104.5 264.5 l51 305q-49 14 -129 14q-172 0 -277.5 -122t-105.5 -318z" />
<glyph unicode="b" horiz-adv-x="1173" d="M55 41l262 1475h263l-109 -615q114 189 320 189q148 0 243.5 -110.5t95.5 -287.5q0 -157 -53.5 -290.5t-148 -227.5t-229 -146.5t-293.5 -52.5q-219 0 -351 66zM352 209q54 -8 103 -8q178 0 291.5 130.5t113.5 348.5q0 90 -39.5 139t-113.5 49q-48 0 -94.5 -24t-89 -71.5 t-76.5 -129t-52 -186.5z" />
<glyph unicode="c" horiz-adv-x="966" d="M55 467q0 125 43.5 238t121.5 198.5t194.5 136t253.5 50.5q104 0 182 -22t149 -73l-104 -196q-100 65 -229 65q-152 0 -246 -110.5t-94 -278.5q0 -130 67 -202t182 -72q104 0 228 57l51 -211q-140 -72 -311 -72q-218 0 -353 133.5t-135 358.5z" />
<glyph unicode="d" horiz-adv-x="1232" d="M61 424q0 144 44.5 270t118 212t169 135t195.5 49q94 0 166 -42.5t112 -113.5l103 582h266l-203 -1149q-8 -50 -8 -72q0 -100 125 -100l-90 -205q-250 0 -262 196v4q-60 -108 -143 -161.5t-201 -53.5q-164 0 -278 125.5t-114 323.5zM332 440q0 -117 48.5 -179t135.5 -62 q103 0 179 90t106 264l30 178q-33 64 -88 100.5t-122 36.5q-125 0 -207 -115.5t-82 -312.5z" />
<glyph unicode="e" horiz-adv-x="1069" d="M57 467q0 169 71 310t206 227t307 86q92 0 168.5 -27.5t125.5 -74t76 -106.5t27 -126q0 -84 -30.5 -149.5t-80.5 -107t-119 -68.5t-139.5 -37.5t-148.5 -10.5q-119 0 -203 23l2 -17q38 -192 261 -192q145 0 317 73l21 -213q-175 -82 -363 -82q-228 0 -363 132t-135 360z M324 604q85 -18 174 -18q274 0 274 162q0 57 -41 91.5t-113 34.5q-107 0 -185.5 -73.5t-108.5 -196.5z" />
<glyph unicode="f" horiz-adv-x="763" d="M-330 -401l92 188q66 -41 152 -41q133 0 164 170l158 893h-162l37 217h163l29 164q64 350 412 350q175 0 338 -106l-97 -189q-125 70 -225 70q-141 0 -166 -150l-24 -139h295l-39 -217h-295l-160 -905q-67 -379 -414 -379q-154 0 -258 74z" />
<glyph unicode="g" horiz-adv-x="1189" d="M49 -332l129 176q67 -50 126.5 -74t133.5 -24q99 0 164 60t94 204l31 152q-56 -84 -125 -123t-166 -39q-74 0 -143 30t-123 84t-86.5 138t-32.5 184q0 193 87 342.5t240.5 230.5t346.5 81q209 0 405 -76l-178 -1010q-87 -479 -514 -479q-226 0 -389 143zM322 442 q0 -104 48.5 -161.5t133.5 -57.5q103 0 176 83t104 261l52 291q-49 14 -129 14q-176 0 -280.5 -117t-104.5 -313z" />
<glyph unicode="h" horiz-adv-x="1206" d="M51 0l266 1516h267l-109 -615q120 189 328 189q136 0 218.5 -88.5t82.5 -227.5q0 -53 -17 -158l-106 -616h-266l110 641q13 80 13 107q0 56 -32.5 87t-90.5 31q-97 0 -189 -101t-125 -290v8l-84 -483h-266z" />
<glyph unicode="i" horiz-adv-x="555" d="M51 0l187 1065h266l-187 -1065h-266zM252 1376q0 85 54.5 138t135.5 53q74 0 119 -45.5t45 -112.5q0 -84 -54 -137t-136 -53q-72 0 -118 45t-46 112z" />
<glyph unicode="j" horiz-adv-x="567" d="M-360 -401l92 188q66 -41 151 -41q133 0 164 170l203 1149h266l-205 -1161q-67 -379 -413 -379q-154 0 -258 74zM264 1376q0 85 55 138t136 53q73 0 118 -45t45 -113q0 -84 -54 -137t-136 -53q-72 0 -118 45t-46 112z" />
<glyph unicode="k" horiz-adv-x="1128" d="M53 0l264 1516h267l-105 -582q117 156 312 156q134 0 220.5 -82t86.5 -207q0 -152 -104 -230t-279 -86h-21l146 -184q50 -60 91 -83t99 -23l-90 -205q-111 0 -171.5 37t-125.5 143l-172 289l41 174q62 -15 111 -15q98 0 152 39.5t54 114.5q0 55 -34 87t-95 32 q-103 0 -180.5 -87.5t-109.5 -279.5l-91 -524h-266z" />
<glyph unicode="l" horiz-adv-x="692" d="M80 272q0 47 10 119l199 1125h266l-199 -1129q-8 -36 -8 -70q0 -53 32.5 -84.5t88.5 -31.5q62 0 141 28l27 -206q-105 -48 -229 -48q-86 0 -159.5 32.5t-121 101.5t-47.5 163z" />
<glyph unicode="m" horiz-adv-x="1810" d="M51 0l187 1065h225l-37 -195q126 220 356 220q106 0 181 -60.5t100 -159.5q125 220 354 220q130 0 210.5 -88.5t80.5 -223.5q0 -59 -14 -157l-109 -621h-266l111 645q12 70 12 107q0 53 -29.5 83.5t-83.5 30.5q-89 0 -175.5 -101.5t-119.5 -289.5v6l-84 -481h-266 l111 645q12 71 12 105q0 53 -30 84.5t-83 31.5q-89 0 -175.5 -101.5t-119.5 -289.5l-82 -475h-266z" />
<glyph unicode="n" horiz-adv-x="1204" d="M51 0l187 1065h225l-39 -201q61 106 156 166t219 60q137 0 220 -88.5t83 -227.5q0 -66 -15 -158l-108 -616h-266l112 641q11 67 11 107q0 56 -32 87t-89 31q-98 0 -190.5 -100.5t-125.5 -290.5l-82 -475h-266z" />
<glyph unicode="o" horiz-adv-x="1216" d="M55 459q0 176 74.5 319.5t212.5 227.5t313 84q226 0 366 -137t140 -347q0 -176 -74.5 -319.5t-212.5 -227.5t-313 -84q-225 0 -365.5 137.5t-140.5 346.5zM326 467q0 -120 65.5 -194t177.5 -74q149 0 235.5 110t86.5 289q0 120 -65.5 194t-178.5 74q-149 0 -235 -109.5 t-86 -289.5z" />
<glyph unicode="p" horiz-adv-x="1230" d="M-4 -451l201 1139q6 38 6 72q0 102 -125 102l92 203q124 0 188.5 -49t73.5 -150v-10q122 234 359 234q170 0 273 -126.5t103 -318.5q0 -149 -44.5 -277.5t-117 -213t-163.5 -132t-185 -47.5q-185 0 -292 152l-103 -578h-266zM401 334q34 -61 87 -97t120 -36 q126 0 207.5 118t81.5 328q0 104 -43.5 162.5t-124.5 58.5q-109 0 -191 -101t-112 -284z" />
<glyph unicode="q" horiz-adv-x="1175" d="M49 418q0 197 87.5 351t240.5 237.5t344 83.5q199 0 395 -76l-258 -1465h-266l108 586q-56 -81 -123 -120.5t-161 -39.5t-177 53t-136.5 156t-53.5 234zM319 428q0 -108 47.5 -168.5t125.5 -60.5q101 0 174.5 93.5t107.5 289.5l47 276q-49 14 -119 14q-173 0 -278 -122.5 t-105 -321.5z" />
<glyph unicode="r" horiz-adv-x="825" d="M72 0l123 688q8 50 8 72q0 52 -34 77t-91 25l90 203q126 0 192 -51t76 -164q0 -13 -2 -19q108 259 357 259q84 0 151 -31l-106 -244q-51 21 -105 21q-49 0 -93.5 -20t-89 -63.5t-79.5 -125t-55 -193.5l-76 -434h-266z" />
<glyph unicode="s" horiz-adv-x="919" d="M-35 104l119 193q135 -98 305 -98q186 0 186 100q0 32 -14.5 53t-59 46t-134.5 59q-154 56 -213.5 129t-59.5 184q0 142 115 231t311 89q222 0 400 -103l-97 -192q-145 79 -299 79q-83 0 -124.5 -24t-41.5 -66q0 -43 39 -73t152 -72q162 -59 229.5 -133.5t67.5 -186.5 q0 -167 -124.5 -255.5t-330.5 -88.5q-254 0 -426 129z" />
<glyph unicode="t" horiz-adv-x="790" d="M41 809l37 217h186l105 336h206l-57 -336h277l-37 -217h-279l-69 -408q-11 -53 -11 -79q0 -59 35 -90t98 -31q70 0 166 41l33 -199q-129 -68 -270 -68q-139 0 -235.5 81t-96.5 216q0 47 14 136l70 401h-172z" />
<glyph unicode="u" horiz-adv-x="1181" d="M80 289q0 74 14 160l109 616h266l-113 -641q-10 -61 -10 -107q0 -55 32 -85.5t89 -30.5q101 0 181 92.5t110 259.5l90 512h266l-125 -698q-8 -50 -8 -72q0 -100 127 -100l-92 -205q-243 0 -260 205v8q-73 -119 -160.5 -173.5t-212.5 -54.5q-135 0 -219 88.5t-84 225.5z " />
<glyph unicode="v" horiz-adv-x="1091" d="M57 1026l254 61l166 -815l457 815l213 -122l-584 -965h-258z" />
<glyph unicode="w" horiz-adv-x="1615" d="M84 1044l256 41l100 -800l322 725h250l61 -725l375 800l221 -112l-508 -973h-268l-59 725l-312 -725h-270z" />
<glyph unicode="x" horiz-adv-x="1046" d="M-51 141l426 408l-283 401l217 137l230 -389l366 392l168 -166l-405 -394l299 -417l-217 -136l-244 402l-389 -404z" />
<glyph unicode="y" horiz-adv-x="1157" d="M37 -334l129 176q120 -96 250 -96q98 0 162.5 61t93.5 211l30 172q-112 -190 -319 -190q-135 0 -218 85t-83 230q0 56 14 144l107 606h266l-109 -631q-8 -44 -8 -80q0 -60 34 -94.5t91 -34.5q92 0 172 95.5t113 287.5l82 457h266l-184 -1063q-45 -249 -178 -363 t-332 -114q-228 0 -379 141z" />
<glyph unicode="z" horiz-adv-x="972" d="M-33 0l35 201l631 643h-502l39 221h838l-35 -193l-635 -639h534l-41 -233h-864z" />
<glyph unicode="{" horiz-adv-x="759" d="M82 557l35 197q73 12 112.5 37t69.5 90t51 190q22 130 56.5 215.5t96 147.5t153 92.5t225.5 38.5l-33 -179q-79 -14 -126 -46t-77 -97.5t-49 -179.5q-23 -146 -57.5 -226t-89.5 -120t-154 -62q89 -36 131.5 -93t42.5 -148q0 -52 -16.5 -157t-16.5 -165q0 -76 37.5 -114 t120.5 -56l-33 -178q-181 29 -276 110t-95 230q0 56 16.5 157t16.5 160q0 135 -141 156z" />
<glyph unicode="|" horiz-adv-x="698" d="M96 -205l316 1782h245l-315 -1782h-246z" />
<glyph unicode="}" horiz-adv-x="759" d="M-78 -256l31 178q118 21 172.5 89t81.5 237q23 146 57.5 225t89.5 119t154 61q-89 36 -132.5 93.5t-43.5 148.5q0 52 17.5 157t17.5 165q0 76 -38 115t-120 54l33 179q181 -29 275.5 -110t94.5 -230q0 -56 -17 -157t-17 -159q0 -133 143 -157l-37 -197 q-55 -9 -87.5 -23.5t-62 -48t-48 -91.5t-33.5 -152q-22 -130 -56.5 -216t-96 -148t-152.5 -92.5t-226 -39.5z" />
<glyph unicode="~" horiz-adv-x="1228" d="M158 666q65 63 144 107t157 44q52 0 103 -17t85 -38t79.5 -38t88.5 -17q56 0 108.5 25t118.5 75l68 -178q-160 -146 -301 -146q-54 0 -107.5 17.5t-89.5 38t-81 38t-85 17.5q-101 0 -223 -105z" />
<glyph unicode="&#xa1;" horiz-adv-x="675" d="M35 -451l86 496l117 475h215l-54 -475l-84 -496h-280zM215 840q0 80 54.5 137t144.5 57q74 0 119 -43.5t45 -111.5q0 -82 -54.5 -139.5t-146.5 -57.5q-73 0 -117.5 45t-44.5 113z" />
<glyph unicode="&#xa2;" horiz-adv-x="944" d="M66 524q0 238 146 414t386 205l16 233h265l-70 -239q111 -20 201 -84l-105 -197q-101 66 -229 66q-152 0 -246 -111t-94 -279q0 -130 67 -202t183 -72q66 0 116.5 14.5t110.5 42.5l51 -211q-108 -57 -250 -69l-16 -242h-264l74 258q-158 40 -250 164t-92 309z" />
<glyph unicode="&#xa3;" horiz-adv-x="1058" d="M25 0l34 197q95 107 138.5 189.5t74.5 225.5h-141l39 215h145l37 220q66 387 449 387q183 0 340 -115l-113 -178q-115 76 -217 76q-80 0 -130.5 -46t-68.5 -151l-34 -193h319l-39 -215h-319q-22 -132 -67.5 -216.5t-123.5 -166.5h625l-37 -229h-911z" />
<glyph unicode="&#xa4;" horiz-adv-x="1220" d="M104 295l156 158q-53 83 -53 190q0 168 106 287l-104 155l201 140l104 -164q83 26 164 26q86 0 156 -30l153 168l170 -158l-151 -154q55 -86 55 -192q0 -164 -107 -287l111 -158l-203 -141l-104 166q-83 -27 -162 -27q-96 0 -166 33l-154 -170zM459 653q0 -76 43 -123 t112 -47q91 0 143 65t52 161q0 78 -41.5 124t-112.5 46q-89 0 -142.5 -65t-53.5 -161z" />
<glyph unicode="&#xa5;" horiz-adv-x="1255" d="M123 213l35 197h299l18 110h-299l35 197h188l-262 600l252 117l256 -699l496 699l223 -142l-459 -575h182l-34 -197h-295l-21 -110h297l-35 -197h-297l-36 -213h-283l39 213h-299z" />
<glyph unicode="&#xa6;" horiz-adv-x="698" d="M98 -205l138 776h243l-135 -776h-246zM279 819l133 758h245l-135 -758h-243z" />
<glyph unicode="&#xa7;" horiz-adv-x="1216" d="M121 12l117 172q126 -78 260 -78q81 0 125.5 22t44.5 62q0 41 -40.5 76t-158.5 92q-132 63 -187 128.5t-55 160.5q0 214 289 316q-87 54 -122.5 102t-35.5 127q0 130 116 210.5t298 80.5q187 0 350 -94l-106 -168q-118 67 -246 67q-72 0 -116 -25t-44 -65q0 -42 39 -72.5 t168 -93.5q126 -62 179 -131.5t53 -157.5q0 -117 -77 -192t-210 -123q86 -46 126 -100t40 -133q0 -93 -64 -161.5t-162 -100t-213 -31.5q-220 0 -368 110zM481 672q0 -45 28.5 -78.5t96.5 -63.5q85 30 138 77.5t53 107.5q0 94 -121 147q-82 -20 -138.5 -71t-56.5 -119z" />
<glyph unicode="&#xa8;" horiz-adv-x="880" d="M211 1362q0 80 50.5 129t125.5 49q69 0 109.5 -40.5t40.5 -102.5q0 -79 -50.5 -128.5t-126.5 -49.5q-67 0 -108 41.5t-41 101.5zM643 1362q0 80 50.5 129t125.5 49q69 0 109.5 -40.5t40.5 -102.5q0 -79 -50 -128.5t-126 -49.5q-67 0 -108.5 41.5t-41.5 101.5z" />
<glyph unicode="&#xa9;" horiz-adv-x="1536" d="M55 618q0 139 37 266.5t109 231.5t171 180.5t229 119t278 42.5q200 0 352 -81t233.5 -227t81.5 -335q0 -174 -59 -328t-164.5 -267.5t-261.5 -179t-340 -65.5q-302 0 -484 177.5t-182 465.5zM262 616q0 -211 126 -337.5t345 -126.5q176 0 314.5 85.5t215 237t76.5 342.5 q0 211 -126 338t-345 127q-176 0 -315 -86t-215 -237.5t-76 -342.5zM438 645q0 212 129.5 355t327.5 143q128 0 242 -72l-80 -151q-79 49 -162 49q-106 0 -179 -88.5t-73 -225.5q0 -90 47.5 -139t122.5 -49q84 0 180 47l33 -156q-110 -65 -250 -65q-146 0 -242 94.5 t-96 257.5z" />
<glyph unicode="&#xaa;" horiz-adv-x="1208" d="M180 270l37 203h719l-35 -203h-721zM252 981q0 207 146 337t368 130q149 0 297 -51l-82 -441q-6 -18 -6 -47q0 -67 84 -67l-80 -172q-168 0 -191 141v8q-50 -80 -112 -118.5t-144 -38.5q-114 0 -197 85.5t-83 233.5zM477 993q0 -69 31 -107t82 -38q67 0 121 60.5 t77 185.5l29 166q-24 6 -76 6q-116 0 -190 -77t-74 -196z" />
<glyph unicode="&#xab;" horiz-adv-x="1185" d="M158 647l22 115l389 397l148 -160l-338 -311l219 -309l-188 -129zM594 647l20 115l392 397l147 -160l-338 -311l217 -309l-186 -129z" />
<glyph unicode="&#xac;" horiz-adv-x="1218" d="M125 586l41 227h987l-98 -547h-256l55 320h-729z" />
<glyph unicode="&#xad;" horiz-adv-x="1019" d="M147 586l41 227h744l-41 -227h-744z" />
<glyph unicode="&#xae;" horiz-adv-x="1533" d="M45 618q0 174 58.5 328t164 267.5t261 179t339.5 65.5q150 0 275 -47t211.5 -131.5t134 -203.5t47.5 -261q0 -174 -59 -328t-164.5 -267.5t-261 -179t-338.5 -65.5q-304 0 -486 177.5t-182 465.5zM252 616q0 -211 126 -337.5t345 -126.5q176 0 314.5 85.5t215 237 t76.5 342.5q0 211 -126 338t-345 127q-176 0 -315 -86t-215 -237.5t-76 -342.5zM436 336l137 764q130 24 248 24q136 0 216.5 -68t80.5 -163q0 -164 -203 -201q42 -15 68 -42t36.5 -54.5t20.5 -54t28 -43.5t50 -19l-74 -157q-54 0 -90.5 23t-51.5 56.5t-31 72.5t-30.5 72.5 t-49 56t-86.5 22.5h-25l-53 -289h-191zM707 776h81q63 0 98.5 28.5t35.5 78.5q0 37 -28 60.5t-81 23.5q-30 0 -76 -4z" />
<glyph unicode="&#xaf;" horiz-adv-x="780" d="M188 1249l37 207h656l-37 -207h-656z" />
<glyph unicode="&#xb0;" horiz-adv-x="827" d="M205 1184q0 147 98 239.5t250 92.5q127 0 206 -75t79 -194q0 -147 -98.5 -239.5t-250.5 -92.5q-127 0 -205.5 75t-78.5 194zM420 1186q0 -43 23.5 -69.5t62.5 -26.5q51 0 84 43t33 112q0 43 -23.5 69.5t-62.5 26.5q-52 0 -84.5 -42.5t-32.5 -112.5z" />
<glyph unicode="&#xb1;" horiz-adv-x="1228" d="M162 152l39 227h813l-39 -227h-813zM240 805l39 221h280l49 287h256l-51 -287h279l-39 -221h-279l-51 -287h-254l51 287h-280z" />
<glyph unicode="&#xb2;" horiz-adv-x="921" d="M135 647q0 75 27 138.5t70.5 107t96 79.5t105 64t96 53.5t70.5 55t27 61.5q0 31 -27 52.5t-70 21.5q-97 0 -190 -72l-98 133q134 107 319 107q130 0 212.5 -68t82.5 -168q0 -71 -41 -125.5t-104 -91.5t-128 -70.5t-123.5 -80.5t-80.5 -103h409l-34 -176h-613q-6 47 -6 82 z" />
<glyph unicode="&#xb3;" horiz-adv-x="921" d="M113 655l112 131q92 -65 201 -65q67 0 108 30t41 87q0 46 -34.5 71t-100.5 25h-145l31 158h131q76 0 122 27.5t46 80.5q0 38 -28.5 60t-78.5 22q-92 0 -186 -59l-86 137q134 88 305 88q128 0 212.5 -69t84.5 -158q0 -84 -48 -132t-149 -73q154 -47 154 -185 q0 -121 -104 -200.5t-277 -79.5q-187 0 -311 104z" />
<glyph unicode="&#xb4;" horiz-adv-x="673" d="M207 1356l450 289l111 -228l-471 -223z" />
<glyph unicode="&#xb6;" horiz-adv-x="1427" d="M129 1137q3 203 154.5 330.5t404.5 127.5q194 0 365 -47l-297 -1679h-240l158 887q-50 -8 -111 -8q-191 0 -313 107t-121 282zM377 1153q-2 -96 54.5 -147.5t166.5 -51.5q60 0 113 9l71 415q-51 11 -123 11q-133 0 -206.5 -61.5t-75.5 -174.5zM891 -131l301 1708h242 l-301 -1708h-242z" />
<glyph unicode="&#xb7;" horiz-adv-x="602" d="M154 709q0 82 54 138t146 56q73 0 117.5 -43.5t44.5 -111.5q0 -82 -54.5 -139.5t-144.5 -57.5q-74 0 -118.5 44.5t-44.5 113.5z" />
<glyph unicode="&#xb8;" horiz-adv-x="681" d="M-115 -471l97 168q61 -33 143 -33q49 0 74.5 16t25.5 44q0 21 -14 35.5t-60.5 25t-125.5 10.5l114 205h193l-56 -100q95 -12 146 -59.5t51 -125.5q0 -113 -94.5 -177t-243.5 -64q-152 0 -250 55z" />
<glyph unicode="&#xb9;" horiz-adv-x="921" d="M180 565l33 168h188l97 475l-179 -108l-81 155l350 179h170l-144 -701h164l-33 -168h-565z" />
<glyph unicode="&#xba;" horiz-adv-x="1218" d="M180 270l37 203h719l-35 -203h-721zM281 1004q0 188 124.5 316t323.5 128q163 0 264 -96.5t101 -245.5q0 -188 -125.5 -316t-323.5 -128q-164 0 -264 96t-100 246zM504 1008q0 -74 41.5 -118t111.5 -44q97 0 155 71.5t58 182.5q0 75 -41.5 119.5t-113.5 44.5 q-95 0 -153 -72t-58 -184z" />
<glyph unicode="&#xbb;" horiz-adv-x="1185" d="M117 410l338 311l-219 309l188 129l252 -397l-23 -115l-389 -397zM553 410l338 311l-219 309l188 129l252 -397l-22 -115l-390 -397z" />
<glyph unicode="&#xbc;" horiz-adv-x="2091" d="M180 565l33 168h188l97 475l-179 -108l-81 155l350 179h170l-144 -701h164l-33 -168h-565zM465 16l1137 1483l153 -106l-1137 -1485zM1221 166l24 135l389 580l178 -80l-311 -465h166l70 184h168l-37 -184h96l-33 -170h-98l-31 -166h-198l30 166h-413z" />
<glyph unicode="&#xbd;" horiz-adv-x="2172" d="M180 565l33 168h188l97 475l-179 -108l-81 155l350 179h170l-144 -701h164l-33 -168h-565zM465 16l1137 1483l153 -106l-1137 -1485zM1307 82q0 75 27 138.5t70.5 107t95.5 79.5t104.5 64t96 53.5t70.5 55t27 61.5t-26.5 53t-69.5 21q-98 0 -191 -72l-98 133 q134 107 320 107q130 0 212.5 -68t82.5 -168q0 -52 -22 -95t-58.5 -73.5t-81.5 -57.5t-93.5 -53t-91.5 -52t-79 -62t-52 -78h410l-35 -176h-612q-6 46 -6 82z" />
<glyph unicode="&#xbe;" horiz-adv-x="2111" d="M113 655l112 131q92 -65 201 -65q67 0 108 30t41 87q0 46 -34.5 71t-100.5 25h-145l31 158h131q76 0 122 27.5t46 80.5q0 38 -28.5 60t-78.5 22q-92 0 -186 -59l-86 137q134 88 305 88q128 0 212.5 -69t84.5 -158q0 -84 -48 -132t-149 -73q154 -47 154 -185 q0 -121 -104 -200.5t-277 -79.5q-187 0 -311 104zM465 16l1137 1483l153 -106l-1137 -1485zM1241 166l25 135l389 580l178 -80l-311 -465h166l69 184h168l-37 -184h97l-33 -170h-99l-30 -166h-199l31 166h-414z" />
<glyph unicode="&#xbf;" horiz-adv-x="1015" d="M-35 -156q0 73 26 131.5t68.5 98t93.5 73t104 64.5t98 64t77 80.5t39 105.5l10 71h213q15 -62 15 -114q0 -66 -25.5 -121t-66 -93.5t-89 -72t-97.5 -62.5t-89.5 -58t-66 -66t-25.5 -80q0 -54 35.5 -83.5t101.5 -29.5q74 0 137 31.5t129 95.5l158 -153 q-178 -201 -455 -201q-170 0 -280.5 90t-110.5 229zM434 840q0 80 54.5 137t146.5 57q74 0 119 -43.5t45 -111.5q0 -82 -54.5 -139.5t-146.5 -57.5q-74 0 -119 44.5t-45 113.5z" />
<glyph unicode="&#xc0;" d="M-57 111l772 1323h282l310 -1399l-265 -62l-77 383h-584l-211 -379zM502 584h420l-109 575zM633 1755l115 227l446 -288l-92 -162z" />
<glyph unicode="&#xc1;" d="M-57 111l772 1323h282l310 -1399l-265 -62l-77 383h-584l-211 -379zM502 584h420l-109 575zM635 1694l450 288l111 -227l-471 -223z" />
<glyph unicode="&#xc2;" d="M-57 111l772 1323h282l310 -1399l-265 -62l-77 383h-584l-211 -379zM487 1702l340 188h197l274 -192l-133 -166l-250 188l-317 -188zM502 584h420l-109 575z" />
<glyph unicode="&#xc3;" d="M-57 111l772 1323h282l310 -1399l-265 -62l-77 383h-584l-211 -379zM502 584h420l-109 575zM504 1700q76 84 140.5 126t133.5 42q43 0 81 -14.5t60.5 -31.5t51.5 -31.5t57 -14.5q74 0 168 90l111 -142q-145 -168 -271 -168q-41 0 -78 15t-59.5 32.5t-53 32.5t-59.5 15 q-72 0 -168 -92z" />
<glyph unicode="&#xc4;" d="M-57 111l772 1323h282l310 -1399l-265 -62l-77 383h-584l-211 -379zM502 584h420l-109 575zM530 1710q0 80 51 129t126 49q69 0 109 -40.5t40 -102.5q0 -79 -50 -128.5t-126 -49.5q-67 0 -108.5 41.5t-41.5 101.5zM963 1710q0 80 50.5 129t125.5 49q69 0 109 -40.5 t40 -102.5q0 -79 -50 -128.5t-126 -49.5q-67 0 -108 41.5t-41 101.5z" />
<glyph unicode="&#xc5;" d="M-57 111l714 1222q-82 72 -79 187q0 138 90.5 224.5t236.5 86.5q124 0 201 -69.5t76 -184.5q0 -90 -41.5 -160.5t-114.5 -109.5l281 -1272l-265 -62l-77 383h-584l-211 -379zM502 584h420l-109 575zM793 1526q0 -44 19 -68t54 -24q45 0 73 38.5t28 100.5q0 46 -19.5 70 t-54.5 24q-45 0 -72.5 -39.5t-27.5 -101.5z" />
<glyph unicode="&#xc6;" horiz-adv-x="1783" d="M-117 127l1049 1307h948l-41 -234h-569l-60 -346h478l-39 -225h-478l-71 -396h569l-41 -233h-850l62 356h-455l-307 -381zM561 584h318l100 557z" />
<glyph unicode="&#xc7;" horiz-adv-x="1181" d="M96 582q0 186 55.5 346.5t157.5 278t253.5 184.5t334.5 67q215 0 377 -104l-111 -203q-137 72 -282 72q-222 0 -357 -172.5t-135 -446.5q0 -192 90.5 -291.5t255.5 -99.5q151 0 309 72l43 -222q-157 -80 -344 -88l-43 -75q95 -12 146 -59.5t51 -125.5q0 -113 -94.5 -177 t-243.5 -64q-152 0 -250 55l97 168q61 -33 143 -33q49 0 74.5 16t25.5 44q0 21 -14 35.5t-60.5 25t-125.5 10.5l108 193q-211 42 -336 199t-125 395z" />
<glyph unicode="&#xc8;" horiz-adv-x="1138" d="M70 0l254 1434h913l-43 -234h-631l-59 -346h540l-38 -225h-541l-70 -396h631l-43 -233h-913zM565 1755l115 227l446 -288l-92 -162z" />
<glyph unicode="&#xc9;" horiz-adv-x="1138" d="M70 0l254 1434h913l-43 -234h-631l-59 -346h540l-38 -225h-541l-70 -396h631l-43 -233h-913zM565 1694l451 288l110 -227l-471 -223z" />
<glyph unicode="&#xca;" horiz-adv-x="1138" d="M70 0l254 1434h913l-43 -234h-631l-59 -346h540l-38 -225h-541l-70 -396h631l-43 -233h-913zM420 1702l340 188h196l275 -192l-133 -166l-250 188l-318 -188z" />
<glyph unicode="&#xcb;" horiz-adv-x="1138" d="M70 0l254 1434h913l-43 -234h-631l-59 -346h540l-38 -225h-541l-70 -396h631l-43 -233h-913zM461 1710q0 80 50.5 129t125.5 49q69 0 109 -40.5t40 -102.5q0 -79 -50 -128.5t-126 -49.5q-67 0 -108 41.5t-41 101.5zM893 1710q0 80 50.5 129t125.5 49q69 0 109.5 -40.5 t40.5 -102.5q0 -79 -50.5 -128.5t-126.5 -49.5q-67 0 -108 41.5t-41 101.5z" />
<glyph unicode="&#xcc;" horiz-adv-x="608" d="M70 0l252 1434h282l-252 -1434h-282zM242 1755l114 227l447 -288l-92 -162z" />
<glyph unicode="&#xcd;" horiz-adv-x="608" d="M70 0l252 1434h282l-252 -1434h-282zM242 1694l450 288l111 -227l-471 -223z" />
<glyph unicode="&#xce;" horiz-adv-x="608" d="M70 0l252 1434h282l-252 -1434h-282zM94 1702l340 188h197l274 -192l-133 -166l-250 188l-317 -188z" />
<glyph unicode="&#xcf;" horiz-adv-x="608" d="M70 0l252 1434h282l-252 -1434h-282zM137 1710q0 80 50.5 129t125.5 49q69 0 109.5 -40.5t40.5 -102.5q0 -79 -50 -128.5t-126 -49.5q-67 0 -108.5 41.5t-41.5 101.5zM569 1710q0 80 50.5 129t125.5 49q69 0 109.5 -40.5t40.5 -102.5q0 -79 -50 -128.5t-126 -49.5 q-67 0 -108.5 41.5t-41.5 101.5z" />
<glyph unicode="&#xd0;" horiz-adv-x="1435" d="M59 618l35 211h160l102 584q212 45 408 45q156 0 279.5 -51t200.5 -139.5t117 -201.5t40 -243q0 -254 -100.5 -445.5t-293 -297t-452.5 -105.5q-221 0 -438 70l100 573h-158zM430 225q75 -16 164 -16q238 0 375 160t137 438q0 210 -93.5 315t-262.5 105q-62 0 -146 -13 l-67 -385h311l-37 -211h-311z" />
<glyph unicode="&#xd1;" horiz-adv-x="1456" d="M70 0l254 1434l340 -2l329 -1067l191 1069h268l-254 -1434h-344l-328 1055l-186 -1055h-270zM559 1700q76 84 140.5 126t134.5 42q43 0 80.5 -14.5t60 -31.5t51.5 -31.5t57 -14.5q74 0 168 90l111 -142q-72 -83 -136.5 -125.5t-133.5 -42.5q-41 0 -78 15t-59.5 32.5 t-53 32.5t-59.5 15q-72 0 -168 -92z" />
<glyph unicode="&#xd2;" horiz-adv-x="1548" d="M100 625q0 164 54.5 313.5t153 265.5t249 185t330.5 69q146 0 265 -49t197.5 -136t121 -205.5t42.5 -256.5q0 -131 -34 -254t-101 -228.5t-160.5 -184.5t-220 -124t-270.5 -45q-194 0 -337.5 85.5t-216.5 231.5t-73 333zM393 625q0 -190 90 -302t262 -112 q144 0 253.5 81.5t165 217t55.5 301.5q0 189 -90.5 301.5t-262.5 112.5q-144 0 -253 -82t-164.5 -217t-55.5 -301zM711 1755l114 227l447 -288l-92 -162z" />
<glyph unicode="&#xd3;" horiz-adv-x="1548" d="M100 625q0 164 54.5 313.5t153 265.5t249 185t330.5 69q146 0 265 -49t197.5 -136t121 -205.5t42.5 -256.5q0 -131 -34 -254t-101 -228.5t-160.5 -184.5t-220 -124t-270.5 -45q-194 0 -337.5 85.5t-216.5 231.5t-73 333zM393 625q0 -190 90 -302t262 -112 q144 0 253.5 81.5t165 217t55.5 301.5q0 189 -90.5 301.5t-262.5 112.5q-144 0 -253 -82t-164.5 -217t-55.5 -301zM711 1694l450 288l111 -227l-471 -223z" />
<glyph unicode="&#xd4;" horiz-adv-x="1548" d="M100 625q0 164 54.5 313.5t153 265.5t249 185t330.5 69q146 0 265 -49t197.5 -136t121 -205.5t42.5 -256.5q0 -131 -34 -254t-101 -228.5t-160.5 -184.5t-220 -124t-270.5 -45q-194 0 -337.5 85.5t-216.5 231.5t-73 333zM393 625q0 -190 90 -302t262 -112 q144 0 253.5 81.5t165 217t55.5 301.5q0 189 -90.5 301.5t-262.5 112.5q-144 0 -253 -82t-164.5 -217t-55.5 -301zM565 1702l340 188h197l274 -192l-133 -166l-250 188l-317 -188z" />
<glyph unicode="&#xd5;" horiz-adv-x="1548" d="M100 625q0 164 54.5 313.5t153 265.5t249 185t330.5 69q146 0 265 -49t197.5 -136t121 -205.5t42.5 -256.5q0 -131 -34 -254t-101 -228.5t-160.5 -184.5t-220 -124t-270.5 -45q-194 0 -337.5 85.5t-216.5 231.5t-73 333zM393 625q0 -190 90 -302t262 -112 q144 0 253.5 81.5t165 217t55.5 301.5q0 189 -90.5 301.5t-262.5 112.5q-144 0 -253 -82t-164.5 -217t-55.5 -301zM582 1700q76 84 140.5 126t133.5 42q43 0 81 -14.5t60.5 -31.5t51.5 -31.5t57 -14.5q74 0 168 90l110 -142q-72 -83 -136.5 -125.5t-133.5 -42.5 q-41 0 -78 15t-59.5 32.5t-53 32.5t-59.5 15q-72 0 -168 -92z" />
<glyph unicode="&#xd6;" horiz-adv-x="1548" d="M100 625q0 164 54.5 313.5t153 265.5t249 185t330.5 69q146 0 265 -49t197.5 -136t121 -205.5t42.5 -256.5q0 -131 -34 -254t-101 -228.5t-160.5 -184.5t-220 -124t-270.5 -45q-194 0 -337.5 85.5t-216.5 231.5t-73 333zM393 625q0 -190 90 -302t262 -112 q144 0 253.5 81.5t165 217t55.5 301.5q0 189 -90.5 301.5t-262.5 112.5q-144 0 -253 -82t-164.5 -217t-55.5 -301zM606 1710q0 80 50.5 129t125.5 49q69 0 109.5 -40.5t40.5 -102.5q0 -79 -50 -128.5t-126 -49.5q-67 0 -108.5 41.5t-41.5 101.5zM1038 1710q0 80 50.5 129 t125.5 49q69 0 109.5 -40.5t40.5 -102.5q0 -79 -50 -128.5t-126 -49.5q-67 0 -108.5 41.5t-41.5 101.5z" />
<glyph unicode="&#xd7;" horiz-adv-x="1228" d="M172 442l326 263l-240 286l184 142l213 -283l310 283l151 -166l-321 -262l235 -287l-182 -139l-211 280l-313 -280z" />
<glyph unicode="&#xd8;" horiz-adv-x="1548" d="M100 625q0 164 54.5 313.5t153 265.5t249 185t330.5 69q135 0 250 -45l149 248l205 -121l-176 -237q96 -88 147 -215t51 -277q0 -131 -34 -254t-101 -228.5t-160.5 -184.5t-220 -124t-270.5 -45q-136 0 -254 48l-160 -267l-204 123l190 254q-96 88 -147.5 215t-51.5 277z M393 625q0 -179 66 -279l557 856q-67 23 -146 23q-146 0 -256 -82t-165.5 -217t-55.5 -301zM598 233q64 -22 143 -22q110 0 201 47.5t151 129t93 190.5t33 233q0 178 -64 279z" />
<glyph unicode="&#xd9;" d="M117 373q0 67 24 219l148 842h282l-155 -861q-19 -108 -19 -176q0 -91 49 -138.5t138 -47.5q59 0 116.5 25.5t111 76t94.5 138.5t61 202l137 781h282l-192 -1084q-4 -28 -4 -47q0 -49 32.5 -74.5t90.5 -25.5l-96 -221q-115 0 -183.5 46.5t-68.5 149.5q0 32 10 80 q-84 -137 -197 -210t-270 -73q-168 0 -279.5 110t-111.5 288zM625 1755l114 227l447 -288l-92 -162z" />
<glyph unicode="&#xda;" d="M117 373q0 67 24 219l148 842h282l-155 -861q-19 -108 -19 -176q0 -91 49 -138.5t138 -47.5q59 0 116.5 25.5t111 76t94.5 138.5t61 202l137 781h282l-192 -1084q-4 -28 -4 -47q0 -49 32.5 -74.5t90.5 -25.5l-96 -221q-115 0 -183.5 46.5t-68.5 149.5q0 32 10 80 q-84 -137 -197 -210t-270 -73q-168 0 -279.5 110t-111.5 288zM625 1694l450 288l111 -227l-471 -223z" />
<glyph unicode="&#xdb;" d="M117 373q0 67 24 219l148 842h282l-155 -861q-19 -108 -19 -176q0 -91 49 -138.5t138 -47.5q59 0 116.5 25.5t111 76t94.5 138.5t61 202l137 781h282l-192 -1084q-4 -28 -4 -47q0 -49 32.5 -74.5t90.5 -25.5l-96 -221q-115 0 -183.5 46.5t-68.5 149.5q0 32 10 80 q-84 -137 -197 -210t-270 -73q-168 0 -279.5 110t-111.5 288zM479 1702l340 188h197l274 -192l-133 -166l-250 188l-317 -188z" />
<glyph unicode="&#xdc;" d="M117 373q0 67 24 219l148 842h282l-155 -861q-19 -108 -19 -176q0 -91 49 -138.5t138 -47.5q59 0 116.5 25.5t111 76t94.5 138.5t61 202l137 781h282l-192 -1084q-4 -28 -4 -47q0 -49 32.5 -74.5t90.5 -25.5l-96 -221q-115 0 -183.5 46.5t-68.5 149.5q0 32 10 80 q-84 -137 -197 -210t-270 -73q-168 0 -279.5 110t-111.5 288zM520 1710q0 80 50.5 129t125.5 49q69 0 109.5 -40.5t40.5 -102.5q0 -79 -50 -128.5t-126 -49.5q-67 0 -108.5 41.5t-41.5 101.5zM952 1710q0 80 50.5 129t125.5 49q69 0 109.5 -40.5t40.5 -102.5 q0 -79 -50 -128.5t-126 -49.5q-67 0 -108.5 41.5t-41.5 101.5z" />
<glyph unicode="&#xdd;" horiz-adv-x="1214" d="M-12 96l129 176q81 -63 182 -63q71 0 124.5 40t98.5 126l41 78l-284 639q-29 64 -66 90t-100 26l71 226q146 0 216.5 -59t140.5 -232l182 -449l410 760l227 -121l-574 -1001q-115 -200 -227.5 -277.5t-265.5 -77.5q-180 0 -305 119zM535 1694l450 288l111 -227l-471 -223 z" />
<glyph unicode="&#xde;" horiz-adv-x="1236" d="M70 0l252 1434h282l-39 -232q51 10 140 10q121 0 221.5 -36t166 -97.5t101.5 -143t35 -173.5q0 -105 -32 -192.5t-88.5 -150t-135 -105.5t-171.5 -64t-198 -21q-106 0 -207 19l-45 -248h-282zM434 471q82 -14 174 -14q156 0 245.5 74.5t90.5 220.5q0 107 -69 171t-199 64 q-82 0 -154 -10z" />
<glyph unicode="&#xdf;" horiz-adv-x="1282" d="M8 -451l182 1026q15 88 15 115q0 72 -40.5 104.5t-121.5 32.5l107 238q66 0 113.5 -28t58.5 -89q36 310 163 451t357 141q175 0 294 -109.5t119 -273.5q0 -148 -77 -231.5t-211 -122.5q256 -75 256 -346q0 -217 -147 -349.5t-386 -132.5q-148 0 -241 52l92 200 q68 -30 153 -30q120 0 189 63t69 186q0 118 -71.5 180t-229.5 74l35 201q152 2 228.5 62t76.5 188q0 78 -46 127t-126 49q-129 0 -198.5 -105t-116.5 -368l-230 -1305h-266z" />
<glyph unicode="&#xe0;" horiz-adv-x="1206" d="M49 424q0 194 87.5 346.5t240.5 236t344 83.5q209 0 405 -76l-114 -647q-8 -33 -8 -72q0 -100 124 -100l-92 -205q-245 0 -260 198v5q-61 -109 -142 -163.5t-200 -54.5q-161 0 -273 125t-112 324zM319 432q0 -112 49 -172.5t132 -60.5q103 0 175.5 89.5t104.5 264.5 l51 305q-49 14 -129 14q-172 0 -277.5 -122t-105.5 -318zM475 1417l115 228l446 -289l-92 -162z" />
<glyph unicode="&#xe1;" horiz-adv-x="1206" d="M49 424q0 194 87.5 346.5t240.5 236t344 83.5q209 0 405 -76l-114 -647q-8 -33 -8 -72q0 -100 124 -100l-92 -205q-245 0 -260 198v5q-61 -109 -142 -163.5t-200 -54.5q-161 0 -273 125t-112 324zM319 432q0 -112 49 -172.5t132 -60.5q103 0 175.5 89.5t104.5 264.5 l51 305q-49 14 -129 14q-172 0 -277.5 -122t-105.5 -318zM475 1356l451 289l110 -228l-471 -223z" />
<glyph unicode="&#xe2;" horiz-adv-x="1206" d="M49 424q0 194 87.5 346.5t240.5 236t344 83.5q209 0 405 -76l-114 -647q-8 -33 -8 -72q0 -100 124 -100l-92 -205q-245 0 -260 198v5q-61 -109 -142 -163.5t-200 -54.5q-161 0 -273 125t-112 324zM319 432q0 -112 49 -172.5t132 -60.5q103 0 175.5 89.5t104.5 264.5 l51 305q-49 14 -129 14q-172 0 -277.5 -122t-105.5 -318zM319 1335l345 213h196l270 -213l-141 -168l-237 211l-310 -211z" />
<glyph unicode="&#xe3;" horiz-adv-x="1206" d="M49 424q0 194 87.5 346.5t240.5 236t344 83.5q209 0 405 -76l-114 -647q-8 -33 -8 -72q0 -100 124 -100l-92 -205q-245 0 -260 198v5q-61 -109 -142 -163.5t-200 -54.5q-161 0 -273 125t-112 324zM319 432q0 -112 49 -172.5t132 -60.5q103 0 175.5 89.5t104.5 264.5 l51 305q-49 14 -129 14q-172 0 -277.5 -122t-105.5 -318zM346 1352q76 84 140.5 126t134.5 42q43 0 80.5 -14.5t60 -32t51.5 -32t57 -14.5q73 0 168 91l111 -142q-72 -83 -136.5 -125.5t-133.5 -42.5q-41 0 -78 15t-59.5 32.5t-53 32.5t-59.5 15q-71 0 -168 -93z" />
<glyph unicode="&#xe4;" horiz-adv-x="1206" d="M49 424q0 194 87.5 346.5t240.5 236t344 83.5q209 0 405 -76l-114 -647q-8 -33 -8 -72q0 -100 124 -100l-92 -205q-245 0 -260 198v5q-61 -109 -142 -163.5t-200 -54.5q-161 0 -273 125t-112 324zM319 432q0 -112 49 -172.5t132 -60.5q103 0 175.5 89.5t104.5 264.5 l51 305q-49 14 -129 14q-172 0 -277.5 -122t-105.5 -318zM371 1362q0 80 50.5 129t125.5 49q69 0 109 -40.5t40 -102.5q0 -79 -50 -128.5t-126 -49.5q-67 0 -108 41.5t-41 101.5zM803 1362q0 80 50.5 129t125.5 49q69 0 109 -40.5t40 -102.5q0 -79 -50 -128.5t-126 -49.5 q-67 0 -108 41.5t-41 101.5z" />
<glyph unicode="&#xe5;" horiz-adv-x="1206" d="M49 424q0 194 87.5 346.5t240.5 236t344 83.5q209 0 405 -76l-114 -647q-8 -33 -8 -72q0 -100 124 -100l-92 -205q-245 0 -260 198v5q-61 -109 -142 -163.5t-200 -54.5q-161 0 -273 125t-112 324zM319 432q0 -112 49 -172.5t132 -60.5q103 0 175.5 89.5t104.5 264.5 l51 305q-49 14 -129 14q-172 0 -277.5 -122t-105.5 -318zM449 1440q0 138 90.5 224.5t236.5 86.5q124 0 201 -69.5t76 -184.5q0 -137 -91 -223t-237 -86q-125 0 -201 69t-75 183zM664 1446q0 -44 19 -68t54 -24q45 0 73 38.5t28 100.5q0 46 -19.5 70t-54.5 24 q-45 0 -72.5 -39.5t-27.5 -101.5z" />
<glyph unicode="&#xe6;" horiz-adv-x="1746" d="M8 301q0 177 134 277t352 100q115 0 243 -33q-7 113 -71 171t-174 58q-126 0 -267 -67l-28 207q169 76 333 76q275 0 375 -234q69 114 175.5 174t240.5 60q181 0 287 -98.5t106 -237.5q0 -83 -30.5 -148.5t-80.5 -106.5t-119 -68t-139.5 -37.5t-148.5 -10.5 q-122 0 -199 23q22 -110 84.5 -159.5t175.5 -49.5q148 0 316 77l20 -217q-171 -82 -372 -82q-137 0 -240.5 63t-153.5 183q-153 -246 -436 -246q-173 0 -278 91.5t-105 234.5zM274 317q0 -59 39.5 -89.5t110.5 -30.5q111 0 183.5 64.5t103.5 184.5q-113 29 -219 29 q-97 0 -157.5 -40.5t-60.5 -117.5zM1004 604q77 -18 172 -18q274 0 274 162q0 57 -41 91.5t-113 34.5q-107 0 -184.5 -73.5t-107.5 -196.5z" />
<glyph unicode="&#xe7;" horiz-adv-x="966" d="M55 467q0 125 43.5 238t121.5 198.5t194.5 136t253.5 50.5q104 0 182 -22t149 -73l-104 -196q-100 65 -229 65q-152 0 -246 -110.5t-94 -278.5q0 -130 67 -202t182 -72q104 0 228 57l51 -211q-124 -62 -264 -70l-43 -77q95 -12 145.5 -59.5t50.5 -125.5q0 -113 -94 -177 t-243 -64q-152 0 -250 55l96 168q61 -33 143 -33q49 0 75 16t26 44q0 21 -14 35.5t-61 25t-126 10.5l111 197q-161 39 -256 164t-95 311z" />
<glyph unicode="&#xe8;" horiz-adv-x="1069" d="M57 467q0 169 71 310t206 227t307 86q92 0 168.5 -27.5t125.5 -74t76 -106.5t27 -126q0 -84 -30.5 -149.5t-80.5 -107t-119 -68.5t-139.5 -37.5t-148.5 -10.5q-119 0 -203 23l2 -17q38 -192 261 -192q145 0 317 73l21 -213q-175 -82 -363 -82q-228 0 -363 132t-135 360z M324 604q85 -18 174 -18q274 0 274 162q0 57 -41 91.5t-113 34.5q-107 0 -185.5 -73.5t-108.5 -196.5zM412 1417l114 228l447 -289l-92 -162z" />
<glyph unicode="&#xe9;" horiz-adv-x="1069" d="M57 467q0 169 71 310t206 227t307 86q92 0 168.5 -27.5t125.5 -74t76 -106.5t27 -126q0 -84 -30.5 -149.5t-80.5 -107t-119 -68.5t-139.5 -37.5t-148.5 -10.5q-119 0 -203 23l2 -17q38 -192 261 -192q145 0 317 73l21 -213q-175 -82 -363 -82q-228 0 -363 132t-135 360z M324 604q85 -18 174 -18q274 0 274 162q0 57 -41 91.5t-113 34.5q-107 0 -185.5 -73.5t-108.5 -196.5zM412 1356l450 289l111 -228l-471 -223z" />
<glyph unicode="&#xea;" horiz-adv-x="1069" d="M57 467q0 169 71 310t206 227t307 86q92 0 168.5 -27.5t125.5 -74t76 -106.5t27 -126q0 -84 -30.5 -149.5t-80.5 -107t-119 -68.5t-139.5 -37.5t-148.5 -10.5q-119 0 -203 23l2 -17q38 -192 261 -192q145 0 317 73l21 -213q-175 -82 -363 -82q-228 0 -363 132t-135 360z M256 1335l344 213h197l270 -213l-141 -168l-238 211l-309 -211zM324 604q85 -18 174 -18q274 0 274 162q0 57 -41 91.5t-113 34.5q-107 0 -185.5 -73.5t-108.5 -196.5z" />
<glyph unicode="&#xeb;" horiz-adv-x="1069" d="M57 467q0 169 71 310t206 227t307 86q92 0 168.5 -27.5t125.5 -74t76 -106.5t27 -126q0 -84 -30.5 -149.5t-80.5 -107t-119 -68.5t-139.5 -37.5t-148.5 -10.5q-119 0 -203 23l2 -17q38 -192 261 -192q145 0 317 73l21 -213q-175 -82 -363 -82q-228 0 -363 132t-135 360z M305 1362q0 80 50.5 129t125.5 49q69 0 109.5 -40.5t40.5 -102.5q0 -79 -50 -128.5t-126 -49.5q-67 0 -108.5 41.5t-41.5 101.5zM324 604q85 -18 174 -18q274 0 274 162q0 57 -41 91.5t-113 34.5q-107 0 -185.5 -73.5t-108.5 -196.5zM737 1362q0 80 50.5 129t125.5 49 q69 0 109.5 -40.5t40.5 -102.5q0 -79 -50 -128.5t-126 -49.5q-67 0 -108.5 41.5t-41.5 101.5z" />
<glyph unicode="&#xec;" horiz-adv-x="555" d="M51 0l187 1065h266l-187 -1065h-266zM152 1417l114 228l447 -289l-92 -162z" />
<glyph unicode="&#xed;" horiz-adv-x="555" d="M51 0l187 1065h266l-187 -1065h-266zM152 1356l450 289l111 -228l-471 -223z" />
<glyph unicode="&#xee;" horiz-adv-x="555" d="M-4 1335l344 213h197l270 -213l-141 -168l-238 211l-309 -211zM51 0l187 1065h266l-187 -1065h-266z" />
<glyph unicode="&#xef;" horiz-adv-x="555" d="M45 1362q0 80 50.5 129t125.5 49q69 0 109.5 -40.5t40.5 -102.5q0 -79 -50 -128.5t-126 -49.5q-67 0 -108.5 41.5t-41.5 101.5zM51 0l187 1065h266l-187 -1065h-266zM477 1362q0 80 50.5 129t125.5 49q69 0 109.5 -40.5t40.5 -102.5q0 -79 -50 -128.5t-126 -49.5 q-67 0 -108.5 41.5t-41.5 101.5z" />
<glyph unicode="&#xf0;" horiz-adv-x="1120" d="M45 406q-1 104 36.5 197t99 157t141.5 101.5t165 37.5q106 0 186 -47t128 -127q3 28 0 61q0 218 -105 344l-129 -147l-151 135l129 113q-65 20 -135 20q-56 0 -109 -12l37 227q43 9 98 9q156 0 279 -66l157 180l152 -135l-166 -154q205 -189 205 -546 q0 -179 -43.5 -326.5t-121 -246t-184 -152.5t-231.5 -54q-186 0 -312.5 118.5t-125.5 312.5zM311 416q0 -98 53 -155.5t134 -57.5q99 0 170.5 84.5t101.5 251.5q-43 67 -103.5 106t-129.5 39q-101 0 -163.5 -74.5t-62.5 -193.5z" />
<glyph unicode="&#xf1;" horiz-adv-x="1204" d="M51 0l187 1065h225l-39 -201q61 106 156 166t219 60q137 0 220 -88.5t83 -227.5q0 -66 -15 -158l-108 -616h-266l112 641q11 67 11 107q0 56 -32 87t-89 31q-98 0 -190.5 -100.5t-125.5 -290.5l-82 -475h-266zM348 1352q76 84 140.5 126t134.5 42q43 0 80.5 -14.5t60 -32 t51.5 -32t57 -14.5q73 0 168 91l111 -142q-72 -83 -136.5 -125.5t-133.5 -42.5q-41 0 -78 15t-59.5 32.5t-53 32.5t-59.5 15q-71 0 -168 -93z" />
<glyph unicode="&#xf2;" horiz-adv-x="1216" d="M55 459q0 176 74.5 319.5t212.5 227.5t313 84q226 0 366 -137t140 -347q0 -176 -74.5 -319.5t-212.5 -227.5t-313 -84q-225 0 -365.5 137.5t-140.5 346.5zM326 467q0 -120 65.5 -194t177.5 -74q149 0 235.5 110t86.5 289q0 120 -65.5 194t-178.5 74q-149 0 -235 -109.5 t-86 -289.5zM469 1417l115 228l446 -289l-92 -162z" />
<glyph unicode="&#xf3;" horiz-adv-x="1216" d="M55 459q0 176 74.5 319.5t212.5 227.5t313 84q226 0 366 -137t140 -347q0 -176 -74.5 -319.5t-212.5 -227.5t-313 -84q-225 0 -365.5 137.5t-140.5 346.5zM326 467q0 -120 65.5 -194t177.5 -74q149 0 235.5 110t86.5 289q0 120 -65.5 194t-178.5 74q-149 0 -235 -109.5 t-86 -289.5zM469 1356l451 289l110 -228l-471 -223z" />
<glyph unicode="&#xf4;" horiz-adv-x="1216" d="M55 459q0 176 74.5 319.5t212.5 227.5t313 84q226 0 366 -137t140 -347q0 -176 -74.5 -319.5t-212.5 -227.5t-313 -84q-225 0 -365.5 137.5t-140.5 346.5zM311 1335l344 213h197l270 -213l-141 -168l-238 211l-309 -211zM326 467q0 -120 65.5 -194t177.5 -74 q149 0 235.5 110t86.5 289q0 120 -65.5 194t-178.5 74q-149 0 -235 -109.5t-86 -289.5z" />
<glyph unicode="&#xf5;" horiz-adv-x="1216" d="M55 459q0 176 74.5 319.5t212.5 227.5t313 84q226 0 366 -137t140 -347q0 -176 -74.5 -319.5t-212.5 -227.5t-313 -84q-225 0 -365.5 137.5t-140.5 346.5zM326 467q0 -120 65.5 -194t177.5 -74q149 0 235.5 110t86.5 289q0 120 -65.5 194t-178.5 74q-149 0 -235 -109.5 t-86 -289.5zM338 1352q76 84 140.5 126t133.5 42q43 0 81 -14.5t60.5 -32t51.5 -32t57 -14.5q73 0 168 91l111 -142q-145 -168 -271 -168q-41 0 -77.5 15t-59.5 32.5t-53 32.5t-59 15q-71 0 -168 -93z" />
<glyph unicode="&#xf6;" horiz-adv-x="1216" d="M55 459q0 176 74.5 319.5t212.5 227.5t313 84q226 0 366 -137t140 -347q0 -176 -74.5 -319.5t-212.5 -227.5t-313 -84q-225 0 -365.5 137.5t-140.5 346.5zM326 467q0 -120 65.5 -194t177.5 -74q149 0 235.5 110t86.5 289q0 120 -65.5 194t-178.5 74q-149 0 -235 -109.5 t-86 -289.5zM362 1362q0 80 51 129t126 49q69 0 109 -40.5t40 -102.5q0 -79 -50 -128.5t-126 -49.5q-67 0 -108.5 41.5t-41.5 101.5zM795 1362q0 80 50.5 129t125.5 49q69 0 109 -40.5t40 -102.5q0 -79 -50 -128.5t-126 -49.5q-67 0 -108 41.5t-41 101.5z" />
<glyph unicode="&#xf7;" horiz-adv-x="1228" d="M217 586l39 227h813l-39 -227h-813zM379 240q0 82 54.5 139t146.5 57q72 0 116.5 -44t44.5 -113q0 -80 -54.5 -137.5t-145.5 -57.5q-73 0 -117.5 44t-44.5 112zM537 1128q0 82 54 139.5t144 57.5q74 0 119 -44.5t45 -113.5q0 -81 -54.5 -137.5t-146.5 -56.5 q-73 0 -117 43.5t-44 111.5z" />
<glyph unicode="&#xf8;" horiz-adv-x="1216" d="M43 -121l172 223q-75 66 -117.5 159t-42.5 198q0 176 74.5 319.5t212.5 227.5t313 84q94 0 191 -33l147 246l183 -113l-177 -225q76 -66 119 -159t43 -200q0 -176 -74.5 -319.5t-212.5 -227.5t-313 -84q-100 0 -190 35l-144 -241zM322 467q0 -107 36 -172l369 565 q-33 8 -80 8q-152 0 -238.5 -110t-86.5 -291zM489 205q33 -8 80 -8q152 0 239 110t87 291q0 110 -37 172z" />
<glyph unicode="&#xf9;" horiz-adv-x="1181" d="M80 289q0 74 14 160l109 616h266l-113 -641q-10 -61 -10 -107q0 -55 32 -85.5t89 -30.5q101 0 181 92.5t110 259.5l90 512h266l-125 -698q-8 -50 -8 -72q0 -100 127 -100l-92 -205q-243 0 -260 205v8q-73 -119 -160.5 -173.5t-212.5 -54.5q-135 0 -219 88.5t-84 225.5z M442 1417l115 228l447 -289l-93 -162z" />
<glyph unicode="&#xfa;" horiz-adv-x="1181" d="M80 289q0 74 14 160l109 616h266l-113 -641q-10 -61 -10 -107q0 -55 32 -85.5t89 -30.5q101 0 181 92.5t110 259.5l90 512h266l-125 -698q-8 -50 -8 -72q0 -100 127 -100l-92 -205q-243 0 -260 205v8q-73 -119 -160.5 -173.5t-212.5 -54.5q-135 0 -219 88.5t-84 225.5z M442 1356l451 289l111 -228l-472 -223z" />
<glyph unicode="&#xfb;" horiz-adv-x="1181" d="M80 289q0 74 14 160l109 616h266l-113 -641q-10 -61 -10 -107q0 -55 32 -85.5t89 -30.5q101 0 181 92.5t110 259.5l90 512h266l-125 -698q-8 -50 -8 -72q0 -100 127 -100l-92 -205q-243 0 -260 205v8q-73 -119 -160.5 -173.5t-212.5 -54.5q-135 0 -219 88.5t-84 225.5z M287 1335l344 213h196l271 -213l-142 -168l-237 211l-309 -211z" />
<glyph unicode="&#xfc;" horiz-adv-x="1181" d="M80 289q0 74 14 160l109 616h266l-113 -641q-10 -61 -10 -107q0 -55 32 -85.5t89 -30.5q101 0 181 92.5t110 259.5l90 512h266l-125 -698q-8 -50 -8 -72q0 -100 127 -100l-92 -205q-243 0 -260 205v8q-73 -119 -160.5 -173.5t-212.5 -54.5q-135 0 -219 88.5t-84 225.5z M336 1362q0 80 50.5 129t125.5 49q69 0 109.5 -40.5t40.5 -102.5q0 -79 -50.5 -128.5t-126.5 -49.5q-67 0 -108 41.5t-41 101.5zM768 1362q0 80 50.5 129t125.5 49q69 0 109.5 -40.5t40.5 -102.5q0 -79 -50 -128.5t-126 -49.5q-67 0 -108.5 41.5t-41.5 101.5z" />
<glyph unicode="&#xfd;" horiz-adv-x="1157" d="M37 -334l129 176q120 -96 250 -96q98 0 162.5 61t93.5 211l30 172q-112 -190 -319 -190q-135 0 -218 85t-83 230q0 56 14 144l107 606h266l-109 -631q-8 -44 -8 -80q0 -60 34 -94.5t91 -34.5q92 0 172 95.5t113 287.5l82 457h266l-184 -1063q-45 -249 -178 -363 t-332 -114q-228 0 -379 141zM449 1356l450 289l111 -228l-471 -223z" />
<glyph unicode="&#xfe;" horiz-adv-x="1202" d="M-29 -451l332 1885h264l-96 -510q113 166 297 166q170 0 271.5 -126t101.5 -319q0 -149 -44.5 -277.5t-116.5 -213t-162 -132t-183 -47.5t-169.5 39.5t-127.5 110.5l-102 -576h-265zM375 334q33 -62 89 -97.5t124 -35.5q121 0 201.5 118.5t80.5 321.5q0 106 -43 166.5 t-122 60.5q-109 0 -193 -103t-113 -282z" />
<glyph unicode="&#xff;" horiz-adv-x="1157" d="M37 -334l129 176q120 -96 250 -96q98 0 162.5 61t93.5 211l30 172q-112 -190 -319 -190q-135 0 -218 85t-83 230q0 56 14 144l107 606h266l-109 -631q-8 -44 -8 -80q0 -60 34 -94.5t91 -34.5q92 0 172 95.5t113 287.5l82 457h266l-184 -1063q-45 -249 -178 -363 t-332 -114q-228 0 -379 141zM342 1362q0 80 50.5 129t125.5 49q69 0 109.5 -40.5t40.5 -102.5q0 -79 -50 -128.5t-126 -49.5q-67 0 -108.5 41.5t-41.5 101.5zM774 1362q0 80 50.5 129t125.5 49q69 0 109.5 -40.5t40.5 -102.5q0 -79 -50 -128.5t-126 -49.5q-67 0 -108.5 41.5 t-41.5 101.5z" />
<glyph unicode="&#x152;" horiz-adv-x="1789" d="M100 625q0 164 54.5 313.5t153 265.5t249 185t330.5 69q111 0 205 -24h796l-43 -234h-563l-57 -346h473l-41 -225h-473l-70 -396h563l-43 -233h-729q-95 -25 -178 -25q-194 0 -337.5 86t-216.5 232t-73 332zM393 625q0 -190 89.5 -302t258.5 -112q50 0 86 8l177 991 q-58 15 -134 15q-146 0 -256 -82t-165.5 -217t-55.5 -301z" />
<glyph unicode="&#x153;" horiz-adv-x="1900" d="M55 459q0 176 74.5 319.5t211.5 227.5t310 84q136 0 240 -61.5t151 -170.5q142 232 431 232q181 0 286 -100t105 -247q0 -74 -25 -134t-66.5 -99.5t-97.5 -66.5t-114.5 -38.5t-120.5 -11.5q-187 0 -307 84l4 -33q13 -133 82 -190t194 -57q148 0 316 77l20 -217 q-179 -82 -377 -82q-283 0 -393 234q-137 -234 -440 -234q-211 0 -347.5 138t-136.5 346zM326 467q0 -121 63.5 -194.5t171.5 -73.5q144 0 228.5 110t84.5 289q0 121 -64.5 194.5t-172.5 73.5q-143 0 -227 -110t-84 -289zM1165 674q113 -80 246 -80q88 0 138 39.5t50 109.5 q0 59 -41 95t-110 36q-96 0 -164 -49.5t-119 -150.5z" />
<glyph unicode="&#x178;" horiz-adv-x="1214" d="M-12 96l129 176q81 -63 182 -63q71 0 124.5 40t98.5 126l41 78l-284 639q-29 64 -66 90t-100 26l71 226q146 0 216.5 -59t140.5 -232l182 -449l410 760l227 -121l-574 -1001q-115 -200 -227.5 -277.5t-265.5 -77.5q-180 0 -305 119zM430 1710q0 80 50.5 129t125.5 49 q69 0 109.5 -40.5t40.5 -102.5q0 -79 -50 -128.5t-126 -49.5q-67 0 -108.5 41.5t-41.5 101.5zM862 1710q0 80 50.5 129t125.5 49q69 0 109.5 -40.5t40.5 -102.5q0 -79 -50 -128.5t-126 -49.5q-67 0 -108.5 41.5t-41.5 101.5z" />
<glyph unicode="&#x2c6;" horiz-adv-x="933" d="M203 1335l344 213h196l271 -213l-142 -168l-237 211l-309 -211z" />
<glyph unicode="&#x2dc;" horiz-adv-x="919" d="M205 1352q76 84 140.5 126t133.5 42q43 0 81 -14.5t60.5 -32t51.5 -32t57 -14.5q73 0 168 91l111 -142q-145 -168 -271 -168q-41 0 -78 15t-59.5 32.5t-53 32.5t-59.5 15q-71 0 -168 -93z" />
<glyph unicode="&#x2000;" horiz-adv-x="991" />
<glyph unicode="&#x2001;" horiz-adv-x="1982" />
<glyph unicode="&#x2002;" horiz-adv-x="991" />
<glyph unicode="&#x2003;" horiz-adv-x="1982" />
<glyph unicode="&#x2004;" horiz-adv-x="660" />
<glyph unicode="&#x2005;" horiz-adv-x="495" />
<glyph unicode="&#x2006;" horiz-adv-x="330" />
<glyph unicode="&#x2007;" horiz-adv-x="330" />
<glyph unicode="&#x2008;" horiz-adv-x="247" />
<glyph unicode="&#x2009;" horiz-adv-x="396" />
<glyph unicode="&#x200a;" horiz-adv-x="110" />
<glyph unicode="&#x2010;" horiz-adv-x="1019" d="M147 586l41 227h744l-41 -227h-744z" />
<glyph unicode="&#x2011;" horiz-adv-x="1019" d="M147 586l41 227h744l-41 -227h-744z" />
<glyph unicode="&#x2012;" horiz-adv-x="1019" d="M147 586l41 227h744l-41 -227h-744z" />
<glyph unicode="&#x2013;" horiz-adv-x="1251" d="M147 586l39 227h975l-39 -227h-975z" />
<glyph unicode="&#x2014;" horiz-adv-x="1546" d="M147 586l41 227h1268l-41 -227h-1268z" />
<glyph unicode="&#x2018;" horiz-adv-x="509" d="M193 1196q0 128 83 235t232 168l49 -104q-65 -41 -102 -83.5t-47 -98.5q66 -1 103.5 -37t37.5 -92q0 -74 -51 -120t-131 -46q-76 0 -125 47t-49 131z" />
<glyph unicode="&#x2019;" horiz-adv-x="509" d="M209 1063q65 41 102 83.5t47 98.5q-64 0 -101.5 36.5t-37.5 92.5q0 74 51 120t133 46q75 0 123.5 -47t48.5 -131q0 -129 -83 -236t-232 -168z" />
<glyph unicode="&#x201a;" horiz-adv-x="526" d="M23 -186q65 41 102 83.5t47 98.5q-65 1 -102 37.5t-37 91.5q0 75 51 121.5t133 46.5q74 0 123 -48t49 -130q0 -129 -83 -237t-232 -169z" />
<glyph unicode="&#x201c;" horiz-adv-x="944" d="M193 1196q0 128 83 235t232 168l49 -104q-65 -41 -102 -83.5t-47 -98.5q66 -1 103.5 -37t37.5 -92q0 -74 -51 -120t-131 -46q-76 0 -125 47t-49 131zM629 1196q0 128 82.5 235t232.5 168l49 -104q-65 -41 -102 -83.5t-47 -98.5q65 -1 102 -37.5t37 -91.5 q0 -75 -50 -120.5t-132 -45.5q-75 0 -123.5 47t-48.5 131z" />
<glyph unicode="&#x201d;" horiz-adv-x="944" d="M209 1063q65 41 102 83.5t47 98.5q-64 0 -101.5 36.5t-37.5 92.5q0 74 51 120t133 46q75 0 123.5 -47t48.5 -131q0 -129 -83 -236t-232 -168zM645 1063q66 41 103 83.5t47 98.5q-66 0 -104 36.5t-38 92.5q0 73 51.5 119.5t133.5 46.5q75 0 123.5 -47t48.5 -131 q0 -129 -83.5 -236t-232.5 -168z" />
<glyph unicode="&#x201e;" horiz-adv-x="960" d="M23 -184q65 41 102 83.5t47 98.5q-64 0 -101.5 36.5t-37.5 92.5q0 74 51 120t133 46q75 0 123.5 -47t48.5 -131q0 -129 -83 -236t-232 -168zM457 -184q65 41 102 83.5t47 98.5q-64 0 -101.5 36.5t-37.5 92.5q0 74 51 120t133 46q75 0 123.5 -47t48.5 -131 q0 -129 -83 -236t-232 -168z" />
<glyph unicode="&#x2022;" horiz-adv-x="933" d="M164 727q0 130 83.5 215.5t219.5 85.5q133 0 218 -86t85 -215q0 -130 -83.5 -215.5t-219.5 -85.5q-135 0 -219 86t-84 215z" />
<glyph unicode="&#x2026;" horiz-adv-x="1845" d="M57 133q0 80 54.5 137.5t146.5 57.5q73 0 117.5 -44t44.5 -114q0 -80 -54.5 -137.5t-146.5 -57.5q-73 0 -117.5 44t-44.5 114zM672 133q0 80 54.5 137.5t145.5 57.5q73 0 117.5 -44t44.5 -114q0 -80 -54.5 -137.5t-145.5 -57.5q-73 0 -117.5 44t-44.5 114zM1286 133 q0 80 54.5 137.5t146.5 57.5q73 0 117.5 -44t44.5 -114q0 -80 -54.5 -137.5t-146.5 -57.5q-73 0 -117.5 44t-44.5 114z" />
<glyph unicode="&#x202f;" horiz-adv-x="396" />
<glyph unicode="&#x2039;" horiz-adv-x="749" d="M158 647l22 115l389 397l148 -160l-338 -311l219 -309l-188 -129z" />
<glyph unicode="&#x203a;" horiz-adv-x="749" d="M88 410l338 311l-219 309l188 129l252 -397l-22 -115l-389 -397z" />
<glyph unicode="&#x205f;" horiz-adv-x="495" />
<glyph unicode="&#x20ac;" horiz-adv-x="1234" d="M63 449l35 192h162l19 111h-162l33 194h178q80 222 251 355t412 133q194 0 369 -103l-98 -194q-140 75 -273 75q-132 0 -232 -72t-155 -194h479l-34 -194h-496l-19 -111h453l-35 -192h-422q25 -123 100.5 -187.5t194.5 -64.5q81 0 146.5 19t142.5 56l51 -204 q-56 -27 -99.5 -44.5t-118.5 -33t-154 -15.5q-219 0 -361.5 128t-175.5 346h-191z" />
<glyph unicode="&#x2122;" horiz-adv-x="1843" d="M182 1370l33 186h715l-33 -186h-240l-114 -653h-234l115 653h-242zM825 717l148 839h276l101 -436l243 436h297l-147 -839h-230l93 514l-224 -367h-147l-96 363l-88 -510h-226z" />
<glyph unicode="&#x25fc;" horiz-adv-x="1085" d="M0 0v1085h1085v-1085h-1085z" />
</font>
</defs>
</svg>
