<?xml version="1.0" standalone="no"?>
<!DOCTYPE svg PUBLIC "-//W3C//DTD SVG 1.1//EN" "http://www.w3.org/Graphics/SVG/1.1/DTD/svg11.dtd" >
<svg xmlns="http://www.w3.org/2000/svg">
<metadata></metadata>
<defs>
<font id="abezeh_slabregular" horiz-adv-x="1228" >
<font-face units-per-em="2048" ascent="1638" descent="-410" />
<missing-glyph horiz-adv-x="614" />
<glyph unicode="&#xfb01;" horiz-adv-x="1226" d="M51 850v143h166v162q0 163 103.5 274t269.5 111q76 0 144.5 -14.5t112 -32t126.5 -55.5l16 -244h-133q-26 93 -33 154q-95 36 -223 36q-97 0 -153 -66t-56 -163v-162h629l-174 -143h-455v-741q63 -3 101 -33v-76h-275v850h-166zM848 0v850l174 143v-884q62 -3 100 -33 v-76h-274z" />
<glyph unicode="&#xfb02;" horiz-adv-x="1400" d="M51 850v143h166v193q0 160 103 257t274 97q197 0 418 -115v-1089q0 -205 178 -205q45 0 65 2q5 44 25 121h90l10 -236q-92 -43 -204 -43q-69 0 -128 18.5t-107 56.5t-75.5 103t-27.5 150v1038q-131 43 -234 43q-105 0 -159 -51.5t-54 -146.5v-193h283l-23 -143h-260v-741 q63 -3 101 -33v-76h-275v850h-166z" />
<glyph unicode="&#xfb03;" horiz-adv-x="1880" d="M61 850v98q69 32 164 41v146q0 178 103 279.5t278 101.5q171 0 357 -99q107 123 280 123q76 0 144.5 -14.5t112 -32t126.5 -55.5l16 -244h-133q-24 86 -32 154q-95 36 -226 36q-97 0 -153 -66t-56 -163v-162h631v-884q63 -3 101 -33v-76h-275v850h-457v-741 q63 -3 101 -33v-76h-275v850h-469v-741q63 -3 101 -33v-76h-275v850h-164zM399 993h469v162q0 81 27 148q-151 63 -279 63q-104 0 -160.5 -56.5t-56.5 -156.5v-160z" />
<glyph unicode="&#xfb04;" horiz-adv-x="2045" d="M51 850v98q73 33 166 41v146q0 179 102 280t277 101q168 0 342 -91q103 115 291 115q197 0 418 -115l-2 -4v-1085q0 -205 178 -205q47 0 65 2q4 28 25 121h92l8 -236q-92 -43 -205 -43q-69 0 -128 18.5t-107 56.5t-75.5 103t-27.5 150v1038q-120 43 -231 43 q-105 0 -159 -51.5t-54 -146.5v-193h283l-23 -143h-260v-741q62 -3 100 -33v-76h-274v850h-461v-741q63 -3 101 -33v-76h-275v850h-166zM391 993h461v193q0 68 18 123q-135 57 -262 57q-104 0 -160.5 -56.5t-56.5 -156.5v-160z" />
<glyph horiz-adv-x="2048" />
<glyph horiz-adv-x="2048" />
<glyph unicode="&#xd;" horiz-adv-x="2048" />
<glyph unicode=" "  horiz-adv-x="614" />
<glyph unicode="&#x09;" horiz-adv-x="614" />
<glyph unicode="&#xa0;" horiz-adv-x="614" />
<glyph unicode="!" horiz-adv-x="634" d="M186 106q0 59 35.5 95.5t95.5 36.5q57 0 94.5 -37t37.5 -95t-36.5 -94.5t-95.5 -36.5q-56 0 -93.5 37t-37.5 94zM219 967v526h195v-526l-27 -551h-143z" />
<glyph unicode="&#x22;" horiz-adv-x="745" d="M125 1434h168l-14 -453h-138zM453 1434h168l-17 -453h-137z" />
<glyph unicode="#" horiz-adv-x="1378" d="M84 281l22 141h189l84 475h-186l22 141h191l51 281h155l-53 -281h393l52 281h153l-51 -281h188l-22 -141h-191l-84 -475h187l-23 -141h-188l-47 -281h-154l45 281h-391l-45 -281h-156l45 281h-186zM451 422h391l84 475h-391z" />
<glyph unicode="$" horiz-adv-x="1052" d="M100 172l9 244h96q21 -81 26 -170q139 -66 312 -66q132 0 213.5 57.5t81.5 159.5q0 65 -24.5 107.5t-94.5 83t-203 84.5q-204 66 -290.5 149t-86.5 226q0 136 100 224.5t269 100.5l-14 246h170l-17 -248q165 -15 332 -104q0 -90 -35 -238h-106l14 156q-132 51 -293 51 q-117 0 -185.5 -49.5t-68.5 -132.5q0 -59 23.5 -98t86.5 -75t183 -75q229 -74 317.5 -163t88.5 -236q0 -150 -101.5 -245t-275.5 -116l16 -248h-172l16 244q-220 11 -387 131z" />
<glyph unicode="%" horiz-adv-x="2009" d="M113 1004q0 213 90.5 328.5t257.5 115.5q67 0 123 -21l219 11v-74q-44 -26 -96 -23q100 -118 100 -346q0 -212 -91.5 -328t-258.5 -116t-255.5 118.5t-88.5 334.5zM272 1004q0 -157 49.5 -240.5t139.5 -83.5q91 0 138.5 73.5t47.5 241.5q0 157 -49 241.5t-139 84.5 q-91 0 -139 -74.5t-48 -242.5zM498 -8l897 1524l116 -74l-897 -1524zM1198 438q0 213 90.5 329t257.5 116q68 0 123 -21l221 10v-73q-48 -27 -98 -21q100 -121 100 -348q0 -212 -91.5 -328t-258.5 -116t-255.5 118t-88.5 334zM1360 438q0 -157 48.5 -240t137.5 -83 q91 0 139 73.5t48 241.5q0 157 -49.5 241.5t-139.5 84.5t-137 -74.5t-47 -243.5z" />
<glyph unicode="&#x26;" horiz-adv-x="1554" d="M168 371q0 128 68.5 230.5t218.5 186.5q-82 87 -118 161t-36 167q0 148 98 245t260 97q155 0 248.5 -91.5t93.5 -225.5q0 -122 -74.5 -209.5t-244.5 -173.5l344 -377q87 168 139 356q-51 16 -84 43l19 78l319 -57l-10 -74q-42 -20 -100 -14q-66 -241 -174 -430l159 -162 l17 -2q54 6 102 -15l14 -79l-227 -39l-160 176q-172 -187 -428 -187q-190 0 -317 109t-127 287zM350 385q0 -112 76 -181t201 -69q179 0 313 127l-399 432q-100 -68 -145.5 -139t-45.5 -170zM461 1118q0 -139 135 -268q133 64 188.5 130t55.5 157q0 80 -50 131t-135 51 q-86 0 -140 -57t-54 -144z" />
<glyph unicode="'" horiz-adv-x="415" d="M125 1434h168l-17 -451h-137z" />
<glyph unicode="(" horiz-adv-x="620" d="M115 655q0 246 71.5 464t216.5 446l103 -60q-207 -394 -207 -850q0 -446 207 -850l-103 -59q-145 237 -216.5 456.5t-71.5 452.5z" />
<glyph unicode=")" horiz-adv-x="620" d="M115 -195q209 408 209 850q0 452 -209 850l102 60q146 -227 217.5 -445.5t71.5 -464.5q0 -234 -71.5 -453.5t-217.5 -455.5z" />
<glyph unicode="*" horiz-adv-x="913" d="M115 1208l47 148l235 -94l-16 254h156l-19 -250l236 90l45 -146l-240 -61l158 -197l-123 -88l-133 213l-139 -215l-121 90l155 193z" />
<glyph unicode="+" d="M217 627v151h315v336h166v-336h314v-151h-314v-336h-166v336h-315z" />
<glyph unicode="," horiz-adv-x="614" d="M70 -266q80 102 128 206.5t76 237.5l170 -47q-42 -299 -278 -453z" />
<glyph unicode="-" horiz-adv-x="1024" d="M166 623v159h692v-159h-692z" />
<glyph unicode="." horiz-adv-x="614" d="M176 106q0 59 35.5 95.5t95.5 36.5q56 0 93.5 -37t37.5 -95t-36 -94.5t-95 -36.5q-56 0 -93.5 37t-37.5 94z" />
<glyph unicode="/" horiz-adv-x="921" d="M100 -96l578 1679l143 -49l-577 -1679z" />
<glyph unicode="0" horiz-adv-x="1251" d="M135 707q0 351 128 539t364 188q82 0 161 -29l312 18v-86q-56 -38 -162 -32q178 -187 178 -603q0 -351 -128 -539t-363 -188q-237 0 -363.5 190.5t-126.5 541.5zM322 709q0 -281 79.5 -427.5t223.5 -146.5q73 0 127.5 29t95 94t61.5 175.5t21 266.5q0 292 -79 434 t-226 142q-72 0 -126 -29.5t-94.5 -94.5t-61.5 -176t-21 -267z" />
<glyph unicode="1" horiz-adv-x="925" d="M63 1149l422 266l131 -12v-1243h125q74 0 121 -33v-127h-717v127q47 33 121 33h176v1034l-301 -178z" />
<glyph unicode="2" horiz-adv-x="1044" d="M84 74q0 99 28 187.5t74.5 154t105.5 127.5t120.5 110t120.5 99t105.5 96.5t74.5 101t28 113.5q0 104 -64.5 161.5t-176.5 57.5q-139 0 -246 -61l12 -197h-114q-37 127 -37 270q164 140 393 140q194 0 307 -101.5t113 -263.5q0 -81 -33.5 -154.5t-88.5 -131.5t-121 -114 t-134 -112t-125.5 -114t-97.5 -132t-47 -155h516q6 82 22 141h101l10 -297h-840q-6 38 -6 74z" />
<glyph unicode="3" horiz-adv-x="1056" d="M94 90l10 248h95q19 -76 24 -152q99 -51 256 -51q133 0 210 67t77 191q0 130 -88.5 200.5t-257.5 70.5h-131l18 143h109q152 0 231.5 63.5t79.5 184.5q0 107 -66.5 167t-181.5 60q-122 0 -237 -47l10 -180h-109q-37 138 -37 262q167 117 383 117q192 0 306 -104t114 -265 q0 -132 -70 -210t-186 -110q58 -9 110 -34.5t95 -67.5t68.5 -105.5t25.5 -140.5q0 -194 -130.5 -308t-340.5 -114q-213 0 -387 115z" />
<glyph unicode="4" horiz-adv-x="1128" d="M82 317v140l422 966l158 -63l-383 -883h421l21 383l153 19v-402h173l-21 -160h-152v-206h7q62 0 104 -33v-78h-391v78q42 33 104 33h2v206h-618z" />
<glyph unicode="5" horiz-adv-x="1089" d="M104 1331v82l105 -4h733q3 -146 -37 -299h-119l13 141h-426v-395h123q235 0 367 -115.5t132 -314.5q0 -202 -135.5 -326.5t-351.5 -124.5q-229 0 -387 117l8 246h96q21 -88 23 -162q113 -41 256 -41q142 0 223.5 76.5t81.5 208.5q0 138 -85.5 210t-252.5 72h-262v596 q-67 7 -105 33z" />
<glyph unicode="6" horiz-adv-x="1193" d="M125 573q0 178 46 328t136.5 265.5t238 181t337.5 65.5q12 0 98 -4q-2 -135 -49 -283h-113l15 146q-235 -26 -363 -165t-158 -390q139 176 357 176q179 0 295 -119t116 -311q0 -224 -131.5 -356t-337.5 -132q-99 0 -185.5 36.5t-154.5 107.5t-107.5 187.5t-39.5 266.5z M309 555q0 -207 82 -313.5t225 -106.5q128 0 204.5 83.5t76.5 230.5q0 136 -69.5 213t-188.5 77q-197 0 -330 -184z" />
<glyph unicode="7" horiz-adv-x="1028" d="M74 1409h778l154 10v-149q-179 -176 -280 -333t-153 -354.5t-59 -471.5q57 -3 94 -33v-78h-391v78q38 30 96 33q7 203 39.5 366.5t95 299.5t141.5 245.5t195 228.5h-559l13 -143h-121q-43 145 -43 301z" />
<glyph unicode="8" horiz-adv-x="1204" d="M104 371q0 256 316 387q-122 62 -182 138.5t-60 188.5q0 153 121 251t297 98q91 0 176 -29l315 18v-86q-57 -37 -155 -32q92 -92 92 -220q0 -116 -64 -193t-184 -134q161 -69 242.5 -161t81.5 -224q0 -177 -139.5 -287.5t-348.5 -110.5q-227 0 -367.5 113.5t-140.5 282.5 zM287 383q0 -112 92.5 -182t234.5 -70q132 0 218 67.5t86 172.5q0 101 -84.5 177t-247.5 134q-128 -33 -213.5 -112.5t-85.5 -186.5zM352 1087q0 -89 71.5 -157t197.5 -107q100 33 164.5 99t64.5 155q0 99 -69.5 156t-184.5 57q-106 0 -175 -56t-69 -147z" />
<glyph unicode="9" horiz-adv-x="1177" d="M115 977q0 193 126.5 325t329.5 132q238 0 353.5 -163.5t115.5 -504.5q0 -174 -24 -308.5t-67.5 -225t-107.5 -148.5t-139.5 -83.5t-169.5 -25.5q-104 0 -187 36t-161 106l9 223h94q16 -63 22 -147q98 -58 226 -58q323 0 323 559q-140 -147 -323 -147q-82 0 -156.5 27.5 t-134 80t-94.5 136t-35 186.5zM295 981q0 -139 71.5 -214t192.5 -75q172 0 299 148q-3 438 -283 438q-130 0 -205 -80t-75 -217z" />
<glyph unicode=":" horiz-adv-x="614" d="M176 106q0 59 35.5 95.5t95.5 36.5q56 0 93.5 -37t37.5 -95t-36 -94.5t-95 -36.5q-56 0 -93.5 37t-37.5 94zM176 895q0 59 35.5 95t95.5 36q56 0 93.5 -36.5t37.5 -94.5t-36 -94.5t-95 -36.5q-56 0 -93.5 37t-37.5 94z" />
<glyph unicode=";" horiz-adv-x="645" d="M70 -266q80 102 128 206.5t76 237.5l170 -47q-42 -299 -278 -453zM205 895q0 59 35.5 95t95.5 36q56 0 93.5 -36.5t37.5 -94.5t-36 -94.5t-95 -36.5q-56 0 -93.5 37t-37.5 94z" />
<glyph unicode="&#x3c;" d="M246 647v111l653 409l86 -135l-536 -330l536 -327l-88 -137z" />
<glyph unicode="=" d="M227 442v152h774v-152h-774zM227 813v154h774v-154h-774z" />
<glyph unicode="&#x3e;" d="M254 375l537 327l-537 330l86 135l653 -409v-111l-651 -409z" />
<glyph unicode="?" horiz-adv-x="1005" d="M94 1366q181 174 420 174q171 0 279 -96t108 -238q0 -70 -22.5 -129.5t-58 -101.5t-79 -79.5t-86.5 -74t-78.5 -76t-58 -93t-22.5 -117.5v-117h-150q-20 64 -20 151q0 70 21.5 130t55.5 102.5t75.5 80.5t82.5 72.5t75 69.5t55.5 80t21.5 96q0 83 -55.5 132.5t-153.5 49.5 q-161 0 -268 -79l18 -203h-123q-14 58 -19.5 84t-11.5 77t-6 105zM299 106q0 59 35.5 95.5t95.5 36.5q57 0 94 -37t37 -95t-36 -94.5t-95 -36.5q-56 0 -93.5 37t-37.5 94z" />
<glyph unicode="@" horiz-adv-x="2150" d="M150 434q0 202 71.5 386.5t198.5 323.5t315 221.5t408 82.5q188 0 349 -62t271.5 -169.5t173 -255t62.5 -316.5q0 -196 -60 -349.5t-166 -237t-239 -83.5q-103 0 -167.5 47t-74.5 134q-63 -76 -135.5 -116t-171.5 -40q-132 0 -220.5 79t-88.5 208q0 132 97.5 212.5 t250.5 80.5q95 0 244 -35v61q0 215 -228 215q-68 0 -168 -14l7 -100h-97q-30 123 -30 211q161 49 311 49q173 0 275 -87t102 -270v-381q0 -129 108 -129q116 0 194.5 148t78.5 391q0 292 -188 472.5t-488 180.5q-153 0 -286.5 -48t-229 -130.5t-164.5 -191t-103 -231.5 t-34 -251q0 -181 54.5 -324t152 -235.5t230.5 -141t292 -48.5q147 0 267.5 32.5t240.5 92.5l57 -144q-258 -137 -569 -137q-194 0 -359 61t-286 173.5t-189.5 283.5t-68.5 381zM850 289q0 -70 42 -107t116 -37q138 0 260 131v134q-126 32 -186 36q-26 1 -52 0 q-85 -2 -132.5 -42.5t-47.5 -114.5z" />
<glyph unicode="A" horiz-adv-x="1376" d="M-61 37l14 80q33 18 77 18q13 0 27 -2l6 -2l490 1196q-62 4 -100 29v63l338 23l526 -1309h2q14 2 27 2q43 0 75 -18l15 -80l-355 -62l-18 82q29 26 74 39l-117 297h-668l-116 -295q50 -17 77 -41l-18 -82zM412 549h546l-268 717z" />
<glyph unicode="B" horiz-adv-x="1323" d="M125 23v75q47 33 104 33v1176q-67 7 -104 32v74q266 37 510 37q256 0 402.5 -107t146.5 -278q0 -214 -250 -307q295 -93 295 -350q0 -197 -156.5 -310.5t-449.5 -113.5q-278 0 -498 39zM414 137h217q200 0 304.5 68t104.5 198q0 127 -100.5 196t-284.5 69h-241v-531z M414 811h233q160 0 255 64t95 182q0 119 -93.5 181t-262.5 62h-227v-489z" />
<glyph unicode="C" horiz-adv-x="1230" d="M104 711q0 218 81 387t234 264.5t357 95.5q197 0 383 -88l-2 -4q0 -156 -37 -291h-119l17 191q-118 32 -242 32q-218 0 -349.5 -154.5t-131.5 -424.5q0 -266 125 -424t340 -158q147 0 254 39q5 87 26 176h103l8 -268l2 -4q-184 -105 -397 -105q-296 0 -474 199.5 t-178 536.5z" />
<glyph unicode="D" horiz-adv-x="1439" d="M125 23v75q42 33 104 33v1176q-67 7 -104 32v74q258 37 477 37q148 0 270 -37.5t207 -104t143.5 -159t85.5 -200.5t27 -230q0 -123 -26.5 -230.5t-84 -201t-143 -160.5t-210.5 -105t-279 -38q-258 0 -467 39zM414 143q63 -2 190 -2q139 0 244 42.5t169 120.5t96 182 t32 233q0 125 -32 227.5t-95 180.5t-166 121.5t-236 43.5q-136 0 -202 -2v-1147z" />
<glyph unicode="E" horiz-adv-x="1179" d="M125 0v84q47 33 104 33v1206q-66 6 -104 33v82l104 -4h856q0 -138 -36 -304h-119l12 148h-528v-455h463l102 6l-21 -157h-544v-516h538q6 76 23 141h100l10 -297h-960z" />
<glyph unicode="F" horiz-adv-x="1130" d="M125 0v78q42 33 104 33v1212q-66 6 -104 33v82l104 -4h850q0 -148 -39 -304h-116l12 148h-522v-473h434l100 4l-20 -156h-514v-542q60 0 102 -33v-78h-391z" />
<glyph unicode="G" horiz-adv-x="1411" d="M104 688q0 225 78 399t227.5 272.5t348.5 98.5q225 0 422 -115q0 -109 -37 -268h-119l14 178q-133 45 -276 45q-210 0 -337.5 -159.5t-127.5 -446.5q0 -262 112 -408.5t304 -146.5q206 0 358 152v338l-311 -11l18 156h477l103 8v-84q-35 -27 -103 -34v-545q56 0 103 -33 v-84h-256l-19 147q-188 -172 -393 -172q-127 0 -235.5 50.5t-186 141.5t-121 225t-43.5 296z" />
<glyph unicode="H" horiz-adv-x="1527" d="M125 0v78q42 33 104 33v1220q-71 7 -104 33v74l391 -8v-74q-36 -28 -102 -31v-508h700v508q-66 3 -102 31v74l391 8v-74q-33 -26 -105 -33v-1220q63 0 105 -33v-78h-391v78q42 33 102 33v546h-700v-546q60 0 102 -33v-78h-391z" />
<glyph unicode="I" horiz-adv-x="643" d="M125 0v78q42 33 104 33v1214q-68 3 -104 31v74l391 8v-74q-29 -26 -102 -33v-1220q60 0 102 -33v-78h-391z" />
<glyph unicode="J" horiz-adv-x="929" d="M33 92l10 227h94q23 -70 29 -151q76 -33 174 -33q100 0 157.5 70t57.5 215v905q-64 3 -100 31v74l391 8v-74q-33 -26 -105 -33h-2v-928q0 -205 -109 -316.5t-286 -111.5q-184 0 -311 117z" />
<glyph unicode="K" horiz-adv-x="1288" d="M125 0v78q42 33 102 33v1220q-68 7 -102 33v74l391 -8v-74q-36 -28 -102 -31h-2v-557l528 563q-49 18 -70 39l17 76l346 -64l-10 -73q-36 -19 -80 -19q-13 0 -27 2l-530 -565l622 -594q11 1 22 1q39 0 75 -17l14 -80l-354 -62l-21 82q17 17 62 35l-594 557v-538h2 q60 0 102 -33v-78h-391z" />
<glyph unicode="L" horiz-adv-x="1079" d="M125 1364v74l391 -8v-74q-36 -28 -102 -31h-2v-1159h534q5 60 21 131h102l8 -297h-850v1331q-68 7 -102 33z" />
<glyph unicode="M" horiz-adv-x="1792" d="M125 0v78q42 33 104 33v1208q-66 3 -104 33v73l358 15l412 -959l408 959l260 -10l102 -5v-73q-33 -30 -102 -33v-1208q60 0 102 -33v-78h-391v78q42 33 104 33v1106l-383 -902l-192 -22l-400 924v-1106h11q60 0 102 -33v-78h-391z" />
<glyph unicode="N" horiz-adv-x="1531" d="M125 0v78q42 33 104 33h4v1208q-66 3 -104 33v73l348 15l651 -1223v1108h-10q-66 3 -102 31v74l391 8v-74q-33 -26 -104 -33v-1315l-238 -30l-657 1220v-1095h6q60 0 102 -33v-78h-391z" />
<glyph unicode="O" horiz-adv-x="1558" d="M104 719q0 211 79.5 377.5t234 264t360.5 97.5q155 0 283.5 -58t213.5 -158.5t132 -235t47 -287.5q0 -155 -47 -290.5t-132 -236t-213.5 -159t-283.5 -58.5q-154 0 -282.5 58.5t-213.5 159.5t-131.5 236.5t-46.5 289.5zM295 719q0 -116 33 -221t93 -186t152.5 -129 t204.5 -48q156 0 267 76t165 206.5t54 301.5q0 114 -33.5 218.5t-94 185.5t-153.5 129t-205 48q-149 0 -259.5 -76t-167 -206.5t-56.5 -298.5z" />
<glyph unicode="P" horiz-adv-x="1234" d="M125 0v78q42 33 104 33v1196q-67 7 -104 32v74q289 37 489 37q277 0 427.5 -122.5t150.5 -326.5q0 -233 -164 -358t-448 -125q-98 0 -166 8v-415q60 0 102 -33v-78h-391zM414 682q90 -8 190 -8q195 0 299.5 81.5t104.5 233.5q0 146 -100.5 225.5t-291.5 79.5h-202v-612z " />
<glyph unicode="Q" horiz-adv-x="1560" d="M104 719q0 157 46.5 292.5t131 234.5t211 155.5t279.5 56.5q152 0 279.5 -58t213 -158.5t132.5 -235t47 -287.5q0 -195 -80.5 -362.5t-224.5 -268.5q36 -63 79.5 -89t106.5 -26h33q6 89 26 158h103l8 -235q-78 -46 -182 -46q-100 0 -170 40t-123 133q-118 -48 -248 -48 q-202 0 -356 101t-233 269t-79 374zM295 719q0 -160 55.5 -291.5t165.5 -213t256 -81.5q100 0 176 27l-110 241l147 58l88 -234q180 143 180 494q0 114 -33.5 218.5t-93.5 185.5t-152 129t-202 48q-146 0 -255.5 -76t-165.5 -206.5t-56 -298.5z" />
<glyph unicode="R" horiz-adv-x="1320" d="M125 1339v74q260 37 481 37q274 0 417.5 -110t143.5 -291q0 -156 -87 -243t-251 -130q87 -25 147 -85.5t124 -193.5l127 -264q13 2 24 2q39 0 70 -18l14 -80l-354 -62l-20 82q23 21 73 39l-131 271q-62 131 -138.5 191t-195.5 60h-155v-507h2q60 0 102 -33v-78h-391v78 q42 33 102 33v1196q-67 7 -104 32zM414 774h200q173 0 270 68.5t97 199.5q0 252 -365 252h-202v-520z" />
<glyph unicode="S" horiz-adv-x="1159" d="M74 123l8 270h108q21 -89 29 -186q148 -74 344 -74q148 0 239 63.5t91 176.5q0 54 -14 92.5t-53.5 75t-109 69t-181.5 68.5q-227 74 -322.5 166t-95.5 250q0 163 127 263.5t340 100.5q135 0 245 -31t220 -88q0 -120 -39 -266h-119l16 174q-153 56 -323 56 q-131 0 -208 -54.5t-77 -146.5q0 -65 26 -108.5t96.5 -84t203.5 -84.5q255 -82 353.5 -180.5t98.5 -261.5q0 -189 -142.5 -298.5t-379.5 -109.5q-273 0 -481 148z" />
<glyph unicode="T" horiz-adv-x="1159" d="M2 1430l1155 8q0 -147 -39 -303h-117l11 149l-346 -2v-1171q62 0 104 -33v-78h-391v78q42 33 102 33v1171l-336 -2l13 -154h-117q-39 156 -39 304z" />
<glyph unicode="U" horiz-adv-x="1435" d="M84 1364v74l391 -8v-74q-36 -28 -102 -31v-813q0 -176 89 -275.5t257 -99.5t259 100.5t91 274.5v813h-6q-66 3 -102 31v74l391 8v-74q-33 -26 -105 -33v-823q0 -250 -143.5 -391.5t-384.5 -141.5q-243 0 -387 141t-144 392v823q-71 7 -104 33z" />
<glyph unicode="V" horiz-adv-x="1286" d="M-59 1395l346 63l16 -76q-23 -23 -76 -41l416 -1142l420 1142q-48 12 -80 41l16 76l349 -63l-13 -74q-35 -17 -74 -17q-11 0 -22 1l-496 -1305h-206l-500 1303q-51 0 -86 18z" />
<glyph unicode="W" horiz-adv-x="1937" d="M-31 1395l348 63l17 -76q-29 -26 -74 -39l307 -1146l287 1085l236 23l294 -1108l304 1142q-60 21 -82 43l16 76l346 -63l-10 -74q-35 -16 -80 -16h-14l-369 -1305h-227l-297 1124l-295 -1124h-230l-372 1305h-14q-43 0 -78 16z" />
<glyph unicode="X" horiz-adv-x="1280" d="M-20 37l14 80q31 18 72 18q13 0 26 -2l436 594l-417 576q-54 0 -84 18l-13 74l346 63l19 -76q-23 -21 -78 -41l336 -491l340 493q-45 13 -74 39l17 76l348 -63l-13 -74q-31 -18 -72 -18q-13 0 -26 2l-414 -568l439 -604q14 2 27 2q43 0 75 -18l14 -80l-354 -62l-18 82 q24 24 69 37l-362 516l-359 -512q50 -14 80 -41l-18 -82z" />
<glyph unicode="Y" d="M-59 1395l346 63l16 -76q-26 -26 -80 -41l387 -636l391 638q-45 12 -75 39l16 76l348 -63l-12 -74q-33 -18 -77 -18q-13 0 -27 2l-7 2l-469 -762v-434q63 0 105 -33v-78h-391v78q42 33 102 33v434l-467 760q-11 -1 -21 -1q-39 0 -75 17z" />
<glyph unicode="Z" horiz-adv-x="1136" d="M63 145l789 1133h-584l13 -156h-125q-37 164 -37 312h794l156 6v-146l-797 -1132h678q10 88 23 135h100l10 -297h-987z" />
<glyph unicode="[" horiz-adv-x="612" d="M166 -205v1721h352v-146h-196v-1429h196v-146h-352z" />
<glyph unicode="\" horiz-adv-x="921" d="M100 1534l144 49l577 -1679l-143 -49z" />
<glyph unicode="]" horiz-adv-x="612" d="M94 -59h197v1429h-197v146h352v-1721h-352v146z" />
<glyph unicode="^" d="M197 1171l376 345h82l377 -345l-110 -120l-308 305l-307 -305z" />
<glyph unicode="_" d="M0 -117h1229v-116h-1229v116z" />
<glyph unicode="`" horiz-adv-x="598" d="M61 1419l82 162l394 -254l-70 -115z" />
<glyph unicode="a" horiz-adv-x="1081" d="M63 299q0 158 105.5 249t292.5 91q106 0 282 -41v90q0 124 -67 187t-193 63q-88 0 -194 -16l8 -131h-111q-39 134 -39 241q192 58 359 58q196 0 304 -100t108 -310v-432q0 -123 122 -123l-39 -135q-193 0 -231 157q-72 -82 -158.5 -127t-205.5 -45q-154 0 -248.5 88.5 t-94.5 235.5zM242 307q0 -84 48.5 -131t135.5 -47q182 0 317 164v168q-151 37 -278 37q-107 0 -165 -51t-58 -140z" />
<glyph unicode="b" horiz-adv-x="1234" d="M94 0v76q38 29 103 33v1294q-59 0 -103 27v65l277 39v-584q50 58 129.5 99t179.5 41q94 0 179 -37.5t150 -105.5t103.5 -173t38.5 -231q0 -123 -40.5 -230.5t-108 -180.5t-156 -115t-182.5 -42q-88 0 -168.5 36.5t-137.5 99.5l-10 -111h-254zM371 227q104 -96 258 -96 t249 110t95 296q0 188 -90.5 294.5t-233.5 106.5q-82 0 -158 -40.5t-120 -92.5v-578z" />
<glyph unicode="c" horiz-adv-x="995" d="M84 532q0 154 62.5 280t184 202t281.5 76q166 0 310 -89q0 -107 -39 -241h-111l10 153q-89 21 -161 21q-162 0 -260.5 -103.5t-98.5 -293.5q0 -193 94 -299.5t254 -106.5q91 0 168 23q10 102 29 153h96l8 -244q-143 -88 -313 -88q-230 0 -372 154.5t-142 402.5z" />
<glyph unicode="d" horiz-adv-x="1224" d="M84 526q0 241 139.5 402.5t341.5 161.5q97 0 174 -41t127 -101v455q-63 0 -102 27v65l276 39v-1286q0 -123 121 -123l-37 -135q-193 0 -231 157q-41 -51 -82 -85.5t-107.5 -60.5t-144.5 -26q-94 0 -180 39t-151.5 108.5t-104.5 174.5t-39 229zM262 532 q0 -186 87.5 -293.5t234.5 -107.5q80 0 154 34.5t126 90.5v549q-44 55 -118 94t-164 39q-140 0 -230 -115.5t-90 -290.5z" />
<glyph unicode="e" horiz-adv-x="1091" d="M84 520q0 114 33 216.5t94 181.5t155 125.5t209 46.5q104 0 190 -37.5t140 -99.5t83.5 -139t29.5 -159l-4 -73l-740 -201q69 -250 334 -250q101 0 209 23q9 79 27 135h96l8 -234q-167 -80 -340 -80q-245 0 -384.5 150.5t-139.5 394.5zM264 535l586 155q-15 117 -85 182.5 t-185 65.5q-72 0 -129.5 -26.5t-92 -67.5t-57 -95.5t-30.5 -107.5q-7 -47 -7 -94v-12z" />
<glyph unicode="f" horiz-adv-x="729" d="M51 850v102q73 33 166 41v195q0 159 99 255.5t257 96.5q145 0 277 -84h4l16 -244h-110q-21 78 -31 156q-86 21 -145 21q-90 0 -141.5 -52.5t-51.5 -144.5v-193h338l-72 -149h-266v-741q63 -3 101 -33v-76h-377v76q38 30 102 33v741h-166z" />
<glyph unicode="g" horiz-adv-x="1220" d="M84 537q0 157 67 284.5t180 198t247 70.5q84 0 159 -33.5t125 -87.5l10 92l261 8v-76q-15 -12 -45 -21t-56 -9v-957q0 -240 -130 -360.5t-355 -120.5q-191 0 -342 90l10 213h92q23 -86 27 -133q95 -25 213 -25q152 0 233.5 81t81.5 249v145q-117 -145 -305 -145 q-95 0 -181 37t-151 104.5t-103 170t-38 225.5zM262 547q0 -184 87 -287.5t229 -103.5q157 0 280 127v555q-128 100 -268 100q-136 0 -232 -105.5t-96 -285.5z" />
<glyph unicode="h" horiz-adv-x="1261" d="M94 0v76q38 29 103 33v1294q-59 0 -103 27v65l277 39v-647q134 203 358 203q174 0 266 -106.5t92 -289.5v-585q63 -3 101 -33v-76h-377v76q38 30 102 33v567q0 123 -55.5 191.5t-155.5 68.5q-94 0 -180.5 -64t-150.5 -167v-596q62 -3 100 -33v-76h-377z" />
<glyph unicode="i" horiz-adv-x="587" d="M104 993v76l277 -8v-952q64 -3 102 -33v-76h-377v76q38 30 101 33v854q-27 0 -57.5 9t-45.5 21zM145 1376q0 56 34.5 91.5t92.5 35.5q57 0 92 -35.5t35 -91.5t-34.5 -91.5t-92.5 -35.5q-56 0 -91.5 35.5t-35.5 91.5z" />
<glyph unicode="j" horiz-adv-x="610" d="M-121 -426l8 215h93q18 -63 24 -117q46 -4 68 -4q178 0 178 213v1069q-85 3 -141 37v82l315 -8v-1188q0 -89 -26.5 -157.5t-73.5 -109t-106.5 -61t-129.5 -20.5q-118 0 -209 49zM188 1376q0 56 34.5 91.5t92.5 35.5q57 0 92 -35.5t35 -91.5t-34.5 -91.5t-92.5 -35.5 q-55 0 -91 35.5t-36 91.5z" />
<glyph unicode="k" horiz-adv-x="1071" d="M94 1430v65l277 39v-911l374 356q-35 12 -59 33l16 78l322 -58l-10 -74q-31 -18 -74 -18q-13 0 -27 2l-383 -362l451 -449q14 2 26 2q41 0 70 -18l13 -76l-347 -64l-18 78q20 20 72 39l-426 434v-417h2q62 -3 100 -33v-76h-377v76q38 30 101 33v1294q-59 0 -103 27z" />
<glyph unicode="l" horiz-adv-x="739" d="M74 1430v65l276 39v-1202q0 -205 178 -205q46 0 64 2q11 83 24 131h93l10 -242q-92 -43 -205 -43q-69 0 -128 18.5t-107 56.5t-75.5 103t-27.5 150v1100q-58 0 -102 27z" />
<glyph unicode="m" horiz-adv-x="1886" d="M104 0v76q38 29 103 33v854q-27 0 -57.5 9t-45.5 21v76l261 -8l10 -187q54 101 140 158.5t192 57.5q119 0 200.5 -61.5t114.5 -168.5q138 230 350 230q163 0 250.5 -108t87.5 -288v-585q64 -3 102 -33v-76h-376v76q38 30 100 33v573q0 121 -50 187.5t-136 66.5 q-95 0 -165.5 -59t-137.5 -168v-600q51 -7 81 -33v-76h-337v76q30 26 81 33v571q0 122 -51 189t-137 67q-93 0 -165.5 -58t-137.5 -163v-606q62 -3 100 -33v-76h-377z" />
<glyph unicode="n" horiz-adv-x="1271" d="M104 0v76q38 29 103 33v854q-27 0 -57.5 9t-45.5 21v76l261 -8l10 -189q130 218 364 218q173 0 266 -108.5t93 -291.5v-581q62 -3 100 -33v-76h-377v76q38 30 103 33v567q0 126 -56 193t-159 67q-188 0 -328 -225v-602q62 -3 100 -33v-76h-377z" />
<glyph unicode="o" horiz-adv-x="1224" d="M84 532q0 126 40.5 231t111.5 176.5t167.5 111t208.5 39.5q230 0 379.5 -156t149.5 -402q0 -252 -149.5 -404.5t-379.5 -152.5t-379 156t-149 401zM262 537q0 -178 97 -292t253 -114q163 0 257 108.5t94 288.5q0 178 -98 292t-253 114q-161 0 -255.5 -108.5t-94.5 -288.5 z" />
<glyph unicode="p" horiz-adv-x="1232" d="M72 930l37 135q186 0 231 -145q21 28 49 54t70 54t99 45t120 17q94 0 178.5 -37.5t150 -105.5t104 -173t38.5 -231q0 -124 -38.5 -231.5t-103 -180.5t-150.5 -114.5t-181 -41.5q-88 0 -167.5 36.5t-139.5 92.5v-446q62 -3 100 -33v-76h-377v76q38 29 103 33v1139 q0 133 -123 133zM369 264q120 -133 284 -133q141 0 229.5 112.5t88.5 293.5q0 185 -91 293t-229 108q-87 0 -164 -42.5t-118 -102.5v-529z" />
<glyph unicode="q" horiz-adv-x="1234" d="M84 526q0 123 39.5 229.5t107 179t158 114t191.5 41.5q166 0 292 -109l9 80l260 8v-76q-15 -12 -44.5 -21t-56.5 -9v-1414h-276v76q38 30 102 33v455q-25 -26 -47.5 -45t-60.5 -43t-87.5 -37t-105.5 -13q-98 0 -185.5 39t-153 108.5t-104 174.5t-38.5 229zM262 530 q0 -186 88.5 -292.5t237.5 -106.5q84 0 157.5 37.5t118.5 95.5v584q-129 90 -272 90q-140 0 -235 -110.5t-95 -297.5z" />
<glyph unicode="r" horiz-adv-x="882" d="M66 987v82l141 -4l158 -6l10 -234q37 120 126.5 192.5t237.5 72.5q70 0 133 -13q0 -166 -41 -297h-108l10 156h-18q-141 0 -237.5 -117t-96.5 -317v-393q62 -3 100 -33v-76h-377v76q38 29 103 33v841q-93 3 -141 37z" />
<glyph unicode="s" horiz-adv-x="962" d="M84 92l8 242h96q18 -50 29 -156q124 -51 254 -51q120 0 181 42t61 118q0 65 -56.5 109t-207.5 87q-180 53 -260 122t-80 198q0 127 108.5 207t282.5 80q199 0 366 -95l-2 -4q0 -116 -37 -237h-110l10 155q-119 35 -225 35q-103 0 -160 -37.5t-57 -101.5q0 -65 50.5 -103 t205.5 -84q185 -56 267.5 -128t82.5 -191q0 -152 -113.5 -238t-310.5 -86q-209 0 -383 117z" />
<glyph unicode="t" horiz-adv-x="788" d="M12 874v111q80 32 189 41l37 336h133v-336h317l-72 -152h-245v-546q0 -104 48 -152.5t126 -48.5q38 0 104 8q3 33 27 131h90l10 -225q-119 -66 -241 -66q-151 0 -244.5 85t-93.5 251v563h-185z" />
<glyph unicode="u" horiz-adv-x="1212" d="M63 993v76l277 -8v-684q0 -122 55.5 -184t161.5 -62q81 0 158 35t139 96v701q-62 0 -100 30v76l274 -8v-789q0 -147 123 -147l-37 -135q-191 0 -231 162q-147 -177 -355 -177q-70 0 -133 22.5t-115 67.5t-83 122t-31 178v598q-27 0 -57.5 9t-45.5 21z" />
<glyph unicode="v" horiz-adv-x="1110" d="M-31 1032l322 58l18 -78q-23 -23 -71 -37l319 -795l315 793q-47 17 -71 39l16 78l322 -58l-11 -74q-31 -17 -73 -17q-11 0 -23 1l-391 -942h-178l-389 942h-14q-43 0 -78 16z" />
<glyph unicode="w" horiz-adv-x="1656" d="M-8 1032l321 58l17 -78q-29 -26 -76 -39l254 -778l225 796l191 19l229 -815l252 776q-52 18 -78 41l19 78l321 -58l-12 -74q-35 -16 -80 -16h-14l-316 -942h-188l-232 829l-231 -829h-186l-318 940q-54 0 -88 18z" />
<glyph unicode="x" horiz-adv-x="1110" d="M2 37l12 80q33 18 78 18q14 0 29 -2l325 410l-313 397q-54 0 -84 18l-12 74l321 58l17 -78q-22 -20 -66 -37l242 -334l248 334q-41 13 -68 37l17 78l321 -58l-12 -74q-35 -16 -78 -16h-14l-314 -391l342 -418q13 2 26 2q41 0 75 -18l14 -80l-354 -62l-21 82q23 21 78 41 l-262 348l-254 -348q48 -12 80 -41l-19 -82z" />
<glyph unicode="y" horiz-adv-x="1110" d="M-31 1032l322 58l18 -78q-26 -22 -65 -35l352 -787l283 785q-41 13 -68 37l16 78l322 -58l-10 -74q-35 -16 -80 -16h-15l-372 -1005q-58 -159 -125 -251t-139 -126.5t-170 -34.5q-111 0 -183 45l11 213h86q18 -60 26 -115q14 -2 53 -2q93 0 153 59t122 216l53 139h-84 l-399 862h-14q-45 0 -80 16z" />
<glyph unicode="z" horiz-adv-x="972" d="M74 139l608 783h-442l8 -129h-115q-39 134 -39 272h660l135 6v-137l-610 -782h489q7 64 23 141h100l10 -293h-799z" />
<glyph unicode="{" horiz-adv-x="749" d="M104 594v123q116 17 156.5 92t40.5 270q0 237 93 347.5t292 129.5v-110q-119 -28 -168 -106t-49 -253q0 -154 -23.5 -240.5t-71 -128.5t-136.5 -63q89 -22 136.5 -63t71 -127.5t23.5 -241.5q0 -176 48.5 -254t168.5 -106v-111q-199 19 -292 130t-93 349 q0 195 -40.5 270.5t-156.5 92.5z" />
<glyph unicode="|" horiz-adv-x="692" d="M270 -205v1782h152v-1782h-152z" />
<glyph unicode="}" horiz-adv-x="749" d="M63 -137q121 28 169.5 105.5t48.5 254.5q0 154 23.5 240.5t71 128.5t136.5 63q-89 21 -136.5 63t-71 128.5t-23.5 240.5q0 177 -48.5 255t-169.5 106v111q200 -19 293 -130t93 -350q0 -194 40.5 -269.5t155.5 -92.5v-123q-115 -17 -155.5 -93t-40.5 -270 q0 -238 -92.5 -349t-293.5 -130v111z" />
<glyph unicode="~" d="M158 668q54 52 124 90.5t142 38.5q49 0 101 -18.5t88.5 -41t83 -41t85.5 -18.5q65 0 115 29t104 81l70 -126q-151 -140 -283 -140q-47 0 -98.5 18.5t-89 41t-85 41t-87.5 18.5q-101 0 -201 -96z" />
<glyph unicode="&#xa1;" horiz-adv-x="634" d="M186 895q0 59 35.5 95t95.5 36q57 0 94.5 -36.5t37.5 -94.5t-36.5 -94.5t-95.5 -36.5q-56 0 -93.5 37t-37.5 94zM217 41l25 547h143l27 -547v-492h-195v492z" />
<glyph unicode="&#xa2;" horiz-adv-x="987" d="M84 584q0 217 121 371.5t327 181.5l-14 227h170l-14 -225q132 -14 248 -86q0 -108 -39 -242h-111l10 154q-80 22 -161 22q-161 0 -260 -104.5t-99 -294.5q0 -193 94 -299.5t254 -106.5q91 0 168 23q10 102 29 153h96l8 -243q-112 -68 -237 -84l14 -226h-170l14 226 q-203 22 -325.5 173t-122.5 380z" />
<glyph unicode="&#xa3;" horiz-adv-x="1017" d="M104 645v148h158v251q0 181 102.5 285.5t272.5 104.5q96 0 172 -25.5t154 -73.5q0 -104 -39 -250h-115l12 168q-84 33 -174 33q-99 0 -159 -65t-60 -199v-229h346l-24 -148h-324q-4 -178 -35.5 -282.5t-99.5 -200.5h553q6 76 22 135h101l10 -297h-871v141 q88 123 119.5 222.5t34.5 281.5h-156z" />
<glyph unicode="&#xa4;" d="M193 291l118 135q-92 113 -92 266q0 156 92 266l-118 136l120 104l115 -154q82 43 186 43q106 0 187 -40l114 151l121 -104l-118 -136q92 -113 92 -266q0 -156 -92 -266l118 -135l-121 -103l-114 152q-82 -43 -187 -43q-96 0 -186 41l-115 -150zM379 694 q0 -107 67.5 -182.5t167.5 -75.5q111 0 173.5 68.5t62.5 185.5q0 107 -67.5 182.5t-168.5 75.5q-111 0 -173 -68.5t-62 -185.5z" />
<glyph unicode="&#xa5;" horiz-adv-x="1187" d="M-59 1370l346 64l16 -76q-26 -26 -80 -41l373 -635l367 635q-50 14 -80 41l16 76l348 -64l-12 -74q-44 -23 -105 -16l-6 2l-362 -618h248v-142h-326v-141h326v-141h-326v-129q62 0 104 -33v-78h-391v78q42 33 105 33v129h-328v141h328v141h-328v142h260l-379 616 q-60 -7 -104 16z" />
<glyph unicode="&#xa6;" horiz-adv-x="692" d="M270 -205v756h152v-756h-152zM270 840v737h152v-737h-152z" />
<glyph unicode="&#xa7;" horiz-adv-x="993" d="M125 688q0 180 246 283q-111 52 -160 108.5t-49 147.5q0 109 98.5 182.5t247.5 73.5q183 0 338 -90q0 -108 -39 -242h-111l13 174q-89 27 -195 27q-86 0 -137 -34.5t-51 -88.5q0 -58 49.5 -99t210.5 -110q151 -66 216.5 -139.5t65.5 -175.5q0 -182 -239 -283 q112 -47 164.5 -106.5t52.5 -149.5q0 -126 -106.5 -195t-278.5 -69q-181 0 -322 88l8 243h97q20 -58 30 -165q93 -27 193 -27q96 0 154.5 32t58.5 91q0 55 -51.5 95t-196.5 101q-168 72 -237.5 144.5t-69.5 183.5zM291 692q0 -68 48 -114.5t157 -90.5q209 78 209 211 q0 134 -199 209q-215 -68 -215 -215z" />
<glyph unicode="&#xa8;" horiz-adv-x="739" d="M61 1366q0 51 32.5 84t84.5 33q51 0 85 -33t34 -84q0 -50 -33 -83.5t-86 -33.5q-50 0 -83.5 33.5t-33.5 83.5zM444 1366q0 51 32.5 84t84.5 33q51 0 84 -33t33 -84q0 -50 -32.5 -83.5t-84.5 -33.5q-49 0 -83 33.5t-34 83.5z" />
<glyph unicode="&#xa9;" horiz-adv-x="1843" d="M205 719q0 219 85.5 386t248.5 260t383 93q161 0 296 -55.5t226.5 -154t142.5 -234.5t51 -295q0 -216 -85.5 -384t-249 -264t-381.5 -96q-217 0 -381 97t-250 265t-86 382zM348 719q0 -177 70 -317t201 -220t303 -80q268 0 420.5 165t152.5 452q0 178 -68 316.5t-199 218 t-306 79.5q-261 0 -417.5 -166t-156.5 -448zM537 717q0 208 113.5 337.5t303.5 129.5q129 0 263 -62q0 -83 -37 -221h-107l8 125q-62 10 -125 10q-115 0 -184.5 -83.5t-69.5 -229.5q0 -144 70.5 -230.5t192.5 -86.5q63 0 122 12q8 73 27 135h88l8 -223q-131 -72 -256 -72 q-187 0 -302 125t-115 334z" />
<glyph unicode="&#xaa;" d="M250 891q0 116 80.5 185t210.5 69q69 0 202 -29v37q0 90 -44 129t-148 39q-61 0 -119 -6l8 -92h-90q-31 82 -31 192q136 33 250 33q161 0 243.5 -68t82.5 -229v-266q0 -92 94 -92l-35 -123q-151 0 -192 108q-50 -56 -111 -87.5t-149 -31.5q-109 0 -180.5 65.5 t-71.5 166.5zM270 274v160h693v-160h-693zM403 903q0 -53 36.5 -82.5t95.5 -29.5t107.5 22.5t100.5 69.5v118q-96 27 -184 27q-75 0 -115.5 -34t-40.5 -91z" />
<glyph unicode="&#xab;" horiz-adv-x="1134" d="M145 664v81l324 402l119 -98l-291 -344l291 -345l-119 -98zM551 664v81l323 402l117 -98l-289 -344l289 -345l-117 -98z" />
<glyph unicode="&#xac;" d="M145 623v159h938v-501h-174v342h-764z" />
<glyph unicode="&#xad;" d="M268 623v159h693v-159h-693z" />
<glyph unicode="&#xae;" horiz-adv-x="1843" d="M207 719q0 219 85.5 386t248.5 260t383 93q161 0 296 -55.5t226.5 -154t142.5 -234.5t51 -295q0 -216 -85.5 -384t-249 -264t-381.5 -96q-217 0 -381.5 97t-250 265t-85.5 382zM350 719q0 -177 70 -317t201 -220t303 -80q268 0 420.5 165t152.5 452q0 178 -68 316.5 t-199 218t-306 79.5q-262 0 -418 -166t-156 -448zM580 1092v57q159 25 315 25q164 0 257 -69.5t93 -186.5q0 -161 -182 -213q45 -21 77 -57.5t64 -106.5l64 -144q34 0 57 -10l12 -70l-252 -45l-18 70q16 16 45 27l-61 139q-30 74 -76 108.5t-111 34.5h-61v-264q39 -6 61 -22 v-72h-280v72q22 19 67 22v680q-50 7 -71 25zM803 786h108q80 0 127 32.5t47 92.5q0 61 -45 93t-129 32h-108v-250z" />
<glyph unicode="&#xaf;" horiz-adv-x="710" d="M61 1288v142h588v-142h-588z" />
<glyph unicode="&#xb0;" horiz-adv-x="921" d="M106 1227q0 124 85.5 205t207.5 81q124 0 209.5 -80.5t85.5 -205.5q0 -124 -86 -205.5t-209 -81.5q-122 0 -207.5 81.5t-85.5 205.5zM262 1227q0 -68 37.5 -110t99.5 -42t101 41t39 111q0 68 -39 109.5t-101 41.5q-63 0 -100 -40.5t-37 -110.5z" />
<glyph unicode="&#xb1;" d="M225 817v150h307v307h166v-307h306v-150h-306v-305h-166v305h-307zM227 172v158h774v-158h-774z" />
<glyph unicode="&#xb2;" horiz-adv-x="921" d="M156 637q0 67 24.5 125.5t63 100.5t85.5 79.5t94 68.5t85.5 60.5t63 62.5t24.5 68q0 58 -36.5 90.5t-104.5 32.5q-75 0 -152 -31l10 -131h-112q-27 115 -27 193q133 92 293 92q131 0 210 -66t79 -170q0 -49 -21.5 -92.5t-57 -77t-78 -64.5t-87 -62t-82.5 -62.5t-65.5 -72 t-34.5 -85.5h311q5 53 18 113h97l8 -244h-604q-4 50 -4 72z" />
<glyph unicode="&#xb3;" horiz-adv-x="921" d="M160 1378q136 70 272 70q137 0 220 -68t83 -168q0 -136 -137 -188q164 -51 164 -207q0 -109 -89 -187.5t-253 -78.5q-159 0 -256 78l8 190h100q16 -59 19 -127q61 -12 127 -12q88 0 138 34.5t50 102.5q0 137 -207 137h-104l18 119h80q185 0 185 131q0 56 -43 87.5 t-115 31.5q-61 0 -129 -14l10 -111h-113q-28 103 -28 180z" />
<glyph unicode="&#xb4;" horiz-adv-x="598" d="M61 1327l394 254l82 -162l-408 -207z" />
<glyph unicode="&#xb6;" horiz-adv-x="1353" d="M43 1190q0 186 129 295.5t346 109.5q125 0 336 -18v-1708h-279v84q47 33 105 33v821q-75 -16 -176 -16q-100 0 -183.5 25.5t-145.5 74.5t-97 125.5t-35 173.5zM221 1194q0 -124 79 -189t220 -65q89 0 160 14v484q-102 8 -156 8q-148 0 -225.5 -68t-77.5 -184zM991 -131 v1708l275 -37v-65q-15 -12 -45 -20t-56 -7v-1462q56 0 103 -33v-84h-277z" />
<glyph unicode="&#xb7;" horiz-adv-x="614" d="M176 731q0 58 36 94.5t95 36.5q56 0 93.5 -37t37.5 -94q0 -58 -36 -94.5t-95 -36.5q-56 0 -93.5 37t-37.5 94z" />
<glyph unicode="&#xb8;" horiz-adv-x="600" d="M61 -455l48 115q76 -29 147 -29q56 0 90.5 20.5t34.5 59.5q0 96 -231 96l71 193h131l-43 -123q107 0 168.5 -46.5t61.5 -133.5q0 -80 -72.5 -136.5t-202.5 -56.5q-117 0 -203 41z" />
<glyph unicode="&#xb9;" horiz-adv-x="921" d="M168 1264l313 176l107 -17v-731h53q76 0 111 -28v-99h-519v99q35 28 109 28h90v563l-199 -108z" />
<glyph unicode="&#xba;" d="M221 1055q0 177 111 285t282 108q173 0 283.5 -109.5t110.5 -283.5q0 -177 -111 -285t-283 -108t-282.5 110t-110.5 283zM268 274v160h693v-160h-693zM381 1057q0 -115 65.5 -187.5t167.5 -72.5q108 0 172 70t64 186q0 115 -67 187.5t-169 72.5q-108 0 -170.5 -69 t-62.5 -187z" />
<glyph unicode="&#xbb;" horiz-adv-x="1134" d="M145 360l289 345l-289 344l117 98l326 -402v-81l-326 -402zM551 360l289 345l-289 344l117 98l323 -402v-81l-323 -402z" />
<glyph unicode="&#xbc;" horiz-adv-x="2242" d="M168 1264l313 176l107 -17v-731h53q76 0 111 -28v-99h-519v99q35 28 109 28h90v563l-199 -108zM614 -8l897 1524l117 -74l-897 -1524zM1442 197v100l297 584l137 -52l-256 -505h235l19 200l131 23v-223h117l-19 -127h-98v-99q50 0 88 -30v-68h-326v68q42 30 88 30v99 h-413z" />
<glyph unicode="&#xbd;" horiz-adv-x="2242" d="M168 1264l313 176l107 -17v-731h53q76 0 111 -28v-99h-519v99q35 28 109 28h90v563l-199 -108zM614 -8l897 1524l117 -74l-897 -1524zM1477 72q0 67 24.5 125.5t63 100.5t85.5 79.5t94 68.5t85.5 60.5t63 62.5t24.5 68q0 58 -36.5 90.5t-104.5 32.5q-74 0 -152 -31 l10 -131h-112q-27 115 -27 193q133 92 293 92q131 0 210 -66t79 -170q0 -49 -21.5 -92.5t-57 -77t-78 -64.5t-87 -62t-82.5 -62.5t-65.5 -72t-34.5 -85.5h311q5 53 18 113h97l8 -244h-604q-4 50 -4 72z" />
<glyph unicode="&#xbe;" horiz-adv-x="2242" d="M160 1378q136 70 272 70q137 0 220 -68t83 -168q0 -136 -137 -188q164 -51 164 -207q0 -109 -89 -187.5t-253 -78.5q-159 0 -256 78l8 190h100q16 -59 19 -127q61 -12 127 -12q88 0 138 34.5t50 102.5q0 137 -207 137h-104l18 119h80q185 0 185 131q0 56 -43 87.5 t-115 31.5q-61 0 -129 -14l10 -111h-113q-28 103 -28 180zM614 -8l897 1524l117 -74l-897 -1524zM1442 197v100l297 584l137 -52l-256 -505h235l19 200l131 23v-223h117l-19 -127h-98v-99q50 0 88 -30v-68h-326v68q42 30 88 30v99h-413z" />
<glyph unicode="&#xbf;" horiz-adv-x="1005" d="M104 -156q0 69 22.5 126.5t58 97.5t79 76t87 70.5t79 72t58 89t22.5 113.5v97h152q18 -68 18 -131q0 -67 -21.5 -124.5t-55.5 -97.5t-75.5 -76t-82.5 -68.5t-75 -66t-55.5 -76.5t-21.5 -93q0 -83 54.5 -126.5t154.5 -43.5q160 0 270 79q5 93 29 209h102l8 -272 q-178 -174 -419 -174q-173 0 -280.5 89t-107.5 230zM444 895q0 59 35.5 95t95.5 36q56 0 94 -36.5t38 -94.5t-36.5 -94.5t-95.5 -36.5q-56 0 -93.5 37t-37.5 94z" />
<glyph unicode="&#xc0;" horiz-adv-x="1376" d="M-61 37l14 80q43 23 104 16l6 -2l490 1196q-62 4 -100 29v63l338 23l526 -1309h2q61 7 102 -16l15 -80l-355 -62l-18 82q29 26 74 39l-117 297h-668l-116 -295q50 -17 77 -41l-18 -82zM412 549h546l-268 717zM461 1757l82 162l393 -254l-70 -115z" />
<glyph unicode="&#xc1;" horiz-adv-x="1376" d="M-61 37l14 80q43 23 104 16l6 -2l490 1196q-62 4 -100 29v63l338 23l526 -1309h2q61 7 102 -16l15 -80l-355 -62l-18 82q29 26 74 39l-117 297h-668l-116 -295q50 -17 77 -41l-18 -82zM412 549h546l-268 717zM430 1665l393 254l82 -162l-407 -207z" />
<glyph unicode="&#xc2;" horiz-adv-x="1376" d="M-61 37l14 80q43 23 104 16l6 -2l490 1196q-62 4 -100 29v63l338 23l526 -1309h2q61 7 102 -16l15 -80l-355 -62l-18 82q29 26 74 39l-117 297h-668l-116 -295q50 -17 77 -41l-18 -82zM315 1671l293 176h135l293 -176l-90 -125l-270 180l-268 -180zM412 549h546l-268 717 z" />
<glyph unicode="&#xc3;" horiz-adv-x="1376" d="M-61 37l14 80q43 23 104 16l6 -2l490 1196q-62 4 -100 29v63l338 23l526 -1309h2q61 7 102 -16l15 -80l-355 -62l-18 82q29 26 74 39l-117 297h-668l-116 -295q50 -17 77 -41l-18 -82zM336 1698q52 63 102 96t115 33q45 0 90 -22.5t85.5 -45t74.5 -22.5q26 0 51 13 t39 25.5t35 34.5l90 -94q-52 -63 -100 -96t-105 -33q-53 0 -99.5 22t-84 44t-68.5 22q-70 0 -135 -73zM412 549h546l-268 717z" />
<glyph unicode="&#xc4;" horiz-adv-x="1376" d="M-61 37l14 80q43 23 104 16l6 -2l490 1196q-62 4 -100 29v63l338 23l526 -1309h2q61 7 102 -16l15 -80l-355 -62l-18 82q29 26 74 39l-117 297h-668l-116 -295q50 -17 77 -41l-18 -82zM369 1714q0 51 32 84t84 33q51 0 85 -33t34 -84q0 -50 -33 -83.5t-86 -33.5 q-49 0 -82.5 33.5t-33.5 83.5zM412 549h546l-268 717zM752 1714q0 51 32 84t84 33q51 0 84 -33t33 -84q0 -50 -32.5 -83.5t-84.5 -33.5q-49 0 -82.5 33.5t-33.5 83.5z" />
<glyph unicode="&#xc5;" horiz-adv-x="1339" d="M-61 37l14 80q43 23 104 16h4l498 1206q-60 32 -95.5 88.5t-35.5 128.5q0 104 73 173t179 69t180 -69t74 -173q0 -67 -31.5 -120.5t-85.5 -85.5l494 -1215q45 -3 75 -18l15 -80l-354 -62l-21 82q35 31 94 45l10 2l-114 289h-666l-114 -295q50 -17 77 -41l-18 -82z M408 549h548l-268 715zM578 1556q0 -53 28.5 -87.5t73.5 -34.5q46 0 75 32.5t29 89.5q0 51 -29 86t-75 35q-47 0 -74.5 -30.5t-27.5 -90.5z" />
<glyph unicode="&#xc6;" horiz-adv-x="1861" d="M-61 37l14 80q41 23 102 16h4l758 1194q-69 3 -108 29v63l176 15h882q0 -152 -38 -304h-117l10 148h-477v-455h428l100 6l-18 -157h-510v-516h489q6 76 23 141h100l10 -297h-804v393h-533l-186 -299q42 -13 69 -37l-20 -82zM524 549h439v711z" />
<glyph unicode="&#xc7;" horiz-adv-x="1230" d="M104 711q0 218 81 387t234 264.5t357 95.5q197 0 383 -88l-2 -4q0 -156 -37 -291h-119l17 191q-118 32 -242 32q-218 0 -349.5 -154.5t-131.5 -424.5q0 -266 125 -424t340 -158q147 0 254 39q5 87 26 176h103l8 -268l2 -4q-165 -95 -354 -103l-35 -100q107 0 168 -46 t61 -134q0 -80 -72 -136.5t-202 -56.5q-117 0 -203 41l47 115q76 -29 148 -29q56 0 90.5 20.5t34.5 59.5q0 96 -232 96l64 173q-259 31 -411.5 226t-152.5 505z" />
<glyph unicode="&#xc8;" horiz-adv-x="1179" d="M125 0v84q47 33 104 33v1206q-66 6 -104 33v82l104 -4h856q0 -138 -36 -304h-119l12 148h-528v-455h463l102 6l-21 -157h-544v-516h538q6 76 23 141h100l10 -297h-960zM440 1757l82 162l393 -254l-69 -115z" />
<glyph unicode="&#xc9;" horiz-adv-x="1179" d="M125 0v84q47 33 104 33v1206q-66 6 -104 33v82l104 -4h856q0 -138 -36 -304h-119l12 148h-528v-455h463l102 6l-21 -157h-544v-516h538q6 76 23 141h100l10 -297h-960zM410 1665l393 254l82 -162l-408 -207z" />
<glyph unicode="&#xca;" horiz-adv-x="1179" d="M125 0v84q47 33 104 33v1206q-66 6 -104 33v82l104 -4h856q0 -138 -36 -304h-119l12 148h-528v-455h463l102 6l-21 -157h-544v-516h538q6 76 23 141h100l10 -297h-960zM295 1671l293 176h135l293 -176l-90 -125l-271 180l-268 -180z" />
<glyph unicode="&#xcb;" horiz-adv-x="1179" d="M125 0v84q47 33 104 33v1206q-66 6 -104 33v82l104 -4h856q0 -138 -36 -304h-119l12 148h-528v-455h463l102 6l-21 -157h-544v-516h538q6 76 23 141h100l10 -297h-960zM350 1714q0 51 32.5 84t84.5 33q51 0 85 -33t34 -84q0 -50 -33 -83.5t-86 -33.5q-49 0 -83 33.5 t-34 83.5zM733 1714q0 51 32.5 84t84.5 33q51 0 84 -33t33 -84q0 -50 -32.5 -83.5t-84.5 -33.5q-50 0 -83.5 33.5t-33.5 83.5z" />
<glyph unicode="&#xcc;" horiz-adv-x="643" d="M104 1757l82 162l394 -254l-70 -115zM125 0v78q42 33 104 33v1214q-68 3 -104 31v74l391 8v-74q-29 -26 -102 -33v-1220q60 0 102 -33v-78h-391z" />
<glyph unicode="&#xcd;" horiz-adv-x="643" d="M76 1665l393 254l82 -162l-408 -207zM125 0v78q42 33 104 33v1214q-68 3 -104 31v74l391 8v-74q-29 -26 -102 -33v-1220q60 0 102 -33v-78h-391z" />
<glyph unicode="&#xce;" horiz-adv-x="643" d="M-39 1671l293 176h135l293 -176l-90 -125l-270 180l-269 -180zM125 0v78q42 33 104 33v1214q-68 3 -104 31v74l391 8v-74q-29 -26 -102 -33v-1220q60 0 102 -33v-78h-391z" />
<glyph unicode="&#xcf;" horiz-adv-x="643" d="M14 1714q0 51 32.5 84t84.5 33q51 0 85 -33t34 -84q0 -50 -33 -83.5t-86 -33.5q-49 0 -83 33.5t-34 83.5zM125 0v78q42 33 104 33v1214q-68 3 -104 31v74l391 8v-74q-29 -26 -102 -33v-1220q60 0 102 -33v-78h-391zM397 1714q0 51 32.5 84t84.5 33q51 0 84 -33t33 -84 q0 -50 -32.5 -83.5t-84.5 -33.5q-50 0 -83.5 33.5t-33.5 83.5z" />
<glyph unicode="&#xd0;" horiz-adv-x="1462" d="M145 647v156h160v504q-67 7 -104 32v74q258 37 477 37q148 0 270 -37.5t207 -104t143.5 -159t85.5 -200.5t27 -230q0 -123 -26.5 -230.5t-84.5 -201t-143.5 -160.5t-210.5 -105t-278 -38q-258 0 -467 39v75q42 33 104 33v516h-160zM487 143q66 -2 193 -2q138 0 243 42.5 t169.5 120.5t96.5 182t32 233q0 125 -32 227.5t-95.5 180.5t-166.5 121.5t-237 43.5q-135 0 -203 -2v-487h377v-156h-377v-504z" />
<glyph unicode="&#xd1;" horiz-adv-x="1531" d="M125 0v78q42 33 104 33h4v1208q-66 3 -104 33v73l348 15l651 -1223v1108h-10q-66 3 -102 31v74l391 8v-74q-33 -26 -104 -33v-1315l-238 -30l-657 1220v-1095h6q60 0 102 -33v-78h-391zM446 1698q52 63 102.5 96t115.5 33q45 0 90 -22.5t85 -45t74 -22.5q26 0 51 13 t39 25.5t35 34.5l90 -94q-52 -63 -99.5 -96t-104.5 -33q-53 0 -99.5 22t-84 44t-68.5 22q-70 0 -135 -73z" />
<glyph unicode="&#xd2;" horiz-adv-x="1558" d="M104 719q0 211 79.5 377.5t234 264t360.5 97.5q155 0 283.5 -58t213.5 -158.5t132 -235t47 -287.5q0 -155 -47 -290.5t-132 -236t-213.5 -159t-283.5 -58.5q-154 0 -282.5 58.5t-213.5 159.5t-131.5 236.5t-46.5 289.5zM295 719q0 -116 33 -221t93 -186t152.5 -129 t204.5 -48q156 0 267 76t165 206.5t54 301.5q0 114 -33.5 218.5t-94 185.5t-153.5 129t-205 48q-149 0 -259.5 -76t-167 -206.5t-56.5 -298.5zM563 1757l82 162l393 -254l-69 -115z" />
<glyph unicode="&#xd3;" horiz-adv-x="1558" d="M104 719q0 211 79.5 377.5t234 264t360.5 97.5q155 0 283.5 -58t213.5 -158.5t132 -235t47 -287.5q0 -155 -47 -290.5t-132 -236t-213.5 -159t-283.5 -58.5q-154 0 -282.5 58.5t-213.5 159.5t-131.5 236.5t-46.5 289.5zM295 719q0 -116 33 -221t93 -186t152.5 -129 t204.5 -48q156 0 267 76t165 206.5t54 301.5q0 114 -33.5 218.5t-94 185.5t-153.5 129t-205 48q-149 0 -259.5 -76t-167 -206.5t-56.5 -298.5zM532 1665l394 254l82 -162l-408 -207z" />
<glyph unicode="&#xd4;" horiz-adv-x="1558" d="M104 719q0 211 79.5 377.5t234 264t360.5 97.5q155 0 283.5 -58t213.5 -158.5t132 -235t47 -287.5q0 -155 -47 -290.5t-132 -236t-213.5 -159t-283.5 -58.5q-154 0 -282.5 58.5t-213.5 159.5t-131.5 236.5t-46.5 289.5zM295 719q0 -116 33 -221t93 -186t152.5 -129 t204.5 -48q156 0 267 76t165 206.5t54 301.5q0 114 -33.5 218.5t-94 185.5t-153.5 129t-205 48q-149 0 -259.5 -76t-167 -206.5t-56.5 -298.5zM418 1671l293 176h135l293 -176l-90 -125l-271 180l-268 -180z" />
<glyph unicode="&#xd5;" horiz-adv-x="1558" d="M104 719q0 211 79.5 377.5t234 264t360.5 97.5q155 0 283.5 -58t213.5 -158.5t132 -235t47 -287.5q0 -155 -47 -290.5t-132 -236t-213.5 -159t-283.5 -58.5q-154 0 -282.5 58.5t-213.5 159.5t-131.5 236.5t-46.5 289.5zM295 719q0 -116 33 -221t93 -186t152.5 -129 t204.5 -48q156 0 267 76t165 206.5t54 301.5q0 114 -33.5 218.5t-94 185.5t-153.5 129t-205 48q-149 0 -259.5 -76t-167 -206.5t-56.5 -298.5zM438 1698q52 63 102 96t115 33q45 0 90 -22.5t85.5 -45t74.5 -22.5q26 0 51 13t39 25.5t35 34.5l90 -94q-52 -63 -100 -96 t-105 -33q-42 0 -80.5 13.5t-62.5 30.5t-53 30.5t-55 13.5q-71 0 -136 -73z" />
<glyph unicode="&#xd6;" horiz-adv-x="1558" d="M104 719q0 211 79.5 377.5t234 264t360.5 97.5q155 0 283.5 -58t213.5 -158.5t132 -235t47 -287.5q0 -155 -47 -290.5t-132 -236t-213.5 -159t-283.5 -58.5q-154 0 -282.5 58.5t-213.5 159.5t-131.5 236.5t-46.5 289.5zM295 719q0 -116 33 -221t93 -186t152.5 -129 t204.5 -48q156 0 267 76t165 206.5t54 301.5q0 114 -33.5 218.5t-94 185.5t-153.5 129t-205 48q-149 0 -259.5 -76t-167 -206.5t-56.5 -298.5zM473 1714q0 51 32.5 84t84.5 33q51 0 85 -33t34 -84q0 -50 -33 -83.5t-86 -33.5q-50 0 -83.5 33.5t-33.5 83.5zM856 1714 q0 51 32.5 84t84.5 33q51 0 84 -33t33 -84q0 -50 -32.5 -83.5t-84.5 -33.5q-49 0 -83 33.5t-34 83.5z" />
<glyph unicode="&#xd7;" d="M217 414l293 291l-293 294l109 107l288 -295l291 295l107 -107l-293 -294l293 -291l-107 -107l-291 291l-288 -291z" />
<glyph unicode="&#xd8;" horiz-adv-x="1558" d="M104 719q0 211 79.5 377.5t234 264t360.5 97.5q142 0 260 -47l111 250l158 -74l-136 -252q135 -98 209 -260t74 -356q0 -155 -47 -290.5t-132 -236t-213.5 -159t-283.5 -58.5q-128 0 -237 41l-113 -258l-158 74l136 252q-144 98 -223 265.5t-79 369.5zM295 719 q0 -155 49.5 -280t142.5 -203l490 1024q-87 40 -199 40q-149 0 -259.5 -76t-167 -206.5t-56.5 -298.5zM604 166q79 -31 174 -31q156 0 267 76t165 206.5t54 301.5q0 144 -46 266t-131 199z" />
<glyph unicode="&#xd9;" horiz-adv-x="1435" d="M84 1364v74l391 -8v-74q-36 -28 -102 -31v-813q0 -176 89 -275.5t257 -99.5t259 100.5t91 274.5v813h-6q-66 3 -102 31v74l391 8v-74q-33 -26 -105 -33v-823q0 -250 -143.5 -391.5t-384.5 -141.5q-243 0 -387 141t-144 392v823q-71 7 -104 33zM504 1757l82 162l393 -254 l-70 -115z" />
<glyph unicode="&#xda;" horiz-adv-x="1435" d="M84 1364v74l391 -8v-74q-36 -28 -102 -31v-813q0 -176 89 -275.5t257 -99.5t259 100.5t91 274.5v813h-6q-66 3 -102 31v74l391 8v-74q-33 -26 -105 -33v-823q0 -250 -143.5 -391.5t-384.5 -141.5q-243 0 -387 141t-144 392v823q-71 7 -104 33zM475 1665l393 254l82 -162 l-407 -207z" />
<glyph unicode="&#xdb;" horiz-adv-x="1435" d="M84 1364v74l391 -8v-74q-36 -28 -102 -31v-813q0 -176 89 -275.5t257 -99.5t259 100.5t91 274.5v813h-6q-66 3 -102 31v74l391 8v-74q-33 -26 -105 -33v-823q0 -250 -143.5 -391.5t-384.5 -141.5q-243 0 -387 141t-144 392v823q-71 7 -104 33zM360 1671l293 176h135 l293 -176l-90 -125l-270 180l-268 -180z" />
<glyph unicode="&#xdc;" horiz-adv-x="1435" d="M84 1364v74l391 -8v-74q-36 -28 -102 -31v-813q0 -176 89 -275.5t257 -99.5t259 100.5t91 274.5v813h-6q-66 3 -102 31v74l391 8v-74q-33 -26 -105 -33v-823q0 -250 -143.5 -391.5t-384.5 -141.5q-243 0 -387 141t-144 392v823q-71 7 -104 33zM414 1714q0 51 32 84t84 33 q51 0 85 -33t34 -84q0 -50 -33 -83.5t-86 -33.5q-49 0 -82.5 33.5t-33.5 83.5zM797 1714q0 51 32 84t84 33q51 0 84 -33t33 -84q0 -50 -32.5 -83.5t-84.5 -33.5q-49 0 -82.5 33.5t-33.5 83.5z" />
<glyph unicode="&#xdd;" d="M-59 1395l346 63l16 -76q-26 -26 -80 -41l387 -636l391 638q-45 12 -75 39l16 76l348 -63l-12 -74q-43 -23 -104 -16l-7 2l-469 -762v-434q63 0 105 -33v-78h-391v78q42 33 102 33v434l-467 760q-50 -6 -96 16zM358 1665l394 254l82 -162l-408 -207z" />
<glyph unicode="&#xde;" horiz-adv-x="1232" d="M125 0v78q42 33 102 33v1220q-68 7 -102 33v74l391 -8v-74q-36 -28 -102 -31h-2v-127q99 6 209 6q266 0 416.5 -124.5t150.5 -329.5q0 -155 -77 -266t-212.5 -165.5t-316.5 -54.5q-94 0 -170 6v-159h2q60 0 102 -33v-78h-391zM412 428q75 -10 192 -10q191 0 296.5 83.5 t105.5 235.5q0 149 -102 231.5t-288 82.5q-88 0 -204 -11v-612z" />
<glyph unicode="&#xdf;" horiz-adv-x="1251" d="M33 909l43 156q112 0 162 -92q-7 279 113 423t335 144q180 0 294 -111t114 -274q0 -129 -62 -209t-182 -125q328 -98 328 -407q0 -195 -126 -317t-327 -122q-144 0 -236 50l9 215h84q15 -46 24 -109q66 -4 105 -4q134 0 211 74t77 209q0 156 -102 240.5t-291 84.5v142 q309 0 309 266q0 115 -61 180.5t-172 65.5q-72 0 -126.5 -25.5t-95.5 -82.5t-62 -155.5t-21 -238.5v-1229q62 -3 100 -33v-76h-377v76q38 30 103 33v1063q0 188 -170 188z" />
<glyph unicode="&#xe0;" horiz-adv-x="1081" d="M63 299q0 158 105.5 249t292.5 91q106 0 282 -41v90q0 124 -67 187t-193 63q-88 0 -194 -16l8 -131h-111q-39 134 -39 241q192 58 359 58q196 0 304 -100t108 -310v-432q0 -123 122 -123l-39 -135q-193 0 -231 157q-72 -82 -158.5 -127t-205.5 -45q-154 0 -248.5 88.5 t-94.5 235.5zM242 307q0 -84 48.5 -131t135.5 -47q182 0 317 164v168q-151 37 -278 37q-107 0 -165 -51t-58 -140zM291 1419l82 162l393 -254l-70 -115z" />
<glyph unicode="&#xe1;" horiz-adv-x="1081" d="M63 299q0 158 105.5 249t292.5 91q106 0 282 -41v90q0 124 -67 187t-193 63q-88 0 -194 -16l8 -131h-111q-39 134 -39 241q192 58 359 58q196 0 304 -100t108 -310v-432q0 -123 122 -123l-39 -135q-193 0 -231 157q-72 -82 -158.5 -127t-205.5 -45q-154 0 -248.5 88.5 t-94.5 235.5zM242 307q0 -84 48.5 -131t135.5 -47q182 0 317 164v168q-151 37 -278 37q-107 0 -165 -51t-58 -140zM283 1327l393 254l82 -162l-408 -207z" />
<glyph unicode="&#xe2;" horiz-adv-x="1081" d="M63 299q0 158 105.5 249t292.5 91q106 0 282 -41v90q0 124 -67 187t-193 63q-88 0 -194 -16l8 -131h-111q-39 134 -39 241q192 58 359 58q196 0 304 -100t108 -310v-432q0 -123 122 -123l-39 -135q-193 0 -231 157q-72 -82 -158.5 -127t-205.5 -45q-154 0 -248.5 88.5 t-94.5 235.5zM164 1319l293 207h135l293 -207l-92 -117l-269 201l-266 -201zM242 307q0 -84 48.5 -131t135.5 -47q182 0 317 164v168q-151 37 -278 37q-107 0 -165 -51t-58 -140z" />
<glyph unicode="&#xe3;" horiz-adv-x="1081" d="M63 299q0 158 105.5 249t292.5 91q106 0 282 -41v90q0 124 -67 187t-193 63q-88 0 -194 -16l8 -131h-111q-39 134 -39 241q192 58 359 58q196 0 304 -100t108 -310v-432q0 -123 122 -123l-39 -135q-193 0 -231 157q-72 -82 -158.5 -127t-205.5 -45q-154 0 -248.5 88.5 t-94.5 235.5zM182 1350q52 63 102 96t115 33q45 0 90 -22.5t85.5 -45t74.5 -22.5q26 0 51 13t39 25.5t35 34.5l90 -94q-52 -63 -100 -96t-105 -33q-42 0 -80.5 13.5t-62.5 30.5t-53 30.5t-55 13.5q-70 0 -136 -74zM242 307q0 -84 48.5 -131t135.5 -47q182 0 317 164v168 q-151 37 -278 37q-107 0 -165 -51t-58 -140z" />
<glyph unicode="&#xe4;" horiz-adv-x="1081" d="M63 299q0 158 105.5 249t292.5 91q106 0 282 -41v90q0 124 -67 187t-193 63q-88 0 -194 -16l8 -131h-111q-39 134 -39 241q192 58 359 58q196 0 304 -100t108 -310v-432q0 -123 122 -123l-39 -135q-193 0 -231 157q-72 -82 -158.5 -127t-205.5 -45q-154 0 -248.5 88.5 t-94.5 235.5zM217 1366q0 51 32.5 84t84.5 33q51 0 85 -33t34 -84q0 -50 -33 -83.5t-86 -33.5q-50 0 -83.5 33.5t-33.5 83.5zM242 307q0 -84 48.5 -131t135.5 -47q182 0 317 164v168q-151 37 -278 37q-107 0 -165 -51t-58 -140zM600 1366q0 51 32.5 84t84.5 33q51 0 84 -33 t33 -84q0 -50 -32.5 -83.5t-84.5 -33.5q-49 0 -83 33.5t-34 83.5z" />
<glyph unicode="&#xe5;" horiz-adv-x="1081" d="M63 299q0 158 105.5 249t292.5 91q106 0 282 -41v90q0 124 -67 187t-193 63q-88 0 -194 -16l8 -131h-111q-39 134 -39 241q192 58 359 58q196 0 304 -100t108 -310v-432q0 -123 122 -123l-39 -135q-193 0 -231 157q-72 -82 -158.5 -127t-205.5 -45q-154 0 -248.5 88.5 t-94.5 235.5zM242 307q0 -84 48.5 -131t135.5 -47q182 0 317 164v168q-151 37 -278 37q-107 0 -165 -51t-58 -140zM272 1438q0 104 73 172.5t179 68.5t180 -68.5t74 -172.5q0 -105 -74.5 -174.5t-179.5 -69.5q-106 0 -179 69t-73 175zM422 1438q0 -53 28.5 -88t73.5 -35 q46 0 75.5 33t29.5 90q0 51 -29.5 86t-75.5 35q-47 0 -74.5 -30.5t-27.5 -90.5z" />
<glyph unicode="&#xe6;" horiz-adv-x="1765" d="M63 309q0 164 107.5 256t304.5 92q32 0 62 -2t64 -7.5t49.5 -8.5t57 -12.5t48.5 -10.5q-9 180 -74.5 251t-222.5 71q-81 0 -158 -12l8 -129h-110q-37 138 -37 243h2v2q156 48 346 48q138 0 230 -60t124 -174l4 4q52 108 151 169t232 61q102 0 187 -37.5t139.5 -99 t84.5 -138t30 -158.5l-4 -75l-736 -201q32 -118 116 -184t216 -66q99 0 207 23q9 79 27 135h98l6 -234q-164 -80 -338 -80q-139 0 -247 52t-177 145q-83 -92 -193 -144.5t-239 -52.5q-167 0 -266 90t-99 244zM242 317q0 -91 51.5 -139.5t148.5 -48.5q190 0 355 162 q-31 89 -37 186q-159 39 -281 39q-119 0 -178 -52t-59 -147zM942 535l582 155q-15 119 -84.5 183.5t-184.5 64.5q-73 0 -130.5 -24.5t-92 -64t-56.5 -93.5t-29.5 -108.5t-4.5 -112.5z" />
<glyph unicode="&#xe7;" horiz-adv-x="995" d="M84 532q0 154 62.5 280t184 202t281.5 76q166 0 310 -89q0 -107 -39 -241h-111l10 153q-89 21 -161 21q-162 0 -260.5 -103.5t-98.5 -293.5q0 -193 94 -299.5t254 -106.5q91 0 168 23q10 102 29 153h96l8 -244q-124 -75 -262 -86l-35 -100q107 0 168.5 -46.5t61.5 -133.5 q0 -80 -72.5 -136.5t-202.5 -56.5q-116 0 -202 41l47 115q76 -29 147 -29q56 0 90.5 20.5t34.5 59.5q0 96 -231 96l63 175q-197 26 -315.5 175.5t-118.5 374.5z" />
<glyph unicode="&#xe8;" horiz-adv-x="1091" d="M84 520q0 114 33 216.5t94 181.5t155 125.5t209 46.5q104 0 190 -37.5t140 -99.5t83.5 -139t29.5 -159l-4 -73l-740 -201q69 -250 334 -250q101 0 209 23q9 79 27 135h96l8 -234q-167 -80 -340 -80q-245 0 -384.5 150.5t-139.5 394.5zM264 535l586 155q-15 117 -85 182.5 t-185 65.5q-72 0 -129.5 -26.5t-92 -67.5t-57 -95.5t-30.5 -107.5t-7 -106zM348 1419l82 162l393 -254l-69 -115z" />
<glyph unicode="&#xe9;" horiz-adv-x="1091" d="M84 520q0 114 33 216.5t94 181.5t155 125.5t209 46.5q104 0 190 -37.5t140 -99.5t83.5 -139t29.5 -159l-4 -73l-740 -201q69 -250 334 -250q101 0 209 23q9 79 27 135h96l8 -234q-167 -80 -340 -80q-245 0 -384.5 150.5t-139.5 394.5zM264 535l586 155q-15 117 -85 182.5 t-185 65.5q-72 0 -129.5 -26.5t-92 -67.5t-57 -95.5t-30.5 -107.5t-7 -106zM340 1327l393 254l82 -162l-407 -207z" />
<glyph unicode="&#xea;" horiz-adv-x="1091" d="M84 520q0 114 33 216.5t94 181.5t155 125.5t209 46.5q104 0 190 -37.5t140 -99.5t83.5 -139t29.5 -159l-4 -73l-740 -201q69 -250 334 -250q101 0 209 23q9 79 27 135h96l8 -234q-167 -80 -340 -80q-245 0 -384.5 150.5t-139.5 394.5zM223 1319l293 207h135l293 -207 l-92 -117l-268 201l-267 -201zM264 535l586 155q-15 117 -85 182.5t-185 65.5q-72 0 -129.5 -26.5t-92 -67.5t-57 -95.5t-30.5 -107.5t-7 -106z" />
<glyph unicode="&#xeb;" horiz-adv-x="1091" d="M84 520q0 114 33 216.5t94 181.5t155 125.5t209 46.5q104 0 190 -37.5t140 -99.5t83.5 -139t29.5 -159l-4 -73l-740 -201q69 -250 334 -250q101 0 209 23q9 79 27 135h96l8 -234q-167 -80 -340 -80q-245 0 -384.5 150.5t-139.5 394.5zM264 535l586 155q-15 117 -85 182.5 t-185 65.5q-72 0 -129.5 -26.5t-92 -67.5t-57 -95.5t-30.5 -107.5t-7 -106zM274 1366q0 51 32.5 84t84.5 33q51 0 85 -33t34 -84q0 -50 -33 -83.5t-86 -33.5q-49 0 -83 33.5t-34 83.5zM657 1366q0 51 32.5 84t84.5 33q51 0 84 -33t33 -84q0 -50 -32.5 -83.5t-84.5 -33.5 q-50 0 -83.5 33.5t-33.5 83.5z" />
<glyph unicode="&#xec;" horiz-adv-x="587" d="M39 1419l82 162l393 -254l-70 -115zM104 0v76q38 29 103 33v854q-27 0 -57.5 9t-45.5 21v76l277 -8v-952q62 -3 100 -33v-76h-377z" />
<glyph unicode="&#xed;" horiz-adv-x="587" d="M31 1327l393 254l82 -162l-408 -207zM104 0v76q38 29 103 33v854q-27 0 -57.5 9t-45.5 21v76l277 -8v-952q62 -3 100 -33v-76h-377z" />
<glyph unicode="&#xee;" horiz-adv-x="587" d="M-86 1319l293 207h135l293 -207l-92 -117l-269 201l-266 -201zM104 0v76q38 29 103 33v854q-27 0 -57.5 9t-45.5 21v76l277 -8v-952q62 -3 100 -33v-76h-377z" />
<glyph unicode="&#xef;" horiz-adv-x="587" d="M-35 1366q0 51 32.5 84t84.5 33q51 0 85 -33t34 -84q0 -50 -33 -83.5t-86 -33.5q-50 0 -83.5 33.5t-33.5 83.5zM104 0v76q38 29 103 33v854q-27 0 -57.5 9t-45.5 21v76l277 -8v-952q62 -3 100 -33v-76h-377zM348 1366q0 51 32.5 84t84.5 33q51 0 84 -33t33 -84 q0 -50 -32.5 -83.5t-84.5 -33.5q-49 0 -83 33.5t-34 83.5z" />
<glyph unicode="&#xf0;" horiz-adv-x="1120" d="M84 430q0 102 36.5 189.5t97.5 145t140 90t164 32.5q200 0 336 -168q-1 146 -47 269.5t-125 197.5l-135 -172l-113 90l144 158q-116 62 -232 65l6 -86h-110q-33 122 -37 240q46 4 94 4q222 0 377 -105l131 170l111 -90l-138 -153q117 -96 184.5 -258t67.5 -375 q0 -332 -134 -515.5t-378 -183.5q-87 0 -166 31t-140.5 87.5t-97.5 144t-36 192.5zM258 436q0 -143 76.5 -224t197.5 -81q286 0 324 432q-128 176 -311 176q-123 0 -205 -81t-82 -222z" />
<glyph unicode="&#xf1;" horiz-adv-x="1271" d="M104 0v76q38 29 103 33v854q-27 0 -57.5 9t-45.5 21v76l261 -8l10 -189q130 218 364 218q173 0 266 -108.5t93 -291.5v-581q62 -3 100 -33v-76h-377v76q38 30 103 33v567q0 126 -56 193t-159 67q-188 0 -328 -225v-602q62 -3 100 -33v-76h-377zM315 1350q52 63 102 96 t115 33q45 0 90 -22.5t85.5 -45t74.5 -22.5q26 0 51 13t39 25.5t35 34.5l90 -94q-52 -63 -99.5 -96t-104.5 -33q-53 0 -99.5 22t-84 44t-68.5 22q-69 0 -135 -74z" />
<glyph unicode="&#xf2;" horiz-adv-x="1224" d="M84 532q0 126 40.5 231t111.5 176.5t167.5 111t208.5 39.5q230 0 379.5 -156t149.5 -402q0 -252 -149.5 -404.5t-379.5 -152.5t-379 156t-149 401zM262 537q0 -178 97 -292t253 -114q163 0 257 108.5t94 288.5q0 178 -98 292t-253 114q-161 0 -255.5 -108.5t-94.5 -288.5 zM379 1419l82 162l393 -254l-70 -115z" />
<glyph unicode="&#xf3;" horiz-adv-x="1224" d="M84 532q0 126 40.5 231t111.5 176.5t167.5 111t208.5 39.5q230 0 379.5 -156t149.5 -402q0 -252 -149.5 -404.5t-379.5 -152.5t-379 156t-149 401zM262 537q0 -178 97 -292t253 -114q163 0 257 108.5t94 288.5q0 178 -98 292t-253 114q-161 0 -255.5 -108.5t-94.5 -288.5 zM371 1327l393 254l82 -162l-408 -207z" />
<glyph unicode="&#xf4;" horiz-adv-x="1224" d="M84 532q0 126 40.5 231t111.5 176.5t167.5 111t208.5 39.5q230 0 379.5 -156t149.5 -402q0 -252 -149.5 -404.5t-379.5 -152.5t-379 156t-149 401zM254 1319l293 207h135l293 -207l-92 -117l-269 201l-266 -201zM262 537q0 -178 97 -292t253 -114q163 0 257 108.5 t94 288.5q0 178 -98 292t-253 114q-161 0 -255.5 -108.5t-94.5 -288.5z" />
<glyph unicode="&#xf5;" horiz-adv-x="1224" d="M84 532q0 126 40.5 231t111.5 176.5t167.5 111t208.5 39.5q230 0 379.5 -156t149.5 -402q0 -252 -149.5 -404.5t-379.5 -152.5t-379 156t-149 401zM262 537q0 -178 97 -292t253 -114q163 0 257 108.5t94 288.5q0 178 -98 292t-253 114q-161 0 -255.5 -108.5t-94.5 -288.5 zM270 1350q52 63 102 96t115 33q45 0 90 -22.5t85.5 -45t74.5 -22.5q26 0 51 13t39 25.5t35 34.5l90 -94q-52 -63 -99.5 -96t-104.5 -33q-53 0 -99.5 22t-84 44t-68.5 22q-70 0 -136 -74z" />
<glyph unicode="&#xf6;" horiz-adv-x="1224" d="M84 532q0 126 40.5 231t111.5 176.5t167.5 111t208.5 39.5q230 0 379.5 -156t149.5 -402q0 -252 -149.5 -404.5t-379.5 -152.5t-379 156t-149 401zM262 537q0 -178 97 -292t253 -114q163 0 257 108.5t94 288.5q0 178 -98 292t-253 114q-161 0 -255.5 -108.5t-94.5 -288.5 zM305 1366q0 51 32.5 84t84.5 33q51 0 85 -33t34 -84q0 -50 -33 -83.5t-86 -33.5q-50 0 -83.5 33.5t-33.5 83.5zM688 1366q0 51 32.5 84t84.5 33q51 0 84 -33t33 -84q0 -50 -32.5 -83.5t-84.5 -33.5q-49 0 -83 33.5t-34 83.5z" />
<glyph unicode="&#xf7;" d="M227 623v159h774v-159h-774zM481 281q0 59 35.5 95t95.5 36q56 0 93.5 -36.5t37.5 -94.5t-36 -94.5t-95 -36.5q-56 0 -93.5 37t-37.5 94zM481 1124q0 58 36 94.5t95 36.5q56 0 93.5 -37t37.5 -94q0 -58 -36 -94.5t-95 -36.5q-56 0 -93.5 37t-37.5 94z" />
<glyph unicode="&#xf8;" horiz-adv-x="1224" d="M84 532q0 126 40.5 231t111.5 176.5t167.5 111t208.5 39.5q96 0 181 -31l110 246l137 -70l-129 -236q107 -72 168.5 -192t61.5 -270q0 -251 -149.5 -406.5t-379.5 -155.5q-89 0 -174 29l-106 -235l-137 69l122 225q-108 74 -170.5 196t-62.5 273zM262 537 q0 -222 133 -332l336 710q-59 19 -119 19q-163 0 -256.5 -108.5t-93.5 -288.5zM500 147q56 -16 112 -16q162 0 256.5 110t94.5 291q0 216 -129 326z" />
<glyph unicode="&#xf9;" horiz-adv-x="1212" d="M63 993v76l277 -8v-684q0 -122 55.5 -184t161.5 -62q81 0 158 35t139 96v701q-62 0 -100 30v76l274 -8v-789q0 -147 123 -147l-37 -135q-191 0 -231 162q-147 -177 -355 -177q-70 0 -133 22.5t-115 67.5t-83 122t-31 178v598q-27 0 -57.5 9t-45.5 21zM369 1419l82 162 l393 -254l-70 -115z" />
<glyph unicode="&#xfa;" horiz-adv-x="1212" d="M63 993v76l277 -8v-684q0 -122 55.5 -184t161.5 -62q81 0 158 35t139 96v701q-62 0 -100 30v76l274 -8v-789q0 -147 123 -147l-37 -135q-191 0 -231 162q-147 -177 -355 -177q-70 0 -133 22.5t-115 67.5t-83 122t-31 178v598q-27 0 -57.5 9t-45.5 21zM362 1327l394 254 l82 -162l-408 -207z" />
<glyph unicode="&#xfb;" horiz-adv-x="1212" d="M63 993v76l277 -8v-684q0 -122 55.5 -184t161.5 -62q81 0 158 35t139 96v701q-62 0 -100 30v76l274 -8v-789q0 -147 123 -147l-37 -135q-191 0 -231 162q-147 -177 -355 -177q-70 0 -133 22.5t-115 67.5t-83 122t-31 178v598q-27 0 -57.5 9t-45.5 21zM244 1319l293 207 h135l293 -207l-93 -117l-268 201l-266 -201z" />
<glyph unicode="&#xfc;" horiz-adv-x="1212" d="M63 993v76l277 -8v-684q0 -122 55.5 -184t161.5 -62q81 0 158 35t139 96v701q-62 0 -100 30v76l274 -8v-789q0 -147 123 -147l-37 -135q-191 0 -231 162q-147 -177 -355 -177q-70 0 -133 22.5t-115 67.5t-83 122t-31 178v598q-27 0 -57.5 9t-45.5 21zM295 1366 q0 51 32.5 84t84.5 33q51 0 84.5 -33t33.5 -84q0 -50 -32.5 -83.5t-85.5 -33.5q-50 0 -83.5 33.5t-33.5 83.5zM678 1366q0 51 32.5 84t84.5 33q51 0 83.5 -33t32.5 -84q0 -50 -32 -83.5t-84 -33.5q-49 0 -83 33.5t-34 83.5z" />
<glyph unicode="&#xfd;" horiz-adv-x="1110" d="M-31 1032l322 58l18 -78q-26 -22 -65 -35l352 -787l283 785q-41 13 -68 37l16 78l322 -58l-10 -74q-40 -19 -95 -16l-372 -1005q-58 -159 -125 -251t-139 -126.5t-170 -34.5q-111 0 -183 45l11 213h86q18 -60 26 -115q14 -2 53 -2q93 0 153 59t122 216l53 139h-84 l-399 862q-54 -3 -94 16zM344 1327l393 254l82 -162l-407 -207z" />
<glyph unicode="&#xfe;" horiz-adv-x="1208" d="M66 -375q38 30 102 33v1663q-61 0 -100 27v65l274 39v-510q115 148 309 148q93 0 178 -37.5t151 -105.5t105 -173t39 -231q0 -124 -38.5 -231.5t-103.5 -180.5t-151.5 -114.5t-181.5 -41.5q-88 0 -167.5 38t-139.5 102v-457q62 -3 100 -33v-76h-376v76zM342 264 q120 -133 285 -133q143 0 231 112.5t88 293.5q0 185 -91 293t-230 108q-87 0 -163.5 -42.5t-119.5 -102.5v-529z" />
<glyph unicode="&#xff;" horiz-adv-x="1110" d="M-31 1032l322 58l18 -78q-26 -22 -65 -35l352 -787l283 785q-41 13 -68 37l16 78l322 -58l-10 -74q-40 -19 -95 -16l-372 -1005q-58 -159 -125 -251t-139 -126.5t-170 -34.5q-111 0 -183 45l11 213h86q18 -60 26 -115q14 -2 53 -2q93 0 153 59t122 216l53 139h-84 l-399 862q-54 -3 -94 16zM279 1366q0 51 32 84t84 33q51 0 85 -33t34 -84q0 -50 -33 -83.5t-86 -33.5q-49 0 -82.5 33.5t-33.5 83.5zM662 1366q0 51 32 84t84 33q51 0 84 -33t33 -84q0 -50 -32.5 -83.5t-84.5 -33.5q-49 0 -82.5 33.5t-33.5 83.5z" />
<glyph unicode="&#x152;" horiz-adv-x="1841" d="M104 719q0 211 79.5 377.5t234.5 264t362 97.5q112 0 213 -24h754q0 -156 -37 -304h-119l13 148h-467v-455h428l100 6l-18 -157h-510v-516h477q9 79 22 141h103l8 -297h-756q-110 -25 -211 -25q-125 0 -233 38t-188.5 106t-138.5 160.5t-87 204.5t-29 235zM295 719 q0 -116 33 -221t93.5 -186t153 -129t203.5 -48q74 0 174 17v1126q-104 22 -174 22q-149 0 -259.5 -76t-167 -206.5t-56.5 -298.5z" />
<glyph unicode="&#x153;" horiz-adv-x="1939" d="M84 532q0 167 69 295t186 195.5t263 67.5q139 0 249.5 -70t174.5 -195q56 127 159 196t240 69q103 0 188.5 -37.5t139.5 -99.5t83.5 -139t29.5 -159l-4 -73l-736 -201q32 -119 115 -184.5t215 -65.5q101 0 209 23q9 79 27 135h96l8 -234q-167 -80 -340 -80 q-298 0 -432 252q-140 -252 -422 -252q-223 0 -370.5 156.5t-147.5 400.5zM262 537q0 -175 96.5 -290.5t243.5 -115.5q156 0 248 107t92 290q0 178 -96 293t-244 115q-155 0 -247.5 -109t-92.5 -290zM1116 535l582 155q-15 118 -85 183t-183 65q-73 0 -130 -27.5t-91 -69.5 t-56 -97.5t-30 -106.5t-7 -102z" />
<glyph unicode="&#x178;" d="M-59 1395l346 63l16 -76q-26 -26 -80 -41l387 -636l391 638q-45 12 -75 39l16 76l348 -63l-12 -74q-43 -23 -104 -16l-7 2l-469 -762v-434q63 0 105 -33v-78h-391v78q42 33 102 33v434l-467 760q-50 -6 -96 16zM297 1714q0 51 32.5 84t84.5 33q51 0 84.5 -33t33.5 -84 q0 -50 -32.5 -83.5t-85.5 -33.5q-50 0 -83.5 33.5t-33.5 83.5zM680 1714q0 51 32.5 84t84.5 33q51 0 83.5 -33t32.5 -84q0 -50 -32 -83.5t-84 -33.5q-49 0 -83 33.5t-34 83.5z" />
<glyph unicode="&#x2c6;" horiz-adv-x="843" d="M61 1319l293 207h135l293 -207l-92 -117l-268 201l-266 -201z" />
<glyph unicode="&#x2dc;" horiz-adv-x="804" d="M61 1350q52 63 102.5 96t115.5 33q45 0 90 -22.5t85 -45t74 -22.5q26 0 51 13t39 25.5t35 34.5l90 -94q-52 -63 -99.5 -96t-104.5 -33q-53 0 -99.5 22t-84 44t-68.5 22q-69 0 -135 -74z" />
<glyph unicode="&#x2000;" horiz-adv-x="959" />
<glyph unicode="&#x2001;" horiz-adv-x="1919" />
<glyph unicode="&#x2002;" horiz-adv-x="959" />
<glyph unicode="&#x2003;" horiz-adv-x="1919" />
<glyph unicode="&#x2004;" horiz-adv-x="639" />
<glyph unicode="&#x2005;" horiz-adv-x="479" />
<glyph unicode="&#x2006;" horiz-adv-x="319" />
<glyph unicode="&#x2007;" horiz-adv-x="319" />
<glyph unicode="&#x2008;" horiz-adv-x="239" />
<glyph unicode="&#x2009;" horiz-adv-x="383" />
<glyph unicode="&#x200a;" horiz-adv-x="106" />
<glyph unicode="&#x2010;" horiz-adv-x="1024" d="M166 623v159h692v-159h-692z" />
<glyph unicode="&#x2011;" horiz-adv-x="1024" d="M166 623v159h692v-159h-692z" />
<glyph unicode="&#x2012;" horiz-adv-x="1024" d="M166 623v159h692v-159h-692z" />
<glyph unicode="&#x2013;" horiz-adv-x="1267" d="M166 623v159h936v-159h-936z" />
<glyph unicode="&#x2014;" horiz-adv-x="1531" d="M166 623v159h1200v-159h-1200z" />
<glyph unicode="&#x2018;" horiz-adv-x="454" d="M88 1260q0 94 50.5 178.5t148.5 144.5l47 -70q-103 -87 -117 -182q73 7 111.5 -24t38.5 -93q0 -53 -35.5 -85.5t-95.5 -32.5q-67 0 -107.5 43.5t-40.5 120.5z" />
<glyph unicode="&#x2019;" horiz-adv-x="454" d="M88 1417q0 54 36.5 87.5t94.5 33.5q67 0 107.5 -44t40.5 -122q0 -95 -50 -178.5t-147 -142.5l-49 67q103 86 117 182q-73 -6 -111.5 25t-38.5 92z" />
<glyph unicode="&#x201a;" horiz-adv-x="454" d="M88 119q0 53 36.5 86t94.5 33q67 0 107.5 -43t40.5 -121q0 -95 -50 -179.5t-147 -142.5l-49 68q103 87 117 182q-72 -7 -111 24.5t-39 92.5z" />
<glyph unicode="&#x201c;" horiz-adv-x="815" d="M88 1260q0 94 50.5 178.5t148.5 144.5l47 -70q-103 -87 -117 -182q73 7 111.5 -24t38.5 -93q0 -53 -35.5 -85.5t-95.5 -32.5q-67 0 -107.5 43.5t-40.5 120.5zM449 1260q0 95 50 179t148 144l47 -70q-103 -89 -116 -182q73 7 112 -24t39 -93q0 -53 -36.5 -85.5 t-94.5 -32.5q-67 0 -108 43.5t-41 120.5z" />
<glyph unicode="&#x201d;" horiz-adv-x="811" d="M88 1417q0 54 36.5 87.5t94.5 33.5q67 0 107.5 -44t40.5 -122q0 -95 -50 -178.5t-147 -142.5l-49 67q103 86 117 182q-73 -6 -111.5 25t-38.5 92zM444 1417q0 54 36.5 87.5t94.5 33.5q67 0 107.5 -44t40.5 -122q0 -95 -50 -178.5t-147 -142.5l-49 67q103 86 117 182 q-73 -6 -111.5 25t-38.5 92z" />
<glyph unicode="&#x201e;" horiz-adv-x="811" d="M88 119q0 54 36.5 87.5t94.5 33.5q67 0 107.5 -44t40.5 -122q0 -95 -50 -179.5t-147 -142.5l-49 68q103 87 117 182q-73 -6 -111.5 25t-38.5 92zM444 119q0 54 36.5 87.5t94.5 33.5q67 0 107.5 -44t40.5 -122q0 -95 -50 -179.5t-147 -142.5l-49 68q103 87 117 182 q-73 -6 -111.5 25t-38.5 92z" />
<glyph unicode="&#x2022;" horiz-adv-x="868" d="M190 727q0 105 67 174.5t177 69.5q108 0 177 -69.5t69 -174.5t-68 -174.5t-178 -69.5q-109 0 -176.5 69.5t-67.5 174.5z" />
<glyph unicode="&#x2026;" horiz-adv-x="1843" d="M176 106q0 59 35.5 95.5t95.5 36.5q56 0 93.5 -37t37.5 -95t-36 -94.5t-95 -36.5q-56 0 -93.5 37t-37.5 94zM791 106q0 59 35.5 95.5t95.5 36.5q56 0 93.5 -37t37.5 -95t-36 -94.5t-95 -36.5q-56 0 -93.5 37t-37.5 94zM1405 106q0 59 35.5 95.5t95.5 36.5q56 0 93.5 -37 t37.5 -95t-36 -94.5t-95 -36.5q-56 0 -93.5 37t-37.5 94z" />
<glyph unicode="&#x202f;" horiz-adv-x="383" />
<glyph unicode="&#x2039;" horiz-adv-x="731" d="M145 664v81l324 402l119 -98l-291 -344l291 -345l-119 -98z" />
<glyph unicode="&#x203a;" horiz-adv-x="731" d="M145 360l289 345l-289 344l117 98l326 -402v-81l-326 -402z" />
<glyph unicode="&#x205f;" horiz-adv-x="479" />
<glyph unicode="&#x20ac;" horiz-adv-x="1294" d="M104 475v141h177v142h-177v141h189q46 253 199.5 395t394.5 142q186 0 346 -82q0 -121 -39 -267h-117l17 173q-101 24 -203 24q-170 0 -278.5 -98.5t-143.5 -286.5h528l-24 -141h-512v-142h483l-24 -141h-439q36 -169 138 -258.5t251 -89.5q108 0 203 31q6 99 29 188h100 l10 -270q-50 -29 -90 -47.5t-110.5 -36t-143.5 -17.5q-225 0 -371.5 130t-201.5 370h-191z" />
<glyph unicode="&#x2122;" horiz-adv-x="1843" d="M41 1556h985l227 -514l224 508l272 15v-62q-21 -15 -70 -22v-668q45 -3 70 -25v-71h-213v657l-207 -446l-141 -37l-230 493v-667h-208v71q29 22 69 25v623h-297v-623q43 -3 72 -25v-71h-281v71q31 22 66 25v623h-221l8 -101h-88q-37 106 -37 221z" />
<glyph unicode="&#x25fc;" horiz-adv-x="1085" d="M0 0v1085h1085v-1085h-1085z" />
</font>
</defs>
</svg>
