<?xml version="1.0" standalone="no"?>
<!DOCTYPE svg PUBLIC "-//W3C//DTD SVG 1.1//EN" "http://www.w3.org/Graphics/SVG/1.1/DTD/svg11.dtd" >
<svg xmlns="http://www.w3.org/2000/svg">
<metadata></metadata>
<defs>
<font id="abezeh_slabextrabold" horiz-adv-x="1228" >
<font-face units-per-em="2048" ascent="1638" descent="-410" />
<missing-glyph horiz-adv-x="614" />
<glyph unicode="&#xfb01;" horiz-adv-x="1273" d="M41 748v235h147v143q0 196 117 305t313 109q109 0 200 -29t216 -94l21 -276h-219q-21 74 -31 127q-78 20 -154 20q-72 0 -113.5 -39t-41.5 -114v-152h610v-817q59 0 104 -35v-131h-411v748h-303v-582q61 0 106 -35v-131h-414v748h-147z" />
<glyph unicode="&#xfb02;" horiz-adv-x="1478" d="M41 748v235h147v156q0 189 115 295t313 106q99 0 197.5 -21t157 -43.5t129.5 -56.5v-1046q0 -67 34.5 -104.5t100.5 -37.5h31q4 37 22 142h154l26 -342q-118 -56 -272 -56q-115 0 -204 37t-144 120t-55 204v926q-69 16 -129 16q-168 0 -168 -143v-152h176l-41 -235h-135 v-582q61 0 106 -35v-131h-414v748h-147z" />
<glyph unicode="&#xfb03;" horiz-adv-x="1906" d="M41 748v178q56 39 149 45v127q0 197 119.5 307.5t329.5 110.5q172 0 315 -70q114 94 295 94q111 0 202 -29t216 -94l21 -276h-220q-17 62 -30 127q-78 20 -154 20q-74 0 -115 -39t-41 -114v-152h611l-2 -2v-815q61 0 106 -35v-131h-413v748h-302v-582q62 0 107 -35v-131 h-414v748h-323v-582q59 0 104 -35v-131h-412v748h-149zM498 983h323v143q0 54 15 127q-78 19 -154 19q-184 0 -184 -156v-133z" />
<glyph unicode="&#xfb04;" horiz-adv-x="2109" d="M41 748v178q56 39 147 45v127q0 197 120.5 307.5t328.5 110.5q167 0 313 -68q115 92 297 92q99 0 197.5 -21t157 -43.5t129.5 -56.5v-1046q0 -67 34.5 -104.5t102.5 -37.5h28q2 25 23 142h154l26 -342q-118 -56 -272 -56q-177 0 -290.5 91.5t-113.5 269.5v926 q-69 16 -129 16q-168 0 -168 -143v-152h177l-41 -235h-136v-582q62 0 107 -35v-131h-414v748h-323v-582q61 0 106 -35v-131h-414v748h-147zM496 983h323v156q0 61 12 114q-74 19 -149 19q-186 0 -186 -156v-133z" />
<glyph horiz-adv-x="2048" />
<glyph horiz-adv-x="2048" />
<glyph unicode="&#xd;" horiz-adv-x="2048" />
<glyph unicode=" "  horiz-adv-x="614" />
<glyph unicode="&#x09;" horiz-adv-x="614" />
<glyph unicode="&#xa0;" horiz-adv-x="614" />
<glyph unicode="!" horiz-adv-x="690" d="M145 170q0 86 57.5 141.5t143.5 55.5q84 0 142.5 -55.5t58.5 -139.5q0 -85 -58.5 -141t-142.5 -56q-85 0 -143 55.5t-58 139.5zM184 936v557h316v-557l-35 -434h-248z" />
<glyph unicode="&#x22;" horiz-adv-x="901" d="M92 1434h289l-29 -551h-231zM520 1434h287l-29 -551h-229z" />
<glyph unicode="#" horiz-adv-x="1392" d="M61 254l43 242h158l55 327h-170l41 242h172l46 254h284l-45 -254h229l46 254h284l-45 -254h172l-43 -242h-172l-55 -327h184l-43 -242h-184l-43 -254h-285l43 254h-229l-43 -254h-285l43 254h-158zM547 496h229l55 327h-229z" />
<glyph unicode="$" horiz-adv-x="1052" d="M49 178l25 320h157q21 -100 29 -179q107 -38 254 -38q102 0 161.5 34.5t59.5 100.5q0 65 -57 106.5t-225 98.5q-189 64 -278 155.5t-89 231.5q0 130 89 226.5t253 127.5l-33 274h303l-30 -268q170 -16 331 -100q0 -172 -43 -332h-180l12 178q-112 23 -215 23 q-89 0 -138.5 -32t-49.5 -85q0 -59 55.5 -94.5t229.5 -94.5q197 -67 280.5 -160.5t83.5 -238.5q0 -153 -98.5 -252t-269.5 -129l30 -276h-305l33 268q-213 20 -375 135z" />
<glyph unicode="%" horiz-adv-x="2011" d="M94 999q0 219 95.5 334t271.5 115q73 0 131 -21l237 11v-99q-32 -23 -94 -12q94 -123 94 -328q0 -221 -95 -334.5t-273 -113.5q-180 0 -273.5 113.5t-93.5 334.5zM350 999q0 -258 111 -258q58 0 85 55.5t27 202.5q0 144 -27.5 201t-84.5 57q-56 0 -83.5 -56.5 t-27.5 -201.5zM465 14l895 1520l184 -115l-895 -1519zM1184 434q0 220 95 334.5t271 114.5q72 0 131 -21l238 10v-98q-32 -23 -94 -12q94 -123 94 -328q0 -221 -95 -334.5t-274 -113.5q-180 0 -273 113.5t-93 334.5zM1440 434q0 -258 110 -258q58 0 85.5 56t27.5 202 q0 144 -28 201t-85 57q-56 0 -83 -56.5t-27 -201.5z" />
<glyph unicode="&#x26;" horiz-adv-x="1536" d="M125 377q0 257 256 411q-70 81 -98.5 152t-28.5 158q0 154 108.5 257t284.5 103q169 0 277 -98.5t108 -243.5q0 -112 -62.5 -199t-203.5 -176l219 -247q77 108 123 251l-8 3q-53 11 -94 47l26 123l441 -72l-21 -129q-45 -23 -117 -17l-10 2q-55 -208 -172 -364l154 -158 h2q75 6 118 -16l25 -146l-322 -43l-137 156q-82 -75 -176 -115.5t-225 -40.5q-199 0 -333 112.5t-134 289.5zM451 391q0 -71 45 -114.5t122 -43.5q122 0 197 72l-264 297q-100 -87 -100 -211zM549 1100q0 -104 67 -187q63 46 92 93.5t29 107.5q0 50 -25 77.5t-67 27.5 q-45 0 -70.5 -32t-25.5 -87z" />
<glyph unicode="'" horiz-adv-x="473" d="M92 1434h289l-29 -551h-231z" />
<glyph unicode="(" horiz-adv-x="651" d="M82 655q0 230 85 450t239 464l161 -86q-81 -187 -133.5 -406t-52.5 -422t52.5 -422.5t133.5 -406.5l-161 -86q-154 243 -239 464t-85 451z" />
<glyph unicode=")" horiz-adv-x="651" d="M82 -174q82 186 135 405.5t53 423.5t-53 423t-135 405l164 86q153 -239 237 -460.5t84 -453.5t-84.5 -454t-236.5 -461z" />
<glyph unicode="*" horiz-adv-x="921" d="M86 1159l74 225l211 -102l-29 234h236l-29 -232l215 102l70 -227l-232 -45l164 -172l-193 -137l-112 207l-113 -207l-190 139l161 170z" />
<glyph unicode="+" d="M176 573v248h291v312h295v-312h291v-248h-291v-311h-295v311h-291z" />
<glyph unicode="," horiz-adv-x="604" d="M-18 -276q94 121 148 243.5t83 288.5l268 -82q-30 -201 -106.5 -326t-224.5 -225z" />
<glyph unicode="-" horiz-adv-x="1028" d="M131 569v256h766v-256h-766z" />
<glyph unicode="." horiz-adv-x="610" d="M104 170q0 86 57.5 141.5t143.5 55.5q84 0 142.5 -55.5t58.5 -139.5q0 -86 -57.5 -141.5t-143.5 -55.5q-84 0 -142.5 55.5t-58.5 139.5z" />
<glyph unicode="/" horiz-adv-x="921" d="M49 -59l569 1638l256 -80l-573 -1640z" />
<glyph unicode="0" horiz-adv-x="1265" d="M102 705q0 360 136 544.5t395 184.5q97 0 182 -31l-4 4l350 18v-139q-56 -33 -149 -33q149 -193 149 -548q0 -360 -135 -545t-393 -185q-262 0 -396.5 185.5t-134.5 544.5zM436 705q0 -245 50.5 -355t146.5 -110q65 0 105 36.5t64.5 141t24.5 287.5q0 248 -49 357 t-145 109q-48 0 -82 -20t-61 -70.5t-40.5 -143.5t-13.5 -232z" />
<glyph unicode="1" horiz-adv-x="1024" d="M41 1155l463 264l246 -20v-1133h84q89 0 139 -39v-227h-826v227q50 39 140 39h141v817l-258 -151z" />
<glyph unicode="2" horiz-adv-x="1085" d="M72 121q0 89 20 169t53.5 141.5t76.5 116.5t91.5 99t96.5 84t91 77t76.5 72.5t53.5 75.5t20 82q0 71 -44.5 109.5t-131.5 38.5q-83 0 -172 -27l12 -178h-192q-24 77 -32.5 145t-10.5 177q192 131 436 131q204 0 332.5 -109.5t128.5 -280.5q0 -73 -27 -138t-71.5 -115.5 t-98.5 -98t-110.5 -94.5t-105.5 -95.5t-86.5 -111t-49.5 -131.5h336q9 88 24 160h175l20 -420h-905q-6 58 -6 121z" />
<glyph unicode="3" horiz-adv-x="1101" d="M61 117l23 329h152q27 -98 34 -182q83 -35 209 -35q102 0 160.5 47t58.5 144q0 92 -68.5 142t-207.5 50h-137l32 240h101q117 0 181.5 42.5t64.5 129.5q0 76 -50.5 118t-142.5 42q-86 0 -164 -19l10 -164h-186q-26 78 -34.5 141.5t-10.5 170.5q177 119 424 119 q207 0 342 -111.5t135 -269.5q0 -119 -64.5 -187.5t-189.5 -109.5q297 -73 297 -348q0 -197 -153 -314t-394 -117q-247 0 -422 142z" />
<glyph unicode="4" horiz-adv-x="1150" d="M66 297v211l421 930l271 -115l-352 -770h243l60 307l239 21v-328h129l-20 -256h-109v-127h15q69 0 114 -35v-135h-555v135q45 35 115 35h12v127h-583z" />
<glyph unicode="5" horiz-adv-x="1161" d="M102 1268v147l115 -6h815q0 -192 -47 -393h-190l12 143l-291 2v-278h43q241 0 380.5 -119t139.5 -320q0 -215 -148.5 -342t-391.5 -127t-422 119l22 332h152q22 -83 33 -162q95 -28 204 -28q95 0 156 49t61 143q0 199 -274 199h-254v606q-78 6 -115 35z" />
<glyph unicode="6" horiz-adv-x="1185" d="M92 565q0 141 28.5 266t89.5 233t150.5 186t219.5 122.5t288 44.5q54 0 140 -6q-3 -196 -56 -362h-186l12 141q-151 -24 -238.5 -121t-123.5 -268q57 51 132.5 80.5t156.5 29.5q177 0 288 -124t111 -322q0 -217 -136.5 -353.5t-357.5 -136.5q-111 0 -203.5 35 t-163.5 105.5t-111 185t-40 264.5zM410 567q0 -176 49.5 -253.5t146.5 -77.5q80 0 130 55t50 160q0 102 -39.5 159.5t-121.5 57.5q-62 0 -110.5 -24.5t-104.5 -76.5z" />
<glyph unicode="7" horiz-adv-x="1064" d="M72 1409h813l180 12v-221q-167 -167 -257 -314t-129.5 -310.5t-47.5 -405.5q67 -3 108 -35v-135h-555v135q45 35 113 35q12 229 63 408t137 317.5t220 271.5h-416l12 -159h-192q-49 209 -49 401z" />
<glyph unicode="8" horiz-adv-x="1210" d="M82 379q0 251 297 373q-115 64 -170 136.5t-55 182.5q0 155 124 259t320 104q88 0 174 -27l350 18v-139q-61 -33 -137 -22q70 -92 70 -195q0 -106 -59 -178.5t-171 -122.5q150 -65 226.5 -157t76.5 -224q0 -181 -144.5 -296.5t-371.5 -115.5q-123 0 -224 32.5 t-167.5 87.5t-102.5 128.5t-36 155.5zM399 410q0 -77 62 -128t153 -51q87 0 142 44.5t55 117.5q0 65 -59 122.5t-168 96.5q-78 -24 -131.5 -77.5t-53.5 -124.5zM455 1071q0 -104 170 -180q127 62 127 164q0 66 -40 100.5t-114 34.5q-64 0 -103.5 -32t-39.5 -87z" />
<glyph unicode="9" horiz-adv-x="1185" d="M92 965q0 200 137 334.5t351 134.5q261 0 381 -163.5t120 -510.5q0 -405 -143 -595t-403 -190q-117 0 -207.5 38.5t-175.5 107.5l22 315h152q26 -85 34 -172q86 -28 168 -28q110 0 176 95.5t66 301.5q-105 -105 -258 -105q-82 0 -156.5 27.5t-134 80.5t-94.5 138t-35 191 zM406 967q0 -94 46 -144.5t121 -50.5q109 0 189 86q-1 176 -45.5 249t-136.5 73q-80 0 -127 -55.5t-47 -157.5z" />
<glyph unicode=":" horiz-adv-x="612" d="M104 842q0 85 57.5 140.5t143.5 55.5q84 0 142.5 -55t58.5 -139q0 -87 -57.5 -142t-143.5 -55q-85 0 -143 55t-58 140zM106 170q0 86 57.5 141.5t143.5 55.5q84 0 142.5 -55.5t58.5 -139.5q0 -86 -57.5 -141.5t-143.5 -55.5q-84 0 -142.5 55.5t-58.5 139.5z" />
<glyph unicode=";" horiz-adv-x="634" d="M-18 -276q94 121 148 243.5t83 288.5l268 -82q-30 -201 -106.5 -326t-224.5 -225zM129 842q0 85 58.5 140.5t142.5 55.5q85 0 142.5 -55t57.5 -139q0 -87 -57 -142t-143 -55q-85 0 -143 55t-58 140z" />
<glyph unicode="&#x3c;" d="M201 608v183l684 415l143 -229l-508 -283l508 -276l-143 -230z" />
<glyph unicode="=" d="M209 379v250h811v-250h-811zM209 782v250h811v-250h-811z" />
<glyph unicode="&#x3e;" d="M201 418l508 276l-508 283l143 229l684 -415v-183l-684 -420z" />
<glyph unicode="?" horiz-adv-x="1019" d="M61 1372q97 79 205 123.5t254 44.5q189 0 307.5 -101.5t118.5 -252.5q0 -69 -21 -127.5t-54.5 -100t-73.5 -78.5t-80.5 -73t-74 -74t-54.5 -90t-21 -113v-28h-248q-26 58 -26 125q0 68 24.5 128t61 100t79.5 80.5t79.5 72t61 73t24.5 84.5q0 57 -39 87t-113 30 q-107 0 -195 -43l15 -213h-182q-48 156 -48 346zM256 168q0 87 57.5 142t143.5 55q84 0 142 -55t58 -140t-58 -141t-142 -56q-85 0 -143 55.5t-58 139.5z" />
<glyph unicode="@" horiz-adv-x="2129" d="M98 440q0 164 46.5 316.5t136.5 279.5t213 221.5t286.5 147.5t347.5 53q197 0 367 -64.5t287 -174.5t183.5 -261t66.5 -321q0 -142 -42 -267t-112.5 -210.5t-164.5 -135t-197 -49.5q-204 0 -263 148q-61 -63 -126.5 -94t-161.5 -31q-139 0 -233.5 81t-94.5 218t95 217 t261 80q84 0 203 -25v41q0 158 -162 158q-47 0 -133 -4l8 -107h-155q-37 133 -37 261q169 49 356 49q184 0 287.5 -86.5t103.5 -266.5v-338q0 -90 84 -90q87 0 149 121.5t62 323.5q0 269 -175.5 431.5t-463.5 162.5q-173 0 -317 -65.5t-237 -175.5t-144 -249.5t-51 -290.5 q0 -221 86 -377t235.5 -232.5t349.5 -76.5q257 0 510 123l76 -219q-115 -63 -269.5 -100t-316.5 -37q-205 0 -378 62t-299 177t-196.5 288.5t-70.5 387.5zM889 313q0 -49 34.5 -74.5t92.5 -25.5q108 0 180 78v98q-89 25 -160 23q-147 0 -147 -99z" />
<glyph unicode="A" horiz-adv-x="1466" d="M-51 35l24 145q36 18 88 18q14 0 29 -1l428 1063q-62 3 -102 30v129l481 23l496 -1243q64 0 100 -19l25 -145l-517 -74l-30 133q41 36 94 47l10 2l-71 197h-541l-70 -197l6 -2q55 -12 95 -47l-31 -133zM557 600h356l-172 518z" />
<glyph unicode="B" horiz-adv-x="1351" d="M92 27v151q38 29 115 33v1016q-77 4 -115 33v147q274 43 543 43q281 0 441.5 -113.5t160.5 -283.5q0 -109 -59.5 -180t-178.5 -111q144 -41 216.5 -121.5t72.5 -218.5q0 -200 -173 -319t-484 -119t-539 43zM532 240h150q125 0 194.5 47.5t69.5 142.5q0 93 -66 140.5 t-188 47.5h-160v-378zM532 860h152q103 0 163 45t60 123q0 83 -60.5 126.5t-176.5 43.5h-138v-338z" />
<glyph unicode="C" horiz-adv-x="1247" d="M72 711q0 337 196.5 542t517.5 205q220 0 400 -90q0 -224 -47 -395h-201l14 209q-72 10 -145 10q-190 0 -291.5 -121t-101.5 -352q0 -234 100 -353.5t279 -119.5q87 0 151 12q7 65 35 203h176l21 -379q-180 -107 -412 -107q-150 0 -276.5 49.5t-219 142t-144.5 232.5 t-52 312z" />
<glyph unicode="D" horiz-adv-x="1454" d="M92 27v151q38 29 115 33v1016q-77 4 -115 33v147q274 43 541 43q154 0 279.5 -38t211.5 -104.5t144 -159t85 -200t27 -229.5q0 -166 -47.5 -299.5t-142.5 -231.5t-246 -151t-348 -53q-265 0 -504 43zM532 250h115q182 0 287.5 116.5t105.5 352.5q0 216 -97.5 342.5 t-291.5 126.5h-119v-938z" />
<glyph unicode="E" horiz-adv-x="1218" d="M92 0v145q45 35 115 35v1077q-78 6 -115 35v148l115 -6h950q0 -223 -47 -404h-195l13 146h-396v-318h394l125 8l-29 -250h-490v-360h398q7 68 26 164h174l21 -420h-1059z" />
<glyph unicode="F" horiz-adv-x="1173" d="M92 0v135q45 35 115 35v1087q-78 6 -115 35v148l115 -6h936q0 -223 -47 -404h-195l12 146h-381v-340h353l125 8l-29 -252h-449v-422q70 0 115 -35v-135h-555z" />
<glyph unicode="G" horiz-adv-x="1456" d="M72 690q0 225 83.5 398.5t243.5 271.5t375 98q248 0 463 -119q0 -195 -47 -366h-201l12 196q-104 23 -208 23q-176 0 -277.5 -131t-101.5 -367q0 -221 92 -336.5t244 -115.5q134 0 235 94v252l-250 -8l29 245h547l114 6v-147q-37 -29 -114 -35v-469q69 0 114 -35v-145 h-393l-20 109q-153 -134 -340 -134q-122 0 -230.5 48t-191 136.5t-130.5 226t-48 304.5z" />
<glyph unicode="H" horiz-adv-x="1568" d="M92 0v135q45 35 115 35v1098q-78 6 -115 35v137l555 -10v-136q-37 -29 -115 -32v-390h504v390q-77 3 -114 32v136l555 10v-137q-37 -29 -115 -35v-1098q68 0 113 -35v-135h-555v135q45 35 114 35h2v436h-504v-436q70 0 115 -35v-135h-555z" />
<glyph unicode="I" horiz-adv-x="741" d="M92 0v135q45 35 115 35v1092q-78 3 -115 32v136l555 10v-137q-37 -29 -115 -35v-1098q70 0 115 -35v-135h-555z" />
<glyph unicode="J" horiz-adv-x="1007" d="M10 104l27 342h170q27 -124 33 -194q52 -10 108 -10q77 0 122.5 50t45.5 144v826q-78 3 -115 32v136l553 10v-137q-37 -29 -114 -35v-819q0 -120 -37.5 -212.5t-103 -148.5t-147.5 -84.5t-177 -28.5q-217 0 -365 129z" />
<glyph unicode="K" horiz-adv-x="1411" d="M92 0v135q45 35 115 35v1098q-78 6 -115 35v137l555 -10v-136q-37 -29 -115 -32v-422l404 442q-47 11 -82 43l29 129l493 -65l-22 -142q-34 -17 -88 -17q-15 0 -31 1l-444 -490l540 -542q60 0 96 -19l25 -145l-516 -74l-29 133q29 25 66 39l-441 453v-416q70 0 115 -35 v-135h-555z" />
<glyph unicode="L" horiz-adv-x="1120" d="M92 1303v137l555 -10v-136q-37 -29 -115 -32v-994h388q15 103 26 152h174l21 -420h-934v1268q-78 6 -115 35z" />
<glyph unicode="M" horiz-adv-x="1859" d="M92 0v135q45 35 115 35h6v1085q-78 6 -115 35v137l115 5l420 14l295 -830l303 830l422 -14l112 -5v-137q-37 -29 -112 -35v-1085q67 0 112 -35v-135h-553v135q45 35 115 35v879l-254 -721l-280 -35l-269 756v-879h8q70 0 115 -35v-135h-555z" />
<glyph unicode="N" horiz-adv-x="1570" d="M92 0v135q45 35 115 35h6v1085q-78 6 -115 35v137l115 5l403 14l431 -1002v818h-9q-77 3 -114 32v136l555 10v-137q-37 -29 -115 -35h-6v-1243l-397 -50l-437 992v-797h8q70 0 115 -35v-135h-555z" />
<glyph unicode="O" horiz-adv-x="1550" d="M72 719q0 215 82.5 381t243.5 262t378 96q216 0 377 -98.5t243.5 -266t82.5 -378.5q0 -215 -82.5 -381.5t-243.5 -262.5t-377 -96q-163 0 -297 57t-222.5 157.5t-136.5 236t-48 293.5zM414 719q0 -131 39.5 -237.5t123 -173t199.5 -66.5q174 0 267.5 129.5t93.5 343.5 q0 131 -39.5 237.5t-123 173t-198.5 66.5q-173 0 -267.5 -130t-94.5 -343z" />
<glyph unicode="P" horiz-adv-x="1275" d="M92 0v135q45 35 115 35v1069q-77 4 -115 33v137q187 24 296.5 32.5t242.5 8.5q299 0 461.5 -133t162.5 -346q0 -237 -171.5 -369.5t-450.5 -132.5q-55 0 -101 6v-305q70 0 115 -35v-135h-555zM532 733q50 -6 117 -6q135 0 205 62t70 176q0 107 -70.5 167t-198.5 60h-123 v-459z" />
<glyph unicode="Q" horiz-adv-x="1562" d="M72 719q0 215 82.5 381t243 262t376.5 96q162 0 295 -57t221.5 -157t136.5 -236t48 -293q0 -192 -87.5 -358t-238.5 -267q31 -48 71 -66t107 -20q4 53 25 152h151l19 -295q-96 -47 -207 -47q-117 0 -199 44t-147 146q-98 -29 -195 -29q-216 0 -377 99t-243 266.5 t-82 378.5zM414 719q0 -133 39.5 -241.5t122.5 -176.5t198 -68q18 0 80 5l-96 206l213 86l69 -200q93 107 93 385q0 131 -39.5 237.5t-122.5 173t-197 66.5q-174 0 -267 -129.5t-93 -343.5z" />
<glyph unicode="R" horiz-adv-x="1374" d="M92 1260v147q274 43 541 43q285 0 438.5 -119.5t153.5 -306.5q0 -263 -316 -346q93 -36 156 -96t115 -174l96 -211h16q52 0 88 -17l25 -145l-516 -74l-29 133q37 33 88 45l-88 193q-59 127 -124 180t-148 53h-56v-395q70 0 115 -35v-135h-553v135q45 35 113 35v1057 q-77 4 -115 33zM532 825h130q112 0 173.5 50t61.5 137q0 83 -61 131.5t-174 48.5h-130v-367z" />
<glyph unicode="S" horiz-adv-x="1208" d="M51 129l27 356h176q27 -123 31 -198q123 -45 282 -45q115 0 180.5 39t65.5 114q0 71 -64 118.5t-249 109.5q-210 70 -309 172t-99 258q0 175 142 290t395 115q255 0 477 -117q0 -197 -47 -368h-201l12 196q-125 27 -237 27q-98 0 -153.5 -36t-55.5 -95q0 -65 61.5 -104 t253.5 -105q220 -76 314 -179t94 -263q0 -206 -158.5 -322.5t-419.5 -116.5q-295 0 -518 154z" />
<glyph unicode="T" horiz-adv-x="1216" d="M-10 1430l1237 10q0 -223 -47 -404h-195l12 160l-225 -2v-1024q70 0 115 -35v-135h-553v135q45 35 112 35v1020l-229 -2l14 -162h-194q-47 181 -47 404z" />
<glyph unicode="U" horiz-adv-x="1470" d="M51 1303v137l555 -10v-136q-37 -29 -114 -32h-3v-748q0 -132 65.5 -202t182.5 -70q119 0 182.5 69.5t63.5 202.5v748h-4q-78 3 -115 32v136l555 10v-137q-37 -29 -114 -35h-2v-754q0 -253 -155 -396t-411 -143q-261 0 -417 140t-156 391v762q-76 6 -113 35z" />
<glyph unicode="V" horiz-adv-x="1406" d="M-51 1401l493 65l27 -129q-30 -26 -72 -41l308 -940l309 938q-43 14 -76 43l27 129l493 -65l-22 -141q-37 -17 -87 -17h-16l-471 -1243h-321l-473 1241q-61 0 -97 19z" />
<glyph unicode="W" horiz-adv-x="2017" d="M-31 1401l494 65l29 -129q-37 -33 -86 -45l210 -909l209 881l359 41l217 -922l211 909q-49 12 -86 45l28 129l494 -65l-23 -141q-36 -19 -100 -19l-348 -1241h-348l-228 938l-225 -938h-348l-352 1241q-52 3 -84 19z" />
<glyph unicode="X" horiz-adv-x="1374" d="M-41 35l25 145q33 18 83 18q13 0 27 -1l410 534l-387 510q-58 0 -94 19l-23 141l494 65l28 -129q-33 -29 -76 -43l242 -352l240 350q-51 16 -84 45l28 129l492 -65l-21 -141q-36 -19 -100 -19l-377 -493l422 -549q65 0 101 -19l24 -145l-514 -74l-31 133q37 33 88 45 l-274 396l-266 -394q54 -15 90 -47l-31 -133z" />
<glyph unicode="Y" horiz-adv-x="1361" d="M-51 1401l493 65l27 -129q-30 -26 -72 -41l287 -493l285 491q-46 15 -78 43l29 129l493 -65l-22 -141q-33 -18 -83 -18q-14 0 -28 1l-436 -696v-377q69 0 114 -35v-135h-555v135q45 35 115 35v375l-446 698h-16q-52 0 -85 17z" />
<glyph unicode="Z" horiz-adv-x="1163" d="M41 238l674 936h-396l13 -150h-201q-45 192 -45 410h776l232 8v-234l-674 -938h491q12 80 27 150h172l20 -420h-1036z" />
<glyph unicode="[" horiz-adv-x="641" d="M125 -205v1721h442v-238h-182v-1245h182v-238h-442z" />
<glyph unicode="\" horiz-adv-x="921" d="M47 1499l256 80l569 -1638l-251 -82z" />
<glyph unicode="]" horiz-adv-x="641" d="M72 33h184v1245h-184v238h444v-1721h-444v238z" />
<glyph unicode="^" d="M147 1147l383 369h168l383 -369l-190 -189l-277 304l-276 -304z" />
<glyph unicode="_" d="M0 -66h1229v-217h-1229v217z" />
<glyph unicode="`" horiz-adv-x="724" d="M61 1417l125 256l478 -305l-101 -182z" />
<glyph unicode="a" horiz-adv-x="1097" d="M41 324q0 158 102 248t285 90q111 0 234 -29v69q0 158 -193 158q-67 0 -131 -6l10 -133h-178q-45 151 -45 311q204 58 389 58q447 0 447 -422v-318q0 -125 124 -125l-63 -235q-220 0 -291 133q-69 -73 -146.5 -110.5t-193.5 -37.5q-96 0 -174 38.5t-127 119.5t-49 191z M332 338q0 -58 34.5 -86.5t94.5 -28.5q113 0 201 88v115q-96 27 -183 27q-75 0 -111 -30.5t-36 -84.5z" />
<glyph unicode="b" horiz-adv-x="1220" d="M53 0v131q45 35 107 35v1171q-63 3 -107 37v117l414 49v-549q102 99 248 99q89 0 170.5 -37t145 -104.5t101 -172.5t37.5 -231q0 -122 -38.5 -229.5t-103 -181.5t-150 -116.5t-177.5 -42.5q-169 0 -294 125l-11 -100h-342zM467 281q68 -50 156 -50q106 0 168.5 78 t62.5 230q0 139 -57.5 219t-151.5 80q-98 0 -178 -70v-487z" />
<glyph unicode="c" horiz-adv-x="1005" d="M51 535q0 114 38.5 214.5t109 176.5t177.5 120t236 44q188 0 340 -84q0 -158 -43 -312h-178l10 137q-54 7 -102 7q-139 0 -205.5 -74.5t-66.5 -226.5q0 -306 272 -306q21 0 94 5q7 54 25 139h170l14 -316h-6q-168 -84 -330 -84q-172 0 -299 73t-191.5 199t-64.5 288z" />
<glyph unicode="d" horiz-adv-x="1222" d="M51 526q0 120 40 226.5t106 179.5t152.5 115.5t178.5 42.5q143 0 230 -91l2 338q-63 3 -107 37v117l414 49v-1190q0 -125 125 -125l-66 -235q-219 0 -290 133q-64 -72 -137 -110t-181 -38q-86 0 -169 37.5t-149.5 106t-107.5 175t-41 232.5zM367 532q0 -142 57.5 -221.5 t161.5 -79.5q100 0 174 68v471q-68 68 -176 68q-102 0 -159.5 -81t-57.5 -225z" />
<glyph unicode="e" horiz-adv-x="1087" d="M51 532q0 158 65 285t184.5 200t272.5 73q110 0 202.5 -39.5t153 -106t93.5 -154t33 -184.5l-6 -57l-676 -180q30 -72 94 -108t174 -36q80 0 137 8q8 57 25 132h174l14 -306q-165 -84 -383 -84q-253 0 -405 147.5t-152 409.5zM352 588l406 110q-27 148 -174 148 q-61 0 -108 -24t-73 -63t-38.5 -82.5t-12.5 -88.5z" />
<glyph unicode="f" horiz-adv-x="806" d="M41 748v182q56 39 147 45v164q0 187 114 294t296 107q180 0 342 -106v-2l21 -256h-179q-8 29 -26 102q-58 10 -117 10q-65 0 -104 -37t-39 -104v-152h325l-123 -247h-202v-582h2q61 0 106 -35v-131h-520v131q45 35 104 35v582h-147z" />
<glyph unicode="g" horiz-adv-x="1216" d="M51 539q0 116 39.5 219.5t105 175.5t153 114t181.5 42q156 0 281 -119l14 90l340 10v-135q-41 -32 -106 -35v-889q0 -126 -38 -220.5t-108 -152.5t-163 -86t-209 -28q-216 0 -377 96l24 334h156q23 -122 27 -176q71 -12 161 -12q238 0 238 229v113q-105 -109 -254 -109 q-91 0 -174 37t-148 104t-104 170.5t-39 227.5zM367 545q0 -137 56 -213t163 -76q94 0 166 63v472q-85 47 -172 47q-102 0 -157.5 -76.5t-55.5 -216.5z" />
<glyph unicode="h" horiz-adv-x="1243" d="M53 1374v117l414 49v-598q49 73 122 110.5t152 37.5q172 0 268.5 -112t96.5 -300v-512h10q62 0 107 -35v-131h-521v131q40 32 97 35v496q0 85 -33.5 129.5t-97.5 44.5q-104 0 -201 -123v-547h8q62 0 107 -35v-131h-521v131q40 32 99 35v1171q-63 3 -107 37z" />
<glyph unicode="i" horiz-adv-x="655" d="M61 936v135h2l414 -12v-893h10q62 0 107 -35v-131h-520v131q41 32 96 35v737l-2 -2q-66 3 -107 35zM106 1401q0 84 56.5 139t140.5 55q83 0 140 -55t57 -137q0 -85 -57 -140t-140 -55q-84 0 -140.5 54.5t-56.5 138.5z" />
<glyph unicode="j" horiz-adv-x="663" d="M-143 -424l26 334h150q11 -60 24 -150h29q56 0 86.5 35t30.5 103v991q-92 2 -148 35v147l455 -10v-1141q0 -97 -33 -173.5t-90 -124t-131 -72.5t-160 -25q-140 0 -239 51zM139 1401q0 84 56.5 139t140.5 55q83 0 139.5 -54.5t56.5 -137.5q0 -85 -56.5 -140t-139.5 -55 q-84 0 -140.5 54.5t-56.5 138.5z" />
<glyph unicode="k" horiz-adv-x="1150" d="M53 0v131q45 35 107 35v1171q-63 3 -107 37v117l414 49v-876l252 276q-36 15 -62 37l27 125l440 -72l-18 -129q-34 -18 -100 -18l-295 -299l350 -389q64 0 100 -19l21 -137l-486 -66l-26 125q30 27 71 41l-274 320v-293q61 0 106 -35v-131h-520z" />
<glyph unicode="l" horiz-adv-x="813" d="M23 1374v117l403 47l8 2h2l-2 -2v-1180q0 -131 135 -131h31q1 14 23 146h153l27 -342q-118 -56 -273 -56q-115 0 -204 38t-144 121.5t-55 203.5v999q-60 3 -104 37z" />
<glyph unicode="m" horiz-adv-x="1855" d="M63 936v135l340 -10l13 -158q117 187 325 187q213 0 303 -172q121 172 316 172q169 0 262.5 -112t93.5 -300v-512h10q62 0 107 -35v-131h-520v131q41 32 96 35v496q0 174 -125 174q-98 0 -188 -115v-555q50 -3 86 -35v-131h-467v131q32 28 73 33v498q0 174 -124 174 q-99 0 -187 -115v-555h8q62 0 107 -35v-131h-520v131q40 32 98 35v735q-66 3 -107 35z" />
<glyph unicode="n" horiz-adv-x="1253" d="M63 936v135l340 -10l13 -146q129 175 336 175q172 0 268 -112t96 -300v-512h10q62 0 107 -35v-131h-520v131q41 32 96 35v496q0 174 -133 174q-102 0 -199 -117v-553h8q62 0 107 -35v-131h-520v131q40 32 98 35v735q-66 3 -107 35z" />
<glyph unicode="o" horiz-adv-x="1214" d="M51 532q0 168 74 296t200 195t283 67q246 0 400.5 -156t154.5 -402q0 -168 -74 -296t-199.5 -194.5t-281.5 -66.5q-247 0 -402 155.5t-155 401.5zM367 528q0 -126 65.5 -211.5t175.5 -85.5q114 0 177 79.5t63 226.5q0 126 -65.5 211.5t-174.5 85.5q-116 0 -178.5 -79.5 t-62.5 -226.5z" />
<glyph unicode="p" d="M41 829l65 236q215 0 295 -133q130 158 318 158q88 0 170 -37t146.5 -104.5t103.5 -172.5t39 -231q0 -165 -65 -297t-171.5 -202.5t-232.5 -70.5q-120 0 -236 93v-353q64 0 107 -34v-132h-521v132q43 34 107 34v987q0 68 -35.5 97.5t-89.5 29.5zM473 299q74 -68 162 -68 q102 0 164.5 81t62.5 227q0 139 -57.5 219t-151.5 80q-102 0 -180 -72v-467z" />
<glyph unicode="q" horiz-adv-x="1220" d="M51 526q0 121 40.5 227t108.5 179t157.5 115.5t185.5 42.5q159 0 272 -127l14 98l340 10v-135q-41 -32 -106 -35v-1352h-414v132q43 34 107 34v359q-95 -99 -240 -99q-67 0 -133.5 23.5t-126.5 70.5t-105.5 111.5t-72.5 154t-27 191.5zM367 532q0 -140 57 -220.5 t156 -80.5q100 0 176 76v481q-78 50 -164 50q-108 0 -166.5 -79.5t-58.5 -226.5z" />
<glyph unicode="r" horiz-adv-x="927" d="M23 924v147l395 -10l18 -191q41 102 129 161t213 59q98 0 160 -21q0 -215 -45 -379h-176l10 139h-10q-99 0 -169.5 -101.5t-70.5 -264.5v-297q62 0 107 -35v-131h-521v131q45 35 107 35v723q-91 2 -147 35z" />
<glyph unicode="s" horiz-adv-x="993" d="M61 88l19 295h162q15 -67 24 -135q109 -25 205 -25q158 0 158 84q0 38 -46 66.5t-190 72.5q-160 49 -235.5 124.5t-75.5 201.5q0 138 118.5 228t327.5 90q199 0 381 -93q0 -156 -45 -290h-176l12 133q-65 16 -163 16q-148 0 -148 -78q0 -38 48.5 -69.5t178.5 -69.5 q173 -52 248.5 -126t75.5 -198q0 -153 -125 -246.5t-346 -93.5q-218 0 -408 113z" />
<glyph unicode="t" horiz-adv-x="845" d="M-10 778v176q83 42 184 52l53 356h240v-336h321l-120 -248h-201v-411q0 -68 35.5 -104t99.5 -36h39q3 39 25 166h153l27 -342q-138 -76 -299 -76q-169 0 -278 99.5t-109 273.5v430h-170z" />
<glyph unicode="u" horiz-adv-x="1206" d="M12 936v135l414 -10v-664q0 -168 139 -168q99 0 178 66v606q-61 3 -102 35v135l410 -12v-707q0 -127 125 -127l-66 -235q-216 0 -293 133q-130 -148 -328 -148q-57 0 -110 14t-100.5 46t-83 78.5t-56 115.5t-20.5 154v518q-66 3 -107 35z" />
<glyph unicode="v" horiz-adv-x="1169" d="M-41 1030l440 72l27 -125q-30 -26 -72 -41l232 -631l231 631q-40 11 -74 41l27 125l440 -72l-20 -129q-34 -18 -100 -18l-359 -883h-299l-358 883q-60 0 -94 18z" />
<glyph unicode="w" horiz-adv-x="1722" d="M-20 1030l440 72l26 -125q-32 -28 -75 -43l174 -612l170 659l282 29l179 -691l172 617q-42 15 -72 41l27 125l440 -72l-21 -129q-34 -18 -100 -18l-297 -883h-305l-166 682l-162 -682h-309l-297 883q-56 3 -86 18z" />
<glyph unicode="x" horiz-adv-x="1189" d="M-10 35l24 145q36 18 90 18q14 0 29 -1l8 -2l279 346l-270 342q-64 0 -99 18l-20 129l440 72l27 -125q-27 -27 -68 -39l166 -244l166 240q-46 15 -78 43l27 125l440 -72l-21 -129q-34 -18 -98 -18l-264 -334l297 -352q14 1 28 1q51 0 83 -18l24 -145l-516 -74l-31 133 q40 35 95 47l10 2l-166 228l-160 -228l10 -2q56 -13 95 -47l-31 -133z" />
<glyph unicode="y" horiz-adv-x="1185" d="M-41 1030l440 72l27 -125q-29 -26 -70 -41l262 -637l220 635q-46 15 -78 43l26 125l441 -72l-21 -129q-34 -18 -92 -18l-377 -1006q-38 -103 -87.5 -173t-110.5 -108.5t-126 -54.5t-147 -16q-137 0 -225 57l27 334h149q21 -111 25 -156h41q74 0 121.5 43t82.5 144l48 133 h-107l-356 803q-58 0 -92 18z" />
<glyph unicode="z" horiz-adv-x="995" d="M53 1065h680l191 6v-213l-510 -614h307q8 83 29 176h172l20 -420h-838l-47 221l508 608h-291l9 -135h-185q-45 154 -45 371z" />
<glyph unicode="{" horiz-adv-x="763" d="M82 541v229q99 12 135.5 75t36.5 224q0 253 109.5 365.5t357.5 134.5v-209q-107 -12 -148 -73t-41 -220q0 -198 -49 -284.5t-188 -127.5q139 -41 188 -127t49 -284q0 -159 41 -220t148 -73v-209q-248 22 -357.5 134.5t-109.5 365.5q0 161 -36.5 224t-135.5 75z" />
<glyph unicode="|" horiz-adv-x="700" d="M207 -205v1782h287v-1782h-287z" />
<glyph unicode="}" horiz-adv-x="763" d="M41 -49q108 12 149 72.5t41 220.5q0 197 49.5 283.5t188.5 127.5q-139 41 -188.5 127.5t-49.5 284.5q0 160 -41 220.5t-149 72.5v209q249 -22 359 -134.5t110 -365.5q0 -160 36.5 -223.5t133.5 -75.5v-229q-97 -12 -133.5 -75.5t-36.5 -223.5q0 -253 -110 -365.5 t-359 -134.5v209z" />
<glyph unicode="~" d="M125 664q66 68 146 114.5t159 46.5q54 0 105 -17t84.5 -37t78.5 -37t88 -17q53 0 100 23.5t105 72.5l113 -201q-72 -70 -143 -107.5t-158 -37.5q-54 0 -107.5 16.5t-89 36.5t-80.5 36.5t-84 16.5q-104 0 -206 -110z" />
<glyph unicode="&#xa1;" horiz-adv-x="735" d="M145 842q0 85 57.5 140.5t143.5 55.5q84 0 142.5 -55t58.5 -139q0 -86 -58 -141.5t-143 -55.5q-86 0 -143.5 55t-57.5 140zM186 55l35 434h248l35 -434v-506h-318v506z" />
<glyph unicode="&#xa2;" horiz-adv-x="995" d="M51 592q0 200 112.5 349.5t309.5 191.5l-31 251h306l-31 -243q121 -16 235 -78q0 -157 -43 -311h-178l10 137q-46 6 -102 6q-139 0 -205.5 -74.5t-66.5 -226.5q0 -307 272 -307q36 0 94 4q7 59 25 141h170l14 -315h-6q-116 -58 -219 -76l31 -256h-306l31 260 q-200 39 -311 186.5t-111 360.5z" />
<glyph unicode="&#xa3;" horiz-adv-x="1042" d="M82 580v247h141v197q0 195 114.5 302.5t313.5 107.5q109 0 194 -28t175 -87q0 -161 -47 -346h-195l15 209q-55 10 -107 10q-75 0 -118.5 -45t-43.5 -141v-179h307l-40 -247h-269q-14 -193 -112 -320h393q7 67 26 160h172l21 -420h-938v215q75 101 104 175t33 190h-139z " />
<glyph unicode="&#xa4;" horiz-adv-x="1200" d="M123 293l119 133q-80 107 -80 250q0 142 78 250l-117 133l225 178l121 -164q68 14 131 14q79 0 131 -14l123 164l223 -178l-119 -133q82 -113 82 -252q0 -142 -79 -248l116 -133l-223 -180l-123 166q-69 -15 -131 -15q-72 0 -131 15l-121 -166zM457 678 q0 -73 39.5 -123.5t103.5 -50.5q73 0 109 45t36 123q0 74 -39.5 125t-105.5 51q-72 0 -107.5 -45t-35.5 -125z" />
<glyph unicode="&#xa5;" horiz-adv-x="1359" d="M-51 1376l493 66l27 -129q-30 -27 -63 -37l268 -518l268 522q-23 9 -51 33l29 129l491 -66l-20 -141q-43 -22 -119 -16l-10 2l-295 -482h153v-198h-282v-99h282v-198h-282v-74h4q67 0 112 -35v-135h-553v135q45 35 111 35v74h-287v198h287v99h-287v198h154l-299 480 q-69 -6 -109 16z" />
<glyph unicode="&#xa6;" horiz-adv-x="700" d="M207 -205v787h287v-787h-287zM207 809v768h287v-768h-287z" />
<glyph unicode="&#xa7;" horiz-adv-x="1003" d="M84 682q0 91 55.5 162.5t157.5 116.5q-90 52 -131 110t-41 139q0 118 105.5 195.5t279.5 77.5q212 0 397 -103q0 -156 -45 -290h-176l12 151q-84 19 -163 19q-117 0 -117 -60q0 -32 34 -57.5t160 -83.5q168 -76 238 -153.5t70 -192.5q0 -177 -222 -273 q101 -48 149 -109.5t48 -146.5q0 -134 -119.5 -208t-312.5 -74q-207 0 -365 96l17 295h164q14 -68 24 -146q86 -14 160 -14q131 0 131 64q0 30 -37.5 57.5t-148.5 77.5q-179 85 -251.5 160t-72.5 190zM373 698q0 -45 31 -79t96 -64q131 51 131 150q0 50 -31 83.5t-96 57.5 q-60 -21 -95.5 -60t-35.5 -88z" />
<glyph unicode="&#xa8;" horiz-adv-x="937" d="M61 1384q0 77 53 129t130 52q76 0 127 -51t51 -128q0 -79 -50 -129.5t-128 -50.5q-76 0 -129.5 50.5t-53.5 127.5zM516 1384q0 78 50 129.5t128 51.5q76 0 129.5 -51.5t53.5 -127.5q0 -79 -52.5 -129.5t-130.5 -50.5q-77 0 -127.5 50t-50.5 128z" />
<glyph unicode="&#xa9;" horiz-adv-x="1843" d="M180 721q0 215 86.5 380.5t256 261t399.5 95.5q136 0 254.5 -37t207.5 -104t152.5 -158.5t96 -203t32.5 -234.5q0 -158 -51 -294t-144 -236.5t-234.5 -158t-313.5 -57.5q-170 0 -311 58t-235 159t-145 237t-51 292zM414 721q0 -156 58 -279t174.5 -196.5t275.5 -73.5 q246 0 378 149t132 400q0 153 -58 274.5t-175.5 194t-276.5 72.5q-240 0 -374 -147.5t-134 -393.5zM559 711q0 180 110 295.5t279 115.5q134 0 252 -59h2q0 -68 -8.5 -120.5t-32.5 -131.5h-127l13 127q-46 4 -80 4q-82 0 -133.5 -59t-51.5 -164q0 -113 46 -170t133 -57 q42 0 69 8q6 62 25 118h114l19 -241q-121 -68 -250 -68q-165 0 -272 110t-107 292z" />
<glyph unicode="&#xaa;" d="M242 901q0 108 72.5 174t203.5 66q70 0 168 -25v8q-3 88 -36.5 118t-125.5 30h-51l6 -68h-145q-37 86 -37 211q161 33 283 33q162 0 254 -74t92 -223v-186q0 -57 25 -79t69 -22l-57 -192q-82 0 -134.5 23t-80.5 77q-54 -58 -109.5 -86.5t-146.5 -28.5q-109 0 -179.5 64 t-70.5 180zM248 270v219h733v-219h-733zM479 911q0 -75 80 -75q34 0 64 15t69 48l-2 74q-62 16 -121 16q-45 0 -67.5 -21t-22.5 -57z" />
<glyph unicode="&#xab;" horiz-adv-x="1206" d="M123 639v131l319 395l191 -164l-275 -296l275 -297l-191 -164zM573 639v131l320 395l190 -164l-276 -296l276 -297l-190 -164z" />
<glyph unicode="&#xac;" d="M111 569v256h1007v-567h-293v311h-714z" />
<glyph unicode="&#xad;" d="M231 569v256h766v-256h-766z" />
<glyph unicode="&#xae;" horiz-adv-x="1843" d="M180 721q0 215 86.5 380.5t256 261t399.5 95.5q136 0 254.5 -37t207.5 -104t152.5 -158.5t96 -203t32.5 -234.5q0 -158 -51 -294t-144 -236.5t-234.5 -158t-313.5 -57.5q-170 0 -311 58t-235 159t-145 237t-51 292zM414 721q0 -156 58 -279t174.5 -196.5t275.5 -73.5 q246 0 378 149t132 400q0 153 -58 274.5t-175.5 194t-276.5 72.5q-240 0 -374 -147.5t-134 -393.5zM590 989v86q175 25 313 25q156 0 243 -65.5t87 -164.5q0 -137 -146 -178q47 -13 81.5 -46t62.5 -99l29 -72q36 0 49 -8l14 -86l-299 -43l-18 78q17 15 51 26l-31 70 q-29 63 -59 88t-74 25h-27v-166q33 -3 56 -21v-80h-322v80q23 18 57 21v512q-47 4 -67 18zM866 784h49q49 0 77 19.5t28 56.5q0 36 -26.5 56t-78.5 20h-49v-152z" />
<glyph unicode="&#xaf;" horiz-adv-x="808" d="M61 1231v235h687v-235h-687z" />
<glyph unicode="&#xb0;" horiz-adv-x="921" d="M88 1210q0 134 89 220t233 86q139 0 229 -86t90 -220q0 -135 -89.5 -220t-229.5 -85q-144 0 -233 84.5t-89 220.5zM330 1210q0 -116 80 -116q79 0 79 116q0 117 -79 117q-80 0 -80 -117z" />
<glyph unicode="&#xb1;" d="M199 143v258h831v-258h-831zM199 801v250h268v278h295v-278h268v-250h-268v-279h-295v279h-268z" />
<glyph unicode="&#xb2;" horiz-adv-x="921" d="M133 651q0 76 29 143t72.5 112t94 87t94 72t72.5 62t29 61q0 76 -96 76q-61 0 -125 -23l8 -119h-141q-27 128 -27 213q79 60 151 86.5t171 26.5q138 0 226.5 -72t88.5 -178q0 -52 -22 -96.5t-56 -74.5t-76 -62t-81 -59t-72 -65.5t-47 -80.5h207q4 37 20 102h129l9 -297 h-652q-6 43 -6 86z" />
<glyph unicode="&#xb3;" horiz-adv-x="921" d="M119 639l20 211h119q8 -37 16 -92q64 -17 144 -17q131 0 131 95q0 42 -39.5 67t-114.5 25h-104l28 162h66q72 0 105.5 23.5t33.5 74.5q0 41 -28.5 62.5t-77.5 21.5q-64 0 -137 -17l6 -90h-133q-25 102 -25 193q72 46 145.5 68t171.5 22q149 0 237.5 -70t88.5 -166 q0 -69 -35 -114.5t-108 -75.5q174 -49 174 -199q0 -125 -102 -198.5t-273 -73.5q-179 0 -309 88z" />
<glyph unicode="&#xb4;" horiz-adv-x="724" d="M61 1368l478 305l125 -256l-500 -231z" />
<glyph unicode="&#xb6;" horiz-adv-x="1499" d="M20 1155q0 194 139.5 317t395.5 123q134 0 330 -18v-1708h-381v145q45 35 114 35v680q-46 -4 -81 -4q-242 0 -379.5 112.5t-137.5 317.5zM297 1161q0 -98 62.5 -150.5t175.5 -52.5q36 0 83 7v397q-50 4 -88 4q-116 0 -174.5 -54.5t-58.5 -150.5zM1024 -131v1708l375 -43 v-117q-44 -34 -107 -37v-1331q70 0 115 -35v-145h-383z" />
<glyph unicode="&#xb7;" horiz-adv-x="610" d="M104 725q0 87 57.5 142t143.5 55q85 0 143 -55t58 -140q0 -86 -57.5 -141.5t-143.5 -55.5q-84 0 -142.5 55.5t-58.5 139.5z" />
<glyph unicode="&#xb8;" horiz-adv-x="704" d="M61 -492l76 187q71 -27 139 -27q86 0 86 53q0 67 -200 70l80 209h219l-29 -90q102 -11 156.5 -60.5t54.5 -136.5q0 -118 -92 -185t-244 -67q-140 0 -246 47z" />
<glyph unicode="&#xb9;" horiz-adv-x="921" d="M137 1257l303 189l187 -27v-667h39q71 0 118 -33v-154h-577v154q47 33 119 33h65v428l-155 -88z" />
<glyph unicode="&#xba;" d="M215 1055q0 179 113 286t286 107q174 0 287 -107.5t113 -283.5t-113.5 -285.5t-286.5 -109.5q-177 0 -288 109t-111 284zM248 270v219h733v-219h-733zM465 1053q0 -81 40 -134t109 -53q71 0 110.5 51.5t39.5 143.5q0 77 -41.5 129.5t-108.5 52.5q-71 0 -110 -49.5 t-39 -140.5z" />
<glyph unicode="&#xbb;" horiz-adv-x="1206" d="M123 408l276 297l-276 296l190 164l320 -395v-131l-320 -395zM573 408l275 297l-275 296l191 164l319 -395v-131l-319 -395z" />
<glyph unicode="&#xbc;" horiz-adv-x="2308" d="M137 1257l303 189l187 -27v-667h39q71 0 118 -33v-154h-577v154q47 33 119 33h65v428l-155 -88zM614 14l895 1520l185 -115l-895 -1519zM1481 223v152l295 512l206 -80l-221 -391h125l29 151l178 33v-184h123l-35 -193h-88v-82q66 0 92 -22v-119h-401v119q33 22 92 22v82 h-395z" />
<glyph unicode="&#xbd;" horiz-adv-x="2308" d="M137 1257l303 189l187 -27v-667h39q71 0 118 -33v-154h-577v154q47 33 119 33h65v428l-155 -88zM614 14l895 1520l185 -115l-895 -1519zM1520 86q0 76 29 143t72.5 112t94 87t94 72t72.5 62t29 61q0 75 -96 75q-64 0 -125 -22l8 -119h-142q-26 124 -26 213 q79 60 150.5 86.5t170.5 26.5q138 0 227 -72t89 -178q0 -52 -22 -96.5t-56 -74.5t-76.5 -62t-81 -59t-72 -65.5t-47.5 -80.5h207q3 29 21 102h129l8 -297h-651q-6 44 -6 86z" />
<glyph unicode="&#xbe;" horiz-adv-x="2308" d="M119 639l20 211h119q8 -37 16 -92q64 -17 144 -17q131 0 131 95q0 42 -39.5 67t-114.5 25h-104l28 162h66q72 0 105.5 23.5t33.5 74.5q0 41 -28.5 62.5t-77.5 21.5q-64 0 -137 -17l6 -90h-133q-25 102 -25 193q72 46 145.5 68t171.5 22q149 0 237.5 -70t88.5 -166 q0 -69 -35 -114.5t-108 -75.5q174 -49 174 -199q0 -125 -102 -198.5t-273 -73.5q-179 0 -309 88zM614 14l895 1520l185 -115l-895 -1519zM1481 223v152l295 512l206 -80l-221 -391h125l29 151l178 33v-184h123l-35 -193h-88v-82q66 0 92 -22v-119h-401v119q33 22 92 22v82 h-395z" />
<glyph unicode="&#xbf;" horiz-adv-x="1019" d="M72 -131q0 70 21 126.5t54.5 95.5t74.5 72.5t81.5 66t74 67.5t54.5 85.5t21 111.5v18h245q27 -56 27 -115q0 -63 -24.5 -119t-61 -94t-79.5 -76.5t-79.5 -68t-61 -67.5t-24.5 -76q0 -113 154 -113q106 0 182 37q8 103 35 219h170l20 -346q-97 -79 -204 -123.5t-252 -44.5 q-190 0 -309 97.5t-119 246.5zM379 844q0 85 57.5 140.5t143.5 55.5q84 0 142 -55t58 -139q0 -86 -57.5 -141.5t-142.5 -55.5q-86 0 -143.5 55t-57.5 140z" />
<glyph unicode="&#xc0;" horiz-adv-x="1466" d="M-51 35l24 145q45 23 117 17l428 1063q-62 3 -102 30v129l481 23l496 -1243q64 0 100 -19l25 -145l-517 -74l-30 133q41 36 94 47l10 2l-71 197h-541l-70 -197l6 -2q55 -12 95 -47l-31 -133zM434 1755l125 256l477 -305l-100 -182zM557 600h356l-172 518z" />
<glyph unicode="&#xc1;" horiz-adv-x="1466" d="M-51 35l24 145q45 23 117 17l428 1063q-62 3 -102 30v129l481 23l496 -1243q64 0 100 -19l25 -145l-517 -74l-30 133q41 36 94 47l10 2l-71 197h-541l-70 -197l6 -2q55 -12 95 -47l-31 -133zM406 1706l477 305l125 -256l-500 -231zM557 600h356l-172 518z" />
<glyph unicode="&#xc2;" horiz-adv-x="1466" d="M-51 35l24 145q45 23 117 17l428 1063q-62 3 -102 30v129l481 23l496 -1243q64 0 100 -19l25 -145l-517 -74l-30 133q41 36 94 47l10 2l-71 197h-541l-70 -197l6 -2q55 -12 95 -47l-31 -133zM289 1712l315 199h221l316 -199l-133 -188l-293 194l-293 -194zM557 600h356 l-172 518z" />
<glyph unicode="&#xc3;" horiz-adv-x="1466" d="M-51 35l24 145q45 23 117 17l428 1063q-62 3 -102 30v129l481 23l496 -1243q64 0 100 -19l25 -145l-517 -74l-30 133q41 36 94 47l10 2l-71 197h-541l-70 -197l6 -2q55 -12 95 -47l-31 -133zM291 1702q75 95 136.5 139.5t131.5 44.5q46 0 88 -14.5t68 -32.5t57.5 -32.5 t58.5 -14.5q47 0 86 25.5t84 74.5l140 -161q-75 -96 -137.5 -140.5t-137.5 -44.5q-50 0 -98.5 23.5t-91 47t-80.5 23.5q-73 0 -166 -100zM557 600h356l-172 518z" />
<glyph unicode="&#xc4;" horiz-adv-x="1466" d="M-51 35l24 145q45 23 117 17l428 1063q-62 3 -102 30v129l481 23l496 -1243q64 0 100 -19l25 -145l-517 -74l-30 133q41 36 94 47l10 2l-71 197h-541l-70 -197l6 -2q55 -12 95 -47l-31 -133zM307 1733q0 77 52.5 128.5t129.5 51.5t128 -51t51 -127q0 -79 -50.5 -130 t-128.5 -51q-76 0 -129 51t-53 128zM557 600h356l-172 518zM762 1733q0 78 50 129t128 51q76 0 129 -51t53 -127q0 -79 -52.5 -130t-129.5 -51t-127.5 50.5t-50.5 128.5z" />
<glyph unicode="&#xc5;" horiz-adv-x="1464" d="M-51 35l24 145q45 23 117 17l457 1106q-60 40 -93.5 104t-33.5 143q0 132 89 215.5t230 83.5q139 0 229.5 -84t90.5 -215q0 -76 -31.5 -138.5t-89.5 -102.5l455 -1110q62 0 98 -19l25 -145l-515 -74l-30 133q41 36 94 47l12 2l-71 197h-541l-70 -199h4q55 -12 95 -47 l-31 -133zM559 600h356l-174 516zM659 1550q0 -55 21.5 -85.5t58.5 -30.5q38 0 59 29.5t21 86.5t-21 86t-59 29q-37 0 -58.5 -30t-21.5 -85z" />
<glyph unicode="&#xc6;" horiz-adv-x="1871" d="M-72 35l25 145q41 23 108 17l781 1237l962 -2l4 2q0 -220 -45 -404h-194l12 146h-313v-318h327l123 8l-28 -250h-422v-360h315q6 57 27 164h174l16 -363l4 -57h-870v340h-426l-115 -201q50 -16 82 -45l-31 -133zM629 1290v129l213 15l-111 -174q-62 3 -102 30zM657 594 h277v504z" />
<glyph unicode="&#xc7;" horiz-adv-x="1247" d="M72 711q0 337 196.5 542t517.5 205q220 0 400 -90q0 -224 -47 -395h-201l14 209q-72 10 -145 10q-190 0 -291.5 -121t-101.5 -352q0 -234 100 -353.5t279 -119.5q87 0 151 12q7 65 35 203h176l21 -379q-147 -87 -324 -102l-23 -70q102 -11 156.5 -60.5t54.5 -136.5 q0 -118 -91.5 -185t-243.5 -67q-140 0 -246 47l76 187q71 -27 139 -27q86 0 86 53q0 67 -201 70l74 195q-254 41 -407.5 231t-153.5 494z" />
<glyph unicode="&#xc8;" horiz-adv-x="1218" d="M92 0v145q45 35 115 35v1077q-78 6 -115 35v148l115 -6h950q0 -223 -47 -404h-195l13 146h-396v-318h394l125 8l-29 -250h-490v-360h398q7 68 26 164h174l21 -420h-1059zM397 1755l125 256l477 -305l-100 -182z" />
<glyph unicode="&#xc9;" horiz-adv-x="1218" d="M92 0v145q45 35 115 35v1077q-78 6 -115 35v148l115 -6h950q0 -223 -47 -404h-195l13 146h-396v-318h394l125 8l-29 -250h-490v-360h398q7 68 26 164h174l21 -420h-1059zM369 1706l477 305l125 -256l-500 -231z" />
<glyph unicode="&#xca;" horiz-adv-x="1218" d="M92 0v145q45 35 115 35v1077q-78 6 -115 35v148l115 -6h950q0 -223 -47 -404h-195l13 146h-396v-318h394l125 8l-29 -250h-490v-360h398q7 68 26 164h174l21 -420h-1059zM252 1712l315 199h221l316 -199l-133 -188l-293 194l-293 -194z" />
<glyph unicode="&#xcb;" horiz-adv-x="1218" d="M92 0v145q45 35 115 35v1077q-78 6 -115 35v148l115 -6h950q0 -223 -47 -404h-195l13 146h-396v-318h394l125 8l-29 -250h-490v-360h398q7 68 26 164h174l21 -420h-1059zM268 1733q0 77 53 128.5t130 51.5t127.5 -50.5t50.5 -127.5q0 -79 -50 -130t-128 -51 q-76 0 -129.5 51t-53.5 128zM723 1733q0 78 50 129t128 51q76 0 129 -51t53 -127q0 -79 -52.5 -130t-129.5 -51t-127.5 50.5t-50.5 128.5z" />
<glyph unicode="&#xcc;" horiz-adv-x="741" d="M90 1755l125 256l477 -305l-100 -182zM92 0v135q45 35 115 35v1092q-78 3 -115 32v136l555 10v-137q-37 -29 -115 -35v-1098q70 0 115 -35v-135h-555z" />
<glyph unicode="&#xcd;" horiz-adv-x="741" d="M61 1706l478 305l125 -256l-500 -231zM92 0v135q45 35 115 35v1092q-78 3 -115 32v136l555 10v-137q-37 -29 -115 -35v-1098q70 0 115 -35v-135h-555z" />
<glyph unicode="&#xce;" horiz-adv-x="741" d="M-55 1712l315 199h221l316 -199l-133 -188l-293 194l-293 -194zM92 0v135q45 35 115 35v1092q-78 3 -115 32v136l555 10v-137q-37 -29 -115 -35v-1098q70 0 115 -35v-135h-555z" />
<glyph unicode="&#xcf;" horiz-adv-x="741" d="M-37 1733q0 77 52.5 128.5t129.5 51.5t128 -51t51 -127q0 -79 -50.5 -130t-128.5 -51q-76 0 -129 51t-53 128zM92 0v135q45 35 115 35v1092q-78 3 -115 32v136l555 10v-137q-37 -29 -115 -35v-1098q70 0 115 -35v-135h-555zM418 1733q0 78 50 129t128 51q76 0 129 -51 t53 -127q0 -79 -52.5 -130t-129.5 -51t-127.5 50.5t-50.5 128.5z" />
<glyph unicode="&#xd0;" horiz-adv-x="1517" d="M113 608v232h159v387q-74 3 -112 33v147q271 43 538 43q191 0 337.5 -57.5t234.5 -159t132 -231t44 -283.5q0 -166 -47.5 -299.5t-142.5 -231.5t-246 -151t-348 -53q-263 0 -502 43v151q38 29 112 33v397h-159zM598 250h117q181 0 286 116.5t105 352.5q0 216 -97 342.5 t-290 126.5h-121v-348h283v-232h-283v-358z" />
<glyph unicode="&#xd1;" horiz-adv-x="1570" d="M92 0v135q45 35 115 35h6v1085q-78 6 -115 35v137l115 5l403 14l431 -1002v818h-9q-77 3 -114 32v136l555 10v-137q-37 -29 -115 -35h-6v-1243l-397 -50l-437 992v-797h8q70 0 115 -35v-135h-555zM360 1702q75 95 137 139.5t132 44.5q46 0 88 -14.5t68 -32.5t57.5 -32.5 t58.5 -14.5q47 0 86 25.5t84 74.5l139 -161q-75 -96 -137 -140.5t-137 -44.5q-50 0 -98.5 23.5t-91 47t-80.5 23.5q-73 0 -166 -100z" />
<glyph unicode="&#xd2;" horiz-adv-x="1550" d="M72 719q0 215 82.5 381t243.5 262t378 96q216 0 377 -98.5t243.5 -266t82.5 -378.5q0 -215 -82.5 -381.5t-243.5 -262.5t-377 -96q-163 0 -297 57t-222.5 157.5t-136.5 236t-48 293.5zM414 719q0 -131 39.5 -237.5t123 -173t199.5 -66.5q174 0 267.5 129.5t93.5 343.5 q0 131 -39.5 237.5t-123 173t-198.5 66.5q-173 0 -267.5 -130t-94.5 -343zM496 1755l125 256l477 -305l-101 -182z" />
<glyph unicode="&#xd3;" horiz-adv-x="1550" d="M72 719q0 215 82.5 381t243.5 262t378 96q216 0 377 -98.5t243.5 -266t82.5 -378.5q0 -215 -82.5 -381.5t-243.5 -262.5t-377 -96q-163 0 -297 57t-222.5 157.5t-136.5 236t-48 293.5zM414 719q0 -131 39.5 -237.5t123 -173t199.5 -66.5q174 0 267.5 129.5t93.5 343.5 q0 131 -39.5 237.5t-123 173t-198.5 66.5q-173 0 -267.5 -130t-94.5 -343zM467 1706l477 305l125 -256l-500 -231z" />
<glyph unicode="&#xd4;" horiz-adv-x="1550" d="M72 719q0 215 82.5 381t243.5 262t378 96q216 0 377 -98.5t243.5 -266t82.5 -378.5q0 -215 -82.5 -381.5t-243.5 -262.5t-377 -96q-163 0 -297 57t-222.5 157.5t-136.5 236t-48 293.5zM350 1712l316 199h221l315 -199l-133 -188l-293 194l-293 -194zM414 719 q0 -131 39.5 -237.5t123 -173t199.5 -66.5q174 0 267.5 129.5t93.5 343.5q0 131 -39.5 237.5t-123 173t-198.5 66.5q-173 0 -267.5 -130t-94.5 -343z" />
<glyph unicode="&#xd5;" horiz-adv-x="1550" d="M72 719q0 215 82.5 381t243.5 262t378 96q216 0 377 -98.5t243.5 -266t82.5 -378.5q0 -215 -82.5 -381.5t-243.5 -262.5t-377 -96q-163 0 -297 57t-222.5 157.5t-136.5 236t-48 293.5zM350 1702q75 95 136.5 139.5t131.5 44.5q59 0 109 -23.5t90 -47t74 -23.5 q47 0 86 25.5t84 74.5l139 -161q-75 -96 -137 -140.5t-137 -44.5q-50 0 -98.5 23.5t-91.5 47t-81 23.5q-73 0 -166 -100zM414 719q0 -131 39.5 -237.5t123 -173t199.5 -66.5q174 0 267.5 129.5t93.5 343.5q0 131 -39.5 237.5t-123 173t-198.5 66.5q-173 0 -267.5 -130 t-94.5 -343z" />
<glyph unicode="&#xd6;" horiz-adv-x="1550" d="M72 719q0 215 82.5 381t243.5 262t378 96q216 0 377 -98.5t243.5 -266t82.5 -378.5q0 -215 -82.5 -381.5t-243.5 -262.5t-377 -96q-163 0 -297 57t-222.5 157.5t-136.5 236t-48 293.5zM369 1733q0 77 52.5 128.5t129.5 51.5t127.5 -50.5t50.5 -127.5q0 -79 -50 -130 t-128 -51q-76 0 -129 51t-53 128zM414 719q0 -131 39.5 -237.5t123 -173t199.5 -66.5q174 0 267.5 129.5t93.5 343.5q0 131 -39.5 237.5t-123 173t-198.5 66.5q-173 0 -267.5 -130t-94.5 -343zM823 1733q0 78 50 129t128 51q76 0 129.5 -51t53.5 -127q0 -79 -53 -130 t-130 -51t-127.5 50.5t-50.5 128.5z" />
<glyph unicode="&#xd7;" d="M176 451l264 254l-264 251l189 189l251 -266l248 266l189 -189l-262 -251l260 -254l-187 -185l-248 264l-254 -264z" />
<glyph unicode="&#xd8;" horiz-adv-x="1548" d="M72 719q0 215 82.5 381t243 262t376.5 96q111 0 213 -31l92 234l252 -121l-129 -221q130 -100 202.5 -258t72.5 -346q0 -215 -82.5 -381.5t-243.5 -262.5t-377 -96q-99 0 -205 27l-98 -246l-250 121l135 232q-136 100 -210 258.5t-74 351.5zM408 719q0 -246 90 -363 l389 824q-50 12 -113 12q-178 0 -272 -128t-94 -345zM670 252q52 -10 104 -10q178 0 272.5 128t94.5 345q0 236 -84 352z" />
<glyph unicode="&#xd9;" horiz-adv-x="1470" d="M51 1303v137l555 -10v-136q-37 -29 -114 -32h-3v-748q0 -132 65.5 -202t182.5 -70q119 0 182.5 69.5t63.5 202.5v748h-4q-78 3 -115 32v136l555 10v-137q-37 -29 -114 -35h-2v-754q0 -253 -155 -396t-411 -143q-261 0 -417 140t-156 391v762q-76 6 -113 35zM449 1755 l124 256l478 -305l-101 -182z" />
<glyph unicode="&#xda;" horiz-adv-x="1470" d="M51 1303v137l555 -10v-136q-37 -29 -114 -32h-3v-748q0 -132 65.5 -202t182.5 -70q119 0 182.5 69.5t63.5 202.5v748h-4q-78 3 -115 32v136l555 10v-137q-37 -29 -114 -35h-2v-754q0 -253 -155 -396t-411 -143q-261 0 -417 140t-156 391v762q-76 6 -113 35zM420 1706 l477 305l125 -256l-500 -231z" />
<glyph unicode="&#xdb;" horiz-adv-x="1470" d="M51 1303v137l555 -10v-136q-37 -29 -114 -32h-3v-748q0 -132 65.5 -202t182.5 -70q119 0 182.5 69.5t63.5 202.5v748h-4q-78 3 -115 32v136l555 10v-137q-37 -29 -114 -35h-2v-754q0 -253 -155 -396t-411 -143q-261 0 -417 140t-156 391v762q-76 6 -113 35zM303 1712 l315 199h222l315 -199l-133 -188l-293 194l-293 -194z" />
<glyph unicode="&#xdc;" horiz-adv-x="1470" d="M51 1303v137l555 -10v-136q-37 -29 -114 -32h-3v-748q0 -132 65.5 -202t182.5 -70q119 0 182.5 69.5t63.5 202.5v748h-4q-78 3 -115 32v136l555 10v-137q-37 -29 -114 -35h-2v-754q0 -253 -155 -396t-411 -143q-261 0 -417 140t-156 391v762q-76 6 -113 35zM319 1733 q0 77 53 128.5t130 51.5q76 0 127 -50.5t51 -127.5q0 -79 -50 -130t-128 -51q-76 0 -129.5 51t-53.5 128zM774 1733q0 78 50 129t128 51q76 0 129.5 -51t53.5 -127q0 -79 -53 -130t-130 -51t-127.5 50.5t-50.5 128.5z" />
<glyph unicode="&#xdd;" horiz-adv-x="1361" d="M-51 1401l493 65l27 -129q-30 -26 -72 -41l287 -493l285 491q-46 15 -78 43l29 129l493 -65l-22 -141q-41 -23 -111 -17l-436 -696v-377q69 0 114 -35v-135h-555v135q45 35 115 35v375l-446 698q-63 -3 -101 17zM367 1706l477 305l125 -256l-500 -231z" />
<glyph unicode="&#xde;" horiz-adv-x="1261" d="M92 0v135q45 35 115 35v1098q-78 6 -115 35v137l555 -10v-136q-37 -29 -115 -32v-78q74 8 134 8q252 0 412.5 -127.5t160.5 -337.5q0 -118 -44.5 -210.5t-124.5 -151t-187 -89t-234 -30.5q-61 0 -117 6v-82q70 0 115 -35v-135h-555zM532 508q46 -6 113 -6 q137 0 199.5 50.5t62.5 166.5q0 104 -65 161.5t-191 57.5q-61 0 -119 -6v-424z" />
<glyph unicode="&#xdf;" horiz-adv-x="1298" d="M0 809l70 256q107 0 159 -74q-15 263 107.5 406t361.5 143q208 0 336.5 -119.5t128.5 -285.5q0 -226 -225 -316q319 -91 319 -385q0 -211 -134 -335t-371 -124q-125 0 -209 35l20 336h152q15 -73 22 -121h35q78 0 124 51.5t46 157.5q0 118 -81.5 185t-233.5 67v227 q122 0 178.5 50t56.5 157q0 85 -45.5 134t-126.5 49q-114 0 -163.5 -83.5t-49.5 -263.5v-1241q60 0 103 -34v-132h-519v132q43 34 107 34h2v903q0 106 -45.5 148.5t-124.5 42.5z" />
<glyph unicode="&#xe0;" horiz-adv-x="1097" d="M41 324q0 158 102 248t285 90q111 0 234 -29v69q0 158 -193 158q-67 0 -131 -6l10 -133h-178q-45 151 -45 311q204 58 389 58q447 0 447 -422v-318q0 -125 124 -125l-63 -235q-220 0 -291 133q-69 -73 -146.5 -110.5t-193.5 -37.5q-96 0 -174 38.5t-127 119.5t-49 191z M244 1417l125 256l477 -305l-101 -182zM332 338q0 -58 34.5 -86.5t94.5 -28.5q113 0 201 88v115q-96 27 -183 27q-75 0 -111 -30.5t-36 -84.5z" />
<glyph unicode="&#xe1;" horiz-adv-x="1097" d="M41 324q0 158 102 248t285 90q111 0 234 -29v69q0 158 -193 158q-67 0 -131 -6l10 -133h-178q-45 151 -45 311q204 58 389 58q447 0 447 -422v-318q0 -125 124 -125l-63 -235q-220 0 -291 133q-69 -73 -146.5 -110.5t-193.5 -37.5q-96 0 -174 38.5t-127 119.5t-49 191z M236 1368l477 305l125 -256l-500 -231zM332 338q0 -58 34.5 -86.5t94.5 -28.5q113 0 201 88v115q-96 27 -183 27q-75 0 -111 -30.5t-36 -84.5z" />
<glyph unicode="&#xe2;" horiz-adv-x="1097" d="M41 324q0 158 102 248t285 90q111 0 234 -29v69q0 158 -193 158q-67 0 -131 -6l10 -133h-178q-45 151 -45 311q204 58 389 58q447 0 447 -422v-318q0 -125 124 -125l-63 -235q-220 0 -291 133q-69 -73 -146.5 -110.5t-193.5 -37.5q-96 0 -174 38.5t-127 119.5t-49 191z M115 1341l315 218h221l316 -218l-148 -188l-278 215l-279 -215zM332 338q0 -58 34.5 -86.5t94.5 -28.5q113 0 201 88v115q-96 27 -183 27q-75 0 -111 -30.5t-36 -84.5z" />
<glyph unicode="&#xe3;" horiz-adv-x="1097" d="M41 324q0 158 102 248t285 90q111 0 234 -29v69q0 158 -193 158q-67 0 -131 -6l10 -133h-178q-45 151 -45 311q204 58 389 58q447 0 447 -422v-318q0 -125 124 -125l-63 -235q-220 0 -291 133q-69 -73 -146.5 -110.5t-193.5 -37.5q-96 0 -174 38.5t-127 119.5t-49 191z M115 1354q75 95 136.5 139.5t131.5 44.5q46 0 88 -14.5t68 -32.5t57.5 -32.5t58.5 -14.5q47 0 86 25.5t84 74.5l140 -162q-74 -96 -137 -140t-138 -44q-50 0 -98.5 23.5t-91 47t-80.5 23.5q-73 0 -166 -100zM332 338q0 -58 34.5 -86.5t94.5 -28.5q113 0 201 88v115 q-96 27 -183 27q-75 0 -111 -30.5t-36 -84.5z" />
<glyph unicode="&#xe4;" horiz-adv-x="1097" d="M41 324q0 158 102 248t285 90q111 0 234 -29v69q0 158 -193 158q-67 0 -131 -6l10 -133h-178q-45 151 -45 311q204 58 389 58q447 0 447 -422v-318q0 -125 124 -125l-63 -235q-220 0 -291 133q-69 -73 -146.5 -110.5t-193.5 -37.5q-96 0 -174 38.5t-127 119.5t-49 191z M133 1384q0 78 52.5 129.5t129.5 51.5t128 -51.5t51 -127.5q0 -79 -50.5 -129.5t-128.5 -50.5q-76 0 -129 50.5t-53 127.5zM332 338q0 -58 34.5 -86.5t94.5 -28.5q113 0 201 88v115q-96 27 -183 27q-75 0 -111 -30.5t-36 -84.5zM588 1384q0 78 50 129.5t128 51.5 q76 0 129 -51.5t53 -127.5q0 -79 -52.5 -129.5t-129.5 -50.5t-127.5 50t-50.5 128z" />
<glyph unicode="&#xe5;" horiz-adv-x="1097" d="M41 324q0 158 102 248t285 90q111 0 234 -29v69q0 158 -193 158q-67 0 -131 -6l10 -133h-178q-45 151 -45 311q204 58 389 58q447 0 447 -422v-318q0 -125 124 -125l-63 -235q-220 0 -291 133q-69 -73 -146.5 -110.5t-193.5 -37.5q-96 0 -174 38.5t-127 119.5t-49 191z M221 1487q0 132 89.5 215.5t230.5 83.5q139 0 229 -84t90 -215q0 -132 -90.5 -216.5t-228.5 -84.5q-141 0 -230.5 84.5t-89.5 216.5zM332 338q0 -58 34.5 -86.5t94.5 -28.5q113 0 201 88v115q-96 27 -183 27q-75 0 -111 -30.5t-36 -84.5zM461 1487q0 -55 21.5 -86t58.5 -31 q38 0 59 30t21 87t-21 86t-59 29q-37 0 -58.5 -30t-21.5 -85z" />
<glyph unicode="&#xe6;" horiz-adv-x="1695" d="M41 324q0 159 104 248.5t295 89.5q111 0 238 -27q-10 120 -64.5 172.5t-164.5 52.5q-33 0 -99 -4l8 -113h-178q-45 151 -45 312q175 35 344 35q139 0 232 -49.5t127 -137.5q121 187 372 187q132 0 236.5 -66t160.5 -176t56 -242l-6 -57l-658 -180q25 -73 86 -108.5 t168 -35.5q76 0 133 8q8 57 25 132h174l14 -306q-165 -84 -376 -84q-254 0 -404 172q-85 -88 -183.5 -130t-225.5 -42q-161 0 -265 92.5t-104 256.5zM332 338q0 -57 37 -86t104 -29q137 0 244 96q-16 43 -29 105q-107 29 -199 29q-157 0 -157 -115zM979 588l387 110 q-30 148 -168 148q-57 0 -101 -24t-69 -63t-37 -82.5t-12 -88.5z" />
<glyph unicode="&#xe7;" horiz-adv-x="1005" d="M51 535q0 114 38.5 214.5t109 176.5t177.5 120t236 44q188 0 340 -84q0 -158 -43 -312h-178l10 137q-54 7 -102 7q-139 0 -205.5 -74.5t-66.5 -226.5q0 -306 272 -306q21 0 94 5q7 54 25 139h170l14 -316h-6q-126 -63 -248 -79l-22 -70q102 -11 156.5 -60.5t54.5 -136.5 q0 -118 -92 -185t-244 -67q-140 0 -246 47l76 187q71 -27 139 -27q86 0 86 53q0 67 -201 70l76 197q-198 39 -309 187t-111 360z" />
<glyph unicode="&#xe8;" horiz-adv-x="1087" d="M51 532q0 158 65 285t184.5 200t272.5 73q110 0 202.5 -39.5t153 -106t93.5 -154t33 -184.5l-6 -57l-676 -180q30 -72 94 -108t174 -36q80 0 137 8q8 57 25 132h174l14 -306q-165 -84 -383 -84q-253 0 -405 147.5t-152 409.5zM289 1417l125 256l477 -305l-100 -182z M352 588l406 110q-27 148 -174 148q-61 0 -108 -24t-73 -63t-38.5 -82.5t-12.5 -88.5z" />
<glyph unicode="&#xe9;" horiz-adv-x="1087" d="M51 532q0 158 65 285t184.5 200t272.5 73q110 0 202.5 -39.5t153 -106t93.5 -154t33 -184.5l-6 -57l-676 -180q30 -72 94 -108t174 -36q80 0 137 8q8 57 25 132h174l14 -306q-165 -84 -383 -84q-253 0 -405 147.5t-152 409.5zM281 1368l477 305l125 -256l-500 -231z M352 588l406 110q-27 148 -174 148q-61 0 -108 -24t-73 -63t-38.5 -82.5t-12.5 -88.5z" />
<glyph unicode="&#xea;" horiz-adv-x="1087" d="M51 532q0 158 65 285t184.5 200t272.5 73q110 0 202.5 -39.5t153 -106t93.5 -154t33 -184.5l-6 -57l-676 -180q30 -72 94 -108t174 -36q80 0 137 8q8 57 25 132h174l14 -306q-165 -84 -383 -84q-253 0 -405 147.5t-152 409.5zM160 1341l315 218h221l316 -218l-148 -188 l-278 215l-279 -215zM352 588l406 110q-27 148 -174 148q-61 0 -108 -24t-73 -63t-38.5 -82.5t-12.5 -88.5z" />
<glyph unicode="&#xeb;" horiz-adv-x="1087" d="M51 532q0 158 65 285t184.5 200t272.5 73q110 0 202.5 -39.5t153 -106t93.5 -154t33 -184.5l-6 -57l-676 -180q30 -72 94 -108t174 -36q80 0 137 8q8 57 25 132h174l14 -306q-165 -84 -383 -84q-253 0 -405 147.5t-152 409.5zM178 1384q0 78 52.5 129.5t129.5 51.5 q76 0 127.5 -51.5t51.5 -127.5q0 -79 -50.5 -129.5t-128.5 -50.5q-76 0 -129 50.5t-53 127.5zM352 588l406 110q-27 148 -174 148q-61 0 -108 -24t-73 -63t-38.5 -82.5t-12.5 -88.5zM633 1384q0 78 50 129.5t128 51.5q76 0 129 -51.5t53 -127.5q0 -79 -52.5 -129.5 t-129.5 -50.5t-127.5 50t-50.5 128z" />
<glyph unicode="&#xec;" horiz-adv-x="655" d="M6 1417l125 256l477 -305l-100 -182zM63 936v135l414 -12v-893h8q62 0 107 -35v-131h-520v131q40 32 98 35v735q-66 3 -107 35z" />
<glyph unicode="&#xed;" horiz-adv-x="655" d="M-2 1368l477 305l125 -256l-500 -231zM63 936v135l414 -12v-893h8q62 0 107 -35v-131h-520v131q40 32 98 35v735q-66 3 -107 35z" />
<glyph unicode="&#xee;" horiz-adv-x="655" d="M-123 1341l316 218h221l315 -218l-147 -188l-279 215l-278 -215zM63 936v135l414 -12v-893h8q62 0 107 -35v-131h-520v131q40 32 98 35v735q-66 3 -107 35z" />
<glyph unicode="&#xef;" horiz-adv-x="655" d="M-104 1384q0 78 52.5 129.5t129.5 51.5q76 0 127 -51t51 -128q0 -79 -50 -129.5t-128 -50.5q-76 0 -129 50.5t-53 127.5zM63 936v135l414 -12v-893h8q62 0 107 -35v-131h-520v131q40 32 98 35v735q-66 3 -107 35zM350 1384q0 78 50 129.5t128 51.5q76 0 129.5 -51.5 t53.5 -127.5q0 -79 -52.5 -129.5t-130.5 -50.5q-77 0 -127.5 50t-50.5 128z" />
<glyph unicode="&#xf0;" horiz-adv-x="1114" d="M51 438q0 105 36 194t96 148t138.5 92t163.5 33q83 0 155 -29t120 -77q-14 186 -96 297l-107 -152l-180 141l137 136q-76 25 -178 28l6 -86h-158q-45 151 -45 312q82 10 152 10q207 0 368 -80l111 158l180 -142l-121 -125q234 -214 234 -612q0 -331 -142 -520t-393 -189 q-127 0 -234 52.5t-175 160t-68 250.5zM358 446q0 -99 50 -156t129 -57q100 0 154.5 74.5t66.5 247.5q-40 46 -98 73t-115 27q-85 0 -136 -54.5t-51 -154.5z" />
<glyph unicode="&#xf1;" horiz-adv-x="1253" d="M63 936v135l340 -10l13 -146q129 175 336 175q172 0 268 -112t96 -300v-512h10q62 0 107 -35v-131h-520v131q41 32 96 35v496q0 174 -133 174q-102 0 -199 -117v-553h8q62 0 107 -35v-131h-520v131q40 32 98 35v735q-66 3 -107 35zM219 1354q75 95 136.5 139.5 t131.5 44.5q59 0 109 -23.5t90 -47t74 -23.5q47 0 86 25.5t84 74.5l139 -162q-75 -96 -137 -140t-137 -44q-50 0 -98.5 23.5t-91.5 47t-81 23.5q-73 0 -166 -100z" />
<glyph unicode="&#xf2;" horiz-adv-x="1214" d="M51 532q0 168 74 296t200 195t283 67q246 0 400.5 -156t154.5 -402q0 -168 -74 -296t-199.5 -194.5t-281.5 -66.5q-247 0 -402 155.5t-155 401.5zM311 1417l125 256l477 -305l-100 -182zM367 528q0 -126 65.5 -211.5t175.5 -85.5q114 0 177 79.5t63 226.5 q0 126 -65.5 211.5t-174.5 85.5q-116 0 -178.5 -79.5t-62.5 -226.5z" />
<glyph unicode="&#xf3;" horiz-adv-x="1214" d="M51 532q0 168 74 296t200 195t283 67q246 0 400.5 -156t154.5 -402q0 -168 -74 -296t-199.5 -194.5t-281.5 -66.5q-247 0 -402 155.5t-155 401.5zM303 1368l477 305l125 -256l-499 -231zM367 528q0 -126 65.5 -211.5t175.5 -85.5q114 0 177 79.5t63 226.5 q0 126 -65.5 211.5t-174.5 85.5q-116 0 -178.5 -79.5t-62.5 -226.5z" />
<glyph unicode="&#xf4;" horiz-adv-x="1214" d="M51 532q0 168 74 296t200 195t283 67q246 0 400.5 -156t154.5 -402q0 -168 -74 -296t-199.5 -194.5t-281.5 -66.5q-247 0 -402 155.5t-155 401.5zM182 1341l316 218h221l315 -218l-147 -188l-279 215l-278 -215zM367 528q0 -126 65.5 -211.5t175.5 -85.5q114 0 177 79.5 t63 226.5q0 126 -65.5 211.5t-174.5 85.5q-116 0 -178.5 -79.5t-62.5 -226.5z" />
<glyph unicode="&#xf5;" horiz-adv-x="1214" d="M51 532q0 168 74 296t200 195t283 67q246 0 400.5 -156t154.5 -402q0 -168 -74 -296t-199.5 -194.5t-281.5 -66.5q-247 0 -402 155.5t-155 401.5zM182 1354q75 95 137 139.5t132 44.5q46 0 88 -14.5t68 -32.5t57.5 -32.5t58.5 -14.5q47 0 86 25.5t84 74.5l139 -162 q-75 -96 -137 -140t-137 -44q-50 0 -98.5 23.5t-91.5 47t-81 23.5q-72 0 -165 -100zM367 528q0 -126 65.5 -211.5t175.5 -85.5q114 0 177 79.5t63 226.5q0 126 -65.5 211.5t-174.5 85.5q-116 0 -178.5 -79.5t-62.5 -226.5z" />
<glyph unicode="&#xf6;" horiz-adv-x="1214" d="M51 532q0 168 74 296t200 195t283 67q246 0 400.5 -156t154.5 -402q0 -168 -74 -296t-199.5 -194.5t-281.5 -66.5q-247 0 -402 155.5t-155 401.5zM203 1384q0 78 52.5 129.5t129.5 51.5q76 0 127 -51t51 -128q0 -79 -50 -129.5t-128 -50.5q-76 0 -129 50.5t-53 127.5z M367 528q0 -126 65.5 -211.5t175.5 -85.5q114 0 177 79.5t63 226.5q0 126 -65.5 211.5t-174.5 85.5q-116 0 -178.5 -79.5t-62.5 -226.5zM657 1384q0 78 50.5 129.5t128.5 51.5q76 0 129 -51.5t53 -127.5q0 -79 -52.5 -129.5t-129.5 -50.5t-128 50t-51 128z" />
<glyph unicode="&#xf7;" d="M199 569v256h831v-256h-831zM422 248q0 85 57.5 140.5t143.5 55.5q84 0 142 -55t58 -139q0 -86 -57.5 -141.5t-142.5 -55.5q-86 0 -143.5 55t-57.5 140zM422 1161q0 87 57.5 142t143.5 55q84 0 142 -55t58 -140t-58 -140.5t-142 -55.5q-85 0 -143 55t-58 139z" />
<glyph unicode="&#xf8;" horiz-adv-x="1234" d="M72 532q0 168 74 296t200 195t283 67q68 0 139 -19l96 229l230 -116l-129 -209q101 -77 159 -192.5t58 -250.5q0 -168 -73.5 -296t-198.5 -194.5t-281 -66.5q-70 0 -144 19l-92 -225l-231 116l127 205q-101 77 -159 192t-58 250zM383 528q0 -134 43 -204l244 512 q-14 2 -41 2q-119 0 -182.5 -79t-63.5 -231zM586 229q14 -2 43 -2q117 0 179 79t62 231q0 131 -41 202z" />
<glyph unicode="&#xf9;" horiz-adv-x="1206" d="M12 936v135l414 -10v-664q0 -168 139 -168q99 0 178 66v606q-61 3 -102 35v135l410 -12v-707q0 -127 125 -127l-66 -235q-216 0 -293 133q-130 -148 -328 -148q-57 0 -110 14t-100.5 46t-83 78.5t-56 115.5t-20.5 154v518q-66 3 -107 35zM291 1417l125 256l477 -305 l-100 -182z" />
<glyph unicode="&#xfa;" horiz-adv-x="1206" d="M12 936v135l414 -10v-664q0 -168 139 -168q99 0 178 66v606q-61 3 -102 35v135l410 -12v-707q0 -127 125 -127l-66 -235q-216 0 -293 133q-130 -148 -328 -148q-57 0 -110 14t-100.5 46t-83 78.5t-56 115.5t-20.5 154v518q-66 3 -107 35zM283 1368l477 305l125 -256 l-500 -231z" />
<glyph unicode="&#xfb;" horiz-adv-x="1206" d="M12 936v135l414 -10v-664q0 -168 139 -168q99 0 178 66v606q-61 3 -102 35v135l410 -12v-707q0 -127 125 -127l-66 -235q-216 0 -293 133q-130 -148 -328 -148q-57 0 -110 14t-100.5 46t-83 78.5t-56 115.5t-20.5 154v518q-66 3 -107 35zM162 1341l315 218h221l316 -218 l-148 -188l-278 215l-279 -215z" />
<glyph unicode="&#xfc;" horiz-adv-x="1206" d="M12 936v135l414 -10v-664q0 -168 139 -168q99 0 178 66v606q-61 3 -102 35v135l410 -12v-707q0 -127 125 -127l-66 -235q-216 0 -293 133q-130 -148 -328 -148q-57 0 -110 14t-100.5 46t-83 78.5t-56 115.5t-20.5 154v518q-66 3 -107 35zM182 1384q0 77 53 129t130 52 q76 0 127 -51t51 -128q0 -79 -50 -129.5t-128 -50.5q-76 0 -129.5 50.5t-53.5 127.5zM637 1384q0 78 50 129.5t128 51.5q76 0 129 -51.5t53 -127.5q0 -79 -52.5 -129.5t-129.5 -50.5t-127.5 50t-50.5 128z" />
<glyph unicode="&#xfd;" horiz-adv-x="1185" d="M-41 1030l440 72l27 -125q-29 -26 -70 -41l262 -637l220 635q-46 15 -78 43l26 125l441 -72l-21 -129q-34 -18 -92 -18l-377 -1006q-38 -103 -87.5 -173t-110.5 -108.5t-126 -54.5t-147 -16q-137 0 -225 57l27 334h149q21 -111 25 -156h41q74 0 121.5 43t82.5 144l48 133 h-107l-356 803q-58 0 -92 18zM305 1368l477 305l125 -256l-499 -231z" />
<glyph unicode="&#xfe;" horiz-adv-x="1220" d="M51 -319q43 34 107 34v1542q-63 3 -107 37v117l414 49l-4 -4l4 2v-467q96 99 246 99q87 0 168.5 -37t146 -105t103 -173t38.5 -230q0 -124 -38.5 -232t-102 -181t-146.5 -115t-171 -42q-133 0 -244 93v-353q63 0 106 -34v-132h-520v132zM465 299q71 -68 168 -68t158 81.5 t61 226.5q0 139 -56.5 219t-150.5 80q-102 0 -180 -72v-467z" />
<glyph unicode="&#xff;" horiz-adv-x="1185" d="M-41 1030l440 72l27 -125q-29 -26 -70 -41l262 -637l220 635q-46 15 -78 43l26 125l441 -72l-21 -129q-34 -18 -92 -18l-377 -1006q-38 -103 -87.5 -173t-110.5 -108.5t-126 -54.5t-147 -16q-137 0 -225 57l27 334h149q21 -111 25 -156h41q74 0 121.5 43t82.5 144l48 133 h-107l-356 803q-58 0 -92 18zM203 1384q0 78 52.5 129.5t129.5 51.5q76 0 127 -51t51 -128q0 -79 -50 -129.5t-128 -50.5q-76 0 -129 50.5t-53 127.5zM657 1384q0 78 50.5 129.5t128.5 51.5q76 0 129 -51.5t53 -127.5q0 -79 -52.5 -129.5t-129.5 -50.5t-128 50t-51 128z" />
<glyph unicode="&#x152;" horiz-adv-x="1810" d="M72 719q0 215 82.5 381t244 262t379.5 96q118 0 262 -24l703 -2l6 2q0 -223 -47 -404h-195l13 146h-314v-318h326l125 8l-29 -250h-422v-360h316q7 68 26 164h174l21 -420h-723q-171 -25 -242 -25q-164 0 -298 57t-223 157.5t-137 236t-48 293.5zM414 719 q0 -131 39.5 -237t123.5 -173t201 -67q60 0 94 10v932q-39 8 -94 8q-176 0 -270 -129.5t-94 -343.5z" />
<glyph unicode="&#x153;" horiz-adv-x="1880" d="M51 532q0 167 74.5 296t197 195.5t269.5 66.5q134 0 239 -52.5t166 -158.5q57 105 156.5 158t226.5 53q107 0 196 -39.5t147.5 -106t91 -154t32.5 -184.5l-6 -57l-678 -180q61 -144 269 -144q80 0 137 8q9 67 24 132h176l15 -306q-165 -84 -383 -84q-284 0 -412 205 q-132 -205 -397 -205q-233 0 -387 156.5t-154 400.5zM367 528q0 -128 64.5 -213.5t170.5 -85.5q112 0 174 79.5t62 228.5q0 128 -65 213.5t-171 85.5q-111 0 -173 -79.5t-62 -228.5zM1145 590l405 108q-30 148 -174 148q-61 0 -108 -24t-72.5 -63t-38 -81.5t-12.5 -87.5z " />
<glyph unicode="&#x178;" horiz-adv-x="1361" d="M-51 1401l493 65l27 -129q-30 -26 -72 -41l287 -493l285 491q-46 15 -78 43l29 129l493 -65l-22 -141q-41 -23 -111 -17l-436 -696v-377q69 0 114 -35v-135h-555v135q45 35 115 35v375l-446 698q-63 -3 -101 17zM266 1733q0 77 53 128.5t130 51.5t127.5 -50.5 t50.5 -127.5q0 -79 -50 -130t-128 -51q-76 0 -129.5 51t-53.5 128zM721 1733q0 78 50 129t128 51q76 0 129 -51t53 -127q0 -79 -52.5 -130t-129.5 -51t-127.5 50.5t-50.5 128.5z" />
<glyph unicode="&#x2c6;" horiz-adv-x="974" d="M61 1341l316 218h221l315 -218l-147 -188l-279 215l-278 -215z" />
<glyph unicode="&#x2dc;" horiz-adv-x="972" d="M61 1354q75 95 137 139.5t132 44.5q46 0 88 -14.5t68 -32.5t57.5 -32.5t58.5 -14.5q47 0 86 25.5t84 74.5l139 -162q-75 -96 -137 -140t-137 -44q-50 0 -98.5 23.5t-91 47t-80.5 23.5q-73 0 -166 -100z" />
<glyph unicode="&#x2000;" horiz-adv-x="1005" />
<glyph unicode="&#x2001;" horiz-adv-x="2011" />
<glyph unicode="&#x2002;" horiz-adv-x="1005" />
<glyph unicode="&#x2003;" horiz-adv-x="2011" />
<glyph unicode="&#x2004;" horiz-adv-x="670" />
<glyph unicode="&#x2005;" horiz-adv-x="502" />
<glyph unicode="&#x2006;" horiz-adv-x="335" />
<glyph unicode="&#x2007;" horiz-adv-x="335" />
<glyph unicode="&#x2008;" horiz-adv-x="251" />
<glyph unicode="&#x2009;" horiz-adv-x="402" />
<glyph unicode="&#x200a;" horiz-adv-x="111" />
<glyph unicode="&#x2010;" horiz-adv-x="1028" d="M131 569v256h766v-256h-766z" />
<glyph unicode="&#x2011;" horiz-adv-x="1028" d="M131 569v256h766v-256h-766z" />
<glyph unicode="&#x2012;" horiz-adv-x="1028" d="M131 569v256h766v-256h-766z" />
<glyph unicode="&#x2013;" horiz-adv-x="1253" d="M131 569v256h993v-256h-993z" />
<glyph unicode="&#x2014;" horiz-adv-x="1560" d="M131 569v256h1299v-256h-1299z" />
<glyph unicode="&#x2018;" horiz-adv-x="532" d="M72 1192q0 120 66 227t194 183l69 -109q-58 -54 -85.5 -100t-36.5 -103q86 0 134 -39.5t48 -111.5q0 -70 -52 -114t-135 -44q-87 0 -144.5 54.5t-57.5 156.5z" />
<glyph unicode="&#x2019;" horiz-adv-x="532" d="M72 1382q0 69 51.5 113.5t132.5 44.5q89 0 147 -54.5t58 -156.5q0 -121 -66 -226.5t-194 -182.5l-70 106q59 56 86.5 101.5t36.5 103.5q-86 0 -134 39.5t-48 111.5z" />
<glyph unicode="&#x201a;" horiz-adv-x="532" d="M72 156q0 69 51 113t133 44q89 0 147 -54.5t58 -156.5q0 -121 -66 -226.5t-194 -182.5l-70 106q59 56 86.5 101.5t36.5 103.5q-86 0 -134 40t-48 112z" />
<glyph unicode="&#x201c;" horiz-adv-x="997" d="M72 1192q0 120 66 227t194 183l69 -109q-58 -54 -85.5 -100t-36.5 -103q86 0 134 -39.5t48 -111.5q0 -70 -52 -114t-135 -44q-87 0 -144.5 54.5t-57.5 156.5zM539 1192q0 120 65.5 227t194.5 183l69 -109q-58 -54 -86 -100t-37 -103q85 0 133 -39.5t48 -111.5 q0 -71 -51 -114.5t-134 -43.5q-88 0 -145 54t-57 157z" />
<glyph unicode="&#x201d;" horiz-adv-x="999" d="M72 1382q0 69 51.5 113.5t132.5 44.5q89 0 147 -54.5t58 -156.5q0 -121 -66 -226.5t-194 -182.5l-70 106q59 56 86.5 101.5t36.5 103.5q-86 0 -134 39.5t-48 111.5zM541 1382q0 70 50.5 114t133.5 44q88 0 145.5 -54.5t57.5 -156.5q0 -121 -66 -226.5t-194 -182.5 l-70 106q59 56 86.5 101.5t36.5 103.5q-86 0 -133 39.5t-47 111.5z" />
<glyph unicode="&#x201e;" horiz-adv-x="999" d="M72 156q0 69 51 113t133 44q89 0 147 -54.5t58 -156.5q0 -121 -66 -226.5t-194 -182.5l-70 106q59 56 86.5 101.5t36.5 103.5q-86 0 -134 40t-48 112zM539 156q0 69 51 113t133 44q89 0 147 -54.5t58 -156.5q0 -121 -66 -226.5t-194 -182.5l-70 106q59 56 86.5 101.5 t36.5 103.5q-86 0 -134 40t-48 112z" />
<glyph unicode="&#x2022;" horiz-adv-x="942" d="M154 727q0 136 87 224.5t230 88.5q138 0 226.5 -89t88.5 -224t-87 -224t-228 -89t-229 89t-88 224z" />
<glyph unicode="&#x2026;" horiz-adv-x="1839" d="M104 170q0 86 57.5 141.5t143.5 55.5q84 0 142.5 -55.5t58.5 -139.5q0 -86 -57.5 -141.5t-143.5 -55.5q-84 0 -142.5 55.5t-58.5 139.5zM719 170q0 86 57.5 141.5t143.5 55.5q84 0 142 -55.5t58 -139.5q0 -86 -57.5 -141.5t-142.5 -55.5q-84 0 -142.5 55.5t-58.5 139.5z M1333 170q0 86 57.5 141.5t143.5 55.5q84 0 142.5 -55.5t58.5 -139.5q0 -86 -57.5 -141.5t-143.5 -55.5q-84 0 -142.5 55.5t-58.5 139.5z" />
<glyph unicode="&#x202f;" horiz-adv-x="402" />
<glyph unicode="&#x2039;" horiz-adv-x="757" d="M123 639v131l319 395l191 -164l-275 -296l275 -297l-191 -164z" />
<glyph unicode="&#x203a;" horiz-adv-x="757" d="M123 408l276 297l-276 296l190 164l320 -395v-131l-320 -395z" />
<glyph unicode="&#x205f;" horiz-adv-x="502" />
<glyph unicode="&#x20ac;" horiz-adv-x="1292" d="M82 414v215h160v96h-160v215h182q55 233 220 363.5t403 130.5q207 0 375 -93v-2q0 -154 -48 -348h-194l12 183q-82 8 -139 8q-114 0 -196 -59.5t-119 -182.5h452l-39 -215h-436v-96h422l-41 -215h-350q36 -92 113 -139.5t182 -47.5q59 0 127 11q10 101 36 223h177 l20 -375q-176 -111 -379 -111q-229 0 -386 112.5t-210 326.5h-184z" />
<glyph unicode="&#x2122;" horiz-adv-x="1843" d="M-8 1556h1155l145 -399l146 399l391 11v-107q-23 -15 -66 -18v-586q42 0 66 -20v-119h-332v467l-111 -289l-172 -43l-131 319v-454h-329v119q24 20 65 20h2v504h-225v-504h18q44 0 68 -20v-119h-446v119q24 20 65 20h21v504h-152l10 -115h-147q-41 138 -41 311z" />
<glyph unicode="&#x25fc;" horiz-adv-x="1105" d="M0 0v1106h1106v-1106h-1106z" />
</font>
</defs>
</svg>
