<?xml version="1.0" standalone="no"?>
<!DOCTYPE svg PUBLIC "-//W3C//DTD SVG 1.1//EN" "http://www.w3.org/Graphics/SVG/1.1/DTD/svg11.dtd" >
<svg xmlns="http://www.w3.org/2000/svg">
<metadata></metadata>
<defs>
<font id="abezeh_slablight" horiz-adv-x="1228" >
<font-face units-per-em="2048" ascent="1638" descent="-410" />
<missing-glyph horiz-adv-x="614" />
<glyph unicode="&#xfb01;" horiz-adv-x="1189" d="M55 895v102h168v189q0 152 95 253t249 101q73 0 138.5 -14t107.5 -31t119 -53l16 -215h-94q-23 85 -29 151q-124 52 -252 52q-106 0 -166.5 -69t-60.5 -175v-189h629v-917q60 -3 96 -25v-55h-219v895h-506v-815q58 -3 94 -25v-55h-217v895h-168z" />
<glyph unicode="&#xfb02;" horiz-adv-x="1374" d="M55 895v102h168v203q0 152 95 246t257 94q188 0 392 -108v-1123q0 -116 52 -169.5t144 -53.5q51 0 92 6q5 50 21 115h65l9 -191q-87 -41 -197 -41q-62 0 -116 17.5t-98 53t-69.5 97.5t-25.5 144v1087q-141 56 -260 56q-116 0 -177 -62t-61 -168v-203h326l-17 -102h-309 v-815q60 -3 96 -25v-55h-219v895h-168z" />
<glyph unicode="&#xfb03;" horiz-adv-x="1826" d="M57 895v70q69 25 168 28v170q0 163 95.5 258t259.5 95q174 0 356 -99q45 58 114 90.5t154 32.5q73 0 138.5 -14t107.5 -31t119 -53l16 -215h-94q-23 85 -29 151q-124 52 -252 52q-106 0 -166.5 -69t-60.5 -175v-189h629v-917q60 -3 96 -25v-55h-219v895h-506v-815 q58 -3 94 -25v-55h-217v895h-512v-815q60 -3 96 -25v-55h-219v895h-168zM348 997h512v189q0 76 29 149q-162 74 -301 74q-114 0 -177 -62.5t-63 -170.5v-179z" />
<glyph unicode="&#xfb04;" horiz-adv-x="2009" d="M55 895v70q69 25 168 28v170q0 163 95.5 258t259.5 95q166 0 348 -95q95 119 278 119q187 0 391 -108v-1123q0 -116 52.5 -169.5t144.5 -53.5q52 0 92 6q5 50 21 115h65l8 -191q-87 -41 -196 -41q-62 0 -116 17.5t-98 53t-69.5 97.5t-25.5 144v1087q-141 56 -261 56 q-116 0 -176.5 -62t-60.5 -168v-203h325l-16 -102h-309v-815q60 -3 96 -25v-55h-219v895h-506v-815q60 -3 96 -25v-55h-219v895h-168zM346 997h506v203q0 75 25 139q-147 70 -291 70q-114 0 -177 -62.5t-63 -170.5v-179z" />
<glyph horiz-adv-x="2048" />
<glyph horiz-adv-x="2048" />
<glyph unicode="&#xd;" horiz-adv-x="2048" />
<glyph unicode=" "  horiz-adv-x="614" />
<glyph unicode="&#x09;" horiz-adv-x="614" />
<glyph unicode="&#xa0;" horiz-adv-x="614" />
<glyph unicode="!" horiz-adv-x="598" d="M201 78q0 44 27 72t71 28q43 0 71.5 -28t28.5 -72q0 -43 -27.5 -70.5t-72.5 -27.5q-42 0 -70 28t-28 70zM229 885v608h138v-608l-17 -508h-104z" />
<glyph unicode="&#x22;" horiz-adv-x="700" d="M135 1434h119l-10 -435h-99zM446 1434h119l-10 -435h-98z" />
<glyph unicode="#" horiz-adv-x="1353" d="M90 293l16 102h193l94 529h-192l16 102h195l53 293h110l-53 -293h445l53 293h110l-53 -293h187l-17 -102h-186l-94 -529h184l-16 -102h-187l-49 -293h-111l50 293h-445l-49 -293h-111l50 293h-193zM410 395h444l94 529h-444z" />
<glyph unicode="$" horiz-adv-x="1046" d="M109 172l6 207h69q15 -72 21 -158q149 -78 338 -78q147 0 239 65t92 183q0 72 -27 119.5t-102.5 91.5t-218.5 90q-201 65 -287.5 146t-86.5 217q0 137 101.5 224.5t276.5 94.5l-12 240h121l-12 -242q168 -15 340 -106q0 -79 -31 -211h-76l14 151q-153 66 -315 66 q-132 0 -211.5 -56.5t-79.5 -156.5q0 -96 67 -153.5t249 -117.5q230 -74 319.5 -161t89.5 -230q0 -153 -105.5 -247t-283.5 -109l12 -240h-120l12 238q-232 8 -399 133z" />
<glyph unicode="%" horiz-adv-x="1992" d="M121 1001q0 215 89.5 331t250.5 116q63 0 112 -18l203 8v-58q-47 -21 -96 -16q119 -119 119 -367q0 -215 -90.5 -330.5t-251.5 -115.5q-160 0 -248 117t-88 333zM236 1001q0 -175 60.5 -266.5t164.5 -91.5q105 0 165 85.5t60 268.5q0 176 -60.5 267.5t-164.5 91.5 q-106 0 -165.5 -86t-59.5 -269zM498 -29l911 1545l84 -54l-911 -1544zM1188 436q0 215 89.5 331t250.5 116q60 0 112 -19l203 8v-57q-47 -21 -96 -16q119 -119 119 -367q0 -215 -90.5 -330.5t-251.5 -115.5q-160 0 -248 117t-88 333zM1303 436q0 -176 60.5 -267t164.5 -91 q105 0 165 85.5t60 268.5q0 176 -60.5 267.5t-164.5 91.5q-106 0 -165.5 -86t-59.5 -269z" />
<glyph unicode="&#x26;" horiz-adv-x="1558" d="M184 358q0 137 74 240.5t234 189.5q-90 95 -128 169.5t-38 172.5q0 142 94.5 235t247.5 93q146 0 234.5 -88.5t88.5 -214.5q0 -124 -77.5 -213t-258.5 -176l387 -426q100 176 156 397q-50 15 -86 37l12 55l279 -47l-8 -53q-43 -14 -95 -8q-63 -251 -180 -453l172 -180 l13 -4q63 9 100 -6l10 -58l-184 -30l-174 190q-177 -205 -441 -205q-185 0 -308.5 105.5t-123.5 277.5zM313 369q0 -126 87 -203.5t225 -77.5q208 0 358 164l-430 469q-128 -76 -184 -156.5t-56 -195.5zM440 1133q0 -82 34.5 -149t117.5 -150q154 71 218 144t64 173 q0 88 -57.5 147.5t-152.5 59.5q-96 0 -160 -64t-64 -161z" />
<glyph unicode="'" horiz-adv-x="378" d="M129 1434h119l-10 -433h-99z" />
<glyph unicode="(" horiz-adv-x="602" d="M125 655q0 243 68.5 460.5t209.5 445.5l76 -41q-225 -420 -225 -865q0 -435 223 -864l-74 -41q-142 237 -210 452t-68 453z" />
<glyph unicode=")" horiz-adv-x="602" d="M125 -209q223 423 223 864q0 449 -223 865l76 41q140 -229 209 -446.5t69 -459.5q0 -237 -68.5 -451.5t-209.5 -453.5z" />
<glyph unicode="*" horiz-adv-x="903" d="M125 1237l33 104l252 -94l-13 269h113l-14 -267l252 92l32 -104l-254 -72l164 -209l-90 -65l-145 223l-150 -223l-90 65l166 207z" />
<glyph unicode="+" d="M227 649v107h330v352h117v-352h327v-107h-327v-350h-117v350h-330z" />
<glyph unicode="," horiz-adv-x="614" d="M113 -250q138 183 180 402l123 -35q-38 -250 -234 -406z" />
<glyph unicode="-" horiz-adv-x="1024" d="M174 647v113h674v-113h-674z" />
<glyph unicode="." horiz-adv-x="614" d="M209 78q0 44 27 72t71 28q43 0 72 -28t29 -72q0 -43 -28 -70.5t-73 -27.5q-42 0 -70 28t-28 70z" />
<glyph unicode="/" horiz-adv-x="921" d="M119 -104l581 1681l103 -35l-582 -1681z" />
<glyph unicode="0" horiz-adv-x="1257" d="M150 707q0 352 126 539.5t355 187.5q81 0 160 -29l294 16v-71q-76 -34 -174 -21q199 -184 199 -627q0 -351 -126.5 -539t-354.5 -188q-230 0 -354.5 189.5t-124.5 542.5zM281 709q0 -305 93 -463t255 -158q348 0 348 612q0 312 -92 466.5t-256 154.5q-348 0 -348 -612z " />
<glyph unicode="1" horiz-adv-x="911" d="M74 1145l415 268l95 -8v-1292h157q61 0 99 -23v-90h-693v90q38 23 99 23h213v1144l-330 -206z" />
<glyph unicode="2" horiz-adv-x="1044" d="M94 59q0 91 23.5 172.5t63 144.5t91 120.5t108 105t113 92t108 88.5t91 89t63 98t23.5 110q0 118 -74 182t-200 64q-163 0 -285 -86l12 -174h-81q-31 115 -31 223q167 146 391 146q184 0 292.5 -97t108.5 -254q0 -83 -36 -157.5t-94.5 -133t-129 -115t-142.5 -116 t-132 -123t-100.5 -148t-45.5 -179.5h590q6 79 19 147h73l7 -258h-820q-6 27 -6 59z" />
<glyph unicode="3" horiz-adv-x="1062" d="M104 88l7 221h69q17 -85 19 -155q120 -66 284 -66q150 2 240 80.5t90 220.5q0 144 -98.5 221.5t-290.5 77.5h-127l14 103h109q168 0 260 70.5t92 203.5q0 120 -78 190t-207 70q-142 0 -272 -63l10 -162h-78q-30 111 -30 217h2q167 117 375 117q186 0 297.5 -102 t111.5 -259q0 -141 -77 -220t-199 -105q133 -13 226 -106t93 -251q0 -190 -128.5 -303t-332.5 -113q-216 0 -381 113z" />
<glyph unicode="4" horiz-adv-x="1116" d="M86 330v98l432 993l113 -45l-406 -934h500l14 412l109 14v-426h182l-14 -112h-168v-248h6q56 0 100 -27v-55h-329v55q44 27 100 27v248h-639z" />
<glyph unicode="5" horiz-adv-x="1083" d="M115 1354v59l100 -4h711l-2 -10q3 -116 -31 -244h-84l10 141h-487v-456h151q240 0 369 -112t129 -308q0 -202 -132 -323.5t-341 -121.5q-223 0 -383 117l6 217h70q15 -66 18 -162q127 -59 285 -59q156 0 250 87t94 241q0 152 -96 233.5t-285 81.5h-252v596q-71 7 -100 27 z" />
<glyph unicode="6" horiz-adv-x="1185" d="M135 575q0 178 46 328.5t134.5 265t230.5 179.5t322 65q19 0 97 -4l-2 -4q0 -96 -37 -229h-82l14 139q-268 -13 -418.5 -181.5t-171.5 -453.5q139 199 394 199q180 0 292.5 -116.5t112.5 -305.5q0 -218 -127.5 -350t-325.5 -132q-102 0 -187.5 36t-151.5 108t-103 188.5 t-37 267.5zM266 549q3 -226 95 -343.5t255 -117.5q145 0 232.5 98t87.5 263q0 149 -79 234t-214 85q-225 0 -377 -219z" />
<glyph unicode="7" horiz-adv-x="1021" d="M84 1409h788l123 8v-104q-191 -174 -302 -349t-163.5 -384.5t-58.5 -497.5q52 0 96 -27v-55h-329v55q35 24 92 27q7 283 64 501t161.5 386t273.5 327h-636l12 -143h-86q-35 125 -35 256z" />
<glyph unicode="8" horiz-adv-x="1200" d="M115 369q0 283 354 393q-142 58 -211.5 135.5t-69.5 196.5q0 148 116.5 244t291.5 96q90 0 172 -29l299 16v-71q-73 -32 -168 -19q111 -97 111 -237q0 -239 -283 -332q179 -61 268.5 -157t89.5 -238q0 -175 -133 -283.5t-346 -108.5q-221 0 -356 111.5t-135 282.5z M244 377q0 -130 100 -210.5t264 -80.5q156 0 252 77t96 202q0 232 -366 342q-158 -36 -252 -122.5t-94 -207.5zM313 1094q0 -199 301 -285q271 76 271 281q0 109 -78.5 175t-210.5 66q-124 0 -203.5 -65.5t-79.5 -171.5z" />
<glyph unicode="9" horiz-adv-x="1173" d="M125 985q0 125 53 226.5t155.5 162t235.5 60.5q234 0 344.5 -161.5t110.5 -500.5q0 -178 -23.5 -315t-65.5 -227.5t-104 -148t-134.5 -82t-161.5 -24.5q-189 0 -345 140l7 202h69q13 -65 19 -153q120 -76 252 -76q361 0 358 631q-153 -160 -356 -160q-83 0 -156.5 27.5 t-131.5 79t-92 134t-34 185.5zM252 989q0 -158 81.5 -241.5t219.5 -83.5q191 0 340 174q-1 251 -81.5 368t-240.5 117q-147 0 -233 -92t-86 -242z" />
<glyph unicode=":" horiz-adv-x="614" d="M209 78q0 44 27 72t71 28q43 0 72 -28t29 -72q0 -43 -28 -70.5t-73 -27.5q-42 0 -70 28t-28 70zM209 918q0 44 27 72t71 28q43 0 72 -28t29 -72q0 -43 -28 -71t-73 -28q-41 0 -69.5 28.5t-28.5 70.5z" />
<glyph unicode=";" horiz-adv-x="638" d="M113 -250q138 183 180 402l123 -35q-38 -250 -234 -406zM227 918q0 44 27.5 72t71.5 28q43 0 71.5 -28t28.5 -72q0 -43 -27.5 -71t-72.5 -28q-42 0 -70.5 28.5t-28.5 70.5z" />
<glyph unicode="&#x3c;" d="M260 662v79l647 404l62 -96l-566 -347l566 -346l-64 -96z" />
<glyph unicode="=" d="M236 467v108h759v-108h-759zM236 831v109h759v-109h-759z" />
<glyph unicode="&#x3e;" d="M266 356l565 346l-565 347l62 96l647 -404v-79l-645 -402z" />
<glyph unicode="?" horiz-adv-x="1005" d="M102 1360q173 180 412 180q168 0 272.5 -95t104.5 -235q0 -72 -22.5 -132.5t-59 -103.5t-80.5 -82.5t-88 -77.5t-80.5 -79t-59 -98t-22.5 -125v-127h-106q-17 80 -17 150q0 73 22 134.5t57.5 105.5t78.5 83.5t86 76t78.5 74.5t57.5 87.5t22 107.5q0 99 -67 161t-183 62 q-183 0 -303 -108l16 -191h-86q-33 136 -33 232zM334 78q0 44 27 72t71 28q43 0 71.5 -28t28.5 -72q0 -43 -27.5 -70.5t-72.5 -27.5q-42 0 -70 28t-28 70z" />
<glyph unicode="@" horiz-adv-x="2150" d="M158 434q0 202 71.5 386t197.5 322t312.5 220t403.5 82q186 0 345.5 -61t270 -167.5t172.5 -254t62 -316.5q0 -189 -58.5 -343t-160.5 -240.5t-226 -86.5q-99 0 -159 50t-66 137q-130 -162 -328 -162q-135 0 -221 78.5t-86 204.5q0 133 94.5 214t249.5 81q118 0 273 -43 v88q0 239 -250 239q-91 0 -201 -20l8 -111h-67q-29 114 -29 189q150 47 303 47q168 0 263 -83t95 -255v-412q0 -151 132 -151q127 0 217 163.5t90 413.5q0 202 -91.5 359.5t-255.5 244t-374 86.5q-158 0 -296.5 -49.5t-240.5 -135.5t-175.5 -199.5t-110.5 -244t-37 -266.5 q0 -190 59 -341.5t163.5 -248t243 -147.5t302.5 -51q274 0 526 127l39 -101q-255 -137 -567 -137q-189 0 -351 59.5t-283 170.5t-190 282t-69 383zM813 285q0 -85 51 -133t146 -48q166 0 295 156v178q-143 41 -269 41q-107 0 -165 -51.5t-58 -142.5z" />
<glyph unicode="A" horiz-adv-x="1349" d="M-55 31l10 57q27 11 62 11q17 0 36 -3l10 -2l515 1262l170 84l542 -1346l6 2q19 3 37 3q35 0 62 -11l10 -57l-303 -54l-15 60q30 23 76 35l-139 344h-700l-138 -344q46 -12 76 -35l-14 -60zM365 526h616l-305 789zM479 1372v47l266 21l-167 -84h-15q-46 0 -84 16z" />
<glyph unicode="B" horiz-adv-x="1312" d="M139 20v56q40 20 88 20h13v1245q-66 0 -101 21v53q259 35 490 35q255 0 396.5 -104.5t141.5 -276.5q0 -132 -77.5 -210t-204.5 -105q155 -33 241 -121.5t86 -231.5q0 -196 -153.5 -306.5t-444.5 -110.5q-259 0 -475 36zM369 98q80 -4 245 -4q226 0 344.5 76.5 t118.5 226.5q0 140 -110 216.5t-316 76.5h-282v-592zM369 793h272q178 0 285.5 69.5t107.5 202.5q0 134 -106 206t-314 72q-128 0 -245 -6v-544z" />
<glyph unicode="C" horiz-adv-x="1234" d="M115 715q0 216 80.5 384.5t231.5 263.5t349 95q190 0 377 -88l-2 -4q0 -114 -33 -250h-84l17 182q-133 45 -275 45q-236 0 -381 -169t-145 -455q0 -285 137 -457t367 -172q163 0 290 53q2 79 21 174h74l6 -233l2 -4q-184 -105 -393 -105q-287 0 -463 201.5t-176 538.5z " />
<glyph unicode="D" horiz-adv-x="1435" d="M139 20v58q36 18 86 18h15v1245q-65 0 -101 19v55q208 35 445 35q149 0 271.5 -38t208.5 -104.5t145 -159t86.5 -200.5t27.5 -229q0 -125 -26 -232.5t-84 -201t-144.5 -160t-215 -104t-288.5 -37.5q-237 0 -426 36zM369 98q68 -4 209 -4q158 0 276.5 46t190.5 130.5 t107.5 196.5t35.5 252q0 134 -36 245t-107.5 195.5t-187 132t-265.5 47.5q-151 0 -223 -4v-1237z" />
<glyph unicode="E" horiz-adv-x="1179" d="M139 0v59q41 25 99 25v1268q-71 7 -99 26v60l101 -4h835q0 -120 -33 -263h-84l13 152h-604v-518h514l82 4l-15 -113h-581v-585h610q6 87 18 147h74l6 -258h-936z" />
<glyph unicode="F" horiz-adv-x="1118" d="M139 0v55q44 27 99 27v1270q-71 7 -99 26v60l101 -4h827q0 -120 -33 -263h-84l13 152h-596v-535h485l84 5l-14 -113h-555v-598h2q56 0 100 -27v-55h-330z" />
<glyph unicode="G" horiz-adv-x="1404" d="M115 692q0 346 176.5 556t466.5 210q217 0 411 -112q0 -98 -32 -230h-84l14 168q-145 59 -305 59q-226 0 -369 -171t-143 -478q0 -283 125 -443.5t338 -160.5q221 0 399 178v383l-342 -8l12 113h459l100 6v-62q-34 -21 -98 -24v-592q57 0 98 -25v-59h-206l-15 164 q-197 -189 -422 -189q-262 0 -422.5 195t-160.5 522z" />
<glyph unicode="H" horiz-adv-x="1517" d="M139 0v55q44 27 99 27v1276q-70 6 -99 24v56l330 -8v-54q-36 -22 -100 -22h-2v-559h780v559q-62 0 -98 22v54l329 8v-56q-29 -17 -100 -24v-1276q56 0 100 -27v-55h-329v55q44 27 98 27v600h-780v-600h2q56 0 100 -27v-55h-330z" />
<glyph unicode="I" horiz-adv-x="606" d="M139 0v55q44 27 99 27v1272q-63 0 -99 22v54l330 8v-56q-29 -17 -100 -24h-2v-1276h2q56 0 100 -27v-55h-330z" />
<glyph unicode="J" horiz-adv-x="907" d="M43 86l6 195h70q17 -66 20 -146q96 -47 197 -47q108 0 176 79t68 241v946q-63 0 -99 22v54l330 8v-56q-29 -17 -100 -24v-963q0 -205 -104.5 -312.5t-266.5 -107.5q-173 0 -297 111z" />
<glyph unicode="K" horiz-adv-x="1255" d="M139 0v55q44 27 99 27v1276q-70 6 -99 24v56l330 -8v-54q-36 -22 -100 -22h-2v-602l591 602q-42 11 -73 35l10 53l299 -53l-8 -54q-27 -11 -62 -11q-17 0 -37 3l-595 -608l686 -623q18 3 34 3q33 0 60 -11l10 -57l-303 -54l-14 60q30 23 65 33l-663 600v-588h2 q56 0 100 -27v-55h-330z" />
<glyph unicode="L" horiz-adv-x="1075" d="M139 1382v56l330 -8v-54q-36 -22 -100 -22h-2v-1235h606q6 81 18 139h74l6 -258h-833v1358q-70 6 -99 24z" />
<glyph unicode="M" horiz-adv-x="1775" d="M139 0v55q44 27 101 27v1261q-64 3 -101 25v59l279 13l469 -1016l469 1016l282 -13v-59q-37 -22 -100 -25v-1261q56 0 100 -27v-55h-329v55q44 27 100 27v1200l-451 -973l-137 -16l-459 991v-1202h7q56 0 100 -27v-55h-330z" />
<glyph unicode="N" horiz-adv-x="1519" d="M139 0v55q44 27 101 27h2v1261q-64 3 -101 25v59l101 5l172 6l745 -1286v1202h-6q-64 0 -100 22v54l329 8v-56q-29 -17 -100 -24v-1348l-170 -20l-747 1284v-1192h4q56 0 100 -27v-55h-330z" />
<glyph unicode="O" horiz-adv-x="1558" d="M115 719q0 213 78 379.5t230 263t355 96.5q122 0 228.5 -37.5t186 -105.5t136.5 -160t86 -203.5t29 -234.5q0 -156 -46 -291.5t-130.5 -235.5t-210.5 -157.5t-279 -57.5q-122 0 -228 38t-185 106t-136 160.5t-85.5 204.5t-28.5 235zM248 719q0 -127 36.5 -241t103 -201 t167.5 -138t223 -51q165 0 286 80.5t183 222t62 326.5q0 170 -62.5 312t-185 229.5t-283.5 87.5t-282 -80t-184.5 -222t-63.5 -325z" />
<glyph unicode="P" horiz-adv-x="1220" d="M139 0v55q44 27 101 27v1259q-66 0 -101 21v53q268 35 463 35q274 0 420.5 -120t146.5 -324q0 -225 -157.5 -346t-438.5 -121q-97 0 -204 14v-471q56 0 100 -27v-55h-330zM369 664q103 -15 219 -15q217 0 333.5 90t116.5 258q0 162 -112 252t-324 90q-107 0 -233 -6v-669 z" />
<glyph unicode="Q" horiz-adv-x="1562" d="M115 719q0 213 78 379.5t228.5 263t352.5 96.5q152 0 278 -58t210 -158.5t130 -235.5t46 -289q0 -200 -78.5 -366.5t-220.5 -264.5q37 -67 77.5 -93t106.5 -26l55 2q2 68 21 144h74l6 -199q-72 -37 -162 -37q-92 0 -154 33.5t-110 124.5q-126 -60 -279 -60 q-121 0 -226.5 38t-184 106t-135 160.5t-85 204.5t-28.5 235zM248 719q0 -129 36.5 -243.5t102.5 -201t166 -136.5t221 -50q129 0 227 43l-114 244l106 41l94 -234q104 76 158.5 213t54.5 322q0 171 -62 312.5t-183.5 229t-280.5 87.5q-240 0 -383 -174t-143 -453z" />
<glyph unicode="R" horiz-adv-x="1320" d="M139 1362v53q237 35 463 35q267 0 407 -108.5t140 -288.5q0 -161 -97 -252t-259 -121q95 -19 153 -77t127 -204l144 -303q18 3 34 3q33 0 60 -11l10 -57l-303 -54l-14 60q29 22 75 35l-141 303q-65 136 -147 200t-213 64h-209v-557h2q56 0 100 -27v-55h-330v55 q44 27 99 27v1259q-66 0 -101 21zM369 750h239q192 0 300 75.5t108 225.5q0 136 -103.5 212t-298.5 76q-138 0 -245 -8v-581z" />
<glyph unicode="S" horiz-adv-x="1153" d="M80 123l6 229h78q16 -67 22 -174q83 -42 169.5 -65t205.5 -23q165 0 267 73t102 204q0 80 -30 132.5t-113.5 101t-241.5 99.5q-150 49 -239 101.5t-134 126t-45 176.5q0 158 123 256t330 98q233 0 452 -121q0 -94 -33 -233h-84l17 168q-165 74 -352 74 q-147 0 -234.5 -63.5t-87.5 -174.5q0 -106 74 -169.5t276 -129.5q257 -84 356 -180t99 -256q0 -185 -139 -291.5t-367 -106.5q-151 0 -264.5 37.5t-212.5 110.5z" />
<glyph unicode="T" horiz-adv-x="1144" d="M12 1430l1121 8h2l-2 -15q-3 -123 -33 -247h-84l12 153l-393 -4v-1243q56 0 100 -27v-55h-329v55q44 27 98 27v1243l-387 -4l12 -154h-84q-33 143 -33 263z" />
<glyph unicode="U" horiz-adv-x="1423" d="M98 1382v56l330 -8v-54q-36 -22 -100 -22h-2v-842q0 -203 102 -312.5t285 -109.5q181 0 284 109.5t103 312.5v842h-2q-65 0 -101 22v54l330 8v-56q-29 -17 -100 -24v-850q0 -253 -139.5 -393t-374.5 -140q-237 0 -376.5 139t-139.5 394v850q-70 6 -99 24z" />
<glyph unicode="V" horiz-adv-x="1275" d="M-53 1401l299 53l10 -53q-30 -23 -78 -35l461 -1225l463 1223q-47 11 -80 37l10 53l299 -53l-8 -53q-27 -12 -61 -12q-16 0 -33 3l-518 -1339h-148l-518 1337q-14 -2 -26 -2q-36 0 -64 13z" />
<glyph unicode="W" horiz-adv-x="1910" d="M-27 1401l299 53l11 -53q-30 -23 -78 -35l338 -1227l329 1147l166 19l338 -1166l336 1225q-49 11 -82 37l10 53l299 -53l-8 -53q-27 -12 -60 -12q-16 0 -34 3l-383 -1339h-162l-336 1178l-335 -1178h-162l-385 1337q-14 -2 -27 -2q-37 0 -65 13z" />
<glyph unicode="X" horiz-adv-x="1265" d="M-14 31l10 57q27 11 60 11q17 0 36 -3l461 631l-434 610q-13 -2 -25 -2q-35 0 -63 13l-8 53l299 53l10 -53q-33 -26 -80 -37l379 -551l383 551q-50 15 -78 37l10 53l299 -53l-8 -53q-29 -12 -63 -12q-16 0 -33 3l-434 -604l462 -639q19 3 37 3q35 0 62 -11l10 -57 l-303 -54l-14 60q30 23 73 35l-407 573l-402 -573q44 -11 78 -35l-14 -60z" />
<glyph unicode="Y" horiz-adv-x="1212" d="M-53 1401l299 53l10 -53q-32 -25 -82 -37l430 -709l432 709q-47 11 -80 37l11 53l299 -53l-9 -53q-29 -12 -65 -12q-17 0 -35 3l-6 2l-485 -794v-465h2q56 0 100 -27v-55h-330v55q44 27 97 27v465l-486 792q-17 -3 -33 -3q-34 0 -61 12z" />
<glyph unicode="Z" horiz-adv-x="1130" d="M70 100l829 1223h-666l13 -158h-88q-33 142 -33 269h817l117 4v-101l-836 -1222h750q6 86 18 143h74l6 -258h-979z" />
<glyph unicode="[" horiz-adv-x="600" d="M180 -205v1721h320v-103h-209v-1515h209v-103h-320z" />
<glyph unicode="\" horiz-adv-x="921" d="M119 1542l102 35l582 -1681l-103 -35z" />
<glyph unicode="]" horiz-adv-x="600" d="M100 -102h211v1515h-211v103h320v-1721h-320v103z" />
<glyph unicode="^" d="M215 1171l371 345h57l369 -345l-78 -86l-320 316l-321 -316z" />
<glyph unicode="_" d="M0 -133h1229v-84h-1229v84z" />
<glyph unicode="`" horiz-adv-x="561" d="M61 1430l58 114l381 -233l-49 -84z" />
<glyph unicode="a" horiz-adv-x="1081" d="M74 291q0 158 103 249t290 91q31 0 63.5 -2.5t54.5 -5t56.5 -9t47 -9t50.5 -11.5t43 -10v118q0 139 -74 209t-214 70q-116 0 -232 -25l10 -139h-77q-33 122 -33 217q177 56 348 56q189 0 292 -96.5t103 -293.5v-471q-1 -79 33 -111q32 -30 89 -30h7l-28 -96h-6 q-176 0 -199 170q-154 -191 -385 -191q-156 0 -249 88.5t-93 231.5zM201 297q0 -98 60 -156.5t169 -58.5q111 0 196 47.5t156 138.5v215q-167 47 -313 47q-130 0 -199 -62.5t-69 -170.5z" />
<glyph unicode="b" horiz-adv-x="1226" d="M109 0v55q36 22 96 25v1354h-14q-44 0 -82 16v49l219 29v-596q138 158 336 158q95 0 180.5 -38t150 -107t102.5 -173t38 -229q0 -163 -67.5 -294t-178.5 -202.5t-242 -71.5q-185 0 -328 136l-8 -111h-202zM328 205q125 -119 295 -119t277.5 125.5t107.5 329.5t-103 322 t-262 118q-94 0 -177.5 -45.5t-137.5 -112.5v-618z" />
<glyph unicode="c" horiz-adv-x="999" d="M94 532q0 154 63 280.5t183.5 202t275.5 75.5q163 0 304 -86l-2 -5q0 -94 -33 -213h-78l12 158q-90 35 -196 35q-176 0 -289 -121.5t-113 -322.5q0 -205 107 -327t282 -122q113 0 201 37q6 89 23 147h69l6 -202l2 -5q-147 -88 -309 -88q-226 0 -367 154t-141 403z" />
<glyph unicode="d" horiz-adv-x="1220" d="M94 528q0 243 139 402.5t336 159.5q111 0 195.5 -47t136.5 -115v506h-14q-44 0 -82 16v49l219 29v-1299q0 -79 33 -111q31 -30 87 -30h7l-27 -96h-6q-174 0 -200 164q-139 -181 -349 -181q-95 0 -181 39t-151.5 109t-104 175t-38.5 230zM219 532q0 -204 102 -325 t263 -121q96 0 177 41.5t138 114.5v573q-52 72 -133 119t-186 47q-151 0 -256 -126.5t-105 -322.5z" />
<glyph unicode="e" horiz-adv-x="1089" d="M94 524q0 111 31.5 212t91 180.5t153 126.5t208.5 47q82 0 152.5 -24.5t120.5 -66t86 -96.5t53.5 -117t17.5 -127l-4 -63l-773 -203q31 -151 124.5 -229t244.5 -78q114 0 240 35q6 83 22 137h70l6 -203q-164 -80 -338 -80q-236 0 -371 149t-135 400zM223 502l666 174 q-11 135 -92.5 220t-216.5 85q-72 0 -131 -22.5t-97.5 -61.5t-66.5 -87t-41.5 -103t-18.5 -106q-3 -32 -3 -63q0 -18 1 -36z" />
<glyph unicode="f" horiz-adv-x="706" d="M55 895v72q65 23 168 30v209q0 150 91.5 242t238.5 92q138 0 264 -80h4l17 -215h-78q-23 85 -29 154q-86 33 -172 33q-98 0 -155.5 -59.5t-57.5 -162.5v-209h348l-49 -106h-299v-815q60 -3 96 -25v-55h-315v55q36 22 96 25v815h-168z" />
<glyph unicode="g" horiz-adv-x="1212" d="M94 537q0 121 40 226t106.5 175.5t155.5 111t186 40.5q181 0 315 -127l8 98l207 8v-59q-38 -23 -94 -23v-981q0 -238 -127.5 -359.5t-339.5 -121.5q-187 0 -334 88l6 176h68q14 -59 20 -119q99 -37 240 -37q161 0 253.5 93t92.5 280v152q-60 -72 -138.5 -115t-195.5 -43 q-94 0 -179 37t-149.5 104.5t-102.5 170t-38 225.5zM219 543q0 -199 100.5 -315.5t255.5 -116.5q183 0 318 155v594q-144 121 -305 121q-71 0 -136.5 -29.5t-117.5 -83.5t-83.5 -138.5t-31.5 -186.5z" />
<glyph unicode="h" horiz-adv-x="1253" d="M109 0v55q36 22 96 25v1354h-14q-44 0 -82 16v49l219 29v-684q145 246 387 246q169 0 262.5 -106t93.5 -286v-618q60 -3 96 -25v-55h-315v55q36 22 96 25v602q0 141 -64 220t-182 79q-109 0 -204.5 -74t-169.5 -202v-625q60 -3 96 -25v-55h-315z" />
<glyph unicode="i" horiz-adv-x="550" d="M119 0v55q36 22 96 25v907q-58 0 -96 23v59l219 -8v-981q60 -3 96 -25v-55h-315zM162 1374q0 43 26.5 69.5t69.5 26.5t69.5 -26.5t26.5 -69.5t-26 -69.5t-70 -26.5q-42 0 -69 27t-27 69z" />
<glyph unicode="j" horiz-adv-x="585" d="M-115 -428l6 178h66q14 -53 20 -106q53 -11 97 -11q192 0 192 238v1108q-73 0 -129 29v61l252 -8v-1202q0 -168 -84.5 -251t-220.5 -83q-113 0 -199 47zM215 1374q0 43 26.5 69.5t69.5 26.5t70 -26.5t27 -69.5t-26.5 -69.5t-70.5 -26.5q-42 0 -69 27t-27 69z" />
<glyph unicode="k" horiz-adv-x="1048" d="M109 1450v49l219 29v-918l434 389q-34 11 -66 31l13 55l278 -47l-8 -53q-27 -10 -61 -10q-15 0 -31 2l-443 -395l506 -488q20 3 39 3q33 0 62 -9l8 -55l-299 -56l-10 56q27 24 71 35l-493 477v-465h2q60 -3 96 -25v-55h-315v55q36 22 94 25v1354h-14q-44 0 -82 16z" />
<glyph unicode="l" horiz-adv-x="712" d="M88 1450v49l219 29v-1219q0 -116 52.5 -169.5t144.5 -53.5q52 0 92 6q6 73 20 123h66l8 -199q-87 -41 -196 -41q-63 0 -116.5 17.5t-98 53t-70 97.5t-25.5 144v1147h-14q-44 0 -82 16z" />
<glyph unicode="m" horiz-adv-x="1888" d="M119 0v55q36 22 96 25v907q-58 0 -96 23v59l207 -8l8 -223q129 252 358 252q123 0 206 -70t108 -191q68 127 155.5 194t214.5 67q157 0 242.5 -106t85.5 -286v-618q60 -3 96 -25v-55h-315v55q36 22 96 25v606q0 141 -57 218t-158 77q-108 0 -189.5 -68.5t-154.5 -203.5 v-629q53 -6 78 -25v-55h-283v55q31 22 82 25v604q0 144 -58.5 220.5t-158.5 76.5q-105 0 -187.5 -68t-156.5 -202v-631q60 -3 96 -25v-55h-315z" />
<glyph unicode="n" horiz-adv-x="1263" d="M119 0v55q36 22 96 25v907q-58 0 -96 23v59l207 -8l8 -225q149 254 393 254q169 0 261.5 -107t92.5 -289v-614q61 -3 97 -25v-55h-316v55q36 22 96 25v602q0 142 -63.5 220.5t-181.5 78.5q-110 0 -205.5 -73.5t-169.5 -202.5v-625q60 -3 96 -25v-55h-315z" />
<glyph unicode="o" d="M94 532q0 248 147.5 403t372.5 155q228 0 374.5 -157.5t146.5 -400.5q0 -248 -147 -402.5t-374 -154.5q-228 0 -374 157t-146 400zM219 535q0 -196 109 -322.5t284 -126.5q180 0 288 123t108 321q0 195 -110 322t-286 127q-177 0 -285 -123t-108 -321z" />
<glyph unicode="p" horiz-adv-x="1224" d="M72 969l26 96q182 -6 207 -160q50 75 141.5 130t217.5 55q93 0 177.5 -38t148.5 -106.5t102 -173t38 -229.5q0 -123 -37 -230t-99.5 -180.5t-148 -115.5t-179.5 -42q-197 0 -342 152v-498h2q62 -3 96 -24v-56h-316v56q35 21 95 24v1190q0 79 -33 113t-96 37zM324 248 q138 -162 325 -162q156 0 255.5 127t99.5 328t-103 320.5t-256 119.5q-99 0 -182.5 -48.5t-138.5 -125.5v-559z" />
<glyph unicode="q" horiz-adv-x="1226" d="M94 528q0 164 68.5 294t180 199t241.5 69q185 0 321 -125l8 94l-2 2l207 8v-59q-38 -23 -94 -23v-1438h-219v56q35 21 96 24v498q-132 -152 -323 -152q-100 0 -188 39t-154 109t-104 175t-38 230zM219 532q0 -206 102.5 -326t266.5 -120q95 0 175 43t136 113v624 q-141 115 -307 115q-154 0 -263.5 -123t-109.5 -326z" />
<glyph unicode="r" horiz-adv-x="854" d="M84 1006v63l131 -4l111 -4l8 -244q16 55 45 102t72.5 86.5t107 62t141.5 22.5q88 0 140 -19q0 -141 -35 -254h-78l12 160q-32 4 -57 4q-145 0 -244.5 -123t-99.5 -340v-438q60 -3 96 -25v-55h-315v55q36 22 96 25v899l-2 -2q-73 0 -129 29z" />
<glyph unicode="s" horiz-adv-x="954" d="M90 90l6 207h70q15 -53 22 -147q131 -64 283 -64q132 0 204.5 50.5t72.5 142.5q0 80 -61.5 129t-225.5 98q-185 55 -265.5 121t-80.5 188t105 198.5t272 76.5q191 0 358 -95l-2 -4q0 -94 -33 -213h-78l13 158q-118 49 -256 49q-118 0 -186 -45.5t-68 -122.5 q0 -76 60 -120.5t222 -92.5q188 -57 270 -129t82 -188q0 -147 -109 -229.5t-296 -82.5q-208 0 -379 115z" />
<glyph unicode="t" horiz-adv-x="761" d="M18 920v77q84 23 191 29l24 336h97v-336h323l-51 -106h-272v-619q0 -109 52 -162t140 -53q67 0 129 16q5 53 21 117h65l8 -182q-111 -62 -227 -62q-136 0 -223.5 80t-87.5 238v627h-189z" />
<glyph unicode="u" horiz-adv-x="1206" d="M78 1010v59l219 -8v-699q0 -136 67 -206t185 -70q185 0 338 160v741q-58 0 -96 23v59l219 -8v-815q0 -90 34 -125q32 -33 87 -33h6l-27 -96h-6q-173 0 -199 164q-70 -85 -164.5 -133t-205.5 -48q-72 0 -135.5 22.5t-114.5 67t-81 119t-30 170.5v633q-58 0 -96 23z" />
<glyph unicode="v" horiz-adv-x="1095" d="M-27 1038l279 47l12 -55q-31 -21 -76 -33l359 -870l358 870q-42 12 -74 33l13 55l278 -47l-8 -53q-30 -10 -66 -10q-15 0 -32 2l-410 -977h-127l-407 977q-15 -2 -29 -2q-33 0 -61 10z" />
<glyph unicode="w" horiz-adv-x="1638" d="M-2 1038l278 47l13 -55q-35 -21 -78 -35l283 -858l256 858l137 15l258 -873l282 860q-39 10 -77 33l12 55l278 -47l-8 -53q-29 -10 -64 -10q-15 0 -30 2l-328 -977h-133l-260 883l-262 -883h-133l-328 977q-14 -2 -28 -2q-32 0 -60 10z" />
<glyph unicode="x" horiz-adv-x="1093" d="M6 31l10 57q27 11 63 11q18 0 38 -3l352 451l-334 428q-49 0 -82 10l-8 53l279 47l12 -55q-32 -21 -74 -33l283 -383l282 383q-39 11 -71 33l12 55l279 -47l-9 -53q-28 -10 -61 -10q-14 0 -29 2l-334 -426l365 -455q18 3 35 3q34 0 61 -11l10 -57l-303 -54l-14 60 q37 26 82 37l-307 403l-299 -403q50 -16 80 -37l-15 -60z" />
<glyph unicode="y" horiz-adv-x="1083" d="M-27 1038l279 47l12 -55q-26 -18 -71 -33l387 -839l323 839q-42 12 -74 33l13 55l278 -47l-8 -53q-28 -10 -63 -10q-15 0 -31 2l-412 -1063q-84 -216 -170 -302.5t-219 -86.5q-97 0 -164 41l6 176h64q14 -53 20 -109q40 -4 72 -4q94 0 152 65t125 232l61 154h-61 l-420 897q-15 -2 -29 -2q-33 0 -61 10z" />
<glyph unicode="z" horiz-adv-x="974" d="M80 100l649 863h-518l10 -138h-82q-33 125 -33 240h21h653l103 4v-98l-654 -865h568q2 70 18 150h72l8 -256h-795z" />
<glyph unicode="{" horiz-adv-x="749" d="M111 612v86q82 18 121.5 52.5t57 109t17.5 219.5q0 235 90 344t283 131v-79q-136 -30 -194 -115.5t-58 -276.5q0 -120 -10.5 -195t-39 -122t-66 -70t-103.5 -41q66 -18 103.5 -41t66 -70t39 -122t10.5 -195q0 -130 27 -210t80.5 -121t144.5 -60v-82q-193 22 -283 131.5 t-90 345.5q0 145 -17.5 219.5t-57 109t-121.5 52.5z" />
<glyph unicode="|" horiz-adv-x="686" d="M289 -205v1782h108v-1782h-108z" />
<glyph unicode="}" horiz-adv-x="749" d="M70 -164q91 19 145 60t81.5 121t27.5 210q0 120 10.5 194.5t39 121.5t66.5 70.5t103 41.5q-65 18 -103 41.5t-66.5 70.5t-39 121.5t-10.5 194.5q0 130 -27.5 210.5t-81.5 121.5t-145 60v81q193 -22 282.5 -131.5t89.5 -345.5q0 -144 18 -219t58 -109.5t121 -52.5v-86 q-81 -18 -121 -52.5t-58 -109.5t-18 -219q0 -236 -89.5 -345.5t-282.5 -131.5v82z" />
<glyph unicode="~" d="M172 651q132 123 258 123q49 0 100 -18.5t87 -41t82.5 -41t86.5 -18.5q65 0 116 28t106 79l51 -90q-138 -127 -266 -127q-47 0 -98 18.5t-88.5 41t-85 41t-89.5 18.5q-100 0 -211 -99z" />
<glyph unicode="&#xa1;" horiz-adv-x="598" d="M201 918q0 44 27 72t71 28q43 0 71.5 -28t28.5 -72q0 -43 -27.5 -71t-72.5 -28q-41 0 -69.5 28.5t-28.5 70.5zM227 135l17 486h104l17 -486v-586h-138v586z" />
<glyph unicode="&#xa2;" horiz-adv-x="995" d="M94 586q0 221 127 377.5t338 177.5l-12 223h121l-13 -223q136 -5 265 -84l-2 -4q0 -94 -33 -213h-78l12 157q-90 35 -196 35q-176 0 -289 -121.5t-113 -322.5q0 -205 107 -327t282 -122q113 0 201 37q7 91 23 148h69l6 -203l2 -4q-118 -73 -256 -86l13 -226h-121l12 226 q-210 15 -337.5 167t-127.5 388z" />
<glyph unicode="&#xa3;" horiz-adv-x="1009" d="M111 670v104h165v275q0 180 96 282.5t259 102.5q92 0 163 -25t144 -70q0 -84 -33 -223h-82l15 168q-95 45 -199 45q-111 0 -177.5 -75.5t-66.5 -221.5v-258h363l-19 -104h-346q-3 -214 -35.5 -328t-111.5 -227h616q6 78 19 143h73l7 -244l2 -14h-850v98q65 92 96.5 161 t47.5 165t17 246h-163z" />
<glyph unicode="&#xa4;" d="M211 276l125 144q-100 111 -100 272q0 165 100 273l-125 143l86 74l123 -156q79 49 194 49q110 0 197 -49l123 156l86 -74l-127 -145q100 -105 100 -271t-100 -274l127 -142l-86 -73l-123 155q-82 -49 -197 -49q-108 0 -194 47l-123 -153zM350 694q0 -122 73 -203 t191 -81q125 0 195 75t70 205q0 124 -72.5 204.5t-192.5 80.5q-124 0 -194 -75t-70 -206z" />
<glyph unicode="&#xa5;" horiz-adv-x="1161" d="M-53 1376l299 54l10 -54q-32 -25 -82 -37l408 -692l405 692q-50 12 -82 37l10 54l299 -54l-8 -53q-41 -17 -100 -8h-4l-402 -682h291v-101h-346v-165h346v-101h-346v-184q56 0 100 -27v-55h-329v55q44 27 100 27v184h-348v101h348v165h-348v101h301l-414 682 q-59 -9 -100 8z" />
<glyph unicode="&#xa6;" horiz-adv-x="686" d="M289 -205v748h108v-748h-108zM289 848v729h108v-729h-108z" />
<glyph unicode="&#xa7;" horiz-adv-x="987" d="M139 690q0 101 68 174t192 115q-121 57 -171 111.5t-50 144.5q0 106 94 177t236 71q173 0 321 -88q0 -99 -32 -217h-78l12 170q-100 41 -217 41q-97 0 -158 -43.5t-61 -108.5q0 -67 52.5 -111t211.5 -112q158 -67 224.5 -140t66.5 -174q0 -103 -71 -173.5t-191 -108.5 q128 -52 183.5 -112.5t55.5 -151.5q0 -120 -100.5 -186t-261.5 -66q-172 0 -313 88l6 207h69q20 -75 23 -156q95 -39 221 -39q105 0 170.5 39t65.5 113q0 65 -55 111.5t-206 109.5q-169 70 -238 139t-69 176zM256 692q0 -75 54 -126t179 -99q115 38 177.5 93.5t62.5 137.5 q0 75 -51 130.5t-174 103.5q-248 -79 -248 -240z" />
<glyph unicode="&#xa8;" horiz-adv-x="669" d="M61 1366q0 40 25.5 65t65.5 25q37 0 62.5 -25.5t25.5 -64.5q0 -38 -25 -63t-63 -25q-39 0 -65 25t-26 63zM430 1366q0 39 25.5 64.5t64.5 25.5q38 0 63 -26t25 -64q0 -39 -24.5 -63.5t-63.5 -24.5q-38 0 -64 25t-26 63z" />
<glyph unicode="&#xa9;" horiz-adv-x="1843" d="M205 719q0 216 86 383t249.5 261.5t381.5 94.5q217 0 380.5 -95.5t249.5 -262.5t86 -381t-86 -382t-249.5 -265t-380.5 -97q-219 0 -382.5 96t-249 264t-85.5 384zM309 719q0 -189 74 -337t214 -232t325 -84q283 0 447.5 179t164.5 474q0 141 -42.5 260.5t-120 205.5 t-193.5 134.5t-256 48.5q-278 0 -445.5 -179t-167.5 -470zM539 719q0 206 111.5 335.5t297.5 129.5q129 0 256 -60q0 -73 -30 -196h-76l10 131q-75 20 -158 20q-130 0 -211.5 -97t-81.5 -259t79.5 -259t215.5 -97q80 0 154 22q6 73 22 129h64l6 -188q-126 -68 -252 -68 q-185 0 -296 124t-111 333z" />
<glyph unicode="&#xaa;" d="M264 885q0 114 76.5 182t206.5 68q19 0 38 -1t38 -3.5t32.5 -4.5t33 -6.5t28 -6.5t29 -7t24.5 -6v67q0 100 -49 144.5t-158 44.5q-90 0 -149 -10l10 -105h-66q-26 79 -26 172h2q129 35 241 35q150 0 227 -66t77 -215v-305q0 -106 102 -106l-27 -86q-142 0 -170 116 q-109 -129 -272 -129q-112 0 -180 63.5t-68 164.5zM285 297v113h667v-113h-667zM375 893q0 -66 43 -103.5t117 -37.5q132 0 235 114v152q-112 33 -211 33q-90 0 -137 -42.5t-47 -115.5z" />
<glyph unicode="&#xab;" horiz-adv-x="1087" d="M152 676v59l325 404l84 -70l-301 -364l301 -365l-84 -70zM535 676v59l325 404l84 -70l-301 -364l301 -365l-84 -70z" />
<glyph unicode="&#xac;" d="M160 653v113h909v-477h-123v364h-786z" />
<glyph unicode="&#xad;" d="M276 647v113h674v-113h-674z" />
<glyph unicode="&#xae;" horiz-adv-x="1843" d="M213 719q0 216 86 383t249.5 261.5t381.5 94.5q163 0 298 -55.5t226.5 -153.5t142 -234t50.5 -296q0 -214 -86 -382t-250 -265t-381 -97q-219 0 -382.5 96t-249 264t-85.5 384zM317 719q0 -189 74 -337t214 -232t325 -84q283 0 447.5 179t164.5 474q0 141 -42.5 260.5 t-120 205.5t-193.5 134.5t-256 48.5q-278 0 -445.5 -179t-167.5 -470zM598 289v53q21 15 68 18v732q-51 4 -68 14v43q171 25 297 25q162 0 253 -68t91 -184q0 -89 -54 -143t-138 -70q54 -17 87 -55t70 -126l68 -159q29 2 59 -9l10 -49l-221 -39l-12 52q22 16 53 24l-65 154 q-35 90 -86 129t-131 39h-103v-310q35 -3 62 -18v-53h-240zM776 768h131q102 0 159.5 39t57.5 113q0 75 -56.5 115t-160.5 40q-41 0 -131 -4v-303z" />
<glyph unicode="&#xaf;" horiz-adv-x="679" d="M61 1307v100h557v-100h-557z" />
<glyph unicode="&#xb0;" horiz-adv-x="921" d="M121 1227q0 120 81 198t201 78q121 0 202 -77t81 -199q0 -120 -81.5 -198.5t-201.5 -78.5t-201 78t-81 199zM233 1227q0 -80 47 -129t123 -49t124 48.5t48 129.5q0 79 -48.5 128.5t-123.5 49.5q-77 0 -123.5 -48.5t-46.5 -129.5z" />
<glyph unicode="&#xb1;" d="M229 823v107h326v317h119v-317h323v-107h-323v-317h-119v317h-326zM233 188v113h762v-113h-762z" />
<glyph unicode="&#xb2;" horiz-adv-x="921" d="M170 621q0 70 25.5 130.5t66 103.5t89.5 80.5t97.5 70t89 63t66 67t25.5 76.5q0 69 -45.5 108.5t-124.5 39.5q-101 0 -185 -49l13 -133h-80q-23 100 -23 172q127 98 283 98q125 0 199.5 -63.5t74.5 -165.5q0 -50 -23.5 -94.5t-61.5 -78.5t-84 -66t-93 -65.5t-87 -69 t-67 -83.5t-32 -103h364q5 52 17 115h69l7 -209h-576q-4 36 -4 56z" />
<glyph unicode="&#xb3;" horiz-adv-x="921" d="M170 1376q130 72 266 72q130 0 208.5 -66.5t78.5 -167.5q0 -145 -145 -186q176 -48 176 -215q0 -111 -86.5 -186.5t-243.5 -75.5q-148 0 -252 74l6 170h72q9 -47 16 -129q77 -23 158 -23q101 0 159 44t58 126q0 78 -61 121t-183 43h-98l14 86h76q223 0 223 151 q0 67 -50 105.5t-134 38.5q-92 0 -166 -27l12 -119h-79q-25 98 -25 164z" />
<glyph unicode="&#xb4;" horiz-adv-x="561" d="M61 1311l379 233l60 -114l-389 -203z" />
<glyph unicode="&#xb6;" horiz-adv-x="1353" d="M53 1200q0 182 126 288.5t341 106.5q108 0 311 -18v-1708h-223v59q41 25 99 25v883q-92 -21 -207 -21q-199 0 -323 101t-124 284zM180 1202q0 -135 88.5 -207.5t241.5 -72.5q116 0 197 18v539q-105 10 -181 10q-165 0 -255.5 -76.5t-90.5 -210.5zM1018 -131v1708l219 -29 v-49q-33 -20 -96 -16v-1530q59 0 100 -25v-59h-223z" />
<glyph unicode="&#xb7;" horiz-adv-x="614" d="M209 731q0 44 27 72t71 28q43 0 72 -28t29 -72q0 -43 -28 -70.5t-73 -27.5q-42 0 -70 28t-28 70z" />
<glyph unicode="&#xb8;" horiz-adv-x="559" d="M61 -438l35 84q70 -31 150 -31q62 0 100.5 25t38.5 71q0 107 -240 107l70 180h94l-47 -127q115 0 175.5 -44t60.5 -126q0 -75 -66 -126.5t-182 -51.5q-107 0 -189 39z" />
<glyph unicode="&#xb9;" horiz-adv-x="921" d="M186 1264l299 176l76 -13v-772h84q58 0 88 -20v-70h-491v70q27 20 84 20h125v654l-218 -127z" />
<glyph unicode="&#xba;" d="M229 1057q0 176 107.5 283.5t277.5 107.5q173 0 278 -110.5t105 -284.5q0 -176 -106.5 -283.5t-276.5 -107.5q-173 0 -279 110.5t-106 284.5zM283 297v113h663v-113h-663zM344 1057q0 -132 74.5 -214.5t195.5 -82.5q124 0 198.5 79.5t74.5 213.5q0 132 -76 214.5 t-197 82.5q-122 0 -196 -79.5t-74 -213.5z" />
<glyph unicode="&#xbb;" horiz-adv-x="1087" d="M152 340l301 365l-301 364l84 70l325 -404v-59l-325 -406zM535 340l301 365l-301 364l83 70l326 -404v-59l-326 -406z" />
<glyph unicode="&#xbc;" horiz-adv-x="2224" d="M186 1264l299 176l76 -13v-772h84q58 0 88 -20v-70h-491v70q27 20 84 20h125v654l-218 -127zM614 -29l912 1545l84 -54l-912 -1544zM1432 201v73l309 607l98 -37l-280 -551h305l14 231l92 17v-248h123l-14 -92h-109v-129h2q44 0 82 -23v-49h-270v49q41 23 80 23v129h-432 z" />
<glyph unicode="&#xbd;" horiz-adv-x="2224" d="M186 1264l299 176l76 -13v-772h84q58 0 88 -20v-70h-491v70q27 20 84 20h125v654l-218 -127zM614 -29l912 1545l84 -54l-912 -1544zM1473 55q0 70 25.5 130.5t65.5 103.5t89 81t98 70t89 63t65.5 67.5t25.5 76.5q0 69 -45.5 108.5t-124.5 39.5q-99 0 -184 -50l12 -133 h-80q-22 96 -22 172q129 99 282 99q125 0 200 -64t75 -166q0 -50 -23.5 -94.5t-61.5 -78t-84.5 -66t-93.5 -65.5t-87 -69t-67 -83.5t-32 -102.5h365q6 62 16 115h70l6 -209h-575q-4 36 -4 55z" />
<glyph unicode="&#xbe;" horiz-adv-x="2224" d="M170 1376q130 72 266 72q130 0 208.5 -66.5t78.5 -167.5q0 -145 -145 -186q176 -48 176 -215q0 -111 -86.5 -186.5t-243.5 -75.5q-148 0 -252 74l6 170h72q9 -47 16 -129q77 -23 158 -23q101 0 159 44t58 126q0 78 -61 121t-183 43h-98l14 86h76q223 0 223 151 q0 67 -50 105.5t-134 38.5q-92 0 -166 -27l12 -119h-79q-25 98 -25 164zM614 -29l912 1545l84 -54l-912 -1544zM1432 201v73l309 607l98 -37l-280 -551h305l14 231l92 17v-248h123l-14 -92h-109v-129h2q44 0 82 -23v-49h-270v49q41 23 80 23v129h-432z" />
<glyph unicode="&#xbf;" horiz-adv-x="1005" d="M115 -158q0 70 23 128.5t59 99.5t80.5 77.5t88.5 72.5t80 75t59 93.5t23 119.5v113h107q14 -66 14 -138q0 -69 -22 -127.5t-57.5 -99.5t-78.5 -78t-85.5 -71t-78 -70t-57.5 -84.5t-22 -104.5q0 -98 65.5 -154t182.5 -56q182 0 305 108q3 109 22 197h74l6 -238 q-173 -180 -414 -180q-169 0 -271.5 88.5t-102.5 228.5zM475 918q0 44 27 72t71 28q43 0 72 -28t29 -72q0 -43 -28 -71t-73 -28q-41 0 -69.5 28.5t-28.5 70.5z" />
<glyph unicode="&#xc0;" horiz-adv-x="1349" d="M-55 31l10 57q41 16 98 8l10 -2l515 1262l170 84l542 -1346l6 2q58 8 99 -8l10 -57l-303 -54l-15 60q30 23 76 35l-139 344h-700l-138 -344q46 -12 76 -35l-14 -60zM365 526h616l-305 789zM465 1767l57 115l381 -233l-49 -84zM479 1372v47l266 21l-167 -84q-55 -3 -99 16 z" />
<glyph unicode="&#xc1;" horiz-adv-x="1349" d="M-55 31l10 57q41 16 98 8l10 -2l515 1262l170 84l542 -1346l6 2q58 8 99 -8l10 -57l-303 -54l-15 60q30 23 76 35l-139 344h-700l-138 -344q46 -12 76 -35l-14 -60zM365 526h616l-305 789zM438 1649l379 233l60 -115l-390 -202zM479 1372v47l266 21l-167 -84 q-55 -3 -99 16z" />
<glyph unicode="&#xc2;" horiz-adv-x="1349" d="M-55 31l10 57q41 16 98 8l10 -2l515 1262l170 84l542 -1346l6 2q58 8 99 -8l10 -57l-303 -54l-15 60q30 23 76 35l-139 344h-700l-138 -344q46 -12 76 -35l-14 -60zM326 1649l286 180h101l286 -180l-65 -88l-272 182l-271 -182zM365 526h616l-305 789zM479 1372v47 l266 21l-167 -84q-55 -3 -99 16z" />
<glyph unicode="&#xc3;" horiz-adv-x="1349" d="M-55 31l10 57q41 16 98 8l10 -2l515 1262l170 84l542 -1346l6 2q58 8 99 -8l10 -57l-303 -54l-15 60q30 23 76 35l-139 344h-700l-138 -344q46 -12 76 -35l-14 -60zM344 1694q47 56 94.5 85t106.5 29q44 0 88 -22t83 -44t72 -22q37 0 66 18.5t64 53.5l65 -68 q-47 -54 -91 -83t-95 -29q-49 0 -93.5 22t-82.5 44t-70 22q-41 0 -73 -19t-70 -55zM365 526h616l-305 789zM479 1372v47l266 21l-167 -84q-55 -3 -99 16z" />
<glyph unicode="&#xc4;" horiz-adv-x="1349" d="M-55 31l10 57q41 16 98 8l10 -2l515 1262l170 84l542 -1346l6 2q58 8 99 -8l10 -57l-303 -54l-15 60q30 23 76 35l-139 344h-700l-138 -344q46 -12 76 -35l-14 -60zM365 526h616l-305 789zM391 1714q0 40 25 65t65 25q37 0 62.5 -25.5t25.5 -64.5q0 -38 -25 -63t-63 -25 t-64 25t-26 63zM479 1372v47l266 21l-167 -84q-55 -3 -99 16zM760 1714q0 39 25.5 64.5t64.5 25.5q38 0 63 -26t25 -64q0 -39 -24.5 -63.5t-63.5 -24.5q-38 0 -64 25t-26 63z" />
<glyph unicode="&#xc5;" horiz-adv-x="1349" d="M-55 31l10 57q41 16 98 8l13 -2l518 1268q-66 25 -105 81t-39 130q0 98 68 161.5t166 63.5q100 0 167.5 -63.5t67.5 -161.5q0 -69 -36 -123.5t-97 -81.5l516 -1272h4q58 8 99 -8l10 -57l-303 -54l-15 60q29 22 78 35l-141 344h-700l-136 -344q45 -12 74 -35l-14 -60z M365 526h616l-303 789zM547 1573q0 -62 35 -100.5t92 -38.5q56 0 91.5 37.5t35.5 101.5q0 61 -35.5 100t-91.5 39q-57 0 -92 -36t-35 -103z" />
<glyph unicode="&#xc6;" horiz-adv-x="1847" d="M-61 31l10 57q41 16 98 8h2l803 1260q-59 -3 -102 16v47l151 15h842q0 -120 -33 -263h-84l12 152h-551v-518h478l82 4l-13 -113h-547v-585h558q6 87 18 147h74l6 -258h-787v416h-557l-217 -344q45 -12 74 -35l-14 -60zM467 526h491v785z" />
<glyph unicode="&#xc7;" horiz-adv-x="1234" d="M115 715q0 216 80.5 384.5t231.5 263.5t349 95q190 0 377 -88l-2 -4q0 -114 -33 -250h-84l17 182q-133 45 -275 45q-236 0 -381 -169t-145 -455q0 -285 137 -457t367 -172q163 0 290 53q2 79 21 174h74l6 -233l2 -4q-171 -100 -367 -105l-39 -104q115 0 175.5 -44 t60.5 -126q0 -75 -66 -126.5t-182 -51.5q-106 0 -188 39l34 84q70 -31 150 -31q62 0 100.5 25t38.5 71q0 107 -239 107l61 159q-260 25 -415.5 223.5t-155.5 514.5z" />
<glyph unicode="&#xc8;" horiz-adv-x="1179" d="M139 0v59q41 25 99 25v1268q-71 7 -99 26v60l101 -4h835q0 -120 -33 -263h-84l13 152h-604v-518h514l82 4l-15 -113h-581v-585h610q6 87 18 147h74l6 -258h-936zM459 1767l57 115l381 -233l-49 -84z" />
<glyph unicode="&#xc9;" horiz-adv-x="1179" d="M139 0v59q41 25 99 25v1268q-71 7 -99 26v60l101 -4h835q0 -120 -33 -263h-84l13 152h-604v-518h514l82 4l-15 -113h-581v-585h610q6 87 18 147h74l6 -258h-936zM432 1649l379 233l59 -115l-389 -202z" />
<glyph unicode="&#xca;" horiz-adv-x="1179" d="M139 0v59q41 25 99 25v1268q-71 7 -99 26v60l101 -4h835q0 -120 -33 -263h-84l13 152h-604v-518h514l82 4l-15 -113h-581v-585h610q6 87 18 147h74l6 -258h-936zM319 1649l287 180h101l286 -180l-65 -88l-273 182l-270 -182z" />
<glyph unicode="&#xcb;" horiz-adv-x="1179" d="M139 0v59q41 25 99 25v1268q-71 7 -99 26v60l101 -4h835q0 -120 -33 -263h-84l13 152h-604v-518h514l82 4l-15 -113h-581v-585h610q6 87 18 147h74l6 -258h-936zM385 1714q0 40 25 65t65 25q37 0 62.5 -25.5t25.5 -64.5q0 -38 -25 -63t-63 -25t-64 25t-26 63zM754 1714 q0 39 25.5 64.5t64.5 25.5q38 0 63 -26t25 -64q0 -39 -24.5 -63.5t-63.5 -24.5q-38 0 -64 25t-26 63z" />
<glyph unicode="&#xcc;" horiz-adv-x="606" d="M106 1767l58 115l381 -233l-49 -84zM139 0v55q44 27 99 27v1272q-63 0 -99 22v54l330 8v-56q-29 -17 -100 -24h-2v-1276h2q56 0 100 -27v-55h-330z" />
<glyph unicode="&#xcd;" horiz-adv-x="606" d="M80 1649l379 233l59 -115l-389 -202zM139 0v55q44 27 99 27v1272q-63 0 -99 22v54l330 8v-56q-29 -17 -100 -24h-2v-1276h2q56 0 100 -27v-55h-330z" />
<glyph unicode="&#xce;" horiz-adv-x="606" d="M-33 1649l287 180h100l287 -180l-66 -88l-272 182l-270 -182zM139 0v55q44 27 99 27v1272q-63 0 -99 22v54l330 8v-56q-29 -17 -100 -24h-2v-1276h2q56 0 100 -27v-55h-330z" />
<glyph unicode="&#xcf;" horiz-adv-x="606" d="M33 1714q0 40 25 65t65 25q37 0 62.5 -25.5t25.5 -64.5q0 -38 -25 -63t-63 -25t-64 25t-26 63zM139 0v55q44 27 99 27v1272q-63 0 -99 22v54l330 8v-56q-29 -17 -100 -24h-2v-1276h2q56 0 100 -27v-55h-330zM401 1714q0 38 25.5 64t65.5 26q38 0 63 -26t25 -64 q0 -39 -24.5 -63.5t-63.5 -24.5t-65 25t-26 63z" />
<glyph unicode="&#xd0;" horiz-adv-x="1466" d="M160 672v110h162v559q-65 0 -101 19v55q208 35 445 35q149 0 271.5 -38t208.5 -104.5t145 -159t86.5 -200.5t27.5 -229q0 -125 -26 -232.5t-84 -201t-144.5 -160t-215 -104t-288.5 -37.5q-237 0 -426 36v58q41 21 101 18v576h-162zM451 98q68 -4 208 -4q158 0 276.5 46 t191 130.5t108 196.5t35.5 252q0 134 -36 245t-107.5 195.5t-187 132t-265.5 47.5q-151 0 -223 -4v-553h399v-110h-399v-574z" />
<glyph unicode="&#xd1;" horiz-adv-x="1519" d="M139 0v55q44 27 101 27h2v1261q-64 3 -101 25v59l101 5l172 6l745 -1286v1202h-6q-64 0 -100 22v54l329 8v-56q-29 -17 -100 -24v-1348l-170 -20l-747 1284v-1192h4q56 0 100 -27v-55h-330zM463 1694q47 56 94.5 85t106.5 29q44 0 88 -22t83 -44t72 -22q26 0 50.5 11.5 t40 24.5t38.5 36l66 -68q-47 -54 -91.5 -83t-95.5 -29q-39 0 -75.5 14t-60 30t-53.5 30t-56 14q-41 0 -73.5 -19t-70.5 -55z" />
<glyph unicode="&#xd2;" horiz-adv-x="1558" d="M115 719q0 213 78 379.5t230 263t355 96.5q122 0 228.5 -37.5t186 -105.5t136.5 -160t86 -203.5t29 -234.5q0 -156 -46 -291.5t-130.5 -235.5t-210.5 -157.5t-279 -57.5q-122 0 -228 38t-185 106t-136 160.5t-85.5 204.5t-28.5 235zM248 719q0 -127 36.5 -241t103 -201 t167.5 -138t223 -51q165 0 286 80.5t183 222t62 326.5q0 170 -62.5 312t-185 229.5t-283.5 87.5t-282 -80t-184.5 -222t-63.5 -325zM582 1767l57 115l381 -233l-49 -84z" />
<glyph unicode="&#xd3;" horiz-adv-x="1558" d="M115 719q0 213 78 379.5t230 263t355 96.5q122 0 228.5 -37.5t186 -105.5t136.5 -160t86 -203.5t29 -234.5q0 -156 -46 -291.5t-130.5 -235.5t-210.5 -157.5t-279 -57.5q-122 0 -228 38t-185 106t-136 160.5t-85.5 204.5t-28.5 235zM248 719q0 -127 36.5 -241t103 -201 t167.5 -138t223 -51q165 0 286 80.5t183 222t62 326.5q0 170 -62.5 312t-185 229.5t-283.5 87.5t-282 -80t-184.5 -222t-63.5 -325zM555 1649l379 233l59 -115l-389 -202z" />
<glyph unicode="&#xd4;" horiz-adv-x="1558" d="M115 719q0 213 78 379.5t230 263t355 96.5q122 0 228.5 -37.5t186 -105.5t136.5 -160t86 -203.5t29 -234.5q0 -156 -46 -291.5t-130.5 -235.5t-210.5 -157.5t-279 -57.5q-122 0 -228 38t-185 106t-136 160.5t-85.5 204.5t-28.5 235zM248 719q0 -127 36.5 -241t103 -201 t167.5 -138t223 -51q165 0 286 80.5t183 222t62 326.5q0 170 -62.5 312t-185 229.5t-283.5 87.5t-282 -80t-184.5 -222t-63.5 -325zM442 1649l287 180h100l287 -180l-65 -88l-273 182l-270 -182z" />
<glyph unicode="&#xd5;" horiz-adv-x="1558" d="M115 719q0 213 78 379.5t230 263t355 96.5q122 0 228.5 -37.5t186 -105.5t136.5 -160t86 -203.5t29 -234.5q0 -156 -46 -291.5t-130.5 -235.5t-210.5 -157.5t-279 -57.5q-122 0 -228 38t-185 106t-136 160.5t-85.5 204.5t-28.5 235zM248 719q0 -127 36.5 -241t103 -201 t167.5 -138t223 -51q165 0 286 80.5t183 222t62 326.5q0 170 -62.5 312t-185 229.5t-283.5 87.5t-282 -80t-184.5 -222t-63.5 -325zM461 1694q47 56 94.5 85t106.5 29q44 0 88 -22t83 -44t72 -22q26 0 50.5 11.5t40 24.5t38.5 36l66 -68q-47 -54 -91.5 -83t-95.5 -29 q-39 0 -75.5 14t-60 30t-53.5 30t-56 14q-41 0 -73.5 -19t-70.5 -55z" />
<glyph unicode="&#xd6;" horiz-adv-x="1558" d="M115 719q0 213 78 379.5t230 263t355 96.5q122 0 228.5 -37.5t186 -105.5t136.5 -160t86 -203.5t29 -234.5q0 -156 -46 -291.5t-130.5 -235.5t-210.5 -157.5t-279 -57.5q-122 0 -228 38t-185 106t-136 160.5t-85.5 204.5t-28.5 235zM248 719q0 -127 36.5 -241t103 -201 t167.5 -138t223 -51q165 0 286 80.5t183 222t62 326.5q0 170 -62.5 312t-185 229.5t-283.5 87.5t-282 -80t-184.5 -222t-63.5 -325zM508 1714q0 40 25 65t65 25q37 0 62.5 -25.5t25.5 -64.5q0 -38 -25 -63t-63 -25t-64 25t-26 63zM877 1714q0 39 25.5 64.5t64.5 25.5 q38 0 63 -26t25 -64q0 -39 -24.5 -63.5t-63.5 -24.5q-38 0 -64 25t-26 63z" />
<glyph unicode="&#xd7;" d="M231 1014l78 76l305 -310l306 310l75 -76l-307 -309l307 -308l-75 -75l-306 307l-303 -307l-78 75l306 308z" />
<glyph unicode="&#xd8;" horiz-adv-x="1558" d="M115 719q0 213 78 379.5t230 263t355 96.5q153 0 279 -57l117 260l112 -51l-137 -262q140 -98 217.5 -264.5t77.5 -366.5q0 -156 -46 -291.5t-130.5 -235.5t-210.5 -157.5t-279 -57.5q-135 0 -258 50l-119 -267l-112 54l137 262q-148 96 -229.5 267t-81.5 378zM248 719 q0 -175 61 -316.5t174 -222.5l529 1112q-105 54 -234 54q-161 0 -282 -80t-184.5 -222t-63.5 -325zM565 131q93 -43 213 -43q165 0 286 80.5t183 222t62 326.5q0 166 -56.5 302.5t-160.5 221.5z" />
<glyph unicode="&#xd9;" horiz-adv-x="1423" d="M98 1382v56l330 -8v-54q-36 -22 -100 -22h-2v-842q0 -203 102 -312.5t285 -109.5q181 0 284 109.5t103 312.5v842h-2q-65 0 -101 22v54l330 8v-56q-29 -17 -100 -24v-850q0 -253 -139.5 -393t-374.5 -140q-237 0 -376.5 139t-139.5 394v850q-70 6 -99 24zM518 1767 l57 115l381 -233l-49 -84z" />
<glyph unicode="&#xda;" horiz-adv-x="1423" d="M98 1382v56l330 -8v-54q-36 -22 -100 -22h-2v-842q0 -203 102 -312.5t285 -109.5q181 0 284 109.5t103 312.5v842h-2q-65 0 -101 22v54l330 8v-56q-29 -17 -100 -24v-850q0 -253 -139.5 -393t-374.5 -140q-237 0 -376.5 139t-139.5 394v850q-70 6 -99 24zM492 1649 l378 233l60 -115l-389 -202z" />
<glyph unicode="&#xdb;" horiz-adv-x="1423" d="M98 1382v56l330 -8v-54q-36 -22 -100 -22h-2v-842q0 -203 102 -312.5t285 -109.5q181 0 284 109.5t103 312.5v842h-2q-65 0 -101 22v54l330 8v-56q-29 -17 -100 -24v-850q0 -253 -139.5 -393t-374.5 -140q-237 0 -376.5 139t-139.5 394v850q-70 6 -99 24zM379 1649 l287 180h100l287 -180l-66 -88l-272 182l-271 -182z" />
<glyph unicode="&#xdc;" horiz-adv-x="1423" d="M98 1382v56l330 -8v-54q-36 -22 -100 -22h-2v-842q0 -203 102 -312.5t285 -109.5q181 0 284 109.5t103 312.5v842h-2q-65 0 -101 22v54l330 8v-56q-29 -17 -100 -24v-850q0 -253 -139.5 -393t-374.5 -140q-237 0 -376.5 139t-139.5 394v850q-70 6 -99 24zM444 1714 q0 40 25.5 65t65.5 25q37 0 62.5 -25.5t25.5 -64.5q0 -38 -25 -63t-63 -25q-39 0 -65 25t-26 63zM813 1714q0 39 25.5 64.5t64.5 25.5q38 0 63 -26t25 -64q0 -39 -24.5 -63.5t-63.5 -24.5q-38 0 -64 25t-26 63z" />
<glyph unicode="&#xdd;" horiz-adv-x="1212" d="M-53 1401l299 53l10 -53q-32 -25 -82 -37l430 -709l432 709q-47 11 -80 37l11 53l299 -53l-9 -53q-43 -17 -100 -9l-6 2l-485 -794v-465h2q56 0 100 -27v-55h-330v55q44 27 97 27v465l-486 792q-54 -8 -94 9zM375 1649l379 233l59 -115l-389 -202z" />
<glyph unicode="&#xde;" horiz-adv-x="1216" d="M139 0v55q44 27 97 27v1276q-68 7 -97 24v56l330 -8v-54q-36 -22 -100 -22h-4v-170q114 12 235 12q265 0 413 -123t148 -325q0 -228 -158.5 -354t-433.5 -126q-72 0 -204 13v-199h4q56 0 100 -27v-55h-330zM367 391q92 -10 219 -10q213 0 329.5 93.5t116.5 264.5 q0 163 -112.5 254.5t-319.5 91.5q-124 0 -233 -14v-680z" />
<glyph unicode="&#xdf;" d="M39 954l31 111q63 -2 103 -29.5t60 -87.5q-6 291 111 441.5t332 150.5q172 0 280.5 -108.5t108.5 -272.5q0 -266 -268 -342q164 -34 259 -135.5t95 -275.5q0 -193 -123 -312t-315 -119q-139 0 -248 56l6 182h64q15 -58 20 -115q60 -14 147 -14q144 0 233 84t89 235 q0 170 -113 262.5t-319 92.5v100q176 0 262 78t86 217q0 128 -71.5 203.5t-194.5 75.5q-83 0 -145 -30t-107.5 -95.5t-68.5 -177t-23 -267.5v-1233q62 -3 96 -24v-56h-315v56q35 21 96 24v1123q0 202 -168 202z" />
<glyph unicode="&#xe0;" horiz-adv-x="1081" d="M74 291q0 158 103 249t290 91q31 0 63.5 -2.5t54.5 -5t56.5 -9t47 -9t50.5 -11.5t43 -10v118q0 139 -74 209t-214 70q-116 0 -232 -25l10 -139h-77q-33 122 -33 217q177 56 348 56q189 0 292 -96.5t103 -293.5v-471q0 -80 33.5 -111.5t95.5 -29.5l-28 -96 q-182 -3 -205 170q-154 -191 -385 -191q-156 0 -249 88.5t-93 231.5zM201 297q0 -98 60 -156.5t169 -58.5q111 0 196 47.5t156 138.5v215q-167 47 -313 47q-130 0 -199 -62.5t-69 -170.5zM307 1430l58 114l380 -233l-49 -84z" />
<glyph unicode="&#xe1;" horiz-adv-x="1081" d="M74 291q0 158 103 249t290 91q31 0 63.5 -2.5t54.5 -5t56.5 -9t47 -9t50.5 -11.5t43 -10v118q0 139 -74 209t-214 70q-116 0 -232 -25l10 -139h-77q-33 122 -33 217q177 56 348 56q189 0 292 -96.5t103 -293.5v-471q0 -80 33.5 -111.5t95.5 -29.5l-28 -96 q-182 -3 -205 170q-154 -191 -385 -191q-156 0 -249 88.5t-93 231.5zM201 297q0 -98 60 -156.5t169 -58.5q111 0 196 47.5t156 138.5v215q-167 47 -313 47q-130 0 -199 -62.5t-69 -170.5zM301 1311l379 233l59 -114l-389 -203z" />
<glyph unicode="&#xe2;" horiz-adv-x="1081" d="M74 291q0 158 103 249t290 91q31 0 63.5 -2.5t54.5 -5t56.5 -9t47 -9t50.5 -11.5t43 -10v118q0 139 -74 209t-214 70q-116 0 -232 -25l10 -139h-77q-33 122 -33 217q177 56 348 56q189 0 292 -96.5t103 -293.5v-471q0 -80 33.5 -111.5t95.5 -29.5l-28 -96 q-182 -3 -205 170q-154 -191 -385 -191q-156 0 -249 88.5t-93 231.5zM188 1300l287 209h100l287 -209l-67 -83l-271 204l-268 -204zM201 297q0 -98 60 -156.5t169 -58.5q111 0 196 47.5t156 138.5v215q-167 47 -313 47q-130 0 -199 -62.5t-69 -170.5z" />
<glyph unicode="&#xe3;" horiz-adv-x="1081" d="M74 291q0 158 103 249t290 91q31 0 63.5 -2.5t54.5 -5t56.5 -9t47 -9t50.5 -11.5t43 -10v118q0 139 -74 209t-214 70q-116 0 -232 -25l10 -139h-77q-33 122 -33 217q177 56 348 56q189 0 292 -96.5t103 -293.5v-471q0 -80 33.5 -111.5t95.5 -29.5l-28 -96 q-182 -3 -205 170q-154 -191 -385 -191q-156 0 -249 88.5t-93 231.5zM201 297q0 -98 60 -156.5t169 -58.5q111 0 196 47.5t156 138.5v215q-167 47 -313 47q-130 0 -199 -62.5t-69 -170.5zM205 1346q47 56 94.5 85t106.5 29q44 0 88 -22t83 -44t72 -22q26 0 50.5 11.5 t40 24.5t38.5 36l66 -68q-47 -54 -91.5 -83t-95.5 -29q-39 0 -75.5 14t-60 30t-53.5 30t-56 14q-41 0 -73.5 -19t-70.5 -55z" />
<glyph unicode="&#xe4;" horiz-adv-x="1081" d="M74 291q0 158 103 249t290 91q31 0 63.5 -2.5t54.5 -5t56.5 -9t47 -9t50.5 -11.5t43 -10v118q0 139 -74 209t-214 70q-116 0 -232 -25l10 -139h-77q-33 122 -33 217q177 56 348 56q189 0 292 -96.5t103 -293.5v-471q0 -80 33.5 -111.5t95.5 -29.5l-28 -96 q-182 -3 -205 170q-154 -191 -385 -191q-156 0 -249 88.5t-93 231.5zM201 297q0 -98 60 -156.5t169 -58.5q111 0 196 47.5t156 138.5v215q-167 47 -313 47q-130 0 -199 -62.5t-69 -170.5zM252 1366q0 40 25 65t65 25q37 0 62.5 -25.5t25.5 -64.5q0 -38 -25 -63t-63 -25 t-64 25t-26 63zM621 1366q0 39 25.5 64.5t64.5 25.5q38 0 63 -26t25 -64q0 -39 -24.5 -63.5t-63.5 -24.5q-38 0 -64 25t-26 63z" />
<glyph unicode="&#xe5;" horiz-adv-x="1081" d="M74 291q0 158 103 249t290 91q31 0 63.5 -2.5t54.5 -5t56.5 -9t47 -9t50.5 -11.5t43 -10v118q0 139 -74 209t-214 70q-116 0 -232 -25l10 -139h-77q-33 122 -33 217q177 56 348 56q189 0 292 -96.5t103 -293.5v-471q0 -80 33.5 -111.5t95.5 -29.5l-28 -96 q-182 -3 -205 170q-154 -191 -385 -191q-156 0 -249 88.5t-93 231.5zM201 297q0 -98 60 -156.5t169 -58.5q111 0 196 47.5t156 138.5v215q-167 47 -313 47q-130 0 -199 -62.5t-69 -170.5zM291 1432q0 98 67.5 161.5t165.5 63.5q100 0 168 -63.5t68 -161.5t-69 -163t-167 -65 q-99 0 -166 64.5t-67 163.5zM397 1432q0 -62 35 -101t92 -39q55 0 91 38t36 102q0 61 -35.5 100t-91.5 39q-57 0 -92 -36t-35 -103z" />
<glyph unicode="&#xe6;" horiz-adv-x="1787" d="M74 299q0 160 105 252t298 92q129 0 316 -49q-7 213 -80.5 300t-241.5 87q-91 0 -201 -20l11 -140h-78q-33 122 -33 217h2v2q158 50 334 50q307 0 362 -297q46 135 151 216t257 81q101 0 184.5 -37t136 -98t81 -137t28.5 -156l-4 -66l-770 -205q30 -146 123.5 -225.5 t242.5 -79.5q114 0 240 35q6 78 23 137h69l6 -203q-164 -80 -338 -80q-141 0 -248 57t-171 161q-83 -103 -197 -162.5t-250 -59.5q-166 0 -262 89.5t-96 238.5zM201 303q0 -103 62 -162t179 -59q215 0 394 197q-37 85 -43 215q-174 49 -314 49q-138 0 -208 -63.5t-70 -176.5 zM924 502l661 174q-9 135 -90.5 220t-218.5 85q-86 0 -152.5 -31.5t-105.5 -81t-62.5 -114t-30 -127.5t-1.5 -125z" />
<glyph unicode="&#xe7;" horiz-adv-x="999" d="M94 532q0 154 63 280.5t183.5 202t275.5 75.5q163 0 304 -86l-2 -5q0 -94 -33 -213h-78l12 158q-90 35 -196 35q-176 0 -289 -121.5t-113 -322.5q0 -205 107 -327t282 -122q113 0 201 37q6 89 23 147h69l6 -202l2 -5q-136 -81 -280 -88l-39 -104q115 0 175 -44t60 -126 q0 -76 -66 -127t-181 -51q-107 0 -189 39l35 84q70 -31 149 -31q62 0 101 25t39 71q0 107 -240 107l62 162q-199 22 -321 172.5t-122 379.5z" />
<glyph unicode="&#xe8;" horiz-adv-x="1089" d="M94 524q0 111 31.5 212t91 180.5t153 126.5t208.5 47q82 0 152.5 -24.5t120.5 -66t86 -96.5t53.5 -117t17.5 -127l-4 -63l-773 -203q31 -151 124.5 -229t244.5 -78q114 0 240 35q6 83 22 137h70l6 -203q-164 -80 -338 -80q-236 0 -371 149t-135 400zM223 502l666 174 q-11 135 -92.5 220t-216.5 85q-72 0 -131 -22.5t-97.5 -61.5t-66.5 -87t-41.5 -103t-18.5 -106t-2 -99zM367 1430l57 114l381 -233l-49 -84z" />
<glyph unicode="&#xe9;" horiz-adv-x="1089" d="M94 524q0 111 31.5 212t91 180.5t153 126.5t208.5 47q82 0 152.5 -24.5t120.5 -66t86 -96.5t53.5 -117t17.5 -127l-4 -63l-773 -203q31 -151 124.5 -229t244.5 -78q114 0 240 35q6 83 22 137h70l6 -203q-164 -80 -338 -80q-236 0 -371 149t-135 400zM223 502l666 174 q-11 135 -92.5 220t-216.5 85q-72 0 -131 -22.5t-97.5 -61.5t-66.5 -87t-41.5 -103t-18.5 -106t-2 -99zM360 1311l379 233l60 -114l-389 -203z" />
<glyph unicode="&#xea;" horiz-adv-x="1089" d="M94 524q0 111 31.5 212t91 180.5t153 126.5t208.5 47q82 0 152.5 -24.5t120.5 -66t86 -96.5t53.5 -117t17.5 -127l-4 -63l-773 -203q31 -151 124.5 -229t244.5 -78q114 0 240 35q6 83 22 137h70l6 -203q-164 -80 -338 -80q-236 0 -371 149t-135 400zM223 502l666 174 q-11 135 -92.5 220t-216.5 85q-72 0 -131 -22.5t-97.5 -61.5t-66.5 -87t-41.5 -103t-18.5 -106t-2 -99zM248 1300l287 209h100l287 -209l-68 -83l-270 204l-269 -204z" />
<glyph unicode="&#xeb;" horiz-adv-x="1089" d="M94 524q0 111 31.5 212t91 180.5t153 126.5t208.5 47q82 0 152.5 -24.5t120.5 -66t86 -96.5t53.5 -117t17.5 -127l-4 -63l-773 -203q31 -151 124.5 -229t244.5 -78q114 0 240 35q6 83 22 137h70l6 -203q-164 -80 -338 -80q-236 0 -371 149t-135 400zM223 502l666 174 q-11 135 -92.5 220t-216.5 85q-72 0 -131 -22.5t-97.5 -61.5t-66.5 -87t-41.5 -103t-18.5 -106t-2 -99zM311 1366q0 40 25 65t65 25q37 0 62.5 -25.5t25.5 -64.5q0 -38 -25 -63t-63 -25t-64 25t-26 63zM680 1366q0 39 25.5 64.5t64.5 25.5q38 0 63 -26t25 -64 q0 -39 -24.5 -63.5t-63.5 -24.5q-38 0 -64 25t-26 63z" />
<glyph unicode="&#xec;" horiz-adv-x="550" d="M41 1430l57 114l381 -233l-49 -84zM119 0v55q36 22 96 25v907q-58 0 -96 23v59l219 -8v-981q60 -3 96 -25v-55h-315z" />
<glyph unicode="&#xed;" horiz-adv-x="550" d="M35 1311l379 233l59 -114l-389 -203zM119 0v55q36 22 96 25v907q-58 0 -96 23v59l219 -8v-981q60 -3 96 -25v-55h-315z" />
<glyph unicode="&#xee;" horiz-adv-x="550" d="M-78 1300l287 209h100l287 -209l-68 -83l-270 204l-268 -204zM119 0v55q36 22 96 25v907q-58 0 -96 23v59l219 -8v-981q60 -3 96 -25v-55h-315z" />
<glyph unicode="&#xef;" horiz-adv-x="550" d="M-14 1366q0 40 25 65t65 25q37 0 62.5 -25.5t25.5 -64.5q0 -38 -25 -63t-63 -25t-64 25t-26 63zM119 0v55q36 22 96 25v907q-58 0 -96 23v59l219 -8v-981q60 -3 96 -25v-55h-315zM354 1366q0 39 25.5 64.5t64.5 25.5q38 0 63 -26t25 -64q0 -39 -24.5 -63.5t-63.5 -24.5 q-38 0 -64 25t-26 63z" />
<glyph unicode="&#xf0;" horiz-adv-x="1114" d="M94 426q0 102 35.5 189.5t95.5 145t138 90t163 32.5q225 0 369 -209q-2 191 -55 336t-154 231l-145 -182l-80 63l151 172q-132 78 -284 78l8 -106h-78q-30 110 -33 213q40 4 86 4q217 0 373 -105l131 170l80 -63l-139 -158q127 -99 196.5 -273t69.5 -409 q0 -316 -130 -493t-366 -177q-181 0 -306.5 123.5t-125.5 327.5zM217 430q0 -160 89.5 -252t225.5 -92q158 0 251.5 116.5t111.5 348.5q-69 113 -155 169t-199 56q-135 0 -229.5 -92.5t-94.5 -253.5z" />
<glyph unicode="&#xf1;" horiz-adv-x="1263" d="M119 0v55q36 22 96 25v907q-58 0 -96 23v59l207 -8l8 -225q149 254 393 254q169 0 261.5 -107t92.5 -289v-614q61 -3 97 -25v-55h-316v55q36 22 96 25v602q0 142 -63.5 220.5t-181.5 78.5q-110 0 -205.5 -73.5t-169.5 -202.5v-625q60 -3 96 -25v-55h-315zM334 1346 q47 56 94.5 85t106.5 29q44 0 88 -22t83 -44t72 -22q26 0 50.5 11.5t40 24.5t38.5 36l66 -68q-47 -54 -91.5 -83t-95.5 -29q-39 0 -75.5 14t-60 30t-53.5 30t-56 14q-41 0 -73.5 -19t-70.5 -55z" />
<glyph unicode="&#xf2;" d="M94 532q0 248 147.5 403t372.5 155q228 0 374.5 -157.5t146.5 -400.5q0 -248 -147 -402.5t-374 -154.5q-228 0 -374 157t-146 400zM219 535q0 -196 109 -322.5t284 -126.5q180 0 288 123t108 321q0 195 -110 322t-286 127q-177 0 -285 -123t-108 -321zM397 1430l58 114 l381 -233l-50 -84z" />
<glyph unicode="&#xf3;" d="M94 532q0 248 147.5 403t372.5 155q228 0 374.5 -157.5t146.5 -400.5q0 -248 -147 -402.5t-374 -154.5q-228 0 -374 157t-146 400zM219 535q0 -196 109 -322.5t284 -126.5q180 0 288 123t108 321q0 195 -110 322t-286 127q-177 0 -285 -123t-108 -321zM391 1311l379 233 l59 -114l-389 -203z" />
<glyph unicode="&#xf4;" d="M94 532q0 248 147.5 403t372.5 155q228 0 374.5 -157.5t146.5 -400.5q0 -248 -147 -402.5t-374 -154.5q-228 0 -374 157t-146 400zM219 535q0 -196 109 -322.5t284 -126.5q180 0 288 123t108 321q0 195 -110 322t-286 127q-177 0 -285 -123t-108 -321zM279 1300l286 209 h101l286 -209l-67 -83l-271 204l-268 -204z" />
<glyph unicode="&#xf5;" d="M94 532q0 248 147.5 403t372.5 155q228 0 374.5 -157.5t146.5 -400.5q0 -248 -147 -402.5t-374 -154.5q-228 0 -374 157t-146 400zM219 535q0 -196 109 -322.5t284 -126.5q180 0 288 123t108 321q0 195 -110 322t-286 127q-177 0 -285 -123t-108 -321zM295 1346 q47 56 94.5 85t106.5 29q44 0 88 -22t83 -44t72 -22q26 0 50.5 11.5t40 24.5t38.5 36l66 -68q-47 -54 -91 -83t-95 -29q-49 0 -93.5 22t-82.5 44t-70 22q-41 0 -73.5 -19t-70.5 -55z" />
<glyph unicode="&#xf6;" d="M94 532q0 248 147.5 403t372.5 155q228 0 374.5 -157.5t146.5 -400.5q0 -248 -147 -402.5t-374 -154.5q-228 0 -374 157t-146 400zM219 535q0 -196 109 -322.5t284 -126.5q180 0 288 123t108 321q0 195 -110 322t-286 127q-177 0 -285 -123t-108 -321zM342 1366 q0 40 25 65t65 25q37 0 62.5 -25.5t25.5 -64.5q0 -38 -25 -63t-63 -25t-64 25t-26 63zM711 1366q0 39 25.5 64.5t64.5 25.5q38 0 63 -26t25 -64q0 -39 -24.5 -63.5t-63.5 -24.5q-38 0 -64 25t-26 63z" />
<glyph unicode="&#xf7;" d="M233 647v113h762v-113h-762zM514 272q0 45 27 73t71 28q43 0 72 -28.5t29 -72.5q0 -43 -28 -70.5t-73 -27.5q-42 0 -70 28t-28 70zM514 1133q0 44 27 72t71 28q43 0 72 -28t29 -72q0 -43 -28 -71t-73 -28q-42 0 -70 28t-28 71z" />
<glyph unicode="&#xf8;" d="M94 532q0 248 147.5 403t372.5 155q107 0 197 -37l111 247l98 -51l-127 -239q113 -72 177.5 -196t64.5 -279q0 -247 -147.5 -403.5t-373.5 -156.5q-103 0 -190 35l-113 -246l-98 50l127 239q-114 72 -180 197.5t-66 281.5zM219 535q0 -128 45.5 -226.5t126.5 -156.5 l375 798q-76 29 -154 29q-179 0 -286 -123t-107 -321zM467 113q67 -27 145 -27q180 0 288 124.5t108 321.5q0 125 -44 222t-124 155z" />
<glyph unicode="&#xf9;" horiz-adv-x="1206" d="M78 1010v59l219 -8v-699q0 -136 67 -206t185 -70q185 0 338 160v741q-58 0 -96 23v59l219 -8v-815q0 -90 33.5 -125t93.5 -33l-27 -96q-179 -3 -205 164q-70 -85 -164.5 -133t-205.5 -48q-72 0 -135.5 22.5t-114.5 67t-81 119t-30 170.5v633q-58 0 -96 23zM385 1430 l57 114l381 -233l-49 -84z" />
<glyph unicode="&#xfa;" horiz-adv-x="1206" d="M78 1010v59l219 -8v-699q0 -136 67 -206t185 -70q185 0 338 160v741q-58 0 -96 23v59l219 -8v-815q0 -90 33.5 -125t93.5 -33l-27 -96q-179 -3 -205 164q-70 -85 -164.5 -133t-205.5 -48q-72 0 -135.5 22.5t-114.5 67t-81 119t-30 170.5v633q-58 0 -96 23zM379 1311 l379 233l59 -114l-389 -203z" />
<glyph unicode="&#xfb;" horiz-adv-x="1206" d="M78 1010v59l219 -8v-699q0 -136 67 -206t185 -70q185 0 338 160v741q-58 0 -96 23v59l219 -8v-815q0 -90 33.5 -125t93.5 -33l-27 -96q-179 -3 -205 164q-70 -85 -164.5 -133t-205.5 -48q-72 0 -135.5 22.5t-114.5 67t-81 119t-30 170.5v633q-58 0 -96 23zM266 1300 l287 209h100l287 -209l-68 -83l-270 204l-268 -204z" />
<glyph unicode="&#xfc;" horiz-adv-x="1206" d="M78 1010v59l219 -8v-699q0 -136 67 -206t185 -70q185 0 338 160v741q-58 0 -96 23v59l219 -8v-815q0 -90 33.5 -125t93.5 -33l-27 -96q-179 -3 -205 164q-70 -85 -164.5 -133t-205.5 -48q-72 0 -135.5 22.5t-114.5 67t-81 119t-30 170.5v633q-58 0 -96 23zM330 1366 q0 40 25 65t65 25q37 0 62.5 -25.5t25.5 -64.5q0 -38 -25 -63t-63 -25t-64 25t-26 63zM698 1366q0 39 25.5 64.5t64.5 25.5q38 0 63.5 -26t25.5 -64t-24.5 -63t-64.5 -25q-38 0 -64 25t-26 63z" />
<glyph unicode="&#xfd;" horiz-adv-x="1083" d="M-27 1038l279 47l12 -55q-26 -18 -71 -33l387 -839l323 839q-42 12 -74 33l13 55l278 -47l-8 -53q-40 -14 -94 -8l-412 -1063q-84 -216 -170 -302.5t-219 -86.5q-97 0 -164 41l6 176h64q14 -53 20 -109q40 -4 72 -4q94 0 152 65t125 232l61 154h-61l-420 897 q-50 -6 -90 8zM354 1311l379 233l60 -114l-390 -203z" />
<glyph unicode="&#xfe;" horiz-adv-x="1212" d="M86 -395q34 21 96 24h6v1723q-50 -3 -94 16v49l217 29h2l-2 -2v-520q127 166 338 166q93 0 178 -38t149.5 -106.5t103 -173t38.5 -229.5q0 -123 -37 -230t-100.5 -180.5t-149 -115.5t-180.5 -42q-191 0 -340 156v-502q60 -3 90 -24v-56h-315v56zM311 248 q138 -162 326 -162q156 0 255 127t99 328t-102.5 320.5t-255.5 119.5q-99 0 -183.5 -48.5t-138.5 -125.5v-559z" />
<glyph unicode="&#xff;" horiz-adv-x="1083" d="M-27 1038l279 47l12 -55q-26 -18 -71 -33l387 -839l323 839q-42 12 -74 33l13 55l278 -47l-8 -53q-40 -14 -94 -8l-412 -1063q-84 -216 -170 -302.5t-219 -86.5q-97 0 -164 41l6 176h64q14 -53 20 -109q40 -4 72 -4q94 0 152 65t125 232l61 154h-61l-420 897 q-50 -6 -90 8zM305 1366q0 40 25 65t65 25q37 0 62.5 -25.5t25.5 -64.5q0 -38 -25 -63t-63 -25t-64 25t-26 63zM674 1366q0 39 25.5 64.5t64.5 25.5q38 0 63 -26t25 -64q0 -39 -24.5 -63.5t-63.5 -24.5q-38 0 -64 25t-26 63z" />
<glyph unicode="&#x152;" horiz-adv-x="1853" d="M115 719q0 159 46.5 294.5t131 234t211 154.5t280.5 56q123 0 224 -24h743q0 -120 -33 -263h-84l13 152h-541v-518h477l82 4l-12 -113h-547v-585h545q6 87 18 147h74l6 -240l2 -18h-747q-115 -25 -220 -25q-154 0 -281 58.5t-211.5 159.5t-130.5 236.5t-46 289.5z M248 719q0 -128 37 -242t104 -201t169 -137.5t224 -50.5q88 0 191 21v1214q-109 23 -191 23q-244 0 -389 -174t-145 -453z" />
<glyph unicode="&#x153;" horiz-adv-x="1968" d="M94 532q0 248 144.5 403t363.5 155q156 0 271.5 -90t166.5 -240q46 152 154 241t264 89q102 0 185 -37t135 -98.5t80 -138t28 -157.5l-2 -63l-772 -205q29 -146 124 -225.5t243 -79.5q117 0 239 35q6 78 23 137h69l7 -203q-160 -80 -338 -80q-163 0 -275.5 80t-165.5 232 q-56 -145 -168 -228.5t-268 -83.5q-220 0 -364 157t-144 400zM219 535q0 -194 108 -321.5t273 -127.5q174 0 276.5 121.5t102.5 320.5q0 194 -106 323.5t-273 129.5q-170 0 -275.5 -124.5t-105.5 -321.5zM1104 502l663 174q-11 135 -92.5 220t-216.5 85q-72 0 -130.5 -23 t-96.5 -62.5t-65.5 -88t-41 -104t-18.5 -105t-2 -96.5z" />
<glyph unicode="&#x178;" horiz-adv-x="1212" d="M-53 1401l299 53l10 -53q-32 -25 -82 -37l430 -709l432 709q-47 11 -80 37l11 53l299 -53l-9 -53q-43 -17 -100 -9l-6 2l-485 -794v-465h2q56 0 100 -27v-55h-330v55q44 27 97 27v465l-486 792q-54 -8 -94 9zM328 1714q0 40 25 65t65 25q37 0 62.5 -25.5t25.5 -64.5 q0 -38 -25 -63t-63 -25t-64 25t-26 63zM696 1714q0 39 25.5 64.5t64.5 25.5q38 0 63 -26t25 -64q0 -39 -24.5 -63.5t-63.5 -24.5q-38 0 -64 25t-26 63z" />
<glyph unicode="&#x2c6;" horiz-adv-x="796" d="M61 1300l287 209h101l286 -209l-67 -83l-271 204l-268 -204z" />
<glyph unicode="&#x2dc;" horiz-adv-x="761" d="M61 1346q47 56 94.5 85t106.5 29q44 0 88 -22t83.5 -44t72.5 -22q26 0 50.5 11.5t40 24.5t38.5 36l65 -68q-47 -54 -91 -83t-95 -29q-49 0 -93.5 22t-82.5 44t-70 22q-41 0 -73 -19t-70 -55z" />
<glyph unicode="&#x2000;" horiz-adv-x="941" />
<glyph unicode="&#x2001;" horiz-adv-x="1882" />
<glyph unicode="&#x2002;" horiz-adv-x="941" />
<glyph unicode="&#x2003;" horiz-adv-x="1882" />
<glyph unicode="&#x2004;" horiz-adv-x="627" />
<glyph unicode="&#x2005;" horiz-adv-x="470" />
<glyph unicode="&#x2006;" horiz-adv-x="313" />
<glyph unicode="&#x2007;" horiz-adv-x="313" />
<glyph unicode="&#x2008;" horiz-adv-x="235" />
<glyph unicode="&#x2009;" horiz-adv-x="376" />
<glyph unicode="&#x200a;" horiz-adv-x="104" />
<glyph unicode="&#x2010;" horiz-adv-x="1024" d="M174 647v113h674v-113h-674z" />
<glyph unicode="&#x2011;" horiz-adv-x="1024" d="M174 647v113h674v-113h-674z" />
<glyph unicode="&#x2012;" horiz-adv-x="1024" d="M174 647v113h674v-113h-674z" />
<glyph unicode="&#x2013;" horiz-adv-x="1253" d="M174 647v113h905v-113h-905z" />
<glyph unicode="&#x2014;" horiz-adv-x="1513" d="M174 647v113h1163v-113h-1163z" />
<glyph unicode="&#x2018;" horiz-adv-x="403" d="M94 1305q0 77 41 146t115 116l35 -49q-86 -77 -97 -162q56 9 88.5 -15t32.5 -71q0 -42 -27.5 -68t-72.5 -26q-52 0 -83.5 33.5t-31.5 95.5z" />
<glyph unicode="&#x2019;" horiz-adv-x="403" d="M94 1427q0 41 28.5 68t74.5 27q52 0 82 -34t30 -95q0 -78 -40 -147.5t-115 -115.5l-35 48q88 79 96 163q-56 -9 -88.5 14.5t-32.5 71.5z" />
<glyph unicode="&#x201a;" horiz-adv-x="403" d="M94 86q0 41 28.5 67.5t74.5 26.5q52 0 82 -34t30 -95q0 -78 -40 -147t-115 -115l-35 47q88 79 96 164q-56 -9 -88.5 14.5t-32.5 71.5z" />
<glyph unicode="&#x201c;" horiz-adv-x="694" d="M94 1305q0 77 41 146t115 116l35 -49q-86 -77 -97 -162q56 9 88.5 -15t32.5 -71q0 -42 -27.5 -68t-72.5 -26q-52 0 -83.5 33.5t-31.5 95.5zM385 1305q0 77 41 146t115 116l34 -49q-85 -76 -96 -162q56 9 88.5 -15t32.5 -71q0 -42 -27.5 -68t-72.5 -26q-52 0 -83.5 33.5 t-31.5 95.5z" />
<glyph unicode="&#x201d;" horiz-adv-x="698" d="M94 1427q0 41 28.5 68t74.5 27q52 0 82 -34t30 -95q0 -78 -40 -147.5t-115 -115.5l-35 48q88 79 96 163q-56 -9 -88.5 14.5t-32.5 71.5zM389 1427q0 41 28.5 68t74.5 27q52 0 82 -34t30 -95q0 -78 -40 -147.5t-115 -115.5l-35 48q88 79 96 163q-56 -9 -88.5 14.5 t-32.5 71.5z" />
<glyph unicode="&#x201e;" horiz-adv-x="698" d="M94 86q0 41 28.5 67.5t74.5 26.5q52 0 82 -34t30 -95q0 -78 -40 -147t-115 -115l-35 47q88 79 96 164q-56 -9 -88.5 14.5t-32.5 71.5zM389 86q0 41 28.5 67.5t74.5 26.5q52 0 82 -34t30 -95q0 -78 -40 -147t-115 -115l-35 47q88 79 96 164q-56 -9 -88.5 14.5t-32.5 71.5z " />
<glyph unicode="&#x2022;" horiz-adv-x="831" d="M197 727q0 93 60.5 155t158.5 62q96 0 158.5 -62t62.5 -155q0 -94 -61.5 -155.5t-159.5 -61.5q-95 0 -157 62t-62 155zM285 727q0 -64 36 -102.5t95 -38.5q61 0 97 38t36 103q0 64 -37 102.5t-96 38.5q-60 0 -95.5 -39t-35.5 -102z" />
<glyph unicode="&#x2026;" horiz-adv-x="1843" d="M209 78q0 44 27 72t71 28q43 0 72 -28t29 -72q0 -43 -28 -70.5t-73 -27.5q-42 0 -70 28t-28 70zM823 78q0 44 27.5 72t71.5 28q43 0 71.5 -28t28.5 -72q0 -43 -27.5 -70.5t-72.5 -27.5q-42 0 -70.5 28t-28.5 70zM1438 78q0 44 27 72t71 28q43 0 71.5 -28t28.5 -72 q0 -43 -27.5 -70.5t-72.5 -27.5q-42 0 -70 28t-28 70z" />
<glyph unicode="&#x202f;" horiz-adv-x="376" />
<glyph unicode="&#x2039;" horiz-adv-x="712" d="M152 676v59l325 404l84 -70l-301 -364l301 -365l-84 -70z" />
<glyph unicode="&#x203a;" horiz-adv-x="712" d="M152 340l301 365l-301 364l84 70l325 -404v-59l-325 -406z" />
<glyph unicode="&#x205f;" horiz-adv-x="470" />
<glyph unicode="&#x20ac;" horiz-adv-x="1280" d="M115 510v102h166v168h-166v103h174q42 260 194 410.5t394 150.5q173 0 333 -80q0 -101 -32 -236h-84l16 172q-119 35 -231 35q-190 0 -309.5 -118.5t-155.5 -333.5h573l-18 -103h-559v-168h526l-18 -102h-494q32 -204 147.5 -315t288.5 -111q127 0 230 41q6 112 22 182 h74l6 -237q-77 -44 -154.5 -69.5t-179.5 -25.5q-228 0 -374.5 139t-192.5 396h-176z" />
<glyph unicode="&#x2122;" horiz-adv-x="1843" d="M59 1556h930l264 -534l267 530l215 11v-56q-26 -13 -72 -16v-705q41 0 70 -18v-51h-172v708l-254 -487l-101 -25l-266 523v-719h-172v51q29 18 72 18v682h-342v-682q42 0 71 -18v-51h-241v51q21 15 67 18v682h-250l9 -108h-64q-31 95 -31 196z" />
<glyph unicode="&#x25fc;" horiz-adv-x="1085" d="M0 0v1085h1085v-1085h-1085z" />
</font>
</defs>
</svg>
