<?xml version="1.0" standalone="no"?>
<!DOCTYPE svg PUBLIC "-//W3C//DTD SVG 1.1//EN" "http://www.w3.org/Graphics/SVG/1.1/DTD/svg11.dtd" >
<svg xmlns="http://www.w3.org/2000/svg">
<metadata></metadata>
<defs>
<font id="abezehmediumitalic" horiz-adv-x="1228" >
<font-face units-per-em="2048" ascent="1638" descent="-410" />
<missing-glyph horiz-adv-x="614" />
<glyph unicode="&#xfb01;" horiz-adv-x="1218" d="M-293 -406l82 160q70 -39 137 -39q60 0 99.5 39t52.5 117l172 967h-168l33 188h168l32 176q64 338 416 338q109 0 196.5 -27.5t174.5 -78.5l-88 -168q-73 40 -135 60t-138 20q-91 0 -140 -41.5t-64 -124.5l-29 -154h645l-2 -2l-180 -1024h-226l148 838h-418l-172 -975 q-31 -171 -130 -254.5t-236 -83.5q-139 0 -230 69z" />
<glyph unicode="&#xfb02;" horiz-adv-x="1351" d="M-293 -406l82 160q70 -39 137 -39q60 0 99.5 39t52.5 117l174 967h-170l33 188h170l32 176q61 338 416 338q213 0 449 -119l-185 -1050q-8 -44 -8 -78q0 -55 34.5 -89t96.5 -34q66 0 148 29l22 -179q-95 -45 -213 -45q-131 0 -223 77t-92 208q0 45 10 113l166 944 q-102 29 -193 29q-178 0 -208 -166l-27 -154h262l-78 -188h-217l-174 -975q-31 -171 -130 -254.5t-236 -83.5q-139 0 -230 69z" />
<glyph unicode="&#xfb03;" horiz-adv-x="1880" d="M-293 -406l82 160q70 -39 137 -39q60 0 99.5 39t52.5 117l172 967h-168l33 188h168l30 152q62 338 414 338q170 0 354 -93q108 117 314 117q109 0 195.5 -27.5t174.5 -78.5l-88 -168q-74 40 -135 60t-137 20q-175 0 -205 -166l-29 -154h646l-183 -1026h-225l147 838h-417 l-172 -975q-31 -171 -130.5 -254.5t-236.5 -83.5q-138 0 -229 69l82 160q70 -39 137 -39q60 0 99 39t52 117l172 967h-438l-172 -975q-31 -171 -130 -254.5t-236 -83.5q-139 0 -230 69zM508 1026h438l33 176q2 12 18 74q-120 53 -254 53q-93 0 -144.5 -41.5t-66.5 -128.5z " />
<glyph unicode="&#xfb04;" horiz-adv-x="2015" d="M-293 -406l82 160q70 -39 137 -39q60 0 99.5 39t52.5 117l172 967h-168l33 188h168l30 152q62 338 414 338q170 0 354 -93q108 117 316 117q212 0 448 -119l-2 -4l-184 -1046q-6 -49 -6 -78q0 -55 34.5 -89t94.5 -34q64 0 149 29l23 -179q-95 -45 -215 -45 q-131 0 -223.5 77t-92.5 208q0 46 13 113l166 944q-101 29 -193 29q-179 0 -209 -166l-26 -154h262l-78 -188h-217l-174 -975q-31 -171 -130.5 -254.5t-236.5 -83.5q-138 0 -229 69l82 160q70 -39 137 -39q60 0 99 39t52 117l174 967h-440l-172 -975q-31 -171 -130 -254.5 t-236 -83.5q-139 0 -230 69zM508 1026h440l33 176q6 39 18 74q-123 53 -256 53q-93 0 -144.5 -41.5t-66.5 -128.5z" />
<glyph horiz-adv-x="2048" />
<glyph horiz-adv-x="2048" />
<glyph unicode="&#xd;" horiz-adv-x="2048" />
<glyph unicode=" "  horiz-adv-x="614" />
<glyph unicode="&#x09;" horiz-adv-x="614" />
<glyph unicode="&#xa0;" horiz-adv-x="614" />
<glyph unicode="!" horiz-adv-x="663" d="M106 113q0 76 50 126t127 50q65 0 105 -39t40 -98q0 -77 -50 -127t-126 -50q-66 0 -106 39t-40 99zM225 451l62 516l94 526h242l-95 -526l-120 -516h-183z" />
<glyph unicode="&#x22;" horiz-adv-x="706" d="M158 946l67 488h215l-108 -488h-174zM520 946l68 488h213l-107 -488h-174z" />
<glyph unicode="#" horiz-adv-x="1386" d="M98 270l31 181h178l72 417h-180l30 181h183l49 270h205l-50 -270h330l49 270h205l-49 -270h182l-30 -181h-185l-74 -417h187l-31 -181h-186l-45 -270h-205l45 270h-330l-45 -270h-205l45 270h-176zM510 451h332l71 417h-329z" />
<glyph unicode="$" horiz-adv-x="1007" d="M-6 203l110 143q78 -59 163.5 -92t201.5 -33q125 0 194.5 51.5t69.5 149.5q0 75 -56.5 126t-209.5 105q-169 61 -244.5 142.5t-75.5 212.5q0 68 25 129t73.5 111t128.5 83t183 41l23 252h221l-68 -256q158 -18 305 -113l-96 -155q-147 94 -324 94q-124 0 -187.5 -45.5 t-63.5 -128.5q0 -69 50 -115t195 -98q180 -63 262 -152t82 -225q0 -172 -122.5 -278.5t-348.5 -112.5l-20 -250h-223l69 262q-190 35 -317 152z" />
<glyph unicode="%" horiz-adv-x="2023" d="M147 887q0 84 17 164t52.5 152t86.5 126.5t124.5 86.5t160.5 32q145 0 224 -89.5t79 -246.5q0 -84 -16.5 -163.5t-52.5 -152t-86.5 -127t-124 -86.5t-160.5 -32q-144 0 -224 90t-80 246zM348 881q0 -176 121 -176q67 0 119.5 62t78 155t25.5 196q0 176 -121 176 q-68 0 -120.5 -62t-77.5 -154.5t-25 -196.5zM436 10l1129 1483l135 -94l-1129 -1485zM1171 322q0 84 17 164t52.5 152t86.5 126.5t124.5 86.5t160.5 32q144 0 223.5 -89.5t79.5 -246.5q0 -84 -16.5 -163.5t-52.5 -152t-87 -127t-125 -86.5t-161 -32q-143 0 -222.5 89.5 t-79.5 246.5zM1370 315q0 -176 121 -176q67 0 119.5 62.5t78 155.5t25.5 196q0 176 -121 176q-67 0 -119.5 -62.5t-78 -155.5t-25.5 -196z" />
<glyph unicode="&#x26;" horiz-adv-x="1531" d="M141 362q0 153 92 255.5t265 148.5q-226 86 -226 291q0 180 137 290.5t343 110.5q215 0 389 -125l-101 -166q-77 48 -141 72.5t-143 24.5q-113 0 -180.5 -57.5t-67.5 -155.5q0 -93 80 -153t225 -60h389q99 0 159 19.5t101 57.5l64 -170q-39 -53 -102.5 -76.5 t-176.5 -23.5q-40 -330 -203 -500t-440 -170q-202 0 -332.5 107.5t-130.5 279.5zM383 379q0 -97 65 -151t175 -54q168 0 270 120t131 351h-291q-158 0 -254 -71t-96 -195z" />
<glyph unicode="'" horiz-adv-x="346" d="M158 946l67 488h215l-108 -488h-174z" />
<glyph unicode="(" horiz-adv-x="632" d="M133 399q0 315 126 609t343 555l127 -78q-186 -286 -279.5 -550.5t-93.5 -547.5q0 -178 20 -309.5t62 -278.5l-145 -57q-160 335 -160 657z" />
<glyph unicode=")" horiz-adv-x="632" d="M-53 -180q186 285 279 550t93 548q0 182 -19.5 313.5t-61.5 273.5l145 58q75 -159 117.5 -317.5t42.5 -342.5q0 -598 -469 -1161z" />
<glyph unicode="*" horiz-adv-x="921" d="M225 1245l88 164l205 -133l23 246l184 -33l-66 -236l242 54l23 -185l-240 -12l123 -211l-168 -80l-86 228l-162 -187l-129 135l187 154z" />
<glyph unicode="+" d="M215 606l35 189h305l57 327h215l-57 -327h303l-33 -189h-305l-57 -325h-215l57 325h-305z" />
<glyph unicode="," horiz-adv-x="612" d="M-96 -252q116 104 183.5 206.5t113.5 252.5l211 -70q-45 -173 -142.5 -289t-269.5 -194z" />
<glyph unicode="-" horiz-adv-x="1021" d="M162 602l37 197h719l-35 -197h-721z" />
<glyph unicode="." horiz-adv-x="618" d="M78 113q0 77 50 126.5t126 49.5q65 0 105 -39t40 -98q0 -77 -50 -127t-126 -50q-65 0 -105 39t-40 99z" />
<glyph unicode="/" horiz-adv-x="921" d="M-18 -59l852 1640l172 -84l-852 -1640z" />
<glyph unicode="0" horiz-adv-x="1234" d="M119 516q0 118 16.5 229.5t49 215t84.5 189t119.5 149.5t157.5 99.5t195 35.5q206 0 322.5 -146t116.5 -395q0 -142 -23 -274t-72.5 -250t-121.5 -205t-175.5 -138t-228.5 -51q-206 0 -323 146t-117 395zM360 516q0 -170 54.5 -255t158.5 -85q111 0 195 92.5t128 254.5 t44 370q0 169 -55 254.5t-160 85.5q-112 0 -195.5 -92.5t-126.5 -254.5t-43 -370z" />
<glyph unicode="1" horiz-adv-x="952" d="M39 0l37 201h289l165 948l-305 -166l-75 168l479 258h178l-213 -1208h237l-36 -201h-756z" />
<glyph unicode="2" horiz-adv-x="1011" d="M2 90q0 119 44 220t114 172.5t155 133.5t169.5 114.5t154.5 103.5t114 112t44 129q0 76 -50 120t-141 44q-154 0 -301 -117l-104 160q186 152 424 152q185 0 298 -99.5t113 -251.5q0 -70 -24.5 -133t-66.5 -112t-96.5 -94t-116 -85t-124 -79t-121 -80.5t-106 -85 t-80.5 -98.5t-43 -115h627l-35 -201h-840q-8 54 -8 90z" />
<glyph unicode="3" horiz-adv-x="1032" d="M-29 117l119 155q71 -50 141.5 -74.5t165.5 -23.5q130 2 207.5 67.5t77.5 184.5q0 106 -67.5 161.5t-196.5 55.5h-146l31 178h109q156 0 249 59t93 173q0 91 -55.5 138.5t-153.5 47.5q-145 0 -285 -90l-82 166q173 119 395 119q188 0 304 -103t116 -262q0 -73 -25 -131.5 t-69.5 -97t-98.5 -62.5t-118 -35q110 -26 175 -105t65 -206q0 -209 -148 -333t-383 -124q-259 0 -420 142z" />
<glyph unicode="4" horiz-adv-x="1124" d="M61 299l31 166l578 960l186 -86l-502 -845h346l97 387h194l-67 -387h155l-35 -195h-155l-51 -299h-224l52 299h-605z" />
<glyph unicode="5" horiz-adv-x="1064" d="M2 111l121 161q71 -50 141.5 -74t159.5 -24q140 0 226.5 74.5t86.5 204.5q0 105 -64.5 162t-187.5 57h-288l131 737h741l-35 -197h-526l-64 -346h97q207 0 322 -108.5t118 -288.5q1 -222 -157.5 -358t-403.5 -136q-129 0 -228.5 33.5t-189.5 102.5z" />
<glyph unicode="6" horiz-adv-x="1118" d="M94 479q0 190 59 359.5t165.5 298t268 203.5t355.5 75q88 0 150 -12l-29 -199q-54 13 -123 13q-227 0 -379 -125.5t-211 -354.5q133 164 340 164q171 0 279 -113.5t108 -298.5q0 -227 -143.5 -370.5t-376.5 -143.5q-206 0 -334.5 133t-128.5 371zM324 459 q0 -138 62 -211.5t179 -73.5q125 0 201 82.5t76 222.5q0 109 -55 170.5t-158 61.5q-86 0 -163.5 -46.5t-135.5 -129.5q-6 -43 -6 -76z" />
<glyph unicode="7" horiz-adv-x="997" d="M139 1212l35 197h948l-28 -168q-144 -120 -241.5 -221t-172.5 -205.5t-125 -226.5t-85.5 -259t-66.5 -329h-253q56 313 134.5 522.5t202.5 371.5t326 318h-674z" />
<glyph unicode="8" horiz-adv-x="1171" d="M57 356q0 154 94 251.5t289 162.5q-99 62 -142.5 127t-43.5 168q0 107 63 192t167 131t227 46q182 0 299.5 -102.5t117.5 -246.5q0 -128 -74 -208.5t-227 -131.5q131 -59 194.5 -142t63.5 -200q0 -131 -74 -230t-197 -149t-275 -49q-205 2 -343.5 109.5t-138.5 271.5z M289 375q0 -91 74 -148t192 -57q126 0 212.5 61.5t86.5 167.5q0 167 -242 258q-323 -71 -323 -282zM473 1061q0 -68 43 -116.5t141 -100.5q126 34 189 90t63 139q0 77 -57 127.5t-150 50.5q-97 0 -163 -50t-66 -140z" />
<glyph unicode="9" horiz-adv-x="1146" d="M66 135l139 144q57 -53 112 -79t129 -26q151 0 254.5 121.5t133.5 363.5q-128 -118 -312 -118q-101 0 -186.5 44.5t-139 133t-53.5 205.5q0 222 145.5 366t370.5 144q208 0 321.5 -128.5t113.5 -373.5q0 -291 -76 -506t-223.5 -333t-350.5 -118q-228 0 -378 160zM375 934 q0 -102 56 -156.5t149 -54.5q158 0 274 125q3 46 4 73t-1 73.5t-8.5 75.5t-21.5 64.5t-38.5 56t-60.5 34.5t-85 14q-121 0 -194.5 -84t-73.5 -221z" />
<glyph unicode=":" horiz-adv-x="614" d="M80 113q0 77 50 126.5t126 49.5q65 0 105 -39t40 -98q0 -77 -50 -127t-126 -50q-65 0 -105 39t-40 99zM209 856q0 75 50 125.5t126 50.5q65 0 105 -39.5t40 -99.5q0 -75 -50 -124.5t-126 -49.5q-65 0 -105 39t-40 98z" />
<glyph unicode=";" horiz-adv-x="628" d="M-96 -252q116 104 183.5 206.5t113.5 252.5l211 -70q-45 -173 -142.5 -289t-269.5 -194zM209 856q0 75 50 125.5t126 50.5q65 0 104 -39.5t39 -99.5q0 -75 -50 -124.5t-126 -49.5q-65 0 -104 38.5t-39 98.5z" />
<glyph unicode="&#x3c;" d="M244 633l24 137l733 414l82 -189l-577 -309l467 -307l-133 -160z" />
<glyph unicode="=" d="M199 418l32 190h791l-35 -190h-788zM266 801l33 190h791l-35 -190h-789z" />
<glyph unicode="&#x3e;" d="M205 408l577 307l-467 309l131 160l598 -414l-24 -139l-733 -412z" />
<glyph unicode="?" horiz-adv-x="1009" d="M201 1335q182 205 444 205q172 0 277.5 -94t105.5 -236q0 -75 -26.5 -135.5t-69.5 -102.5t-95.5 -78.5t-107 -71.5t-100.5 -73t-79.5 -91.5t-41.5 -118.5l-12 -88h-181q-12 66 -12 112q0 76 26.5 140t69 108.5t94 83.5t102.5 72t93.5 66.5t69 75t26.5 89.5 q0 66 -42 104.5t-119 38.5q-82 0 -149.5 -35t-133.5 -102zM225 113q0 76 49.5 126t124.5 50q66 0 106 -38.5t40 -98.5q0 -77 -50 -127t-126 -50q-65 0 -104.5 39t-39.5 99z" />
<glyph unicode="@" horiz-adv-x="2150" d="M102 324q0 239 86.5 449t236.5 359t359 234.5t447 85.5q189 0 343.5 -57.5t256 -158t156.5 -236t55 -293.5q0 -174 -45.5 -315.5t-123 -231t-177 -137.5t-211.5 -48q-107 0 -170 48t-72 139q0 23 2 37q-117 -199 -325 -199q-65 0 -125 25t-108.5 72t-77.5 123t-29 169 q0 176 79.5 314t219 213t315.5 75q171 0 340 -61l-119 -670q-4 -28 -4 -45q0 -82 98 -82q62 0 118 36.5t100.5 105t71 178.5t26.5 247q0 259 -160 411.5t-444 152.5q-192 0 -360.5 -72.5t-287 -196.5t-186.5 -296t-68 -365q0 -295 163 -455t436 -160q157 0 276 30t242 87 l39 -180q-252 -125 -564 -125q-175 0 -323.5 54.5t-256 154.5t-168.5 250.5t-61 333.5zM797 408q0 -112 45 -171t125 -59q99 0 176 78.5t104 220.5l60 328q-49 12 -131 12q-171 0 -275 -110.5t-104 -298.5z" />
<glyph unicode="A" horiz-adv-x="1394" d="M-51 94l780 1340h248l313 -1405l-227 -52l-82 396h-621l-221 -391zM467 569h475l-127 633z" />
<glyph unicode="B" horiz-adv-x="1267" d="M88 41l242 1376q216 41 403 41q122 0 221 -31.5t161 -85t95 -121.5t33 -143q0 -130 -82 -214t-235 -115q127 -33 196.5 -112t69.5 -200q0 -113 -51 -202t-140 -145t-205 -85t-251 -29q-253 0 -457 66zM352 201q100 -23 217 -23q181 0 278 64t97 194q0 104 -74.5 162.5 t-222.5 58.5h-213zM465 838h205q165 0 248 59t83 168q0 97 -68 149t-202 52q-102 0 -190 -15z" />
<glyph unicode="C" horiz-adv-x="1181" d="M106 584q0 185 56.5 345.5t157.5 277.5t250 184t327 67q202 0 369 -102l-99 -176q-65 37 -130 56t-156 19q-233 0 -381 -184t-148 -473q0 -206 98 -313t273 -107q93 0 166 19.5t153 58.5l39 -190q-172 -91 -387 -91q-263 0 -425.5 164t-162.5 445z" />
<glyph unicode="D" horiz-adv-x="1396" d="M90 43l240 1370q191 45 395 45q122 0 224.5 -33t176 -91.5t125 -138.5t76.5 -174t25 -198q0 -188 -57.5 -344.5t-163.5 -268t-264 -173.5t-351 -62q-229 0 -426 68zM354 197q85 -21 191 -21q260 0 409.5 170t149.5 463q0 219 -102.5 335t-288.5 116q-74 0 -174 -17z" />
<glyph unicode="E" horiz-adv-x="1126" d="M80 0l254 1434h887l-37 -201h-647l-70 -391h559l-35 -195h-557l-80 -446h650l-37 -201h-887z" />
<glyph unicode="F" horiz-adv-x="1081" d="M80 0l252 1434h878l-36 -201h-639l-72 -414h536l-34 -194h-537l-111 -625h-237z" />
<glyph unicode="G" horiz-adv-x="1396" d="M104 569q0 184 57 347t158.5 283t250.5 189.5t323 69.5q125 0 221 -32t189 -95l-109 -174q-74 49 -147.5 73.5t-169.5 24.5q-154 0 -274 -87t-186.5 -243.5t-66.5 -355.5q0 -188 78 -289.5t223 -101.5q137 0 234 84.5t125 245.5l14 92h-276l34 193h514l-82 -471 q-4 -28 -4 -50q0 -102 121 -102l-80 -186h-9q-100 0 -162 43q-64 45 -64 143q0 7 4 39q-128 -234 -414 -234q-104 0 -195 40t-159.5 113.5t-108 187.5t-39.5 253z" />
<glyph unicode="H" horiz-adv-x="1447" d="M80 0l252 1434h237l-102 -596h625l104 596h238l-252 -1434h-238l111 637h-625l-113 -637h-237z" />
<glyph unicode="I" horiz-adv-x="585" d="M80 0l252 1434h237l-252 -1434h-237z" />
<glyph unicode="J" horiz-adv-x="899" d="M-82 109l117 153q59 -45 108 -65.5t117 -20.5q89 0 144.5 55t78.5 179l185 1024h237l-184 -1041q-16 -93 -48.5 -165t-75 -119t-97.5 -77.5t-112.5 -43.5t-123.5 -13q-202 0 -346 134z" />
<glyph unicode="K" horiz-adv-x="1232" d="M80 0l252 1434h237l-108 -623l686 627l141 -154l-637 -563l324 -410q57 -73 106 -100t123 -27l-86 -200q-103 0 -174.5 43t-148.5 145l-363 469l-115 -641h-237z" />
<glyph unicode="L" horiz-adv-x="1052" d="M80 0l252 1434h237l-213 -1223h635l-39 -211h-872z" />
<glyph unicode="M" horiz-adv-x="1718" d="M80 0l252 1434h305l211 -902l512 902h344l-252 -1434h-238l199 1130l-491 -837h-217l-199 842l-199 -1135h-227z" />
<glyph unicode="N" horiz-adv-x="1449" d="M80 0l254 1434h293l381 -1141l200 1141h228l-254 -1434h-299l-377 1130l-199 -1130h-227z" />
<glyph unicode="O" horiz-adv-x="1552" d="M111 623q0 162 53.5 312t151 266.5t247 186.5t328.5 70q190 0 331.5 -85t214 -231t72.5 -331q0 -129 -33.5 -252t-100.5 -228.5t-159.5 -185t-218.5 -125t-270 -45.5q-190 0 -331 85.5t-213 231t-72 331.5zM358 623q0 -205 99 -326t288 -121q156 0 275.5 88t180.5 231 t61 316q0 205 -100.5 325.5t-289.5 120.5q-118 0 -216 -51t-162.5 -138t-100 -201.5t-35.5 -243.5z" />
<glyph unicode="P" horiz-adv-x="1220" d="M80 0l248 1411q195 39 397 39q128 0 231.5 -35t169 -95.5t100 -139t34.5 -168.5q-1 -166 -86 -283.5t-223.5 -173t-315.5 -55.5q-125 0 -223 20l-95 -520h-237zM444 713q81 -19 197 -19q171 0 274.5 78.5t104.5 231.5q0 115 -77 183t-226 68q-91 0 -180 -14z" />
<glyph unicode="Q" horiz-adv-x="1566" d="M111 623q0 162 53.5 312t151 266.5t247 186.5t328.5 70q190 0 331.5 -85t214 -231t72.5 -331q0 -156 -53.5 -304.5t-152.5 -264.5q96 -71 202 -74l-82 -193q-68 0 -123.5 28t-138.5 108q-193 -136 -434 -136q-190 0 -331 85.5t-213 231t-72 331.5zM358 623 q0 -205 98.5 -326t284.5 -121q156 0 269 72l-152 135l141 145l144 -153q119 169 119 436q0 205 -100.5 325.5t-289.5 120.5q-118 0 -216 -51t-162.5 -138t-100 -201.5t-35.5 -243.5z" />
<glyph unicode="R" horiz-adv-x="1280" d="M82 2l248 1415q208 43 403 43q123 0 220.5 -31.5t158.5 -86.5t93 -125.5t32 -151.5q-1 -74 -23 -135t-57.5 -102.5t-86 -74t-101.5 -51t-111 -30.5q55 -19 95 -56.5t62 -82t38.5 -94t30.5 -94.5t32.5 -82t50 -59t76.5 -22l-84 -198q-61 0 -108.5 21t-77.5 56.5t-53.5 82 t-40.5 97.5t-33.5 102t-38 97.5t-48.5 82t-70 56.5t-99 21h-164l-107 -598h-237zM461 795h186q166 0 257.5 64.5t92.5 193.5q0 215 -264 215q-95 0 -194 -15z" />
<glyph unicode="S" horiz-adv-x="1110" d="M-14 156l123 159q87 -65 182 -101t223 -36q139 0 216 56.5t77 164.5q0 84 -63 141t-232 117q-189 69 -272.5 159t-83.5 235q0 83 32 155t94.5 129t166 90t235.5 33q143 0 251.5 -33t211.5 -98l-107 -174q-168 107 -362 107q-137 0 -208 -52t-71 -143q0 -77 56 -128 t219 -110q199 -71 290 -169t91 -246q0 -199 -144 -318t-409 -119q-161 0 -293.5 50t-222.5 131z" />
<glyph unicode="T" horiz-adv-x="1134" d="M125 1229l37 205h1110l-37 -205h-436l-217 -1229h-238l217 1229h-436z" />
<glyph unicode="U" horiz-adv-x="1409" d="M129 371q0 59 25 213l149 850h238l-158 -877q-16 -106 -16 -166q0 -104 56.5 -158.5t156.5 -54.5q66 0 130.5 29t122.5 85t102 149t64 210l138 783h237l-196 -1112q-4 -28 -4 -50q0 -102 120 -102l-80 -186h-9q-103 0 -163 44q-64 46 -63 146q0 36 14 94 q-175 -293 -473 -293q-166 0 -278.5 108t-112.5 288z" />
<glyph unicode="V" horiz-adv-x="1335" d="M143 1409l244 47l215 -1196l633 1192l203 -102l-746 -1350h-254z" />
<glyph unicode="W" horiz-adv-x="1935" d="M182 1419l244 29l98 -1182l447 1039h276l80 -1039l510 1178l209 -80l-621 -1364h-276l-82 1055l-453 -1055h-276z" />
<glyph unicode="X" horiz-adv-x="1255" d="M-59 137l579 600l-366 598l204 119l314 -567l497 563l166 -154l-544 -567l387 -633l-203 -119l-338 594l-531 -589z" />
<glyph unicode="Y" horiz-adv-x="1179" d="M-18 88l110 150q44 -33 85.5 -48.5t98.5 -15.5q73 0 128.5 42.5t109.5 139.5l55 101l-297 665q-31 66 -65.5 92.5t-89.5 26.5l65 193q125 0 187.5 -55t128.5 -214l209 -497l421 786l193 -102l-588 -1037q-108 -191 -213.5 -265.5t-251.5 -74.5q-163 0 -286 113z" />
<glyph unicode="Z" horiz-adv-x="1107" d="M-55 0l32 182l900 1051h-676l35 201h972l-30 -174l-908 -1051h748l-39 -209h-1034z" />
<glyph unicode="[" horiz-adv-x="622" d="M31 -205l303 1721h387l-31 -183h-190l-242 -1356h191l-33 -182h-385z" />
<glyph unicode="\" horiz-adv-x="921" d="M260 1546l191 37l288 -1696l-190 -32z" />
<glyph unicode="]" horiz-adv-x="622" d="M-55 -205l32 182h191l242 1356h-193l33 183h387l-305 -1721h-387z" />
<glyph unicode="^" d="M289 1163l442 353h115l315 -361l-153 -139l-242 301l-356 -301z" />
<glyph unicode="_" horiz-adv-x="1220" d="M-137 -252l24 156h1223l-29 -156h-1218z" />
<glyph unicode="`" horiz-adv-x="657" d="M217 1417l102 201l420 -275l-86 -143z" />
<glyph unicode="a" horiz-adv-x="1202" d="M57 424q0 194 87 346t240 235.5t345 84.5q192 0 385 -76l-123 -686q-6 -60 -6 -62q0 -102 123 -102l-78 -174q-235 0 -235 203v4q-62 -110 -147 -166t-206 -56q-160 0 -272.5 123.5t-112.5 325.5zM287 428q0 -126 56 -193q54 -65 144 -65h5q117 0 200 98t115 281l57 334 q-72 20 -155 20q-190 -1 -306 -133t-116 -342z" />
<glyph unicode="b" horiz-adv-x="1171" d="M63 39l263 1477h219l-113 -644q119 218 344 218q152 0 249 -109t97 -287q0 -156 -55 -290t-150.5 -228t-230 -147.5t-289.5 -53.5q-203 0 -334 64zM313 180q58 -10 125 -10q198 0 326.5 143t128.5 373q0 101 -46 157t-132 56q-114 0 -215 -118t-140 -341z" />
<glyph unicode="c" horiz-adv-x="964" d="M63 465q0 127 43.5 241t121 199t192.5 135t250 50q180 0 319 -95l-90 -172q-111 72 -235 72q-165 0 -268 -120t-103 -304q0 -142 72 -221.5t198 -79.5q69 0 122 15.5t116 45.5l45 -182q-137 -74 -309 -74q-208 0 -341 134.5t-133 355.5z" />
<glyph unicode="d" horiz-adv-x="1232" d="M68 422q0 143 45.5 269.5t119.5 212.5t170.5 136t198.5 50q98 0 173 -45.5t118 -122.5l104 594h226l-209 -1188q-6 -30 -6 -62q0 -102 122 -102l-77 -174q-117 0 -179 52q-59 50 -59 142v9v4q-62 -111 -147.5 -166.5t-206.5 -55.5q-79 0 -150.5 32t-125.5 88.5 t-85.5 141.5t-31.5 185zM297 434q0 -128 56 -196t155 -68q117 0 202.5 97t116.5 280l35 194q-37 74 -100 116t-139 42q-139 0 -232.5 -127.5t-93.5 -337.5z" />
<glyph unicode="e" horiz-adv-x="1062" d="M63 463q0 170 70.5 312t204.5 228.5t305 86.5q177 0 282 -96.5t105 -233.5q0 -82 -30 -146.5t-79.5 -105.5t-117.5 -68t-139 -38t-150 -11q-136 0 -223 23l2 -19q15 -110 86 -168.5t194 -58.5q148 0 316 76l16 -189q-171 -80 -354 -80q-223 0 -355.5 130.5t-132.5 357.5z M295 586q93 -19 197 -19q311 0 311 187q0 66 -47 106.5t-131 40.5q-125 0 -215 -87t-115 -228z" />
<glyph unicode="f" horiz-adv-x="755" d="M-328 -403l82 161q73 -43 156 -43q138 0 172 176l168 947h-168l33 188h168l32 176q33 173 135.5 255.5t262.5 82.5q167 0 327 -104l-84 -162q-66 36 -117.5 54t-115.5 18q-156 0 -186 -166l-29 -154h305l-33 -188h-305l-170 -961q-34 -183 -136 -267.5t-251 -84.5 q-145 0 -246 72z" />
<glyph unicode="g" horiz-adv-x="1185" d="M57 -332l113 150q131 -103 270 -103q108 0 178.5 65t102.5 222l35 172q-57 -89 -132 -131.5t-178 -42.5q-75 0 -144.5 30t-123.5 84t-86.5 138t-32.5 184q0 295 188.5 473.5t485.5 180.5q192 0 385 -76l-180 -1018q-86 -471 -500 -471q-221 0 -381 143zM289 440 q0 -120 55 -184q54 -61 146 -61h6q119 0 200.5 88t114.5 272l57 328q-72 20 -155 20q-194 -2 -309 -126t-115 -337z" />
<glyph unicode="h" horiz-adv-x="1206" d="M59 0l267 1516h225l-113 -637q60 98 149.5 154.5t203.5 56.5q136 0 221.5 -88t85.5 -226q0 -51 -17 -153l-108 -623h-225l112 647q12 71 12 109q0 66 -39.5 103.5t-107.5 37.5q-53 0 -107.5 -27.5t-104 -78.5t-88.5 -133t-56 -183l2 12l-86 -487h-226z" />
<glyph unicode="i" horiz-adv-x="530" d="M59 0l187 1065h225l-186 -1065h-226zM262 1368q0 76 47.5 123t120.5 47q64 0 103.5 -39t39.5 -98q0 -74 -48 -122t-119 -48q-65 0 -104.5 38.5t-39.5 98.5z" />
<glyph unicode="j" horiz-adv-x="542" d="M-358 -403l82 161q73 -43 155 -43q138 0 172 176l207 1174h225l-209 -1188q-34 -183 -136 -267.5t-251 -84.5q-147 0 -245 72zM272 1368q0 76 47.5 123t120.5 47q64 0 104 -39t40 -98q0 -74 -48.5 -122t-119.5 -48q-65 0 -104.5 38.5t-39.5 98.5z" />
<glyph unicode="k" horiz-adv-x="1114" d="M59 0l267 1516h225l-107 -601q119 175 324 175q136 0 223.5 -83t87.5 -208q0 -154 -105 -231.5t-280 -82.5h-22l155 -217q42 -57 83.5 -80.5t95.5 -23.5l-78 -174q-96 0 -154 35.5t-117 132.5l-206 354l28 117q71 -23 144 -23q112 0 171.5 43.5t59.5 130.5 q0 63 -39 100.5t-108 37.5q-118 0 -207.5 -96.5t-122.5 -295.5l-92 -526h-226z" />
<glyph unicode="l" horiz-adv-x="675" d="M86 260q0 45 10 113l201 1143h225l-200 -1145q-9 -50 -9 -78q0 -55 34.5 -89t96.5 -34q66 0 148 29l22 -179q-95 -45 -213 -45q-131 0 -223 77t-92 208z" />
<glyph unicode="m" horiz-adv-x="1816" d="M59 0l187 1065h203l-37 -201q126 226 354 226q111 0 187.5 -66t97.5 -172q133 238 364 238q128 0 209.5 -87t81.5 -219q0 -79 -14 -153l-111 -631h-225l114 653q11 65 11 111q0 62 -34.5 97.5t-98.5 35.5q-103 0 -200 -114t-132 -308v6l-84 -481h-225l114 653 q10 59 10 109q0 63 -34 99t-97 36q-105 0 -201.5 -114t-131.5 -308l-82 -475h-226z" />
<glyph unicode="n" horiz-adv-x="1206" d="M59 0l187 1065h203l-39 -213q58 110 154.5 174t223.5 64q136 0 222 -88t86 -226q0 -63 -15 -153l-110 -623h-226l115 647q10 59 10 109q0 66 -38.5 103.5t-106.5 37.5q-113 0 -218 -112.5t-140 -309.5l-82 -475h-226z" />
<glyph unicode="o" horiz-adv-x="1220" d="M63 461q0 175 73.5 318t210 227t310.5 84q221 0 360.5 -137t139.5 -349q0 -174 -74 -317.5t-210.5 -227.5t-309.5 -84q-223 0 -361.5 137t-138.5 349zM293 469q0 -134 74 -216.5t202 -82.5q165 0 262 118.5t97 307.5q0 134 -75 216.5t-202 82.5q-166 0 -262 -118 t-96 -308z" />
<glyph unicode="p" horiz-adv-x="1226" d="M4 -451l207 1180q6 27 6 59q0 105 -121 105l76 174q118 0 178 -50.5t64 -156.5q0 -10 -2 -14q127 244 370 244q168 0 271.5 -126.5t103.5 -318.5q0 -148 -45 -276t-119 -213t-168 -133t-192 -48q-97 0 -173 44t-124 120l-107 -590h-225zM367 322q90 -152 233 -152 q142 0 235 128t93 349q0 118 -51.5 185t-145.5 67q-118 0 -209.5 -105.5t-124.5 -291.5z" />
<glyph unicode="q" horiz-adv-x="1171" d="M57 418q0 197 87 351t240 237.5t345 83.5q186 0 375 -76l-258 -1465h-225l110 601q-59 -88 -130 -131.5t-169 -43.5q-73 0 -140.5 31.5t-119.5 87.5t-83.5 140.5t-31.5 183.5zM287 424q0 -123 53.5 -188.5t142.5 -65.5q117 0 199.5 102.5t118.5 309.5l53 301 q-68 20 -147 20q-188 0 -304 -133t-116 -346z" />
<glyph unicode="r" horiz-adv-x="815" d="M82 0l129 729q6 27 6 59q0 105 -123 105l78 174q118 0 178 -51.5t66 -165.5q0 -4 -1 -13t-1 -12q108 265 364 265q79 0 146 -29l-95 -211q-52 20 -110 20q-53 0 -102.5 -23.5t-95 -72t-81.5 -133.5t-55 -197l-78 -444h-225z" />
<glyph unicode="s" horiz-adv-x="917" d="M-25 104l105 164q140 -98 311 -98q104 0 157.5 31t53.5 90q0 55 -42 90.5t-179 87.5q-155 58 -216 129t-61 180q0 137 111 224.5t303 87.5q209 0 387 -101l-86 -166q-144 82 -301 82q-92 0 -140 -30t-48 -82q0 -51 41.5 -85t163.5 -79q164 -62 230 -136.5t66 -185.5 q0 -160 -120 -246t-322 -86q-243 0 -414 129z" />
<glyph unicode="t" horiz-adv-x="776" d="M51 838l31 188h188l103 336h174l-60 -336h287l-31 -188h-288l-78 -449q-10 -55 -10 -90q0 -61 38 -95t103 -34q73 0 174 43l27 -176q-124 -62 -250 -62q-135 0 -228.5 78.5t-93.5 214.5q0 37 15 133l77 437h-178z" />
<glyph unicode="u" horiz-adv-x="1177" d="M86 287q0 71 14 155l109 623h225l-112 -647q-11 -67 -11 -109q0 -65 38.5 -102t105.5 -37q114 0 205 98t122 277l92 520h226l-129 -737q-6 -30 -6 -62q0 -102 120 -102l-75 -174q-238 0 -238 211q0 1 -1 3t-1 3q-73 -120 -162.5 -176t-216.5 -56q-133 0 -219 87.5 t-86 224.5z" />
<glyph unicode="v" horiz-adv-x="1079" d="M63 1032l213 55l185 -854l485 854l182 -106l-593 -981h-224z" />
<glyph unicode="w" horiz-adv-x="1595" d="M88 1049l215 30l117 -835l342 766h223l74 -766l403 835l187 -94l-514 -985h-234l-70 772l-342 -772h-235z" />
<glyph unicode="x" horiz-adv-x="1040" d="M-47 121l438 428l-287 420l185 114l243 -405l388 405l145 -139l-422 -412l305 -436l-184 -116l-260 421l-408 -421z" />
<glyph unicode="y" horiz-adv-x="1148" d="M43 -334l113 150q131 -101 264 -101q104 0 174 66t102 225l35 191q-123 -197 -336 -197q-135 0 -221 86t-86 225q0 56 14 148l107 606h225l-108 -629q-11 -56 -11 -96q0 -68 40.5 -106.5t107.5 -38.5q108 0 199 100t126 291l84 479h226l-187 -1071 q-44 -246 -172.5 -357.5t-320.5 -111.5q-216 0 -375 141z" />
<glyph unicode="z" horiz-adv-x="966" d="M-27 0l31 176l670 696h-533l33 193h819l-28 -168l-674 -696h561l-35 -201h-844z" />
<glyph unicode="{" horiz-adv-x="753" d="M90 573l31 164q56 11 90 27t65 52t51 96.5t38 158.5q29 174 83.5 274t154 152t265.5 64l-26 -148q-82 -14 -131.5 -48.5t-82.5 -107t-55 -198.5q-19 -113 -41 -182t-58 -114.5t-82 -68t-120 -37.5q91 -34 135 -89.5t44 -149.5q0 -51 -17.5 -160.5t-17.5 -171.5 q0 -86 37.5 -128.5t121.5 -61.5l-26 -148q-344 57 -344 332q0 57 16.5 162.5t16.5 165.5q0 73 -36 113t-112 52z" />
<glyph unicode="|" horiz-adv-x="694" d="M117 -205l315 1782h201l-316 -1782h-200z" />
<glyph unicode="}" horiz-adv-x="753" d="M-72 -252l27 148q82 14 131 48.5t81.5 106t55.5 197.5q19 113 41 182t58 114.5t81.5 68t120.5 38.5q-90 32 -134 88t-44 152q0 51 17.5 160t17.5 170q0 86 -37.5 128.5t-122.5 63.5l27 148q344 -57 344 -332q0 -57 -16.5 -162.5t-16.5 -165.5q0 -145 148 -166l-31 -164 q-57 -12 -90.5 -27.5t-64.5 -51.5t-51 -96.5t-38 -159.5q-29 -173 -83.5 -273t-154.5 -152.5t-266 -62.5z" />
<glyph unicode="~" d="M168 668q60 57 135.5 99t149.5 42q52 0 103 -18t86 -39.5t80.5 -39.5t86.5 -18q61 0 114 27.5t119 79.5l60 -158q-152 -141 -295 -141q-51 0 -103 18t-88.5 39t-83.5 39t-88 18q-96 0 -219 -102z" />
<glyph unicode="&#xa1;" horiz-adv-x="663" d="M47 -451l84 484l121 518h182l-61 -518l-84 -484h-242zM231 856q0 75 50.5 125.5t126.5 50.5q65 0 105 -39.5t40 -99.5q0 -75 -50 -124.5t-126 -49.5q-65 0 -105.5 39t-40.5 98z" />
<glyph unicode="&#xa2;" horiz-adv-x="942" d="M74 522q0 160 65.5 295.5t190 224t286.5 103.5l19 225h221l-61 -233q105 -17 204 -84l-90 -172q-109 71 -235 71q-165 0 -268 -120t-103 -304q0 -142 72 -221.5t198 -79.5q48 0 94 10t74 21t70 31l45 -183q-113 -60 -258 -71l-18 -236h-222l66 248q-159 36 -254.5 162.5 t-95.5 312.5z" />
<glyph unicode="&#xa3;" horiz-adv-x="1040" d="M31 0l30 172q99 111 146 203.5t82 249.5h-150l35 186h150l43 248q66 375 430 375q172 0 323 -113l-98 -152q-120 78 -219 78q-87 0 -141 -49t-76 -164l-41 -223h329l-34 -186h-326q-29 -151 -75.5 -242.5t-127.5 -181.5h645l-32 -201h-893z" />
<glyph unicode="&#xa4;" horiz-adv-x="1224" d="M129 297l154 152q-62 99 -62 200q0 176 119 295l-104 150l172 118l98 -157q81 35 176 35q78 0 164 -39l145 161l146 -137l-148 -147q64 -94 64 -203q0 -175 -117 -295l108 -151l-176 -123l-96 161q-85 -32 -174 -32q-101 0 -174 43l-152 -168zM434 659q0 -89 50.5 -142.5 t133.5 -53.5q102 0 163 72.5t61 177.5q0 91 -49 144.5t-131 53.5q-104 0 -166 -72.5t-62 -179.5z" />
<glyph unicode="&#xa5;" d="M121 223l31 172h311l20 125h-309l31 172h219l-279 643l209 99l277 -723l524 723l184 -115l-489 -627h213l-31 -172h-309l-23 -125h310l-31 -172h-309l-39 -223h-240l41 223h-311z" />
<glyph unicode="&#xa6;" horiz-adv-x="696" d="M119 -205l133 768h203l-136 -768h-200zM299 827l133 750h201l-131 -750h-203z" />
<glyph unicode="&#xa7;" horiz-adv-x="1222" d="M133 6l103 150q118 -78 260 -78q95 0 148.5 27.5t53.5 78.5q0 47 -39.5 80.5t-164.5 93.5q-136 66 -192 132t-56 161q0 213 293 316q-88 51 -127 101.5t-39 129.5q0 126 111.5 205.5t283.5 79.5q187 0 338 -90l-86 -146q-120 70 -254 70q-78 0 -129 -30.5t-51 -82.5 q0 -47 41.5 -81t175.5 -99q129 -63 181 -132t52 -159q0 -114 -77.5 -188t-215.5 -123q172 -82 172 -229q0 -95 -63 -163t-157 -98t-206 -30q-213 0 -356 104zM459 672q0 -55 32 -91.5t117 -72.5q94 31 155.5 85.5t61.5 121.5q0 106 -141 168q-97 -23 -161 -79.5t-64 -131.5z " />
<glyph unicode="&#xa8;" horiz-adv-x="817" d="M211 1356q0 70 44.5 115t111.5 45q59 0 95 -36.5t36 -88.5q0 -71 -45 -115.5t-111 -44.5q-61 0 -96 36t-35 89zM618 1356q0 70 44.5 115t111.5 45q59 0 95 -36.5t36 -88.5q0 -71 -44.5 -115.5t-110.5 -44.5q-61 0 -96.5 36t-35.5 89z" />
<glyph unicode="&#xa9;" horiz-adv-x="1536" d="M61 616q0 174 56.5 327.5t159 268t257 180.5t340.5 66q304 0 484 -178.5t180 -462.5q0 -174 -56.5 -327.5t-159 -268t-257 -180.5t-340.5 -66q-304 0 -484 178.5t-180 462.5zM242 616q0 -222 131 -354.5t360 -132.5q185 0 328 88.5t220 245t77 354.5q0 223 -131 355.5 t-361 132.5q-185 0 -328 -89t-219.5 -245.5t-76.5 -354.5zM430 643q0 222 133.5 371t335.5 149q132 0 244 -73l-74 -146q-84 53 -176 53q-116 0 -194 -97t-78 -249q0 -101 51 -156t133 -55q85 0 192 49l31 -149q-121 -66 -250 -66q-155 0 -251.5 99.5t-96.5 269.5z" />
<glyph unicode="&#xaa;" horiz-adv-x="1218" d="M193 270l32 185h709l-35 -185h-706zM260 975q0 209 145 341t369 132q149 0 291 -49l-90 -457q-6 -24 -6 -51q0 -33 22 -52.5t64 -19.5l-70 -151q-170 0 -182 149v8q-101 -163 -264 -163q-113 0 -196 84t-83 229zM459 991q0 -80 36 -123t95 -43q72 0 134.5 67.5 t86.5 203.5l35 182q-40 8 -90 8q-131 0 -214 -83.5t-83 -211.5z" />
<glyph unicode="&#xab;" horiz-adv-x="1165" d="M158 653l18 103l393 399l129 -139l-344 -328l219 -321l-163 -113zM580 653l20 103l391 399l129 -139l-344 -328l221 -321l-163 -113z" />
<glyph unicode="&#xac;" horiz-adv-x="1222" d="M141 600l37 199h963l-92 -527h-222l58 328h-744z" />
<glyph unicode="&#xad;" horiz-adv-x="1021" d="M162 602l37 197h719l-35 -197h-721z" />
<glyph unicode="&#xae;" horiz-adv-x="1536" d="M45 616q0 174 56.5 327.5t159 268t257 180.5t340.5 66q304 0 483 -178.5t179 -462.5q0 -174 -56.5 -327.5t-159 -268t-257 -180.5t-340.5 -66q-304 0 -483 178.5t-179 462.5zM225 616q0 -222 130.5 -354.5t361.5 -132.5q185 0 328 88.5t219.5 245t76.5 354.5 q0 222 -131 355t-360 133q-185 0 -328 -89t-220 -245.5t-77 -354.5zM422 315l145 809q136 25 246 25q141 0 224 -70.5t83 -171.5q0 -90 -57.5 -144t-161.5 -69q46 -17 74 -48t38.5 -62.5t20 -60.5t29 -47t55.5 -19l-69 -154q-49 0 -83 18.5t-52 47.5t-31 64t-26.5 69.5 t-32 63.5t-54 47t-86.5 18h-29l-57 -316h-176zM680 778h96q76 0 118 32t42 89q0 45 -32 72.5t-97 27.5q-49 0 -90 -6z" />
<glyph unicode="&#xaf;" horiz-adv-x="749" d="M190 1266l33 178h625l-31 -178h-627z" />
<glyph unicode="&#xb0;" horiz-adv-x="874" d="M244 1190q0 141 97 233.5t241 92.5q123 0 200.5 -75.5t77.5 -187.5q0 -143 -97 -234t-241 -91q-123 0 -200.5 74t-77.5 188zM434 1194q0 -48 28 -78.5t75 -30.5q56 0 94.5 45t38.5 119q0 48 -28 78.5t-75 30.5q-56 0 -94.5 -45.5t-38.5 -118.5z" />
<glyph unicode="&#xb1;" d="M168 160l35 198h794l-34 -198h-795zM246 811l35 188h290l52 295h215l-52 -295h289l-35 -188h-288l-52 -295h-215l52 295h-291z" />
<glyph unicode="&#xb2;" horiz-adv-x="921" d="M137 639q0 75 28 137.5t73 105.5t99.5 79.5t109 65.5t99.5 56.5t73 59.5t28 67q0 38 -30.5 62t-79.5 24q-104 0 -197 -75l-88 116q133 111 309 111q126 0 206.5 -66t80.5 -165q0 -74 -44 -131.5t-110 -96t-134.5 -74t-128 -84.5t-79.5 -108h424l-31 -158h-600 q-8 33 -8 74z" />
<glyph unicode="&#xb3;" horiz-adv-x="921" d="M119 651l100 117q103 -66 203 -66q79 0 126.5 35t47.5 99q0 52 -40 81t-114 29h-147l27 139h129q85 0 138.5 32t53.5 91q0 42 -32.5 67t-88.5 25q-96 0 -192 -61l-78 121q127 88 293 88q129 0 211 -67.5t82 -157.5q0 -159 -193 -207q150 -47 150 -185 q0 -123 -102.5 -201.5t-272.5 -78.5q-181 0 -301 100z" />
<glyph unicode="&#xb4;" horiz-adv-x="630" d="M205 1343l426 275l96 -201l-444 -217z" />
<glyph unicode="&#xb6;" horiz-adv-x="1390" d="M135 1151q3 197 150.5 320.5t388.5 123.5q176 0 364 -45l-297 -1681h-211l160 909q-41 -10 -133 -10q-187 0 -306 105.5t-116 277.5zM352 1163q-3 -102 58 -158.5t180 -56.5q68 0 133 10l78 443q-90 12 -150 12q-140 0 -218 -66t-81 -184zM874 -131l302 1708h210 l-301 -1708h-211z" />
<glyph unicode="&#xb7;" horiz-adv-x="608" d="M178 711q0 75 50 125.5t126 50.5q65 0 105.5 -39.5t40.5 -99.5q0 -75 -50 -125t-126 -50q-65 0 -105.5 39.5t-40.5 98.5z" />
<glyph unicode="&#xb8;" horiz-adv-x="645" d="M-115 -461l84 144q64 -33 150 -33q110 0 110 71q0 37 -44.5 57.5t-161.5 20.5l110 201h166l-59 -111q93 -6 144.5 -50.5t51.5 -121.5q0 -106 -88 -167.5t-227 -61.5q-144 0 -236 51z" />
<glyph unicode="&#xb9;" horiz-adv-x="921" d="M180 565l29 152h194l103 506l-182 -111l-78 137l348 185h145l-147 -717h166l-33 -152h-545z" />
<glyph unicode="&#xba;" horiz-adv-x="1234" d="M193 270l32 185h709l-35 -185h-706zM285 1001q0 190 124.5 318.5t319.5 128.5q163 0 264 -96t101 -246q0 -190 -125 -318.5t-322 -128.5q-162 0 -262 96t-100 246zM479 1010q0 -84 48 -135.5t132 -51.5q106 0 172 78.5t66 198.5q0 83 -48 133.5t-130 50.5 q-108 0 -174 -77t-66 -197z" />
<glyph unicode="&#xbb;" horiz-adv-x="1165" d="M113 393l344 328l-219 321l163 113l252 -399l-18 -103l-393 -399zM535 393l346 328l-222 321l164 113l252 -399l-18 -103l-391 -399z" />
<glyph unicode="&#xbc;" horiz-adv-x="2066" d="M180 565l29 152h194l103 506l-182 -111l-78 137l348 185h145l-147 -717h166l-33 -152h-545zM459 10l1128 1483l135 -94l-1128 -1485zM1200 172l21 121l395 588l153 -74l-323 -483h199l65 211h152l-39 -211h106l-28 -152h-107l-33 -172h-178l33 172h-416z" />
<glyph unicode="&#xbd;" horiz-adv-x="2148" d="M180 565l29 152h194l103 506l-182 -111l-78 137l348 185h145l-147 -717h166l-33 -152h-545zM459 10l1128 1483l135 -94l-1128 -1485zM1284 74q0 75 28 137.5t73 105.5t99.5 79.5t109 65.5t99.5 56.5t73 59.5t28 67q0 38 -31 62t-80 24q-102 0 -196 -76l-88 117 q133 111 309 111q126 0 206.5 -66.5t80.5 -165.5q0 -54 -23.5 -99t-62 -77.5t-86 -60.5t-98.5 -55t-95.5 -54.5t-80 -65t-50.5 -81.5h424l-31 -158h-600q-8 33 -8 74z" />
<glyph unicode="&#xbe;" horiz-adv-x="2086" d="M119 651l100 117q103 -66 203 -66q79 0 126.5 35t47.5 99q0 52 -40 81t-114 29h-147l27 139h129q85 0 138.5 32t53.5 91q0 42 -32.5 67t-88.5 25q-96 0 -192 -61l-78 121q127 88 293 88q129 0 211 -67.5t82 -157.5q0 -159 -193 -207q150 -47 150 -185 q0 -123 -102.5 -201.5t-272.5 -78.5q-181 0 -301 100zM459 10l1128 1483l135 -94l-1128 -1485zM1221 172l20 121l395 588l154 -74l-324 -483h199l66 211h151l-39 -211h107l-29 -152h-106l-33 -172h-178l32 172h-415z" />
<glyph unicode="&#xbf;" horiz-adv-x="1009" d="M-29 -162q0 73 26.5 132.5t70 99.5t96 74.5t107 66.5t101 66.5t79.5 82.5t41 107l10 90h182q10 -58 10 -115q0 -71 -26.5 -129.5t-69 -99t-93.5 -75.5t-102.5 -65.5t-94 -61.5t-69 -71t-26.5 -87q0 -60 42 -94.5t118 -34.5q84 0 151 34.5t135 102.5l138 -131 q-179 -205 -447 -205q-167 0 -273 88t-106 225zM457 856q0 75 50 125.5t126 50.5q65 0 104 -39.5t39 -99.5q0 -75 -50 -124.5t-126 -49.5q-65 0 -104 38.5t-39 98.5z" />
<glyph unicode="&#xc0;" horiz-adv-x="1394" d="M-51 94l780 1340h248l313 -1405l-227 -52l-82 396h-621l-221 -391zM467 569h475l-127 633zM647 1755l103 201l419 -275l-86 -143z" />
<glyph unicode="&#xc1;" horiz-adv-x="1394" d="M-51 94l780 1340h248l313 -1405l-227 -52l-82 396h-621l-221 -391zM467 569h475l-127 633zM647 1681l426 275l96 -201l-444 -217z" />
<glyph unicode="&#xc2;" horiz-adv-x="1394" d="M-51 94l780 1340h248l313 -1405l-227 -52l-82 396h-621l-221 -391zM467 569h475l-127 633zM500 1688l329 184h170l271 -186l-119 -148l-242 182l-311 -182z" />
<glyph unicode="&#xc3;" horiz-adv-x="1394" d="M-51 94l780 1340h248l313 -1405l-227 -52l-82 396h-621l-221 -391zM467 569h475l-127 633zM528 1700q129 149 254 149q39 0 75.5 -14.5t59 -31.5t51.5 -31.5t56 -14.5q66 0 154 84l96 -121q-128 -151 -248 -151q-41 0 -78 14.5t-58.5 31.5t-50 31.5t-55.5 14.5 q-42 0 -78.5 -22t-78.5 -60z" />
<glyph unicode="&#xc4;" horiz-adv-x="1394" d="M-51 94l780 1340h248l313 -1405l-227 -52l-82 396h-621l-221 -391zM467 569h475l-127 633zM557 1704q0 70 44.5 115t111.5 45q59 0 95 -36.5t36 -88.5q0 -71 -45 -115.5t-111 -44.5q-61 0 -96 36t-35 89zM965 1704q0 70 44 115t111 45q59 0 95 -36.5t36 -88.5 q0 -71 -44.5 -115.5t-110.5 -44.5q-61 0 -96 36t-35 89z" />
<glyph unicode="&#xc5;" horiz-adv-x="1394" d="M-51 94l727 1249q-82 66 -82 181q2 130 86 210.5t221 80.5q113 0 184.5 -64.5t71.5 -169.5q-1 -89 -42.5 -157t-113.5 -103l289 -1292l-227 -52l-82 396h-621l-221 -391zM467 569h475l-127 633zM782 1532q0 -45 21 -71.5t59 -26.5q49 0 78 38.5t29 98.5q0 46 -21 72 t-59 26q-49 0 -78 -38t-29 -99z" />
<glyph unicode="&#xc6;" horiz-adv-x="1781" d="M-115 109l1067 1325h924l-37 -201h-590l-69 -391h499l-32 -195h-502l-78 -446h592l-37 -201h-829l67 373h-487l-322 -396zM528 569h365l111 625z" />
<glyph unicode="&#xc7;" horiz-adv-x="1181" d="M106 584q0 185 56.5 345.5t157.5 277.5t250 184t327 67q202 0 369 -102l-99 -176q-65 37 -130 56t-156 19q-233 0 -381 -184t-148 -473q0 -206 98 -313t273 -107q93 0 166 19.5t153 58.5l39 -190q-160 -83 -352 -91l-47 -86q93 -6 145 -50.5t52 -121.5 q0 -106 -88.5 -167.5t-227.5 -61.5q-143 0 -235 51l84 144q64 -33 149 -33q54 0 82.5 18.5t28.5 52.5q0 37 -45 57.5t-162 20.5l102 187q-211 39 -336 196t-125 402z" />
<glyph unicode="&#xc8;" horiz-adv-x="1126" d="M80 0l254 1434h887l-37 -201h-647l-70 -391h559l-35 -195h-557l-80 -446h650l-37 -201h-887zM582 1755l102 201l420 -275l-86 -143z" />
<glyph unicode="&#xc9;" horiz-adv-x="1126" d="M80 0l254 1434h887l-37 -201h-647l-70 -391h559l-35 -195h-557l-80 -446h650l-37 -201h-887zM582 1681l426 275l96 -201l-445 -217z" />
<glyph unicode="&#xca;" horiz-adv-x="1126" d="M80 0l254 1434h887l-37 -201h-647l-70 -391h559l-35 -195h-557l-80 -446h650l-37 -201h-887zM432 1688l330 184h170l270 -186l-119 -148l-241 182l-312 -182z" />
<glyph unicode="&#xcb;" horiz-adv-x="1126" d="M80 0l254 1434h887l-37 -201h-647l-70 -391h559l-35 -195h-557l-80 -446h650l-37 -201h-887zM489 1704q0 70 44.5 115t111.5 45q59 0 95 -36.5t36 -88.5q0 -71 -44.5 -115.5t-110.5 -44.5q-61 0 -96.5 36t-35.5 89zM897 1704q0 70 44.5 115t111.5 45q59 0 95 -36.5 t36 -88.5q0 -71 -45 -115.5t-111 -44.5q-61 0 -96 36t-35 89z" />
<glyph unicode="&#xcc;" horiz-adv-x="585" d="M80 0l252 1434h237l-252 -1434h-237zM248 1755l102 201l420 -275l-86 -143z" />
<glyph unicode="&#xcd;" horiz-adv-x="585" d="M80 0l252 1434h237l-252 -1434h-237zM248 1681l426 275l96 -201l-444 -217z" />
<glyph unicode="&#xce;" horiz-adv-x="585" d="M80 0l252 1434h237l-252 -1434h-237zM98 1688l330 184h170l270 -186l-118 -148l-242 182l-311 -182z" />
<glyph unicode="&#xcf;" horiz-adv-x="585" d="M80 0l252 1434h237l-252 -1434h-237zM156 1704q0 70 44 115t111 45q59 0 95 -36.5t36 -88.5q0 -71 -44.5 -115.5t-110.5 -44.5q-61 0 -96 36t-35 89zM563 1704q0 70 44.5 115t111.5 45q59 0 95 -36.5t36 -88.5q0 -71 -45 -115.5t-111 -44.5q-61 0 -96 36t-35 89z" />
<glyph unicode="&#xd0;" horiz-adv-x="1427" d="M66 631l32 186h158l104 596q191 45 398 45q151 0 271.5 -50.5t196.5 -138t116 -201.5t40 -245q0 -251 -98.5 -442t-288.5 -298.5t-448 -107.5q-229 0 -426 68l102 588h-157zM387 197q83 -21 188 -21q260 0 410 170t150 463q0 219 -103 335t-289 116q-70 0 -174 -17 l-73 -426h340l-33 -186h-340z" />
<glyph unicode="&#xd1;" horiz-adv-x="1449" d="M80 0l254 1434h293l381 -1141l200 1141h228l-254 -1434h-299l-377 1130l-199 -1130h-227zM578 1700q129 149 253 149q39 0 75.5 -14.5t59 -31.5t51.5 -31.5t56 -14.5q66 0 154 84l96 -121q-128 -151 -248 -151q-41 0 -77.5 14.5t-58.5 31.5t-50 31.5t-55 14.5 q-68 0 -158 -82z" />
<glyph unicode="&#xd2;" horiz-adv-x="1552" d="M111 623q0 162 53.5 312t151 266.5t247 186.5t328.5 70q190 0 331.5 -85t214 -231t72.5 -331q0 -129 -33.5 -252t-100.5 -228.5t-159.5 -185t-218.5 -125t-270 -45.5q-190 0 -331 85.5t-213 231t-72 331.5zM358 623q0 -205 99 -326t288 -121q156 0 275.5 88t180.5 231 t61 316q0 205 -100.5 325.5t-289.5 120.5q-118 0 -216 -51t-162.5 -138t-100 -201.5t-35.5 -243.5zM733 1755l103 201l419 -275l-86 -143z" />
<glyph unicode="&#xd3;" horiz-adv-x="1552" d="M111 623q0 162 53.5 312t151 266.5t247 186.5t328.5 70q190 0 331.5 -85t214 -231t72.5 -331q0 -129 -33.5 -252t-100.5 -228.5t-159.5 -185t-218.5 -125t-270 -45.5q-190 0 -331 85.5t-213 231t-72 331.5zM358 623q0 -205 99 -326t288 -121q156 0 275.5 88t180.5 231 t61 316q0 205 -100.5 325.5t-289.5 120.5q-118 0 -216 -51t-162.5 -138t-100 -201.5t-35.5 -243.5zM733 1681l426 275l96 -201l-444 -217z" />
<glyph unicode="&#xd4;" horiz-adv-x="1552" d="M111 623q0 162 53.5 312t151 266.5t247 186.5t328.5 70q190 0 331.5 -85t214 -231t72.5 -331q0 -129 -33.5 -252t-100.5 -228.5t-159.5 -185t-218.5 -125t-270 -45.5q-190 0 -331 85.5t-213 231t-72 331.5zM358 623q0 -205 99 -326t288 -121q156 0 275.5 88t180.5 231 t61 316q0 205 -100.5 325.5t-289.5 120.5q-118 0 -216 -51t-162.5 -138t-100 -201.5t-35.5 -243.5zM584 1688l329 184h170l271 -186l-119 -148l-242 182l-311 -182z" />
<glyph unicode="&#xd5;" horiz-adv-x="1552" d="M111 623q0 162 53.5 312t151 266.5t247 186.5t328.5 70q190 0 331.5 -85t214 -231t72.5 -331q0 -129 -33.5 -252t-100.5 -228.5t-159.5 -185t-218.5 -125t-270 -45.5q-190 0 -331 85.5t-213 231t-72 331.5zM358 623q0 -205 99 -326t288 -121q156 0 275.5 88t180.5 231 t61 316q0 205 -100.5 325.5t-289.5 120.5q-118 0 -216 -51t-162.5 -138t-100 -201.5t-35.5 -243.5zM612 1700q129 149 254 149q39 0 75.5 -14.5t59 -31.5t51.5 -31.5t56 -14.5q66 0 154 84l96 -121q-128 -151 -248 -151q-41 0 -78 14.5t-58.5 31.5t-50 31.5t-55.5 14.5 q-42 0 -78.5 -22t-78.5 -60z" />
<glyph unicode="&#xd6;" horiz-adv-x="1552" d="M111 623q0 162 53.5 312t151 266.5t247 186.5t328.5 70q190 0 331.5 -85t214 -231t72.5 -331q0 -129 -33.5 -252t-100.5 -228.5t-159.5 -185t-218.5 -125t-270 -45.5q-190 0 -331 85.5t-213 231t-72 331.5zM358 623q0 -205 99 -326t288 -121q156 0 275.5 88t180.5 231 t61 316q0 205 -100.5 325.5t-289.5 120.5q-118 0 -216 -51t-162.5 -138t-100 -201.5t-35.5 -243.5zM641 1704q0 70 44.5 115t111.5 45q59 0 95 -36.5t36 -88.5q0 -71 -45 -115.5t-111 -44.5q-61 0 -96 36t-35 89zM1049 1704q0 70 44 115t111 45q59 0 95 -36.5t36 -88.5 q0 -71 -44.5 -115.5t-110.5 -44.5q-61 0 -96 36t-35 89z" />
<glyph unicode="&#xd7;" d="M184 432l332 273l-242 294l156 121l225 -289l324 289l127 -141l-332 -274l240 -295l-154 -117l-225 285l-326 -285z" />
<glyph unicode="&#xd8;" horiz-adv-x="1552" d="M111 623q0 162 53.5 312t151 266.5t247 186.5t328.5 70q141 0 262 -51l152 254l178 -107l-178 -243q98 -88 151 -217t53 -283q0 -129 -33.5 -252t-100.5 -228.5t-159.5 -185t-218.5 -125t-270 -45.5q-142 0 -262 52l-166 -269l-178 107l192 260q-97 88 -149.5 216.5 t-52.5 281.5zM358 623q0 -208 84 -320l605 926q-76 28 -170 28q-119 0 -218 -51t-164 -138t-101 -201.5t-36 -243.5zM571 205q79 -29 170 -29q96 0 179.5 33t145.5 92t106.5 138.5t67 174t22.5 197.5q0 211 -86 322z" />
<glyph unicode="&#xd9;" horiz-adv-x="1409" d="M129 371q0 59 25 213l149 850h238l-158 -877q-16 -106 -16 -166q0 -104 56.5 -158.5t156.5 -54.5q66 0 130.5 29t122.5 85t102 149t64 210l138 783h237l-196 -1112q-4 -28 -4 -50q0 -102 120 -102l-80 -186q-108 -2 -171.5 43.5t-63.5 146.5q0 36 14 94 q-175 -293 -473 -293q-166 0 -278.5 108t-112.5 288zM651 1755l103 201l420 -275l-87 -143z" />
<glyph unicode="&#xda;" horiz-adv-x="1409" d="M129 371q0 59 25 213l149 850h238l-158 -877q-16 -106 -16 -166q0 -104 56.5 -158.5t156.5 -54.5q66 0 130.5 29t122.5 85t102 149t64 210l138 783h237l-196 -1112q-4 -28 -4 -50q0 -102 120 -102l-80 -186q-108 -2 -171.5 43.5t-63.5 146.5q0 36 14 94 q-175 -293 -473 -293q-166 0 -278.5 108t-112.5 288zM651 1681l426 275l97 -201l-445 -217z" />
<glyph unicode="&#xdb;" horiz-adv-x="1409" d="M129 371q0 59 25 213l149 850h238l-158 -877q-16 -106 -16 -166q0 -104 56.5 -158.5t156.5 -54.5q66 0 130.5 29t122.5 85t102 149t64 210l138 783h237l-196 -1112q-4 -28 -4 -50q0 -102 120 -102l-80 -186q-108 -2 -171.5 43.5t-63.5 146.5q0 36 14 94 q-175 -293 -473 -293q-166 0 -278.5 108t-112.5 288zM504 1688l330 184h170l270 -186l-119 -148l-242 182l-311 -182z" />
<glyph unicode="&#xdc;" horiz-adv-x="1409" d="M129 371q0 59 25 213l149 850h238l-158 -877q-16 -106 -16 -166q0 -104 56.5 -158.5t156.5 -54.5q66 0 130.5 29t122.5 85t102 149t64 210l138 783h237l-196 -1112q-4 -28 -4 -50q0 -102 120 -102l-80 -186q-108 -2 -171.5 43.5t-63.5 146.5q0 36 14 94 q-175 -293 -473 -293q-166 0 -278.5 108t-112.5 288zM561 1704q0 70 44.5 115t111.5 45q59 0 95 -36.5t36 -88.5q0 -71 -45 -115.5t-111 -44.5q-61 0 -96 36t-35 89zM969 1704q0 70 44 115t111 45q59 0 95 -36.5t36 -88.5q0 -71 -44.5 -115.5t-110.5 -44.5q-61 0 -96 36 t-35 89z" />
<glyph unicode="&#xdd;" horiz-adv-x="1179" d="M-18 88l110 150q44 -33 85.5 -48.5t98.5 -15.5q73 0 128.5 42.5t109.5 139.5l55 101l-297 665q-31 66 -65.5 92.5t-89.5 26.5l65 193q125 0 187.5 -55t128.5 -214l209 -497l421 786l193 -102l-588 -1037q-108 -191 -213.5 -265.5t-251.5 -74.5q-163 0 -286 113zM530 1681 l426 275l97 -201l-445 -217z" />
<glyph unicode="&#xde;" horiz-adv-x="1232" d="M80 0l252 1434h237l-41 -238q76 12 160 12q125 0 226 -36t166 -97.5t99.5 -141.5t34.5 -171q0 -128 -48.5 -229.5t-134 -165t-197 -96.5t-242.5 -33q-119 0 -227 22l-48 -260h-237zM397 453q81 -19 199 -19q173 0 276 80.5t103 241.5q0 117 -77 187.5t-224 70.5 q-88 0 -180 -15z" />
<glyph unicode="&#xdf;" horiz-adv-x="1261" d="M14 -451l187 1045q14 89 14 121q0 75 -39.5 108t-116.5 33l91 211q65 0 111 -30t52 -97q39 310 168.5 455t354.5 145q169 0 282 -108.5t113 -266.5q0 -287 -297 -362q262 -79 262 -352q0 -214 -145 -345t-377 -131q-150 0 -250 54l82 170q79 -33 174 -33q132 0 209.5 73 t77.5 207q0 122 -78 189t-244 82l31 174q165 2 248.5 66.5t83.5 199.5q0 88 -50 142.5t-139 54.5q-94 0 -157.5 -46.5t-110.5 -156t-82 -299.5l-229 -1303h-226z" />
<glyph unicode="&#xe0;" horiz-adv-x="1202" d="M57 424q0 194 87 346t240 235.5t345 84.5q192 0 385 -76l-123 -686q-6 -60 -6 -62q0 -102 123 -102l-78 -174q-235 0 -235 203v4q-62 -110 -147 -166t-206 -56q-160 0 -272.5 123.5t-112.5 325.5zM287 428q0 -126 56 -193t149 -65q117 0 200 98t115 281l57 334 q-72 20 -155 20q-190 -1 -306 -133t-116 -342zM494 1417l102 201l420 -275l-86 -143z" />
<glyph unicode="&#xe1;" horiz-adv-x="1202" d="M57 424q0 194 87 346t240 235.5t345 84.5q192 0 385 -76l-123 -686q-6 -60 -6 -62q0 -102 123 -102l-78 -174q-235 0 -235 203v4q-62 -110 -147 -166t-206 -56q-160 0 -272.5 123.5t-112.5 325.5zM287 428q0 -126 56 -193t149 -65q117 0 200 98t115 281l57 334 q-72 20 -155 20q-190 -1 -306 -133t-116 -342zM494 1343l426 275l96 -201l-445 -217z" />
<glyph unicode="&#xe2;" horiz-adv-x="1202" d="M57 424q0 194 87 346t240 235.5t345 84.5q192 0 385 -76l-123 -686q-6 -60 -6 -62q0 -102 123 -102l-78 -174q-235 0 -235 203v4q-62 -110 -147 -166t-206 -56q-160 0 -272.5 123.5t-112.5 325.5zM287 428q0 -126 56 -193t149 -65q117 0 200 98t115 281l57 334 q-72 20 -155 20q-190 -1 -306 -133t-116 -342zM338 1329l338 209h168l266 -209l-121 -145l-235 205l-305 -205z" />
<glyph unicode="&#xe3;" horiz-adv-x="1202" d="M57 424q0 194 87 346t240 235.5t345 84.5q192 0 385 -76l-123 -686q-6 -60 -6 -62q0 -102 123 -102l-78 -174q-235 0 -235 203v4q-62 -110 -147 -166t-206 -56q-160 0 -272.5 123.5t-112.5 325.5zM287 428q0 -126 56 -193t149 -65q117 0 200 98t115 281l57 334 q-72 20 -155 20q-190 -1 -306 -133t-116 -342zM373 1352q129 149 254 149q39 0 75 -14.5t58.5 -31.5t51.5 -31.5t56 -14.5q66 0 154 84l96 -121q-128 -151 -248 -151q-41 0 -77.5 14.5t-58.5 31.5t-50 31.5t-55 14.5q-68 0 -158 -82z" />
<glyph unicode="&#xe4;" horiz-adv-x="1202" d="M57 424q0 194 87 346t240 235.5t345 84.5q192 0 385 -76l-123 -686q-6 -60 -6 -62q0 -102 123 -102l-78 -174q-235 0 -235 203v4q-62 -110 -147 -166t-206 -56q-160 0 -272.5 123.5t-112.5 325.5zM287 428q0 -126 56 -193t149 -65q117 0 200 98t115 281l57 334 q-72 20 -155 20q-190 -1 -306 -133t-116 -342zM401 1356q0 70 44.5 115t111.5 45q59 0 95 -36.5t36 -88.5q0 -71 -45 -115.5t-111 -44.5q-61 0 -96 36t-35 89zM809 1356q0 70 44.5 115t111.5 45q59 0 95 -36.5t36 -88.5q0 -71 -45 -115.5t-111 -44.5q-61 0 -96 36t-35 89z " />
<glyph unicode="&#xe5;" horiz-adv-x="1202" d="M57 424q0 194 87 346t240 235.5t345 84.5q192 0 385 -76l-123 -686q-6 -60 -6 -62q0 -102 123 -102l-78 -174q-235 0 -235 203v4q-62 -110 -147 -166t-206 -56q-160 0 -272.5 123.5t-112.5 325.5zM287 428q0 -126 56 -193t149 -65q117 0 200 98t115 281l57 334 q-72 20 -155 20q-190 -1 -306 -133t-116 -342zM467 1425q2 130 86 210.5t221 80.5q113 0 184.5 -64t71.5 -169q-2 -130 -86 -211.5t-221 -81.5q-113 0 -184.5 65t-71.5 170zM655 1434q0 -45 21 -72t59 -27q49 0 78 39t29 99q0 46 -21 72t-59 26q-49 0 -78 -38t-29 -99z" />
<glyph unicode="&#xe6;" horiz-adv-x="1746" d="M12 295q0 171 132.5 272t338.5 101q121 0 277 -37q0 132 -67 201t-191 69q-132 0 -269 -67l-24 182q167 74 330 74q276 0 368 -236q147 236 420 236q179 0 283 -96.5t104 -233.5q0 -82 -30 -146.5t-79.5 -105.5t-117.5 -68t-139 -38t-150 -11q-140 0 -217 23 q19 -126 85.5 -186t190.5 -60q152 0 316 78l18 -191q-171 -80 -362 -80q-142 0 -244 63t-154 189q-146 -252 -444 -252q-168 0 -271.5 90t-103.5 230zM238 309q0 -68 47 -104.5t127 -36.5q132 0 212.5 75.5t110.5 215.5q-109 33 -250 33q-106 0 -176.5 -46.5t-70.5 -136.5z M985 586q82 -19 191 -19q154 0 232.5 45t78.5 142q0 66 -46.5 106.5t-129.5 40.5q-125 0 -212 -86.5t-114 -228.5z" />
<glyph unicode="&#xe7;" horiz-adv-x="964" d="M63 465q0 127 43.5 241t121 199t192.5 135t250 50q180 0 319 -95l-90 -172q-111 72 -235 72q-165 0 -268 -120t-103 -304q0 -142 72 -221.5t198 -79.5q69 0 122 15.5t116 45.5l45 -182q-121 -64 -260 -72l-47 -88q93 -6 144.5 -50.5t51.5 -121.5q0 -106 -88 -167.5 t-227 -61.5q-144 0 -236 51l84 144q64 -33 150 -33q110 0 110 71q0 37 -44.5 57.5t-161.5 20.5l102 187q-164 34 -262.5 162t-98.5 317z" />
<glyph unicode="&#xe8;" horiz-adv-x="1062" d="M63 463q0 170 70.5 312t204.5 228.5t305 86.5q177 0 282 -96.5t105 -233.5q0 -82 -30 -146.5t-79.5 -105.5t-117.5 -68t-139 -38t-150 -11q-136 0 -223 23l2 -19q15 -110 86 -168.5t194 -58.5q148 0 316 76l16 -189q-171 -80 -354 -80q-223 0 -355.5 130.5t-132.5 357.5z M295 586q93 -19 197 -19q311 0 311 187q0 66 -47 106.5t-131 40.5q-125 0 -215 -87t-115 -228zM426 1417l102 201l420 -275l-86 -143z" />
<glyph unicode="&#xe9;" horiz-adv-x="1062" d="M63 463q0 170 70.5 312t204.5 228.5t305 86.5q177 0 282 -96.5t105 -233.5q0 -82 -30 -146.5t-79.5 -105.5t-117.5 -68t-139 -38t-150 -11q-136 0 -223 23l2 -19q15 -110 86 -168.5t194 -58.5q148 0 316 76l16 -189q-171 -80 -354 -80q-223 0 -355.5 130.5t-132.5 357.5z M295 586q93 -19 197 -19q311 0 311 187q0 66 -47 106.5t-131 40.5q-125 0 -215 -87t-115 -228zM426 1343l426 275l96 -201l-444 -217z" />
<glyph unicode="&#xea;" horiz-adv-x="1062" d="M63 463q0 170 70.5 312t204.5 228.5t305 86.5q177 0 282 -96.5t105 -233.5q0 -82 -30 -146.5t-79.5 -105.5t-117.5 -68t-139 -38t-150 -11q-136 0 -223 23l2 -19q15 -110 86 -168.5t194 -58.5q148 0 316 76l16 -189q-171 -80 -354 -80q-223 0 -355.5 130.5t-132.5 357.5z M270 1329l338 209h168l266 -209l-120 -145l-236 205l-305 -205zM295 586q93 -19 197 -19q311 0 311 187q0 66 -47 106.5t-131 40.5q-125 0 -215 -87t-115 -228z" />
<glyph unicode="&#xeb;" horiz-adv-x="1062" d="M63 463q0 170 70.5 312t204.5 228.5t305 86.5q177 0 282 -96.5t105 -233.5q0 -82 -30 -146.5t-79.5 -105.5t-117.5 -68t-139 -38t-150 -11q-136 0 -223 23l2 -19q15 -110 86 -168.5t194 -58.5q148 0 316 76l16 -189q-171 -80 -354 -80q-223 0 -355.5 130.5t-132.5 357.5z M295 586q93 -19 197 -19q311 0 311 187q0 66 -47 106.5t-131 40.5q-125 0 -215 -87t-115 -228zM334 1356q0 70 44 115t111 45q59 0 95.5 -36.5t36.5 -88.5q0 -71 -45 -115.5t-111 -44.5q-61 0 -96 36t-35 89zM741 1356q0 70 44.5 115t111.5 45q59 0 95 -36.5t36 -88.5 q0 -71 -45 -115.5t-111 -44.5q-61 0 -96 36t-35 89z" />
<glyph unicode="&#xec;" horiz-adv-x="530" d="M59 0l187 1065h225l-186 -1065h-226zM158 1417l102 201l420 -275l-86 -143z" />
<glyph unicode="&#xed;" horiz-adv-x="530" d="M59 0l187 1065h225l-186 -1065h-226zM158 1343l426 275l96 -201l-444 -217z" />
<glyph unicode="&#xee;" horiz-adv-x="530" d="M4 1329l338 209h168l266 -209l-121 -145l-235 205l-305 -205zM59 0l187 1065h225l-186 -1065h-226z" />
<glyph unicode="&#xef;" horiz-adv-x="530" d="M59 0l187 1065h225l-186 -1065h-226zM68 1356q0 70 44 115t111 45q59 0 95 -36.5t36 -88.5q0 -71 -44.5 -115.5t-110.5 -44.5q-61 0 -96 36t-35 89zM475 1356q0 70 44.5 115t111.5 45q59 0 95 -36.5t36 -88.5q0 -71 -45 -115.5t-111 -44.5q-61 0 -96 36t-35 89z" />
<glyph unicode="&#xf0;" horiz-adv-x="1122" d="M51 401q-1 103 37 195.5t100.5 157t146 102t171.5 37.5q109 0 192.5 -49.5t132.5 -134.5q4 59 3 79q0 233 -125 367l-134 -154l-133 117l138 125q-76 29 -158 29q-59 0 -100 -8l32 196q38 6 82 6q163 0 291 -71l152 176l135 -117l-162 -151q205 -190 205 -549 q0 -174 -43 -320t-119 -246.5t-182 -156.5t-230 -56q-184 0 -308.5 117t-123.5 309zM276 412q0 -112 61.5 -177t156.5 -65q112 0 194.5 94t118.5 277q-47 76 -118 121t-152 45q-116 0 -188.5 -83t-72.5 -212z" />
<glyph unicode="&#xf1;" horiz-adv-x="1206" d="M59 0l187 1065h203l-39 -213q58 110 154.5 174t223.5 64q136 0 222 -88t86 -226q0 -63 -15 -153l-110 -623h-226l115 647q10 59 10 109q0 66 -38.5 103.5t-106.5 37.5q-113 0 -218 -112.5t-140 -309.5l-82 -475h-226zM377 1352q129 149 254 149q39 0 75 -14.5t58.5 -31.5 t51.5 -31.5t56 -14.5q66 0 154 84l96 -121q-128 -151 -248 -151q-41 0 -77.5 14.5t-58.5 31.5t-50 31.5t-55 14.5q-68 0 -158 -82z" />
<glyph unicode="&#xf2;" horiz-adv-x="1220" d="M63 461q0 175 73.5 318t210 227t310.5 84q221 0 360.5 -137t139.5 -349q0 -174 -74 -317.5t-210.5 -227.5t-309.5 -84q-223 0 -361.5 137t-138.5 349zM293 469q0 -134 74 -216.5t202 -82.5q165 0 262 118.5t97 307.5q0 134 -75 216.5t-202 82.5q-166 0 -262 -118 t-96 -308zM485 1417l103 201l420 -275l-86 -143z" />
<glyph unicode="&#xf3;" horiz-adv-x="1220" d="M63 461q0 175 73.5 318t210 227t310.5 84q221 0 360.5 -137t139.5 -349q0 -174 -74 -317.5t-210.5 -227.5t-309.5 -84q-223 0 -361.5 137t-138.5 349zM293 469q0 -134 74 -216.5t202 -82.5q165 0 262 118.5t97 307.5q0 134 -75 216.5t-202 82.5q-166 0 -262 -118 t-96 -308zM485 1343l426 275l97 -201l-445 -217z" />
<glyph unicode="&#xf4;" horiz-adv-x="1220" d="M63 461q0 175 73.5 318t210 227t310.5 84q221 0 360.5 -137t139.5 -349q0 -174 -74 -317.5t-210.5 -227.5t-309.5 -84q-223 0 -361.5 137t-138.5 349zM293 469q0 -134 74 -216.5t202 -82.5q165 0 262 118.5t97 307.5q0 134 -75 216.5t-202 82.5q-166 0 -262 -118 t-96 -308zM332 1329l338 209h168l266 -209l-121 -145l-235 205l-306 -205z" />
<glyph unicode="&#xf5;" horiz-adv-x="1220" d="M63 461q0 175 73.5 318t210 227t310.5 84q221 0 360.5 -137t139.5 -349q0 -174 -74 -317.5t-210.5 -227.5t-309.5 -84q-223 0 -361.5 137t-138.5 349zM293 469q0 -134 74 -216.5t202 -82.5q165 0 262 118.5t97 307.5q0 134 -75 216.5t-202 82.5q-166 0 -262 -118 t-96 -308zM367 1352q129 149 254 149q39 0 75 -14.5t58.5 -31.5t51.5 -31.5t56 -14.5q66 0 154 84l96 -121q-128 -151 -248 -151q-41 0 -77.5 14.5t-58.5 31.5t-50 31.5t-55 14.5q-68 0 -158 -82z" />
<glyph unicode="&#xf6;" horiz-adv-x="1220" d="M63 461q0 175 73.5 318t210 227t310.5 84q221 0 360.5 -137t139.5 -349q0 -174 -74 -317.5t-210.5 -227.5t-309.5 -84q-223 0 -361.5 137t-138.5 349zM293 469q0 -134 74 -216.5t202 -82.5q165 0 262 118.5t97 307.5q0 134 -75 216.5t-202 82.5q-166 0 -262 -118 t-96 -308zM395 1356q0 70 44.5 115t111.5 45q59 0 95 -36.5t36 -88.5q0 -71 -45 -115.5t-111 -44.5q-61 0 -96 36t-35 89zM803 1356q0 70 44 115t111 45q59 0 95.5 -36.5t36.5 -88.5q0 -71 -45 -115.5t-111 -44.5q-61 0 -96 36t-35 89z" />
<glyph unicode="&#xf7;" d="M229 602l33 197h795l-33 -197h-795zM401 254q0 76 50 126t127 50q65 0 105 -39t40 -98q0 -77 -49.5 -126.5t-126.5 -49.5q-65 0 -105.5 39t-40.5 98zM553 1116q0 75 50 125.5t126 50.5q65 0 105 -39t40 -100q0 -75 -50 -124.5t-126 -49.5q-65 0 -105 39t-40 98z" />
<glyph unicode="&#xf8;" horiz-adv-x="1220" d="M55 -135l174 231q-78 66 -122 160.5t-44 204.5q0 174 74 317.5t210.5 227.5t309.5 84q107 0 199 -39l154 252l157 -97l-178 -235q79 -66 123.5 -161t44.5 -206q0 -174 -74 -317.5t-210.5 -227.5t-309.5 -84q-106 0 -201 39l-149 -247zM291 469q0 -134 57 -209l408 623 q-43 14 -105 14q-166 0 -263 -118.5t-97 -309.5zM465 182q43 -14 104 -14q166 0 263.5 118.5t97.5 309.5q0 133 -58 209z" />
<glyph unicode="&#xf9;" horiz-adv-x="1177" d="M86 287q0 71 14 155l109 623h225l-112 -647q-11 -67 -11 -109q0 -65 38.5 -102t105.5 -37q114 0 205 98t122 277l92 520h226l-129 -737q-6 -30 -6 -62q0 -102 120 -102l-75 -174q-238 0 -238 211q0 1 -1 3t-1 3q-73 -120 -162.5 -176t-216.5 -56q-133 0 -219 87.5 t-86 224.5zM461 1417l102 201l420 -275l-86 -143z" />
<glyph unicode="&#xfa;" horiz-adv-x="1177" d="M86 287q0 71 14 155l109 623h225l-112 -647q-11 -67 -11 -109q0 -65 38.5 -102t105.5 -37q114 0 205 98t122 277l92 520h226l-129 -737q-6 -30 -6 -62q0 -102 120 -102l-75 -174q-238 0 -238 211q0 1 -1 3t-1 3q-73 -120 -162.5 -176t-216.5 -56q-133 0 -219 87.5 t-86 224.5zM461 1343l426 275l96 -201l-444 -217z" />
<glyph unicode="&#xfb;" horiz-adv-x="1177" d="M86 287q0 71 14 155l109 623h225l-112 -647q-11 -67 -11 -109q0 -65 38.5 -102t105.5 -37q114 0 205 98t122 277l92 520h226l-129 -737q-6 -30 -6 -62q0 -102 120 -102l-75 -174q-238 0 -238 211q0 1 -1 3t-1 3q-73 -120 -162.5 -176t-216.5 -56q-133 0 -219 87.5 t-86 224.5zM305 1329l338 209h168l266 -209l-121 -145l-235 205l-305 -205z" />
<glyph unicode="&#xfc;" horiz-adv-x="1177" d="M86 287q0 71 14 155l109 623h225l-112 -647q-11 -67 -11 -109q0 -65 38.5 -102t105.5 -37q114 0 205 98t122 277l92 520h226l-129 -737q-6 -30 -6 -62q0 -102 120 -102l-75 -174q-238 0 -238 211q0 1 -1 3t-1 3q-73 -120 -162.5 -176t-216.5 -56q-133 0 -219 87.5 t-86 224.5zM369 1356q0 70 44 115t111 45q59 0 95 -36.5t36 -88.5q0 -71 -44.5 -115.5t-110.5 -44.5q-61 0 -96 36t-35 89zM776 1356q0 70 44.5 115t111.5 45q59 0 95 -36.5t36 -88.5q0 -71 -45 -115.5t-111 -44.5q-61 0 -96 36t-35 89z" />
<glyph unicode="&#xfd;" horiz-adv-x="1148" d="M43 -334l113 150q131 -101 264 -101q104 0 174 66t102 225l35 191q-123 -197 -336 -197q-135 0 -221 86t-86 225q0 56 14 148l107 606h225l-108 -629q-11 -56 -11 -96q0 -68 40.5 -106.5t107.5 -38.5q108 0 199 100t126 291l84 479h226l-187 -1071 q-44 -246 -172.5 -357.5t-320.5 -111.5q-216 0 -375 141zM463 1343l426 275l96 -201l-444 -217z" />
<glyph unicode="&#xfe;" horiz-adv-x="1200" d="M-20 -451l331 1885h226l-99 -531q121 187 326 187q166 0 266 -124.5t100 -318.5q0 -149 -45 -277.5t-118 -213.5t-165 -133t-188 -48t-177 43.5t-130 116.5l-104 -586h-223zM340 322q38 -71 102.5 -111.5t139.5 -40.5q136 0 227.5 128t91.5 337q0 123 -51 193.5 t-141 70.5q-119 0 -213.5 -108.5t-124.5 -288.5z" />
<glyph unicode="&#xff;" horiz-adv-x="1148" d="M43 -334l113 150q131 -101 264 -101q104 0 174 66t102 225l35 191q-123 -197 -336 -197q-135 0 -221 86t-86 225q0 56 14 148l107 606h225l-108 -629q-11 -56 -11 -96q0 -68 40.5 -106.5t107.5 -38.5q108 0 199 100t126 291l84 479h226l-187 -1071 q-44 -246 -172.5 -357.5t-320.5 -111.5q-216 0 -375 141zM371 1356q0 70 44 115t111 45q59 0 95 -36.5t36 -88.5q0 -71 -44.5 -115.5t-110.5 -44.5q-61 0 -96 36t-35 89zM778 1356q0 70 44.5 115t111.5 45q59 0 95 -36.5t36 -88.5q0 -71 -45 -115.5t-111 -44.5q-61 0 -96 36 t-35 89z" />
<glyph unicode="&#x152;" horiz-adv-x="1804" d="M111 623q0 162 53.5 312t151 266.5t247 186.5t328.5 70q116 0 215 -24h792l-36 -201h-584l-68 -391h494l-35 -195h-493l-80 -446h585l-36 -201h-746q-92 -25 -172 -25q-191 0 -332 85.5t-212.5 231t-71.5 331.5zM358 623q0 -205 98.5 -326t284.5 -121q61 0 113 12 l186 1053q-72 16 -163 16q-119 0 -218 -51t-164 -138t-101 -201.5t-36 -243.5z" />
<glyph unicode="&#x153;" horiz-adv-x="1904" d="M63 461q0 174 73 317.5t207.5 227.5t303.5 84q141 0 246 -63t156 -179q71 118 181.5 180t252.5 62q175 0 278 -98t103 -242q0 -87 -35.5 -154.5t-95.5 -108t-133 -61t-154 -20.5q-189 0 -322 96q2 -12 2 -39q9 -158 83 -226.5t210 -68.5q137 0 316 80l18 -193 q-190 -80 -369 -80q-296 0 -397 244q-68 -120 -182 -182t-260 -62q-211 0 -346.5 137t-135.5 349zM293 469q0 -134 72 -216.5t194 -82.5q156 0 250 119t94 307q0 134 -71.5 216.5t-192.5 82.5q-158 0 -252 -118.5t-94 -307.5zM1159 676q116 -98 271 -98q96 0 151 45.5 t55 126.5q0 68 -46.5 109.5t-125.5 41.5q-209 0 -305 -225z" />
<glyph unicode="&#x178;" horiz-adv-x="1179" d="M-18 88l110 150q44 -33 85.5 -48.5t98.5 -15.5q73 0 128.5 42.5t109.5 139.5l55 101l-297 665q-31 66 -65.5 92.5t-89.5 26.5l65 193q125 0 187.5 -55t128.5 -214l209 -497l421 786l193 -102l-588 -1037q-108 -191 -213.5 -265.5t-251.5 -74.5q-163 0 -286 113zM438 1704 q0 70 44.5 115t111.5 45q59 0 95 -36.5t36 -88.5q0 -71 -45 -115.5t-111 -44.5q-61 0 -96 36t-35 89zM846 1704q0 70 44 115t111 45q59 0 95.5 -36.5t36.5 -88.5q0 -71 -45 -115.5t-111 -44.5q-61 0 -96 36t-35 89z" />
<glyph unicode="&#x2c6;" horiz-adv-x="892" d="M201 1329l338 209h168l266 -209l-121 -145l-236 205l-305 -205z" />
<glyph unicode="&#x2dc;" horiz-adv-x="866" d="M207 1352q129 149 254 149q39 0 75 -14.5t58.5 -31.5t51.5 -31.5t56 -14.5q66 0 154 84l96 -121q-128 -151 -247 -151q-41 0 -78 14.5t-58.5 31.5t-50 31.5t-55.5 14.5q-68 0 -158 -82z" />
<glyph unicode="&#x2000;" horiz-adv-x="978" />
<glyph unicode="&#x2001;" horiz-adv-x="1956" />
<glyph unicode="&#x2002;" horiz-adv-x="978" />
<glyph unicode="&#x2003;" horiz-adv-x="1956" />
<glyph unicode="&#x2004;" horiz-adv-x="652" />
<glyph unicode="&#x2005;" horiz-adv-x="489" />
<glyph unicode="&#x2006;" horiz-adv-x="326" />
<glyph unicode="&#x2007;" horiz-adv-x="326" />
<glyph unicode="&#x2008;" horiz-adv-x="244" />
<glyph unicode="&#x2009;" horiz-adv-x="391" />
<glyph unicode="&#x200a;" horiz-adv-x="108" />
<glyph unicode="&#x2010;" horiz-adv-x="1021" d="M162 602l37 197h719l-35 -197h-721z" />
<glyph unicode="&#x2011;" horiz-adv-x="1021" d="M162 602l37 197h719l-35 -197h-721z" />
<glyph unicode="&#x2012;" horiz-adv-x="1021" d="M162 602l37 197h719l-35 -197h-721z" />
<glyph unicode="&#x2013;" horiz-adv-x="1259" d="M162 602l35 197h958l-33 -197h-960z" />
<glyph unicode="&#x2014;" horiz-adv-x="1540" d="M162 602l37 197h1237l-35 -197h-1239z" />
<glyph unicode="&#x2018;" horiz-adv-x="487" d="M205 1214q0 124 76 223.5t215 159.5l45 -88q-65 -45 -99.5 -86.5t-46.5 -93.5q61 0 96 -34.5t35 -88.5q0 -68 -46.5 -110.5t-119.5 -42.5q-69 0 -112 43t-43 118z" />
<glyph unicode="&#x2019;" horiz-adv-x="487" d="M215 1083q64 44 98.5 86.5t46.5 94.5q-63 1 -98 34.5t-35 87.5q0 69 47 111.5t121 42.5q69 0 112.5 -43.5t43.5 -118.5q0 -122 -77 -222.5t-216 -160.5z" />
<glyph unicode="&#x201a;" horiz-adv-x="505" d="M27 -184q63 42 98 84.5t47 95.5q-63 0 -98 34t-35 87q0 69 47 111t121 42q69 0 112 -42.5t43 -118.5q0 -123 -77 -222.5t-215 -158.5z" />
<glyph unicode="&#x201c;" horiz-adv-x="892" d="M205 1214q0 124 76 223.5t215 159.5l45 -88q-65 -45 -99.5 -86.5t-46.5 -93.5q61 0 96 -34.5t35 -88.5q0 -68 -46.5 -110.5t-119.5 -42.5q-69 0 -112 43t-43 118zM608 1214q0 124 77 223t216 160l45 -88q-64 -45 -98.5 -86.5t-46.5 -93.5q61 0 96 -34.5t35 -88.5 q0 -68 -46.5 -110.5t-119.5 -42.5q-69 0 -113.5 43t-44.5 118z" />
<glyph unicode="&#x201d;" horiz-adv-x="888" d="M215 1083q64 44 98.5 86.5t46.5 94.5q-63 1 -98 34.5t-35 87.5q0 69 47 111.5t121 42.5q69 0 112.5 -43.5t43.5 -118.5q0 -122 -77 -222.5t-216 -160.5zM616 1083q64 45 99 87t47 94q-62 1 -96.5 34.5t-34.5 87.5q0 68 46.5 111t119.5 43q69 0 112 -43.5t43 -118.5 q0 -123 -76.5 -223t-216.5 -160z" />
<glyph unicode="&#x201e;" horiz-adv-x="907" d="M27 -186q64 45 98.5 86.5t46.5 93.5q-63 1 -98 35t-35 88q0 69 47 111t121 42q69 0 112 -43t43 -118q0 -123 -76.5 -223t-215.5 -160zM428 -186q64 45 98.5 86.5t46.5 93.5q-63 1 -98 35t-35 88q0 69 47 111t121 42q69 0 112.5 -43t43.5 -118q0 -122 -77 -222.5 t-216 -160.5z" />
<glyph unicode="&#x2022;" horiz-adv-x="927" d="M174 727q0 125 80.5 206t210.5 81q127 0 208 -81.5t81 -205.5q0 -125 -80 -206t-209 -81t-210 81.5t-81 205.5z" />
<glyph unicode="&#x2026;" horiz-adv-x="1847" d="M72 113q0 77 50 126.5t126 49.5q65 0 105 -39t40 -98q0 -77 -50 -127t-126 -50q-66 0 -105.5 39t-39.5 99zM686 113q0 77 50 126.5t126 49.5q65 0 105.5 -39t40.5 -98q0 -76 -50 -126.5t-127 -50.5q-66 0 -105.5 39t-39.5 99zM1300 113q0 76 50 126t127 50q65 0 105 -39 t40 -98q0 -77 -50 -127t-126 -50q-66 0 -106 39t-40 99z" />
<glyph unicode="&#x202f;" horiz-adv-x="391" />
<glyph unicode="&#x2039;" horiz-adv-x="743" d="M158 653l18 103l393 399l129 -139l-344 -328l219 -321l-163 -113z" />
<glyph unicode="&#x203a;" horiz-adv-x="743" d="M92 393l346 328l-221 321l164 113l252 -399l-19 -103l-391 -399z" />
<glyph unicode="&#x205f;" horiz-adv-x="489" />
<glyph unicode="&#x20ac;" horiz-adv-x="1232" d="M72 465l30 172h166l21 123h-164l31 172h174q36 108 96 197.5t142.5 158.5t192.5 107.5t236 38.5q184 0 357 -99l-84 -170q-139 78 -279 78q-153 0 -264.5 -86t-167.5 -225h510l-31 -172h-520l-20 -123h477l-31 -172h-446q23 -145 105.5 -222t211.5 -77q58 0 115 12.5 t89 25t89 38.5l45 -176q-174 -91 -365 -91q-215 0 -355.5 133t-166.5 357h-194z" />
<glyph unicode="&#x2122;" horiz-adv-x="1843" d="M197 1399l26 157h701l-27 -157h-254l-121 -682h-192l121 682h-254zM825 717l148 839h241l117 -473l273 473h260l-148 -839h-190l102 579l-258 -417h-143l-115 421l-102 -583h-185z" />
<glyph unicode="&#x25fc;" horiz-adv-x="1085" d="M0 0v1085h1085v-1085h-1085z" />
</font>
</defs>
</svg>
