<?xml version="1.0" standalone="no"?>
<!DOCTYPE svg PUBLIC "-//W3C//DTD SVG 1.1//EN" "http://www.w3.org/Graphics/SVG/1.1/DTD/svg11.dtd" >
<svg xmlns="http://www.w3.org/2000/svg">
<metadata></metadata>
<defs>
<font id="abezeh_slabthin" horiz-adv-x="1228" >
<font-face units-per-em="2048" ascent="1638" descent="-410" />
<missing-glyph horiz-adv-x="614" />
<glyph unicode="&#xfb01;" horiz-adv-x="1114" d="M61 985v21h175v239q0 133 77 214t211 81q95 0 166 -21t162 -67l14 -160h-16q-18 79 -23 148q-82 40 -148.5 59t-154.5 19q-123 0 -194.5 -74.5t-71.5 -198.5v-239h627v-983q51 0 86 -9v-14h-109v985h-604v-962q52 0 86 -9v-14h-108v985h-175z" />
<glyph unicode="&#xfb02;" horiz-adv-x="1320" d="M61 985v21h175v219q0 137 79.5 226t225.5 89q95 0 174 -23.5t166 -70.5v-1186q0 -72 18.5 -124.5t52 -81.5t73 -42.5t87.5 -13.5q67 0 154 27q0 49 6 92h16l2 -103q-80 -39 -178 -39q-50 0 -93.5 14.5t-80.5 46t-58.5 87.5t-21.5 131v1180q-161 84 -317 84 q-135 0 -209 -82.5t-74 -210.5v-219h410l-4 -21h-406v-962q52 0 86 -9v-14h-108v985h-175z" />
<glyph unicode="&#xfb03;" horiz-adv-x="1722" d="M51 985v14q86 7 174 7v215q0 134 80 214.5t225 80.5q172 0 359 -97q75 121 244 121q95 0 165 -21t162 -67l15 -160h-17q-16 72 -22 148q-82 40 -148.5 59t-154.5 19q-123 0 -195 -74.5t-72 -198.5v-239h627v-983q51 0 86 -9v-14h-109v985h-604v-962q52 0 86 -9v-14h-108 v985h-596v-962q52 0 86 -9v-14h-109v985h-174zM248 1006h596v239q0 88 35 156q-177 92 -349 92q-133 0 -207.5 -73.5t-74.5 -198.5v-215z" />
<glyph unicode="&#xfb04;" horiz-adv-x="1939" d="M61 985v14q86 7 175 7v215q0 134 80 214.5t225 80.5q171 0 364 -101l-4 -8q79 133 258 133q95 0 174 -23.5t166 -70.5v-1186q0 -72 19 -124.5t52 -81.5t73 -42.5t88 -13.5q66 0 153 27q0 49 6 92h17l2 -103q-80 -39 -178 -39q-50 0 -93.5 14.5t-80.5 46t-58.5 87.5 t-21.5 131v1180q-161 84 -318 84q-135 0 -208.5 -82.5t-73.5 -210.5v-219h409l-4 -21h-405v-962q51 0 86 -9v-14h-109v985h-596v-962q52 0 86 -9v-14h-108v985h-175zM258 1006h596v219q0 98 41 172q-182 96 -354 96q-133 0 -208 -73.5t-75 -198.5v-215z" />
<glyph horiz-adv-x="2048" />
<glyph horiz-adv-x="2048" />
<glyph unicode="&#xd;" horiz-adv-x="2048" />
<glyph unicode=" "  horiz-adv-x="614" />
<glyph unicode="&#x09;" horiz-adv-x="614" />
<glyph unicode="&#xa0;" horiz-adv-x="614" />
<glyph unicode="!" horiz-adv-x="524" d="M225 23q0 17 10.5 26.5t26.5 9.5t26.5 -9.5t10.5 -26.5t-10.5 -27t-26.5 -10t-26.5 10t-10.5 27zM250 301v1192h24v-1192h-24z" />
<glyph unicode="&#x22;" horiz-adv-x="614" d="M158 1038v396h22v-396h-22zM434 1038v396h23v-396h-23z" />
<glyph unicode="#" horiz-adv-x="1306" d="M102 317l4 23h201l113 639h-203l4 22h201l57 318h25l-58 -318h549l58 318h24l-57 -318h184l-4 -22h-182l-113 -639h182l-4 -23h-182l-55 -317h-25l56 317h-549l-56 -317h-24l55 317h-201zM332 340h549l112 639h-549z" />
<glyph unicode="$" horiz-adv-x="1034" d="M123 170l2 139h16q6 -47 6 -129q88 -60 178 -89.5t220 -29.5q115 0 205 35t145 108.5t55 176.5q0 87 -32 143.5t-118.5 106.5t-250.5 102q-202 66 -288.5 139.5t-86.5 198.5q0 141 103 222t280 81l-2 234h25l-2 -234q190 -5 364 -112q-3 -87 -20 -152h-17l13 141 q-180 101 -361 101q-163 0 -261.5 -74t-98.5 -207q0 -117 82 -184.5t278 -132.5q242 -79 329 -155.5t87 -217.5q0 -158 -116 -248.5t-302 -93.5l2 -234h-25l3 234q-134 1 -226.5 33t-185.5 98z" />
<glyph unicode="%" horiz-adv-x="1959" d="M137 999q0 219 87.5 334t236.5 115q50 0 100 -16l166 6v-15q-59 -13 -131 -6q87 -46 136.5 -152t49.5 -266q0 -219 -87 -333.5t-236 -114.5q-147 0 -234.5 115t-87.5 333zM160 999q0 -213 82.5 -320.5t216.5 -107.5q135 0 218 109t83 319q0 213 -82.5 320.5t-216.5 107.5 q-135 0 -218 -109t-83 -319zM498 -70l938 1586l18 -13l-938 -1585zM1165 434q0 219 87.5 334t236.5 115q47 0 100 -17l166 6v-14q-59 -13 -131 -6q87 -46 136.5 -152t49.5 -266q0 -219 -87 -333.5t-236 -114.5q-147 0 -234.5 115t-87.5 333zM1188 434q0 -213 82.5 -320.5 t216.5 -107.5q135 0 218 109t83 319q0 213 -82.5 320.5t-216.5 107.5q-135 0 -218 -109t-83 -319z" />
<glyph unicode="&#x26;" horiz-adv-x="1560" d="M225 336q0 154 83.5 259t262.5 196q-105 109 -145.5 186t-40.5 182q0 129 87 214t220 85q130 0 209.5 -82.5t79.5 -193.5q0 -125 -85 -217.5t-286 -182.5l480 -530q121 186 180 489h-4q-45 7 -82 19l2 14l192 -29l-2 -14q-43 0 -86 6q-59 -306 -184 -501l199 -218 q58 12 90 9l2 -15l-101 -18l-200 221q-40 -52 -80 -90.5t-95.5 -74.5t-128.5 -55.5t-159 -19.5q-176 0 -292 99.5t-116 261.5zM252 336q0 -153 107.5 -245.5t273.5 -92.5q153 0 257 60t189 171l-491 543q-184 -95 -260 -192.5t-76 -243.5zM412 1159q0 -102 39.5 -175 t144.5 -183q198 88 278 174.5t80 206.5q0 104 -71.5 179t-188.5 75q-122 0 -202 -78t-80 -199z" />
<glyph unicode="'" horiz-adv-x="307" d="M141 1038v396h23v-396h-23z" />
<glyph unicode="(" horiz-adv-x="565" d="M143 655q0 234 63.5 450.5t194.5 446.5l21 -8q-254 -460 -254 -889q0 -237 64 -450.5t188 -437.5l-21 -9q-132 237 -194 444t-62 453z" />
<glyph unicode=")" horiz-adv-x="565" d="M143 1544l21 8q131 -230 194.5 -446.5t63.5 -450.5q0 -246 -62 -453t-194 -444l-21 9q124 224 188 437.5t64 450.5q0 429 -254 889z" />
<glyph unicode="*" horiz-adv-x="884" d="M143 1292l9 25l280 -96l-4 295h29l-4 -295l280 92l8 -25l-282 -88l176 -237l-23 -17l-172 242l-172 -240l-22 17l178 235z" />
<glyph unicode="+" d="M248 692v23h354v379h25v-379h354v-23h-354v-379h-25v379h-354z" />
<glyph unicode="," horiz-adv-x="614" d="M197 -217q110 163 135 313l26 -6q-17 -91 -50.5 -164.5t-92.5 -152.5z" />
<glyph unicode="-" horiz-adv-x="1024" d="M193 692v23h638v-23h-638z" />
<glyph unicode="." horiz-adv-x="614" d="M270 23q0 17 10.5 26.5t26.5 9.5t26.5 -9.5t10.5 -26.5t-10.5 -27t-26.5 -10t-26.5 10t-10.5 27z" />
<glyph unicode="/" horiz-adv-x="921" d="M156 -121l585 1690l23 -10l-586 -1690z" />
<glyph unicode="0" horiz-adv-x="1269" d="M174 705q0 354 123.5 541.5t337.5 187.5q77 0 153 -29l267 12v-16q-104 -18 -230 -15q129 -71 200 -243.5t71 -437.5q0 -354 -123.5 -542t-337.5 -188t-337.5 188t-123.5 542zM201 707q0 -349 119 -529t315 -180q198 0 316 178.5t118 525.5q0 349 -119 529t-315 180 q-198 0 -316 -178.5t-118 -525.5z" />
<glyph unicode="1" horiz-adv-x="886" d="M92 1139l404 272l20 -4v-1384h223q33 0 56 -5v-18h-648v18q23 5 56 5h289v1357l-386 -260z" />
<glyph unicode="2" horiz-adv-x="1042" d="M113 35q0 122 41 226t106 178t143.5 139.5t157.5 124t144 117t106 133t41 159.5q0 142 -94.5 220.5t-245.5 78.5q-213 0 -360 -133l12 -131h-17q-18 71 -18 141q76 69 165.5 107.5t217.5 38.5q164 0 265.5 -86.5t101.5 -235.5q0 -69 -25.5 -131t-68.5 -112t-99 -97 t-117.5 -93t-123 -94.5t-117.5 -106t-99 -122t-68.5 -149.5t-25.5 -182h737q0 102 7 157h18l2 -182h-782q-4 16 -4 35z" />
<glyph unicode="3" horiz-adv-x="1077" d="M123 86l2 164h18q7 -60 7 -156q156 -99 342 -96q183 3 299 104.5t116 278.5q0 171 -120.5 263.5t-352.5 92.5h-121l4 23h111q200 0 317 85t117 242q0 147 -100 235.5t-258 88.5q-109 0 -187.5 -26.5t-154.5 -75.5l10 -121h-16q-17 67 -17 133q81 54 162.5 83.5 t202.5 29.5q172 0 278.5 -97t106.5 -250q0 -79 -28 -141t-78 -101.5t-112 -62.5t-136 -32q86 -5 157 -30t126 -69.5t85.5 -113t30.5 -156.5q0 -183 -124 -294.5t-318 -111.5q-214 0 -369 111z" />
<glyph unicode="4" horiz-adv-x="1093" d="M92 352v21l457 1046l22 -10l-450 -1034h653v467l25 4v-471h202l-4 -23h-198v-329h2q57 0 92 -9v-14h-209v14q34 9 90 9v329h-682z" />
<glyph unicode="5" horiz-adv-x="1073" d="M133 90l2 160h19q6 -51 6 -152q79 -51 159.5 -75.5t184.5 -24.5q183 0 301.5 107.5t118.5 302.5q0 183 -117.5 280.5t-347.5 97.5h-234v600q-65 0 -92 9v16l92 -2h664q0 -75 -21 -168h-16l10 145h-612v-577h209q244 0 367.5 -105.5t123.5 -295.5q0 -202 -124.5 -317.5 t-321.5 -115.5q-113 0 -200.5 29t-170.5 86z" />
<glyph unicode="6" horiz-adv-x="1171" d="M154 578q0 177 46 328.5t131.5 264.5t216.5 177.5t292 64.5q44 0 88 -6q0 -66 -17 -133h-16l10 112q-50 5 -65 5q-153 0 -279 -63t-209 -173.5t-128 -260t-44 -323.5q79 122 197.5 200.5t269.5 78.5q180 0 285.5 -107.5t105.5 -293.5q0 -209 -118.5 -341.5t-305.5 -132.5 q-210 0 -335 152.5t-125 450.5zM180 541q7 -263 122 -403t312 -140q177 0 287.5 126.5t110.5 324.5q0 177 -98.5 277.5t-266.5 100.5q-267 0 -467 -286z" />
<glyph unicode="7" horiz-adv-x="1013" d="M102 1409h807l64 4v-16q-162 -132 -274 -278.5t-179 -317.5t-96.5 -358.5t-30.5 -419.5q57 0 92 -9v-14h-209v14q34 9 89 9q3 471 132 796t431 567h-799l10 -145h-16q-21 93 -21 168z" />
<glyph unicode="8" horiz-adv-x="1191" d="M133 365q0 156 110.5 260t321.5 145q-185 48 -270.5 127.5t-85.5 210.5q0 142 106.5 234t280.5 92q91 0 170 -29l262 12v-16q-97 -18 -219 -15q83 -41 128.5 -113t45.5 -161q0 -139 -91 -225t-265 -117q432 -98 432 -416q0 -164 -123.5 -271.5t-339.5 -107.5 q-210 0 -336.5 108.5t-126.5 281.5zM160 365q0 -162 121 -264.5t315 -102.5q201 0 318.5 99.5t117.5 256.5q0 305 -438 402q-216 -43 -325 -142t-109 -249zM236 1108q0 -124 83.5 -199.5t278.5 -124.5q186 35 272 114.5t86 213.5q0 130 -100 214.5t-260 84.5 q-159 0 -259.5 -83.5t-100.5 -219.5z" />
<glyph unicode="9" horiz-adv-x="1165" d="M143 1004q0 120 48 216t145 155t229 59q223 0 324.5 -158t101.5 -492q0 -187 -23 -329t-62.5 -232t-98.5 -146.5t-124 -79t-146 -22.5q-179 0 -332 136l2 163h18q6 -51 6 -159q75 -58 146 -87.5t160 -29.5q80 0 144 24.5t119 82.5t91.5 148.5t56 229t17.5 318.5 q-195 -219 -424 -219q-172 0 -285 109.5t-113 312.5zM170 1004q0 -192 104 -296t267 -104q231 0 424 232q-5 294 -100 434.5t-300 140.5q-182 0 -288.5 -116t-106.5 -291z" />
<glyph unicode=":" horiz-adv-x="614" d="M270 23q0 17 10.5 26.5t26.5 9.5t26.5 -9.5t10.5 -26.5t-10.5 -27t-26.5 -10t-26.5 10t-10.5 27zM270 965q0 17 10.5 26.5t26.5 9.5t26.5 -9.5t10.5 -26.5t-10.5 -27t-26.5 -10t-26.5 10t-10.5 27z" />
<glyph unicode=";" horiz-adv-x="628" d="M197 -217q110 163 135 313l26 -6q-17 -91 -50.5 -164.5t-92.5 -152.5zM270 965q0 17 10.5 26.5t26.5 9.5t26.5 -9.5t10.5 -26.5t-10.5 -27t-26.5 -10t-26.5 10t-10.5 27z" />
<glyph unicode="&#x3c;" d="M291 692v19l633 393l14 -21l-621 -381l621 -380l-14 -21z" />
<glyph unicode="=" d="M250 516v23h731v-23h-731zM250 868v23h731v-23h-731z" />
<glyph unicode="&#x3e;" d="M291 322l620 380l-620 381l14 21l633 -393v-19l-633 -391z" />
<glyph unicode="?" horiz-adv-x="1003" d="M117 1352q166 188 397 188q163 0 259.5 -92.5t96.5 -230.5q0 -75 -23.5 -137.5t-61.5 -108t-83.5 -86.5t-91 -83t-83.5 -87.5t-61.5 -109t-23.5 -138.5v-145h-20q-6 76 -6 145q0 78 23.5 143.5t61.5 112.5t83.5 89.5t91 83.5t83.5 85t61.5 104.5t23.5 131.5 q0 128 -89.5 213.5t-240.5 85.5q-207 0 -373 -173l17 -157h-19q-22 97 -22 166zM399 23q0 17 10.5 26.5t26.5 9.5t26.5 -9.5t10.5 -26.5t-10.5 -27t-26.5 -10t-26.5 10t-10.5 27z" />
<glyph unicode="@" horiz-adv-x="2150" d="M172 434q0 162 45 313t131 275.5t203 218t269.5 145.5t322.5 52q182 0 338 -59.5t264.5 -164t169.5 -251t61 -316.5q0 -176 -53.5 -331t-146 -248t-199.5 -93q-97 0 -148 58.5t-51 159.5q-144 -193 -366 -193q-142 0 -221.5 77.5t-79.5 198.5q0 136 87.5 216.5 t248.5 80.5q153 0 331 -57v139q0 289 -299 289q-133 0 -262 -37l12 -131h-14q-17 74 -20 146q131 45 286 45q156 0 239 -76.5t83 -226.5v-469q0 -98 45 -147.5t129 -49.5q99 0 185 88t137 238t51 323q0 223 -103 398t-287 272.5t-417 97.5q-166 0 -315.5 -52.5t-262.5 -145 t-196.5 -215.5t-126.5 -269t-43 -299q0 -209 68 -376.5t185 -273t268.5 -161t323.5 -55.5q163 0 296 34.5t262 98.5l8 -20q-269 -136 -566 -136q-141 0 -270 35.5t-239 108.5t-190.5 177t-126.5 249.5t-46 318.5zM737 276q0 -114 70.5 -183.5t204.5 -69.5q126 0 212.5 54.5 t153.5 149.5v269q-180 55 -331 55t-230.5 -73t-79.5 -202z" />
<glyph unicode="A" horiz-adv-x="1300" d="M-41 18l2 15q8 1 16 1q31 0 76 -9l8 -2l566 1388q-30 -7 -58 -7q-18 0 -34 3v14l127 15l577 -1413l8 2q45 9 76 9q9 0 16 -1l2 -15l-202 -36l-2 14q26 15 77 22l-178 443h-772l-178 -443q52 -8 78 -22l-2 -14zM274 483h752l-377 926z" />
<glyph unicode="B" horiz-adv-x="1290" d="M164 18v15q10 2 25 2q26 0 67 -6v1378q-40 -6 -67 -6q-15 0 -25 2v14q268 33 448 33q252 0 386.5 -98t134.5 -269q0 -83 -33.5 -147.5t-89.5 -102t-118.5 -57.5t-131.5 -26q91 -7 165.5 -32t131.5 -68.5t89 -110.5t32 -152q0 -193 -149 -298t-425 -105q-183 0 -440 34z M281 27q175 -19 323 -19q259 0 403 96.5t144 282.5q0 165 -129 256.5t-381 91.5h-360v-708zM281 758h350q101 0 185 18.5t150 56.5t103 102t37 148q0 160 -124.5 251t-352.5 91q-181 0 -348 -18v-649z" />
<glyph unicode="C" horiz-adv-x="1241" d="M133 719q0 215 79.5 382.5t226 262t337.5 94.5q111 0 192 -22.5t171 -65.5q0 -70 -23 -172h-18l14 158q-163 78 -336 78q-178 0 -318.5 -89.5t-219 -253t-78.5 -372.5q0 -317 166.5 -518t421.5 -201q191 0 358 92q0 111 6 160h18l3 -172q-91 -51 -178 -78t-207 -27 q-132 0 -246 54.5t-195 151.5t-127.5 236t-46.5 302z" />
<glyph unicode="D" horiz-adv-x="1429" d="M164 18v15q10 2 25 2q26 0 67 -6v1378q-40 -6 -67 -6q-15 0 -25 2v14q255 33 405 33q177 0 318 -58.5t229 -159.5t134 -232t46 -281q0 -126 -25.5 -234.5t-81.5 -202t-140.5 -159t-208 -102.5t-277.5 -37q-168 0 -399 34zM281 27q141 -19 282 -19q183 0 321 53.5 t221.5 150.5t124 224t40.5 283q0 146 -44.5 272.5t-129.5 224t-220.5 153.5t-306.5 56q-120 0 -288 -16v-1382z" />
<glyph unicode="E" horiz-adv-x="1177" d="M164 0v14q34 9 92 9v1388q-68 0 -92 8v17l92 -2h799q0 -81 -23 -183h-16l12 160h-747v-643h606l47 2l-2 -25h-651v-722h747q0 112 6 159h19l2 -182h-891z" />
<glyph unicode="F" horiz-adv-x="1095" d="M164 0v14q34 9 92 9v1388q-68 0 -92 8v17l92 -2h788v-23q-2 -68 -22 -160h-16l12 160h-737v-655h585l47 2l-2 -25h-630v-710q57 0 92 -9v-14h-209z" />
<glyph unicode="G" horiz-adv-x="1390" d="M133 698q0 176 48 320.5t132 240t198 147.5t247 52q122 0 211.5 -28t179.5 -80q-3 -66 -23 -152h-18l12 141q-83 46 -166.5 70.5t-193.5 24.5q-98 0 -187.5 -30t-164.5 -91.5t-130.5 -148t-86.5 -206.5t-31 -260q0 -324 149.5 -511t399.5 -187q81 0 152.5 18.5t132 54 t104.5 70.5t94 84v475l-404 -4l3 25h426l92 4v-16q-30 -9 -92 -9v-679q57 0 92 -9v-14h-115l-2 197q-45 -46 -88.5 -80.5t-103.5 -69t-134 -53.5t-157 -19q-263 0 -419.5 195.5t-156.5 527.5z" />
<glyph unicode="H" horiz-adv-x="1495" d="M164 0v14q34 9 92 9v1390q-56 0 -92 8v15l209 -6v-15q-23 -5 -59 -5q-15 0 -33 1v-661h933v661h-2q-18 -1 -33 -1q-36 0 -59 5v15l209 6v-15q-36 -8 -90 -8v-1390q57 0 92 -9v-14h-209v14q34 9 92 9v704h-933v-704q57 0 92 -9v-14h-209z" />
<glyph unicode="I" horiz-adv-x="536" d="M164 0v14q34 9 92 9v1388q-18 -1 -33 -1q-36 0 -59 5v15l209 6v-15q-36 -8 -92 -8v-1390q57 0 92 -9v-14h-92v-2h-25v2h-92z" />
<glyph unicode="J" horiz-adv-x="866" d="M61 74l2 129h19q6 -55 6 -121q110 -82 242 -82q56 0 106.5 20.5t94.5 63.5t70 120t26 179v1028q-18 -1 -33 -1q-36 0 -59 5v15l208 6v-15q-36 -8 -92 -8v-1034q0 -87 -19 -156.5t-50 -115t-73.5 -76t-86.5 -43.5t-92 -13q-143 0 -269 99z" />
<glyph unicode="K" horiz-adv-x="1189" d="M164 0v14q34 9 92 9v1390q-56 0 -92 8v15l209 -6v-15q-23 -5 -59 -5q-15 0 -33 1v-692l720 680q-51 9 -81 24l2 15l202 -37l-2 -15q-6 -1 -14 -1q-30 0 -78 10h-2l-719 -680l811 -690q42 9 73 9q8 0 15 -1l2 -15l-202 -36l-2 14q28 14 86 24l-811 689v-686q57 0 92 -9 v-14h-209z" />
<glyph unicode="L" horiz-adv-x="1067" d="M164 1421v15l209 -6v-15q-23 -5 -59 -5q-15 0 -33 1v-1388h749q0 112 6 159h19l2 -159v-23h-801v1413q-56 0 -92 8z" />
<glyph unicode="M" horiz-adv-x="1746" d="M164 0v14q34 9 92 9v1388q-65 0 -92 6v15l129 4l577 -1121l584 1121l129 -4v-15q-27 -6 -92 -6v-1388q57 0 92 -9v-14h-209v14q34 9 92 9v1392l-579 -1118l-31 -4l-577 1124v-1394h2q57 0 92 -9v-14h-209z" />
<glyph unicode="N" horiz-adv-x="1497" d="M164 0v14q34 9 92 9v1388q-65 0 -92 6v15l127 4l926 -1409v1384q-18 -1 -34 -1q-36 0 -59 5v15l209 6v-15q-36 -8 -92 -8v-1411l-35 -4l-925 1411v-1386q57 0 92 -9v-14h-209z" />
<glyph unicode="O" horiz-adv-x="1556" d="M133 719q0 160 45 296t127 234t203.5 153.5t269.5 55.5q196 0 344.5 -100.5t224.5 -268t76 -374.5q0 -214 -76.5 -381t-224 -263t-344.5 -96q-196 0 -344.5 100.5t-224.5 268.5t-76 375zM160 719q0 -119 27 -227.5t80 -198t127 -155t172.5 -102t211.5 -36.5 q278 0 448.5 197t170.5 518q0 201 -73.5 363t-216 259t-329.5 97q-278 0 -448 -197t-170 -518z" />
<glyph unicode="P" horiz-adv-x="1196" d="M164 1403v14q251 33 411 33q268 0 408.5 -115.5t140.5 -316.5q0 -212 -144.5 -325t-420.5 -113q-137 0 -278 24v-581h2q57 0 92 -9v-14h-209v14q34 9 90 9v1384q-40 -6 -67 -6q-15 0 -25 2zM281 629q122 -25 278 -25q257 0 398 105t141 307q0 193 -134 301t-389 108 q-113 0 -294 -16v-780z" />
<glyph unicode="Q" horiz-adv-x="1566" d="M133 719q0 160 45 296t127 234t203.5 153.5t269.5 55.5q197 0 345.5 -100.5t224 -267.5t75.5 -375q0 -213 -75.5 -379t-214.5 -260q40 -70 82.5 -97.5t101.5 -27.5q57 0 100 12q0 76 6 117h19l2 -125q-56 -27 -127 -27q-65 0 -114.5 30.5t-90.5 104.5q-142 -88 -334 -88 q-197 0 -345.5 100.5t-224 268t-75.5 375.5zM160 719q0 -150 43 -281.5t121 -228.5t195.5 -153t258.5 -56q179 0 322 84l-115 240l25 10l110 -236q133 88 205 247.5t72 369.5q0 202 -73.5 364t-215.5 258.5t-330 96.5q-278 0 -448 -197t-170 -518z" />
<glyph unicode="R" horiz-adv-x="1302" d="M164 0v14q34 9 92 9v1384q-40 -6 -67 -6q-15 0 -25 2v14q148 19 231.5 26t198.5 7q251 0 383.5 -102.5t132.5 -282.5q0 -94 -38 -166t-101.5 -114t-133 -64.5t-145.5 -28.5q113 -22 188.5 -84t141.5 -205l176 -378q45 9 76 9q9 0 16 -1l2 -15l-202 -36l-3 14q29 15 84 24 l-170 369q-34 73 -68 122t-83.5 90t-117 60t-157.5 19h-294v-657q57 0 92 -9v-14h-209zM281 702h286q110 1 202 22.5t163 64t111 113t40 163.5q0 170 -126 265t-359 95q-139 0 -317 -16v-707z" />
<glyph unicode="S" horiz-adv-x="1138" d="M92 121l2 153h19q6 -49 6 -141q96 -67 195.5 -100t244.5 -33q198 0 324.5 92t126.5 262q0 96 -36 159.5t-132 119.5t-277 115q-226 72 -322 153.5t-96 220.5q0 156 114.5 246t311.5 90q220 0 428 -125q-3 -84 -22 -168h-18l14 156q-202 113 -402 113q-181 0 -290 -82 t-109 -230q0 -130 91.5 -205.5t307.5 -146.5q270 -89 366.5 -174t96.5 -242q0 -178 -132.5 -278.5t-344.5 -100.5q-153 0 -257.5 36t-209.5 110z" />
<glyph unicode="T" horiz-adv-x="1118" d="M31 1430l1056 8q0 -86 -22 -183h-16l10 160l-488 -4v-1388q59 0 93 -9v-14h-209v14q35 9 92 9v1388l-490 -4l13 -160h-17q-22 97 -22 183z" />
<glyph unicode="U" horiz-adv-x="1400" d="M123 1421v15l209 -6v-15q-23 -5 -59 -5q-15 0 -33 1v-897q0 -130 34 -230t96.5 -161t145 -92t184.5 -31q100 0 182 29.5t145.5 90t98.5 161t35 233.5v897q-18 -1 -33 -1q-36 0 -59 5v15l209 6v-15q-36 -8 -92 -8v-905q0 -261 -131.5 -397t-354.5 -136q-221 0 -353 137 t-132 396v905q-56 0 -92 8z" />
<glyph unicode="V" horiz-adv-x="1257" d="M-41 1413l203 37l2 -14q-31 -16 -86 -25l551 -1384l553 1384q-56 9 -88 25l2 14l202 -37l-2 -14q-8 -1 -16 -1q-31 0 -74 9l-561 -1407h-33l-561 1407q-42 -9 -74 -9q-9 0 -16 1z" />
<glyph unicode="W" horiz-adv-x="1859" d="M-20 1413l202 37l2 -14q-32 -16 -88 -25l402 -1384l411 1271l35 7l414 -1278l403 1384q-55 9 -86 25l2 14l203 -37l-2 -14q-8 -1 -16 -1q-31 0 -76 9l-412 -1407h-33l-413 1280l-414 -1280h-33l-407 1407q-45 -9 -76 -9q-9 0 -16 1z" />
<glyph unicode="X" horiz-adv-x="1236" d="M0 18l2 15q8 1 16 1q31 0 76 -9l506 704l-469 678q-45 -9 -76 -9q-9 0 -16 1l-2 14l203 37l2 -14q-31 -16 -84 -25l458 -663l463 665q-49 7 -82 23l2 14l203 -37l-2 -14q-8 -1 -16 -1q-31 0 -76 9h-4l-471 -674l510 -708q45 9 76 9q9 0 16 -1l2 -15l-203 -36l-2 14 q29 14 88 24l-504 695l-495 -695q56 -10 84 -24l-2 -14z" />
<glyph unicode="Y" horiz-adv-x="1179" d="M-41 1413l203 37l2 -14q-32 -16 -84 -25l510 -838l512 838q-55 9 -86 25l2 14l203 -37l-2 -14q-8 -1 -16 -1q-33 0 -79 9l-522 -858v-526h2q58 0 92 -9v-14h-209v14q35 9 91 9v526l-525 858q-45 -9 -76 -9q-9 0 -16 1z" />
<glyph unicode="Z" horiz-adv-x="1118" d="M82 14l922 1397h-836l12 -160h-18q-23 102 -23 183h860l39 2v-15l-921 -1398h903q0 112 6 159h18l3 -182h-961z" />
<glyph unicode="[" horiz-adv-x="575" d="M205 -205v1721h258v-21h-236v-1679h236v-21h-258z" />
<glyph unicode="\" horiz-adv-x="921" d="M158 1559l22 10l586 -1690l-23 -10z" />
<glyph unicode="]" horiz-adv-x="575" d="M113 -184h235v1679h-235v21h258v-1721h-258v21z" />
<glyph unicode="^" d="M254 1171l356 345h13l352 -345l-17 -18l-342 336l-346 -336z" />
<glyph unicode="_" d="M0 -166h1229v-22h-1229v22z" />
<glyph unicode="`" horiz-adv-x="489" d="M61 1450l13 23l354 -195l-10 -18z" />
<glyph unicode="a" horiz-adv-x="1081" d="M92 276q0 157 100 248.5t285 91.5q184 0 381 -65v180q0 336 -344 336q-156 0 -303 -43l14 -156h-16q-20 85 -23 168q160 54 330 54q174 0 269.5 -89.5t95.5 -261.5v-544q-1 -104 33 -145q30 -37 91 -36h15l-8 -20h-9q-67 0 -105 42q-40 44 -40 150q-154 -221 -422 -221 q-162 0 -253 87.5t-91 223.5zM117 276q0 -129 83 -208.5t236 -79.5q147 0 247 61.5t175 169.5v309q-200 66 -381 66q-174 0 -267 -85t-93 -233z" />
<glyph unicode="b" horiz-adv-x="1210" d="M133 0v14q35 9 86 9v1472q-30 -5 -60 -5l-26 1v14l109 15v-631q66 88 165.5 144.5t221.5 56.5q201 0 335 -150.5t134 -394.5q0 -161 -61.5 -291.5t-173 -204.5t-251.5 -74q-206 0 -372 162l-2 -137h-105zM242 162q171 -164 370 -164q201 0 331 154.5t130 392.5 q0 157 -60 277t-160.5 182.5t-223.5 62.5q-115 0 -214 -55.5t-173 -151.5v-698z" />
<glyph unicode="c" horiz-adv-x="1007" d="M113 532q0 154 64.5 281t182 202t263.5 75q90 0 155.5 -20t136.5 -62q-3 -88 -22 -168h-16l14 155q-63 37 -125 54.5t-143 17.5q-135 0 -246.5 -70t-175.5 -193t-64 -272q0 -237 132.5 -385.5t338.5 -148.5q82 0 145 19.5t128 54.5q0 66 6 131h16l4 -140 q-143 -88 -299 -88q-216 0 -355.5 154.5t-139.5 402.5z" />
<glyph unicode="d" horiz-adv-x="1212" d="M113 530q0 125 39 232t104 177.5t149 110.5t175 40q242 0 389 -220v625q-30 -5 -60 -5l-26 1v14l108 15v-1325q-1 -104 33 -145q30 -37 91 -36h15l-8 -20h-9q-67 0 -105 42q-40 44 -39 150q-61 -97 -157.5 -154t-225.5 -57q-96 0 -182 38.5t-150.5 108.5t-102.5 176 t-38 232zM137 532q0 -120 36 -221.5t97 -169t143 -105.5t173 -38q242 0 383 219v621q-153 229 -389 229q-82 0 -161 -37.5t-142 -104t-101.5 -169.5t-38.5 -224z" />
<glyph unicode="e" horiz-adv-x="1087" d="M113 528q0 109 28 207.5t83 179t146.5 128t207.5 47.5q98 0 177.5 -37.5t128.5 -98.5t75 -135t26 -151l-2 -39l-840 -215q26 -200 141.5 -308t295.5 -108q162 0 309 68q0 66 6 131h16l4 -140q-157 -82 -335 -82q-216 0 -341.5 146t-125.5 407zM136 538q2 -56 5 -102 l822 211v5q-1 108 -41 200q-42 94 -131 154.5t-213 60.5q-81 0 -149 -23.5t-114 -64t-82.5 -93.5t-54.5 -112q-20 -58 -32 -119q-11 -54 -11 -105q1 -6 1 -12z" />
<glyph unicode="f" horiz-adv-x="661" d="M61 985v14q86 7 175 7v239q0 132 75 213.5t203 81.5q73 0 128.5 -19t117.5 -55l14 -159h-16q-18 80 -23 147q-106 64 -221 64q-117 0 -186.5 -75t-69.5 -198v-239h369l-9 -21h-360v-962h2q52 0 86 -9v-14h-194v14q34 9 84 9v962h-175z" />
<glyph unicode="g" horiz-adv-x="1196" d="M113 537q0 127 42 234t110 175.5t152 106t171 37.5q122 0 209.5 -41.5t167.5 -114.5l4 129l104 4v-14q-42 -11 -86 -11v-1036q0 -120 -33.5 -213t-92.5 -151t-135.5 -87.5t-166.5 -29.5q-183 0 -319 86l2 102h16q6 -43 6 -94q130 -72 295 -72q177 0 291.5 117.5 t114.5 341.5v195q-153 -201 -390 -201q-89 0 -172 37t-147.5 104t-103.5 170t-39 226zM137 537q0 -116 37 -214.5t98.5 -163t140 -100.5t162.5 -36q124 0 217.5 52.5t172.5 155.5v674q-90 82 -174 122t-203 40q-80 0 -159 -35.5t-144.5 -100.5t-106.5 -168t-41 -226z" />
<glyph unicode="h" horiz-adv-x="1236" d="M133 0v14q35 9 86 9v1472q-30 -5 -60 -5l-26 1v14l109 15v-775q77 152 194 248.5t262 96.5q162 0 250 -104t88 -284l2 -679q52 0 86 -9v-14h-194v14q34 9 84 9v673q0 174 -81.5 272.5t-232.5 98.5q-132 0 -250.5 -93t-207.5 -267v-684q52 0 86 -9v-14h-195z" />
<glyph unicode="i" horiz-adv-x="481" d="M143 0v14q35 9 86 9v1019q-44 0 -86 11v14l109 -4v-1040q52 0 86 -9v-14h-195zM188 1370q0 17 10.5 27t26.5 10t26.5 -10t10.5 -27t-10.5 -27t-26.5 -10t-26.5 10t-10.5 27z" />
<glyph unicode="j" horiz-adv-x="538" d="M-102 -430l2 102h16q6 -44 6 -92q74 -33 154 -33q225 0 225 287v1208q-11 -1 -22 -1q-45 0 -84 14v14l129 -6v-1233q0 -155 -65 -230t-183 -75q-93 0 -178 45zM264 1370q0 17 10.5 27t26.5 10t26.5 -10t10.5 -27t-10.5 -27t-26.5 -10t-26.5 10t-10.5 27z" />
<glyph unicode="k" horiz-adv-x="983" d="M133 1491v14l109 15v-934l565 463h-2q-50 7 -82 18l2 14l193 -28l-3 -15q-40 0 -81 6l-566 -460l621 -555q45 9 76 9q9 0 16 -1l2 -14l-203 -37l-2 14q31 16 86 25l-622 555v-557h4q52 0 86 -9v-14h-195v14q35 9 82 9v1472q-30 -5 -60 -5z" />
<glyph unicode="l" horiz-adv-x="661" d="M113 1491v14l108 15v-1260q0 -72 19 -124.5t52 -81.5t73 -42.5t88 -13.5q66 0 153 27q0 59 6 112h17l2 -123q-80 -39 -178 -39q-50 0 -93.5 14.5t-80.5 46t-58.5 87.5t-21.5 131v1241q-30 -5 -60 -5z" />
<glyph unicode="m" horiz-adv-x="1890" d="M143 0v14q35 9 86 9v1019q-44 0 -86 11v14l105 -4l2 -324q160 351 418 351q129 0 211.5 -92t89.5 -257q155 349 417 349q142 0 223 -103t81 -285v-679h2q52 0 86 -9v-14h-195v14q35 9 84 9v673q0 178 -74.5 274.5t-206.5 96.5q-124 0 -224 -85t-191 -275v-684q49 0 76 -9 v-14h-175v14q30 9 76 9v669q0 184 -76.5 279.5t-203.5 95.5q-122 0 -223.5 -86.5t-192.5 -273.5v-684q52 0 86 -9v-14h-195z" />
<glyph unicode="n" horiz-adv-x="1247" d="M143 0v14q35 9 86 9v1019q-44 0 -86 11v14l105 -4l2 -322q78 154 197 251.5t262 97.5q162 0 250 -104t88 -284l2 -679q51 0 86 -9v-14h-195v14q34 9 84 9v673q0 174 -81.5 272.5t-231.5 98.5q-131 0 -250.5 -93.5t-208.5 -266.5v-684q52 0 86 -9v-14h-195z" />
<glyph unicode="o" horiz-adv-x="1232" d="M113 532q0 158 64 285.5t179.5 200t259.5 72.5q148 0 264 -73.5t178 -200.5t62 -284q0 -240 -142.5 -398.5t-361.5 -158.5q-148 0 -263.5 73.5t-177.5 200t-62 283.5zM137 532q0 -151 59 -272t168.5 -191.5t251.5 -70.5q138 0 248 69.5t171 191.5t61 273t-59 272.5 t-169 192t-252 70.5q-209 0 -344 -152.5t-135 -382.5z" />
<glyph unicode="p" horiz-adv-x="1206" d="M72 1047l6 18q77 -9 118.5 -52t41.5 -147q66 100 166 162t231 62q93 0 176.5 -39t146 -108.5t99.5 -173t37 -224.5q0 -247 -128.5 -408.5t-322.5 -161.5q-242 0 -405 211v-614h2q55 0 86 -8v-15h-195v15q31 8 84 8v1292q0 96 -36 135.5t-107 47.5zM238 219 q172 -221 405 -221q182 0 304 155t122 392q0 118 -35.5 217.5t-95 165.5t-138 102.5t-165.5 36.5q-235 0 -397 -231v-617z" />
<glyph unicode="q" horiz-adv-x="1210" d="M113 530q0 125 40 232t107 177.5t153.5 110.5t178.5 40q125 0 214 -43t163 -115l4 131l104 4v-14q-42 -11 -86 -11v-1493h-108v15q31 8 86 8v596q-152 -193 -377 -193q-133 0 -241.5 66.5t-173 194t-64.5 294.5zM137 532q0 -239 130.5 -386.5t324.5 -147.5q218 0 377 201 v706q-90 83 -172.5 122.5t-204.5 39.5q-86 0 -167.5 -38t-145.5 -105t-103 -169.5t-39 -222.5z" />
<glyph unicode="r" horiz-adv-x="796" d="M123 1055v14l125 -6l2 -336q10 69 39 133t74 116t111.5 83t143.5 31q90 0 158 -27q-3 -91 -22 -172h-17l17 158q-58 18 -136 18q-72 0 -137 -31.5t-116.5 -91t-82 -155.5t-30.5 -216v-550q52 0 86 -9v-14h-195v14q35 9 86 9v1019q-11 -1 -22 -1q-45 0 -84 14z" />
<glyph unicode="s" horiz-adv-x="935" d="M102 86l4 139h17q6 -65 6 -131q82 -48 158 -72t184 -24q159 0 255 70q93 67 93 188v8q-3 116 -78 177t-264 112q-190 51 -269 113t-79 172q0 109 96.5 180.5t247.5 71.5q104 0 183 -23t161 -70q-3 -88 -22 -168h-17l15 156q-74 41 -148.5 61.5t-171.5 20.5 q-141 0 -230 -65.5t-89 -163.5q0 -102 77.5 -160.5t253.5 -104.5q197 -53 278 -121t81 -188q0 -138 -101.5 -213.5t-271.5 -75.5q-118 0 -199.5 28t-169.5 83z" />
<glyph unicode="t" horiz-adv-x="712" d="M31 1006v16q61 4 194 4v336h23v-336h338l-11 -20h-327v-746q0 -130 66.5 -196t162.5 -66q90 0 180 41q0 41 7 92h16l2 -102q-102 -54 -205 -54q-47 0 -90.5 16t-80.5 48.5t-59 88.5t-22 128v750h-194z" />
<glyph unicode="u" horiz-adv-x="1191" d="M102 1053v14l109 -4v-715q0 -173 89 -261.5t228 -88.5q123 0 225 55.5t195 161.5v827q-44 0 -86 11v14l109 -4v-866q-1 -107 33 -147q30 -36 91 -36h15l-8 -20h-9q-67 0 -105 42q-40 44 -40 150q-184 -211 -420 -211q-147 0 -243.5 94.5t-96.5 274.5v698q-44 0 -86 11z " />
<glyph unicode="v" horiz-adv-x="1067" d="M-20 1053l192 28l2 -14q-32 -11 -82 -18h-4l438 -1024l439 1026q-42 5 -72 16l2 14l192 -28l-2 -15q-43 0 -86 6l-12 3l-448 -1047h-25l-448 1044q-41 -6 -84 -6z" />
<glyph unicode="w" horiz-adv-x="1599" d="M10 1053l193 28l2 -14q-32 -11 -84 -18l344 -1022l317 979l27 4l319 -983l345 1022q-45 7 -78 18l2 14l192 -28l-2 -15q-43 0 -86 6l-8 3l-352 -1047h-25l-319 987l-320 -987h-24l-355 1044q-43 -6 -86 -6z" />
<glyph unicode="x" horiz-adv-x="1062" d="M20 18l3 15q8 1 16 1q31 0 74 -9l401 526l-369 493q-41 -6 -84 -6l-2 15l193 28l2 -14q-32 -11 -82 -18h-2l360 -484l361 484q-48 7 -80 18l2 14l193 -28l-2 -15q-43 0 -86 6h-5l-368 -493l403 -526q45 9 76 9q9 0 16 -1l2 -15l-202 -36l-2 14q28 14 86 24l-396 517 l-391 -517q59 -10 88 -24l-2 -14z" />
<glyph unicode="y" horiz-adv-x="1032" d="M-20 1053l192 28l2 -14q-32 -11 -82 -18h-4l459 -957l401 957q-46 7 -80 18l2 14l193 -28l-2 -15q-43 0 -86 6h-4l-492 -1171q-73 -173 -106 -227q-61 -99 -148 -117q-23 -4 -47 -4q-70 0 -129 35l2 102h17q6 -44 6 -92q58 -23 106 -23q41 0 75.5 17.5t55.5 34.5t51 71.5 t41.5 81t46.5 109.5q2 3 2.5 4.5t1.5 3.5t1.5 4t1.5 4l86 203h-15l-462 964q-41 -6 -84 -6z" />
<glyph unicode="z" horiz-adv-x="970" d="M92 18l746 1024h-682l14 -151h-18q-20 89 -23 174h702l39 2v-18l-745 -1026h727q0 112 6 159h19l2 -182h-783z" />
<glyph unicode="{" horiz-adv-x="749" d="M123 647v17q46 16 69 26.5t49.5 31t38 45t22.5 68t14 101t3 143.5q0 156 41 256t115.5 149t192.5 68v-22q-112 -20 -180 -66.5t-106 -140.5t-38 -244q0 -87 -3.5 -147.5t-15 -104.5t-23.5 -70t-38 -46t-48.5 -30.5t-65.5 -25.5q43 -15 65.5 -25.5t48.5 -30.5t38 -46 t23.5 -70t15 -104.5t3.5 -147.5q0 -113 20 -193t62.5 -132t100.5 -81t141 -44v-23q-118 19 -192.5 68t-115.5 149t-41 256q0 86 -3 143.5t-14 101.5t-22.5 68.5t-38 45t-49.5 31t-69 26.5z" />
<glyph unicode="|" horiz-adv-x="677" d="M328 -205v1782h22v-1782h-22z" />
<glyph unicode="}" horiz-adv-x="749" d="M82 -219q83 15 141 44t100.5 81t62.5 132t20 193q0 86 3.5 146t15 104t23.5 70t38 46.5t48.5 31t65.5 26.5q-42 15 -65 25.5t-49 31t-38 46.5t-23.5 70t-15 104.5t-3.5 146.5q0 150 -38 244t-106 140.5t-180 66.5v22q118 -19 192 -68t115 -148.5t41 -256.5 q0 -86 3 -143.5t14.5 -101t22.5 -68t38 -45t50 -31t69 -26.5v-17q-34 -12 -53 -20t-42.5 -21t-35 -26t-25.5 -35.5t-20 -49t-11.5 -65.5t-7.5 -87t-2 -112q0 -157 -41 -256.5t-115 -148.5t-192 -68v23z" />
<glyph unicode="~" d="M197 623q123 106 243 106q47 0 96.5 -18.5t85.5 -41t83 -41t90 -18.5q65 0 113 24t112 77l12 -17q-60 -52 -113.5 -79t-123.5 -27q-46 0 -95 18.5t-85 41t-83.5 41t-89.5 18.5q-67 0 -120 -25.5t-113 -77.5z" />
<glyph unicode="&#xa1;" horiz-adv-x="524" d="M225 965q0 17 10.5 26.5t26.5 9.5t26.5 -9.5t10.5 -26.5t-10.5 -27t-26.5 -10t-26.5 10t-10.5 27zM250 -451v1137h24v-1137h-24z" />
<glyph unicode="&#xa2;" horiz-adv-x="1009" d="M113 590q0 150 62 275.5t174.5 201t254.5 80.5l-2 217h25l-2 -217q88 0 154 -20t136 -62q-3 -88 -22 -168h-16l14 156q-121 71 -268 71q-135 0 -246.5 -70t-175.5 -192.5t-64 -271.5q0 -237 132.5 -386t338.5 -149q82 0 145 19.5t128 54.5q0 67 6 131h16l4 -139 q-139 -84 -282 -88l2 -228h-25l2 228q-214 2 -352.5 156t-138.5 401z" />
<glyph unicode="&#xa3;" horiz-adv-x="995" d="M123 715v22h182v320q0 177 84 277t232 100q57 0 110.5 -14t84 -29t73.5 -41q0 -70 -23 -172h-18l14 161q-122 72 -241 72q-135 0 -213 -94.5t-78 -261.5v-318h391l-4 -22h-387q0 -197 -18.5 -319t-51.5 -196t-102 -177h749q0 112 6 159h19l2 -182h-809v12 q74 109 109 188.5t53 199.5t18 315h-182z" />
<glyph unicode="&#xa4;" d="M246 248l137 160q-115 105 -115 284q0 182 113 287l-135 158l16 16l137 -164q83 64 215 64q125 0 215 -66l138 166l16 -18l-137 -160q115 -101 115 -283q0 -184 -115 -289l137 -155l-16 -17l-140 162q-80 -61 -213 -61q-131 0 -213 63l-139 -164zM293 694 q0 -153 84.5 -246.5t236.5 -93.5t237 89t85 247q0 154 -84.5 247t-237.5 93q-150 0 -235.5 -88.5t-85.5 -247.5z" />
<glyph unicode="&#xa5;" horiz-adv-x="1112" d="M-41 1389l203 36l2 -14q-32 -16 -90 -25l481 -804l481 804q-56 9 -88 25l2 14l203 -36l-2 -15q-35 -3 -92 8l-481 -809h376v-22h-387v-209h387v-23h-387v-296h2q59 0 93 -9v-14h-209v14q35 9 90 9v296h-387v23h387v209h-387v22h376l-483 809q-52 -11 -88 -8z" />
<glyph unicode="&#xa6;" horiz-adv-x="677" d="M328 -205v731h22v-731h-22zM328 864v713h22v-713h-22z" />
<glyph unicode="&#xa7;" horiz-adv-x="972" d="M164 694q0 204 307 297q-150 66 -207 119.5t-57 142.5q0 99 85 164.5t216 65.5q85 0 152 -21.5t139 -64.5q-3 -83 -23 -168h-16l14 157q-132 74 -262 74q-121 0 -200 -58.5t-79 -148.5q0 -85 59.5 -136t213.5 -113q170 -69 236.5 -138.5t66.5 -169.5q0 -109 -80 -175 t-221 -107q156 -63 217 -127t61 -156q0 -109 -88.5 -169t-224.5 -60q-96 0 -165 23t-134 63l4 139h17q6 -65 6 -129q123 -74 272 -74q122 0 204.5 53.5t82.5 153.5q0 86 -60 145.5t-227 126.5q-172 69 -240.5 130.5t-68.5 160.5zM190 694q0 -90 64.5 -148t222.5 -118 q305 79 305 268q0 93 -61 157.5t-219 127.5q-161 -52 -236.5 -122t-75.5 -165z" />
<glyph unicode="&#xa8;" horiz-adv-x="532" d="M61 1368q0 16 10.5 25.5t24.5 9.5t24.5 -9.5t10.5 -25.5t-10.5 -25.5t-24.5 -9.5t-24.5 9.5t-10.5 25.5zM401 1368q0 15 10 25t25 10t25 -10t10 -25t-10 -25t-25 -10t-25 10t-10 25z" />
<glyph unicode="&#xa9;" horiz-adv-x="1843" d="M207 717q0 210 86.5 377.5t251 265.5t379.5 98q221 0 384 -95t246.5 -261.5t83.5 -384.5q0 -157 -50.5 -293t-142 -235.5t-226.5 -156.5t-297 -57q-166 0 -301.5 55t-225.5 153.5t-139 235t-49 298.5zM233 717q0 -157 48 -289.5t135.5 -227.5t217.5 -148.5t288 -53.5 q208 0 366.5 96t241 258.5t82.5 364.5q0 210 -82 372.5t-239 254.5t-367 92q-156 0 -287 -55.5t-219 -152.5t-136.5 -228.5t-48.5 -282.5zM543 721q0 206 108 334.5t287 128.5q82 0 133.5 -14.5t110.5 -43.5q-3 -78 -19 -147h-14l10 135q-100 47 -221 47q-163 0 -266 -121 t-103 -317t97.5 -315t261.5 -119q118 0 219 53q0 48 6 109h16l5 -119q-57 -32 -112.5 -49t-133.5 -17q-177 0 -281 125t-104 330z" />
<glyph unicode="&#xaa;" d="M289 872q0 111 70.5 176.5t199.5 65.5q54 0 110 -9t79 -15t73 -21v127q0 121 -58 176t-177 55q-106 0 -205 -26l10 -121h-16q-17 70 -19 131q110 37 232 37q256 0 256 -246v-381q0 -75 32 -104t87 -29l-9 -18q-126 0 -131 133q-103 -150 -291 -150q-117 0 -180 59.5 t-63 159.5zM309 342v23h621v-23h-621zM313 872q0 -91 57 -143.5t162 -52.5q184 0 289 158v215q-2 0 -22 6t-25 7t-24 6t-28 6.5t-27.5 5.5t-31.5 5t-31.5 3.5t-36 3t-36.5 0.5q-120 0 -183 -59t-63 -161z" />
<glyph unicode="&#xab;" horiz-adv-x="991" d="M164 698v17l330 407l16 -14l-324 -401l324 -406l-16 -14zM502 698v17l329 407l17 -14l-324 -401l324 -406l-17 -14z" />
<glyph unicode="&#xac;" d="M184 715v22h858v-432h-24v410h-834z" />
<glyph unicode="&#xad;" d="M295 692v23h639v-23h-639z" />
<glyph unicode="&#xae;" horiz-adv-x="1843" d="M227 717q0 210 86.5 377.5t251 265.5t379.5 98q166 0 301.5 -55t225.5 -153t139 -234.5t49 -298.5q0 -210 -86.5 -378t-251 -266t-379.5 -98q-166 0 -301.5 55t-225.5 153.5t-139 235t-49 298.5zM254 717q0 -210 82 -372.5t239 -254.5t367 -92q208 0 366.5 96t241 258.5 t82.5 364.5q0 210 -82 372.5t-239 254.5t-367 92q-208 0 -366.5 -96t-241 -258.5t-82.5 -364.5zM629 285v12q24 8 67 8v832q-42 -5 -63 -2v16q193 23 260 23q159 0 246.5 -63.5t87.5 -176.5q0 -68 -36.5 -117t-89 -71.5t-114.5 -26.5q70 -12 122.5 -57t94.5 -156l76 -199 q41 7 68 4l2 -12l-158 -27l-2 13q22 11 63 18l-71 191q-45 116 -107.5 165.5t-169.5 49.5h-184v-404q46 0 67 -8v-12h-159zM721 731h178q144 0 222.5 51.5t78.5 151.5q0 105 -78.5 161t-220.5 56q-75 0 -180 -10v-410z" />
<glyph unicode="&#xaf;" horiz-adv-x="618" d="M61 1343v23h496v-23h-496z" />
<glyph unicode="&#xb0;" horiz-adv-x="921" d="M150 1227q0 112 73.5 184t186.5 72q116 0 188 -71t72 -185q0 -112 -73.5 -184t-186.5 -72q-116 0 -188 71t-72 185zM174 1227q0 -102 67 -168t169 -66q103 0 169 65.5t66 168.5q0 102 -66.5 167.5t-168.5 65.5q-103 0 -169.5 -65.5t-66.5 -167.5z" />
<glyph unicode="&#xb1;" d="M238 836v22h364v338h25v-338h364v-22h-364v-338h-25v338h-364zM248 221v23h733v-23h-733z" />
<glyph unicode="&#xb2;" horiz-adv-x="921" d="M197 588q0 67 21 125.5t56 99.5t79 80t90.5 67.5t90.5 61t79 61.5t56 68t21 82q0 91 -60.5 142.5t-162.5 51.5q-129 0 -240 -96l13 -125h-15q-18 71 -18 135q60 53 120.5 80t139.5 27q115 0 180.5 -58t65.5 -157q0 -52 -27 -97.5t-71 -80.5t-96.5 -69.5t-105 -73 t-96.5 -82t-71 -106t-27 -136.5h479q0 66 7 119h16l2 -142h-524q-2 8 -2 23z" />
<glyph unicode="&#xb3;" horiz-adv-x="921" d="M186 616l2 132h15q6 -49 6 -123q108 -54 225 -54q126 0 201.5 63t75.5 171q0 102 -79.5 158.5t-238.5 56.5h-88l4 20h74q138 0 216.5 48t78.5 147q0 86 -64.5 139t-171.5 53q-126 0 -233 -61l12 -127h-14q-19 74 -19 135q120 74 254 74q117 0 187.5 -59.5t70.5 -153.5 q0 -167 -206 -203q46 -5 86 -19t75.5 -40t56.5 -69t21 -99q0 -115 -80.5 -184.5t-218.5 -69.5q-134 0 -248 65z" />
<glyph unicode="&#xb4;" horiz-adv-x="489" d="M61 1278l355 195l12 -23l-356 -190z" />
<glyph unicode="&#xb6;" horiz-adv-x="1351" d="M72 1221q0 173 120 273.5t332 100.5q107 0 260 -18v-1708h-116v14q31 8 92 8v1000q-117 -31 -271 -31q-184 0 -300.5 96.5t-116.5 264.5zM98 1221q0 -159 108.5 -248.5t282.5 -89.5q156 0 271 30v643q-146 17 -234 17q-197 0 -312.5 -93t-115.5 -259zM1071 -131v1708 l111 -14v-15q-43 -3 -86 4v-1661q61 0 92 -8v-14h-117z" />
<glyph unicode="&#xb7;" horiz-adv-x="614" d="M270 733q0 17 10.5 27t26.5 10t26.5 -10t10.5 -27t-10.5 -27t-26.5 -10t-26.5 10t-10.5 27z" />
<glyph unicode="&#xb8;" horiz-adv-x="479" d="M61 -403l11 18q68 -35 153 -35q75 0 121.5 35t46.5 94q0 64 -54.5 97.5t-197.5 33.5l62 156h22l-53 -139q244 0 244 -148q0 -67 -53 -108t-138 -41q-89 0 -164 37z" />
<glyph unicode="&#xb9;" horiz-adv-x="921" d="M223 1266l271 172l16 -4v-850h143q31 0 43 -4v-15h-440v15q16 4 39 4h194v827l-253 -162z" />
<glyph unicode="&#xba;" d="M248 1059q0 174 99.5 281.5t266.5 107.5q116 0 200.5 -54t125.5 -143t41 -200q0 -173 -100 -281t-267 -108q-173 0 -269.5 112.5t-96.5 284.5zM272 1059q0 -167 91.5 -271t250.5 -104q151 0 246.5 99t95.5 268q0 167 -91.5 270.5t-250.5 103.5q-151 0 -246.5 -98.5 t-95.5 -267.5zM309 342v23h611v-23h-611z" />
<glyph unicode="&#xbb;" horiz-adv-x="991" d="M164 301l323 406l-323 401l16 14l330 -407v-17l-330 -411zM502 301l323 406l-323 401l16 14l330 -407v-17l-330 -411z" />
<glyph unicode="&#xbc;" horiz-adv-x="2185" d="M223 1266l271 172l16 -4v-850h143q31 0 43 -4v-15h-440v15q16 4 39 4h194v827l-253 -162zM614 -70l938 1586l19 -13l-938 -1585zM1411 211v18l332 652l20 -11l-327 -639h446v295l23 4v-299h133l-4 -20h-129v-191q38 0 69 -8v-12h-162v12q31 8 70 8v191h-471z" />
<glyph unicode="&#xbd;" horiz-adv-x="2185" d="M223 1266l271 172l16 -4v-850h143q31 0 43 -4v-15h-440v15q16 4 39 4h194v827l-253 -162zM614 -70l938 1586l19 -13l-938 -1585zM1460 23q0 67 21 125.5t56 99.5t79.5 80t90.5 67.5t90.5 61t79.5 61.5t56 68t21 82q0 91 -60.5 142.5t-162.5 51.5q-129 0 -240 -96l12 -125 h-14q-19 74 -19 135q60 52 121 79.5t140 27.5q115 0 180 -58t65 -157q0 -52 -27 -97.5t-70.5 -80.5t-96.5 -69.5t-105.5 -73t-96 -82t-70.5 -106t-27 -136.5h479q0 73 6 118h17l2 -141h-525q-2 8 -2 23z" />
<glyph unicode="&#xbe;" horiz-adv-x="2185" d="M186 616l2 132h15q6 -49 6 -123q108 -54 225 -54q126 0 201.5 63t75.5 171q0 102 -79.5 158.5t-238.5 56.5h-88l4 20h74q138 0 216.5 48t78.5 147q0 86 -64.5 139t-171.5 53q-126 0 -233 -61l12 -127h-14q-19 74 -19 135q120 74 254 74q117 0 187.5 -59.5t70.5 -153.5 q0 -167 -206 -203q46 -5 86 -19t75.5 -40t56.5 -69t21 -99q0 -115 -80.5 -184.5t-218.5 -69.5q-134 0 -248 65zM614 -70l938 1586l19 -13l-938 -1585zM1411 211v18l332 652l20 -11l-327 -639h446v295l23 4v-299h133l-4 -20h-129v-191q38 0 69 -8v-12h-162v12q31 8 70 8v191 h-471z" />
<glyph unicode="&#xbf;" horiz-adv-x="1003" d="M133 -162q0 73 23.5 134t61.5 103.5t83.5 80.5l91 76t83.5 80t61.5 101t23.5 130v145h21q6 -76 6 -145q0 -74 -23.5 -135.5t-61.5 -104t-83.5 -81.5t-91 -77t-83.5 -79.5t-61.5 -99.5t-23.5 -128q0 -127 88 -208t237 -81q215 0 375 170q0 115 6 166h19l2 -172 q-166 -188 -402 -188q-161 0 -256.5 88t-95.5 225zM532 965q0 17 10.5 26.5t26.5 9.5t26.5 -9.5t10.5 -26.5t-10.5 -27t-26.5 -10t-26.5 10t-10.5 27z" />
<glyph unicode="&#xc0;" horiz-adv-x="1300" d="M-41 18l2 15q35 3 92 -8l8 -2l566 1388q-49 -11 -92 -4v14l127 15l577 -1413l8 2q57 11 92 8l2 -15l-202 -36l-2 14q26 15 77 22l-178 443h-772l-178 -443q52 -8 78 -22l-2 -14zM274 483h752l-377 926zM473 1788l12 22l355 -194l-11 -19z" />
<glyph unicode="&#xc1;" horiz-adv-x="1300" d="M-41 18l2 15q35 3 92 -8l8 -2l566 1388q-49 -11 -92 -4v14l127 15l577 -1413l8 2q57 11 92 8l2 -15l-202 -36l-2 14q26 15 77 22l-178 443h-772l-178 -443q52 -8 78 -22l-2 -14zM274 483h752l-377 926zM453 1616l354 194l12 -22l-356 -191z" />
<glyph unicode="&#xc2;" horiz-adv-x="1300" d="M-41 18l2 15q35 3 92 -8l8 -2l566 1388q-49 -11 -92 -4v14l127 15l577 -1413l8 2q57 11 92 8l2 -15l-202 -36l-2 14q26 15 77 22l-178 443h-772l-178 -443q52 -8 78 -22l-2 -14zM274 483h752l-377 926zM346 1608l277 186h28l277 -186l-15 -19l-276 187l-277 -187z" />
<glyph unicode="&#xc3;" horiz-adv-x="1300" d="M-41 18l2 15q35 3 92 -8l8 -2l566 1388q-49 -11 -92 -4v14l127 15l577 -1413l8 2q57 11 92 8l2 -15l-202 -36l-2 14q26 15 77 22l-178 443h-772l-178 -443q52 -8 78 -22l-2 -14zM274 483h752l-377 926zM360 1688q83 86 168 86q41 0 83.5 -22t80.5 -44t70 -22 q36 0 66 16.5t71 52.5l14 -14q-40 -40 -73.5 -60t-75.5 -20q-39 0 -79.5 22t-80 44t-76.5 22q-68 0 -153 -76z" />
<glyph unicode="&#xc4;" horiz-adv-x="1300" d="M-41 18l2 15q35 3 92 -8l8 -2l566 1388q-49 -11 -92 -4v14l127 15l577 -1413l8 2q57 11 92 8l2 -15l-202 -36l-2 14q26 15 77 22l-178 443h-772l-178 -443q52 -8 78 -22l-2 -14zM274 483h752l-377 926zM432 1716q0 16 10.5 25.5t24.5 9.5t24.5 -9.5t10.5 -25.5 t-10.5 -25.5t-24.5 -9.5t-24.5 9.5t-10.5 25.5zM772 1716q0 15 10 25t25 10t25 -10t10 -25t-10 -25t-25 -10t-25 10t-10 25z" />
<glyph unicode="&#xc5;" horiz-adv-x="1300" d="M-41 18l2 15q35 3 92 -8l8 -2l566 1388q-82 6 -132.5 59.5t-50.5 135.5q0 88 56.5 141t142.5 53q88 0 143.5 -54t55.5 -140q0 -81 -48 -133t-124 -60l569 -1390l8 2q57 11 92 8l2 -15l-202 -36l-2 14q26 15 77 22l-178 443h-772l-178 -443q52 -8 78 -22l-2 -14zM274 483 h752l-377 926zM469 1606q0 -78 49 -125t125 -47q75 0 124.5 45t49.5 127q0 78 -49 125t-125 47q-75 0 -124.5 -45t-49.5 -127z" />
<glyph unicode="&#xc6;" horiz-adv-x="1818" d="M-61 18l2 15q36 3 90 -8l893 1386q-49 -11 -93 -4v14l107 13h758q0 -81 -23 -183h-16l12 160h-696v-643h575l47 2l-2 -25h-620v-722h696q0 112 6 159h19l2 -182h-748v461h-610l-281 -441q58 -10 86 -24l-2 -14zM352 483h596v926z" />
<glyph unicode="&#xc7;" horiz-adv-x="1241" d="M133 719q0 215 79.5 382.5t226 262t337.5 94.5q111 0 192 -22.5t171 -65.5q0 -70 -23 -172h-18l14 158q-163 78 -336 78q-178 0 -318.5 -89.5t-219 -253t-78.5 -372.5q0 -317 166.5 -518t421.5 -201q191 0 358 92q0 111 6 160h18l3 -172q-91 -51 -178 -78t-207 -27 l-46 -118q244 0 244 -148q0 -67 -52.5 -108t-137.5 -41q-89 0 -164 37l10 18q68 -35 154 -35q75 0 121.5 35t46.5 94q0 64 -54.5 97.5t-197.5 33.5l53 135q-128 4 -237.5 60.5t-187.5 153.5t-122.5 233.5t-44.5 296.5z" />
<glyph unicode="&#xc8;" horiz-adv-x="1177" d="M164 0v14q34 9 92 9v1388q-68 0 -92 8v17l92 -2h799q0 -81 -23 -183h-16l12 160h-747v-643h606l47 2l-2 -25h-651v-722h747q0 112 6 159h19l2 -182h-891zM492 1788l12 22l354 -194l-10 -19z" />
<glyph unicode="&#xc9;" horiz-adv-x="1177" d="M164 0v14q34 9 92 9v1388q-68 0 -92 8v17l92 -2h799q0 -81 -23 -183h-16l12 160h-747v-643h606l47 2l-2 -25h-651v-722h747q0 112 6 159h19l2 -182h-891zM471 1616l354 194l13 -22l-357 -191z" />
<glyph unicode="&#xca;" horiz-adv-x="1177" d="M164 0v14q34 9 92 9v1388q-68 0 -92 8v17l92 -2h799q0 -81 -23 -183h-16l12 160h-747v-643h606l47 2l-2 -25h-651v-722h747q0 112 6 159h19l2 -182h-891zM365 1608l276 186h29l276 -186l-14 -19l-277 187l-276 -187z" />
<glyph unicode="&#xcb;" horiz-adv-x="1177" d="M164 0v14q34 9 92 9v1388q-68 0 -92 8v17l92 -2h799q0 -81 -23 -183h-16l12 160h-747v-643h606l47 2l-2 -25h-651v-722h747q0 112 6 159h19l2 -182h-891zM451 1716q0 16 10 25.5t24 9.5t24.5 -9.5t10.5 -25.5t-10.5 -25.5t-24.5 -9.5t-24 9.5t-10 25.5zM791 1716 q0 15 9.5 25t24.5 10t25 -10t10 -25t-10 -25t-25 -10t-24.5 10t-9.5 25z" />
<glyph unicode="&#xcc;" horiz-adv-x="536" d="M106 1788l13 22l354 -194l-10 -19zM164 0v14q34 9 92 9v1388q-59 -3 -92 4v15l209 6v-15q-36 -8 -92 -8v-1390q57 0 92 -9v-14h-92v-2h-25v2h-92z" />
<glyph unicode="&#xcd;" horiz-adv-x="536" d="M86 1616l354 194l13 -22l-357 -191zM164 0v14q34 9 92 9v1388q-59 -3 -92 4v15l209 6v-15q-36 -8 -92 -8v-1390q57 0 92 -9v-14h-92v-2h-25v2h-92z" />
<glyph unicode="&#xce;" horiz-adv-x="536" d="M-20 1608l276 186h29l276 -186l-14 -19l-277 187l-276 -187zM164 0v14q34 9 92 9v1388q-59 -3 -92 4v15l209 6v-15q-36 -8 -92 -8v-1390q57 0 92 -9v-14h-92v-2h-25v2h-92z" />
<glyph unicode="&#xcf;" horiz-adv-x="536" d="M66 1716q0 16 10 25.5t24 9.5t24.5 -9.5t10.5 -25.5t-10.5 -25.5t-24.5 -9.5t-24 9.5t-10 25.5zM164 0v14q34 9 92 9v1388q-59 -3 -92 4v15l209 6v-15q-36 -8 -92 -8v-1390q57 0 92 -9v-14h-92v-2h-25v2h-92zM406 1716q0 15 9.5 25t24.5 10t25 -10t10 -25t-10 -25 t-25 -10t-24.5 10t-9.5 25z" />
<glyph unicode="&#xd0;" horiz-adv-x="1474" d="M184 719v22h168v666q-63 -9 -92 -4v14q255 33 406 33q177 0 318 -58.5t229 -159.5t134 -232t46 -281q0 -126 -25.5 -234.5t-82 -202t-140.5 -159t-208 -102.5t-278 -37q-168 0 -399 34v15q29 5 92 -4v690h-168zM377 27q141 -19 282 -19q183 0 321 53.5t221.5 150.5 t124 224t40.5 283q0 116 -27.5 220.5t-84.5 193.5t-138.5 154t-197 101.5t-252.5 36.5q-121 0 -289 -16v-668h446v-22h-446v-692z" />
<glyph unicode="&#xd1;" horiz-adv-x="1497" d="M164 0v14q34 9 92 9v1388q-65 0 -92 6v15l127 4l926 -1409v1384q-60 -3 -93 4v15l209 6v-15q-36 -8 -92 -8v-1411l-35 -4l-925 1411v-1386q57 0 92 -9v-14h-209zM494 1688q83 86 168 86q52 0 124 -44t109 -44q36 0 66 16.5t71 52.5l15 -14q-39 -39 -73.5 -59.5 t-76.5 -20.5q-39 0 -79 22t-79.5 44t-76.5 22q-69 0 -154 -76z" />
<glyph unicode="&#xd2;" horiz-adv-x="1556" d="M133 719q0 160 45 296t127 234t203.5 153.5t269.5 55.5q196 0 344.5 -100.5t224.5 -268t76 -374.5q0 -214 -76.5 -381t-224 -263t-344.5 -96q-196 0 -344.5 100.5t-224.5 268.5t-76 375zM160 719q0 -119 27 -227.5t80 -198t127 -155t172.5 -102t211.5 -36.5 q278 0 448.5 197t170.5 518q0 201 -73.5 363t-216 259t-329.5 97q-278 0 -448 -197t-170 -518zM614 1788l13 22l354 -194l-10 -19z" />
<glyph unicode="&#xd3;" horiz-adv-x="1556" d="M133 719q0 160 45 296t127 234t203.5 153.5t269.5 55.5q196 0 344.5 -100.5t224.5 -268t76 -374.5q0 -214 -76.5 -381t-224 -263t-344.5 -96q-196 0 -344.5 100.5t-224.5 268.5t-76 375zM160 719q0 -119 27 -227.5t80 -198t127 -155t172.5 -102t211.5 -36.5 q278 0 448.5 197t170.5 518q0 201 -73.5 363t-216 259t-329.5 97q-278 0 -448 -197t-170 -518zM594 1616l354 194l13 -22l-357 -191z" />
<glyph unicode="&#xd4;" horiz-adv-x="1556" d="M133 719q0 160 45 296t127 234t203.5 153.5t269.5 55.5q196 0 344.5 -100.5t224.5 -268t76 -374.5q0 -214 -76.5 -381t-224 -263t-344.5 -96q-196 0 -344.5 100.5t-224.5 268.5t-76 375zM160 719q0 -119 27 -227.5t80 -198t127 -155t172.5 -102t211.5 -36.5 q278 0 448.5 197t170.5 518q0 201 -73.5 363t-216 259t-329.5 97q-278 0 -448 -197t-170 -518zM487 1608l277 186h29l276 -186l-14 -19l-277 187l-276 -187z" />
<glyph unicode="&#xd5;" horiz-adv-x="1556" d="M133 719q0 160 45 296t127 234t203.5 153.5t269.5 55.5q196 0 344.5 -100.5t224.5 -268t76 -374.5q0 -214 -76.5 -381t-224 -263t-344.5 -96q-196 0 -344.5 100.5t-224.5 268.5t-76 375zM160 719q0 -119 27 -227.5t80 -198t127 -155t172.5 -102t211.5 -36.5 q278 0 448.5 197t170.5 518q0 201 -73.5 363t-216 259t-329.5 97q-278 0 -448 -197t-170 -518zM502 1688q83 86 168 86q52 0 124 -44t109 -44q36 0 66 16.5t71 52.5l15 -14q-39 -39 -73.5 -59.5t-76.5 -20.5q-39 0 -79 22t-79.5 44t-76.5 22q-69 0 -154 -76z" />
<glyph unicode="&#xd6;" horiz-adv-x="1556" d="M133 719q0 160 45 296t127 234t203.5 153.5t269.5 55.5q196 0 344.5 -100.5t224.5 -268t76 -374.5q0 -214 -76.5 -381t-224 -263t-344.5 -96q-196 0 -344.5 100.5t-224.5 268.5t-76 375zM160 719q0 -119 27 -227.5t80 -198t127 -155t172.5 -102t211.5 -36.5 q278 0 448.5 197t170.5 518q0 201 -73.5 363t-216 259t-329.5 97q-278 0 -448 -197t-170 -518zM573 1716q0 16 10.5 25.5t24.5 9.5t24.5 -9.5t10.5 -25.5t-10.5 -25.5t-24.5 -9.5t-24.5 9.5t-10.5 25.5zM913 1716q0 15 10 25t25 10t25 -10t10 -25t-10 -25t-25 -10t-25 10 t-10 25z" />
<glyph unicode="&#xd7;" d="M262 1042l17 17l335 -338l334 338l17 -17l-334 -335l334 -342l-17 -17l-334 342l-329 -342l-17 17l330 340z" />
<glyph unicode="&#xd8;" horiz-adv-x="1556" d="M133 719q0 160 45 296t127 234t203.5 153.5t269.5 55.5q176 0 314 -80l135 283l22 -10l-139 -285q150 -93 231.5 -265t81.5 -386t-76.5 -381t-224 -263t-344.5 -96q-160 0 -293 68l-135 -283l-22 11l139 284q-158 90 -246 267t-88 397zM160 719q0 -215 83 -384.5 t234 -258.5l604 1280q-137 78 -303 78q-278 0 -448 -197t-170 -518zM498 66q126 -66 280 -66q278 0 448.5 197t170.5 518q0 208 -77.5 373.5t-219.5 257.5z" />
<glyph unicode="&#xd9;" horiz-adv-x="1400" d="M123 1421v15l209 -6v-15q-33 -7 -92 -4v-897q0 -130 34 -230t96.5 -161t145 -92t184.5 -31q100 0 182 29.5t145.5 90t98.5 161t35 233.5v897q-59 -3 -92 4v15l209 6v-15q-36 -8 -92 -8v-905q0 -261 -131.5 -397t-354.5 -136q-221 0 -353 137t-132 396v905q-56 0 -92 8z M543 1788l12 22l354 -194l-10 -19z" />
<glyph unicode="&#xda;" horiz-adv-x="1400" d="M123 1421v15l209 -6v-15q-33 -7 -92 -4v-897q0 -130 34 -230t96.5 -161t145 -92t184.5 -31q100 0 182 29.5t145.5 90t98.5 161t35 233.5v897q-59 -3 -92 4v15l209 6v-15q-36 -8 -92 -8v-905q0 -261 -131.5 -397t-354.5 -136q-221 0 -353 137t-132 396v905q-56 0 -92 8z M522 1616l355 194l12 -22l-357 -191z" />
<glyph unicode="&#xdb;" horiz-adv-x="1400" d="M123 1421v15l209 -6v-15q-33 -7 -92 -4v-897q0 -130 34 -230t96.5 -161t145 -92t184.5 -31q100 0 182 29.5t145.5 90t98.5 161t35 233.5v897q-59 -3 -92 4v15l209 6v-15q-36 -8 -92 -8v-905q0 -261 -131.5 -397t-354.5 -136q-221 0 -353 137t-132 396v905q-56 0 -92 8z M416 1608l276 186h29l276 -186l-14 -19l-276 187l-277 -187z" />
<glyph unicode="&#xdc;" horiz-adv-x="1400" d="M123 1421v15l209 -6v-15q-33 -7 -92 -4v-897q0 -130 34 -230t96.5 -161t145 -92t184.5 -31q100 0 182 29.5t145.5 90t98.5 161t35 233.5v897q-59 -3 -92 4v15l209 6v-15q-36 -8 -92 -8v-905q0 -261 -131.5 -397t-354.5 -136q-221 0 -353 137t-132 396v905q-56 0 -92 8z M502 1716q0 16 10.5 25.5t24.5 9.5t24 -9.5t10 -25.5t-10 -25.5t-24 -9.5t-24.5 9.5t-10.5 25.5zM842 1716q0 15 10 25t25 10t24.5 -10t9.5 -25t-9.5 -25t-24.5 -10t-25 10t-10 25z" />
<glyph unicode="&#xdd;" horiz-adv-x="1179" d="M-41 1413l203 37l2 -14q-32 -16 -84 -25l510 -838l512 838q-55 9 -86 25l2 14l203 -37l-2 -14q-36 -3 -95 8l-522 -858v-526h2q58 0 92 -9v-14h-209v14q35 9 91 9v526l-525 858q-57 -11 -92 -8zM406 1616l354 194l12 -22l-356 -191z" />
<glyph unicode="&#xde;" horiz-adv-x="1183" d="M164 0v14q34 9 90 9v1390q-54 0 -90 8v15l209 -6v-15q-33 -7 -92 -4h-2v-256q151 23 284 23q263 0 406 -119t143 -316q0 -218 -146 -340t-419 -122q-124 0 -268 18v-276h2q57 0 92 -9v-14h-209zM279 324q148 -19 268 -19q257 0 397.5 113.5t140.5 322.5q0 190 -136 301 t-386 111q-134 0 -284 -23v-806z" />
<glyph unicode="&#xdf;" horiz-adv-x="1187" d="M51 1047l6 18q72 -3 114 -39t52 -123q0 316 108 476.5t320 160.5q158 0 258.5 -101.5t100.5 -262.5q0 -163 -95.5 -255t-246.5 -108q88 -5 163 -32.5t135.5 -77t95 -129.5t34.5 -183q0 -192 -117 -304t-293 -112q-145 0 -268 68l2 121h18q6 -53 6 -111q116 -55 242 -55 q163 0 274 104.5t111 288.5q0 201 -132.5 306.5t-373.5 105.5v18q207 0 313.5 96.5t106.5 258.5q0 153 -92.5 247.5t-239.5 94.5q-208 0 -311.5 -165.5t-103.5 -539.5v-1241h2q55 0 86 -8v-15h-195v15q31 8 84 8v1241q0 127 -42 179t-122 55z" />
<glyph unicode="&#xe0;" horiz-adv-x="1081" d="M92 276q0 157 100 248.5t285 91.5q184 0 381 -65v180q0 336 -344 336q-156 0 -303 -43l14 -156h-16q-20 85 -23 168q160 54 330 54q174 0 269.5 -89.5t95.5 -261.5v-544q0 -104 33.5 -145t105.5 -36l-8 -20q-74 -3 -114 41.5t-40 150.5q-154 -221 -422 -221 q-162 0 -253 87.5t-91 223.5zM117 276q0 -129 83 -208.5t236 -79.5q147 0 247 61.5t175 169.5v309q-200 66 -381 66q-174 0 -267 -85t-93 -233zM340 1450l12 23l355 -195l-11 -18z" />
<glyph unicode="&#xe1;" horiz-adv-x="1081" d="M92 276q0 157 100 248.5t285 91.5q184 0 381 -65v180q0 336 -344 336q-156 0 -303 -43l14 -156h-16q-20 85 -23 168q160 54 330 54q174 0 269.5 -89.5t95.5 -261.5v-544q0 -104 33.5 -145t105.5 -36l-8 -20q-74 -3 -114 41.5t-40 150.5q-154 -221 -422 -221 q-162 0 -253 87.5t-91 223.5zM117 276q0 -129 83 -208.5t236 -79.5q147 0 247 61.5t175 169.5v309q-200 66 -381 66q-174 0 -267 -85t-93 -233zM340 1278l354 195l13 -23l-357 -190z" />
<glyph unicode="&#xe2;" horiz-adv-x="1081" d="M92 276q0 157 100 248.5t285 91.5q184 0 381 -65v180q0 336 -344 336q-156 0 -303 -43l14 -156h-16q-20 85 -23 168q160 54 330 54q174 0 269.5 -89.5t95.5 -261.5v-544q0 -104 33.5 -145t105.5 -36l-8 -20q-74 -3 -114 41.5t-40 150.5q-154 -221 -422 -221 q-162 0 -253 87.5t-91 223.5zM117 276q0 -129 83 -208.5t236 -79.5q147 0 247 61.5t175 169.5v309q-200 66 -381 66q-174 0 -267 -85t-93 -233zM233 1266l277 211h29l276 -211l-16 -19l-275 211l-274 -211z" />
<glyph unicode="&#xe3;" horiz-adv-x="1081" d="M92 276q0 157 100 248.5t285 91.5q184 0 381 -65v180q0 336 -344 336q-156 0 -303 -43l14 -156h-16q-20 85 -23 168q160 54 330 54q174 0 269.5 -89.5t95.5 -261.5v-544q0 -104 33.5 -145t105.5 -36l-8 -20q-74 -3 -114 41.5t-40 150.5q-154 -221 -422 -221 q-162 0 -253 87.5t-91 223.5zM117 276q0 -129 83 -208.5t236 -79.5q147 0 247 61.5t175 169.5v309q-200 66 -381 66q-174 0 -267 -85t-93 -233zM248 1339q83 86 168 86q52 0 124 -44t109 -44q36 0 65.5 17t71.5 53l15 -14q-39 -39 -73.5 -59.5t-76.5 -20.5q-39 0 -79 22 t-79.5 44t-76.5 22q-69 0 -154 -76z" />
<glyph unicode="&#xe4;" horiz-adv-x="1081" d="M92 276q0 157 100 248.5t285 91.5q184 0 381 -65v180q0 336 -344 336q-156 0 -303 -43l14 -156h-16q-20 85 -23 168q160 54 330 54q174 0 269.5 -89.5t95.5 -261.5v-544q0 -104 33.5 -145t105.5 -36l-8 -20q-74 -3 -114 41.5t-40 150.5q-154 -221 -422 -221 q-162 0 -253 87.5t-91 223.5zM117 276q0 -129 83 -208.5t236 -79.5q147 0 247 61.5t175 169.5v309q-200 66 -381 66q-174 0 -267 -85t-93 -233zM319 1368q0 16 10.5 25.5t24.5 9.5t24.5 -9.5t10.5 -25.5t-10.5 -25.5t-24.5 -9.5t-24.5 9.5t-10.5 25.5zM659 1368q0 15 10 25 t25 10t25 -10t10 -25t-10 -25t-25 -10t-25 10t-10 25z" />
<glyph unicode="&#xe5;" horiz-adv-x="1081" d="M92 276q0 157 100 248.5t285 91.5q184 0 381 -65v180q0 336 -344 336q-156 0 -303 -43l14 -156h-16q-20 85 -23 168q160 54 330 54q174 0 269.5 -89.5t95.5 -261.5v-544q0 -104 33.5 -145t105.5 -36l-8 -20q-74 -3 -114 41.5t-40 150.5q-154 -221 -422 -221 q-162 0 -253 87.5t-91 223.5zM117 276q0 -129 83 -208.5t236 -79.5q147 0 247 61.5t175 169.5v309q-200 66 -381 66q-174 0 -267 -85t-93 -233zM326 1421q0 88 56 141.5t142 53.5q88 0 143.5 -54.5t55.5 -140.5q0 -88 -56.5 -141t-142.5 -53q-88 0 -143 54t-55 140z M350 1421q0 -78 49 -125t125 -47q75 0 124.5 45t49.5 127q0 78 -49 125t-125 47q-75 0 -124.5 -45t-49.5 -127z" />
<glyph unicode="&#xe6;" horiz-adv-x="1832" d="M92 276q0 157 100.5 248.5t284.5 91.5t381 -65q0 276 -87 396t-277 120q-136 0 -283 -43l14 -156h-16q-20 85 -23 168q160 54 310 54q171 0 264.5 -96t113.5 -300q38 175 152.5 285.5t296.5 110.5q98 0 178 -37.5t129 -98.5t75 -135t26 -151l-2 -39l-840 -215 q26 -201 141 -308.5t295 -107.5q162 0 309 68q0 66 6 131h17l4 -140q-157 -82 -336 -82q-145 0 -251 68.5t-163 196.5q-80 -126 -200 -200.5t-271 -74.5q-165 0 -256.5 87.5t-91.5 223.5zM117 276q0 -130 83 -209t240 -79q281 0 463 270q-45 118 -45 270q-200 66 -381 66 q-176 0 -268 -85t-92 -233zM881 524.5q-2 -48.5 6 -88.5l821 211q1 111 -40.5 204.5t-131 154.5t-213.5 61q-71 0 -132 -18.5t-105 -50t-80.5 -74.5t-58 -92t-38.5 -102t-21.5 -105t-6.5 -100.5z" />
<glyph unicode="&#xe7;" horiz-adv-x="1007" d="M113 532q0 154 64.5 281t182 202t263.5 75q90 0 155.5 -20t136.5 -62q-3 -88 -22 -168h-16l14 155q-63 37 -125 54.5t-143 17.5q-135 0 -246.5 -70t-175.5 -193t-64 -272q0 -237 132.5 -385.5t338.5 -148.5q82 0 145 19.5t128 54.5q0 66 6 131h16l4 -140 q-143 -88 -299 -88h-12l-45 -118q244 0 244 -148q0 -67 -53 -108t-138 -41q-89 0 -164 37l11 18q68 -35 153 -35q75 0 121.5 35t46.5 94q0 64 -54.5 97.5t-197.5 33.5l53 137q-202 12 -331 165t-129 390z" />
<glyph unicode="&#xe8;" horiz-adv-x="1087" d="M113 528q0 109 28 207.5t83 179t146.5 128t207.5 47.5q98 0 177.5 -37.5t128.5 -98.5t75 -135t26 -151l-2 -39l-840 -215q26 -200 141.5 -308t295.5 -108q162 0 309 68q0 66 6 131h16l4 -140q-157 -82 -335 -82q-216 0 -341.5 146t-125.5 407zM135.5 538.5 q1.5 -55.5 5.5 -102.5l822 211q1 111 -40.5 204.5t-131 154.5t-213.5 61q-81 0 -149 -23.5t-114 -64t-82.5 -93.5t-55 -111.5t-31 -119.5t-11 -116.5zM403 1450l13 23l354 -195l-10 -18z" />
<glyph unicode="&#xe9;" horiz-adv-x="1087" d="M113 528q0 109 28 207.5t83 179t146.5 128t207.5 47.5q98 0 177.5 -37.5t128.5 -98.5t75 -135t26 -151l-2 -39l-840 -215q26 -200 141.5 -308t295.5 -108q162 0 309 68q0 66 6 131h16l4 -140q-157 -82 -335 -82q-216 0 -341.5 146t-125.5 407zM135.5 538.5 q1.5 -55.5 5.5 -102.5l822 211q1 111 -40.5 204.5t-131 154.5t-213.5 61q-81 0 -149 -23.5t-114 -64t-82.5 -93.5t-55 -111.5t-31 -119.5t-11 -116.5zM403 1278l355 195l12 -23l-356 -190z" />
<glyph unicode="&#xea;" horiz-adv-x="1087" d="M113 528q0 109 28 207.5t83 179t146.5 128t207.5 47.5q98 0 177.5 -37.5t128.5 -98.5t75 -135t26 -151l-2 -39l-840 -215q26 -200 141.5 -308t295.5 -108q162 0 309 68q0 66 6 131h16l4 -140q-157 -82 -335 -82q-216 0 -341.5 146t-125.5 407zM135.5 538.5 q1.5 -55.5 5.5 -102.5l822 211q1 111 -40.5 204.5t-131 154.5t-213.5 61q-81 0 -149 -23.5t-114 -64t-82.5 -93.5t-55 -111.5t-31 -119.5t-11 -116.5zM297 1266l276 211h29l277 -211l-17 -19l-274 211l-275 -211z" />
<glyph unicode="&#xeb;" horiz-adv-x="1087" d="M113 528q0 109 28 207.5t83 179t146.5 128t207.5 47.5q98 0 177.5 -37.5t128.5 -98.5t75 -135t26 -151l-2 -39l-840 -215q26 -200 141.5 -308t295.5 -108q162 0 309 68q0 66 6 131h16l4 -140q-157 -82 -335 -82q-216 0 -341.5 146t-125.5 407zM135.5 538.5 q1.5 -55.5 5.5 -102.5l822 211q1 111 -40.5 204.5t-131 154.5t-213.5 61q-81 0 -149 -23.5t-114 -64t-82.5 -93.5t-55 -111.5t-31 -119.5t-11 -116.5zM383 1368q0 16 10.5 25.5t24.5 9.5t24.5 -9.5t10.5 -25.5t-10.5 -25.5t-24.5 -9.5t-24.5 9.5t-10.5 25.5zM723 1368 q0 15 10 25t25 10t25 -10t10 -25t-10 -25t-25 -10t-25 10t-10 25z" />
<glyph unicode="&#xec;" horiz-adv-x="481" d="M41 1450l12 23l355 -195l-11 -18zM143 0v14q35 9 86 9v1019q-44 0 -86 11v14l109 -4v-1040q52 0 86 -9v-14h-195z" />
<glyph unicode="&#xed;" horiz-adv-x="481" d="M41 1278l354 195l13 -23l-357 -190zM143 0v14q35 9 86 9v1019q-44 0 -86 11v14l109 -4v-1040q52 0 86 -9v-14h-195z" />
<glyph unicode="&#xee;" horiz-adv-x="481" d="M-66 1266l277 211h29l276 -211l-16 -19l-275 211l-274 -211zM143 0v14q35 9 86 9v1019q-44 0 -86 11v14l109 -4v-1040q52 0 86 -9v-14h-195z" />
<glyph unicode="&#xef;" horiz-adv-x="481" d="M20 1368q0 16 10.5 25.5t24.5 9.5t24.5 -9.5t10.5 -25.5t-10.5 -25.5t-24.5 -9.5t-24.5 9.5t-10.5 25.5zM143 0v14q35 9 86 9v1019q-44 0 -86 11v14l109 -4v-1040q52 0 86 -9v-14h-195zM360 1368q0 15 10 25t25 10t25 -10t10 -25t-10 -25t-25 -10t-25 10t-10 25z" />
<glyph unicode="&#xf0;" horiz-adv-x="1105" d="M113 418q0 104 34 191t92 144.5t134.5 89t161.5 31.5q148 0 253.5 -79.5t180.5 -231.5q-3 293 -68 482.5t-217 302.5l-166 -199l-16 12l166 197q-146 100 -342 100h-43l12 -141h-16q-18 77 -21 158q32 4 70 4q201 0 354 -105l141 172l17 -12l-144 -170q297 -205 297 -776 q0 -281 -123.5 -447t-339.5 -166q-182 0 -299.5 122.5t-117.5 320.5zM137 418q0 -193 113 -306.5t280 -113.5q193 0 308.5 142.5t130.5 381.5q-81 164 -185 247t-249 83q-75 0 -145.5 -28.5t-127 -81t-91 -137t-34.5 -187.5z" />
<glyph unicode="&#xf1;" horiz-adv-x="1247" d="M143 0v14q35 9 86 9v1019q-44 0 -86 11v14l105 -4l2 -322q78 154 197 251.5t262 97.5q162 0 250 -104t88 -284l2 -679q51 0 86 -9v-14h-195v14q34 9 84 9v673q0 174 -81.5 272.5t-231.5 98.5q-131 0 -250.5 -93.5t-208.5 -266.5v-684q52 0 86 -9v-14h-195zM369 1339 q83 86 168 86q41 0 83 -22t80 -44t70 -22q36 0 65.5 17t71.5 53l15 -14q-39 -39 -73.5 -59.5t-76.5 -20.5q-48 0 -119 44t-116 44q-69 0 -154 -76z" />
<glyph unicode="&#xf2;" horiz-adv-x="1232" d="M113 532q0 158 64 285.5t179.5 200t259.5 72.5q148 0 264 -73.5t178 -200.5t62 -284q0 -240 -142.5 -398.5t-361.5 -158.5q-148 0 -263.5 73.5t-177.5 200t-62 283.5zM137 532q0 -151 59 -272t168.5 -191.5t251.5 -70.5q138 0 248 69.5t171 191.5t61 273t-59 272.5 t-169 192t-252 70.5q-209 0 -344 -152.5t-135 -382.5zM432 1450l12 23l355 -195l-11 -18z" />
<glyph unicode="&#xf3;" horiz-adv-x="1232" d="M113 532q0 158 64 285.5t179.5 200t259.5 72.5q148 0 264 -73.5t178 -200.5t62 -284q0 -240 -142.5 -398.5t-361.5 -158.5q-148 0 -263.5 73.5t-177.5 200t-62 283.5zM137 532q0 -151 59 -272t168.5 -191.5t251.5 -70.5q138 0 248 69.5t171 191.5t61 273t-59 272.5 t-169 192t-252 70.5q-209 0 -344 -152.5t-135 -382.5zM432 1278l354 195l13 -23l-357 -190z" />
<glyph unicode="&#xf4;" horiz-adv-x="1232" d="M113 532q0 158 64 285.5t179.5 200t259.5 72.5q148 0 264 -73.5t178 -200.5t62 -284q0 -240 -142.5 -398.5t-361.5 -158.5q-148 0 -263.5 73.5t-177.5 200t-62 283.5zM137 532q0 -151 59 -272t168.5 -191.5t251.5 -70.5q138 0 248 69.5t171 191.5t61 273t-59 272.5 t-169 192t-252 70.5q-209 0 -344 -152.5t-135 -382.5zM326 1266l276 211h29l276 -211l-16 -19l-275 211l-274 -211z" />
<glyph unicode="&#xf5;" horiz-adv-x="1232" d="M113 532q0 158 64 285.5t179.5 200t259.5 72.5q148 0 264 -73.5t178 -200.5t62 -284q0 -240 -142.5 -398.5t-361.5 -158.5q-148 0 -263.5 73.5t-177.5 200t-62 283.5zM137 532q0 -151 59 -272t168.5 -191.5t251.5 -70.5q138 0 248 69.5t171 191.5t61 273t-59 272.5 t-169 192t-252 70.5q-209 0 -344 -152.5t-135 -382.5zM340 1339q83 86 168 86q52 0 124 -44t109 -44q36 0 66.5 17t71.5 53l14 -14q-39 -39 -73.5 -59.5t-76.5 -20.5q-39 0 -79 22t-79.5 44t-76.5 22q-69 0 -154 -76z" />
<glyph unicode="&#xf6;" horiz-adv-x="1232" d="M113 532q0 158 64 285.5t179.5 200t259.5 72.5q148 0 264 -73.5t178 -200.5t62 -284q0 -240 -142.5 -398.5t-361.5 -158.5q-148 0 -263.5 73.5t-177.5 200t-62 283.5zM137 532q0 -151 59 -272t168.5 -191.5t251.5 -70.5q138 0 248 69.5t171 191.5t61 273t-59 272.5 t-169 192t-252 70.5q-209 0 -344 -152.5t-135 -382.5zM412 1368q0 16 10 25.5t24 9.5t24.5 -9.5t10.5 -25.5t-10.5 -25.5t-24.5 -9.5t-24 9.5t-10 25.5zM752 1368q0 15 9.5 25t24.5 10t25 -10t10 -25t-10 -25t-25 -10t-24.5 10t-9.5 25z" />
<glyph unicode="&#xf7;" d="M248 692v23h733v-23h-733zM578 256q0 17 10.5 27t25.5 10q16 0 26.5 -10t10.5 -27t-10.5 -27t-26.5 -10q-15 0 -25.5 10t-10.5 27zM578 1151q0 17 10.5 27t25.5 10q16 0 26.5 -10t10.5 -27t-10.5 -27t-26.5 -10q-15 0 -25.5 10t-10.5 27z" />
<glyph unicode="&#xf8;" horiz-adv-x="1232" d="M113 532q0 158 64 285.5t179.5 200t259.5 72.5q120 0 224 -52l118 254l21 -10l-121 -254q123 -68 192.5 -199t69.5 -297q0 -240 -142.5 -398.5t-361.5 -158.5q-119 0 -223 52l-125 -269l-20 11l127 268q-122 68 -192 199t-70 296zM137 532q0 -160 66 -286t182 -191 l446 963q-94 49 -215 49q-209 0 -344 -152.5t-135 -382.5zM403 47q94 -49 213 -49q138 0 248 69.5t171 191.5t61 273q0 161 -65.5 287t-182.5 191z" />
<glyph unicode="&#xf9;" horiz-adv-x="1191" d="M102 1053v14l109 -4v-715q0 -173 89 -261.5t228 -88.5q123 0 225 55.5t195 161.5v827q-44 0 -86 11v14l109 -4v-866q0 -107 33.5 -147.5t105.5 -35.5l-8 -20q-74 -3 -114 41.5t-40 150.5q-184 -211 -420 -211q-147 0 -243.5 94.5t-96.5 274.5v698q-44 0 -86 11zM416 1450 l12 23l354 -195l-10 -18z" />
<glyph unicode="&#xfa;" horiz-adv-x="1191" d="M102 1053v14l109 -4v-715q0 -173 89 -261.5t228 -88.5q123 0 225 55.5t195 161.5v827q-44 0 -86 11v14l109 -4v-866q0 -107 33.5 -147.5t105.5 -35.5l-8 -20q-74 -3 -114 41.5t-40 150.5q-184 -211 -420 -211q-147 0 -243.5 94.5t-96.5 274.5v698q-44 0 -86 11zM416 1278 l354 195l12 -23l-356 -190z" />
<glyph unicode="&#xfb;" horiz-adv-x="1191" d="M102 1053v14l109 -4v-715q0 -173 89 -261.5t228 -88.5q123 0 225 55.5t195 161.5v827q-44 0 -86 11v14l109 -4v-866q0 -107 33.5 -147.5t105.5 -35.5l-8 -20q-74 -3 -114 41.5t-40 150.5q-184 -211 -420 -211q-147 0 -243.5 94.5t-96.5 274.5v698q-44 0 -86 11zM309 1266 l277 211h28l277 -211l-17 -19l-274 211l-274 -211z" />
<glyph unicode="&#xfc;" horiz-adv-x="1191" d="M102 1053v14l109 -4v-715q0 -173 89 -261.5t228 -88.5q123 0 225 55.5t195 161.5v827q-44 0 -86 11v14l109 -4v-866q0 -107 33.5 -147.5t105.5 -35.5l-8 -20q-74 -3 -114 41.5t-40 150.5q-184 -211 -420 -211q-147 0 -243.5 94.5t-96.5 274.5v698q-44 0 -86 11zM395 1368 q0 16 10.5 25.5t24.5 9.5t24.5 -9.5t10.5 -25.5t-10.5 -25.5t-24.5 -9.5t-24.5 9.5t-10.5 25.5zM735 1368q0 15 10 25t25 10t25 -10t10 -25t-10 -25t-25 -10t-25 10t-10 25z" />
<glyph unicode="&#xfd;" horiz-adv-x="1032" d="M-20 1053l192 28l2 -14q-32 -11 -82 -18h-4l459 -957l401 957q-46 7 -80 18l2 14l193 -28l-2 -15q-43 0 -86 6h-4l-492 -1171q-73 -173 -106 -227q-61 -99 -148 -117q-23 -4 -47 -4q-70 0 -129 35l2 102h17q6 -44 6 -92q58 -23 106 -23q41 0 75.5 17.5t55.5 34.5t51 71.5 t41.5 81t46.5 109.5q2 3 2.5 4.5t1.5 3.5t1.5 4t1.5 4l86 203h-15l-462 964q-41 -6 -84 -6zM379 1278l354 195l12 -23l-356 -190z" />
<glyph unicode="&#xfe;" horiz-adv-x="1220" d="M123 -436q31 8 86 8h20v1841q-43 -7 -86 -4v14l109 15v-572q66 100 166 162t231 62q93 0 176.5 -39t146 -108.5t99.5 -173t37 -224.5q0 -247 -128.5 -408.5t-322.5 -161.5q-242 0 -405 211v-614q29 0 65 -8v-15h-194v15zM252 219q172 -221 405 -221q182 0 304 155 t122 392q0 118 -35.5 217.5t-95 165.5t-138 102.5t-165.5 36.5q-235 0 -397 -231v-617z" />
<glyph unicode="&#xff;" horiz-adv-x="1032" d="M-20 1053l192 28l2 -14q-32 -11 -82 -18h-4l459 -957l401 957q-46 7 -80 18l2 14l193 -28l-2 -15q-43 0 -86 6h-4l-492 -1171q-73 -173 -106 -227q-61 -99 -148 -117q-23 -4 -47 -4q-70 0 -129 35l2 102h17q6 -44 6 -92q58 -23 106 -23q41 0 75.5 17.5t55.5 34.5t51 71.5 t41.5 81t46.5 109.5q2 3 2.5 4.5t1.5 3.5t1.5 4t1.5 4l86 203h-15l-462 964q-41 -6 -84 -6zM358 1368q0 16 10.5 25.5t24.5 9.5t24.5 -9.5t10.5 -25.5t-10.5 -25.5t-24.5 -9.5t-24.5 9.5t-10.5 25.5zM698 1368q0 15 10 25t25 10t25 -10t10 -25t-10 -25t-25 -10t-25 10 t-10 25z" />
<glyph unicode="&#x152;" horiz-adv-x="1878" d="M133 719q0 214 78.5 381t229 262.5t350.5 95.5q127 0 245 -24h719q0 -86 -22 -183h-17l13 160h-687v-643h576l47 2l-2 -25h-621v-722h687q0 112 6 159h18l2 -182h-731q-123 -25 -233 -25q-200 0 -351.5 100.5t-229 268t-77.5 375.5zM160 719q0 -152 44.5 -283.5t125 -228 t200 -152t261.5 -55.5q127 0 227 23v1388q-109 23 -227 23q-283 0 -457 -197t-174 -518z" />
<glyph unicode="&#x153;" horiz-adv-x="2029" d="M113 532q0 240 137.5 399t347.5 159q192 0 319.5 -130t149.5 -327q24 202 141.5 329.5t311.5 127.5q98 0 177.5 -37.5t128.5 -98.5t75 -135t26 -151l-2 -39l-840 -215q26 -200 141.5 -308t295.5 -108q162 0 309 68q0 66 6 131h16l5 -140q-157 -82 -336 -82 q-187 0 -309.5 112.5t-145.5 318.5q-29 -187 -153 -309t-316 -122q-214 0 -349.5 159t-135.5 398zM137 532q0 -231 129.5 -382.5t331.5 -151.5q139 0 244 69.5t160 189t55 271.5q0 149 -54.5 270.5t-160 195t-244.5 73.5q-200 0 -330.5 -152.5t-130.5 -382.5zM1077.5 538.5 q1.5 -55.5 5.5 -102.5l822 211q1 111 -40.5 204.5t-131 154.5t-213.5 61q-81 0 -149 -23.5t-114 -64t-82.5 -93.5t-55 -111.5t-31 -119.5t-11 -116.5z" />
<glyph unicode="&#x178;" horiz-adv-x="1179" d="M-41 1413l203 37l2 -14q-32 -16 -84 -25l510 -838l512 838q-55 9 -86 25l2 14l203 -37l-2 -14q-36 -3 -95 8l-522 -858v-526h2q58 0 92 -9v-14h-209v14q35 9 91 9v526l-525 858q-57 -11 -92 -8zM385 1716q0 16 10.5 25.5t24.5 9.5t24.5 -9.5t10.5 -25.5t-10.5 -25.5 t-24.5 -9.5t-24.5 9.5t-10.5 25.5zM725 1716q0 15 10 25t25 10t25 -10t10 -25t-10 -25t-25 -10t-25 10t-10 25z" />
<glyph unicode="&#x2c6;" horiz-adv-x="704" d="M61 1266l277 211h29l276 -211l-16 -19l-275 211l-274 -211z" />
<glyph unicode="&#x2dc;" horiz-adv-x="675" d="M61 1339q83 86 168 86q41 0 83.5 -22t80.5 -44t70 -22q36 0 65.5 17t71.5 53l14 -14q-40 -40 -73.5 -60t-75.5 -20q-47 0 -119 44t-117 44q-68 0 -153 -76z" />
<glyph unicode="&#x2000;" horiz-adv-x="905" />
<glyph unicode="&#x2001;" horiz-adv-x="1810" />
<glyph unicode="&#x2002;" horiz-adv-x="905" />
<glyph unicode="&#x2003;" horiz-adv-x="1810" />
<glyph unicode="&#x2004;" horiz-adv-x="603" />
<glyph unicode="&#x2005;" horiz-adv-x="452" />
<glyph unicode="&#x2006;" horiz-adv-x="301" />
<glyph unicode="&#x2007;" horiz-adv-x="301" />
<glyph unicode="&#x2008;" horiz-adv-x="226" />
<glyph unicode="&#x2009;" horiz-adv-x="362" />
<glyph unicode="&#x200a;" horiz-adv-x="100" />
<glyph unicode="&#x2010;" horiz-adv-x="1024" d="M193 692v23h638v-23h-638z" />
<glyph unicode="&#x2011;" horiz-adv-x="1024" d="M193 692v23h638v-23h-638z" />
<glyph unicode="&#x2012;" horiz-adv-x="1024" d="M193 692v23h638v-23h-638z" />
<glyph unicode="&#x2013;" d="M193 692v23h843v-23h-843z" />
<glyph unicode="&#x2014;" horiz-adv-x="1474" d="M193 692v23h1089v-23h-1089z" />
<glyph unicode="&#x2018;" horiz-adv-x="303" d="M106 1391q0 88 72 145l8 -10q-52 -56 -55 -125q25 13 45.5 4t20.5 -31q0 -19 -11.5 -30t-31.5 -11q-48 0 -48 58z" />
<glyph unicode="&#x2019;" horiz-adv-x="303" d="M106 1448q0 19 12 30t32 11q47 0 47 -57q0 -89 -72 -146l-8 10q52 56 55 125q-25 -13 -45.5 -4t-20.5 31z" />
<glyph unicode="&#x201a;" horiz-adv-x="303" d="M106 25q0 19 12 30t32 11q47 0 47 -58q0 -88 -72 -145l-8 10q52 56 55 125q-25 -13 -45.5 -4t-20.5 31z" />
<glyph unicode="&#x201c;" horiz-adv-x="454" d="M106 1391q0 88 72 145l8 -10q-52 -56 -55 -125q25 13 45.5 4t20.5 -31q0 -19 -11.5 -30t-31.5 -11q-48 0 -48 58zM258 1391q0 88 72 145l8 -10q-52 -56 -55 -125q25 13 45 4t20 -31q0 -19 -11.5 -30t-31.5 -11q-47 0 -47 58z" />
<glyph unicode="&#x201d;" horiz-adv-x="479" d="M106 1448q0 19 12 30t32 11q47 0 47 -57q0 -89 -72 -146l-8 10q52 56 55 125q-25 -13 -45.5 -4t-20.5 31zM283 1448q0 19 11.5 30t31.5 11q47 0 47 -57q0 -89 -72 -146l-8 10q52 56 55 125q-25 -13 -45 -4t-20 31z" />
<glyph unicode="&#x201e;" horiz-adv-x="479" d="M106 25q0 19 12 30t32 11q47 0 47 -58q0 -88 -72 -145l-8 10q52 56 55 125q-25 -13 -45.5 -4t-20.5 31zM283 25q0 19 11.5 30t31.5 11q47 0 47 -58q0 -88 -72 -145l-8 10q52 56 55 125q-25 -13 -45 -4t-20 31z" />
<glyph unicode="&#x2022;" horiz-adv-x="684" d="M215 727q0 51 36 88t91 37q56 0 91.5 -36.5t35.5 -88.5t-35.5 -88.5t-91.5 -36.5q-55 0 -91 35.5t-36 89.5zM240 727q0 -44 28 -73t74 -29q48 0 75 29t27 73t-28 73t-74 29q-48 0 -75 -29.5t-27 -72.5z" />
<glyph unicode="&#x2026;" horiz-adv-x="1843" d="M270 23q0 17 10.5 26.5t26.5 9.5t26.5 -9.5t10.5 -26.5t-10.5 -27t-26.5 -10t-26.5 10t-10.5 27zM885 23q0 17 10.5 26.5t26.5 9.5t26 -9.5t10 -26.5t-10.5 -27t-25.5 -10q-16 0 -26.5 10t-10.5 27zM1499 23q0 17 10.5 26.5t26.5 9.5t26.5 -9.5t10.5 -26.5t-10.5 -27 t-26.5 -10t-26.5 10t-10.5 27z" />
<glyph unicode="&#x202f;" horiz-adv-x="362" />
<glyph unicode="&#x2039;" horiz-adv-x="673" d="M164 698v17l330 407l16 -14l-324 -401l324 -406l-16 -14z" />
<glyph unicode="&#x203a;" horiz-adv-x="673" d="M164 301l323 406l-323 401l16 14l330 -407v-17l-330 -411z" />
<glyph unicode="&#x205f;" horiz-adv-x="452" />
<glyph unicode="&#x20ac;" horiz-adv-x="1253" d="M133 582v22h146v221h-146v23h148q22 179 92.5 314.5t194 215.5t286.5 80q161 0 313 -76q0 -75 -22 -172h-19l15 162q-137 64 -285 64q-155 0 -273 -76t-186 -206.5t-90 -305.5h660l-6 -23h-656v-221h613l-7 -22h-602q23 -277 167 -430.5t362 -153.5q152 0 286 72 q0 110 6 161h19l2 -172q-73 -41 -144.5 -62.5t-168.5 -21.5q-233 0 -379.5 158t-177.5 449h-148z" />
<glyph unicode="&#x2122;" horiz-adv-x="1843" d="M84 1556h831l338 -575l349 573l102 5v-17q-29 -7 -72 -4v-801q48 0 72 -8v-12h-94v811l-346 -570l-21 -4l-342 580v-817h-94v12q24 8 72 8v797h-412v-797q49 0 70 -8v-12h-164v12q24 8 71 8v797h-335l8 -125h-15q-15 64 -18 147z" />
<glyph unicode="&#x25fc;" horiz-adv-x="1085" d="M0 0v1085h1085v-1085h-1085z" />
</font>
</defs>
</svg>
