<?xml version="1.0" standalone="no"?>
<!DOCTYPE svg PUBLIC "-//W3C//DTD SVG 1.1//EN" "http://www.w3.org/Graphics/SVG/1.1/DTD/svg11.dtd" >
<svg xmlns="http://www.w3.org/2000/svg">
<metadata></metadata>
<defs>
<font id="abezehregular" horiz-adv-x="1228" >
<font-face units-per-em="2048" ascent="1638" descent="-410" />
<missing-glyph horiz-adv-x="614" />
<glyph unicode="&#xfb01;" horiz-adv-x="1200" d="M43 874v152h164v162q0 159 103 255.5t272 96.5q179 0 336 -102l-80 -129q-68 38 -121.5 56.5t-126.5 18.5q-101 0 -155 -51.5t-54 -144.5v-162h653v-1026h-174v874h-479v-874h-174v874h-164z" />
<glyph unicode="&#xfb02;" horiz-adv-x="1368" d="M43 874v152h164v160q0 160 103.5 257t275.5 97q197 0 418 -115v-1089q0 -205 176 -205q74 0 143 27l43 -140q-88 -43 -199 -43q-69 0 -128 18.5t-107 56.5t-75.5 103t-27.5 150v1036q-130 45 -233 45q-105 0 -160 -51.5t-55 -146.5v-160h285l-25 -152h-260v-874h-174v874 h-164z" />
<glyph unicode="&#xfb03;" horiz-adv-x="1855" d="M43 874v152h164v109q0 178 102.5 279.5t274.5 101.5q178 0 360 -95q103 119 293 119q179 0 336 -102l-80 -129q-68 38 -121.5 56.5t-126.5 18.5q-101 0 -155 -51.5t-54 -144.5v-162h654v-1026h-174v874h-480v-874h-174v874h-481v-874h-174v874h-164zM381 1026h481v162 q0 48 15 110q-143 68 -281 68q-102 0 -158.5 -56.5t-56.5 -156.5v-127z" />
<glyph unicode="&#xfb04;" horiz-adv-x="2015" d="M43 874v152h164v109q0 178 102.5 279.5t274.5 101.5q182 0 360 -95q106 119 297 119q197 0 418 -115l-2 -4v-1085q0 -205 178 -205q70 0 143 27l43 -140q-88 -43 -200 -43q-69 0 -128 18.5t-107 56.5t-75.5 103t-27.5 150v1038q-120 43 -232 43q-105 0 -160 -51.5 t-55 -146.5v-160h285l-25 -152h-260v-874h-174v874h-481v-874h-174v874h-164zM381 1026h481v160q0 52 17 112q-146 68 -283 68q-102 0 -158.5 -56.5t-56.5 -156.5v-127z" />
<glyph horiz-adv-x="2048" />
<glyph horiz-adv-x="2048" />
<glyph unicode="&#xd;" horiz-adv-x="2048" />
<glyph unicode=" "  horiz-adv-x="614" />
<glyph unicode="&#x09;" horiz-adv-x="614" />
<glyph unicode="&#xa0;" horiz-adv-x="614" />
<glyph unicode="!" horiz-adv-x="634" d="M186 106q0 59 35.5 95.5t95.5 36.5q57 0 94.5 -37t37.5 -95t-36.5 -94.5t-95.5 -36.5q-56 0 -93.5 37t-37.5 94zM219 967v526h195v-526l-27 -551h-143z" />
<glyph unicode="&#x22;" horiz-adv-x="743" d="M125 1434h168l-17 -453h-137zM451 1434h167l-14 -453h-137z" />
<glyph unicode="#" horiz-adv-x="1378" d="M84 281l22 141h189l84 475h-186l22 141h191l51 281h155l-53 -281h393l52 281h153l-51 -281h188l-22 -141h-191l-84 -475h187l-23 -141h-188l-47 -281h-154l45 281h-391l-45 -281h-156l45 281h-186zM451 422h391l84 475h-391z" />
<glyph unicode="$" horiz-adv-x="1034" d="M51 168l84 125q83 -57 162 -85t197 -28q134 0 215.5 57t81.5 158q0 64 -25.5 106.5t-95 82.5t-201.5 84q-208 68 -293.5 150.5t-85.5 228.5q0 133 99.5 222.5t269.5 104.5l-15 244h170l-16 -244q179 -16 336 -106l-68 -127q-159 92 -346 92q-121 0 -191.5 -49t-70.5 -131 q0 -85 59.5 -137.5t235.5 -110.5q230 -76 320 -164t90 -233q0 -154 -103.5 -251t-281.5 -118l16 -242h-170l14 240q-228 11 -387 131z" />
<glyph unicode="%" horiz-adv-x="2007" d="M113 1004q0 213 90.5 328.5t257.5 115.5q168 0 257 -118t89 -335q0 -212 -91.5 -328t-258.5 -116t-255.5 118.5t-88.5 334.5zM272 1004q0 -157 49.5 -240.5t139.5 -83.5q91 0 138.5 73.5t47.5 241.5q0 157 -49 241.5t-139 84.5q-91 0 -139 -74.5t-48 -242.5zM498 -8 l897 1524l116 -74l-897 -1524zM1198 438q0 213 90.5 329t257.5 116q168 0 257 -118t89 -335q0 -212 -91.5 -328t-258.5 -116t-255.5 118t-88.5 334zM1360 438q0 -157 48.5 -240t137.5 -83q91 0 139 73.5t48 241.5q0 157 -49.5 241.5t-139.5 84.5t-137 -74.5t-47 -243.5z" />
<glyph unicode="&#x26;" horiz-adv-x="1529" d="M186 371q0 127 69 229.5t218 187.5q-82 87 -118 161t-36 167q0 149 99 245.5t262 96.5q154 0 248 -92t94 -225q0 -123 -74.5 -209.5t-245.5 -173.5l349 -338q17 35 31.5 86.5t24 94t27.5 88t42.5 76.5t69 51t106.5 20l24 -138q-49 0 -79 -23.5t-45 -65.5t-24.5 -87 t-26 -101.5t-40.5 -96.5l244 -224l-111 -116l-223 211q-83 -107 -188.5 -163.5t-251.5 -56.5q-123 0 -224 48t-161 139t-60 209zM371 383q0 -112 75.5 -180t198.5 -68q203 0 324 162l-408 397q-100 -68 -145 -139.5t-45 -171.5zM481 1118q0 -141 133 -268q133 64 189.5 130 t56.5 157q0 79 -51 130.5t-133 51.5q-84 0 -139.5 -57t-55.5 -144z" />
<glyph unicode="'" horiz-adv-x="415" d="M125 1434h168l-17 -451h-137z" />
<glyph unicode="(" horiz-adv-x="620" d="M115 655q0 246 71.5 464t216.5 446l103 -60q-207 -394 -207 -850q0 -446 207 -850l-103 -59q-145 237 -216.5 456.5t-71.5 452.5z" />
<glyph unicode=")" horiz-adv-x="620" d="M115 -195q209 408 209 850q0 452 -209 850l102 60q146 -227 217.5 -445.5t71.5 -464.5q0 -234 -71.5 -453.5t-217.5 -455.5z" />
<glyph unicode="*" horiz-adv-x="913" d="M115 1208l47 148l235 -94l-16 254h156l-19 -250l236 90l45 -146l-240 -61l158 -197l-123 -88l-133 213l-139 -215l-121 90l155 193z" />
<glyph unicode="+" d="M217 627v151h315v336h166v-336h314v-151h-314v-336h-166v336h-315z" />
<glyph unicode="," horiz-adv-x="614" d="M70 -266q80 102 128 206.5t76 237.5l170 -47q-42 -299 -278 -453z" />
<glyph unicode="-" horiz-adv-x="1024" d="M166 623v159h692v-159h-692z" />
<glyph unicode="." horiz-adv-x="614" d="M176 106q0 59 35.5 95.5t95.5 36.5q56 0 93.5 -37t37.5 -95t-36 -94.5t-95 -36.5q-56 0 -93.5 37t-37.5 94z" />
<glyph unicode="/" horiz-adv-x="921" d="M100 -96l578 1679l143 -49l-577 -1679z" />
<glyph unicode="0" d="M125 707q0 351 127 539t364 188t362.5 -189.5t125.5 -542.5q0 -351 -127.5 -539t-364.5 -188t-362 190t-125 542zM311 709q0 -281 79.5 -427.5t223.5 -146.5q72 0 126.5 29t95 94t61.5 175.5t21 266.5q0 282 -79.5 429t-224.5 147q-72 0 -126 -29.5t-94.5 -94.5 t-61.5 -176t-21 -267z" />
<glyph unicode="1" horiz-adv-x="925" d="M63 1149l420 260h133v-1249h246v-160h-717v160h297v1034l-301 -178z" />
<glyph unicode="2" horiz-adv-x="999" d="M63 74q0 112 36 210.5t93.5 170.5t127 136.5t139 120t127 108.5t93.5 115t36 128q0 103 -65 159t-179 56q-156 0 -307 -121l-98 117q184 160 415 160q194 0 306 -102t112 -265q0 -81 -33 -154t-86.5 -131t-119 -113.5t-132 -111.5t-123.5 -113.5t-97 -130.5t-48 -153h647 v-160h-837q-7 44 -7 74z" />
<glyph unicode="3" horiz-adv-x="1015" d="M23 100l92 125q72 -45 139 -67.5t162 -22.5q142 0 221.5 66.5t79.5 191.5q0 130 -88 200.5t-258 70.5h-121v143h117q151 0 231 64t80 182q0 105 -68 165t-186 60q-90 0 -156.5 -24t-138.5 -70l-76 125q164 125 379 125q197 0 312.5 -104t115.5 -265q0 -131 -69.5 -209.5 t-186.5 -110.5q58 -9 110 -34.5t95 -67.5t68.5 -105.5t25.5 -140.5q0 -194 -132.5 -308t-352.5 -114q-123 0 -217 31t-178 94z" />
<glyph unicode="4" horiz-adv-x="1105" d="M82 309v140l420 974l160 -63l-383 -893h419l23 412h151v-412h172v-158h-172v-309h-174v309h-616z" />
<glyph unicode="5" horiz-adv-x="1048" d="M61 92l78 133q154 -90 324 -90q145 0 227 76t82 209q0 138 -85.5 210t-252.5 72h-266v707h715v-158h-551v-395h127q235 0 367 -115.5t132 -314.5q0 -202 -137 -326.5t-358 -124.5q-240 0 -402 117z" />
<glyph unicode="6" horiz-adv-x="1163" d="M115 573q0 176 48 327.5t138.5 266.5t231.5 180.5t317 65.5q34 0 80 -4v-158q-46 4 -78 4q-232 0 -375.5 -137.5t-175.5 -396.5q143 172 356 172q177 0 294.5 -119.5t117.5 -310.5q0 -224 -131.5 -356t-335.5 -132q-99 0 -185.5 36.5t-154.5 107.5t-107.5 187.5 t-39.5 266.5zM299 555q0 -207 82 -313.5t225 -106.5q128 0 204.5 83.5t76.5 230.5q0 135 -71 212.5t-189 77.5q-195 0 -328 -184z" />
<glyph unicode="7" horiz-adv-x="991" d="M43 1251v158h926v-139q-191 -187 -294.5 -355.5t-151.5 -384.5t-48 -530h-201q0 231 29.5 413t93 330t146.5 265t207 243h-707z" />
<glyph unicode="8" horiz-adv-x="1163" d="M84 371q0 257 315 387q-121 62 -181 138.5t-60 188.5q0 153 120.5 251t296.5 98q186 0 307.5 -98.5t121.5 -250.5q0 -116 -64 -193t-184 -134q161 -68 242 -161t81 -224q0 -177 -139 -287.5t-348 -110.5q-227 0 -367.5 113.5t-140.5 282.5zM266 383q0 -112 93 -182 t235 -70q132 0 217.5 67.5t85.5 172.5q0 193 -330 311q-129 -33 -215 -112.5t-86 -186.5zM332 1087q0 -89 71 -157t197 -107q100 33 164.5 99t64.5 155q0 94 -72.5 153.5t-181.5 59.5q-106 0 -174.5 -56t-68.5 -147z" />
<glyph unicode="9" horiz-adv-x="1140" d="M84 977q0 192 130 324.5t331 132.5q240 0 355.5 -163.5t115.5 -504.5q0 -216 -36.5 -371.5t-105.5 -246t-159.5 -132t-208.5 -41.5q-220 0 -367 150l103 119q121 -109 266 -109q74 0 131 29t101 92t67.5 173t23.5 263q-138 -145 -321 -145q-81 0 -156.5 27.5t-136 80 t-97 136t-36.5 186.5zM268 981q0 -138 71.5 -213.5t192.5 -75.5q172 0 299 148q0 438 -282 438q-130 0 -205.5 -80t-75.5 -217z" />
<glyph unicode=":" horiz-adv-x="614" d="M176 106q0 59 35.5 95.5t95.5 36.5q56 0 93.5 -37t37.5 -95t-36 -94.5t-95 -36.5q-56 0 -93.5 37t-37.5 94zM176 895q0 59 35.5 95t95.5 36q56 0 93.5 -36.5t37.5 -94.5t-36 -94.5t-95 -36.5q-56 0 -93.5 37t-37.5 94z" />
<glyph unicode=";" horiz-adv-x="645" d="M70 -266q80 102 128 206.5t76 237.5l170 -47q-42 -299 -278 -453zM205 895q0 59 35.5 95t95.5 36q56 0 93.5 -36.5t37.5 -94.5t-36 -94.5t-95 -36.5q-56 0 -93.5 37t-37.5 94z" />
<glyph unicode="&#x3c;" d="M246 647v111l653 409l86 -135l-536 -330l536 -327l-88 -137z" />
<glyph unicode="=" d="M227 442v152h774v-152h-774zM227 813v154h774v-154h-774z" />
<glyph unicode="&#x3e;" d="M254 375l537 327l-537 330l86 135l653 -409v-111l-651 -409z" />
<glyph unicode="?" horiz-adv-x="1005" d="M94 1325q171 215 424 215q168 0 275.5 -96t107.5 -238q0 -70 -22.5 -129.5t-58 -101.5t-79 -79.5t-86.5 -74t-78.5 -76t-58 -93t-22.5 -117.5v-117h-150q-20 64 -20 151q0 71 21.5 131.5t55.5 103t75.5 80t82.5 71t75 67.5t55.5 78t21.5 94q0 85 -55 136.5t-152 51.5 q-165 0 -287 -157zM299 106q0 59 35.5 95.5t95.5 36.5q57 0 94 -37t37 -95t-36 -94.5t-95 -36.5q-56 0 -93.5 37t-37.5 94z" />
<glyph unicode="@" horiz-adv-x="2150" d="M150 434q0 202 71.5 386.5t198.5 323.5t315 221.5t408 82.5q188 0 349 -62t271.5 -169.5t173 -255t62.5 -316.5q0 -297 -131.5 -483.5t-335.5 -186.5q-101 0 -163.5 51t-74.5 136q-133 -162 -323 -162q-159 0 -275 123.5t-116 322.5q0 230 136.5 385.5t332.5 155.5 q201 0 307 -156l18 142h154l-86 -674q-6 -43 -6 -70q0 -129 110 -129q117 0 196 148t79 391q0 292 -188 472.5t-488 180.5q-153 0 -286.5 -48t-229 -130.5t-164.5 -191t-103 -231.5t-34 -251q0 -181 54.5 -324t152 -235.5t230.5 -141t292 -48.5q147 0 267.5 32.5t240.5 92.5 l57 -144q-258 -137 -569 -137q-194 0 -359 61t-286 173.5t-189.5 283.5t-68.5 381zM745 463q0 -157 67 -240.5t187 -83.5q87 0 161 42.5t122 105.5l51 411q-43 70 -112 111t-156 41q-131 0 -225.5 -109.5t-94.5 -277.5z" />
<glyph unicode="A" horiz-adv-x="1363" d="M23 49l563 1385h200l555 -1385l-167 -65l-162 409h-666l-162 -409zM403 549h549l-270 717z" />
<glyph unicode="B" horiz-adv-x="1280" d="M186 10v1413q214 27 420 27q247 0 391 -106.5t144 -276.5q0 -216 -250 -309q295 -96 295 -350q0 -197 -155 -310.5t-441 -113.5q-222 0 -404 26zM371 147q110 -10 239 -10q185 0 286 68.5t101 197.5q0 127 -100.5 196t-284.5 69h-241v-521zM371 811h233q160 0 255 64 t95 182t-93 180.5t-257 62.5q-90 0 -233 -10v-479z" />
<glyph unicode="C" horiz-adv-x="1206" d="M104 711q0 218 80.5 387t232.5 264.5t353 95.5q191 0 360 -88l-57 -145q-76 36 -145.5 54.5t-157.5 18.5q-214 0 -344.5 -154.5t-130.5 -424.5q0 -266 126 -424t339 -158q96 0 173 22t163 64l57 -143q-184 -105 -397 -105q-297 0 -474.5 199.5t-177.5 536.5z" />
<glyph unicode="D" horiz-adv-x="1396" d="M186 12v1411q214 27 375 27q184 0 326 -57.5t229.5 -158.5t131.5 -231t44 -284q0 -123 -26.5 -230.5t-84.5 -201t-143 -160.5t-209 -105t-276 -38q-203 0 -367 28zM371 154q97 -11 194 -11q137 0 241.5 42.5t168.5 120t95.5 181.5t31.5 232q0 124 -32 226.5t-95 181 t-165.5 122t-234.5 43.5q-98 0 -204 -12v-1126z" />
<glyph unicode="E" horiz-adv-x="1136" d="M186 0v1434h856v-158h-671v-451h579v-153h-579v-512h671v-160h-856z" />
<glyph unicode="F" horiz-adv-x="1093" d="M186 0v1434h846v-158h-661v-471h553v-154h-553v-651h-185z" />
<glyph unicode="G" horiz-adv-x="1378" d="M104 688q0 226 77.5 399.5t227 272t349.5 98.5q225 0 422 -115l-66 -145q-94 49 -175 74.5t-179 25.5q-210 0 -337.5 -159.5t-127.5 -446.5q0 -261 113 -408t303 -147q208 0 360 152v329h-303v154h487v-772h-172v145q-186 -170 -393 -170q-127 0 -235.5 50.5t-186 141.5 t-121 225t-43.5 296z" />
<glyph unicode="H" horiz-adv-x="1441" d="M186 0v1434h185v-617h700v617h184v-1434h-184v657h-700v-657h-185z" />
<glyph unicode="I" horiz-adv-x="557" d="M186 0v1434h185v-1434h-185z" />
<glyph unicode="J" horiz-adv-x="874" d="M2 92l86 125q57 -41 107 -61.5t114 -20.5q101 0 159 70t58 215v1014h185v-1031q0 -205 -109.5 -316.5t-288.5 -111.5q-184 0 -311 117z" />
<glyph unicode="K" horiz-adv-x="1204" d="M186 0v1434h185v-650l633 660l122 -115l-581 -590l667 -633l-127 -131l-714 691v-666h-185z" />
<glyph unicode="L" horiz-adv-x="1044" d="M186 0v1434h185v-1268h665v-166h-850z" />
<glyph unicode="M" horiz-adv-x="1705" d="M186 0v1434h258l408 -953l403 953h265v-1434h-185v1217l-393 -924h-182l-400 924v-1217h-174z" />
<glyph unicode="N" horiz-adv-x="1441" d="M186 0v1434h246l649 -1217v1217h174v-1434h-245l-650 1212v-1212h-174z" />
<glyph unicode="O" horiz-adv-x="1558" d="M104 719q0 211 79.5 377.5t234 264t360.5 97.5q155 0 283.5 -58t213.5 -158.5t132 -235t47 -287.5q0 -155 -47 -290.5t-132 -236t-213.5 -159t-283.5 -58.5q-154 0 -282.5 58.5t-213.5 159.5t-131.5 236.5t-46.5 289.5zM295 719q0 -116 33 -221t93 -186t152.5 -129 t204.5 -48q156 0 267 76t165 206.5t54 301.5q0 114 -33.5 218.5t-94 185.5t-153.5 129t-205 48q-149 0 -259.5 -76t-167 -206.5t-56.5 -298.5z" />
<glyph unicode="P" horiz-adv-x="1191" d="M186 0v1430q188 20 392 20q272 0 421.5 -122.5t149.5 -326.5q0 -233 -163.5 -358t-446.5 -125q-100 0 -168 8v-526h-185zM371 682q90 -8 190 -8q195 0 299.5 81.5t104.5 233.5q0 146 -100.5 225.5t-291.5 79.5q-80 0 -202 -8v-604z" />
<glyph unicode="Q" horiz-adv-x="1564" d="M104 719q0 157 46.5 292.5t131 234.5t211 155.5t279.5 56.5q152 0 279.5 -58t213 -158.5t132.5 -235t47 -287.5q0 -286 -154 -492l191 -114l-101 -144l-192 152q-173 -146 -416 -146q-202 0 -356 101t-233 269t-79 374zM295 719q0 -116 33 -221t92.5 -186t150.5 -129 t201 -48q168 0 281 78l-181 121l97 129l184 -148q100 147 100 404q0 114 -33.5 218.5t-93.5 185.5t-152 129t-202 48q-146 0 -255.5 -76t-165.5 -206.5t-56 -298.5z" />
<glyph unicode="R" horiz-adv-x="1271" d="M186 0v1423q204 27 385 27q268 0 410.5 -110.5t142.5 -290.5q0 -157 -87.5 -243.5t-252.5 -129.5q87 -25 147.5 -86t125.5 -193l162 -340l-172 -82l-187 392q-62 131 -138.5 191t-197.5 60h-153v-618h-185zM371 774h198q175 0 272 68.5t97 199.5q0 119 -90 185.5 t-262 66.5q-98 0 -215 -10v-510z" />
<glyph unicode="S" horiz-adv-x="1130" d="M53 123l92 139q92 -63 179.5 -94t218.5 -31q147 0 236 62.5t89 173.5q0 71 -27.5 118.5t-104.5 91.5t-222 91q-230 75 -325 167t-95 253t129.5 262.5t347.5 101.5q138 0 246 -30t211 -89l-74 -141q-182 102 -383 102q-134 0 -212 -54t-78 -144q0 -64 25.5 -107 t96.5 -83.5t203 -84.5q254 -84 353.5 -181.5t99.5 -256.5q0 -193 -143 -303.5t-381 -110.5q-286 0 -482 148z" />
<glyph unicode="T" horiz-adv-x="1136" d="M20 1272v162h1094v-162h-455v-1272h-182v1272h-457z" />
<glyph unicode="U" horiz-adv-x="1390" d="M166 508v926h184v-922q0 -176 89.5 -275.5t258.5 -99.5q168 0 258.5 100t90.5 275v922h178v-926q0 -250 -143 -391.5t-384 -141.5q-245 0 -388.5 140.5t-143.5 392.5z" />
<glyph unicode="V" horiz-adv-x="1308" d="M23 1386l178 70l456 -1257l463 1251l166 -64l-526 -1386h-209z" />
<glyph unicode="W" horiz-adv-x="1904" d="M33 1389l184 55l334 -1247l293 1108h231l295 -1108l328 1241l174 -49l-391 -1389h-230l-297 1124l-295 -1124h-227z" />
<glyph unicode="X" horiz-adv-x="1236" d="M23 92l485 635l-465 614l150 107l425 -592l422 590l144 -105l-459 -604l489 -645l-147 -110l-455 626l-448 -624z" />
<glyph unicode="Y" horiz-adv-x="1249" d="M23 1364l157 88l449 -743l448 735l150 -80l-510 -819v-545h-185v545z" />
<glyph unicode="Z" horiz-adv-x="1103" d="M51 0v145l770 1131h-731v158h948v-140l-770 -1130h795v-164h-1012z" />
<glyph unicode="[" horiz-adv-x="612" d="M166 -205v1721h352v-146h-196v-1429h196v-146h-352z" />
<glyph unicode="\" horiz-adv-x="921" d="M100 1534l144 49l577 -1679l-143 -49z" />
<glyph unicode="]" horiz-adv-x="612" d="M94 -59h197v1429h-197v146h352v-1721h-352v146z" />
<glyph unicode="^" d="M197 1171l376 345h82l377 -345l-110 -120l-308 305l-307 -305z" />
<glyph unicode="_" d="M0 -117h1229v-116h-1229v116z" />
<glyph unicode="`" horiz-adv-x="598" d="M61 1419l82 162l394 -254l-70 -115z" />
<glyph unicode="a" horiz-adv-x="1251" d="M94 526q0 157 64 286t179.5 203.5t258.5 74.5q178 0 303 -132v107h158v-817q0 -123 123 -123l-37 -135q-193 0 -234 155q-138 -170 -340 -170q-95 0 -181 39t-151 108.5t-104 174.5t-39 229zM272 532q0 -187 87 -294t235 -107q85 0 159.5 35.5t129.5 93.5v578 q-128 100 -275 100q-150 0 -243 -112t-93 -294z" />
<glyph unicode="b" horiz-adv-x="1214" d="M166 0v1516h174v-564q51 57 131 97.5t180 40.5q94 0 178.5 -37.5t150 -105.5t104 -173t38.5 -231q0 -123 -41 -230.5t-108.5 -180.5t-156 -115t-181.5 -42q-89 0 -170 36.5t-135 99.5v-111h-164zM340 227q107 -96 258 -96q154 0 250 110.5t96 295.5q0 188 -91 294.5 t-235 106.5q-81 0 -156.5 -40t-121.5 -93v-578z" />
<glyph unicode="c" horiz-adv-x="987" d="M94 532q0 154 62 280t182 202t278 76q164 0 308 -86l-58 -140q-121 70 -239 70q-159 0 -257 -106t-98 -291q0 -186 95 -295t254 -109q72 0 124 16.5t123 53.5l54 -140q-146 -88 -316 -88q-231 0 -371.5 154t-140.5 403z" />
<glyph unicode="d" horiz-adv-x="1243" d="M94 526q0 241 139 402.5t340 161.5q98 0 176 -41t125 -101v568h175v-1268q0 -123 122 -123l-36 -135q-193 0 -234 155q-138 -170 -332 -170q-95 0 -181 39t-151 108.5t-104 174.5t-39 229zM272 532q0 -187 87 -294t235 -107q80 0 153.5 34t126.5 91v549q-44 55 -118 94 t-164 39q-140 0 -230 -115.5t-90 -290.5z" />
<glyph unicode="e" horiz-adv-x="1103" d="M84 532q0 158 59.5 284.5t169 200t250.5 73.5q144 0 249.5 -68.5t156.5 -179.5t51 -248q0 -66 -6 -133h-752q18 -155 105.5 -242.5t240.5 -87.5q142 0 289 66l51 -142q-167 -80 -340 -80q-245 0 -384.5 152t-139.5 405zM260 602h592q0 158 -76.5 247t-210.5 89 q-131 0 -210.5 -87.5t-94.5 -248.5z" />
<glyph unicode="f" horiz-adv-x="733" d="M43 874v152h164v162q0 158 100 255t258 97q148 0 281 -86l-72 -127q-105 57 -201 57q-90 0 -141 -52t-51 -144v-162h319v-152h-319v-874h-174v874h-164z" />
<glyph unicode="g" horiz-adv-x="1198" d="M94 530q0 120 39.5 225.5t106 178t156.5 114.5t190 42q172 0 297 -132v107h157v-1059q0 -242 -129.5 -361.5t-355.5 -119.5q-189 0 -340 90l66 133q122 -72 274 -72q151 0 234 81t83 249v139q-117 -145 -307 -145q-94 0 -179 36.5t-150 103t-103.5 168t-38.5 222.5z M272 541q0 -181 87.5 -283t228.5 -102q158 0 278 127v555q-128 100 -266 100q-136 0 -232 -106.5t-96 -290.5z" />
<glyph unicode="h" horiz-adv-x="1212" d="M166 0v1516h174v-631q128 205 360 205q173 0 265 -108.5t92 -291.5v-690h-174v676q0 126 -56 193t-159 67q-183 0 -328 -223v-713h-174z" />
<glyph unicode="i" horiz-adv-x="507" d="M127 1376q0 56 34.5 91.5t92.5 35.5q57 0 92 -35.5t35 -91.5t-34.5 -91.5t-92.5 -35.5q-56 0 -91.5 35.5t-35.5 91.5zM166 0v1065h174v-1065h-174z" />
<glyph unicode="j" horiz-adv-x="530" d="M-180 -426l41 133q63 -31 151 -31q178 0 178 213v1176h175v-1194q0 -174 -95 -260t-241 -86q-118 0 -209 49zM150 1376q0 56 34 91.5t92 35.5q57 0 92 -35.5t35 -91.5t-34.5 -91.5t-92.5 -35.5q-55 0 -90.5 35.5t-35.5 91.5z" />
<glyph unicode="k" horiz-adv-x="1017" d="M166 0v1516h174v-893l487 462l109 -108l-426 -397l496 -484l-121 -116l-545 546v-526h-174z" />
<glyph unicode="l" horiz-adv-x="686" d="M145 303v1213h174v-1182q0 -103 47 -153t132 -50q74 0 143 27l43 -140q-88 -43 -199 -43q-69 0 -128.5 19t-108 57t-76 103t-27.5 149z" />
<glyph unicode="m" horiz-adv-x="1826" d="M166 0v1065h170v-191q53 102 136.5 159t193.5 57q120 0 202 -61.5t115 -168.5q129 230 350 230q163 0 250.5 -108t87.5 -288v-694h-174v682q0 121 -51 187.5t-137 66.5q-95 0 -164.5 -58.5t-138.5 -168.5v-709h-175v680q0 122 -51 189t-137 67q-92 0 -163.5 -57.5 t-139.5 -163.5v-715h-174z" />
<glyph unicode="n" horiz-adv-x="1212" d="M166 0v1065h170v-193q61 104 147 161t217 57q173 0 265 -108.5t92 -291.5v-690h-174v676q0 126 -56 193t-159 67q-183 0 -328 -223v-713h-174z" />
<glyph unicode="o" horiz-adv-x="1224" d="M84 532q0 126 40.5 231t111.5 176.5t167.5 111t208.5 39.5q230 0 379.5 -156t149.5 -402q0 -252 -149.5 -404.5t-379.5 -152.5t-379 156t-149 401zM262 537q0 -179 97 -292.5t253 -113.5q163 0 257 108.5t94 288.5q0 179 -98 292.5t-253 113.5q-161 0 -255.5 -108.5 t-94.5 -288.5z" />
<glyph unicode="p" horiz-adv-x="1243" d="M72 930l37 135q187 0 231 -152q46 70 132 123.5t206 53.5q93 0 177.5 -37.5t150 -105.5t104.5 -173t39 -231q0 -124 -38.5 -231.5t-103 -180.5t-150.5 -114.5t-181 -41.5q-90 0 -169.5 38t-137.5 102v-566h-174v1248q0 133 -123 133zM369 264q120 -133 284 -133 q141 0 229.5 112.5t88.5 293.5q0 185 -91 293t-229 108q-87 0 -164 -42.5t-118 -102.5v-529z" />
<glyph unicode="q" horiz-adv-x="1214" d="M94 526q0 123 39.5 229.5t107 179t157.5 114t190 41.5q178 0 303 -132v107h158v-1516h-175v572q-50 -64 -121 -105t-184 -41q-95 0 -181 39t-151 108.5t-104 174.5t-39 229zM272 532q0 -187 87 -294t235 -107q87 0 161 37.5t119 97.5v572q-128 100 -274 100 q-140 0 -234 -110.5t-94 -295.5z" />
<glyph unicode="r" horiz-adv-x="815" d="M166 0v1065h168v-240q78 265 344 265q68 0 115 -13l-52 -180q-43 16 -104 16q-56 0 -108 -25t-95 -73.5t-68.5 -129.5t-25.5 -183v-502h-174z" />
<glyph unicode="s" horiz-adv-x="915" d="M43 92l84 131q77 -47 149 -69.5t164 -22.5q120 0 182 41t62 115q0 66 -56.5 109t-209.5 85q-179 50 -258.5 120.5t-79.5 201.5q0 128 107 207.5t280 79.5q204 0 371 -95l-74 -133q-74 38 -139 58t-150 20q-104 0 -161.5 -37t-57.5 -98q0 -44 20.5 -72.5t75 -54.5 t160.5 -57q184 -55 267 -129t83 -193q0 -153 -113 -238.5t-309 -85.5q-225 0 -397 117z" />
<glyph unicode="t" horiz-adv-x="788" d="M23 874v152h188l37 336h133v-336h305v-152h-305v-540q0 -106 48.5 -154.5t125.5 -48.5q92 0 184 47l47 -137q-115 -66 -241 -66q-150 0 -244 85.5t-94 250.5v563h-184z" />
<glyph unicode="u" horiz-adv-x="1212" d="M156 365v700h174v-688q0 -122 55.5 -184t161.5 -62q163 0 297 131v803h174v-793q0 -147 123 -147l-37 -135q-189 0 -232 162q-150 -177 -356 -177q-69 0 -131.5 23t-114.5 68t-83 122t-31 177z" />
<glyph unicode="v" horiz-adv-x="1075" d="M23 1022l161 59l359 -897l358 897l154 -59l-428 -1022h-178z" />
<glyph unicode="w" horiz-adv-x="1566" d="M23 1018l161 57l281 -880l231 815h189l227 -815l277 880l155 -57l-342 -1018h-188l-230 829l-231 -829h-188z" />
<glyph unicode="x" horiz-adv-x="1024" d="M23 94l380 447l-364 428l135 110l334 -424l336 424l127 -110l-363 -420l393 -455l-133 -112l-364 450l-352 -448z" />
<glyph unicode="y" horiz-adv-x="1069" d="M12 1020l162 61l395 -884l322 884l156 -61l-404 -1083q-44 -120 -91 -200.5t-100.5 -127t-110.5 -65.5t-130 -19q-112 0 -184 45l43 131q61 -25 135 -25q94 0 155 59t121 216l49 129h-84z" />
<glyph unicode="z" horiz-adv-x="956" d="M74 0v141l596 770h-584v154h797v-135l-594 -770h604v-160h-819z" />
<glyph unicode="{" horiz-adv-x="749" d="M104 594v123q116 17 156.5 92t40.5 270q0 237 93 347.5t292 129.5v-110q-119 -28 -168 -106t-49 -253q0 -154 -23.5 -240.5t-71 -128.5t-136.5 -63q89 -22 136.5 -63t71 -127.5t23.5 -241.5q0 -176 48.5 -254t168.5 -106v-111q-199 19 -292 130t-93 349 q0 195 -40.5 270.5t-156.5 92.5z" />
<glyph unicode="|" horiz-adv-x="692" d="M270 -205v1782h152v-1782h-152z" />
<glyph unicode="}" horiz-adv-x="749" d="M63 -137q121 28 169.5 105.5t48.5 254.5q0 154 23.5 240.5t71 128.5t136.5 63q-89 21 -136.5 63t-71 128.5t-23.5 240.5q0 177 -48.5 255t-169.5 106v111q200 -19 293 -130t93 -350q0 -194 40.5 -269.5t155.5 -92.5v-123q-115 -17 -155.5 -93t-40.5 -270 q0 -238 -92.5 -349t-293.5 -130v111z" />
<glyph unicode="~" d="M158 668q54 52 124 90.5t142 38.5q49 0 101 -18.5t88.5 -41t83 -41t85.5 -18.5q65 0 115 29t104 81l70 -126q-151 -140 -283 -140q-47 0 -98.5 18.5t-89 41t-85 41t-87.5 18.5q-101 0 -201 -96z" />
<glyph unicode="&#xa1;" horiz-adv-x="634" d="M186 895q0 59 35.5 95t95.5 36q57 0 94.5 -36.5t37.5 -94.5t-36.5 -94.5t-95.5 -36.5q-56 0 -93.5 37t-37.5 94zM217 41l25 547h143l27 -547v-492h-195v492z" />
<glyph unicode="&#xa2;" horiz-adv-x="987" d="M94 584q0 215 118.5 368.5t319.5 182.5l-14 229h170l-14 -225q129 -11 250 -84l-58 -137q-122 67 -239 67q-159 0 -257 -106t-98 -291q0 -186 95 -295t254 -109q72 0 124 16.5t123 53.5l54 -139q-123 -74 -248 -84l14 -226h-170l14 226q-200 25 -319 175.5t-119 377.5z " />
<glyph unicode="&#xa3;" horiz-adv-x="1017" d="M104 641v147h158v256q0 181 102.5 285.5t274.5 104.5q177 0 324 -103l-76 -127q-119 82 -240 82q-99 0 -159 -65t-60 -199v-234h346v-147h-348q-4 -175 -35.5 -279t-99.5 -200h686v-162h-871v141q88 122 119.5 221.5t34.5 278.5h-156z" />
<glyph unicode="&#xa4;" d="M193 291l118 135q-92 113 -92 266q0 156 92 266l-118 136l120 104l115 -154q82 43 186 43q106 0 187 -40l114 151l121 -104l-118 -136q92 -113 92 -266q0 -156 -92 -266l118 -135l-121 -103l-114 152q-82 -43 -187 -43q-96 0 -186 41l-115 -150zM379 694 q0 -107 67.5 -182.5t167.5 -75.5q111 0 173.5 68.5t62.5 185.5q0 107 -67.5 182.5t-168.5 75.5q-111 0 -173 -68.5t-62 -185.5z" />
<glyph unicode="&#xa5;" horiz-adv-x="1202" d="M23 1356l151 78l432 -752l430 752l144 -78l-406 -692h248v-142h-326v-141h326v-141h-326v-240h-184v240h-328v141h328v141h-328v142h262z" />
<glyph unicode="&#xa6;" horiz-adv-x="692" d="M270 -205v756h152v-756h-152zM270 840v737h152v-737h-152z" />
<glyph unicode="&#xa7;" horiz-adv-x="993" d="M125 688q0 95 66.5 165t181.5 114q-113 55 -162 112t-49 148q0 109 98.5 182.5t247.5 73.5q183 0 338 -90l-68 -117q-123 76 -264 76q-86 0 -137 -34.5t-51 -88.5q0 -59 50 -100.5t210 -108.5q151 -64 216.5 -138.5t65.5 -176.5q0 -181 -239 -279q113 -51 165 -111 t52 -149q0 -126 -106.5 -195t-280.5 -69q-189 0 -330 88l68 125q67 -37 127.5 -55.5t142.5 -18.5q96 0 154.5 32t58.5 91q0 55 -49 94t-199 102q-168 72 -237.5 144.5t-69.5 183.5zM291 692q0 -68 48 -114.5t157 -90.5q209 78 209 211q0 134 -199 209q-215 -72 -215 -215z " />
<glyph unicode="&#xa8;" horiz-adv-x="739" d="M61 1366q0 51 32.5 84t84.5 33q51 0 85 -33t34 -84q0 -50 -33 -83.5t-86 -33.5q-50 0 -83.5 33.5t-33.5 83.5zM444 1366q0 51 32.5 84t84.5 33q51 0 84 -33t33 -84q0 -50 -32.5 -83.5t-84.5 -33.5q-49 0 -83 33.5t-34 83.5z" />
<glyph unicode="&#xa9;" horiz-adv-x="1843" d="M205 719q0 219 85.5 386t248.5 260t383 93q161 0 296 -55.5t226.5 -154t142.5 -234.5t51 -295q0 -216 -85.5 -384t-249 -264t-381.5 -96q-217 0 -381 97t-250 265t-86 382zM348 719q0 -177 70 -317t201 -220t303 -80q268 0 420.5 165t152.5 452q0 178 -68 316.5t-199 218 t-306 79.5q-261 0 -417.5 -166t-156.5 -448zM537 717q0 208 113.5 337.5t303.5 129.5q118 0 252 -62l-53 -131q-96 45 -197 45q-115 0 -184.5 -83.5t-69.5 -229.5q0 -144 70.5 -230.5t192.5 -86.5q59 0 102 12.5t102 42.5l52 -131q-131 -72 -267 -72q-187 0 -302 125 t-115 334z" />
<glyph unicode="&#xaa;" d="M209 1051q0 176 102.5 286.5t253.5 110.5q125 0 217 -68v54h144v-549q0 -92 94 -92l-35 -123q-138 0 -182 100q-99 -108 -238 -108q-146 0 -251 105.5t-105 283.5zM270 274v160h693v-160h-693zM367 1055q0 -120 63 -189t156 -69q108 0 188 94v364q-84 60 -194 60 q-92 0 -152.5 -69.5t-60.5 -190.5z" />
<glyph unicode="&#xab;" horiz-adv-x="1136" d="M145 664v81l324 402l119 -98l-291 -344l291 -345l-119 -98zM551 664v81l323 402l117 -98l-289 -344l289 -345l-117 -98z" />
<glyph unicode="&#xac;" d="M145 623v159h938v-501h-174v342h-764z" />
<glyph unicode="&#xad;" d="M268 623v159h693v-159h-693z" />
<glyph unicode="&#xae;" horiz-adv-x="1843" d="M207 719q0 219 85.5 386t248.5 260t383 93q161 0 296 -55.5t226.5 -154t142.5 -234.5t51 -295q0 -216 -85.5 -384t-249 -264t-381.5 -96q-217 0 -381.5 97t-250 265t-85.5 382zM350 719q0 -177 70 -317t201 -220t303 -80q268 0 420.5 165t152.5 452q0 178 -68 316.5 t-199 218t-306 79.5q-262 0 -418 -166t-156 -448zM651 293v864q126 17 244 17q164 0 256 -69.5t92 -186.5q0 -86 -46.5 -136.5t-135.5 -76.5q53 -21 90 -58t70 -106l88 -201l-144 -66l-104 234q-32 75 -79 109t-120 34h-59v-358h-152zM803 786h108q80 0 127 32.5t47 92.5 q0 61 -45 93t-129 32q-42 0 -108 -4v-246z" />
<glyph unicode="&#xaf;" horiz-adv-x="710" d="M61 1288v142h588v-142h-588z" />
<glyph unicode="&#xb0;" horiz-adv-x="921" d="M106 1227q0 124 85.5 205t207.5 81q124 0 209.5 -80.5t85.5 -205.5q0 -124 -86 -205.5t-209 -81.5q-122 0 -207.5 81.5t-85.5 205.5zM262 1227q0 -68 37.5 -110t99.5 -42t101 41t39 111q0 68 -39 109.5t-101 41.5q-63 0 -100 -40.5t-37 -110.5z" />
<glyph unicode="&#xb1;" d="M225 817v150h307v307h166v-307h306v-150h-306v-305h-166v305h-307zM227 172v158h774v-158h-774z" />
<glyph unicode="&#xb2;" horiz-adv-x="921" d="M160 637q0 67 24 125.5t62.5 100.5t85 79.5t93 69t85 61t62.5 63t24 68.5q0 55 -36 87t-101 32q-105 0 -209 -84l-82 96q135 113 295 113q132 0 212.5 -68.5t80.5 -169.5q0 -49 -21.5 -92.5t-56.5 -76.5t-77 -64t-86 -61.5t-82 -62t-65 -72t-34 -85.5h428v-131h-598 q-4 50 -4 72z" />
<glyph unicode="&#xb3;" horiz-adv-x="921" d="M156 629l63 104q88 -53 201 -53q88 0 137 35.5t49 103.5t-52 105t-153 37h-104v118h98q185 0 185 125q0 57 -43.5 88t-114.5 31q-94 0 -199 -55l-61 104q127 76 268 76q140 0 223.5 -67.5t83.5 -163.5q0 -138 -139 -187q166 -55 166 -209q0 -113 -88.5 -191.5 t-253.5 -78.5q-169 0 -266 78z" />
<glyph unicode="&#xb4;" horiz-adv-x="598" d="M61 1327l394 254l82 -162l-408 -207z" />
<glyph unicode="&#xb6;" horiz-adv-x="1351" d="M43 1190q0 186 129 295.5t346 109.5q125 0 336 -18v-1708h-174v938q-75 -16 -176 -16q-100 0 -183.5 25.5t-145.5 74.5t-97 125.5t-35 173.5zM221 1194q0 -124 79 -189t220 -65q89 0 160 14v484q-102 8 -156 8q-148 0 -225.5 -68t-77.5 -184zM991 -131v1708h174v-1708 h-174z" />
<glyph unicode="&#xb7;" horiz-adv-x="614" d="M176 731q0 58 36 94.5t95 36.5q56 0 93.5 -37t37.5 -94q0 -58 -36 -94.5t-95 -36.5q-56 0 -93.5 37t-37.5 94z" />
<glyph unicode="&#xb8;" horiz-adv-x="600" d="M61 -455l48 115q76 -29 147 -29q56 0 90.5 20.5t34.5 59.5q0 96 -231 96l71 193h131l-43 -123q107 0 168.5 -46.5t61.5 -133.5q0 -80 -72.5 -136.5t-202.5 -56.5q-117 0 -203 41z" />
<glyph unicode="&#xb9;" horiz-adv-x="921" d="M170 1264l307 170h111v-742h164v-127h-519v127h199v561l-196 -106z" />
<glyph unicode="&#xba;" d="M221 1055q0 177 111 285t282 108q173 0 283.5 -109.5t110.5 -283.5q0 -177 -111 -285t-283 -108t-282.5 110t-110.5 283zM268 274v160h693v-160h-693zM381 1057q0 -115 65.5 -187.5t167.5 -72.5q108 0 172 70t64 186q0 115 -67 187.5t-169 72.5q-108 0 -170.5 -69 t-62.5 -187z" />
<glyph unicode="&#xbb;" horiz-adv-x="1136" d="M145 360l289 345l-289 344l117 98l326 -402v-81l-326 -402zM551 360l289 345l-289 344l117 98l323 -402v-81l-323 -402z" />
<glyph unicode="&#xbc;" horiz-adv-x="2201" d="M170 1264l307 170h111v-742h164v-127h-519v127h199v561l-196 -106zM614 -8l897 1524l117 -74l-897 -1524zM1401 180v101l297 600l137 -52l-256 -520h236l18 238h131v-238h117v-129h-117v-180h-149v180h-414z" />
<glyph unicode="&#xbd;" horiz-adv-x="2201" d="M170 1264l307 170h111v-742h164v-127h-519v127h199v561l-196 -106zM614 -8l897 1524l117 -74l-897 -1524zM1440 72q0 67 24 125.5t62.5 100.5t85 79.5t93 69t85 61t62.5 63t24 68.5q0 55 -36 87t-101 32q-105 0 -209 -84l-82 96q135 113 295 113q132 0 212.5 -68.5 t80.5 -169.5q0 -49 -21.5 -92.5t-56.5 -76.5t-77 -64t-86 -61.5t-82 -62t-65 -72t-34 -85.5h428v-131h-598q-4 50 -4 72z" />
<glyph unicode="&#xbe;" horiz-adv-x="2201" d="M156 629l63 104q88 -53 201 -53q88 0 137 35.5t49 103.5t-52 105t-153 37h-104v118h98q185 0 185 125q0 57 -43.5 88t-114.5 31q-94 0 -199 -55l-61 104q127 76 268 76q140 0 223.5 -67.5t83.5 -163.5q0 -138 -139 -187q166 -55 166 -209q0 -113 -88.5 -191.5 t-253.5 -78.5q-169 0 -266 78zM614 -8l897 1524l117 -74l-897 -1524zM1401 180v101l297 600l137 -52l-256 -520h236l18 238h131v-238h117v-129h-117v-180h-149v180h-414z" />
<glyph unicode="&#xbf;" horiz-adv-x="1005" d="M104 -154q0 69 22.5 127t58 98.5t79 76t87 68.5t79 68t58 82t22.5 103v117h152q18 -68 18 -146q0 -63 -21.5 -117.5t-55.5 -93t-75.5 -73.5t-82.5 -66.5t-75 -64t-55.5 -74.5t-21.5 -90q0 -77 56 -127.5t153 -50.5q162 0 284 157l125 -100q-171 -215 -424 -215 q-166 0 -274.5 93.5t-108.5 227.5zM444 895q0 59 35.5 95t95.5 36q56 0 94 -36.5t38 -94.5t-36.5 -94.5t-95.5 -36.5q-56 0 -93.5 37t-37.5 94z" />
<glyph unicode="&#xc0;" horiz-adv-x="1363" d="M23 49l563 1385h200l555 -1385l-167 -65l-162 409h-666l-162 -409zM403 549h549l-270 717zM467 1757l82 162l393 -254l-70 -115z" />
<glyph unicode="&#xc1;" horiz-adv-x="1363" d="M23 49l563 1385h200l555 -1385l-167 -65l-162 409h-666l-162 -409zM403 549h549l-270 717zM426 1665l393 254l82 -162l-407 -207z" />
<glyph unicode="&#xc2;" horiz-adv-x="1363" d="M23 49l563 1385h200l555 -1385l-167 -65l-162 409h-666l-162 -409zM324 1671l292 176h136l292 -176l-81 -125l-279 180l-276 -180zM403 549h549l-270 717z" />
<glyph unicode="&#xc3;" horiz-adv-x="1363" d="M23 49l563 1385h200l555 -1385l-167 -65l-162 409h-666l-162 -409zM344 1698q52 63 102 96t115 33q45 0 90 -22.5t85.5 -45t74.5 -22.5q26 0 51 13t39 25.5t35 34.5l90 -94q-52 -63 -100 -96t-105 -33q-53 0 -99.5 22t-84 44t-68.5 22q-70 0 -135 -73zM403 549h549 l-270 717z" />
<glyph unicode="&#xc4;" horiz-adv-x="1363" d="M23 49l563 1385h200l555 -1385l-167 -65l-162 409h-666l-162 -409zM377 1714q0 51 32.5 84t84.5 33q51 0 84.5 -33t33.5 -84q0 -50 -32.5 -83.5t-85.5 -33.5q-50 0 -83.5 33.5t-33.5 83.5zM403 549h549l-270 717zM760 1714q0 51 32.5 84t84.5 33q51 0 83.5 -33t32.5 -84 q0 -50 -32 -83.5t-84 -33.5q-49 0 -83 33.5t-34 83.5z" />
<glyph unicode="&#xc5;" horiz-adv-x="1363" d="M23 49l561 1381q-68 27 -110 87t-42 138q0 104 73 172.5t179 68.5t180 -68.5t74 -172.5q0 -76 -42 -135t-110 -88l555 -1383l-167 -65l-162 409h-666l-162 -409zM403 549h549l-270 717zM582 1655q0 -53 28.5 -88t73.5 -35q46 0 75 33t29 90q0 51 -29 86t-75 35 q-47 0 -74.5 -30.5t-27.5 -90.5z" />
<glyph unicode="&#xc6;" horiz-adv-x="1839" d="M2 76l856 1358h887v-158h-621v-451h529v-153h-529v-512h621v-160h-805v393h-530l-256 -411zM504 549h436v711z" />
<glyph unicode="&#xc7;" horiz-adv-x="1206" d="M104 711q0 218 80.5 387t232.5 264.5t353 95.5q191 0 360 -88l-57 -145q-76 36 -145.5 54.5t-157.5 18.5q-214 0 -344.5 -154.5t-130.5 -424.5q0 -266 126 -424t339 -158q96 0 173 22t163 64l57 -143q-169 -97 -362 -105l-35 -98q107 0 168 -46t61 -134q0 -80 -72 -136.5 t-202 -56.5q-117 0 -203 41l47 115q76 -29 147 -29q56 0 90.5 20.5t34.5 59.5q0 96 -231 96l66 175q-258 32 -408 226t-150 503z" />
<glyph unicode="&#xc8;" horiz-adv-x="1136" d="M186 0v1434h856v-158h-671v-451h579v-153h-579v-512h671v-160h-856zM416 1757l82 162l393 -254l-70 -115z" />
<glyph unicode="&#xc9;" horiz-adv-x="1136" d="M186 0v1434h856v-158h-671v-451h579v-153h-579v-512h671v-160h-856zM375 1665l393 254l82 -162l-408 -207z" />
<glyph unicode="&#xca;" horiz-adv-x="1136" d="M186 0v1434h856v-158h-671v-451h579v-153h-579v-512h671v-160h-856zM272 1671l293 176h135l293 -176l-82 -125l-278 180l-277 -180z" />
<glyph unicode="&#xcb;" horiz-adv-x="1136" d="M186 0v1434h856v-158h-671v-451h579v-153h-579v-512h671v-160h-856zM326 1714q0 51 32 84t84 33q51 0 85 -33t34 -84q0 -50 -33 -83.5t-86 -33.5q-49 0 -82.5 33.5t-33.5 83.5zM709 1714q0 51 32 84t84 33q51 0 84 -33t33 -84q0 -50 -32.5 -83.5t-84.5 -33.5 q-49 0 -82.5 33.5t-33.5 83.5z" />
<glyph unicode="&#xcc;" horiz-adv-x="557" d="M61 1757l82 162l394 -254l-70 -115zM186 0v1434h185v-1434h-185z" />
<glyph unicode="&#xcd;" horiz-adv-x="557" d="M20 1665l394 254l82 -162l-408 -207zM186 0v1434h185v-1434h-185z" />
<glyph unicode="&#xce;" horiz-adv-x="557" d="M-84 1671l293 176h135l293 -176l-82 -125l-279 180l-276 -180zM186 0v1434h185v-1434h-185z" />
<glyph unicode="&#xcf;" horiz-adv-x="557" d="M-29 1714q0 51 32.5 84t84.5 33q51 0 85 -33t34 -84q0 -50 -33 -83.5t-86 -33.5q-50 0 -83.5 33.5t-33.5 83.5zM186 0v1434h185v-1434h-185zM354 1714q0 51 32.5 84t84.5 33q51 0 84 -33t33 -84q0 -50 -32.5 -83.5t-84.5 -33.5q-49 0 -83 33.5t-34 83.5z" />
<glyph unicode="&#xd0;" horiz-adv-x="1415" d="M47 647v156h158v620q214 27 375 27q184 0 326.5 -57.5t229.5 -158.5t131 -231t44 -284q0 -123 -26.5 -230.5t-84 -201t-143 -160.5t-209.5 -105t-277 -38q-199 0 -366 28v635h-158zM389 154q101 -11 195 -11q137 0 241.5 42.5t168.5 120t96 181.5t32 232q0 124 -32 227 t-95.5 181t-166 121.5t-234.5 43.5q-99 0 -205 -12v-477h375v-156h-375v-493z" />
<glyph unicode="&#xd1;" horiz-adv-x="1441" d="M186 0v1434h246l649 -1217v1217h174v-1434h-245l-650 1212v-1212h-174zM399 1698q52 63 102 96t115 33q45 0 90 -22.5t85.5 -45t74.5 -22.5q26 0 51 13t39 25.5t35 34.5l90 -94q-52 -63 -99.5 -96t-104.5 -33q-53 0 -99.5 22t-84 44t-68.5 22q-71 0 -136 -73z" />
<glyph unicode="&#xd2;" horiz-adv-x="1558" d="M104 719q0 211 79.5 377.5t234 264t360.5 97.5q155 0 283.5 -58t213.5 -158.5t132 -235t47 -287.5q0 -155 -47 -290.5t-132 -236t-213.5 -159t-283.5 -58.5q-154 0 -282.5 58.5t-213.5 159.5t-131.5 236.5t-46.5 289.5zM295 719q0 -116 33 -221t93 -186t152.5 -129 t204.5 -48q156 0 267 76t165 206.5t54 301.5q0 114 -33.5 218.5t-94 185.5t-153.5 129t-205 48q-149 0 -259.5 -76t-167 -206.5t-56.5 -298.5zM563 1757l82 162l393 -254l-69 -115z" />
<glyph unicode="&#xd3;" horiz-adv-x="1558" d="M104 719q0 211 79.5 377.5t234 264t360.5 97.5q155 0 283.5 -58t213.5 -158.5t132 -235t47 -287.5q0 -155 -47 -290.5t-132 -236t-213.5 -159t-283.5 -58.5q-154 0 -282.5 58.5t-213.5 159.5t-131.5 236.5t-46.5 289.5zM295 719q0 -116 33 -221t93 -186t152.5 -129 t204.5 -48q156 0 267 76t165 206.5t54 301.5q0 114 -33.5 218.5t-94 185.5t-153.5 129t-205 48q-149 0 -259.5 -76t-167 -206.5t-56.5 -298.5zM522 1665l393 254l82 -162l-407 -207z" />
<glyph unicode="&#xd4;" horiz-adv-x="1558" d="M104 719q0 211 79.5 377.5t234 264t360.5 97.5q155 0 283.5 -58t213.5 -158.5t132 -235t47 -287.5q0 -155 -47 -290.5t-132 -236t-213.5 -159t-283.5 -58.5q-154 0 -282.5 58.5t-213.5 159.5t-131.5 236.5t-46.5 289.5zM295 719q0 -116 33 -221t93 -186t152.5 -129 t204.5 -48q156 0 267 76t165 206.5t54 301.5q0 114 -33.5 218.5t-94 185.5t-153.5 129t-205 48q-149 0 -259.5 -76t-167 -206.5t-56.5 -298.5zM418 1671l293 176h135l293 -176l-82 -125l-279 180l-276 -180z" />
<glyph unicode="&#xd5;" horiz-adv-x="1558" d="M104 719q0 211 79.5 377.5t234 264t360.5 97.5q155 0 283.5 -58t213.5 -158.5t132 -235t47 -287.5q0 -155 -47 -290.5t-132 -236t-213.5 -159t-283.5 -58.5q-154 0 -282.5 58.5t-213.5 159.5t-131.5 236.5t-46.5 289.5zM295 719q0 -116 33 -221t93 -186t152.5 -129 t204.5 -48q156 0 267 76t165 206.5t54 301.5q0 114 -33.5 218.5t-94 185.5t-153.5 129t-205 48q-149 0 -259.5 -76t-167 -206.5t-56.5 -298.5zM438 1698q52 63 102 96t115 33q45 0 90 -22.5t85.5 -45t74.5 -22.5q26 0 51 13t39 25.5t35 34.5l90 -94q-52 -63 -100 -96 t-105 -33q-42 0 -80.5 13.5t-62.5 30.5t-53 30.5t-55 13.5q-71 0 -136 -73z" />
<glyph unicode="&#xd6;" horiz-adv-x="1558" d="M104 719q0 211 79.5 377.5t234 264t360.5 97.5q155 0 283.5 -58t213.5 -158.5t132 -235t47 -287.5q0 -155 -47 -290.5t-132 -236t-213.5 -159t-283.5 -58.5q-154 0 -282.5 58.5t-213.5 159.5t-131.5 236.5t-46.5 289.5zM295 719q0 -116 33 -221t93 -186t152.5 -129 t204.5 -48q156 0 267 76t165 206.5t54 301.5q0 114 -33.5 218.5t-94 185.5t-153.5 129t-205 48q-149 0 -259.5 -76t-167 -206.5t-56.5 -298.5zM473 1714q0 51 32.5 84t84.5 33q51 0 85 -33t34 -84q0 -50 -33 -83.5t-86 -33.5q-50 0 -83.5 33.5t-33.5 83.5zM856 1714 q0 51 32.5 84t84.5 33q51 0 84 -33t33 -84q0 -50 -32.5 -83.5t-84.5 -33.5q-49 0 -83 33.5t-34 83.5z" />
<glyph unicode="&#xd7;" d="M217 414l293 291l-293 294l109 107l288 -295l291 295l107 -107l-293 -294l293 -291l-107 -107l-291 291l-288 -291z" />
<glyph unicode="&#xd8;" horiz-adv-x="1558" d="M104 719q0 211 79.5 377.5t234 264t360.5 97.5q142 0 260 -47l111 250l158 -74l-136 -252q135 -98 209 -260t74 -356q0 -155 -47 -290.5t-132 -236t-213.5 -159t-283.5 -58.5q-128 0 -237 41l-113 -258l-158 74l136 252q-144 98 -223 265.5t-79 369.5zM295 719 q0 -155 49.5 -280t142.5 -203l490 1024q-87 40 -199 40q-149 0 -259.5 -76t-167 -206.5t-56.5 -298.5zM604 166q79 -31 174 -31q156 0 267 76t165 206.5t54 301.5q0 144 -46 266t-131 199z" />
<glyph unicode="&#xd9;" horiz-adv-x="1390" d="M166 508v926h184v-922q0 -176 89.5 -275.5t258.5 -99.5q168 0 258.5 100t90.5 275v922h178v-926q0 -250 -143 -391.5t-384 -141.5q-245 0 -388.5 140.5t-143.5 392.5zM479 1757l82 162l393 -254l-69 -115z" />
<glyph unicode="&#xda;" horiz-adv-x="1390" d="M166 508v926h184v-922q0 -176 89.5 -275.5t258.5 -99.5q168 0 258.5 100t90.5 275v922h178v-926q0 -250 -143 -391.5t-384 -141.5q-245 0 -388.5 140.5t-143.5 392.5zM438 1665l393 254l82 -162l-407 -207z" />
<glyph unicode="&#xdb;" horiz-adv-x="1390" d="M166 508v926h184v-922q0 -176 89.5 -275.5t258.5 -99.5q168 0 258.5 100t90.5 275v922h178v-926q0 -250 -143 -391.5t-384 -141.5q-245 0 -388.5 140.5t-143.5 392.5zM334 1671l293 176h135l293 -176l-82 -125l-279 180l-276 -180z" />
<glyph unicode="&#xdc;" horiz-adv-x="1390" d="M166 508v926h184v-922q0 -176 89.5 -275.5t258.5 -99.5q168 0 258.5 100t90.5 275v922h178v-926q0 -250 -143 -391.5t-384 -141.5q-245 0 -388.5 140.5t-143.5 392.5zM387 1714q0 51 32.5 84t84.5 33q51 0 85 -33t34 -84q0 -50 -33 -83.5t-86 -33.5q-50 0 -83.5 33.5 t-33.5 83.5zM770 1714q0 51 32.5 84t84.5 33q51 0 84 -33t33 -84q0 -50 -32.5 -83.5t-84.5 -33.5q-49 0 -83 33.5t-34 83.5z" />
<glyph unicode="&#xdd;" horiz-adv-x="1249" d="M23 1364l157 88l449 -743l448 735l150 -80l-510 -819v-545h-185v545zM369 1665l393 254l82 -162l-408 -207z" />
<glyph unicode="&#xde;" horiz-adv-x="1191" d="M186 0v1434h185v-236q99 6 209 6q266 0 417.5 -124.5t151.5 -329.5q0 -155 -77.5 -266t-213 -165.5t-317.5 -54.5q-94 0 -170 6v-270h-185zM371 428q75 -10 192 -10q191 0 296.5 83.5t105.5 235.5q0 149 -102 231.5t-288 82.5q-89 0 -204 -11v-612z" />
<glyph unicode="&#xdf;" horiz-adv-x="1253" d="M23 909l45 156q112 0 159 -92q-7 279 113.5 423t335.5 144q180 0 294.5 -111t114.5 -274q0 -251 -245 -334q155 -39 242 -142t87 -265q0 -195 -126 -317t-328 -122q-141 0 -236 50l43 137q80 -35 180 -35q134 0 211.5 74t77.5 207q0 157 -103 242t-292 85v142 q311 0 311 266q0 115 -61.5 180.5t-171.5 65.5q-58 0 -104 -15.5t-85 -51.5t-64.5 -93.5t-39.5 -143t-14 -198.5v-1338h-174v1172q0 188 -170 188z" />
<glyph unicode="&#xe0;" horiz-adv-x="1251" d="M94 526q0 157 64 286t179.5 203.5t258.5 74.5q178 0 303 -132v107h158v-817q0 -123 123 -123l-37 -135q-193 0 -234 155q-138 -170 -340 -170q-95 0 -181 39t-151 108.5t-104 174.5t-39 229zM272 532q0 -187 87 -294t235 -107q85 0 159.5 35.5t129.5 93.5v578 q-128 100 -275 100q-150 0 -243 -112t-93 -294zM391 1419l82 162l393 -254l-69 -115z" />
<glyph unicode="&#xe1;" horiz-adv-x="1251" d="M94 526q0 157 64 286t179.5 203.5t258.5 74.5q178 0 303 -132v107h158v-817q0 -123 123 -123l-37 -135q-193 0 -234 155q-138 -170 -340 -170q-95 0 -181 39t-151 108.5t-104 174.5t-39 229zM272 532q0 -187 87 -294t235 -107q85 0 159.5 35.5t129.5 93.5v578 q-128 100 -275 100q-150 0 -243 -112t-93 -294zM383 1327l393 254l82 -162l-407 -207z" />
<glyph unicode="&#xe2;" horiz-adv-x="1251" d="M94 526q0 157 64 286t179.5 203.5t258.5 74.5q178 0 303 -132v107h158v-817q0 -123 123 -123l-37 -135q-193 0 -234 155q-138 -170 -340 -170q-95 0 -181 39t-151 108.5t-104 174.5t-39 229zM266 1319l293 207h135l293 -207l-92 -117l-268 201l-267 -201zM272 532 q0 -187 87 -294t235 -107q85 0 159.5 35.5t129.5 93.5v578q-128 100 -275 100q-150 0 -243 -112t-93 -294z" />
<glyph unicode="&#xe3;" horiz-adv-x="1251" d="M94 526q0 157 64 286t179.5 203.5t258.5 74.5q178 0 303 -132v107h158v-817q0 -123 123 -123l-37 -135q-193 0 -234 155q-138 -170 -340 -170q-95 0 -181 39t-151 108.5t-104 174.5t-39 229zM272 532q0 -187 87 -294t235 -107q85 0 159.5 35.5t129.5 93.5v578 q-128 100 -275 100q-150 0 -243 -112t-93 -294zM285 1350q52 63 102 96t115 33q45 0 90 -22.5t85.5 -45t74.5 -22.5q26 0 51 13t39 25.5t35 34.5l90 -94q-52 -63 -100 -96t-105 -33q-53 0 -99.5 22t-84 44t-68.5 22q-69 0 -135 -74z" />
<glyph unicode="&#xe4;" horiz-adv-x="1251" d="M94 526q0 157 64 286t179.5 203.5t258.5 74.5q178 0 303 -132v107h158v-817q0 -123 123 -123l-37 -135q-193 0 -234 155q-138 -170 -340 -170q-95 0 -181 39t-151 108.5t-104 174.5t-39 229zM272 532q0 -187 87 -294t235 -107q85 0 159.5 35.5t129.5 93.5v578 q-128 100 -275 100q-150 0 -243 -112t-93 -294zM317 1366q0 51 32.5 84t84.5 33q51 0 85 -33t34 -84q0 -50 -33 -83.5t-86 -33.5q-50 0 -83.5 33.5t-33.5 83.5zM700 1366q0 51 32.5 84t84.5 33q51 0 84 -33t33 -84q0 -50 -32.5 -83.5t-84.5 -33.5q-49 0 -83 33.5t-34 83.5z " />
<glyph unicode="&#xe5;" horiz-adv-x="1251" d="M94 526q0 157 64 286t179.5 203.5t258.5 74.5q178 0 303 -132v107h158v-817q0 -123 123 -123l-37 -135q-193 0 -234 155q-138 -170 -340 -170q-95 0 -181 39t-151 108.5t-104 174.5t-39 229zM272 532q0 -187 87 -294t235 -107q85 0 159.5 35.5t129.5 93.5v578 q-128 100 -275 100q-150 0 -243 -112t-93 -294zM373 1438q0 104 73 172.5t179 68.5t180 -68.5t74 -172.5q0 -105 -74.5 -174.5t-179.5 -69.5q-106 0 -179 69t-73 175zM522 1438q0 -53 29 -88t74 -35q46 0 75 33t29 90q0 51 -29 86t-75 35q-47 0 -75 -30.5t-28 -90.5z" />
<glyph unicode="&#xe6;" horiz-adv-x="1812" d="M84 305q0 165 119.5 257.5t314.5 92.5q132 0 295 -39q-19 154 -105 238t-221 84q-118 0 -245 -57l-37 145q152 64 297 64q291 0 401 -252q129 252 381 252q139 0 241.5 -68.5t153 -179.5t50.5 -248q0 -54 -7 -133h-735q19 -157 106 -244.5t234 -87.5q130 0 279 64 l51 -138q-167 -80 -330 -80q-309 0 -436 263q-149 -263 -434 -263q-164 0 -268.5 92.5t-104.5 237.5zM258 313q0 -89 61.5 -136.5t157.5 -47.5q126 0 223 90t115 254q-155 41 -291 41q-121 0 -193.5 -53t-72.5 -148zM985 602h576q0 160 -74.5 249t-204.5 89 q-122 0 -200.5 -86t-96.5 -252z" />
<glyph unicode="&#xe7;" horiz-adv-x="987" d="M94 532q0 154 62 280t182 202t278 76q164 0 308 -86l-58 -140q-121 70 -239 70q-159 0 -257 -106t-98 -291q0 -186 95 -295t254 -109q72 0 124 16.5t123 53.5l54 -140q-128 -76 -263 -86l-34 -100q107 0 168 -46t61 -134q0 -80 -72 -136.5t-202 -56.5q-117 0 -203 41 l47 115q76 -29 147 -29q56 0 90.5 20.5t34.5 59.5q0 96 -231 96l63 173q-198 26 -316 176t-118 376z" />
<glyph unicode="&#xe8;" horiz-adv-x="1103" d="M84 532q0 158 59.5 284.5t169 200t250.5 73.5q144 0 249.5 -68.5t156.5 -179.5t51 -248q0 -66 -6 -133h-752q18 -155 105.5 -242.5t240.5 -87.5q142 0 289 66l51 -142q-167 -80 -340 -80q-245 0 -384.5 152t-139.5 405zM260 602h592q0 158 -76.5 247t-210.5 89 q-131 0 -210.5 -87.5t-94.5 -248.5zM334 1419l82 162l393 -254l-70 -115z" />
<glyph unicode="&#xe9;" horiz-adv-x="1103" d="M84 532q0 158 59.5 284.5t169 200t250.5 73.5q144 0 249.5 -68.5t156.5 -179.5t51 -248q0 -66 -6 -133h-752q18 -155 105.5 -242.5t240.5 -87.5q142 0 289 66l51 -142q-167 -80 -340 -80q-245 0 -384.5 152t-139.5 405zM260 602h592q0 158 -76.5 247t-210.5 89 q-131 0 -210.5 -87.5t-94.5 -248.5zM326 1327l393 254l82 -162l-408 -207z" />
<glyph unicode="&#xea;" horiz-adv-x="1103" d="M84 532q0 158 59.5 284.5t169 200t250.5 73.5q144 0 249.5 -68.5t156.5 -179.5t51 -248q0 -66 -6 -133h-752q18 -155 105.5 -242.5t240.5 -87.5q142 0 289 66l51 -142q-167 -80 -340 -80q-245 0 -384.5 152t-139.5 405zM209 1319l293 207h135l293 -207l-92 -117l-269 201 l-266 -201zM260 602h592q0 158 -76.5 247t-210.5 89q-131 0 -210.5 -87.5t-94.5 -248.5z" />
<glyph unicode="&#xeb;" horiz-adv-x="1103" d="M84 532q0 158 59.5 284.5t169 200t250.5 73.5q144 0 249.5 -68.5t156.5 -179.5t51 -248q0 -66 -6 -133h-752q18 -155 105.5 -242.5t240.5 -87.5q142 0 289 66l51 -142q-167 -80 -340 -80q-245 0 -384.5 152t-139.5 405zM260 602h592q0 158 -76.5 247t-210.5 89 q-131 0 -210.5 -87.5t-94.5 -248.5zM260 1366q0 51 32.5 84t84.5 33q51 0 85 -33t34 -84q0 -50 -33 -83.5t-86 -33.5q-49 0 -83 33.5t-34 83.5zM643 1366q0 51 32.5 84t84.5 33q51 0 84 -33t33 -84q0 -50 -32.5 -83.5t-84.5 -33.5q-50 0 -83.5 33.5t-33.5 83.5z" />
<glyph unicode="&#xec;" horiz-adv-x="507" d="M18 1419l82 162l394 -254l-70 -115zM166 0v1065h174v-1065h-174z" />
<glyph unicode="&#xed;" horiz-adv-x="507" d="M12 1327l394 254l81 -162l-407 -207zM166 0v1065h174v-1065h-174z" />
<glyph unicode="&#xee;" horiz-adv-x="507" d="M-106 1319l292 207h136l292 -207l-92 -117l-268 201l-266 -201zM166 0v1065h174v-1065h-174z" />
<glyph unicode="&#xef;" horiz-adv-x="507" d="M-55 1366q0 51 32 84t84 33q51 0 85 -33t34 -84q0 -50 -33 -83.5t-86 -33.5q-49 0 -82.5 33.5t-33.5 83.5zM166 0v1065h174v-1065h-174zM328 1366q0 51 32 84t84 33q51 0 84 -33t33 -84q0 -50 -32.5 -83.5t-84.5 -33.5q-49 0 -82.5 33.5t-33.5 83.5z" />
<glyph unicode="&#xf0;" horiz-adv-x="1120" d="M84 430q0 102 36.5 189.5t97.5 145t140 90t164 32.5q206 0 336 -180q0 162 -56 294.5t-157 208.5l-133 -168l-113 91l133 147q-94 47 -239 47q-26 0 -66 -4v158q40 4 76 4q186 0 336 -78l133 172l111 -90l-131 -150q133 -102 208.5 -273.5t75.5 -391.5 q0 -332 -134 -515.5t-378 -183.5q-87 0 -166 31t-140.5 87.5t-97.5 144t-36 192.5zM258 436q0 -143 76.5 -224t197.5 -81q286 0 324 432q-128 176 -311 176q-123 0 -205 -81t-82 -222z" />
<glyph unicode="&#xf1;" horiz-adv-x="1212" d="M166 0v1065h170v-193q61 104 147 161t217 57q173 0 265 -108.5t92 -291.5v-690h-174v676q0 126 -56 193t-159 67q-183 0 -328 -223v-713h-174zM264 1350q52 63 102 96t115 33q45 0 90 -22.5t85.5 -45t74.5 -22.5q26 0 51 13t39 25.5t35 34.5l90 -94q-52 -63 -100 -96 t-105 -33q-53 0 -99.5 22t-84 44t-68.5 22q-69 0 -135 -74z" />
<glyph unicode="&#xf2;" horiz-adv-x="1224" d="M84 532q0 126 40.5 231t111.5 176.5t167.5 111t208.5 39.5q230 0 379.5 -156t149.5 -402q0 -252 -149.5 -404.5t-379.5 -152.5t-379 156t-149 401zM262 537q0 -179 97 -292.5t253 -113.5q163 0 257 108.5t94 288.5q0 179 -98 292.5t-253 113.5q-161 0 -255.5 -108.5 t-94.5 -288.5zM379 1419l82 162l393 -254l-70 -115z" />
<glyph unicode="&#xf3;" horiz-adv-x="1224" d="M84 532q0 126 40.5 231t111.5 176.5t167.5 111t208.5 39.5q230 0 379.5 -156t149.5 -402q0 -252 -149.5 -404.5t-379.5 -152.5t-379 156t-149 401zM262 537q0 -179 97 -292.5t253 -113.5q163 0 257 108.5t94 288.5q0 179 -98 292.5t-253 113.5q-161 0 -255.5 -108.5 t-94.5 -288.5zM371 1327l393 254l82 -162l-408 -207z" />
<glyph unicode="&#xf4;" horiz-adv-x="1224" d="M84 532q0 126 40.5 231t111.5 176.5t167.5 111t208.5 39.5q230 0 379.5 -156t149.5 -402q0 -252 -149.5 -404.5t-379.5 -152.5t-379 156t-149 401zM254 1319l293 207h135l293 -207l-92 -117l-269 201l-266 -201zM262 537q0 -179 97 -292.5t253 -113.5q163 0 257 108.5 t94 288.5q0 179 -98 292.5t-253 113.5q-161 0 -255.5 -108.5t-94.5 -288.5z" />
<glyph unicode="&#xf5;" horiz-adv-x="1224" d="M84 532q0 126 40.5 231t111.5 176.5t167.5 111t208.5 39.5q230 0 379.5 -156t149.5 -402q0 -252 -149.5 -404.5t-379.5 -152.5t-379 156t-149 401zM262 537q0 -179 97 -292.5t253 -113.5q163 0 257 108.5t94 288.5q0 179 -98 292.5t-253 113.5q-161 0 -255.5 -108.5 t-94.5 -288.5zM270 1350q52 63 102 96t115 33q45 0 90 -22.5t85.5 -45t74.5 -22.5q26 0 51 13t39 25.5t35 34.5l90 -94q-52 -63 -99.5 -96t-104.5 -33q-53 0 -99.5 22t-84 44t-68.5 22q-70 0 -136 -74z" />
<glyph unicode="&#xf6;" horiz-adv-x="1224" d="M84 532q0 126 40.5 231t111.5 176.5t167.5 111t208.5 39.5q230 0 379.5 -156t149.5 -402q0 -252 -149.5 -404.5t-379.5 -152.5t-379 156t-149 401zM262 537q0 -179 97 -292.5t253 -113.5q163 0 257 108.5t94 288.5q0 179 -98 292.5t-253 113.5q-161 0 -255.5 -108.5 t-94.5 -288.5zM305 1366q0 51 32.5 84t84.5 33q51 0 85 -33t34 -84q0 -50 -33 -83.5t-86 -33.5q-50 0 -83.5 33.5t-33.5 83.5zM688 1366q0 51 32.5 84t84.5 33q51 0 84 -33t33 -84q0 -50 -32.5 -83.5t-84.5 -33.5q-49 0 -83 33.5t-34 83.5z" />
<glyph unicode="&#xf7;" d="M227 623v159h774v-159h-774zM481 281q0 59 35.5 95t95.5 36q56 0 93.5 -36.5t37.5 -94.5t-36 -94.5t-95 -36.5q-56 0 -93.5 37t-37.5 94zM481 1124q0 58 36 94.5t95 36.5q56 0 93.5 -37t37.5 -94q0 -58 -36 -94.5t-95 -36.5q-56 0 -93.5 37t-37.5 94z" />
<glyph unicode="&#xf8;" horiz-adv-x="1224" d="M84 532q0 126 40.5 231t111.5 176.5t167.5 111t208.5 39.5q96 0 181 -31l110 246l137 -70l-129 -236q107 -72 168.5 -192t61.5 -270q0 -251 -149.5 -406.5t-379.5 -155.5q-89 0 -174 29l-106 -235l-137 69l122 225q-108 74 -170.5 196t-62.5 273zM262 537 q0 -222 133 -332l336 710q-59 19 -119 19q-163 0 -256.5 -108.5t-93.5 -288.5zM500 147q56 -16 112 -16q162 0 256.5 110t94.5 291q0 216 -129 326z" />
<glyph unicode="&#xf9;" horiz-adv-x="1212" d="M156 365v700h174v-688q0 -122 55.5 -184t161.5 -62q163 0 297 131v803h174v-793q0 -147 123 -147l-37 -135q-189 0 -232 162q-150 -177 -356 -177q-69 0 -131.5 23t-114.5 68t-83 122t-31 177zM360 1419l82 162l394 -254l-70 -115z" />
<glyph unicode="&#xfa;" horiz-adv-x="1212" d="M156 365v700h174v-688q0 -122 55.5 -184t161.5 -62q163 0 297 131v803h174v-793q0 -147 123 -147l-37 -135q-189 0 -232 162q-150 -177 -356 -177q-69 0 -131.5 23t-114.5 68t-83 122t-31 177zM352 1327l393 254l82 -162l-407 -207z" />
<glyph unicode="&#xfb;" horiz-adv-x="1212" d="M156 365v700h174v-688q0 -122 55.5 -184t161.5 -62q163 0 297 131v803h174v-793q0 -147 123 -147l-37 -135q-189 0 -232 162q-150 -177 -356 -177q-69 0 -131.5 23t-114.5 68t-83 122t-31 177zM233 1319l293 207h136l292 -207l-92 -117l-268 201l-266 -201z" />
<glyph unicode="&#xfc;" horiz-adv-x="1212" d="M156 365v700h174v-688q0 -122 55.5 -184t161.5 -62q163 0 297 131v803h174v-793q0 -147 123 -147l-37 -135q-189 0 -232 162q-150 -177 -356 -177q-69 0 -131.5 23t-114.5 68t-83 122t-31 177zM287 1366q0 51 32 84t84 33q51 0 85 -33t34 -84q0 -50 -33 -83.5t-86 -33.5 q-49 0 -82.5 33.5t-33.5 83.5zM670 1366q0 51 32 84t84 33q51 0 84 -33t33 -84q0 -50 -32.5 -83.5t-84.5 -33.5q-49 0 -82.5 33.5t-33.5 83.5z" />
<glyph unicode="&#xfd;" horiz-adv-x="1069" d="M12 1020l162 61l395 -884l322 884l156 -61l-404 -1083q-44 -120 -91 -200.5t-100.5 -127t-110.5 -65.5t-130 -19q-112 0 -184 45l43 131q61 -25 135 -25q94 0 155 59t121 216l49 129h-84zM303 1327l393 254l82 -162l-407 -207z" />
<glyph unicode="&#xfe;" horiz-adv-x="1214" d="M166 -451v1885h174v-492q51 64 129 106t180 42q93 0 178 -37.5t151 -105.5t105 -173t39 -231q0 -124 -38.5 -231.5t-103 -180.5t-150.5 -114.5t-181 -41.5q-176 0 -309 140v-566h-174zM340 264q120 -133 285 -133q143 0 231 112.5t88 293.5q0 185 -91 293t-230 108 q-86 0 -163 -42.5t-120 -102.5v-529z" />
<glyph unicode="&#xff;" horiz-adv-x="1069" d="M12 1020l162 61l395 -884l322 884l156 -61l-404 -1083q-44 -120 -91 -200.5t-100.5 -127t-110.5 -65.5t-130 -19q-112 0 -184 45l43 131q61 -25 135 -25q94 0 155 59t121 216l49 129h-84zM238 1366q0 51 32 84t84 33q51 0 85 -33t34 -84q0 -50 -33 -83.5t-86 -33.5 q-49 0 -82.5 33.5t-33.5 83.5zM621 1366q0 51 32 84t84 33q51 0 84 -33t33 -84q0 -50 -32.5 -83.5t-84.5 -33.5q-49 0 -82.5 33.5t-33.5 83.5z" />
<glyph unicode="&#x152;" horiz-adv-x="1841" d="M104 719q0 211 79.5 377.5t234.5 264t362 97.5q112 0 213 -24h754v-158h-610v-451h522v-153h-522v-512h610v-160h-756q-110 -25 -211 -25q-125 0 -233 38t-188.5 106t-138.5 160.5t-87 204.5t-29 235zM295 719q0 -116 33 -221t93.5 -186t153 -129t203.5 -48q74 0 174 17 v1126q-104 22 -174 22q-149 0 -259.5 -76t-167 -206.5t-56.5 -298.5z" />
<glyph unicode="&#x153;" horiz-adv-x="1937" d="M84 532q0 167 69 295t186 195.5t263 67.5q139 0 249.5 -70t174.5 -193q127 263 383 263q105 0 190.5 -39.5t140.5 -107.5t84 -157.5t29 -191.5q0 -66 -6 -133h-731q18 -155 104 -242.5t232 -87.5q130 0 279 64l51 -140q-167 -80 -330 -80q-148 0 -257.5 65.5 t-170.5 192.5q-66 -126 -173.5 -192t-248.5 -66q-223 0 -370.5 156.5t-147.5 400.5zM262 537q0 -175 96.5 -290.5t243.5 -115.5q156 0 248 107t92 290q0 178 -96 293t-244 115q-155 0 -247.5 -109t-92.5 -290zM1114 602h572q0 158 -74.5 247t-200.5 89q-124 0 -203 -88 t-94 -248z" />
<glyph unicode="&#x178;" horiz-adv-x="1249" d="M23 1364l157 88l449 -743l448 735l150 -80l-510 -819v-545h-185v545zM319 1714q0 51 32.5 84t84.5 33q51 0 85 -33t34 -84q0 -50 -33 -83.5t-86 -33.5q-50 0 -83.5 33.5t-33.5 83.5zM702 1714q0 51 32.5 84t84.5 33q51 0 84 -33t33 -84q0 -50 -32.5 -83.5t-84.5 -33.5 q-49 0 -83 33.5t-34 83.5z" />
<glyph unicode="&#x2c6;" horiz-adv-x="843" d="M61 1319l293 207h135l293 -207l-92 -117l-268 201l-266 -201z" />
<glyph unicode="&#x2dc;" horiz-adv-x="804" d="M61 1350q52 63 102.5 96t115.5 33q45 0 90 -22.5t85 -45t74 -22.5q26 0 51 13t39 25.5t35 34.5l90 -94q-52 -63 -99.5 -96t-104.5 -33q-53 0 -99.5 22t-84 44t-68.5 22q-69 0 -135 -74z" />
<glyph unicode="&#x2000;" horiz-adv-x="959" />
<glyph unicode="&#x2001;" horiz-adv-x="1919" />
<glyph unicode="&#x2002;" horiz-adv-x="959" />
<glyph unicode="&#x2003;" horiz-adv-x="1919" />
<glyph unicode="&#x2004;" horiz-adv-x="639" />
<glyph unicode="&#x2005;" horiz-adv-x="479" />
<glyph unicode="&#x2006;" horiz-adv-x="319" />
<glyph unicode="&#x2007;" horiz-adv-x="319" />
<glyph unicode="&#x2008;" horiz-adv-x="239" />
<glyph unicode="&#x2009;" horiz-adv-x="383" />
<glyph unicode="&#x200a;" horiz-adv-x="106" />
<glyph unicode="&#x2010;" horiz-adv-x="1024" d="M166 623v159h692v-159h-692z" />
<glyph unicode="&#x2011;" horiz-adv-x="1024" d="M166 623v159h692v-159h-692z" />
<glyph unicode="&#x2012;" horiz-adv-x="1024" d="M166 623v159h692v-159h-692z" />
<glyph unicode="&#x2013;" horiz-adv-x="1267" d="M166 623v159h936v-159h-936z" />
<glyph unicode="&#x2014;" horiz-adv-x="1531" d="M166 623v159h1200v-159h-1200z" />
<glyph unicode="&#x2018;" horiz-adv-x="454" d="M88 1260q0 94 50.5 178.5t148.5 144.5l47 -70q-103 -87 -117 -182q73 7 111.5 -24t38.5 -93q0 -53 -35.5 -85.5t-95.5 -32.5q-67 0 -107.5 43.5t-40.5 120.5z" />
<glyph unicode="&#x2019;" horiz-adv-x="454" d="M88 1417q0 54 36.5 87.5t94.5 33.5q67 0 107.5 -44t40.5 -122q0 -95 -50 -178.5t-147 -142.5l-49 67q103 86 117 182q-73 -6 -111.5 25t-38.5 92z" />
<glyph unicode="&#x201a;" horiz-adv-x="454" d="M88 119q0 53 36.5 86t94.5 33q67 0 107.5 -43t40.5 -121q0 -95 -50 -179.5t-147 -142.5l-49 68q103 87 117 182q-72 -7 -111 24.5t-39 92.5z" />
<glyph unicode="&#x201c;" horiz-adv-x="815" d="M88 1260q0 94 50.5 178.5t148.5 144.5l47 -70q-103 -87 -117 -182q73 7 111.5 -24t38.5 -93q0 -53 -35.5 -85.5t-95.5 -32.5q-67 0 -107.5 43.5t-40.5 120.5zM449 1260q0 95 50 179t148 144l47 -70q-103 -89 -116 -182q73 7 112 -24t39 -93q0 -53 -36.5 -85.5 t-94.5 -32.5q-67 0 -108 43.5t-41 120.5z" />
<glyph unicode="&#x201d;" horiz-adv-x="808" d="M88 1417q0 54 36.5 87.5t94.5 33.5q67 0 107.5 -44t40.5 -122q0 -95 -50 -178.5t-147 -142.5l-49 67q103 86 117 182q-73 -6 -111.5 25t-38.5 92zM442 1417q0 54 36.5 87.5t94.5 33.5q67 0 108.5 -44t41.5 -122q0 -94 -50.5 -178t-148.5 -143l-49 67q106 89 117 182 q-73 -6 -111.5 25t-38.5 92z" />
<glyph unicode="&#x201e;" horiz-adv-x="808" d="M88 119q0 54 36.5 87.5t94.5 33.5q67 0 107.5 -44t40.5 -122q0 -95 -50 -179.5t-147 -142.5l-49 68q103 87 117 182q-73 -6 -111.5 25t-38.5 92zM442 119q0 54 36.5 87.5t94.5 33.5q67 0 107.5 -44t40.5 -122q0 -95 -50 -179.5t-147 -142.5l-49 68q103 87 117 182 q-73 -6 -111.5 25t-38.5 92z" />
<glyph unicode="&#x2022;" horiz-adv-x="868" d="M190 727q0 105 67 174.5t177 69.5q108 0 177 -69.5t69 -174.5t-68 -174.5t-178 -69.5q-109 0 -176.5 69.5t-67.5 174.5z" />
<glyph unicode="&#x2026;" horiz-adv-x="1843" d="M176 106q0 59 35.5 95.5t95.5 36.5q56 0 93.5 -37t37.5 -95t-36 -94.5t-95 -36.5q-56 0 -93.5 37t-37.5 94zM791 106q0 59 35.5 95.5t95.5 36.5q56 0 93.5 -37t37.5 -95t-36 -94.5t-95 -36.5q-56 0 -93.5 37t-37.5 94zM1405 106q0 59 35.5 95.5t95.5 36.5q56 0 93.5 -37 t37.5 -95t-36 -94.5t-95 -36.5q-56 0 -93.5 37t-37.5 94z" />
<glyph unicode="&#x202f;" horiz-adv-x="383" />
<glyph unicode="&#x2039;" horiz-adv-x="731" d="M145 664v81l324 402l119 -98l-291 -344l291 -345l-119 -98z" />
<glyph unicode="&#x203a;" horiz-adv-x="731" d="M145 360l289 345l-289 344l117 98l326 -402v-81l-326 -402z" />
<glyph unicode="&#x205f;" horiz-adv-x="479" />
<glyph unicode="&#x20ac;" horiz-adv-x="1294" d="M104 487v142h177v143h-177v141h189q47 243 200.5 383t393.5 140q170 0 330 -82l-50 -140q-147 70 -276 70q-169 0 -278 -96t-144 -275h528v-141h-536v-143h495v-142h-475q36 -178 137 -269t252 -91q62 0 121 13.5t91.5 27.5t88.5 41l60 -133q-175 -101 -363 -101 q-226 0 -372.5 131.5t-200.5 380.5h-191z" />
<glyph unicode="&#x2122;" horiz-adv-x="1843" d="M119 1436v120h686v-120h-270v-719h-144v719h-272zM860 717v839h207l227 -514l219 514h207v-839h-143v657l-219 -479h-133l-226 489v-667h-139z" />
<glyph unicode="&#x25fc;" horiz-adv-x="1075" d="M0 0v1075h1075v-1075h-1075z" />
</font>
</defs>
</svg>
