<?xml version="1.0" standalone="no"?>
<!DOCTYPE svg PUBLIC "-//W3C//DTD SVG 1.1//EN" "http://www.w3.org/Graphics/SVG/1.1/DTD/svg11.dtd" >
<svg xmlns="http://www.w3.org/2000/svg">
<metadata></metadata>
<defs>
<font id="abezehlightitalic" horiz-adv-x="1228" >
<font-face units-per-em="2048" ascent="1638" descent="-410" />
<missing-glyph horiz-adv-x="614" />
<glyph unicode="&#xfb01;" horiz-adv-x="1187" d="M-293 -412l47 90q76 -45 158 -45q70 0 121 46.5t69 142.5l197 1098h-182l18 106h182l37 207q55 307 365 307q171 0 346 -102l-51 -95q-75 42 -142 64.5t-151 22.5q-209 0 -246 -211l-35 -193h658l-142 -106h-534l-197 -1104q-26 -146 -111.5 -218.5t-201.5 -72.5 q-123 0 -205 63zM795 0l161 920l144 106l-182 -1026h-123z" />
<glyph unicode="&#xfb02;" horiz-adv-x="1333" d="M-293 -412l47 90q76 -45 158 -45q70 0 121 46.5t69 142.5l197 1098h-182l18 106h182l37 207q55 307 369 307q190 0 397 -108l4 2l-194 -1104q-8 -44 -8 -88q0 -71 44.5 -113.5t120.5 -42.5q75 0 156 31l14 -105q-85 -37 -186 -37q-116 0 -194.5 69.5t-79.5 186.5 q0 43 10 105l184 1038q-132 56 -264 56q-110 0 -171.5 -52t-80.5 -159l-35 -193h326l-45 -106h-299l-197 -1104q-26 -146 -111.5 -218.5t-201.5 -72.5q-123 0 -205 63z" />
<glyph unicode="&#xfb03;" horiz-adv-x="1859" d="M-293 -412l47 90q76 -45 158 -45q70 0 121 46.5t69 142.5l197 1098h-182l18 106h182l33 182q56 308 371 308q175 0 379 -101q96 125 291 125q171 0 346 -102l-51 -95q-75 42 -142 64.5t-151 22.5q-209 0 -246 -211l-35 -193h657l-141 -106h-534l-197 -1104 q-26 -146 -111.5 -218.5t-201.5 -72.5q-123 0 -205 63l47 90q76 -45 158 -45q70 0 121 46.5t69 142.5l197 1098h-549l-197 -1104q-26 -146 -111.5 -218.5t-201.5 -72.5q-123 0 -205 63zM440 1026h549l37 207q6 37 27 98q-173 78 -328 78q-217 0 -254 -213zM1466 0l162 920 l144 106l-183 -1026h-123z" />
<glyph unicode="&#xfb04;" horiz-adv-x="2004" d="M-293 -412l47 90q76 -45 158 -45q70 0 121 46.5t69 142.5l197 1098h-182l18 106h182l33 182q56 308 371 308q175 0 379 -101q92 125 295 125q190 0 397 -108l4 2l-194 -1104q-9 -50 -9 -88q0 -71 45 -113.5t121 -42.5q75 0 156 31l14 -105q-85 -37 -186 -37 q-116 0 -195 69.5t-80 186.5q0 37 11 105l184 1038q-132 56 -264 56q-110 0 -171.5 -52t-80.5 -159l-35 -193h326l-45 -106h-299l-197 -1104q-26 -146 -111.5 -218.5t-201.5 -72.5q-123 0 -205 63l47 90q76 -45 158 -45q70 0 121 46.5t69 142.5l197 1098h-549l-197 -1104 q-26 -146 -111.5 -218.5t-201.5 -72.5q-123 0 -205 63zM440 1026h549l37 207q6 37 27 98q-173 78 -328 78q-217 0 -254 -213z" />
<glyph horiz-adv-x="2048" />
<glyph horiz-adv-x="2048" />
<glyph unicode="&#xd;" horiz-adv-x="2048" />
<glyph unicode=" "  horiz-adv-x="614" />
<glyph unicode="&#x09;" horiz-adv-x="614" />
<glyph unicode="&#xa0;" horiz-adv-x="614" />
<glyph unicode="!" horiz-adv-x="604" d="M129 66q0 51 32 81.5t77 30.5q42 0 67 -25t25 -61q0 -51 -32 -81.5t-77 -30.5q-42 0 -67 25t-25 61zM219 377l72 508l108 608h136l-107 -608l-106 -508h-103z" />
<glyph unicode="&#x22;" horiz-adv-x="614" d="M184 999l68 435h119l-88 -435h-99zM494 999l67 435h119l-88 -435h-98z" />
<glyph unicode="#" horiz-adv-x="1345" d="M109 293l16 102h192l95 529h-193l17 102h194l53 293h111l-53 -293h444l53 293h111l-53 -293h186l-16 -102h-187l-94 -529h184l-16 -102h-186l-49 -293h-111l49 293h-444l-50 -293h-110l49 293h-192zM430 395h444l95 529h-445z" />
<glyph unicode="$" horiz-adv-x="989" d="M8 197l64 77q81 -62 171 -96.5t218 -34.5q162 0 250 70.5t88 194.5q0 96 -64 157.5t-239 128.5q-119 45 -188.5 88.5t-106.5 104.5t-37 145q0 146 112.5 242.5t311.5 99.5l30 240h121l-55 -244q157 -15 320 -115l-56 -88q-84 52 -166.5 78.5t-187.5 26.5q-143 0 -226 -62 t-83 -172q0 -88 62 -142t224 -116q190 -71 269.5 -154.5t79.5 -213.5q0 -166 -119 -269.5t-346 -103.5h-25l-31 -238h-120l55 246q-195 32 -326 150z" />
<glyph unicode="%" horiz-adv-x="1988" d="M164 874q0 77 15 155t49.5 154t83.5 134.5t122.5 94.5t161.5 36q134 0 208.5 -86.5t74.5 -237.5q0 -77 -15 -155t-49 -154t-82.5 -134t-122 -94t-161.5 -36q-134 0 -209.5 86.5t-75.5 236.5zM279 870q0 -109 48 -168t132 -59q73 0 133 45t96.5 116.5t56 155.5t19.5 168 q0 109 -48.5 168.5t-131.5 59.5q-73 0 -133 -45t-96.5 -117t-56 -156t-19.5 -168zM397 -25l1149 1514l80 -55l-1151 -1514zM1151 309q0 77 15 155t49.5 154t83.5 134.5t122.5 94.5t161.5 36q134 0 208.5 -86.5t74.5 -237.5q0 -77 -15 -155t-49 -154t-82.5 -134t-122 -94 t-161.5 -36q-134 0 -209.5 86.5t-75.5 236.5zM1266 305q0 -109 48 -168t132 -59q73 0 133 45t96.5 116.5t56 155.5t19.5 168q0 109 -48.5 168.5t-131.5 59.5q-73 0 -133 -45t-96.5 -117t-56 -156t-19.5 -168z" />
<glyph unicode="&#x26;" horiz-adv-x="1531" d="M174 352q0 172 111 277t303 139q-130 30 -203.5 105.5t-73.5 193.5q0 172 129 281.5t318 109.5q201 0 360 -121l-57 -92q-71 50 -141 76.5t-162 26.5q-140 0 -229 -77.5t-89 -203.5q0 -115 96 -187.5t273 -72.5h399q101 0 159 18t97 52l35 -97q-38 -45 -98 -64.5 t-174 -19.5q-34 -354 -192 -537.5t-427 -183.5q-193 0 -313.5 103t-120.5 274zM303 356q0 -126 83.5 -197t223.5 -71q216 0 339 155t153 453h-336q-213 0 -338 -90t-125 -250z" />
<glyph unicode="'" horiz-adv-x="305" d="M184 999l68 435h119l-88 -435h-99z" />
<glyph unicode="(" horiz-adv-x="602" d="M164 408q0 577 454 1151l72 -46q-399 -576 -399 -1110q0 -187 24.5 -330t73.5 -288l-84 -33q-67 161 -104 315.5t-37 340.5z" />
<glyph unicode=")" horiz-adv-x="602" d="M-45 -203q401 574 401 1110q0 186 -25.5 329t-74.5 290l86 33q67 -159 103 -314t36 -342q0 -575 -452 -1151z" />
<glyph unicode="*" horiz-adv-x="921" d="M262 1288l51 98l232 -137l33 267l110 -19l-59 -260l264 45l14 -108l-264 -25l127 -234l-100 -49l-105 244l-186 -192l-76 79l197 174z" />
<glyph unicode="+" d="M248 649l18 107h330l63 352h117l-63 -352h327l-18 -107h-328l-63 -350h-117l64 350h-330z" />
<glyph unicode="," horiz-adv-x="614" d="M-18 -233q104 98 159 180t95 205l124 -41q-37 -136 -110.5 -230.5t-206.5 -171.5z" />
<glyph unicode="-" horiz-adv-x="1024" d="M195 647l20 113h674l-21 -113h-673z" />
<glyph unicode="." horiz-adv-x="616" d="M127 66q0 51 32 81.5t77 30.5q42 0 67 -25t25 -61q0 -51 -32 -81.5t-77 -30.5q-42 0 -67 25t-25 61z" />
<glyph unicode="/" horiz-adv-x="921" d="M12 -90l869 1667l96 -49l-868 -1667z" />
<glyph unicode="0" d="M137 492q0 141 22 274.5t70.5 255.5t118 213t171 145t222.5 54q192 0 300 -138.5t108 -377.5q0 -117 -16 -229.5t-48 -218.5t-82.5 -195.5t-116 -156.5t-153.5 -105t-190 -38q-192 0 -299 138.5t-107 378.5zM268 492q0 -193 74 -298.5t209 -105.5q112 0 202.5 68 t147.5 184.5t87 264.5t30 313q0 192 -74 297.5t-209 105.5q-113 0 -203.5 -68t-147 -184t-86.5 -264t-30 -313z" />
<glyph unicode="1" horiz-adv-x="915" d="M43 0l20 113h314l201 1142l-363 -204l-45 94l463 264h96l-229 -1296h256l-21 -113h-692z" />
<glyph unicode="2" horiz-adv-x="997" d="M6 51q0 117 47.5 217.5t123 173.5t167 138t183 123t167 116t123 129.5t47.5 151.5q0 102 -67.5 162.5t-188.5 60.5q-102 0 -183.5 -33t-160.5 -96l-59 90q185 150 407 150q176 0 280.5 -94t104.5 -236q0 -96 -44.5 -179t-116 -145t-159 -119t-177 -114t-165 -117.5 t-128 -141.5t-62.5 -175h693l-19 -113h-809q-4 14 -4 51z" />
<glyph unicode="3" horiz-adv-x="1007" d="M-23 109l68 90q71 -55 151.5 -83.5t188.5 -27.5q158 2 258 89t100 245q0 128 -82 197t-243 69h-142l17 100h129q179 0 289 72.5t110 214.5q0 115 -71.5 181.5t-194.5 66.5q-167 0 -315 -102l-50 94q172 119 375 119q178 0 281.5 -99t103.5 -254q0 -80 -27.5 -144 t-75.5 -104t-107 -62.5t-126 -27.5q117 -19 188.5 -102t71.5 -215q0 -210 -136.5 -330.5t-356.5 -120.5q-248 0 -404 134z" />
<glyph unicode="4" horiz-adv-x="1091" d="M66 326l18 96l608 999l103 -47l-568 -938h498l94 445h109l-78 -445h178l-20 -110h-179l-57 -326h-123l56 326h-639z" />
<glyph unicode="5" horiz-adv-x="1034" d="M4 104l70 93q76 -56 154.5 -82.5t183.5 -26.5q170 0 280 99.5t109 267.5q0 134 -84.5 205t-239.5 71h-270l119 678h708l-18 -113h-592l-82 -456h162q202 0 314 -102t114 -277q3 -214 -146 -350t-376 -136q-128 0 -223 32.5t-183 96.5z" />
<glyph unicode="6" horiz-adv-x="1116" d="M111 475q0 190 58.5 360.5t163.5 299.5t262.5 204.5t344.5 75.5q74 0 129 -12l-16 -113q-50 13 -107 13q-276 0 -460 -175t-232 -460q146 211 403 211q177 0 283.5 -109.5t106.5 -288.5q0 -219 -138 -362.5t-360 -143.5q-196 0 -317 131.5t-121 368.5zM238 465 q0 -180 84 -278.5t233 -98.5q159 0 259.5 107t100.5 280q0 136 -74 214.5t-204 78.5q-230 0 -395 -233q-4 -58 -4 -70z" />
<glyph unicode="7" horiz-adv-x="985" d="M158 1296l18 113h907l-14 -98q-150 -123 -256 -230t-187.5 -219.5t-138.5 -242.5t-97.5 -276t-76.5 -343h-139q36 198 78.5 349t100 284.5t136.5 244.5t181.5 212.5t240.5 205.5h-753z" />
<glyph unicode="8" horiz-adv-x="1155" d="M63 346q0 326 439 424q-127 56 -181.5 125t-54.5 180q0 156 127.5 257.5t306.5 101.5q171 0 281.5 -98t110.5 -240q0 -140 -92.5 -226t-260.5 -114q157 -58 232.5 -147.5t75.5 -215.5q0 -129 -72.5 -226t-191 -145t-263.5 -47q-198 1 -327.5 107t-129.5 264zM190 356 q0 -118 93 -194t245 -76q106 0 194 35t143 105.5t55 164.5q0 108 -73 185.5t-233 130.5q-209 -35 -316.5 -120.5t-107.5 -230.5zM387 1075q0 -92 55 -150.5t189 -113.5q176 34 259 101.5t83 179.5q0 103 -76 171t-201 68q-131 0 -220 -70t-89 -186z" />
<glyph unicode="9" horiz-adv-x="1142" d="M92 131l80 82q64 -64 127 -94.5t145 -30.5q189 0 316.5 167.5t157.5 465.5q-77 -77 -166.5 -120.5t-212.5 -43.5q-74 0 -141 25t-119.5 71t-83.5 118.5t-31 160.5q0 214 139.5 358t349.5 144q197 0 302.5 -125t105.5 -369q0 -294 -75 -512t-215 -335.5t-329 -117.5 q-208 0 -350 156zM293 934q0 -130 73.5 -200t192.5 -70q112 0 207 50t164 140q4 55 1 111t-9 108t-26.5 97.5t-50.5 79.5t-81.5 53.5t-118.5 19.5q-154 0 -253 -111t-99 -278z" />
<glyph unicode=":" horiz-adv-x="616" d="M129 66q0 51 32 81.5t77 30.5q42 0 67 -25t25 -61q0 -51 -32 -81.5t-77 -30.5q-42 0 -67 25t-25 61zM274 905q0 51 32 82t77 31q42 0 67 -25t25 -61q0 -51 -31.5 -82t-76.5 -31q-42 0 -67.5 25t-25.5 61z" />
<glyph unicode=";" horiz-adv-x="643" d="M-18 -233q104 98 159 180t95 205l124 -41q-37 -136 -110.5 -230.5t-206.5 -171.5zM274 905q0 51 32 82t77 31q42 0 67 -25t25 -61q0 -51 -31.5 -82t-76.5 -31q-42 0 -67.5 25t-25.5 61z" />
<glyph unicode="&#x3c;" d="M283 664l14 79l717 402l47 -105l-627 -346l500 -344l-76 -90z" />
<glyph unicode="=" d="M223 467l19 108h762l-21 -108h-760zM287 831l18 109h762l-20 -109h-760z" />
<glyph unicode="&#x3e;" d="M229 365l627 346l-500 344l76 90l576 -404l-15 -79l-717 -402z" />
<glyph unicode="?" horiz-adv-x="1005" d="M215 1348q83 90 183.5 141t236.5 51q162 0 259 -88.5t97 -222.5q0 -74 -27.5 -135t-72 -104t-99 -82t-111 -78t-105.5 -82t-85 -104.5t-47 -135.5l-16 -123h-102q0 82 4 129q6 83 38.5 153t79 117.5t102 89t110 78.5t99 74.5t72 87.5t27.5 109q0 93 -61.5 148.5 t-169.5 55.5q-103 0 -181 -41t-151 -114zM260 66q0 51 32 81.5t77 30.5q42 0 67 -25t25 -61q0 -51 -32 -81.5t-77 -30.5q-42 0 -67 25t-25 61z" />
<glyph unicode="@" horiz-adv-x="2150" d="M125 326q0 237 83 444.5t228.5 355.5t352 233t444.5 85q186 0 335.5 -54t248 -150.5t151.5 -230t53 -292.5q0 -172 -44 -314.5t-117.5 -234.5t-169.5 -142.5t-201 -50.5q-95 0 -149 47.5t-52 127.5q0 37 15 88q-50 -101 -141 -169.5t-226 -68.5q-143 0 -240.5 101.5 t-97.5 283.5q0 262 172 431t436 169q168 0 310 -63l-123 -695q-7 -40 -7 -61q0 -48 28.5 -74t82.5 -26q77 0 148 44t126.5 124.5t89 205.5t33.5 275q0 284 -174.5 451t-490.5 167q-213 0 -396 -78t-310 -212t-199 -318.5t-72 -392.5q0 -329 181.5 -505.5t488.5 -176.5 q158 0 273.5 30t250.5 89l22 -107q-123 -58 -252 -90.5t-296 -32.5q-234 0 -412 90t-280.5 269.5t-102.5 427.5zM721 397q0 -144 61.5 -219.5t163.5 -75.5q141 0 246.5 110t140.5 304l60 338q-84 31 -195 31q-212 0 -344.5 -136t-132.5 -352z" />
<glyph unicode="A" horiz-adv-x="1359" d="M-35 51l803 1383h143l324 -1420l-123 -28l-94 430h-705l-245 -428zM377 526h616l-172 779z" />
<glyph unicode="B" horiz-adv-x="1253" d="M111 41l241 1376q195 37 379 37q225 0 350 -103t125 -257q0 -149 -101 -237t-259 -101q140 -21 225.5 -107.5t85.5 -224.5q0 -110 -48 -196t-133 -139.5t-195 -81t-240 -27.5q-241 0 -430 61zM256 129q128 -35 297 -35q221 0 345 83t124 245q0 135 -99.5 209t-291.5 74 h-275zM373 807h262q212 0 325 70.5t113 209.5q0 123 -89 193t-259 70q-116 0 -258 -23z" />
<glyph unicode="C" horiz-adv-x="1185" d="M127 586q0 184 57.5 345.5t157.5 277t242.5 182.5t306.5 67q119 0 201.5 -26.5t158.5 -75.5l-57 -101q-71 43 -141 65.5t-174 22.5q-126 0 -239 -56t-196.5 -153.5t-132.5 -239t-49 -304.5q0 -241 117 -370.5t317 -129.5q184 0 346 86l23 -108q-166 -93 -379 -93 q-251 0 -405 161.5t-154 449.5z" />
<glyph unicode="D" horiz-adv-x="1392" d="M111 43l241 1370q182 45 365 45q118 0 217.5 -32.5t171 -90.5t121.5 -137.5t74 -174t24 -200.5q0 -244 -96 -434.5t-284 -302t-441 -111.5q-221 0 -393 68zM256 125q133 -37 260 -37q310 0 493 201t183 528q0 243 -124.5 386t-356.5 143q-114 0 -246 -27z" />
<glyph unicode="E" horiz-adv-x="1107" d="M102 0l254 1434h838l-20 -113h-709l-90 -514h612l-20 -111h-611l-102 -583h707l-21 -113h-838z" />
<glyph unicode="F" horiz-adv-x="1062" d="M102 0l252 1434h830l-21 -113h-700l-90 -533h590l-19 -110h-592l-121 -678h-129z" />
<glyph unicode="G" horiz-adv-x="1386" d="M125 569q0 187 56.5 351t155.5 282.5t241.5 187t306.5 68.5q123 0 215.5 -32.5t177.5 -94.5l-61 -96q-76 53 -156 80.5t-184 27.5q-131 0 -245.5 -58t-196 -159.5t-128.5 -246t-47 -310.5q0 -229 100.5 -354t278.5 -125q173 0 296.5 112.5t158.5 307.5l24 135h-340 l21 111h469l-86 -494q-6 -37 -6 -72q0 -100 110 -100h6l-45 -102h-8q-77 0 -124 36q-50 37 -50 117q0 47 16 101q-146 -267 -460 -267q-218 0 -357 158.5t-139 435.5z" />
<glyph unicode="H" horiz-adv-x="1433" d="M102 0l252 1434h129l-110 -639h780l111 639h131l-252 -1434h-131l121 682h-781l-121 -682h-129z" />
<glyph unicode="I" horiz-adv-x="522" d="M102 0l252 1434h129l-252 -1434h-129z" />
<glyph unicode="J" horiz-adv-x="866" d="M-59 100l69 84q60 -49 115 -72.5t129 -23.5q222 0 274 287l191 1059h129l-189 -1072q-68 -387 -405 -387q-178 0 -313 125z" />
<glyph unicode="K" horiz-adv-x="1173" d="M102 0l252 1434h129l-116 -668l774 661l82 -90l-742 -618l441 -502q61 -70 106 -93.5t113 -23.5l-49 -112h-9q-73 0 -127 30q-58 32 -131 119l-473 541l-121 -678h-129z" />
<glyph unicode="L" horiz-adv-x="1038" d="M102 0l252 1434h129l-229 -1315h702l-20 -119h-834z" />
<glyph unicode="M" horiz-adv-x="1693" d="M102 0l252 1434h174l293 -1008l631 1008h203l-252 -1434h-131l225 1282l-631 -989h-129l-286 991l-226 -1284h-123z" />
<glyph unicode="N" horiz-adv-x="1435" d="M102 0l254 1434h166l525 -1287l227 1287h123l-254 -1434h-168l-522 1282l-228 -1282h-123z" />
<glyph unicode="O" horiz-adv-x="1558" d="M131 621q0 160 52 309.5t147 267.5t241.5 189t321.5 71q184 0 321 -84t207 -229.5t70 -331.5q0 -128 -32 -250t-97 -228.5t-155 -186.5t-213.5 -126.5t-264.5 -46.5q-184 0 -321 84.5t-207 230t-70 331.5zM266 621q0 -242 124 -387.5t353 -145.5q113 0 212 39.5t172 108 t125.5 160t79 198t26.5 219.5q0 242 -124 387.5t-353 145.5q-113 0 -212 -39.5t-172 -108t-125.5 -160t-79 -198t-26.5 -219.5z" />
<glyph unicode="P" horiz-adv-x="1200" d="M102 0l248 1413q164 37 361 37q123 0 221 -33t160 -90t94.5 -132t32.5 -161q0 -122 -47 -217.5t-130.5 -155.5t-193 -91t-238.5 -31q-146 0 -276 28l-103 -567h-129zM354 678q106 -29 260 -29q99 0 183 21.5t150.5 65.5t104.5 119.5t38 174.5q0 141 -98.5 225t-282.5 84 q-124 0 -244 -20z" />
<glyph unicode="Q" horiz-adv-x="1566" d="M131 621q0 160 52 309.5t147 267.5t241.5 189t321.5 71q184 0 321 -84.5t207 -229.5t70 -329q0 -178 -63 -341t-179 -281q65 -59 119 -83q50 -22 106 -22h9l-45 -108q-68 0 -126 29.5t-143 113.5q-191 -148 -440 -148q-184 0 -321 85.5t-207 230.5t-70 330zM266 618 q0 -237 123.5 -383.5t347.5 -146.5q201 0 350 111l-169 163l79 80l166 -176q95 99 145 241t50 306q0 240 -124 385t-353 145q-113 0 -212 -39t-172 -107.5t-125.5 -160t-79 -198.5t-26.5 -220z" />
<glyph unicode="R" horiz-adv-x="1265" d="M104 2l248 1417q198 37 379 37q227 0 350 -106t123 -271q0 -98 -35 -174t-95 -122.5t-129.5 -72t-149.5 -32.5q57 -16 98.5 -57.5t64.5 -93.5t40.5 -112t32.5 -116t35 -102t54.5 -73.5t83.5 -27.5l-47 -110q-54 0 -95.5 22t-67.5 60t-46 87t-36 103.5l-32 109t-39 103.5 t-53 87t-77 60.5t-109 22.5h-254l-115 -639h-129zM369 752h268q198 0 317 79.5t119 241.5q0 132 -87 204.5t-257 72.5q-98 0 -262 -21z" />
<glyph unicode="S" horiz-adv-x="1087" d="M0 150l70 88q91 -69 191.5 -108.5t242.5 -39.5q181 0 278 78.5t97 216.5q0 107 -71.5 175.5t-264.5 141.5q-198 75 -283.5 158t-85.5 219q0 165 128 272t355 107q133 0 238.5 -33t210.5 -98l-62 -98q-93 58 -184.5 87.5t-208.5 29.5q-159 0 -251.5 -69.5t-92.5 -191.5 q0 -98 69.5 -158t250.5 -128q210 -78 298.5 -172t88.5 -238q0 -184 -133 -299t-385 -115q-294 0 -496 175z" />
<glyph unicode="T" horiz-adv-x="1116" d="M139 1319l21 115h1081l-20 -115h-476l-233 -1319h-131l233 1319h-475z" />
<glyph unicode="U" horiz-adv-x="1396" d="M156 362q0 72 22 197l152 875h131l-158 -897q-16 -98 -16 -166q0 -135 71.5 -208t200.5 -73q184 0 326.5 151.5t187.5 409.5l137 783h129l-206 -1172q-7 -35 -7 -72q0 -100 110 -100h7l-45 -102h-8q-76 0 -124 36q-50 38 -50 121q0 71 26 164q-174 -334 -505 -334 q-167 0 -274 104.5t-107 282.5z" />
<glyph unicode="V" horiz-adv-x="1302" d="M164 1421l135 29l264 -1309l717 1305l113 -57l-777 -1389h-147z" />
<glyph unicode="W" horiz-adv-x="1896" d="M197 1425l133 17l131 -1303l540 1166h164l127 -1166l588 1299l115 -45l-643 -1393h-162l-129 1178l-543 -1178h-162z" />
<glyph unicode="X" horiz-adv-x="1224" d="M-55 72l614 661l-373 649l111 64l346 -629l561 625l92 -84l-583 -629l393 -680l-111 -63l-368 653l-592 -651z" />
<glyph unicode="Y" horiz-adv-x="1128" d="M-18 76l65 82q45 -37 87.5 -54.5t103.5 -17.5q76 0 135 49t125 166l94 162l-322 745q-29 65 -60 91t-77 26l37 109q86 0 131 -41.5t94 -157.5l275 -651l479 862l104 -55l-637 -1119q-94 -164 -180 -230.5t-205 -66.5q-136 0 -249 101z" />
<glyph unicode="Z" horiz-adv-x="1095" d="M-41 0l18 100l1022 1221h-768l21 113h930l-17 -97l-1026 -1220h834l-21 -117h-993z" />
<glyph unicode="[" horiz-adv-x="614" d="M68 -205l305 1721h319l-18 -103h-209l-268 -1515h209l-19 -103h-319z" />
<glyph unicode="\" horiz-adv-x="921" d="M299 1556l102 21l287 -1700l-102 -16z" />
<glyph unicode="]" horiz-adv-x="614" d="M-35 -205l19 103h211l268 1515h-211l18 103h320l-303 -1721h-322z" />
<glyph unicode="^" d="M328 1171l432 345h57l307 -351l-88 -80l-260 314l-383 -314z" />
<glyph unicode="_" d="M-131 -217l14 84h1229l-14 -84h-1229z" />
<glyph unicode="`" horiz-adv-x="581" d="M219 1430l62 114l376 -233l-53 -84z" />
<glyph unicode="a" horiz-adv-x="1187" d="M76 416q0 195 85 348.5t236 239t342 86.5q173 0 342 -72l-133 -754q-6 -41 -6 -69q0 -107 121 -107l-41 -96q-94 0 -142 46q-44 42 -44 121v13q0 23 10 68q-124 -265 -393 -265q-159 0 -268 118.5t-109 322.5zM203 416q-1 -160 75 -246q74 -84 191 -84h6q148 0 255 121 t142 328l74 411q-103 39 -221 39q-153 -1 -272.5 -74t-184.5 -202t-65 -293z" />
<glyph unicode="b" horiz-adv-x="1163" d="M88 39l262 1477h117l-127 -717q59 140 165.5 215.5t252.5 75.5q154 0 247 -105t93 -283q0 -206 -92.5 -372.5t-255.5 -260.5t-363 -94q-174 0 -299 64zM223 113q91 -27 187 -27q158 0 286 77.5t201.5 218t73.5 316.5q0 133 -63 208t-177 75q-68 0 -134.5 -32.5 t-129.5 -98t-113.5 -179t-77.5 -261.5z" />
<glyph unicode="c" horiz-adv-x="964" d="M82 463q0 172 72.5 315t206.5 227.5t303 84.5q170 0 305 -99l-51 -96q-123 84 -261 84q-195 0 -321.5 -146.5t-126.5 -367.5q0 -179 87 -279t243 -100q126 0 266 70l24 -103q-138 -78 -303 -78q-199 0 -321.5 133t-122.5 355z" />
<glyph unicode="d" horiz-adv-x="1218" d="M88 422q0 140 44.5 265.5t119 213t173 138.5t204.5 51q113 0 196 -53.5t133 -145.5l109 625h123l-219 -1252q-6 -41 -6 -69q0 -107 120 -107l-43 -96q-94 0 -142 46q-44 42 -44 121v13q0 23 10 68q-124 -265 -393 -265q-163 0 -274 121t-111 326zM215 426 q0 -165 75.5 -252.5t203.5 -87.5q150 0 257 119.5t144 326.5l41 236q-46 102 -123.5 157.5t-179.5 55.5q-175 0 -296.5 -156.5t-121.5 -398.5z" />
<glyph unicode="e" horiz-adv-x="1048" d="M84 461q0 170 69 312.5t200 229.5t298 87q166 0 263.5 -91t97.5 -223q0 -79 -28 -141.5t-75 -103t-113.5 -67t-138.5 -37.5t-155 -11q-179 0 -289 28v-20q0 -159 91 -248.5t259 -89.5q155 0 311 80l13 -109q-157 -82 -338 -82q-216 0 -340.5 129.5t-124.5 356.5zM213 545 q137 -29 274 -29q398 0 398 256q0 92 -64 150.5t-178 58.5q-170 0 -290 -122.5t-140 -313.5z" />
<glyph unicode="f" horiz-adv-x="733" d="M-313 -410l49 88q76 -45 166 -45q75 0 129 48t73 155l193 1084h-182l20 106h182l37 207q55 307 348 307q86 0 155.5 -24t143.5 -70l-49 -92q-65 37 -120.5 56.5t-124.5 19.5q-194 0 -234 -211l-33 -193h338l-18 -106h-340l-193 -1096q-29 -154 -115 -226.5t-208 -72.5 q-127 0 -217 65z" />
<glyph unicode="g" horiz-adv-x="1179" d="M78 -338l65 84q138 -113 297 -113q280 0 344 347l43 235q-118 -215 -364 -215q-164 0 -274.5 116.5t-110.5 319.5q0 196 85.5 345t236 228.5t343.5 80.5q171 0 344 -72l-184 -1043q-21 -122 -66 -211.5t-108 -140.5t-134.5 -74.5t-156.5 -23.5q-202 0 -360 137zM205 436 q0 -160 75 -244q74 -81 195 -81h6q150 0 256 110t142 314l71 411q-103 39 -221 39q-236 -2 -380 -151t-144 -398z" />
<glyph unicode="h" horiz-adv-x="1208" d="M84 0l266 1516h123l-123 -701q62 126 169.5 200.5t254.5 74.5q136 0 219.5 -84.5t83.5 -219.5q0 -70 -14 -141l-115 -645h-123l119 657q10 61 10 119q0 94 -55.5 149.5t-150.5 55.5q-147 0 -276 -127t-175 -342l-90 -512h-123z" />
<glyph unicode="i" horiz-adv-x="477" d="M84 0l188 1065h123l-188 -1065h-123zM291 1362q0 47 30.5 77.5t75.5 30.5q39 0 63.5 -24t24.5 -60q0 -47 -29.5 -77.5t-74.5 -30.5q-41 0 -65.5 23.5t-24.5 60.5z" />
<glyph unicode="j" horiz-adv-x="497" d="M-344 -410l49 88q73 -45 166 -45q76 0 130 48t73 155l217 1229h123l-217 -1241q-29 -153 -115.5 -226t-208.5 -73q-130 0 -217 65zM313 1362q0 47 31 77.5t76 30.5q39 0 63.5 -24t24.5 -60q0 -47 -30 -77.5t-75 -30.5q-41 0 -65.5 23.5t-24.5 60.5z" />
<glyph unicode="k" horiz-adv-x="1091" d="M82 0l266 1516h123l-117 -660q49 104 141.5 169t231.5 65q142 0 226.5 -81.5t84.5 -205.5q0 -152 -105 -227.5t-276 -75.5q-40 0 -90 8l213 -311q42 -61 80.5 -85t91.5 -24l-41 -98q-73 0 -122.5 30t-104.5 117l-264 422l12 47q89 -28 199 -28q133 0 210 55t77 168 q0 85 -54.5 136.5t-150.5 51.5q-154 0 -265 -117.5t-147 -324.5l-96 -547h-123z" />
<glyph unicode="l" horiz-adv-x="643" d="M106 231q0 37 11 105l209 1180h123l-209 -1186q-9 -50 -9 -88q0 -71 45 -113.5t121 -42.5q72 0 156 31l14 -105q-88 -37 -186 -37q-118 0 -196.5 69.5t-78.5 186.5z" />
<glyph unicode="m" horiz-adv-x="1832" d="M84 0l188 1065h117l-49 -272q36 82 87 145.5t133.5 107.5t180.5 44q120 0 197 -79.5t82 -201.5q64 127 164.5 204t238.5 77q124 0 202.5 -83.5t78.5 -209.5q0 -65 -12 -142l-119 -655h-123l119 668q12 76 12 118q0 88 -49 141.5t-137 53.5q-126 0 -239 -115.5 t-165 -306.5l-100 -559h-123l119 668q10 64 10 118q0 88 -49 141.5t-137 53.5q-136 0 -258 -139.5t-162 -360.5l-84 -481h-123z" />
<glyph unicode="n" horiz-adv-x="1208" d="M84 0l188 1065h117l-49 -272q56 134 167 215.5t267 81.5q135 0 219 -84.5t84 -219.5q0 -68 -12 -141l-115 -645h-123l117 657q10 61 10 119q0 94 -55 149.5t-151 55.5q-153 0 -285 -136t-172 -364l-84 -481h-123z" />
<glyph unicode="o" horiz-adv-x="1226" d="M84 463q0 174 71 316.5t204 226.5t303 84q216 0 349.5 -137.5t133.5 -350.5q0 -174 -71 -316.5t-204 -226.5t-303 -84q-216 0 -349.5 137.5t-133.5 350.5zM209 469q0 -170 97 -276.5t263 -106.5q134 0 237 67.5t157.5 183.5t54.5 259q0 170 -98 276.5t-263 106.5 q-135 0 -238 -68t-156.5 -183t-53.5 -259z" />
<glyph unicode="p" horiz-adv-x="1216" d="M29 -451l217 1244q6 41 6 69q0 107 -121 107l43 96q188 0 188 -180q0 -10 -1.5 -22t-4.5 -29t-4 -29q57 128 158.5 206.5t253.5 78.5q165 0 264.5 -122.5t99.5 -318.5q0 -147 -43.5 -274.5t-116 -214t-169 -136t-201.5 -49.5q-113 0 -199 55t-137 144l-110 -625h-123z M281 291q116 -205 307 -205q177 0 295 155.5t118 407.5q0 156 -68 244t-194 88q-144 0 -259.5 -120t-151.5 -314z" />
<glyph unicode="q" horiz-adv-x="1165" d="M76 416q0 146 49 271t136 213.5t211 139t269 50.5q169 0 334 -72l-260 -1469h-123l121 650q-122 -224 -358 -224q-160 0 -269.5 119.5t-109.5 321.5zM203 416q0 -160 73.5 -245t192.5 -85q149 0 255 124.5t146 348.5l68 387q-97 39 -211 39q-235 0 -379.5 -160 t-144.5 -409z" />
<glyph unicode="r" horiz-adv-x="780" d="M109 0l139 793q6 41 6 69q0 107 -121 107l41 96q95 0 143 -44.5t48 -139.5q0 -21 -13 -88q42 144 140.5 220.5t236.5 76.5q72 0 143 -27l-53 -119q-59 21 -125 21q-134 0 -236.5 -122.5t-144.5 -367.5l-82 -475h-122z" />
<glyph unicode="s" horiz-adv-x="903" d="M-6 102l63 93q69 -52 149 -81q77 -28 184 -28h7q128 0 200.5 47.5t72.5 138.5q0 77 -50 128t-200 108q-167 64 -231 129t-64 168q0 124 101.5 204.5t279.5 80.5q203 0 362 -101l-53 -92q-136 88 -311 88q-118 0 -187 -47t-69 -123q0 -71 52 -114.5t198 -98.5 q169 -65 233 -139t64 -184q0 -146 -109.5 -225t-292.5 -79q-238 0 -399 127z" />
<glyph unicode="t" horiz-adv-x="739" d="M84 920l18 106h191l82 336h96l-57 -336h313l-18 -106h-316l-100 -576q-8 -55 -8 -104q0 -74 44 -114t120 -40q92 0 188 47l18 -102q-110 -56 -223 -56q-112 0 -192 69t-80 189q0 49 12 119l98 568h-186z" />
<glyph unicode="u" horiz-adv-x="1161" d="M104 279q0 65 15 141l112 645h123l-116 -657q-11 -70 -11 -125q0 -90 54 -143.5t147 -53.5q151 0 268 116t154 328l94 535h123l-139 -801q-6 -41 -6 -69q0 -107 120 -107l-41 -96q-94 0 -142 46q-44 42 -44 121v13q0 23 10 68q-139 -265 -411 -265q-138 0 -224 84.5 t-86 219.5z" />
<glyph unicode="v" horiz-adv-x="1048" d="M84 1049l117 30l225 -950l557 950l100 -59l-616 -1020h-125z" />
<glyph unicode="w" horiz-adv-x="1554" d="M111 1055l116 16l146 -934l409 873h133l111 -873l471 934l98 -51l-526 -1020h-131l-109 885l-415 -885h-129z" />
<glyph unicode="x" horiz-adv-x="1015" d="M-41 68l475 479l-297 467l103 63l272 -459l438 457l82 -78l-454 -458l319 -492l-100 -63l-297 481l-459 -477z" />
<glyph unicode="y" horiz-adv-x="1144" d="M68 -340l65 84q133 -111 291 -111q125 0 214 80.5t122 266.5l43 243q-130 -223 -383 -223q-140 0 -225.5 83.5t-85.5 219.5q0 68 12 141l110 621h123l-112 -633q-11 -70 -11 -119q0 -94 55 -148t152 -54q146 0 262.5 114.5t153.5 327.5l90 512h123l-188 -1090 q-17 -99 -50 -176.5t-75.5 -128.5t-97 -84t-112.5 -47t-124 -14q-200 0 -352 135z" />
<glyph unicode="z" horiz-adv-x="958" d="M-12 0l16 100l789 856h-623l18 109h783l-17 -96l-790 -856h651l-20 -113h-807z" />
<glyph unicode="{" horiz-adv-x="749" d="M123 612l16 86q60 14 95.5 32t68 58t54 106.5t40.5 174.5q46 254 146.5 359.5t316.5 125.5l-14 -79q-99 -16 -160.5 -58t-102 -127.5t-67.5 -232.5q-20 -115 -43 -186.5t-58.5 -115.5t-77.5 -64.5t-110 -33.5q86 -28 127 -78.5t41 -144.5q0 -54 -18.5 -171.5 t-18.5 -186.5q0 -105 46 -160t151 -82l-12 -80q-149 29 -227 105.5t-78 212.5q0 62 19 179t19 177q0 82 -34.5 123.5t-118.5 60.5z" />
<glyph unicode="|" horiz-adv-x="686" d="M158 -205l315 1782h109l-316 -1782h-108z" />
<glyph unicode="}" horiz-adv-x="749" d="M-68 -246l15 80q100 16 160.5 57.5t101 126.5t67.5 232q16 93 34.5 156.5t40.5 107.5t54.5 70.5t68.5 41t91 25.5q-86 26 -127 77t-41 146q0 53 18.5 171.5t18.5 187.5q0 106 -46 160.5t-152 81.5l14 79q149 -29 227 -105.5t78 -213.5q0 -61 -19.5 -177t-19.5 -177 q0 -82 35 -124t119 -61l-17 -88q-60 -14 -96 -31.5t-68.5 -57t-54 -105.5t-41.5 -174q-44 -255 -145 -361t-316 -125z" />
<glyph unicode="~" d="M193 651q132 123 262 123q49 0 99 -18.5t85.5 -41t82.5 -41t89 -18.5q65 0 120 27.5t118 79.5l32 -90q-134 -127 -272 -127q-46 0 -95.5 18.5t-86 41t-84.5 41t-90 18.5q-105 0 -228 -99z" />
<glyph unicode="&#xa1;" horiz-adv-x="604" d="M68 -451l102 586l102 486h103l-70 -486l-100 -586h-137zM272 905q0 51 32 82t77 31q42 0 67 -25t25 -61q0 -51 -31.5 -82t-76.5 -31q-42 0 -67.5 25t-25.5 61z" />
<glyph unicode="&#xa2;" horiz-adv-x="935" d="M92 520q0 169 70 310t199.5 226.5t293.5 90.5l27 217h121l-49 -223q116 -13 225 -92l-51 -97q-123 84 -260 84q-195 0 -322 -146.5t-127 -367.5q0 -179 87 -279t243 -100q126 0 266 70l25 -102q-128 -73 -281 -78l-29 -228h-120l53 234q-169 23 -270 152.5t-101 328.5z " />
<glyph unicode="&#xa3;" horiz-adv-x="1015" d="M47 0l16 98q119 136 172 246.5t93 321.5h-166l20 104h166l55 317q31 177 129.5 262t249.5 85q93 0 161.5 -27.5t137.5 -77.5l-57 -88q-119 88 -240 88q-212 0 -260 -254l-55 -305h354l-18 -104h-352q-27 -147 -63 -248t-75 -162t-108 -141h708l-18 -115h-850z" />
<glyph unicode="&#xa4;" d="M172 281l162 155q-76 99 -76 217q0 197 139 316l-104 147l96 66l96 -154q86 47 201 47q99 0 184 -55l154 162l80 -78l-156 -152q78 -100 78 -221q0 -195 -137 -315l104 -148l-98 -69l-96 155q-85 -45 -197 -45q-108 0 -194 60l-156 -166zM375 662q0 -114 65 -183t176 -69 q135 0 216 88t81 225q0 114 -65 183t-176 69q-135 0 -216 -88t-81 -225z" />
<glyph unicode="&#xa5;" horiz-adv-x="1185" d="M123 266l18 101h348l29 165h-348l18 101h301l-321 749l111 52l323 -787l590 787l98 -60l-569 -741h291l-17 -101h-348l-29 -165h347l-19 -101h-346l-47 -266h-129l47 266h-348z" />
<glyph unicode="&#xa6;" horiz-adv-x="686" d="M160 -205l131 748h108l-131 -748h-108zM344 848l129 729h109l-129 -729h-109z" />
<glyph unicode="&#xa7;" d="M162 -2l55 84q126 -80 281 -80q70 0 128.5 17.5t97 55.5t38.5 91q0 65 -46 105t-194 112q-133 64 -186 127.5t-53 155.5q0 115 82 196t235 123q-100 54 -143 103.5t-43 130.5q0 116 101 190t259 74q166 0 305 -84l-47 -82q-117 72 -264 72q-99 0 -168.5 -45.5 t-69.5 -120.5q0 -62 45 -102t187 -111q134 -66 186.5 -132t52.5 -157q0 -224 -321 -307q102 -49 151.5 -104t49.5 -136q0 -67 -33 -120.5t-88.5 -85.5t-123.5 -49t-142 -17q-101 0 -179.5 23t-152.5 73zM399 676q0 -69 39 -115.5t152 -95.5q135 31 216 95t81 157 q0 69 -44.5 119t-144.5 96q-140 -30 -219.5 -95.5t-79.5 -160.5z" />
<glyph unicode="&#xa8;" horiz-adv-x="669" d="M209 1356q0 44 28 72t70 28q38 0 60 -23t22 -55q0 -44 -28 -72t-70 -28q-38 0 -60 22t-22 56zM575 1356q0 44 28.5 72t70.5 28q38 0 60 -23t22 -55q0 -44 -28.5 -72t-70.5 -28q-38 0 -60 22t-22 56z" />
<glyph unicode="&#xa9;" horiz-adv-x="1536" d="M74 608q0 178 55 332.5t156 269.5t254 181.5t338 66.5q152 0 275.5 -49t204.5 -134.5t125 -200.5t44 -249q0 -142 -34.5 -270t-103 -233.5t-164.5 -183t-225 -120.5t-278 -43q-151 0 -274.5 49t-204.5 134.5t-124.5 200.5t-43.5 249zM176 610q0 -243 146 -392.5 t403 -149.5q210 0 369 99t242 269.5t83 386.5q0 243 -146 393t-405 150q-157 0 -288 -57.5t-219 -158.5t-136.5 -240t-48.5 -300zM426 643q0 229 137 385t334 156q134 0 240 -78l-50 -90q-86 63 -196 63q-142 0 -244 -123t-102 -309q0 -136 66 -208t177 -72q92 0 207 51 l21 -96q-117 -60 -238 -60q-160 0 -256 101.5t-96 279.5z" />
<glyph unicode="&#xaa;" d="M223 297l21 113h667l-20 -113h-668zM281 971q0 205 141.5 341t361.5 136q131 0 265 -49l-99 -514q-6 -24 -6 -51q0 -79 96 -76l-41 -88q-153 -3 -153 133q0 12 12 80q-49 -105 -126.5 -163t-178.5 -58q-113 0 -192.5 82t-79.5 227zM395 981q0 -107 52.5 -164t132.5 -57 q97 0 180 87t114 245l46 237q-75 23 -146 23q-163 0 -271 -107t-108 -264z" />
<glyph unicode="&#xab;" horiz-adv-x="1095" d="M166 674l12 59l393 397l74 -79l-364 -357l237 -352l-94 -63zM549 674l12 59l393 397l74 -79l-364 -357l237 -352l-94 -63z" />
<glyph unicode="&#xac;" d="M180 653l21 113h909l-84 -477h-125l66 364h-787z" />
<glyph unicode="&#xad;" horiz-adv-x="1024" d="M195 647l20 113h674l-21 -113h-673z" />
<glyph unicode="&#xae;" horiz-adv-x="1536" d="M74 608q0 178 55 332.5t156 269.5t254 181.5t338 66.5q152 0 275.5 -49t204.5 -134.5t125 -200.5t44 -249q0 -142 -34.5 -270t-103 -233.5t-164.5 -183t-225 -120.5t-278 -43q-151 0 -274.5 49t-204.5 134.5t-124.5 200.5t-43.5 249zM176 610q0 -243 146 -392.5 t403 -149.5q210 0 369 99t242 269.5t83 386.5q0 243 -146 393t-405 150q-157 0 -288 -57.5t-219 -158.5t-136.5 -240t-48.5 -300zM444 293l152 856q136 25 233 25q144 0 222.5 -68.5t78.5 -171.5t-70 -164.5t-190 -69.5q59 -17 94.5 -57t48.5 -83t24 -84t34 -67.5t66 -25.5 l-45 -98q-48 0 -79.5 21t-47.5 54.5t-28 73.5t-27 80.5t-37.5 74t-67 54.5t-107.5 21h-77l-68 -371h-109zM637 760h137q115 0 178.5 44t63.5 124q0 70 -46.5 110.5t-144.5 40.5q-53 0 -135 -12z" />
<glyph unicode="&#xaf;" horiz-adv-x="679" d="M199 1307l18 100h557l-18 -100h-557z" />
<glyph unicode="&#xb0;" horiz-adv-x="921" d="M297 1198q0 130 90 217.5t221 87.5q114 0 187 -71t73 -177q0 -130 -89.5 -217.5t-221.5 -87.5q-114 0 -187 71t-73 177zM410 1202q0 -69 43 -111t112 -42q83 0 138 57t55 145q0 68 -44 111t-112 43q-84 0 -138 -57t-54 -146z" />
<glyph unicode="&#xb1;" d="M180 188l19 113h762l-21 -113h-760zM258 823l18 107h328l55 317h117l-55 -317h326l-21 -107h-324l-55 -317h-119l56 317h-326z" />
<glyph unicode="&#xb2;" horiz-adv-x="921" d="M158 608q0 76 30.5 140t80 108t109 82t118.5 70t108.5 63.5t80 71.5t30.5 86q0 56 -43.5 92.5t-112.5 36.5q-119 0 -223 -84l-51 69q124 105 284 105q118 0 189 -61.5t71 -155.5q0 -67 -37.5 -122t-94 -91t-125 -75.5t-129 -75t-107 -90.5t-57.5 -120h477l-19 -92h-575 q-4 28 -4 43z" />
<glyph unicode="&#xb3;" horiz-adv-x="921" d="M135 639l60 72q104 -68 227 -68q105 0 171 49t66 137q0 71 -52.5 111.5t-153.5 40.5h-131l14 84h121q111 0 179.5 41.5t68.5 122.5q0 57 -45.5 94t-120.5 37q-116 0 -222 -68l-47 74q124 82 277 82q123 0 196.5 -63t73.5 -150q0 -90 -56.5 -142.5t-154.5 -70.5 q166 -46 166 -195q0 -123 -97 -199.5t-257 -76.5q-163 0 -283 88z" />
<glyph unicode="&#xb4;" horiz-adv-x="540" d="M199 1311l383 233l55 -114l-393 -203z" />
<glyph unicode="&#xb6;" horiz-adv-x="1335" d="M152 1178q6 192 146.5 304.5t363.5 112.5q172 0 333 -43l-297 -1683h-125l172 965q-83 -19 -190 -19q-183 0 -296 97.5t-107 265.5zM276 1184q-6 -127 73.5 -195.5t221.5 -66.5q110 0 191 18l92 526q-102 23 -205 23q-166 0 -266.5 -80t-106.5 -225zM885 -131l301 1708 h123l-301 -1708h-123z" />
<glyph unicode="&#xb7;" horiz-adv-x="614" d="M242 719q0 51 31.5 81.5t76.5 30.5q42 0 67 -25t25 -61q0 -51 -31.5 -81.5t-76.5 -30.5q-42 0 -67 25t-25 61z" />
<glyph unicode="&#xb8;" horiz-adv-x="559" d="M-109 -432l48 82q63 -35 155 -35q64 0 104 26.5t40 75.5t-49 75t-171 26l99 180h96l-70 -127q98 -2 152.5 -41t54.5 -113q0 -91 -73.5 -142.5t-186.5 -51.5q-119 0 -199 45z" />
<glyph unicode="&#xb9;" horiz-adv-x="921" d="M201 565l16 90h215l129 643l-227 -133l-47 84l334 185h79l-157 -779h174l-21 -90h-495z" />
<glyph unicode="&#xba;" horiz-adv-x="1241" d="M223 297l21 113h667l-20 -113h-668zM295 1001q0 190 121.5 318.5t312.5 128.5q159 0 255.5 -95t96.5 -247q0 -191 -121 -319t-313 -128q-158 0 -255 95.5t-97 246.5zM410 1006q0 -111 65.5 -179.5t177.5 -68.5q142 0 229 97.5t87 246.5q0 110 -66 179t-178 69 q-142 0 -228.5 -97.5t-86.5 -246.5z" />
<glyph unicode="&#xbb;" horiz-adv-x="1095" d="M111 358l364 357l-235 352l92 63l258 -395l-10 -59l-394 -397zM494 358l364 357l-235 352l92 63l258 -395l-10 -59l-394 -397z" />
<glyph unicode="&#xbc;" horiz-adv-x="2015" d="M201 565l16 90h215l129 643l-227 -133l-47 84l334 185h79l-157 -779h174l-21 -90h-495zM424 -25l1149 1514l80 -55l-1151 -1514zM1165 190l13 72l421 619l87 -45l-377 -553h311l61 258h93l-50 -258h125l-16 -93h-125l-35 -190h-104l33 190h-437z" />
<glyph unicode="&#xbd;" horiz-adv-x="2056" d="M201 565l16 90h215l129 643l-227 -133l-47 84l334 185h79l-157 -779h174l-21 -90h-495zM424 -25l1149 1514l80 -55l-1151 -1514zM1212 43q0 76 30.5 140t80 108t108.5 82t118.5 70t109 63.5t80 71.5t30.5 86q0 56 -43.5 92.5t-111.5 36.5q-119 0 -223 -84l-52 69 q124 105 285 105q118 0 189 -61.5t71 -155.5q0 -58 -28 -106.5t-73 -83.5t-100 -66.5t-112.5 -63.5t-106.5 -66.5t-85 -82.5t-46 -105h477l-18 -92h-575q-5 35 -5 43z" />
<glyph unicode="&#xbe;" horiz-adv-x="2015" d="M135 639l60 72q104 -68 227 -68q105 0 171 49t66 137q0 71 -52.5 111.5t-153.5 40.5h-131l14 84h121q111 0 179.5 41.5t68.5 122.5q0 57 -45.5 94t-120.5 37q-116 0 -222 -68l-47 74q124 82 277 82q123 0 196.5 -63t73.5 -150q0 -90 -56.5 -142.5t-154.5 -70.5 q166 -46 166 -195q0 -123 -97 -199.5t-257 -76.5q-163 0 -283 88zM424 -25l1149 1514l80 -55l-1151 -1514zM1165 190l13 72l421 619l87 -45l-377 -553h311l61 258h93l-50 -258h125l-16 -93h-125l-35 -190h-104l33 190h-437z" />
<glyph unicode="&#xbf;" horiz-adv-x="1005" d="M-12 -174q0 74 27.5 134t71.5 102.5t98.5 79.5t110.5 73t104 74t83.5 91.5t44.5 117.5l19 123h102q0 -82 -4 -129q-5 -75 -37 -137.5t-78.5 -105.5t-101.5 -81t-109 -72.5t-98.5 -70.5t-72 -85.5t-27.5 -107.5q0 -90 61 -142t168 -52q104 0 182.5 40.5t153.5 114.5 l78 -76q-174 -192 -422 -192q-159 0 -256.5 84.5t-97.5 216.5zM518 905q0 51 32 82t77 31q42 0 67 -25t25 -61q0 -51 -32 -82t-77 -31q-42 0 -67 25t-25 61z" />
<glyph unicode="&#xc0;" horiz-adv-x="1359" d="M-35 51l803 1383h143l324 -1420l-123 -28l-94 430h-705l-245 -428zM377 526h616l-172 779zM672 1767l61 115l377 -233l-53 -84z" />
<glyph unicode="&#xc1;" horiz-adv-x="1359" d="M-35 51l803 1383h143l324 -1420l-123 -28l-94 430h-705l-245 -428zM377 526h616l-172 779zM672 1649l383 233l55 -115l-393 -202z" />
<glyph unicode="&#xc2;" horiz-adv-x="1359" d="M-35 51l803 1383h143l324 -1420l-123 -28l-94 430h-705l-245 -428zM377 526h616l-172 779zM532 1649l318 180h100l256 -180l-71 -88l-238 182l-303 -182z" />
<glyph unicode="&#xc3;" horiz-adv-x="1359" d="M-35 51l803 1383h143l324 -1420l-123 -28l-94 430h-705l-245 -428zM377 526h616l-172 779zM565 1694q102 114 215 114q44 0 84 -22t75.5 -44t68.5 -22q61 0 141 72l59 -68q-108 -112 -202 -112q-48 0 -87.5 22t-73.5 44t-67 22q-70 0 -155 -74z" />
<glyph unicode="&#xc4;" horiz-adv-x="1359" d="M-35 51l803 1383h143l324 -1420l-123 -28l-94 430h-705l-245 -428zM377 526h616l-172 779zM616 1704q0 44 28.5 72t70.5 28q38 0 60 -23t22 -55q0 -44 -28.5 -72t-70.5 -28q-38 0 -60 22t-22 56zM983 1704q0 44 28 72t70 28q38 0 60 -23t22 -55q0 -44 -28 -72t-70 -28 q-38 0 -60 22t-22 56z" />
<glyph unicode="&#xc5;" horiz-adv-x="1359" d="M-35 51l764 1317q-52 24 -81.5 70.5t-29.5 107.5q0 113 72 182.5t189 69.5q93 0 154 -55.5t61 -145.5q0 -85 -45 -147.5t-121 -89.5l307 -1346l-123 -28l-94 430h-705l-245 -428zM377 526h616l-172 779zM727 1556q0 -55 31 -88.5t82 -33.5q65 0 105 43t40 112 q0 56 -31 89.5t-82 33.5q-64 0 -104.5 -43.5t-40.5 -112.5z" />
<glyph unicode="&#xc6;" horiz-adv-x="1775" d="M-100 59l1116 1375h846l-21 -113h-655l-92 -514h561l-19 -111h-561l-102 -583h655l-18 -113h-787l74 416h-553l-352 -430zM436 526h482l137 783z" />
<glyph unicode="&#xc7;" horiz-adv-x="1185" d="M127 586q0 184 57.5 345.5t157.5 277t242.5 182.5t306.5 67q119 0 201.5 -26.5t158.5 -75.5l-57 -101q-71 43 -141 65.5t-174 22.5q-126 0 -239 -56t-196.5 -153.5t-132.5 -239t-49 -304.5q0 -241 117 -370.5t317 -129.5q184 0 346 86l23 -108q-160 -90 -360 -93 l-64 -114q98 -2 152.5 -41t54.5 -113q0 -91 -73.5 -142.5t-186.5 -51.5q-119 0 -199 45l47 82q63 -35 156 -35q64 0 103.5 26.5t39.5 75.5t-48.5 74.5t-170.5 25.5l94 173q-221 25 -352 183.5t-131 422.5z" />
<glyph unicode="&#xc8;" horiz-adv-x="1107" d="M102 0l254 1434h838l-20 -113h-709l-90 -514h612l-20 -111h-611l-102 -583h707l-21 -113h-838zM614 1767l62 115l377 -233l-54 -84z" />
<glyph unicode="&#xc9;" horiz-adv-x="1107" d="M102 0l254 1434h838l-20 -113h-709l-90 -514h612l-20 -111h-611l-102 -583h707l-21 -113h-838zM614 1649l383 233l56 -115l-394 -202z" />
<glyph unicode="&#xca;" horiz-adv-x="1107" d="M102 0l254 1434h838l-20 -113h-709l-90 -514h612l-20 -111h-611l-102 -583h707l-21 -113h-838zM475 1649l318 180h100l256 -180l-72 -88l-237 182l-303 -182z" />
<glyph unicode="&#xcb;" horiz-adv-x="1107" d="M102 0l254 1434h838l-20 -113h-709l-90 -514h612l-20 -111h-611l-102 -583h707l-21 -113h-838zM559 1704q0 44 28 72t70 28q38 0 60 -23t22 -55q0 -44 -28 -72t-70 -28q-38 0 -60 22t-22 56zM926 1704q0 44 28 72t70 28q38 0 60 -23t22 -55q0 -44 -28 -72t-70 -28 q-38 0 -60 22t-22 56z" />
<glyph unicode="&#xcc;" horiz-adv-x="522" d="M102 0l252 1434h129l-252 -1434h-129zM248 1767l61 115l377 -233l-53 -84z" />
<glyph unicode="&#xcd;" horiz-adv-x="522" d="M102 0l252 1434h129l-252 -1434h-129zM248 1649l383 233l55 -115l-393 -202z" />
<glyph unicode="&#xce;" horiz-adv-x="522" d="M102 0l252 1434h129l-252 -1434h-129zM109 1649l317 180h100l256 -180l-71 -88l-238 182l-303 -182z" />
<glyph unicode="&#xcf;" horiz-adv-x="522" d="M102 0l252 1434h129l-252 -1434h-129zM193 1704q0 44 28 72t70 28q38 0 60 -23t22 -55q0 -44 -28.5 -72t-70.5 -28q-38 0 -59.5 22t-21.5 56zM559 1704q0 44 28 72t70 28q38 0 60 -23t22 -55q0 -44 -28 -72t-70 -28q-38 0 -60 22t-22 56z" />
<glyph unicode="&#xd0;" horiz-adv-x="1411" d="M80 672l18 110h162l111 631q182 45 364 45q118 0 217.5 -32.5t171 -90.5t121.5 -137.5t74 -174t24 -200.5q0 -244 -96 -434.5t-284 -302t-441 -111.5q-221 0 -393 68l111 629h-160zM274 125q133 -37 261 -37q206 0 359.5 92t234.5 257t81 380q0 243 -124.5 386 t-356.5 143q-114 0 -246 -27l-94 -537h402l-21 -110h-399z" />
<glyph unicode="&#xd1;" horiz-adv-x="1435" d="M102 0l254 1434h166l525 -1287l227 1287h123l-254 -1434h-168l-522 1282l-228 -1282h-123zM616 1694q102 114 215 114q44 0 84 -22t75.5 -44t68.5 -22q61 0 141 72l60 -68q-108 -112 -203 -112q-48 0 -87.5 22t-73.5 44t-67 22q-70 0 -155 -74z" />
<glyph unicode="&#xd2;" horiz-adv-x="1558" d="M131 621q0 160 52 309.5t147 267.5t241.5 189t321.5 71q184 0 321 -84t207 -229.5t70 -331.5q0 -128 -32 -250t-97 -228.5t-155 -186.5t-213.5 -126.5t-264.5 -46.5q-184 0 -321 84.5t-207 230t-70 331.5zM266 621q0 -242 124 -387.5t353 -145.5q113 0 212 39.5t172 108 t125.5 160t79 198t26.5 219.5q0 242 -124 387.5t-353 145.5q-113 0 -212 -39.5t-172 -108t-125.5 -160t-79 -198t-26.5 -219.5zM766 1767l61 115l377 -233l-53 -84z" />
<glyph unicode="&#xd3;" horiz-adv-x="1558" d="M131 621q0 160 52 309.5t147 267.5t241.5 189t321.5 71q184 0 321 -84t207 -229.5t70 -331.5q0 -128 -32 -250t-97 -228.5t-155 -186.5t-213.5 -126.5t-264.5 -46.5q-184 0 -321 84.5t-207 230t-70 331.5zM266 621q0 -242 124 -387.5t353 -145.5q113 0 212 39.5t172 108 t125.5 160t79 198t26.5 219.5q0 242 -124 387.5t-353 145.5q-113 0 -212 -39.5t-172 -108t-125.5 -160t-79 -198t-26.5 -219.5zM766 1649l383 233l55 -115l-393 -202z" />
<glyph unicode="&#xd4;" horiz-adv-x="1558" d="M131 621q0 160 52 309.5t147 267.5t241.5 189t321.5 71q184 0 321 -84t207 -229.5t70 -331.5q0 -128 -32 -250t-97 -228.5t-155 -186.5t-213.5 -126.5t-264.5 -46.5q-184 0 -321 84.5t-207 230t-70 331.5zM266 621q0 -242 124 -387.5t353 -145.5q113 0 212 39.5t172 108 t125.5 160t79 198t26.5 219.5q0 242 -124 387.5t-353 145.5q-113 0 -212 -39.5t-172 -108t-125.5 -160t-79 -198t-26.5 -219.5zM627 1649l317 180h100l256 -180l-71 -88l-238 182l-303 -182z" />
<glyph unicode="&#xd5;" horiz-adv-x="1558" d="M131 621q0 160 52 309.5t147 267.5t241.5 189t321.5 71q184 0 321 -84t207 -229.5t70 -331.5q0 -128 -32 -250t-97 -228.5t-155 -186.5t-213.5 -126.5t-264.5 -46.5q-184 0 -321 84.5t-207 230t-70 331.5zM266 621q0 -242 124 -387.5t353 -145.5q113 0 212 39.5t172 108 t125.5 160t79 198t26.5 219.5q0 242 -124 387.5t-353 145.5q-113 0 -212 -39.5t-172 -108t-125.5 -160t-79 -198t-26.5 -219.5zM659 1694q102 114 215 114q44 0 84 -22t75.5 -44t68.5 -22q61 0 141 72l60 -68q-108 -112 -203 -112q-48 0 -87.5 22t-73.5 44t-67 22 q-70 0 -155 -74z" />
<glyph unicode="&#xd6;" horiz-adv-x="1558" d="M131 621q0 160 52 309.5t147 267.5t241.5 189t321.5 71q184 0 321 -84t207 -229.5t70 -331.5q0 -128 -32 -250t-97 -228.5t-155 -186.5t-213.5 -126.5t-264.5 -46.5q-184 0 -321 84.5t-207 230t-70 331.5zM266 621q0 -242 124 -387.5t353 -145.5q113 0 212 39.5t172 108 t125.5 160t79 198t26.5 219.5q0 242 -124 387.5t-353 145.5q-113 0 -212 -39.5t-172 -108t-125.5 -160t-79 -198t-26.5 -219.5zM711 1704q0 44 28 72t70 28q38 0 60 -23t22 -55q0 -44 -28 -72t-70 -28q-38 0 -60 22t-22 56zM1077 1704q0 44 28.5 72t70.5 28q38 0 59.5 -22.5 t21.5 -55.5q0 -44 -28 -72t-70 -28q-38 0 -60 22t-22 56z" />
<glyph unicode="&#xd7;" d="M209 399l360 306l-256 317l86 68l250 -312l361 312l69 -80l-362 -305l258 -318l-88 -65l-250 309l-358 -309z" />
<glyph unicode="&#xd8;" horiz-adv-x="1558" d="M131 618q0 130 33 253.5t99 229.5t156.5 186t213.5 125.5t262 45.5q164 0 293 -69l170 272l100 -62l-186 -268q106 -88 162.5 -221.5t56.5 -294.5q0 -164 -53 -314.5t-148.5 -268t-241.5 -187.5t-319 -70q-165 0 -293 70l-184 -287l-100 64l198 282q-106 86 -162.5 219.5 t-56.5 294.5zM266 618q0 -276 152 -419l710 1091q-100 56 -241 56q-140 0 -258.5 -60t-197 -160.5t-122 -232t-43.5 -275.5zM494 145q105 -57 243 -57q113 0 212 38.5t173 107t128 160t81 199t27 222.5q0 281 -154 420z" />
<glyph unicode="&#xd9;" horiz-adv-x="1396" d="M156 362q0 72 22 197l152 875h131l-158 -897q-16 -98 -16 -166q0 -135 71.5 -208t200.5 -73q184 0 326.5 151.5t187.5 409.5l137 783h129l-206 -1172q-7 -35 -7 -72q0 -103 117 -100l-45 -102q-83 -2 -132.5 36t-49.5 121q0 71 26 164q-174 -334 -505 -334 q-167 0 -274 104.5t-107 282.5zM690 1767l62 115l376 -233l-53 -84z" />
<glyph unicode="&#xda;" horiz-adv-x="1396" d="M156 362q0 72 22 197l152 875h131l-158 -897q-16 -98 -16 -166q0 -135 71.5 -208t200.5 -73q184 0 326.5 151.5t187.5 409.5l137 783h129l-206 -1172q-7 -35 -7 -72q0 -103 117 -100l-45 -102q-83 -2 -132.5 36t-49.5 121q0 71 26 164q-174 -334 -505 -334 q-167 0 -274 104.5t-107 282.5zM690 1649l383 233l55 -115l-393 -202z" />
<glyph unicode="&#xdb;" horiz-adv-x="1396" d="M156 362q0 72 22 197l152 875h131l-158 -897q-16 -98 -16 -166q0 -135 71.5 -208t200.5 -73q184 0 326.5 151.5t187.5 409.5l137 783h129l-206 -1172q-7 -35 -7 -72q0 -103 117 -100l-45 -102q-83 -2 -132.5 36t-49.5 121q0 71 26 164q-174 -334 -505 -334 q-167 0 -274 104.5t-107 282.5zM551 1649l317 180h101l256 -180l-72 -88l-238 182l-303 -182z" />
<glyph unicode="&#xdc;" horiz-adv-x="1396" d="M156 362q0 72 22 197l152 875h131l-158 -897q-16 -98 -16 -166q0 -135 71.5 -208t200.5 -73q184 0 326.5 151.5t187.5 409.5l137 783h129l-206 -1172q-7 -35 -7 -72q0 -103 117 -100l-45 -102q-83 -2 -132.5 36t-49.5 121q0 71 26 164q-174 -334 -505 -334 q-167 0 -274 104.5t-107 282.5zM635 1704q0 44 28 72t70 28q38 0 60 -23t22 -55q0 -44 -28 -72t-70 -28q-38 0 -60 22t-22 56zM1001 1704q0 44 28.5 72t70.5 28q38 0 60 -23t22 -55q0 -44 -28.5 -72t-70.5 -28q-38 0 -60 22t-22 56z" />
<glyph unicode="&#xdd;" horiz-adv-x="1128" d="M-18 76l65 82q45 -37 87.5 -54.5t103.5 -17.5q76 0 135 49t125 166l94 162l-322 745q-29 65 -60 91t-77 26l37 109q86 0 131 -41.5t94 -157.5l275 -651l479 862l104 -55l-637 -1119q-94 -164 -180 -230.5t-205 -66.5q-136 0 -249 101zM530 1649l383 233l56 -115 l-394 -202z" />
<glyph unicode="&#xde;" horiz-adv-x="1208" d="M102 0l252 1434h129l-45 -260q89 18 224 18q123 0 221 -33.5t159.5 -92t94 -134.5t32.5 -164q0 -126 -47 -224.5t-130 -159.5t-192 -92.5t-239 -31.5q-144 0 -278 29l-52 -289h-129zM303 399q103 -28 262 -28q100 0 183.5 22t150 67t104 122.5t37.5 181.5 q0 145 -97.5 231t-280.5 86q-145 0 -242 -20z" />
<glyph unicode="&#xdf;" d="M33 -451l200 1135q15 84 15 113q0 81 -39 115t-119 34l53 119q71 0 116 -34t44 -111q47 319 173.5 469.5t344.5 150.5q159 0 261 -102t102 -252q0 -90 -28 -161.5t-77 -116.5t-111 -70.5t-134 -30.5q64 -14 116.5 -40t96 -68.5t68 -108.5t24.5 -150q0 -140 -66.5 -247 t-179.5 -162.5t-254 -55.5q-155 0 -260 60l49 94q78 -45 215 -45q158 -2 263.5 94t105.5 262q0 290 -379 318l16 100q412 3 412 324q0 109 -67 179.5t-181 70.5t-191.5 -52t-138 -185t-102.5 -366l-225 -1280h-123z" />
<glyph unicode="&#xe0;" horiz-adv-x="1187" d="M76 416q0 195 85 348.5t236 239t342 86.5q173 0 342 -72l-133 -754q-6 -41 -6 -69q0 -107 121 -107l-41 -96q-94 0 -142 45.5t-44 134.5q0 23 10 68q-124 -265 -393 -265q-159 0 -268 118.5t-109 322.5zM203 416q0 -161 75.5 -246.5t196.5 -83.5q148 0 255 121t142 328 l74 411q-103 39 -221 39q-153 -1 -272.5 -74t-184.5 -202t-65 -293zM532 1430l62 114l377 -233l-53 -84z" />
<glyph unicode="&#xe1;" horiz-adv-x="1187" d="M76 416q0 195 85 348.5t236 239t342 86.5q173 0 342 -72l-133 -754q-6 -41 -6 -69q0 -107 121 -107l-41 -96q-94 0 -142 45.5t-44 134.5q0 23 10 68q-124 -265 -393 -265q-159 0 -268 118.5t-109 322.5zM203 416q0 -161 75.5 -246.5t196.5 -83.5q148 0 255 121t142 328 l74 411q-103 39 -221 39q-153 -1 -272.5 -74t-184.5 -202t-65 -293zM532 1311l383 233l56 -114l-393 -203z" />
<glyph unicode="&#xe2;" horiz-adv-x="1187" d="M76 416q0 195 85 348.5t236 239t342 86.5q173 0 342 -72l-133 -754q-6 -41 -6 -69q0 -107 121 -107l-41 -96q-94 0 -142 45.5t-44 134.5q0 23 10 68q-124 -265 -393 -265q-159 0 -268 118.5t-109 322.5zM203 416q0 -161 75.5 -246.5t196.5 -83.5q148 0 255 121t142 328 l74 411q-103 39 -221 39q-153 -1 -272.5 -74t-184.5 -202t-65 -293zM393 1300l322 209h100l252 -209l-70 -83l-235 204l-303 -204z" />
<glyph unicode="&#xe3;" horiz-adv-x="1187" d="M76 416q0 195 85 348.5t236 239t342 86.5q173 0 342 -72l-133 -754q-6 -41 -6 -69q0 -107 121 -107l-41 -96q-94 0 -142 45.5t-44 134.5q0 23 10 68q-124 -265 -393 -265q-159 0 -268 118.5t-109 322.5zM203 416q0 -161 75.5 -246.5t196.5 -83.5q148 0 255 121t142 328 l74 411q-103 39 -221 39q-153 -1 -272.5 -74t-184.5 -202t-65 -293zM426 1346q102 114 215 114q44 0 84 -22t75 -44t68 -22q62 0 142 72l59 -68q-108 -112 -203 -112q-38 0 -71.5 14t-53.5 30t-47.5 30t-54.5 14q-71 0 -156 -74z" />
<glyph unicode="&#xe4;" horiz-adv-x="1187" d="M76 416q0 195 85 348.5t236 239t342 86.5q173 0 342 -72l-133 -754q-6 -41 -6 -69q0 -107 121 -107l-41 -96q-94 0 -142 45.5t-44 134.5q0 23 10 68q-124 -265 -393 -265q-159 0 -268 118.5t-109 322.5zM203 416q0 -161 75.5 -246.5t196.5 -83.5q148 0 255 121t142 328 l74 411q-103 39 -221 39q-153 -1 -272.5 -74t-184.5 -202t-65 -293zM477 1356q0 44 28 72t70 28q38 0 60 -23t22 -55q0 -44 -28 -72t-70 -28q-38 0 -60 22t-22 56zM844 1356q0 44 28 72t70 28q38 0 60 -23t22 -55q0 -44 -28 -72t-70 -28q-38 0 -60 22t-22 56z" />
<glyph unicode="&#xe5;" horiz-adv-x="1187" d="M76 416q0 195 85 348.5t236 239t342 86.5q173 0 342 -72l-133 -754q-6 -41 -6 -69q0 -107 121 -107l-41 -96q-94 0 -142 45.5t-44 134.5q0 23 10 68q-124 -265 -393 -265q-159 0 -268 118.5t-109 322.5zM203 416q0 -161 75.5 -246.5t196.5 -83.5q148 0 255 121t142 328 l74 411q-103 39 -221 39q-153 -1 -272.5 -74t-184.5 -202t-65 -293zM516 1405q0 113 71.5 182.5t188.5 69.5q93 0 154 -55.5t61 -145.5q0 -111 -72.5 -181.5t-187.5 -70.5q-94 0 -154.5 56t-60.5 145zM625 1415q0 -56 30.5 -89.5t81.5 -33.5q65 0 105.5 43.5t40.5 112.5 q0 56 -31 89.5t-82 33.5q-64 0 -104.5 -43.5t-40.5 -112.5z" />
<glyph unicode="&#xe6;" horiz-adv-x="1755" d="M20 279q0 111 63 194.5t164 124.5t222 41q71 0 138.5 -9.5t105.5 -19t102 -28.5q14 184 -58.5 291.5t-228.5 107.5q-132 0 -282 -70l-13 105q164 74 318 74q159 0 246 -84.5t106 -221.5q61 144 179 225t276 81q164 0 260 -91t96 -223q0 -78 -27.5 -140.5t-73.5 -103 t-110.5 -67.5t-134 -38t-147.5 -11q-161 0 -283 35q9 -183 89.5 -274t238.5 -91q157 0 313 80l10 -109q-153 -82 -336 -82q-164 0 -267.5 86t-133.5 238q-58 -149 -175.5 -236.5t-299.5 -87.5q-161 0 -259 84.5t-98 219.5zM147 285q0 -92 65 -145.5t177 -53.5q338 0 412 397 q-86 28 -159 42t-169 14q-63 0 -119 -14.5t-103.5 -44t-75.5 -79.5t-28 -116zM940 551q122 -35 268 -35q82 0 148.5 13t120 42t83 80t29.5 121q0 92 -63 150.5t-174 58.5q-166 0 -278.5 -121t-133.5 -309z" />
<glyph unicode="&#xe7;" horiz-adv-x="964" d="M82 463q0 172 72.5 315t206.5 227.5t303 84.5q170 0 305 -99l-51 -96q-123 84 -261 84q-195 0 -321.5 -146.5t-126.5 -367.5q0 -179 87 -279t243 -100q126 0 266 70l24 -103q-126 -70 -274 -78l-57 -104q98 -2 152.5 -41t54.5 -113q0 -91 -74 -142.5t-187 -51.5 q-118 0 -198 45l47 82q63 -35 156 -35q64 0 103.5 26.5t39.5 75.5q0 50 -48.5 75.5t-170.5 25.5l88 162q-172 22 -275.5 151.5t-103.5 331.5z" />
<glyph unicode="&#xe8;" horiz-adv-x="1048" d="M84 461q0 170 69 312.5t200 229.5t298 87q166 0 263.5 -91t97.5 -223q0 -79 -28 -141.5t-75 -103t-113.5 -67t-138.5 -37.5t-155 -11q-179 0 -289 28v-20q0 -159 91 -248.5t259 -89.5q155 0 311 80l13 -109q-157 -82 -338 -82q-216 0 -340.5 129.5t-124.5 356.5zM213 545 q137 -29 274 -29q398 0 398 256q0 92 -64 150.5t-178 58.5q-170 0 -290 -122.5t-140 -313.5zM465 1430l61 114l377 -233l-53 -84z" />
<glyph unicode="&#xe9;" horiz-adv-x="1048" d="M84 461q0 170 69 312.5t200 229.5t298 87q166 0 263.5 -91t97.5 -223q0 -79 -28 -141.5t-75 -103t-113.5 -67t-138.5 -37.5t-155 -11q-179 0 -289 28v-20q0 -159 91 -248.5t259 -89.5q155 0 311 80l13 -109q-157 -82 -338 -82q-216 0 -340.5 129.5t-124.5 356.5zM213 545 q137 -29 274 -29q398 0 398 256q0 92 -64 150.5t-178 58.5q-170 0 -290 -122.5t-140 -313.5zM465 1311l383 233l55 -114l-393 -203z" />
<glyph unicode="&#xea;" horiz-adv-x="1048" d="M84 461q0 170 69 312.5t200 229.5t298 87q166 0 263.5 -91t97.5 -223q0 -79 -28 -141.5t-75 -103t-113.5 -67t-138.5 -37.5t-155 -11q-179 0 -289 28v-20q0 -159 91 -248.5t259 -89.5q155 0 311 80l13 -109q-157 -82 -338 -82q-216 0 -340.5 129.5t-124.5 356.5zM213 545 q137 -29 274 -29q398 0 398 256q0 92 -64 150.5t-178 58.5q-170 0 -290 -122.5t-140 -313.5zM326 1300l321 209h101l251 -209l-69 -83l-236 204l-303 -204z" />
<glyph unicode="&#xeb;" horiz-adv-x="1048" d="M84 461q0 170 69 312.5t200 229.5t298 87q166 0 263.5 -91t97.5 -223q0 -79 -28 -141.5t-75 -103t-113.5 -67t-138.5 -37.5t-155 -11q-179 0 -289 28v-20q0 -159 91 -248.5t259 -89.5q155 0 311 80l13 -109q-157 -82 -338 -82q-216 0 -340.5 129.5t-124.5 356.5zM213 545 q137 -29 274 -29q398 0 398 256q0 92 -64 150.5t-178 58.5q-170 0 -290 -122.5t-140 -313.5zM410 1356q0 44 28 72t70 28q38 0 60 -23t22 -55q0 -44 -28 -72t-70 -28q-38 0 -60 22t-22 56zM776 1356q0 44 28 72t70 28q38 0 60 -23t22 -55q0 -44 -28 -72t-70 -28 q-38 0 -60 22t-22 56z" />
<glyph unicode="&#xec;" horiz-adv-x="477" d="M84 0l188 1065h123l-188 -1065h-123zM168 1430l61 114l377 -233l-53 -84z" />
<glyph unicode="&#xed;" horiz-adv-x="477" d="M84 0l188 1065h123l-188 -1065h-123zM168 1311l383 233l55 -114l-393 -203z" />
<glyph unicode="&#xee;" horiz-adv-x="477" d="M29 1300l321 209h101l251 -209l-69 -83l-236 204l-303 -204zM84 0l188 1065h123l-188 -1065h-123z" />
<glyph unicode="&#xef;" horiz-adv-x="477" d="M84 0l188 1065h123l-188 -1065h-123zM113 1356q0 44 28 72t70 28q38 0 60 -23t22 -55q0 -44 -28 -72t-70 -28q-38 0 -60 22t-22 56zM479 1356q0 44 28.5 72t70.5 28q38 0 59.5 -22.5t21.5 -55.5q0 -44 -28 -72t-70 -28q-38 0 -60 22t-22 56z" />
<glyph unicode="&#xf0;" horiz-adv-x="1120" d="M68 387q0 204 133 344.5t323 140.5q131 0 225.5 -67.5t149.5 -183.5q14 83 14 170q0 142 -46.5 254t-131.5 184l-135 -154l-78 68l142 139q-105 55 -222 55q-46 0 -84 -6l21 113q40 4 67 4q167 0 302 -82l155 178l80 -67l-164 -164q219 -188 219 -547q0 -126 -24 -243 t-72 -216.5t-114 -173.5t-156 -116t-193 -42q-176 0 -293.5 115t-117.5 297zM190 391q0 -138 83.5 -221.5t209.5 -83.5q147 0 252 115t148 317q-58 118 -146.5 184t-204.5 66q-149 0 -245.5 -107.5t-96.5 -269.5z" />
<glyph unicode="&#xf1;" horiz-adv-x="1208" d="M84 0l188 1065h117l-49 -272q56 134 167 215.5t267 81.5q135 0 219 -84.5t84 -219.5q0 -68 -12 -141l-115 -645h-123l117 657q10 61 10 119q0 94 -55 149.5t-151 55.5q-153 0 -285 -136t-172 -364l-84 -481h-123zM428 1346q102 114 215 114q44 0 84 -22t75 -44t68 -22 q62 0 142 72l59 -68q-108 -112 -203 -112q-38 0 -71.5 14t-53.5 30t-47.5 30t-54.5 14q-71 0 -156 -74z" />
<glyph unicode="&#xf2;" horiz-adv-x="1226" d="M84 463q0 174 71 316.5t204 226.5t303 84q216 0 349.5 -137.5t133.5 -350.5q0 -174 -71 -316.5t-204 -226.5t-303 -84q-216 0 -349.5 137.5t-133.5 350.5zM209 469q0 -170 97 -276.5t263 -106.5q134 0 237 67.5t157.5 183.5t54.5 259q0 170 -98 276.5t-263 106.5 q-135 0 -238 -68t-156.5 -183t-53.5 -259zM526 1430l62 114l377 -233l-54 -84z" />
<glyph unicode="&#xf3;" horiz-adv-x="1226" d="M84 463q0 174 71 316.5t204 226.5t303 84q216 0 349.5 -137.5t133.5 -350.5q0 -174 -71 -316.5t-204 -226.5t-303 -84q-216 0 -349.5 137.5t-133.5 350.5zM209 469q0 -170 97 -276.5t263 -106.5q134 0 237 67.5t157.5 183.5t54.5 259q0 170 -98 276.5t-263 106.5 q-135 0 -238 -68t-156.5 -183t-53.5 -259zM526 1311l383 233l56 -114l-394 -203z" />
<glyph unicode="&#xf4;" horiz-adv-x="1226" d="M84 463q0 174 71 316.5t204 226.5t303 84q216 0 349.5 -137.5t133.5 -350.5q0 -174 -71 -316.5t-204 -226.5t-303 -84q-216 0 -349.5 137.5t-133.5 350.5zM209 469q0 -170 97 -276.5t263 -106.5q134 0 237 67.5t157.5 183.5t54.5 259q0 170 -98 276.5t-263 106.5 q-135 0 -238 -68t-156.5 -183t-53.5 -259zM387 1300l322 209h100l252 -209l-70 -83l-235 204l-303 -204z" />
<glyph unicode="&#xf5;" horiz-adv-x="1226" d="M84 463q0 174 71 316.5t204 226.5t303 84q216 0 349.5 -137.5t133.5 -350.5q0 -174 -71 -316.5t-204 -226.5t-303 -84q-216 0 -349.5 137.5t-133.5 350.5zM209 469q0 -170 97 -276.5t263 -106.5q134 0 237 67.5t157.5 183.5t54.5 259q0 170 -98 276.5t-263 106.5 q-135 0 -238 -68t-156.5 -183t-53.5 -259zM420 1346q102 114 215 114q44 0 84 -22t75 -44t68 -22q62 0 142 72l59 -68q-108 -112 -203 -112q-38 0 -71.5 14t-53.5 30t-47.5 30t-54.5 14q-71 0 -156 -74z" />
<glyph unicode="&#xf6;" horiz-adv-x="1226" d="M84 463q0 174 71 316.5t204 226.5t303 84q216 0 349.5 -137.5t133.5 -350.5q0 -174 -71 -316.5t-204 -226.5t-303 -84q-216 0 -349.5 137.5t-133.5 350.5zM209 469q0 -170 97 -276.5t263 -106.5q134 0 237 67.5t157.5 183.5t54.5 259q0 170 -98 276.5t-263 106.5 q-135 0 -238 -68t-156.5 -183t-53.5 -259zM471 1356q0 44 28 72t70 28q38 0 60 -23t22 -55q0 -44 -28 -72t-70 -28q-38 0 -60 22t-22 56zM838 1356q0 44 28 72t70 28q38 0 60 -23t22 -55q0 -44 -28 -72t-70 -28q-38 0 -60 22t-22 56z" />
<glyph unicode="&#xf7;" d="M254 647l18 113h762l-20 -113h-760zM465 262q0 51 31.5 82t76.5 31q42 0 67.5 -25t25.5 -61q0 -51 -32 -82t-77 -31q-42 0 -67 25t-25 61zM614 1120q0 51 32 82t77 31q42 0 67 -25t25 -61q0 -51 -31.5 -82t-76.5 -31q-42 0 -67.5 25t-25.5 61z" />
<glyph unicode="&#xf8;" horiz-adv-x="1226" d="M84 -180l180 258q-85 66 -132.5 165.5t-47.5 219.5q0 174 71 316.5t204 226.5t303 84q118 0 225 -52l164 262l88 -55l-178 -254q87 -67 135.5 -167.5t48.5 -221.5q0 -174 -71 -316.5t-204 -226.5t-303 -84q-122 0 -227 54l-168 -267zM209 469q0 -199 117 -301l503 776 q-75 35 -172 35q-135 0 -238 -68t-156.5 -183t-53.5 -259zM395 121q75 -35 174 -35q134 0 237 67.5t157.5 183.5t54.5 259q0 199 -119 303z" />
<glyph unicode="&#xf9;" horiz-adv-x="1161" d="M104 279q0 65 15 141l112 645h123l-116 -657q-11 -70 -11 -125q0 -90 54 -143.5t147 -53.5q151 0 268 116t154 328l94 535h123l-139 -801q-6 -41 -6 -69q0 -107 120 -107l-41 -96q-94 0 -142 45.5t-44 134.5q0 23 10 68q-139 -265 -411 -265q-138 0 -224 84.5t-86 219.5z M494 1430l61 114l377 -233l-53 -84z" />
<glyph unicode="&#xfa;" horiz-adv-x="1161" d="M104 279q0 65 15 141l112 645h123l-116 -657q-11 -70 -11 -125q0 -90 54 -143.5t147 -53.5q151 0 268 116t154 328l94 535h123l-139 -801q-6 -41 -6 -69q0 -107 120 -107l-41 -96q-94 0 -142 45.5t-44 134.5q0 23 10 68q-139 -265 -411 -265q-138 0 -224 84.5t-86 219.5z M494 1311l383 233l55 -114l-393 -203z" />
<glyph unicode="&#xfb;" horiz-adv-x="1161" d="M104 279q0 65 15 141l112 645h123l-116 -657q-11 -70 -11 -125q0 -90 54 -143.5t147 -53.5q151 0 268 116t154 328l94 535h123l-139 -801q-6 -41 -6 -69q0 -107 120 -107l-41 -96q-94 0 -142 45.5t-44 134.5q0 23 10 68q-139 -265 -411 -265q-138 0 -224 84.5t-86 219.5z M354 1300l322 209h100l252 -209l-70 -83l-235 204l-303 -204z" />
<glyph unicode="&#xfc;" horiz-adv-x="1161" d="M104 279q0 65 15 141l112 645h123l-116 -657q-11 -70 -11 -125q0 -90 54 -143.5t147 -53.5q151 0 268 116t154 328l94 535h123l-139 -801q-6 -41 -6 -69q0 -107 120 -107l-41 -96q-94 0 -142 45.5t-44 134.5q0 23 10 68q-139 -265 -411 -265q-138 0 -224 84.5t-86 219.5z M438 1356q0 44 28.5 72t70.5 28q38 0 59.5 -22.5t21.5 -55.5q0 -44 -28 -72t-70 -28q-38 0 -60 22t-22 56zM805 1356q0 44 28 72t70 28q38 0 60 -23t22 -55q0 -44 -28 -72t-70 -28q-38 0 -60 22t-22 56z" />
<glyph unicode="&#xfd;" horiz-adv-x="1144" d="M68 -340l65 84q133 -111 291 -111q125 0 214 80.5t122 266.5l43 243q-130 -223 -383 -223q-140 0 -225.5 83.5t-85.5 219.5q0 68 12 141l110 621h123l-112 -633q-11 -70 -11 -119q0 -94 55 -148t152 -54q146 0 262.5 114.5t153.5 327.5l90 512h123l-188 -1090 q-17 -99 -50 -176.5t-75.5 -128.5t-97 -84t-112.5 -47t-124 -14q-200 0 -352 135zM492 1311l382 233l56 -114l-393 -203z" />
<glyph unicode="&#xfe;" horiz-adv-x="1191" d="M4 -451l334 1885h123l-113 -617q54 116 157.5 194.5t239.5 78.5q166 0 262.5 -121t96.5 -320q0 -147 -43.5 -274.5t-115.5 -214t-166.5 -136t-196.5 -49.5q-110 0 -200 56t-144 145l-111 -627h-123zM256 291q52 -96 133.5 -150.5t181.5 -54.5q170 0 288 156t118 397 q0 160 -68.5 251t-191.5 91q-146 0 -263 -122t-151 -312z" />
<glyph unicode="&#xff;" horiz-adv-x="1144" d="M68 -340l65 84q133 -111 291 -111q125 0 214 80.5t122 266.5l43 243q-130 -223 -383 -223q-140 0 -225.5 83.5t-85.5 219.5q0 68 12 141l110 621h123l-112 -633q-11 -70 -11 -119q0 -94 55 -148t152 -54q146 0 262.5 114.5t153.5 327.5l90 512h123l-188 -1090 q-17 -99 -50 -176.5t-75.5 -128.5t-97 -84t-112.5 -47t-124 -14q-200 0 -352 135zM436 1356q0 44 28.5 72t70.5 28q38 0 59.5 -22.5t21.5 -55.5q0 -44 -28 -72t-70 -28q-38 0 -60 22t-22 56zM803 1356q0 44 28 72t70 28q38 0 60 -23t22 -55q0 -44 -28 -72t-70 -28 q-38 0 -60 22t-22 56z" />
<glyph unicode="&#x152;" horiz-adv-x="1818" d="M131 618q0 130 33 253.5t99 229.5t156.5 186t213.5 125.5t262 45.5q130 0 235 -24h775l-23 -113h-645l-90 -514h553l-19 -111h-555l-102 -583h647l-20 -113h-748q-95 -25 -174 -25q-185 0 -322 85t-206.5 229.5t-69.5 328.5zM266 618q0 -237 123.5 -383.5t347.5 -146.5 q70 0 156 21l215 1216q-107 21 -223 21q-140 0 -258 -60t-196 -160.5t-121.5 -232t-43.5 -275.5z" />
<glyph unicode="&#x153;" horiz-adv-x="1929" d="M84 463q0 129 41 244.5t113.5 200t178 133.5t228.5 49q164 0 274 -87t148 -235q63 145 180 233.5t283 88.5q165 0 259.5 -92.5t94.5 -227.5q0 -108 -58.5 -186t-150.5 -114t-207 -36q-210 0 -358 119q-4 -27 -4 -80q1 -189 90 -288t246 -99q153 0 313 80l12 -111 q-171 -80 -344 -80q-159 0 -264 86t-135 226q-62 -142 -186 -227t-287 -85q-207 0 -337 137.5t-130 350.5zM209 469q0 -170 93 -276.5t251 -106.5q195 0 312.5 145t117.5 365q0 170 -92 276.5t-250 106.5q-193 0 -312.5 -145.5t-119.5 -364.5zM1133 653q140 -123 329 -123 q132 0 214.5 61.5t82.5 178.5q0 94 -63.5 152.5t-173.5 58.5q-144 0 -243.5 -87.5t-145.5 -240.5z" />
<glyph unicode="&#x178;" horiz-adv-x="1128" d="M-18 76l65 82q45 -37 87.5 -54.5t103.5 -17.5q76 0 135 49t125 166l94 162l-322 745q-29 65 -60 91t-77 26l37 109q86 0 131 -41.5t94 -157.5l275 -651l479 862l104 -55l-637 -1119q-94 -164 -180 -230.5t-205 -66.5q-136 0 -249 101zM475 1704q0 44 28 72t70 28 q38 0 60 -23t22 -55q0 -44 -28 -72t-70 -28q-38 0 -60 22t-22 56zM842 1704q0 44 28 72t70 28q38 0 60 -23t22 -55q0 -44 -28 -72t-70 -28q-38 0 -60 22t-22 56z" />
<glyph unicode="&#x2c6;" horiz-adv-x="796" d="M197 1300l321 209h100l252 -209l-69 -83l-236 204l-303 -204z" />
<glyph unicode="&#x2dc;" horiz-adv-x="761" d="M205 1346q102 114 215 114q44 0 84 -22t75 -44t68 -22q61 0 141 72l60 -68q-108 -112 -203 -112q-38 0 -71.5 14t-53.5 30t-47.5 30t-54.5 14q-71 0 -156 -74z" />
<glyph unicode="&#x2000;" horiz-adv-x="941" />
<glyph unicode="&#x2001;" horiz-adv-x="1882" />
<glyph unicode="&#x2002;" horiz-adv-x="941" />
<glyph unicode="&#x2003;" horiz-adv-x="1882" />
<glyph unicode="&#x2004;" horiz-adv-x="627" />
<glyph unicode="&#x2005;" horiz-adv-x="470" />
<glyph unicode="&#x2006;" horiz-adv-x="313" />
<glyph unicode="&#x2007;" horiz-adv-x="313" />
<glyph unicode="&#x2008;" horiz-adv-x="235" />
<glyph unicode="&#x2009;" horiz-adv-x="376" />
<glyph unicode="&#x200a;" horiz-adv-x="104" />
<glyph unicode="&#x2010;" horiz-adv-x="1024" d="M195 647l20 113h674l-21 -113h-673z" />
<glyph unicode="&#x2011;" horiz-adv-x="1024" d="M195 647l20 113h674l-21 -113h-673z" />
<glyph unicode="&#x2012;" horiz-adv-x="1024" d="M195 647l20 113h674l-21 -113h-673z" />
<glyph unicode="&#x2013;" horiz-adv-x="1253" d="M195 647l18 113h905l-18 -113h-905z" />
<glyph unicode="&#x2014;" horiz-adv-x="1513" d="M195 647l20 113h1163l-20 -113h-1163z" />
<glyph unicode="&#x2018;" horiz-adv-x="405" d="M223 1290q0 90 53.5 162.5t151.5 120.5l27 -49q-53 -40 -80 -76t-37 -80q45 4 72.5 -19.5t27.5 -62.5q0 -46 -30.5 -75t-77.5 -29q-48 0 -77.5 29t-29.5 79z" />
<glyph unicode="&#x2019;" horiz-adv-x="405" d="M219 1180q53 40 80 75.5t37 79.5q-45 -4 -71.5 19.5t-26.5 62.5q0 46 30.5 75.5t77.5 29.5t76 -29.5t29 -81.5q0 -89 -54 -162t-151 -119z" />
<glyph unicode="&#x201a;" horiz-adv-x="421" d="M14 -162q52 40 79 76t38 80q-45 -4 -71.5 19.5t-26.5 62.5q0 46 30.5 75t77.5 29t76 -29.5t29 -80.5q0 -89 -54 -162t-151 -119z" />
<glyph unicode="&#x201c;" horiz-adv-x="696" d="M223 1290q0 90 53.5 162.5t151.5 120.5l27 -49q-53 -40 -80 -76t-37 -80q45 4 72.5 -19.5t27.5 -62.5q0 -46 -30.5 -75t-77.5 -29q-48 0 -77.5 29t-29.5 79zM514 1290q0 90 53.5 162.5t151.5 120.5l26 -49q-52 -40 -78.5 -75.5t-37.5 -80.5q45 4 72.5 -19.5t27.5 -62.5 q0 -46 -30.5 -75t-77.5 -29q-48 0 -77.5 29t-29.5 79z" />
<glyph unicode="&#x201d;" horiz-adv-x="700" d="M219 1180q53 40 80 75.5t37 79.5q-45 -4 -71.5 19.5t-26.5 62.5q0 46 30.5 75.5t77.5 29.5t76 -29.5t29 -81.5q0 -89 -54 -162t-151 -119zM514 1180q53 40 80 75.5t37 79.5q-45 -4 -72 19.5t-27 62.5q0 46 31 75.5t78 29.5t75.5 -29.5t28.5 -81.5q0 -89 -53.5 -162 t-150.5 -119z" />
<glyph unicode="&#x201e;" horiz-adv-x="716" d="M14 -162q52 40 79 76t38 80q-45 -4 -71.5 19.5t-26.5 62.5q0 46 30.5 75t77.5 29t76 -29.5t29 -80.5q0 -89 -54 -162t-151 -119zM309 -162q98 74 117 156q-45 -4 -71.5 19.5t-26.5 62.5q0 46 30.5 75t77.5 29t76 -29.5t29 -80.5q0 -89 -54 -162t-151 -119z" />
<glyph unicode="&#x2022;" horiz-adv-x="831" d="M229 727q0 93 61 155t159 62q96 0 158.5 -62t62.5 -155q0 -94 -61.5 -155.5t-159.5 -61.5q-95 0 -157.5 62t-62.5 155zM317 727q0 -64 36.5 -102.5t95.5 -38.5q61 0 97 38t36 103q0 64 -37 102.5t-96 38.5q-60 0 -96 -39t-36 -102z" />
<glyph unicode="&#x2026;" horiz-adv-x="1845" d="M115 66q0 51 31.5 81.5t76.5 30.5q42 0 67 -25t25 -61q0 -51 -31.5 -81.5t-76.5 -30.5q-42 0 -67 25t-25 61zM729 66q0 51 32 81.5t77 30.5q42 0 67 -25t25 -61q0 -51 -32 -81.5t-77 -30.5q-42 0 -67 25t-25 61zM1343 66q0 51 32 81.5t77 30.5q42 0 67 -25t25 -61 q0 -51 -31.5 -81.5t-76.5 -30.5q-42 0 -67.5 25t-25.5 61z" />
<glyph unicode="&#x202f;" horiz-adv-x="376" />
<glyph unicode="&#x2039;" horiz-adv-x="712" d="M166 674l12 59l393 397l74 -79l-364 -357l237 -352l-94 -63z" />
<glyph unicode="&#x203a;" horiz-adv-x="704" d="M111 358l364 357l-235 352l92 63l258 -395l-10 -59l-394 -397z" />
<glyph unicode="&#x205f;" horiz-adv-x="470" />
<glyph unicode="&#x20ac;" horiz-adv-x="1247" d="M100 520l19 101h160l26 170h-158l19 100h160q33 111 90.5 208t138.5 175.5t193 124t239 45.5q176 0 336 -98l-47 -97q-138 86 -293 86q-100 0 -188.5 -37t-154.5 -100.5t-113 -141t-74 -165.5h589l-18 -100h-592l-26 -170h548l-18 -101h-528q7 -217 106.5 -326.5 t263.5 -109.5q91 0 159.5 20t147.5 58l27 -99q-156 -88 -346 -88q-214 0 -346 144t-139 401h-181z" />
<glyph unicode="&#x2122;" horiz-adv-x="1843" d="M227 1468l17 88h686l-15 -88h-292l-131 -751h-105l133 751h-293zM852 715l147 841h142l174 -534l356 534h152l-148 -841h-102l125 710l-352 -510h-95l-174 521l-125 -721h-100z" />
<glyph unicode="&#x25fc;" horiz-adv-x="1075" d="M0 0v1075h1075v-1075h-1075z" />
</font>
</defs>
</svg>
